<?xml version="1.0" encoding="UTF-8"?><svg id="_图层_2" xmlns="http://www.w3.org/2000/svg" viewBox="0 0 349.19 349.48"><defs><style>.cls-1{fill:#fff;}.cls-2{fill:none;stroke:#241f20;stroke-miterlimit:10;stroke-width:.5px;}</style></defs><g id="_图层_1-2"><path class="cls-1" d="m347.41,170.13c15.81,152.06-76.03,93.35-182.93,170.13C99.95,386.62-12.43,246.92,1.12,170.13,17.45,77.6,63.45,0,164.48,0s173.21,76.67,182.93,170.13Z"/><path d="m19.09,178.09v-7.81h1.02v7.81h-1.02Z"/><path d="m22.01,178.09v-5.5h.95v.85c.37-.64.96-.96,1.75-.96.62,0,1.13.2,1.51.6.38.4.57.94.57,1.62v3.39h-.93v-3.25c0-.46-.12-.83-.35-1.09s-.55-.4-.95-.4c-.45,0-.83.18-1.14.54-.3.36-.46.85-.46,1.47v2.73h-.95Z"/><path d="m35.85,177.18v.91h-5.06v-.37c0-.27.04-.53.13-.78.08-.25.18-.45.28-.62.1-.17.26-.36.48-.57.22-.21.39-.36.52-.46.12-.1.33-.25.63-.46.29-.21.49-.35.58-.41.52-.38.88-.7,1.08-.96.2-.26.3-.6.3-1.03s-.13-.74-.4-.98c-.26-.25-.61-.37-1.03-.37-.45,0-.83.14-1.14.41-.32.27-.47.65-.47,1.13h-.97c0-.73.24-1.33.73-1.78.49-.46,1.1-.68,1.84-.68.69,0,1.26.2,1.72.59.46.4.69.96.69,1.69,0,.56-.14,1.03-.41,1.42-.27.39-.74.83-1.4,1.3-.12.09-.3.21-.53.37-.23.16-.4.28-.53.38-.12.1-.26.21-.41.35s-.27.28-.35.43c-.08.15-.15.31-.18.49h3.89Z"/><path d="m39.81,178.2c-.81,0-1.48-.27-1.99-.82-.51-.55-.77-1.25-.77-2.12v-2.18c0-.87.26-1.57.78-2.12.52-.55,1.18-.82,1.99-.82s1.47.27,1.99.82c.52.55.78,1.25.78,2.11v2.18c0,.87-.26,1.57-.78,2.12-.52.55-1.18.82-1.99.82Zm0-.92c.54,0,.98-.18,1.32-.54.34-.36.51-.85.51-1.47v-2.18c0-.62-.17-1.11-.51-1.47-.34-.36-.78-.54-1.32-.54s-.97.18-1.31.54c-.34.36-.51.85-.51,1.47v2.18c0,.62.17,1.12.51,1.47.34.36.77.54,1.31.54Z"/><path d="m44.84,178.09v-6.88h-1.51l.77-.93h1.68v7.81h-.95Z"/><path d="m49.97,178.2c-.76,0-1.39-.23-1.89-.69s-.74-1.05-.74-1.76c0-.95.41-1.63,1.23-2.04-.54-.38-.8-.9-.8-1.55,0-.59.21-1.07.62-1.45s.94-.57,1.58-.57,1.17.19,1.58.57.61.86.61,1.45c0,.66-.26,1.18-.79,1.55.81.4,1.22,1.08,1.22,2.04,0,.71-.24,1.3-.73,1.76-.49.46-1.12.69-1.89.69Zm0-.9c.51,0,.92-.15,1.21-.44.3-.29.45-.66.45-1.11s-.15-.83-.45-1.12c-.3-.29-.7-.44-1.21-.44s-.9.15-1.21.45c-.31.3-.46.67-.46,1.12s.15.81.46,1.11c.31.3.71.45,1.21.45Zm0-3.96c.38,0,.69-.11.91-.33.23-.22.34-.5.34-.82s-.11-.61-.34-.82-.53-.32-.92-.32-.68.11-.91.32c-.24.22-.35.49-.35.82s.12.59.35.81c.23.23.54.34.91.34Z"/><path d="m58.59,178.15c-.51,0-.91-.14-1.22-.43-.31-.29-.46-.7-.46-1.25v-3h-1.17v-.87h1.17v-1.53h.95v1.53h1.58v.87h-1.58v2.88c0,.34.07.59.22.73.15.14.38.21.69.21.28,0,.5-.04.67-.11v.85c-.26.09-.55.13-.85.13Z"/><path d="m61.59,178.09h-.95v-8.25h.95v3.6c.37-.64.96-.96,1.75-.96.62,0,1.13.2,1.51.6.38.4.57.94.57,1.62v3.39h-.93v-3.25c0-.46-.12-.83-.35-1.09s-.55-.4-.95-.4c-.45,0-.83.18-1.14.54-.3.36-.46.85-.46,1.47v2.73Z"/><path d="m69.47,178.2c-.8,0-1.46-.27-1.99-.81-.52-.54-.79-1.22-.79-2.05s.25-1.51.76-2.05c.51-.54,1.19-.81,2.03-.81s1.52.3,2,.9c.48.6.7,1.34.64,2.21h-4.48c.01.5.2.92.55,1.25.35.33.78.5,1.28.5.75,0,1.28-.31,1.59-.92h.97c-.14.51-.44.94-.89,1.28-.46.34-1.02.51-1.68.51Zm1.08-4.49c-.3-.26-.66-.39-1.09-.39s-.8.13-1.14.38c-.33.26-.54.64-.62,1.14h3.43c-.09-.5-.28-.88-.58-1.14Z"/><path d="m73.49,178.09v-5.5h.95v1.07c.1-.34.3-.61.6-.81.3-.21.61-.31.94-.31.16,0,.3.01.43.04v.98c-.13-.06-.3-.09-.52-.09-.38,0-.72.17-1.01.5-.29.33-.44.8-.44,1.4v2.73h-.95Z"/><path d="m79.67,178.2c-.8,0-1.46-.27-1.99-.81-.52-.54-.79-1.22-.79-2.05s.25-1.51.76-2.05c.51-.54,1.19-.81,2.03-.81s1.52.3,2,.9c.48.6.7,1.34.64,2.21h-4.48c.01.5.2.92.55,1.25.35.33.78.5,1.28.5.75,0,1.28-.31,1.59-.92h.97c-.14.51-.44.94-.89,1.28-.46.34-1.02.51-1.68.51Zm1.08-4.49c-.3-.26-.66-.39-1.09-.39s-.8.13-1.14.38c-.33.26-.54.64-.62,1.14h3.43c-.09-.5-.28-.88-.58-1.14Z"/><path d="m90.81,178.09l-1.36-3.95-1.35,3.95h-.84l-1.87-5.5h.99l1.33,4.02,1.38-4.02h.73l1.38,4.02,1.33-4.02h1l-1.87,5.5h-.84Z"/><path d="m96.86,178.2c-.8,0-1.46-.27-1.99-.81-.52-.54-.79-1.22-.79-2.05s.25-1.51.76-2.05c.51-.54,1.19-.81,2.03-.81s1.52.3,2,.9c.48.6.7,1.34.64,2.21h-4.48c.01.5.2.92.55,1.25.35.33.78.5,1.28.5.75,0,1.28-.31,1.59-.92h.97c-.14.51-.44.94-.89,1.28-.46.34-1.02.51-1.68.51Zm1.08-4.49c-.3-.26-.66-.39-1.09-.39s-.8.13-1.14.38c-.33.26-.54.64-.62,1.14h3.43c-.09-.5-.28-.88-.58-1.14Z"/><path d="m100.89,178.09v-5.5h.95v1.07c.1-.34.3-.61.6-.81.3-.21.61-.31.94-.31.16,0,.3.01.43.04v.98c-.13-.06-.3-.09-.52-.09-.38,0-.72.17-1.01.5-.29.33-.44.8-.44,1.4v2.73h-.95Z"/><path d="m107.06,178.2c-.8,0-1.46-.27-1.99-.81-.52-.54-.79-1.22-.79-2.05s.25-1.51.76-2.05c.51-.54,1.19-.81,2.03-.81s1.52.3,2,.9c.48.6.7,1.34.64,2.21h-4.48c.01.5.2.92.55,1.25.35.33.78.5,1.28.5.75,0,1.28-.31,1.59-.92h.97c-.14.51-.44.94-.89,1.28-.46.34-1.02.51-1.68.51Zm1.08-4.49c-.3-.26-.66-.39-1.09-.39s-.8.13-1.14.38c-.33.26-.54.64-.62,1.14h3.43c-.09-.5-.28-.88-.58-1.14Z"/><path d="m114.44,178.09v-6.88h-1.51l.77-.93h1.68v7.81h-.95Z"/><path d="m118.15,178.09h-1.06l3.64-6.89h-3.99v-.92h5.13v.79l-3.72,7.02Z"/><path d="m124.91,178.2c-.7,0-1.31-.22-1.83-.66-.51-.44-.78-.96-.79-1.56h.97c.09.38.28.69.58.93s.66.36,1.07.36c.48,0,.88-.16,1.2-.48.32-.32.48-.72.48-1.19s-.15-.88-.46-1.2c-.31-.32-.7-.48-1.18-.48-.65,0-1.14.26-1.47.79l-.9-.26.8-4.17h3.65v.92h-2.89l-.43,2.23c.38-.27.84-.41,1.36-.41.73,0,1.32.25,1.79.76.46.51.7,1.15.7,1.93,0,.69-.25,1.27-.76,1.75s-1.14.72-1.89.72Z"/><path d="m129.97,177.94c-.16.16-.35.24-.58.24s-.42-.08-.58-.24c-.16-.16-.24-.36-.24-.58s.08-.41.24-.58c.16-.17.35-.25.57-.25s.41.08.57.25.24.36.24.58-.08.42-.24.58Z"/><path d="m132.5,178.09h-1.06l3.64-6.89h-3.99v-.92h5.13v.79l-3.72,7.02Z"/><path d="m140.86,180.39h-.95v-7.8h.95v.85c.19-.28.46-.51.81-.69s.72-.27,1.13-.27c.76,0,1.4.28,1.92.84.52.56.78,1.23.78,2.02s-.26,1.47-.78,2.02c-.52.56-1.16.84-1.92.84-.4,0-.78-.09-1.13-.27s-.62-.41-.81-.69v3.15Zm.45-3.63c.35.38.8.57,1.34.57s.99-.19,1.34-.57c.35-.38.53-.85.53-1.42s-.18-1.04-.53-1.42c-.35-.38-.8-.57-1.34-.57s-.99.19-1.34.57c-.35.38-.53.85-.53,1.42s.18,1.04.53,1.42Z"/><path d="m149.2,178.2c-.8,0-1.46-.27-1.99-.81-.52-.54-.79-1.22-.79-2.05s.25-1.51.76-2.05c.51-.54,1.19-.81,2.03-.81s1.52.3,2,.9c.48.6.7,1.34.64,2.21h-4.48c.01.5.2.92.55,1.25.35.33.78.5,1.28.5.75,0,1.28-.31,1.59-.92h.97c-.14.51-.44.94-.89,1.28-.46.34-1.02.51-1.68.51Zm1.08-4.49c-.3-.26-.66-.39-1.09-.39s-.8.13-1.14.38c-.33.26-.54.64-.62,1.14h3.43c-.09-.5-.28-.88-.58-1.14Z"/><path d="m153.23,178.09v-5.5h.95v1.07c.1-.34.3-.61.6-.81.3-.21.61-.31.94-.31.16,0,.3.01.43.04v.98c-.13-.06-.3-.09-.52-.09-.38,0-.72.17-1.01.5-.29.33-.44.8-.44,1.4v2.73h-.95Z"/><path d="m160.33,178.09v-6.88h-1.51l.77-.93h1.68v7.81h-.95Z"/><path d="m165.73,178.2c-.81,0-1.48-.27-1.99-.82-.51-.55-.77-1.25-.77-2.12v-2.18c0-.87.26-1.57.78-2.12.52-.55,1.18-.82,1.99-.82s1.47.27,1.99.82c.52.55.78,1.25.78,2.11v2.18c0,.87-.26,1.57-.78,2.12-.52.55-1.18.82-1.99.82Zm0-.92c.54,0,.98-.18,1.32-.54.34-.36.51-.85.51-1.47v-2.18c0-.62-.17-1.11-.51-1.47-.34-.36-.78-.54-1.32-.54s-.97.18-1.31.54c-.34.36-.51.85-.51,1.47v2.18c0,.62.17,1.12.51,1.47.34.36.77.54,1.31.54Z"/><path d="m172.59,178.2c-.81,0-1.48-.27-1.99-.82-.51-.55-.77-1.25-.77-2.12v-2.18c0-.87.26-1.57.78-2.12.52-.55,1.18-.82,1.99-.82s1.47.27,1.99.82c.52.55.78,1.25.78,2.11v2.18c0,.87-.26,1.57-.78,2.12-.52.55-1.18.82-1.99.82Zm0-.92c.54,0,.98-.18,1.32-.54.34-.36.51-.85.51-1.47v-2.18c0-.62-.17-1.11-.51-1.47-.34-.36-.78-.54-1.32-.54s-.97.18-1.31.54c-.34.36-.51.85-.51,1.47v2.18c0,.62.17,1.12.51,1.47.34.36.77.54,1.31.54Z"/><path d="m177.91,177.85l-1.13,1.82h-.63l.74-1.57c-.3-.15-.45-.39-.45-.74,0-.22.08-.41.24-.58s.35-.25.57-.25.41.08.57.25c.16.17.24.36.24.58,0,.16-.05.33-.15.49Z"/><path d="m181.9,178.2c-.81,0-1.48-.27-1.99-.82-.51-.55-.77-1.25-.77-2.12v-2.18c0-.87.26-1.57.78-2.12.52-.55,1.18-.82,1.99-.82s1.47.27,1.99.82c.52.55.78,1.25.78,2.11v2.18c0,.87-.26,1.57-.78,2.12-.52.55-1.18.82-1.99.82Zm0-.92c.54,0,.98-.18,1.32-.54.34-.36.51-.85.51-1.47v-2.18c0-.62-.17-1.11-.51-1.47-.34-.36-.78-.54-1.32-.54s-.97.18-1.31.54c-.34.36-.51.85-.51,1.47v2.18c0,.62.17,1.12.51,1.47.34.36.77.54,1.31.54Z"/><path d="m188.76,178.2c-.81,0-1.48-.27-1.99-.82-.51-.55-.77-1.25-.77-2.12v-2.18c0-.87.26-1.57.78-2.12.52-.55,1.18-.82,1.99-.82s1.47.27,1.99.82c.52.55.78,1.25.78,2.11v2.18c0,.87-.26,1.57-.78,2.12-.52.55-1.18.82-1.99.82Zm0-.92c.54,0,.98-.18,1.32-.54.34-.36.51-.85.51-1.47v-2.18c0-.62-.17-1.11-.51-1.47-.34-.36-.78-.54-1.32-.54s-.97.18-1.31.54c-.34.36-.51.85-.51,1.47v2.18c0,.62.17,1.12.51,1.47.34.36.77.54,1.31.54Z"/><path d="m195.61,178.2c-.81,0-1.48-.27-1.99-.82-.51-.55-.77-1.25-.77-2.12v-2.18c0-.87.26-1.57.78-2.12.52-.55,1.18-.82,1.99-.82s1.47.27,1.99.82c.52.55.78,1.25.78,2.11v2.18c0,.87-.26,1.57-.78,2.12-.52.55-1.18.82-1.99.82Zm0-.92c.54,0,.98-.18,1.32-.54.34-.36.51-.85.51-1.47v-2.18c0-.62-.17-1.11-.51-1.47-.34-.36-.78-.54-1.32-.54s-.97.18-1.31.54c-.34.36-.51.85-.51,1.47v2.18c0,.62.17,1.12.51,1.47.34.36.77.54,1.31.54Z"/><path d="m204.85,178.2c-.76,0-1.4-.28-1.92-.84-.52-.56-.78-1.23-.78-2.02s.26-1.47.78-2.02c.52-.56,1.16-.84,1.92-.84.4,0,.78.09,1.13.27.35.18.62.41.81.69v-3.6h.95v8.25h-.95v-.85c-.19.28-.46.51-.81.69-.35.18-.72.27-1.13.27Zm.14-.87c.54,0,.99-.19,1.34-.57.35-.38.53-.85.53-1.42s-.18-1.04-.53-1.42c-.35-.38-.8-.57-1.34-.57s-1,.19-1.35.57c-.35.38-.53.85-.53,1.42s.18,1.04.53,1.42c.35.38.8.57,1.35.57Z"/><path d="m211.86,178.2c-.8,0-1.46-.27-1.99-.81-.52-.54-.79-1.22-.79-2.05s.25-1.51.76-2.05c.51-.54,1.19-.81,2.03-.81s1.52.3,2,.9c.48.6.7,1.34.64,2.21h-4.48c.01.5.2.92.55,1.25.35.33.78.5,1.28.5.75,0,1.28-.31,1.59-.92h.97c-.14.51-.44.94-.89,1.28-.46.34-1.02.51-1.68.51Zm1.08-4.49c-.3-.26-.66-.39-1.09-.39s-.8.13-1.14.38c-.33.26-.54.64-.62,1.14h3.43c-.09-.5-.28-.88-.58-1.14Z"/><path d="m218.15,178.2c-.76,0-1.4-.28-1.92-.84-.52-.56-.78-1.23-.78-2.02s.26-1.47.78-2.02c.52-.56,1.16-.84,1.92-.84.4,0,.78.09,1.13.27.35.18.62.41.81.69v-.85h.95v5.5h-.95v-.85c-.19.28-.46.51-.81.69-.35.18-.72.27-1.13.27Zm.14-.87c.54,0,.99-.19,1.34-.57.35-.38.53-.85.53-1.42s-.18-1.04-.53-1.42c-.35-.38-.8-.57-1.34-.57s-1,.19-1.35.57c-.35.38-.53.85-.53,1.42s.18,1.04.53,1.42c.35.38.8.57,1.35.57Z"/><path d="m224.95,178.15c-.51,0-.91-.14-1.22-.43-.31-.29-.46-.7-.46-1.25v-3h-1.17v-.87h1.17v-1.53h.95v1.53h1.58v.87h-1.58v2.88c0,.34.07.59.22.73.15.14.38.21.69.21.28,0,.5-.04.67-.11v.85c-.26.09-.55.13-.85.13Z"/><path d="m227.95,178.09h-.95v-8.25h.95v3.6c.37-.64.96-.96,1.75-.96.62,0,1.13.2,1.51.6.38.4.57.94.57,1.62v3.39h-.93v-3.25c0-.46-.12-.83-.35-1.09s-.55-.4-.95-.4c-.45,0-.83.18-1.14.54-.3.36-.46.85-.46,1.47v2.73Z"/><path d="m235.25,178.2c-.62,0-1.13-.15-1.55-.45s-.64-.72-.69-1.25h.97c.06.31.21.54.45.68.24.15.51.22.83.22s.57-.06.76-.19c.19-.12.29-.3.29-.54,0-.22-.07-.4-.21-.54-.14-.14-.38-.25-.7-.34l-.79-.21c-.95-.25-1.42-.79-1.42-1.62,0-.45.18-.81.53-1.08.36-.27.81-.41,1.37-.41s1.03.15,1.39.45.57.67.61,1.13h-.95c-.07-.24-.2-.43-.39-.57-.19-.14-.41-.21-.67-.21-.27,0-.5.06-.68.19-.18.12-.27.29-.27.5s.07.36.2.48c.13.12.34.23.64.31l.88.23c.94.23,1.41.78,1.41,1.63,0,.53-.19.93-.56,1.19s-.86.4-1.46.4Z"/><path d="m21.83,191.4c-.4,0-.78-.09-1.13-.27s-.62-.41-.81-.69v.85h-.95v-8.25h.95v3.6c.19-.28.46-.51.81-.69s.72-.27,1.13-.27c.76,0,1.4.28,1.92.84.52.56.78,1.23.78,2.02s-.26,1.47-.78,2.02c-.52.56-1.16.84-1.92.84Zm-1.49-1.44c.35.38.8.57,1.34.57s.99-.19,1.34-.57c.35-.38.53-.85.53-1.42s-.18-1.04-.53-1.42c-.35-.38-.8-.57-1.34-.57s-.99.19-1.34.57c-.35.38-.53.85-.53,1.42s.18,1.04.53,1.42Z"/><path d="m28.22,191.4c-.8,0-1.46-.27-1.99-.81-.52-.54-.79-1.22-.79-2.05s.25-1.51.76-2.05c.51-.54,1.19-.81,2.03-.81s1.52.3,2,.9c.48.6.7,1.34.64,2.21h-4.48c.01.5.2.92.55,1.25.35.33.78.5,1.28.5.75,0,1.28-.31,1.59-.92h.97c-.14.51-.44.94-.89,1.28-.46.34-1.02.51-1.68.51Zm1.08-4.49c-.3-.26-.66-.39-1.09-.39s-.8.13-1.14.38c-.33.26-.54.64-.62,1.14h3.43c-.09-.5-.28-.88-.58-1.14Z"/><path d="m34.69,191.4c-.83,0-1.51-.28-2.06-.83-.54-.55-.81-1.23-.81-2.03s.27-1.48.81-2.03c.54-.55,1.23-.83,2.06-.83.68,0,1.27.19,1.77.57.5.38.83.87,1,1.48h-1.01c-.13-.36-.35-.65-.66-.86-.31-.21-.67-.32-1.1-.32-.56,0-1.02.19-1.38.57-.36.38-.53.85-.53,1.42s.18,1.04.53,1.42c.36.38.82.57,1.38.57.42,0,.79-.11,1.1-.32.31-.21.53-.5.66-.86h1.01c-.16.61-.49,1.1-.99,1.48-.5.38-1.09.57-1.78.57Z"/><path d="m40.98,191.4c-.76,0-1.4-.28-1.92-.84-.52-.56-.78-1.23-.78-2.02s.26-1.47.78-2.02c.52-.56,1.16-.84,1.92-.84.4,0,.78.09,1.13.27.35.18.62.41.81.69v-.85h.95v5.5h-.95v-.85c-.19.28-.46.51-.81.69-.35.18-.72.27-1.13.27Zm.14-.87c.54,0,.99-.19,1.34-.57.35-.38.53-.85.53-1.42s-.18-1.04-.53-1.42c-.35-.38-.8-.57-1.34-.57s-1,.19-1.35.57c-.35.38-.53.85-.53,1.42s.18,1.04.53,1.42c.35.38.8.57,1.35.57Z"/><path d="m47.59,191.4c-.6,0-1.09-.2-1.46-.61s-.56-.95-.56-1.62v-3.38h.95v3.23c0,.46.11.83.34,1.1.22.27.53.41.91.41.44,0,.8-.18,1.09-.54.29-.36.43-.85.43-1.47v-2.73h.95v5.5h-.95v-.85c-.36.64-.92.96-1.69.96Z"/><path d="m53.78,191.4c-.62,0-1.13-.15-1.55-.45s-.64-.72-.69-1.25h.97c.06.31.21.54.45.68.24.15.51.22.83.22s.57-.06.76-.19c.19-.12.29-.3.29-.54,0-.22-.07-.4-.21-.54-.14-.14-.38-.25-.7-.34l-.79-.21c-.95-.25-1.42-.79-1.42-1.62,0-.45.18-.81.53-1.08.36-.27.81-.41,1.37-.41s1.03.15,1.39.45.57.67.61,1.13h-.95c-.07-.24-.2-.43-.39-.57-.19-.14-.41-.21-.67-.21-.27,0-.5.06-.68.19-.18.12-.27.29-.27.5s.07.36.2.48c.13.12.34.23.64.31l.88.23c.94.23,1.41.78,1.41,1.63,0,.53-.19.93-.56,1.19s-.86.4-1.46.4Z"/><path d="m59.49,191.4c-.8,0-1.46-.27-1.99-.81-.52-.54-.79-1.22-.79-2.05s.25-1.51.76-2.05c.51-.54,1.19-.81,2.03-.81s1.52.3,2,.9c.48.6.7,1.34.64,2.21h-4.48c.01.5.2.92.55,1.25.35.33.78.5,1.28.5.75,0,1.28-.31,1.59-.92h.97c-.14.51-.44.94-.89,1.28-.46.34-1.02.51-1.68.51Zm1.08-4.49c-.3-.26-.66-.39-1.09-.39s-.8.13-1.14.38c-.33.26-.54.64-.62,1.14h3.43c-.09-.5-.28-.88-.58-1.14Z"/><path d="m68.61,191.4c-.83,0-1.52-.28-2.06-.83-.55-.55-.82-1.23-.82-2.03s.27-1.48.82-2.03c.55-.55,1.23-.83,2.06-.83s1.5.28,2.05.83c.55.55.82,1.23.82,2.03s-.27,1.48-.82,2.03c-.55.55-1.23.83-2.05.83Zm-1.38-1.45c.36.38.82.57,1.38.57s1.02-.19,1.38-.57c.35-.38.53-.85.53-1.41s-.18-1.03-.53-1.41c-.35-.38-.81-.57-1.38-.57s-1.02.19-1.38.57c-.36.38-.53.85-.53,1.41s.18,1.03.53,1.41Z"/><path d="m73.21,191.29v-4.63h-1.17v-.87h1.17v-1.11c0-.55.15-.97.46-1.27.31-.29.71-.44,1.22-.44.3,0,.59.05.86.14v.84c-.17-.07-.4-.11-.68-.11-.32,0-.55.07-.69.21-.15.14-.22.38-.22.73v1.01h1.59v.87h-1.59v4.63h-.95Z"/><path d="m79.29,191.29v-7.81h1.02v3.33h4.28v-3.33h1.02v7.81h-1.02v-3.52h-4.28v3.52h-1.02Z"/><path d="m89.79,191.4c-.8,0-1.46-.27-1.99-.81-.52-.54-.79-1.22-.79-2.05s.25-1.51.76-2.05c.51-.54,1.19-.81,2.03-.81s1.52.3,2,.9c.48.6.7,1.34.64,2.21h-4.48c.01.5.2.92.55,1.25.35.33.78.5,1.28.5.75,0,1.28-.31,1.59-.92h.97c-.14.51-.44.94-.89,1.28-.46.34-1.02.51-1.68.51Zm1.08-4.49c-.3-.26-.66-.39-1.09-.39s-.8.13-1.14.38c-.33.26-.54.64-.62,1.14h3.43c-.09-.5-.28-.88-.58-1.14Z"/><path d="m96.08,191.4c-.76,0-1.4-.28-1.92-.84-.52-.56-.78-1.23-.78-2.02s.26-1.47.78-2.02c.52-.56,1.16-.84,1.92-.84.4,0,.78.09,1.13.27.35.18.62.41.81.69v-.85h.95v5.5h-.95v-.85c-.19.28-.46.51-.81.69-.35.18-.72.27-1.13.27Zm.14-.87c.54,0,.99-.19,1.34-.57.35-.38.53-.85.53-1.42s-.18-1.04-.53-1.42c-.35-.38-.8-.57-1.34-.57s-1,.19-1.35.57c-.35.38-.53.85-.53,1.42s.18,1.04.53,1.42c.35.38.8.57,1.35.57Z"/><path d="m100.74,191.29v-5.5h.95v1.07c.1-.34.3-.61.6-.81.3-.21.61-.31.94-.31.16,0,.3.01.43.04v.98c-.13-.06-.3-.09-.52-.09-.38,0-.72.17-1.01.5-.29.33-.44.8-.44,1.4v2.73h-.95Z"/><path d="m106.9,191.35c-.51,0-.91-.14-1.22-.43-.31-.29-.46-.7-.46-1.25v-3h-1.17v-.87h1.17v-1.53h.95v1.53h1.58v.87h-1.58v2.88c0,.34.07.59.22.73.15.14.38.21.69.21.28,0,.5-.04.67-.11v.85c-.26.09-.55.13-.85.13Z"/><path d="m111.75,191.29v-7.81h2.24c1.2,0,2.19.37,2.98,1.11.79.74,1.18,1.67,1.18,2.79s-.39,2.05-1.18,2.79c-.79.74-1.78,1.11-2.98,1.11h-2.24Zm1.02-.96h1.22c.93,0,1.68-.28,2.26-.83.58-.55.86-1.26.86-2.12s-.29-1.56-.86-2.12c-.58-.55-1.33-.83-2.26-.83h-1.22v5.9Z"/><path d="m120.44,184.13c-.12.13-.28.19-.47.19s-.35-.06-.48-.19c-.13-.13-.2-.29-.2-.48s.07-.34.2-.47c.13-.13.29-.2.48-.2s.35.07.47.2c.12.13.19.29.19.47s-.06.35-.19.48Zm-.96,7.17v-5.5h.95v5.5h-.95Z"/><path d="m124,191.4c-.62,0-1.13-.15-1.55-.45s-.64-.72-.69-1.25h.97c.06.31.21.54.45.68.24.15.51.22.83.22s.57-.06.76-.19c.19-.12.29-.3.29-.54,0-.22-.07-.4-.21-.54-.14-.14-.38-.25-.7-.34l-.79-.21c-.95-.25-1.42-.79-1.42-1.62,0-.45.18-.81.53-1.08.36-.27.81-.41,1.37-.41s1.03.15,1.39.45.57.67.61,1.13h-.95c-.07-.24-.2-.43-.39-.57-.19-.14-.41-.21-.67-.21-.27,0-.5.06-.68.19-.18.12-.27.29-.27.5s.07.36.2.48c.13.12.34.23.64.31l.88.23c.94.23,1.41.78,1.41,1.63,0,.53-.19.93-.56,1.19s-.86.4-1.46.4Z"/><path d="m129.71,191.4c-.8,0-1.46-.27-1.99-.81-.52-.54-.79-1.22-.79-2.05s.25-1.51.76-2.05c.51-.54,1.19-.81,2.03-.81s1.52.3,2,.9c.48.6.7,1.34.64,2.21h-4.48c.01.5.2.92.55,1.25.35.33.78.5,1.28.5.75,0,1.28-.31,1.59-.92h.97c-.14.51-.44.94-.89,1.28-.46.34-1.02.51-1.68.51Zm1.08-4.49c-.3-.26-.66-.39-1.09-.39s-.8.13-1.14.38c-.33.26-.54.64-.62,1.14h3.43c-.09-.5-.28-.88-.58-1.14Z"/><path d="m136,191.4c-.76,0-1.4-.28-1.92-.84-.52-.56-.78-1.23-.78-2.02s.26-1.47.78-2.02c.52-.56,1.16-.84,1.92-.84.4,0,.78.09,1.13.27.35.18.62.41.81.69v-.85h.95v5.5h-.95v-.85c-.19.28-.46.51-.81.69-.35.18-.72.27-1.13.27Zm.14-.87c.54,0,.99-.19,1.34-.57.35-.38.53-.85.53-1.42s-.18-1.04-.53-1.42c-.35-.38-.8-.57-1.34-.57s-1,.19-1.35.57c-.35.38-.53.85-.53,1.42s.18,1.04.53,1.42c.35.38.8.57,1.35.57Z"/><path d="m142.43,191.4c-.62,0-1.13-.15-1.55-.45s-.64-.72-.69-1.25h.97c.06.31.21.54.45.68.24.15.51.22.83.22s.57-.06.76-.19c.19-.12.29-.3.29-.54,0-.22-.07-.4-.21-.54-.14-.14-.38-.25-.7-.34l-.79-.21c-.95-.25-1.42-.79-1.42-1.62,0-.45.18-.81.53-1.08.36-.27.81-.41,1.37-.41s1.03.15,1.39.45.57.67.61,1.13h-.95c-.07-.24-.2-.43-.39-.57-.19-.14-.41-.21-.67-.21-.27,0-.5.06-.68.19-.18.12-.27.29-.27.5s.07.36.2.48c.13.12.34.23.64.31l.88.23c.94.23,1.41.78,1.41,1.63,0,.53-.19.93-.56,1.19s-.86.4-1.46.4Z"/><path d="m148.14,191.4c-.8,0-1.46-.27-1.99-.81-.52-.54-.79-1.22-.79-2.05s.25-1.51.76-2.05c.51-.54,1.19-.81,2.03-.81s1.52.3,2,.9c.48.6.7,1.34.64,2.21h-4.48c.01.5.2.92.55,1.25.35.33.78.5,1.28.5.75,0,1.28-.31,1.59-.92h.97c-.14.51-.44.94-.89,1.28-.46.34-1.02.51-1.68.51Zm1.08-4.49c-.3-.26-.66-.39-1.09-.39s-.8.13-1.14.38c-.33.26-.54.64-.62,1.14h3.43c-.09-.5-.28-.88-.58-1.14Z"/><path d="m153.24,191.14c-.16.16-.35.24-.58.24s-.42-.08-.58-.24c-.16-.16-.24-.36-.24-.58s.08-.41.24-.58c.16-.17.35-.25.57-.25s.41.08.57.25.24.36.24.58-.08.42-.24.58Z"/><path d="m71.12,64.39v-4.63h-1.17v-.87h1.17v-1.11c0-.55.15-.97.46-1.27.31-.29.71-.44,1.22-.44.3,0,.59.05.86.14v.84c-.17-.07-.4-.11-.68-.11-.32,0-.55.07-.69.21-.15.14-.22.38-.22.73v1.01h1.59v.87h-1.59v4.63h-.95Z"/><path d="m76.89,64.5c-.8,0-1.46-.27-1.99-.81-.52-.54-.79-1.22-.79-2.05s.25-1.51.76-2.05c.51-.54,1.19-.81,2.03-.81s1.52.3,2,.9c.48.6.7,1.34.64,2.21h-4.48c.01.5.2.92.55,1.25.35.33.78.5,1.28.5.75,0,1.28-.31,1.59-.92h.97c-.14.51-.44.94-.89,1.28-.46.34-1.02.51-1.68.51Zm1.08-4.49c-.3-.26-.66-.39-1.09-.39s-.8.13-1.14.38c-.33.26-.54.64-.62,1.14h3.43c-.09-.5-.28-.88-.58-1.14Z"/><path d="m88,64.39v-3.23c0-.46-.09-.82-.28-1.09-.19-.28-.46-.41-.81-.41-.44,0-.8.17-1.07.52s-.42.81-.43,1.41v2.82h-.95v-3.23c0-.46-.09-.83-.28-1.1-.19-.27-.45-.41-.8-.41-.46,0-.82.18-1.1.54s-.42.85-.42,1.47v2.73h-.95v-5.5h.95v.85c.35-.64.91-.96,1.66-.96.84,0,1.4.39,1.69,1.18.15-.36.38-.65.7-.86.32-.21.69-.32,1.1-.32.59,0,1.06.2,1.41.6s.52.95.52,1.63v3.38h-.95Z"/><path d="m92.92,64.5c-.76,0-1.4-.28-1.92-.84-.52-.56-.78-1.23-.78-2.02s.26-1.47.78-2.02c.52-.56,1.16-.84,1.92-.84.4,0,.78.09,1.13.27.35.18.62.41.81.69v-.85h.95v5.5h-.95v-.85c-.19.28-.46.51-.81.69-.35.18-.72.27-1.13.27Zm.14-.87c.54,0,.99-.19,1.34-.57.35-.38.53-.85.53-1.42s-.18-1.04-.53-1.42c-.35-.38-.8-.57-1.34-.57s-1,.19-1.35.57c-.35.38-.53.85-.53,1.42s.18,1.04.53,1.42c.35.38.8.57,1.35.57Z"/><path d="m97.58,64.39v-8.25h.95v8.25h-.95Z"/><path d="m102.67,64.5c-.8,0-1.46-.27-1.99-.81-.52-.54-.79-1.22-.79-2.05s.25-1.51.76-2.05c.51-.54,1.19-.81,2.03-.81s1.52.3,2,.9c.48.6.7,1.34.64,2.21h-4.48c.01.5.2.92.55,1.25.35.33.78.5,1.28.5.75,0,1.28-.31,1.59-.92h.97c-.14.51-.44.94-.89,1.28-.46.34-1.02.51-1.68.51Zm1.08-4.49c-.3-.26-.66-.39-1.09-.39s-.8.13-1.14.38c-.33.26-.54.64-.62,1.14h3.43c-.09-.5-.28-.88-.58-1.14Z"/><path d="m111.61,64.5c-.76,0-1.4-.28-1.92-.84-.52-.56-.78-1.23-.78-2.02s.26-1.47.78-2.02c.52-.56,1.16-.84,1.92-.84.4,0,.78.09,1.13.27.35.18.62.41.81.69v-3.6h.95v8.25h-.95v-.85c-.19.28-.46.51-.81.69-.35.18-.72.27-1.13.27Zm.14-.87c.54,0,.99-.19,1.34-.57.35-.38.53-.85.53-1.42s-.18-1.04-.53-1.42c-.35-.38-.8-.57-1.34-.57s-1,.19-1.35.57c-.35.38-.53.85-.53,1.42s.18,1.04.53,1.42c.35.38.8.57,1.35.57Z"/><path d="m118.62,64.5c-.8,0-1.46-.27-1.99-.81-.52-.54-.79-1.22-.79-2.05s.25-1.51.76-2.05c.51-.54,1.19-.81,2.03-.81s1.52.3,2,.9c.48.6.7,1.34.64,2.21h-4.48c.01.5.2.92.55,1.25.35.33.78.5,1.28.5.75,0,1.28-.31,1.59-.92h.97c-.14.51-.44.94-.89,1.28-.46.34-1.02.51-1.68.51Zm1.08-4.49c-.3-.26-.66-.39-1.09-.39s-.8.13-1.14.38c-.33.26-.54.64-.62,1.14h3.43c-.09-.5-.28-.88-.58-1.14Z"/><path d="m124.91,64.5c-.76,0-1.4-.28-1.92-.84-.52-.56-.78-1.23-.78-2.02s.26-1.47.78-2.02c.52-.56,1.16-.84,1.92-.84.4,0,.78.09,1.13.27.35.18.62.41.81.69v-.85h.95v5.5h-.95v-.85c-.19.28-.46.51-.81.69-.35.18-.72.27-1.13.27Zm.14-.87c.54,0,.99-.19,1.34-.57.35-.38.53-.85.53-1.42s-.18-1.04-.53-1.42c-.35-.38-.8-.57-1.34-.57s-1,.19-1.35.57c-.35.38-.53.85-.53,1.42s.18,1.04.53,1.42c.35.38.8.57,1.35.57Z"/><path d="m131.71,64.44c-.51,0-.91-.14-1.22-.43-.31-.29-.46-.7-.46-1.25v-3h-1.17v-.87h1.17v-1.53h.95v1.53h1.58v.87h-1.58v2.88c0,.34.07.59.22.73.15.14.38.21.69.21.28,0,.5-.04.67-.11v.85c-.26.09-.55.13-.85.13Z"/><path d="m134.71,64.39h-.95v-8.25h.95v3.6c.37-.64.96-.96,1.75-.96.62,0,1.13.2,1.51.6.38.4.57.94.57,1.62v3.39h-.93v-3.25c0-.46-.12-.83-.35-1.09s-.55-.4-.95-.4c-.45,0-.83.18-1.14.54-.3.36-.46.85-.46,1.47v2.73Z"/><path d="m142.89,64.39v-5.5h.95v1.07c.1-.34.3-.61.6-.81.3-.21.61-.31.94-.31.16,0,.3.01.43.04v.98c-.13-.06-.3-.09-.52-.09-.38,0-.72.17-1.01.5-.29.33-.44.8-.44,1.4v2.73h-.95Z"/><path d="m149,64.5c-.76,0-1.4-.28-1.92-.84-.52-.56-.78-1.23-.78-2.02s.26-1.47.78-2.02c.52-.56,1.16-.84,1.92-.84.4,0,.78.09,1.13.27.35.18.62.41.81.69v-.85h.95v5.5h-.95v-.85c-.19.28-.46.51-.81.69-.35.18-.72.27-1.13.27Zm.14-.87c.54,0,.99-.19,1.34-.57.35-.38.53-.85.53-1.42s-.18-1.04-.53-1.42c-.35-.38-.8-.57-1.34-.57s-1,.19-1.35.57c-.35.38-.53.85-.53,1.42s.18,1.04.53,1.42c.35.38.8.57,1.35.57Z"/><path d="m155.8,64.44c-.51,0-.91-.14-1.22-.43-.31-.29-.46-.7-.46-1.25v-3h-1.17v-.87h1.17v-1.53h.95v1.53h1.58v.87h-1.58v2.88c0,.34.07.59.22.73.15.14.38.21.69.21.28,0,.5-.04.67-.11v.85c-.26.09-.55.13-.85.13Z"/><path d="m160.12,64.5c-.8,0-1.46-.27-1.99-.81-.52-.54-.79-1.22-.79-2.05s.25-1.51.76-2.05c.51-.54,1.19-.81,2.03-.81s1.52.3,2,.9c.48.6.7,1.34.64,2.21h-4.48c.01.5.2.92.55,1.25.35.33.78.5,1.28.5.75,0,1.28-.31,1.59-.92h.97c-.14.51-.44.94-.89,1.28-.46.34-1.02.51-1.68.51Zm1.08-4.49c-.3-.26-.66-.39-1.09-.39s-.8.13-1.14.38c-.33.26-.54.64-.62,1.14h3.43c-.09-.5-.28-.88-.58-1.14Z"/><path d="m165.34,60.16c-.16.16-.35.24-.58.24s-.42-.08-.58-.24c-.16-.16-.24-.36-.24-.58s.08-.41.24-.58c.16-.17.35-.25.57-.25s.41.08.57.25c.16.16.24.36.24.58s-.08.42-.24.58Zm0,4.07c-.16.16-.35.24-.58.24s-.42-.08-.58-.24c-.16-.16-.24-.36-.24-.58s.08-.41.24-.58c.16-.17.35-.25.57-.25s.41.08.57.25.24.36.24.58-.08.42-.24.58Z"/><path d="m169.74,64.39l2.41-2.84c-.08,0-.18.01-.31.01-.65,0-1.22-.25-1.71-.75-.49-.5-.73-1.08-.73-1.76,0-.73.25-1.35.75-1.85s1.13-.75,1.89-.75,1.39.25,1.89.75c.51.5.76,1.11.76,1.83,0,.38-.08.72-.23,1.03-.15.3-.37.62-.65.96l-2.86,3.38h-1.21Zm1.11-4.15c.32.33.72.49,1.19.49s.88-.16,1.2-.49c.32-.33.48-.72.48-1.19s-.16-.87-.48-1.19c-.32-.33-.72-.49-1.2-.49s-.88.16-1.19.49c-.32.33-.48.72-.48,1.19s.16.87.48,1.19Z"/><path d="m178.34,64.5c-.78,0-1.44-.24-1.97-.71-.54-.47-.81-1.06-.81-1.78h.96c.03.46.22.84.56,1.13s.77.43,1.26.43c.46,0,.83-.12,1.13-.37.3-.25.45-.59.45-1.03,0-.47-.15-.82-.46-1.06-.3-.24-.72-.35-1.25-.35h-.58v-.87h.63c.42,0,.76-.12,1.03-.35s.41-.54.41-.91c0-.37-.13-.67-.4-.9-.27-.23-.6-.35-1.01-.35-.46,0-.85.14-1.17.41-.32.27-.47.65-.47,1.13h-.97c0-.75.25-1.35.75-1.79.5-.45,1.12-.67,1.86-.67.68,0,1.25.2,1.7.59.45.39.68.91.68,1.56,0,.37-.11.71-.3,1.01-.19.3-.45.53-.75.69.4.16.71.41.93.74.23.33.34.72.34,1.16,0,.68-.24,1.24-.72,1.66-.48.42-1.09.64-1.84.64Z"/><path d="m183.41,64.23c-.16.16-.35.24-.58.24s-.42-.08-.58-.24c-.16-.16-.24-.36-.24-.58s.08-.41.24-.58c.16-.17.35-.25.57-.25s.41.08.57.25.24.36.24.58-.08.42-.24.58Z"/><path d="m184.99,64.39l2.41-2.84c-.08,0-.18.01-.31.01-.65,0-1.22-.25-1.71-.75-.49-.5-.73-1.08-.73-1.76,0-.73.25-1.35.75-1.85s1.13-.75,1.89-.75,1.39.25,1.89.75c.51.5.76,1.11.76,1.83,0,.38-.08.72-.23,1.03-.15.3-.37.62-.65.96l-2.86,3.38h-1.21Zm1.11-4.15c.32.33.72.49,1.19.49s.88-.16,1.2-.49c.32-.33.48-.72.48-1.19s-.16-.87-.48-1.19c-.32-.33-.72-.49-1.2-.49s-.88.16-1.19.49c-.32.33-.48.72-.48,1.19s.16.87.48,1.19Z"/><path d="m191.92,64.39v-6.88h-1.51l.77-.93h1.68v7.81h-.95Z"/><path d="m194.72,64.39l2.41-2.84c-.08,0-.18.01-.31.01-.65,0-1.22-.25-1.71-.75-.49-.5-.73-1.08-.73-1.76,0-.73.25-1.35.75-1.85s1.13-.75,1.89-.75,1.39.25,1.89.75c.51.5.76,1.11.76,1.83,0,.38-.08.72-.23,1.03-.15.3-.37.62-.65.96l-2.86,3.38h-1.21Zm1.11-4.15c.32.33.72.49,1.19.49s.88-.16,1.2-.49c.32-.33.48-.72.48-1.19s-.16-.87-.48-1.19c-.32-.33-.72-.49-1.2-.49s-.88.16-1.19.49c-.32.33-.48.72-.48,1.19s.16.87.48,1.19Z"/><path d="m205.71,268.93v-3.23c0-.45-.09-.82-.28-1.09-.19-.27-.46-.41-.81-.41-.44,0-.8.17-1.07.52s-.42.81-.43,1.41v2.82h-.95v-3.23c0-.46-.09-.83-.28-1.1-.19-.27-.45-.41-.8-.41-.46,0-.82.18-1.1.54-.28.36-.42.85-.42,1.47v2.73h-.95v-5.5h.95v.85c.35-.64.91-.96,1.66-.96.84,0,1.4.39,1.69,1.18.15-.36.38-.64.7-.86.32-.21.69-.32,1.1-.32.59,0,1.06.2,1.41.61s.52.95.52,1.63v3.38h-.95Z"/><path d="m210.63,269.04c-.76,0-1.4-.28-1.92-.84-.52-.56-.78-1.23-.78-2.02s.26-1.47.78-2.02c.52-.56,1.16-.84,1.92-.84.4,0,.78.09,1.13.27.35.18.62.41.81.69v-.85h.95v5.5h-.95v-.85c-.19.28-.46.51-.81.69-.35.18-.72.27-1.13.27Zm.14-.87c.54,0,.99-.19,1.34-.57.35-.38.53-.85.53-1.42s-.18-1.04-.53-1.42c-.35-.38-.8-.57-1.34-.57s-1,.19-1.35.57c-.35.38-.53.85-.53,1.42s.18,1.04.53,1.42c.35.38.8.57,1.35.57Z"/><path d="m215.29,268.93v-8.25h.95v8.25h-.95Z"/><path d="m220.38,269.04c-.8,0-1.46-.27-1.99-.81s-.79-1.22-.79-2.05.25-1.51.76-2.05,1.19-.81,2.03-.81,1.52.3,2,.9c.48.6.7,1.34.64,2.21h-4.48c.01.5.2.92.55,1.25.35.33.78.5,1.28.5.75,0,1.28-.31,1.59-.92h.97c-.14.51-.44.94-.89,1.28-.46.34-1.02.51-1.68.51Zm1.08-4.49c-.3-.26-.66-.39-1.09-.39s-.8.13-1.14.38c-.33.26-.54.64-.62,1.14h3.43c-.09-.5-.28-.88-.58-1.14Z"/><path d="m229.32,269.04c-.76,0-1.4-.28-1.92-.84-.52-.56-.78-1.23-.78-2.02s.26-1.47.78-2.02c.52-.56,1.16-.84,1.92-.84.4,0,.78.09,1.13.27.35.18.62.41.81.69v-3.6h.95v8.25h-.95v-.85c-.19.28-.46.51-.81.69-.35.18-.72.27-1.13.27Zm.14-.87c.54,0,.99-.19,1.34-.57.35-.38.53-.85.53-1.42s-.18-1.04-.53-1.42c-.35-.38-.8-.57-1.34-.57s-1,.19-1.35.57c-.35.38-.53.85-.53,1.42s.18,1.04.53,1.42c.35.38.8.57,1.35.57Z"/><path d="m236.33,269.04c-.8,0-1.46-.27-1.99-.81s-.79-1.22-.79-2.05.25-1.51.76-2.05,1.19-.81,2.03-.81,1.52.3,2,.9c.48.6.7,1.34.64,2.21h-4.48c.01.5.2.92.55,1.25.35.33.78.5,1.28.5.75,0,1.28-.31,1.59-.92h.97c-.14.51-.44.94-.89,1.28-.46.34-1.02.51-1.68.51Zm1.08-4.49c-.3-.26-.66-.39-1.09-.39s-.8.13-1.14.38c-.33.26-.54.64-.62,1.14h3.43c-.09-.5-.28-.88-.58-1.14Z"/><path d="m242.62,269.04c-.76,0-1.4-.28-1.92-.84-.52-.56-.78-1.23-.78-2.02s.26-1.47.78-2.02c.52-.56,1.16-.84,1.92-.84.4,0,.78.09,1.13.27.35.18.62.41.81.69v-.85h.95v5.5h-.95v-.85c-.19.28-.46.51-.81.69-.35.18-.72.27-1.13.27Zm.14-.87c.54,0,.99-.19,1.34-.57.35-.38.53-.85.53-1.42s-.18-1.04-.53-1.42c-.35-.38-.8-.57-1.34-.57s-1,.19-1.35.57c-.35.38-.53.85-.53,1.42s.18,1.04.53,1.42c.35.38.8.57,1.35.57Z"/><path d="m249.42,268.98c-.51,0-.91-.14-1.22-.43-.31-.29-.46-.7-.46-1.25v-3h-1.17v-.87h1.17v-1.53h.95v1.53h1.58v.87h-1.58v2.88c0,.34.07.59.22.73.15.14.38.21.69.21.28,0,.5-.04.67-.11v.85c-.26.09-.55.13-.85.13Z"/><path d="m252.42,268.93h-.95v-8.25h.95v3.6c.37-.64.96-.96,1.75-.96.62,0,1.13.2,1.51.61.38.4.57.94.57,1.62v3.39h-.93v-3.25c0-.46-.12-.83-.35-1.09s-.55-.4-.95-.4c-.45,0-.83.18-1.14.54-.3.36-.46.85-.46,1.47v2.73Z"/><path d="m260.6,268.93v-5.5h.95v1.07c.1-.34.3-.61.6-.81s.61-.31.94-.31c.16,0,.3.02.43.04v.98c-.13-.06-.3-.09-.52-.09-.38,0-.72.17-1.01.5-.29.33-.44.8-.44,1.4v2.73h-.95Z"/><path d="m266.71,269.04c-.76,0-1.4-.28-1.92-.84-.52-.56-.78-1.23-.78-2.02s.26-1.47.78-2.02c.52-.56,1.16-.84,1.92-.84.4,0,.78.09,1.13.27.35.18.62.41.81.69v-.85h.95v5.5h-.95v-.85c-.19.28-.46.51-.81.69-.35.18-.72.27-1.13.27Zm.14-.87c.54,0,.99-.19,1.34-.57.35-.38.53-.85.53-1.42s-.18-1.04-.53-1.42c-.35-.38-.8-.57-1.34-.57s-1,.19-1.35.57c-.35.38-.53.85-.53,1.42s.18,1.04.53,1.42c.35.38.8.57,1.35.57Z"/><path d="m273.51,268.98c-.51,0-.91-.14-1.22-.43-.31-.29-.46-.7-.46-1.25v-3h-1.17v-.87h1.17v-1.53h.95v1.53h1.58v.87h-1.58v2.88c0,.34.07.59.22.73.15.14.38.21.69.21.28,0,.5-.04.67-.11v.85c-.26.09-.55.13-.85.13Z"/><path d="m277.83,269.04c-.8,0-1.46-.27-1.99-.81s-.79-1.22-.79-2.05.25-1.51.76-2.05,1.19-.81,2.03-.81,1.52.3,2,.9c.48.6.7,1.34.64,2.21h-4.48c.01.5.2.92.55,1.25.35.33.78.5,1.28.5.75,0,1.28-.31,1.59-.92h.97c-.14.51-.44.94-.89,1.28-.46.34-1.02.51-1.68.51Zm1.08-4.49c-.3-.26-.66-.39-1.09-.39s-.8.13-1.14.38c-.33.26-.54.64-.62,1.14h3.43c-.09-.5-.28-.88-.58-1.14Z"/><path d="m283.05,264.71c-.16.16-.35.24-.58.24s-.42-.08-.58-.24c-.16-.16-.24-.36-.24-.58s.08-.41.24-.58c.16-.17.35-.25.57-.25s.41.08.57.25.24.36.24.58-.08.42-.24.58Zm0,4.07c-.16.16-.35.24-.58.24s-.42-.08-.58-.24c-.16-.16-.24-.36-.24-.58s.08-.41.24-.58c.16-.17.35-.25.57-.25s.41.08.57.25.24.36.24.58-.08.42-.24.58Z"/><path d="m199.33,282.13v-6.88h-1.51l.77-.94h1.68v7.81h-.95Z"/><path d="m202.91,282.13v-6.88h-1.51l.77-.94h1.68v7.81h-.95Z"/><path d="m205.7,282.13l2.41-2.84c-.08,0-.18.01-.31.01-.65,0-1.22-.25-1.71-.75-.49-.5-.73-1.08-.73-1.76,0-.73.25-1.35.75-1.85.5-.5,1.13-.75,1.89-.75s1.39.25,1.89.75c.51.5.76,1.11.76,1.83,0,.38-.08.72-.23,1.03-.15.3-.37.62-.65.96l-2.86,3.38h-1.21Zm1.11-4.15c.32.33.72.49,1.19.49s.88-.16,1.2-.49c.32-.33.48-.72.48-1.19s-.16-.87-.48-1.19c-.32-.33-.72-.49-1.2-.49s-.88.16-1.19.49c-.32.33-.48.72-.48,1.19s.16.87.48,1.19Z"/><path d="m212.1,281.98c-.16.16-.35.24-.58.24s-.42-.08-.58-.24c-.16-.16-.24-.36-.24-.58s.08-.41.24-.58c.16-.17.35-.25.57-.25s.41.08.57.25.24.36.24.58-.08.42-.24.58Z"/><path d="m214.09,282.13v-6.88h-1.51l.77-.94h1.68v7.81h-.95Z"/><path d="m217.8,282.13h-1.06l3.64-6.89h-3.99v-.92h5.13v.79l-3.72,7.02Z"/><path d="m225.36,282.13v-2.12h-4.16v-.76l4.28-4.93h.83v4.8h1.08v.89h-1.08v2.12h-.95Zm-2.93-3.01h2.93v-3.37l-2.93,3.37Z"/><line class="cls-2" x1="115.16" y1="78.61" x2="138.69" y2="155.85"/><line class="cls-2" x1="242.17" y1="246.36" x2="165.08" y2="203.47"/></g></svg>