<?xml version="1.0" encoding="UTF-8"?><svg id="_图层_2" xmlns="http://www.w3.org/2000/svg" viewBox="0 0 360.2 353.83"><defs><style>.cls-1{fill:#fff;}.cls-2{fill:none;stroke:#241f20;stroke-miterlimit:10;stroke-width:.5px;}</style></defs><g id="_图层_1-2"><path class="cls-1" d="m338,302.13c-102.4,86.74-419.06,59.53-318.55-45.75,76.64-80.28,80.14-19.73,116.8-182.53,21.54-95.66,262.29-95.48,218.68-16.28-85.68,155.59,32.77,202.46-16.93,244.56Z"/><path d="m84.24,292.29v-6.39h.84v6.39h-.84Z"/><path d="m86.63,292.29v-4.5h.77v.69c.31-.52.78-.78,1.43-.78.51,0,.92.17,1.23.5.31.33.47.77.47,1.32v2.77h-.76v-2.65c0-.38-.1-.68-.29-.9-.19-.22-.45-.33-.77-.33-.37,0-.68.15-.93.44-.25.29-.37.7-.37,1.21v2.23h-.77Z"/><path d="m97.95,291.55v.75h-4.14v-.31c0-.22.03-.43.1-.63.07-.2.14-.37.23-.51.08-.14.22-.29.4-.46s.32-.3.42-.38c.1-.08.27-.21.51-.38.24-.17.4-.28.48-.34.43-.31.72-.57.89-.79s.25-.49.25-.84-.11-.6-.32-.81c-.22-.2-.5-.3-.85-.3-.37,0-.68.11-.94.33-.26.22-.39.53-.39.93h-.79c0-.6.2-1.09.6-1.46.4-.37.9-.56,1.51-.56.56,0,1.03.16,1.41.49s.56.79.56,1.39c0,.46-.11.84-.33,1.17-.22.32-.6.68-1.14,1.07-.1.07-.25.17-.43.3-.19.13-.33.23-.43.31-.1.08-.21.17-.34.28s-.22.23-.29.35c-.07.12-.12.26-.15.4h3.19Z"/><path d="m101.19,292.38c-.67,0-1.21-.22-1.63-.67s-.63-1.02-.63-1.73v-1.78c0-.71.21-1.29.63-1.73s.96-.67,1.62-.67,1.2.23,1.63.67c.43.45.64,1.03.64,1.73v1.78c0,.71-.21,1.29-.64,1.73s-.97.67-1.63.67Zm0-.76c.44,0,.8-.15,1.08-.44s.41-.7.41-1.21v-1.78c0-.51-.14-.91-.41-1.21s-.64-.44-1.08-.44-.79.15-1.07.44c-.28.29-.41.7-.41,1.21v1.78c0,.51.14.91.41,1.21.28.29.63.44,1.07.44Z"/><path d="m105.3,292.29v-5.62h-1.23l.63-.76h1.38v6.39h-.77Z"/><path d="m110.96,291.77c-.41.41-.92.62-1.54.62s-1.13-.2-1.55-.61-.62-.91-.62-1.49c0-.31.06-.59.18-.84s.3-.51.54-.79l2.33-2.75h.98l-1.95,2.31c.11-.01.19-.02.25-.02.53,0,1,.2,1.4.61.4.41.6.89.6,1.45,0,.59-.21,1.1-.62,1.51Zm-1.54-.13c.38,0,.71-.13.97-.4.26-.27.4-.59.4-.97s-.13-.7-.4-.97c-.26-.27-.59-.41-.97-.41s-.72.13-.98.4c-.26.27-.4.59-.4.98s.13.71.4.98c.26.27.59.4.98.4Z"/><path d="m116.45,292.34c-.41,0-.75-.12-1-.35s-.38-.58-.38-1.03v-2.46h-.95v-.71h.95v-1.25h.77v1.25h1.3v.71h-1.3v2.36c0,.28.06.48.18.59.12.11.31.17.57.17.23,0,.41-.03.55-.09v.69c-.22.07-.45.11-.69.11Z"/><path d="m118.9,292.29h-.77v-6.75h.77v2.94c.31-.52.78-.78,1.43-.78.51,0,.92.17,1.23.5.31.33.47.77.47,1.32v2.77h-.76v-2.65c0-.38-.1-.68-.29-.9-.19-.22-.45-.33-.77-.33-.37,0-.68.15-.93.44-.25.29-.37.7-.37,1.21v2.23Z"/><path d="m125.35,292.38c-.65,0-1.2-.22-1.62-.67-.43-.44-.64-1-.64-1.67s.21-1.24.63-1.68c.42-.44.97-.66,1.66-.66s1.24.25,1.64.74c.4.49.57,1.09.52,1.81h-3.66c.01.41.16.75.45,1.02.29.27.64.41,1.04.41.61,0,1.05-.25,1.3-.76h.79c-.11.42-.36.77-.73,1.04-.37.28-.83.41-1.38.41Zm.88-3.68c-.25-.21-.54-.32-.89-.32s-.66.1-.93.31c-.27.21-.44.52-.51.94h2.81c-.07-.41-.23-.72-.48-.93Z"/><path d="m128.64,292.29v-4.5h.77v.87c.08-.28.25-.5.49-.67.24-.17.5-.25.77-.25.13,0,.25.01.35.04v.8c-.11-.05-.25-.07-.42-.07-.31,0-.59.13-.83.4-.24.27-.36.65-.36,1.14v2.23h-.77Z"/><path d="m133.69,292.38c-.65,0-1.2-.22-1.62-.67-.43-.44-.64-1-.64-1.67s.21-1.24.63-1.68c.42-.44.97-.66,1.66-.66s1.24.25,1.64.74c.4.49.57,1.09.52,1.81h-3.66c.01.41.16.75.45,1.02.29.27.64.41,1.04.41.61,0,1.05-.25,1.3-.76h.79c-.11.42-.36.77-.73,1.04-.37.28-.83.41-1.38.41Zm.88-3.68c-.25-.21-.54-.32-.89-.32s-.66.1-.93.31c-.27.21-.44.52-.51.94h2.81c-.07-.41-.23-.72-.48-.93Z"/><path d="m142.81,292.29l-1.12-3.23-1.11,3.23h-.68l-1.53-4.5h.81l1.09,3.29,1.12-3.29h.59l1.12,3.29,1.09-3.29h.82l-1.53,4.5h-.68Z"/><path d="m147.76,292.38c-.65,0-1.2-.22-1.62-.67-.43-.44-.64-1-.64-1.67s.21-1.24.63-1.68c.42-.44.97-.66,1.66-.66s1.24.25,1.64.74c.4.49.57,1.09.52,1.81h-3.66c.01.41.16.75.45,1.02.29.27.64.41,1.04.41.61,0,1.05-.25,1.3-.76h.79c-.11.42-.36.77-.73,1.04-.37.28-.83.41-1.38.41Zm.88-3.68c-.25-.21-.54-.32-.89-.32s-.66.1-.93.31c-.27.21-.44.52-.51.94h2.81c-.07-.41-.23-.72-.48-.93Z"/><path d="m151.05,292.29v-4.5h.77v.87c.08-.28.25-.5.49-.67.24-.17.5-.25.77-.25.13,0,.25.01.35.04v.8c-.11-.05-.25-.07-.42-.07-.31,0-.59.13-.83.4-.24.27-.36.65-.36,1.14v2.23h-.77Z"/><path d="m156.1,292.38c-.65,0-1.2-.22-1.62-.67-.43-.44-.64-1-.64-1.67s.21-1.24.63-1.68c.42-.44.97-.66,1.66-.66s1.24.25,1.64.74c.4.49.57,1.09.52,1.81h-3.66c.01.41.16.75.45,1.02.29.27.64.41,1.04.41.61,0,1.05-.25,1.3-.76h.79c-.11.42-.36.77-.73,1.04-.37.28-.83.41-1.38.41Zm.88-3.68c-.25-.21-.54-.32-.89-.32s-.66.1-.93.31c-.27.21-.44.52-.51.94h2.81c-.07-.41-.23-.72-.48-.93Z"/><path d="m162.14,292.29v-5.62h-1.23l.63-.76h1.38v6.39h-.77Z"/><path d="m164.43,292.29l1.97-2.32c-.07,0-.15,0-.25,0-.53,0-1-.2-1.4-.61s-.6-.89-.6-1.44c0-.6.21-1.1.62-1.52.41-.41.92-.62,1.54-.62s1.13.2,1.55.61.62.91.62,1.49c0,.31-.06.59-.18.84s-.3.51-.54.79l-2.34,2.76h-.99Zm.9-3.4c.26.27.59.4.98.4s.72-.13.98-.4c.26-.27.4-.59.4-.98s-.13-.71-.4-.98c-.26-.27-.59-.4-.98-.4s-.72.13-.98.4c-.26.27-.39.59-.39.98s.13.71.39.98Z"/><path d="m169.66,292.17c-.13.13-.29.2-.47.2s-.34-.07-.47-.2-.19-.29-.19-.48.07-.34.2-.47.29-.2.47-.2.34.07.47.2c.13.13.2.29.2.47s-.06.34-.19.48Z"/><path d="m170.95,292.29l1.97-2.32c-.07,0-.15,0-.25,0-.53,0-1-.2-1.4-.61s-.6-.89-.6-1.44c0-.6.21-1.1.62-1.52.41-.41.92-.62,1.54-.62s1.13.2,1.55.61.62.91.62,1.49c0,.31-.06.59-.18.84s-.3.51-.54.79l-2.34,2.76h-.99Zm.9-3.4c.26.27.59.4.98.4s.72-.13.98-.4c.26-.27.4-.59.4-.98s-.13-.71-.4-.98c-.26-.27-.59-.4-.98-.4s-.72.13-.98.4c-.26.27-.39.59-.39.98s.13.71.39.98Z"/><path d="m178.99,294.17h-.77v-6.38h.77v.69c.16-.23.38-.42.66-.56.29-.15.59-.22.92-.22.62,0,1.15.23,1.57.68.42.46.63,1.01.63,1.66s-.21,1.2-.63,1.66-.95.68-1.57.68c-.33,0-.64-.07-.92-.22-.28-.15-.5-.33-.66-.56v2.57Zm.37-2.97c.29.31.65.47,1.1.47s.81-.16,1.1-.47c.29-.31.43-.7.43-1.16s-.14-.85-.43-1.16c-.29-.31-.65-.47-1.1-.47s-.81.16-1.1.47c-.29.31-.43.7-.43,1.16s.14.85.43,1.16Z"/><path d="m185.81,292.38c-.65,0-1.2-.22-1.62-.67-.43-.44-.64-1-.64-1.67s.21-1.24.63-1.68c.42-.44.97-.66,1.66-.66s1.24.25,1.64.74c.4.49.57,1.09.52,1.81h-3.66c.01.41.16.75.45,1.02.29.27.64.41,1.04.41.61,0,1.05-.25,1.3-.76h.79c-.11.42-.36.77-.73,1.04-.37.28-.83.41-1.38.41Zm.88-3.68c-.25-.21-.54-.32-.89-.32s-.66.1-.93.31c-.27.21-.44.52-.51.94h2.81c-.07-.41-.23-.72-.48-.93Z"/><path d="m189.1,292.29v-4.5h.77v.87c.08-.28.25-.5.49-.67.24-.17.5-.25.77-.25.13,0,.25.01.35.04v.8c-.11-.05-.25-.07-.42-.07-.31,0-.59.13-.83.4-.24.27-.36.65-.36,1.14v2.23h-.77Z"/><path d="m194.92,292.29v-5.62h-1.23l.63-.76h1.38v6.39h-.77Z"/><path d="m199.34,292.38c-.67,0-1.21-.22-1.63-.67s-.63-1.02-.63-1.73v-1.78c0-.71.21-1.29.63-1.73s.96-.67,1.62-.67,1.2.23,1.63.67c.43.45.64,1.03.64,1.73v1.78c0,.71-.21,1.29-.64,1.73s-.97.67-1.63.67Zm0-.76c.44,0,.8-.15,1.08-.44s.41-.7.41-1.21v-1.78c0-.51-.14-.91-.41-1.21s-.64-.44-1.08-.44-.79.15-1.07.44c-.28.29-.41.7-.41,1.21v1.78c0,.51.14.91.41,1.21.28.29.63.44,1.07.44Z"/><path d="m204.94,292.38c-.67,0-1.21-.22-1.63-.67s-.63-1.02-.63-1.73v-1.78c0-.71.21-1.29.63-1.73s.96-.67,1.62-.67,1.2.23,1.63.67c.43.45.64,1.03.64,1.73v1.78c0,.71-.21,1.29-.64,1.73s-.97.67-1.63.67Zm0-.76c.44,0,.8-.15,1.08-.44s.41-.7.41-1.21v-1.78c0-.51-.14-.91-.41-1.21s-.64-.44-1.08-.44-.79.15-1.07.44c-.28.29-.41.7-.41,1.21v1.78c0,.51.14.91.41,1.21.28.29.63.44,1.07.44Z"/><path d="m209.3,292.1l-.93,1.49h-.51l.6-1.29c-.25-.12-.37-.32-.37-.6,0-.18.07-.34.2-.47s.29-.2.47-.2.34.07.47.2.2.29.2.47c0,.13-.04.27-.13.4Z"/><path d="m212.56,292.38c-.67,0-1.21-.22-1.63-.67s-.63-1.02-.63-1.73v-1.78c0-.71.21-1.29.63-1.73s.96-.67,1.62-.67,1.2.23,1.63.67c.43.45.64,1.03.64,1.73v1.78c0,.71-.21,1.29-.64,1.73s-.97.67-1.63.67Zm0-.76c.44,0,.8-.15,1.08-.44s.41-.7.41-1.21v-1.78c0-.51-.14-.91-.41-1.21s-.64-.44-1.08-.44-.79.15-1.07.44c-.28.29-.41.7-.41,1.21v1.78c0,.51.14.91.41,1.21.28.29.63.44,1.07.44Z"/><path d="m218.17,292.38c-.67,0-1.21-.22-1.63-.67s-.63-1.02-.63-1.73v-1.78c0-.71.21-1.29.63-1.73s.96-.67,1.62-.67,1.2.23,1.63.67c.43.45.64,1.03.64,1.73v1.78c0,.71-.21,1.29-.64,1.73s-.97.67-1.63.67Zm0-.76c.44,0,.8-.15,1.08-.44s.41-.7.41-1.21v-1.78c0-.51-.14-.91-.41-1.21s-.64-.44-1.08-.44-.79.15-1.07.44c-.28.29-.41.7-.41,1.21v1.78c0,.51.14.91.41,1.21.28.29.63.44,1.07.44Z"/><path d="m223.78,292.38c-.67,0-1.21-.22-1.63-.67s-.63-1.02-.63-1.73v-1.78c0-.71.21-1.29.63-1.73s.96-.67,1.62-.67,1.2.23,1.63.67c.43.45.64,1.03.64,1.73v1.78c0,.71-.21,1.29-.64,1.73s-.97.67-1.63.67Zm0-.76c.44,0,.8-.15,1.08-.44s.41-.7.41-1.21v-1.78c0-.51-.14-.91-.41-1.21s-.64-.44-1.08-.44-.79.15-1.07.44c-.28.29-.41.7-.41,1.21v1.78c0,.51.14.91.41,1.21.28.29.63.44,1.07.44Z"/><path d="m231.34,292.38c-.62,0-1.15-.23-1.57-.68s-.63-1.01-.63-1.66.21-1.2.63-1.66c.42-.46.95-.68,1.57-.68.33,0,.64.07.92.22.28.15.5.33.66.56v-2.94h.77v6.75h-.77v-.69c-.16.23-.38.42-.66.56-.29.15-.59.22-.92.22Zm.12-.71c.44,0,.81-.16,1.1-.47.29-.31.43-.7.43-1.16s-.14-.85-.43-1.16c-.29-.31-.65-.47-1.1-.47s-.82.16-1.11.47c-.29.31-.43.7-.43,1.16s.14.85.43,1.16c.29.31.66.47,1.11.47Z"/><path d="m237.07,292.38c-.65,0-1.2-.22-1.62-.67-.43-.44-.64-1-.64-1.67s.21-1.24.63-1.68c.42-.44.97-.66,1.66-.66s1.24.25,1.64.74c.4.49.57,1.09.52,1.81h-3.66c.01.41.16.75.45,1.02.29.27.64.41,1.04.41.61,0,1.05-.25,1.3-.76h.79c-.11.42-.36.77-.73,1.04-.37.28-.83.41-1.38.41Zm.88-3.68c-.25-.21-.54-.32-.89-.32s-.66.1-.93.31c-.27.21-.44.52-.51.94h2.81c-.07-.41-.23-.72-.48-.93Z"/><path d="m242.22,292.38c-.62,0-1.15-.23-1.57-.68s-.63-1.01-.63-1.66.21-1.2.63-1.66c.42-.46.95-.68,1.57-.68.33,0,.64.07.92.22.28.15.5.33.66.56v-.69h.77v4.5h-.77v-.69c-.16.23-.38.42-.66.56-.29.15-.59.22-.92.22Zm.12-.71c.44,0,.81-.16,1.1-.47.29-.31.43-.7.43-1.16s-.14-.85-.43-1.16c-.29-.31-.65-.47-1.1-.47s-.82.16-1.11.47c-.29.31-.43.7-.43,1.16s.14.85.43,1.16c.29.31.66.47,1.11.47Z"/><path d="m247.78,292.34c-.41,0-.75-.12-1-.35s-.38-.58-.38-1.03v-2.46h-.95v-.71h.95v-1.25h.77v1.25h1.3v.71h-1.3v2.36c0,.28.06.48.18.59.12.11.31.17.57.17.23,0,.41-.03.55-.09v.69c-.22.07-.45.11-.69.11Z"/><path d="m250.24,292.29h-.77v-6.75h.77v2.94c.31-.52.78-.78,1.43-.78.51,0,.92.17,1.23.5.31.33.47.77.47,1.32v2.77h-.76v-2.65c0-.38-.1-.68-.29-.9-.19-.22-.45-.33-.77-.33-.37,0-.68.15-.93.44-.25.29-.37.7-.37,1.21v2.23Z"/><path d="m256.21,292.38c-.5,0-.93-.12-1.26-.37s-.53-.59-.56-1.03h.79c.05.25.17.44.37.56.19.12.42.18.68.18s.47-.05.63-.15c.16-.1.24-.25.24-.44,0-.18-.06-.33-.17-.44-.12-.11-.31-.21-.57-.28l-.65-.17c-.77-.2-1.16-.64-1.16-1.32,0-.37.15-.66.44-.88s.66-.33,1.12-.33.84.12,1.14.36c.3.24.46.55.5.92h-.77c-.06-.2-.17-.35-.32-.47-.15-.11-.33-.17-.54-.17-.22,0-.41.05-.55.15-.15.1-.22.24-.22.41s.05.29.16.4c.11.1.28.19.52.25l.72.19c.77.19,1.15.64,1.15,1.33,0,.43-.15.76-.46.98s-.71.33-1.2.33Z"/><path d="m86.48,303.18c-.33,0-.64-.07-.92-.22-.28-.15-.5-.33-.66-.56v.69h-.77v-6.75h.77v2.94c.16-.23.38-.42.66-.56.29-.15.59-.22.92-.22.62,0,1.15.23,1.57.68s.63,1.01.63,1.66-.21,1.2-.63,1.66c-.42.46-.95.68-1.57.68Zm-1.21-1.18c.29.31.65.47,1.1.47s.81-.16,1.1-.47c.29-.31.43-.7.43-1.16s-.14-.85-.43-1.16c-.29-.31-.65-.47-1.1-.47s-.81.16-1.1.47c-.29.31-.43.7-.43,1.16s.14.85.43,1.16Z"/><path d="m91.71,303.18c-.65,0-1.2-.22-1.62-.67s-.64-1-.64-1.67.21-1.24.63-1.68c.42-.44.97-.66,1.66-.66s1.24.25,1.64.74c.4.49.57,1.1.52,1.81h-3.66c.01.41.16.75.45,1.02.29.27.64.41,1.04.41.61,0,1.05-.25,1.3-.76h.79c-.11.42-.36.77-.73,1.04-.37.28-.83.41-1.38.41Zm.88-3.68c-.25-.21-.54-.32-.89-.32s-.66.11-.93.32c-.27.21-.44.52-.51.94h2.81c-.07-.41-.23-.72-.48-.93Z"/><path d="m97,303.18c-.68,0-1.24-.23-1.68-.68s-.67-1.01-.67-1.66.22-1.21.67-1.66c.44-.45,1-.68,1.68-.68.56,0,1.04.15,1.45.46.41.31.68.71.82,1.21h-.83c-.11-.29-.29-.53-.54-.7s-.55-.26-.9-.26c-.46,0-.84.16-1.13.47-.29.31-.44.7-.44,1.16s.15.85.44,1.16c.29.31.67.47,1.13.47.35,0,.65-.09.9-.26.25-.17.43-.41.54-.7h.83c-.13.5-.4.9-.81,1.21-.41.31-.89.46-1.46.46Z"/><path d="m102.15,303.18c-.62,0-1.15-.23-1.57-.68-.42-.46-.63-1.01-.63-1.66s.21-1.2.63-1.66.95-.68,1.57-.68c.33,0,.64.07.92.22.28.15.5.33.66.56v-.69h.77v4.5h-.77v-.69c-.16.23-.38.42-.66.56-.29.15-.59.22-.92.22Zm.12-.71c.44,0,.81-.16,1.1-.47.29-.31.43-.7.43-1.16s-.14-.85-.43-1.16c-.29-.31-.65-.47-1.1-.47s-.82.16-1.11.47c-.29.31-.43.7-.43,1.16s.14.85.43,1.16c.29.31.66.47,1.11.47Z"/><path d="m107.55,303.18c-.49,0-.89-.17-1.2-.5s-.46-.78-.46-1.33v-2.76h.77v2.65c0,.38.09.68.27.9.18.22.43.33.74.33.36,0,.66-.15.9-.45s.36-.7.36-1.2v-2.23h.77v4.5h-.77v-.69c-.29.52-.76.78-1.39.78Z"/><path d="m112.62,303.18c-.5,0-.93-.12-1.26-.37s-.53-.59-.56-1.03h.79c.05.25.17.44.37.56.19.12.42.18.68.18s.47-.05.63-.15c.16-.1.24-.25.24-.44,0-.18-.06-.33-.17-.44-.12-.11-.31-.21-.57-.28l-.65-.17c-.77-.2-1.16-.65-1.16-1.32,0-.37.15-.66.44-.88.29-.22.66-.33,1.12-.33s.84.12,1.14.36.46.55.5.92h-.77c-.06-.2-.17-.35-.32-.47-.15-.11-.33-.17-.54-.17-.22,0-.41.05-.55.15-.15.1-.22.24-.22.41s.05.29.16.4c.11.1.28.19.52.25l.72.19c.77.19,1.15.64,1.15,1.33,0,.43-.15.76-.46.98-.31.22-.71.33-1.2.33Z"/><path d="m117.29,303.18c-.65,0-1.2-.22-1.62-.67s-.64-1-.64-1.67.21-1.24.63-1.68c.42-.44.97-.66,1.66-.66s1.24.25,1.64.74c.4.49.57,1.1.52,1.81h-3.66c.01.41.16.75.45,1.02.29.27.64.41,1.04.41.61,0,1.05-.25,1.3-.76h.79c-.11.42-.36.77-.73,1.04-.37.28-.83.41-1.38.41Zm.88-3.68c-.25-.21-.54-.32-.89-.32s-.66.11-.93.32c-.27.21-.44.52-.51.94h2.81c-.07-.41-.23-.72-.48-.93Z"/><path d="m124.75,303.18c-.68,0-1.24-.23-1.69-.68-.45-.45-.67-1.01-.67-1.66s.22-1.21.67-1.66c.45-.45,1.01-.68,1.69-.68s1.23.23,1.68.68c.45.45.67,1.01.67,1.66s-.22,1.21-.67,1.66-1.01.68-1.68.68Zm-1.13-1.19c.29.31.67.47,1.13.47s.84-.16,1.12-.47c.29-.31.43-.7.43-1.15s-.14-.84-.43-1.15c-.29-.31-.66-.47-1.12-.47s-.84.16-1.13.47c-.29.31-.44.7-.44,1.15s.15.84.44,1.15Z"/><path d="m128.52,303.09v-3.79h-.95v-.71h.95v-.91c0-.45.13-.79.38-1.04s.58-.36,1-.36c.25,0,.48.04.7.12v.68c-.14-.06-.32-.09-.56-.09-.26,0-.45.06-.57.17-.12.11-.18.31-.18.59v.83h1.3v.71h-1.3v3.79h-.77Z"/><path d="m136.37,303.2c-.94,0-1.73-.32-2.36-.95s-.95-1.42-.95-2.35.32-1.72.95-2.35,1.42-.95,2.36-.95c.77,0,1.43.22,1.99.65.56.43.92.95,1.07,1.57h-.88c-.15-.41-.42-.75-.81-1.02-.39-.27-.85-.4-1.36-.4-.71,0-1.3.24-1.77.72-.47.48-.71,1.08-.71,1.79s.24,1.3.71,1.79c.47.48,1.06.72,1.77.72.52,0,.97-.13,1.36-.4.39-.27.66-.61.81-1.02h.88c-.15.61-.51,1.13-1.07,1.57-.56.43-1.23.65-1.99.65Z"/><path d="m142.39,303.18c-.65,0-1.2-.22-1.62-.67s-.64-1-.64-1.67.21-1.24.63-1.68c.42-.44.97-.66,1.66-.66s1.24.25,1.64.74c.4.49.57,1.1.52,1.81h-3.66c.01.41.16.75.45,1.02.29.27.64.41,1.04.41.61,0,1.05-.25,1.3-.76h.79c-.11.42-.36.77-.73,1.04-.37.28-.83.41-1.38.41Zm.88-3.68c-.25-.21-.54-.32-.89-.32s-.66.11-.93.32c-.27.21-.44.52-.51.94h2.81c-.07-.41-.23-.72-.48-.93Z"/><path d="m145.68,303.09v-4.5h.77v.87c.08-.28.25-.5.49-.67.24-.17.5-.25.77-.25.13,0,.25.01.35.04v.8c-.11-.05-.25-.07-.42-.07-.31,0-.59.13-.83.41-.24.27-.36.65-.36,1.14v2.23h-.77Z"/><path d="m150.73,303.18c-.65,0-1.2-.22-1.62-.67s-.64-1-.64-1.67.21-1.24.63-1.68c.42-.44.97-.66,1.66-.66s1.24.25,1.64.74c.4.49.57,1.1.52,1.81h-3.66c.01.41.16.75.45,1.02.29.27.64.41,1.04.41.61,0,1.05-.25,1.3-.76h.79c-.11.42-.36.77-.73,1.04-.37.28-.83.41-1.38.41Zm.88-3.68c-.25-.21-.54-.32-.89-.32s-.66.11-.93.32c-.27.21-.44.52-.51.94h2.81c-.07-.41-.23-.72-.48-.93Z"/><path d="m156.38,303.18c-.33,0-.64-.07-.92-.22-.28-.15-.5-.33-.66-.56v.69h-.77v-6.75h.77v2.94c.16-.23.38-.42.66-.56.29-.15.59-.22.92-.22.62,0,1.15.23,1.57.68s.63,1.01.63,1.66-.21,1.2-.63,1.66c-.42.46-.95.68-1.57.68Zm-1.21-1.18c.29.31.65.47,1.1.47s.81-.16,1.1-.47c.29-.31.43-.7.43-1.16s-.14-.85-.43-1.16c-.29-.31-.65-.47-1.1-.47s-.81.16-1.1.47c-.29.31-.43.7-.43,1.16s.14.85.43,1.16Z"/><path d="m159.69,303.09v-4.5h.77v.87c.08-.28.25-.5.49-.67.24-.17.5-.25.77-.25.13,0,.25.01.35.04v.8c-.11-.05-.25-.07-.42-.07-.31,0-.59.13-.83.41-.24.27-.36.65-.36,1.14v2.23h-.77Z"/><path d="m164.82,303.18c-.68,0-1.24-.23-1.69-.68-.45-.45-.67-1.01-.67-1.66s.22-1.21.67-1.66c.45-.45,1.01-.68,1.69-.68s1.23.23,1.68.68c.45.45.67,1.01.67,1.66s-.22,1.21-.67,1.66-1.01.68-1.68.68Zm-1.13-1.19c.29.31.67.47,1.13.47s.84-.16,1.12-.47c.29-.31.43-.7.43-1.15s-.14-.84-.43-1.15c-.29-.31-.66-.47-1.12-.47s-.84.16-1.13.47c-.29.31-.44.7-.44,1.15s.15.84.44,1.15Z"/><path d="m169.58,303.09l-2.08-4.5h.86l1.54,3.41,1.54-3.41h.86l-2.08,4.5h-.65Z"/><path d="m174.86,303.18c-.62,0-1.15-.23-1.57-.68-.42-.46-.63-1.01-.63-1.66s.21-1.2.63-1.66.95-.68,1.57-.68c.33,0,.64.07.92.22.28.15.5.33.66.56v-.69h.77v4.5h-.77v-.69c-.16.23-.38.42-.66.56-.29.15-.59.22-.92.22Zm.12-.71c.44,0,.81-.16,1.1-.47.29-.31.43-.7.43-1.16s-.14-.85-.43-1.16c-.29-.31-.65-.47-1.1-.47s-.82.16-1.11.47c-.29.31-.43.7-.43,1.16s.14.85.43,1.16c.29.31.66.47,1.11.47Z"/><path d="m180.12,303.18c-.5,0-.93-.12-1.26-.37s-.53-.59-.56-1.03h.79c.05.25.17.44.37.56.19.12.42.18.68.18s.47-.05.63-.15c.16-.1.24-.25.24-.44,0-.18-.06-.33-.17-.44-.12-.11-.31-.21-.57-.28l-.65-.17c-.77-.2-1.16-.65-1.16-1.32,0-.37.15-.66.44-.88.29-.22.66-.33,1.12-.33s.84.12,1.14.36.46.55.5.92h-.77c-.06-.2-.17-.35-.32-.47-.15-.11-.33-.17-.54-.17-.22,0-.41.05-.55.15-.15.1-.22.24-.22.41s.05.29.16.4c.11.1.28.19.52.25l.72.19c.77.19,1.15.64,1.15,1.33,0,.43-.15.76-.46.98-.31.22-.71.33-1.2.33Z"/><path d="m184.87,303.18c-.68,0-1.24-.23-1.68-.68s-.67-1.01-.67-1.66.22-1.21.67-1.66c.44-.45,1-.68,1.68-.68.56,0,1.04.15,1.45.46.41.31.68.71.82,1.21h-.83c-.11-.29-.29-.53-.54-.7s-.55-.26-.9-.26c-.46,0-.84.16-1.13.47-.29.31-.44.7-.44,1.16s.15.85.44,1.16c.29.31.67.47,1.13.47.35,0,.65-.09.9-.26.25-.17.43-.41.54-.7h.83c-.13.5-.4.9-.81,1.21-.41.31-.89.46-1.46.46Z"/><path d="m189.76,303.18c-.49,0-.89-.17-1.2-.5s-.46-.78-.46-1.33v-2.76h.77v2.65c0,.38.09.68.27.9.18.22.43.33.74.33.36,0,.66-.15.9-.45s.36-.7.36-1.2v-2.23h.77v4.5h-.77v-.69c-.29.52-.76.78-1.39.78Z"/><path d="m193.38,303.09v-6.75h.77v6.75h-.77Z"/><path d="m197.47,303.18c-.62,0-1.15-.23-1.57-.68-.42-.46-.63-1.01-.63-1.66s.21-1.2.63-1.66.95-.68,1.57-.68c.33,0,.64.07.92.22.28.15.5.33.66.56v-.69h.77v4.5h-.77v-.69c-.16.23-.38.42-.66.56-.29.15-.59.22-.92.22Zm.12-.71c.44,0,.81-.16,1.1-.47.29-.31.43-.7.43-1.16s-.14-.85-.43-1.16c-.29-.31-.65-.47-1.1-.47s-.82.16-1.11.47c-.29.31-.43.7-.43,1.16s.14.85.43,1.16c.29.31.66.47,1.11.47Z"/><path d="m201.29,303.09v-4.5h.77v.87c.08-.28.25-.5.49-.67.24-.17.5-.25.77-.25.13,0,.25.01.35.04v.8c-.11-.05-.25-.07-.42-.07-.31,0-.59.13-.83.41-.24.27-.36.65-.36,1.14v2.23h-.77Z"/><path d="m204.97,302.97c-.13.13-.29.2-.47.2s-.34-.07-.47-.2-.19-.29-.19-.48.07-.34.2-.47c.13-.13.29-.2.47-.2s.34.07.47.2c.13.14.2.29.2.47s-.06.35-.19.48Z"/><path d="m144.42,162v-3.79h-.95v-.71h.95v-.91c0-.45.13-.79.38-1.04s.58-.36,1-.36c.25,0,.48.04.7.12v.68c-.14-.06-.32-.09-.56-.09-.26,0-.45.06-.57.17-.12.11-.18.31-.18.59v.83h1.3v.71h-1.3v3.79h-.77Z"/><path d="m149.14,162.09c-.65,0-1.2-.22-1.62-.67-.43-.44-.64-1-.64-1.67s.21-1.24.62-1.68.97-.66,1.66-.66,1.24.25,1.64.74.57,1.1.52,1.81h-3.66c.01.41.16.75.45,1.02.29.27.64.41,1.04.41.61,0,1.05-.25,1.3-.76h.79c-.11.42-.36.77-.73,1.04-.37.28-.83.41-1.38.41Zm.88-3.68c-.25-.21-.54-.32-.89-.32s-.66.1-.93.32c-.27.21-.44.52-.51.94h2.81c-.07-.41-.23-.72-.48-.93Z"/><path d="m158.23,162v-2.65c0-.37-.08-.67-.23-.9-.15-.22-.38-.34-.66-.34-.36,0-.65.14-.88.42-.23.28-.34.67-.36,1.15v2.3h-.78v-2.65c0-.38-.08-.68-.23-.9-.15-.22-.37-.33-.65-.33-.37,0-.67.15-.9.45s-.34.7-.34,1.2v2.23h-.78v-4.5h.78v.69c.29-.52.74-.78,1.36-.78.68,0,1.14.32,1.38.96.12-.29.31-.53.58-.7s.56-.26.9-.26c.49,0,.87.17,1.15.5.28.33.42.77.42,1.33v2.76h-.77Z"/><path d="m162.26,162.09c-.62,0-1.15-.23-1.57-.68-.42-.46-.63-1.01-.63-1.66s.21-1.2.63-1.66c.42-.46.95-.68,1.57-.68.33,0,.64.07.92.22.29.15.51.33.66.56v-.69h.77v4.5h-.77v-.69c-.16.23-.38.42-.66.56s-.59.22-.92.22Zm.12-.71c.44,0,.81-.16,1.1-.47.29-.31.43-.7.43-1.16s-.14-.85-.43-1.16c-.29-.31-.65-.47-1.1-.47s-.82.16-1.11.47c-.29.31-.43.7-.43,1.16s.14.85.43,1.16c.29.31.66.47,1.11.47Z"/><path d="m166.07,162v-6.75h.78v6.75h-.78Z"/><path d="m170.23,162.09c-.65,0-1.2-.22-1.62-.67-.43-.44-.64-1-.64-1.67s.21-1.24.63-1.68c.42-.44.97-.66,1.66-.66s1.24.25,1.64.74c.4.49.57,1.1.52,1.81h-3.66c.01.41.16.75.45,1.02.29.27.63.41,1.04.41.61,0,1.05-.25,1.3-.76h.79c-.12.42-.36.77-.73,1.04-.37.28-.83.41-1.38.41Zm.88-3.68c-.25-.21-.54-.32-.89-.32s-.66.1-.93.32c-.27.21-.44.52-.51.94h2.81c-.07-.41-.23-.72-.48-.93Z"/><path d="m177.55,162.09c-.62,0-1.15-.23-1.57-.68-.42-.46-.63-1.01-.63-1.66s.21-1.2.63-1.66c.42-.46.95-.68,1.57-.68.33,0,.64.07.92.22.29.15.51.33.66.56v-2.94h.77v6.75h-.77v-.69c-.16.23-.38.42-.66.56s-.59.22-.92.22Zm.12-.71c.44,0,.81-.16,1.1-.47.29-.31.43-.7.43-1.16s-.14-.85-.43-1.16c-.29-.31-.65-.47-1.1-.47s-.82.16-1.11.47c-.29.31-.43.7-.43,1.16s.14.85.43,1.16c.29.31.66.47,1.11.47Z"/><path d="m183.28,162.09c-.65,0-1.2-.22-1.62-.67-.43-.44-.64-1-.64-1.67s.21-1.24.62-1.68.97-.66,1.66-.66,1.24.25,1.64.74.57,1.1.52,1.81h-3.66c.01.41.16.75.45,1.02.29.27.64.41,1.04.41.61,0,1.05-.25,1.3-.76h.79c-.11.42-.36.77-.73,1.04-.37.28-.83.41-1.38.41Zm.88-3.68c-.25-.21-.54-.32-.89-.32s-.66.1-.93.32c-.27.21-.44.52-.51.94h2.81c-.07-.41-.23-.72-.48-.93Z"/><path d="m188.43,162.09c-.62,0-1.15-.23-1.57-.68-.42-.46-.63-1.01-.63-1.66s.21-1.2.63-1.66c.42-.46.95-.68,1.57-.68.33,0,.64.07.92.22.29.15.51.33.66.56v-.69h.77v4.5h-.77v-.69c-.16.23-.38.42-.66.56s-.59.22-.92.22Zm.12-.71c.44,0,.81-.16,1.1-.47.29-.31.43-.7.43-1.16s-.14-.85-.43-1.16c-.29-.31-.65-.47-1.1-.47s-.82.16-1.11.47c-.29.31-.43.7-.43,1.16s.14.85.43,1.16c.29.31.66.47,1.11.47Z"/><path d="m193.99,162.05c-.41,0-.75-.12-1-.35-.25-.23-.38-.58-.38-1.03v-2.46h-.95v-.71h.95v-1.25h.78v1.25h1.29v.71h-1.29v2.36c0,.28.06.48.18.59.12.11.31.17.57.17.23,0,.41-.03.55-.09v.69c-.21.07-.45.11-.69.11Z"/><path d="m196.45,162h-.77v-6.75h.77v2.94c.31-.52.78-.78,1.43-.78.51,0,.92.17,1.23.5.31.33.47.77.47,1.32v2.77h-.77v-2.65c0-.38-.1-.68-.29-.9-.19-.22-.45-.33-.78-.33-.37,0-.68.15-.93.44-.25.29-.38.7-.38,1.21v2.23Z"/><path d="m203.14,162v-4.5h.78v.87c.08-.28.25-.5.49-.67s.5-.25.77-.25c.13,0,.25.01.35.04v.8c-.11-.05-.25-.07-.42-.07-.31,0-.59.13-.83.4-.24.27-.36.65-.36,1.14v2.23h-.78Z"/><path d="m208.14,162.09c-.62,0-1.15-.23-1.57-.68-.42-.46-.63-1.01-.63-1.66s.21-1.2.63-1.66c.42-.46.95-.68,1.57-.68.33,0,.64.07.92.22.28.15.5.33.66.56v-.69h.78v4.5h-.78v-.69c-.16.23-.38.42-.66.56-.29.15-.59.22-.92.22Zm.12-.71c.44,0,.81-.16,1.1-.47.29-.31.43-.7.43-1.16s-.14-.85-.43-1.16c-.29-.31-.65-.47-1.1-.47s-.82.16-1.11.47c-.29.31-.43.7-.43,1.16s.14.85.43,1.16c.29.31.66.47,1.11.47Z"/><path d="m213.7,162.05c-.41,0-.75-.12-1-.35-.25-.23-.38-.58-.38-1.03v-2.46h-.96v-.71h.96v-1.25h.77v1.25h1.3v.71h-1.3v2.36c0,.28.06.48.18.59.12.11.31.17.57.17.23,0,.41-.03.55-.09v.69c-.22.07-.45.11-.69.11Z"/><path d="m217.24,162.09c-.65,0-1.2-.22-1.62-.67-.43-.44-.64-1-.64-1.67s.21-1.24.63-1.68c.42-.44.97-.66,1.66-.66s1.24.25,1.64.74c.4.49.57,1.1.52,1.81h-3.66c.01.41.16.75.45,1.02.29.27.63.41,1.04.41.61,0,1.05-.25,1.3-.76h.79c-.12.42-.36.77-.73,1.04-.37.28-.83.41-1.38.41Zm.88-3.68c-.25-.21-.54-.32-.89-.32s-.66.1-.93.32c-.27.21-.44.52-.51.94h2.81c-.07-.41-.23-.72-.48-.93Z"/><path d="m221.51,158.55c-.13.13-.29.2-.47.2s-.34-.07-.47-.2c-.13-.13-.19-.29-.19-.48s.07-.34.2-.47c.13-.14.29-.2.47-.2s.34.07.47.2c.13.13.2.29.2.47s-.06.34-.19.48Zm0,3.33c-.13.13-.29.2-.47.2s-.34-.07-.47-.2c-.13-.13-.19-.29-.19-.48s.07-.34.2-.47c.13-.13.29-.2.47-.2s.34.07.47.2c.13.14.2.29.2.47s-.06.34-.19.48Z"/><path d="m144.62,172.8v-5.62h-1.23l.63-.77h1.38v6.39h-.78Z"/><path d="m148.81,172.89c-.62,0-1.14-.19-1.54-.57-.4-.38-.61-.86-.61-1.44,0-.78.34-1.33,1.01-1.67-.44-.31-.66-.73-.66-1.27,0-.48.17-.87.51-1.18.34-.31.77-.46,1.29-.46s.96.15,1.29.46c.33.31.5.7.5,1.18,0,.54-.22.96-.65,1.27.67.33,1,.88,1,1.67,0,.58-.2,1.06-.6,1.44-.4.38-.91.57-1.54.57Zm0-.74c.42,0,.75-.12.99-.36.24-.24.36-.54.36-.91s-.12-.68-.36-.92c-.24-.24-.57-.36-.99-.36s-.74.12-.99.37c-.25.24-.38.55-.38.91s.13.66.38.9.58.36.99.36Zm0-3.24c.31,0,.56-.09.75-.27.19-.18.28-.41.28-.67s-.09-.5-.28-.67c-.18-.17-.43-.26-.75-.26s-.56.09-.75.27c-.19.18-.29.4-.29.67s.1.48.29.67.44.28.75.28Z"/><path d="m152.98,172.68c-.13.13-.29.2-.47.2s-.34-.07-.47-.2-.19-.29-.19-.48.07-.34.2-.47c.13-.13.29-.2.47-.2s.34.07.47.2c.13.14.2.29.2.47s-.06.35-.19.48Z"/><path d="m156.3,172.89c-.67,0-1.21-.22-1.63-.67s-.63-1.03-.63-1.73v-1.78c0-.71.21-1.29.63-1.73.42-.45.96-.67,1.62-.67s1.2.22,1.63.67.64,1.03.64,1.73v1.78c0,.71-.21,1.29-.64,1.73s-.97.67-1.63.67Zm0-.76c.45,0,.8-.15,1.08-.44.28-.29.41-.7.41-1.21v-1.78c0-.51-.14-.91-.41-1.21-.28-.29-.63-.44-1.08-.44s-.79.15-1.07.44-.41.7-.41,1.21v1.78c0,.51.14.91.41,1.21.28.29.63.44,1.07.44Z"/><path d="m161.57,172.89c-.58,0-1.07-.18-1.49-.54s-.63-.79-.65-1.28h.79c.07.31.23.57.48.77.25.2.54.3.87.3.39,0,.72-.13.98-.4.26-.26.39-.59.39-.97s-.12-.72-.38-.98c-.25-.26-.57-.4-.96-.4-.54,0-.94.22-1.21.65l-.74-.21.66-3.41h2.99v.76h-2.37l-.35,1.83c.31-.22.68-.33,1.12-.33.6,0,1.08.21,1.46.63s.57.94.57,1.58c0,.56-.21,1.04-.62,1.44-.41.39-.93.59-1.55.59Z"/><path d="m166.78,172.89c-.64,0-1.18-.19-1.62-.58-.44-.39-.66-.87-.66-1.45h.78c.02.38.18.69.46.92.28.24.63.36,1.04.36.37,0,.68-.1.93-.31.25-.2.37-.49.37-.85,0-.38-.12-.67-.37-.86-.25-.19-.59-.29-1.02-.29h-.48v-.71h.51c.34,0,.62-.1.84-.29.22-.19.33-.44.34-.75,0-.3-.11-.55-.33-.74s-.49-.29-.82-.29c-.38,0-.7.11-.95.33s-.39.53-.39.93h-.79c0-.61.21-1.1.61-1.47.41-.37.91-.55,1.52-.55.56,0,1.02.16,1.39.48s.55.75.55,1.27c0,.31-.09.58-.25.83s-.37.43-.62.57c.32.13.58.33.77.61s.28.59.28.95c0,.56-.2,1.01-.59,1.36-.39.35-.89.52-1.5.52Z"/><path d="m171.79,172.89c-.58,0-1.07-.18-1.49-.54s-.63-.79-.65-1.28h.79c.07.31.23.57.48.77.25.2.54.3.87.3.39,0,.72-.13.98-.4.26-.26.39-.59.39-.97s-.12-.72-.38-.98c-.25-.26-.57-.4-.96-.4-.54,0-.94.22-1.21.65l-.74-.21.66-3.41h2.99v.76h-2.37l-.35,1.83c.31-.22.68-.33,1.12-.33.6,0,1.08.21,1.46.63s.57.94.57,1.58c0,.56-.21,1.04-.62,1.44-.41.39-.93.59-1.55.59Z"/><path d="m175.73,172.8h-.87l2.98-5.63h-3.27v-.76h4.19v.65l-3.04,5.74Z"/><path d="m179.56,172.8l1.97-2.32c-.07,0-.15,0-.25,0-.54,0-1-.21-1.4-.61-.4-.41-.6-.89-.6-1.44,0-.6.21-1.11.62-1.52.41-.41.92-.62,1.54-.62s1.13.2,1.55.61c.41.41.62.91.62,1.49,0,.31-.06.59-.18.84-.12.25-.3.51-.54.79l-2.34,2.76h-.99Zm.9-3.4c.26.27.59.4.98.4s.72-.13.98-.4.4-.59.4-.98-.13-.71-.4-.98-.59-.4-.98-.4-.72.13-.98.4c-.26.27-.39.59-.39.98s.13.71.39.98Z"/><path d="m186.6,172.89c-.63,0-1.17-.19-1.62-.58s-.66-.87-.66-1.45h.78c.03.38.18.69.46.92.28.24.63.36,1.04.36.37,0,.68-.1.93-.31.25-.2.37-.49.37-.85,0-.38-.12-.67-.37-.86-.25-.19-.59-.29-1.02-.29h-.48v-.71h.51c.34,0,.62-.1.84-.29.22-.19.33-.44.34-.75,0-.3-.11-.55-.33-.74-.22-.19-.49-.29-.82-.29-.38,0-.7.11-.96.33s-.39.53-.39.93h-.79c0-.61.2-1.1.61-1.47.41-.37.92-.55,1.52-.55.56,0,1.02.16,1.39.48s.55.75.55,1.27c0,.31-.09.58-.25.83-.16.25-.37.43-.62.57.32.13.58.33.77.61.19.27.28.59.28.95,0,.56-.19,1.01-.58,1.36s-.89.52-1.5.52Z"/><path d="m191.62,172.89c-.58,0-1.07-.18-1.49-.54s-.64-.79-.65-1.28h.79c.07.31.23.57.48.77.25.2.54.3.87.3.39,0,.72-.13.98-.4.26-.26.4-.59.4-.97s-.13-.72-.38-.98c-.25-.26-.57-.4-.96-.4-.53,0-.94.22-1.21.65l-.74-.21.66-3.41h2.99v.76h-2.37l-.35,1.83c.31-.22.68-.33,1.12-.33.59,0,1.08.21,1.46.63s.57.94.57,1.58c0,.56-.21,1.04-.62,1.44-.41.39-.93.59-1.55.59Z"/><path d="m198.72,172.05v.75h-4.14v-.31c0-.22.03-.43.1-.63.07-.2.14-.37.23-.51.08-.14.22-.29.4-.46.18-.17.32-.3.42-.38.1-.08.27-.21.51-.38.24-.17.4-.28.48-.34.43-.31.72-.57.89-.79.17-.21.25-.49.25-.84s-.11-.6-.32-.81-.5-.3-.85-.3c-.37,0-.68.11-.94.33-.26.22-.39.53-.39.93h-.79c0-.6.2-1.09.6-1.46.4-.37.9-.56,1.51-.56.56,0,1.03.16,1.41.49s.56.79.56,1.39c0,.46-.11.84-.33,1.17-.22.32-.6.68-1.14,1.07-.1.07-.25.17-.43.3-.19.13-.33.23-.43.31-.1.08-.21.17-.34.28s-.22.23-.29.35-.12.26-.15.4h3.19Z"/><path d="m245.53,47.58v-2.65c0-.37-.08-.67-.23-.9-.15-.23-.38-.34-.66-.34-.36,0-.65.14-.88.42-.23.28-.34.67-.36,1.15v2.3h-.78v-2.65c0-.38-.08-.68-.23-.9-.15-.22-.37-.33-.65-.33-.37,0-.67.15-.9.45s-.34.7-.34,1.2v2.23h-.78v-4.5h.78v.69c.29-.52.74-.78,1.36-.78.68,0,1.14.32,1.38.96.12-.29.31-.53.58-.7.26-.17.56-.26.9-.26.49,0,.87.17,1.15.5.28.33.42.77.42,1.33v2.76h-.77Z"/><path d="m249.55,47.67c-.62,0-1.15-.23-1.57-.68-.42-.46-.63-1.01-.63-1.66s.21-1.2.63-1.66c.42-.46.95-.68,1.57-.68.33,0,.64.07.92.22s.51.33.66.56v-.69h.77v4.5h-.77v-.69c-.16.23-.38.42-.66.56-.29.15-.59.22-.92.22Zm.12-.71c.44,0,.81-.16,1.1-.47.29-.31.43-.7.43-1.16s-.14-.85-.43-1.16c-.29-.31-.65-.47-1.1-.47s-.82.16-1.11.47c-.29.31-.43.7-.43,1.16s.14.85.43,1.16c.29.31.66.47,1.11.47Z"/><path d="m253.37,47.58v-6.75h.78v6.75h-.78Z"/><path d="m257.53,47.67c-.65,0-1.2-.22-1.62-.67-.43-.44-.64-1-.64-1.67s.21-1.24.63-1.68c.42-.44.97-.66,1.66-.66s1.24.25,1.64.74c.4.49.57,1.09.52,1.81h-3.66c.01.41.16.75.45,1.02.29.27.63.41,1.04.41.61,0,1.05-.25,1.3-.76h.79c-.12.42-.36.77-.73,1.04-.37.28-.83.41-1.38.41Zm.88-3.68c-.25-.21-.54-.32-.89-.32s-.66.1-.93.31-.44.52-.51.94h2.81c-.07-.41-.23-.72-.48-.93Z"/><path d="m264.84,47.67c-.62,0-1.15-.23-1.57-.68-.42-.46-.63-1.01-.63-1.66s.21-1.2.63-1.66c.42-.46.95-.68,1.57-.68.33,0,.64.07.92.22s.51.33.66.56v-2.94h.77v6.75h-.77v-.69c-.16.23-.38.42-.66.56-.29.15-.59.22-.92.22Zm.12-.71c.44,0,.81-.16,1.1-.47.29-.31.43-.7.43-1.16s-.14-.85-.43-1.16c-.29-.31-.65-.47-1.1-.47s-.82.16-1.11.47c-.29.31-.43.7-.43,1.16s.14.85.43,1.16c.29.31.66.47,1.11.47Z"/><path d="m270.57,47.67c-.65,0-1.2-.22-1.62-.67-.43-.44-.64-1-.64-1.67s.21-1.24.62-1.68c.42-.44.97-.66,1.66-.66s1.24.25,1.64.74.57,1.09.52,1.81h-3.66c.01.41.16.75.45,1.02.29.27.64.41,1.04.41.61,0,1.05-.25,1.3-.76h.79c-.11.42-.36.77-.73,1.04-.37.28-.83.41-1.38.41Zm.88-3.68c-.25-.21-.54-.32-.89-.32s-.66.1-.93.31c-.27.21-.44.52-.51.94h2.81c-.07-.41-.23-.72-.48-.93Z"/><path d="m275.72,47.67c-.62,0-1.15-.23-1.57-.68-.42-.46-.63-1.01-.63-1.66s.21-1.2.63-1.66c.42-.46.95-.68,1.57-.68.33,0,.64.07.92.22s.51.33.66.56v-.69h.77v4.5h-.77v-.69c-.16.23-.38.42-.66.56-.29.15-.59.22-.92.22Zm.12-.71c.44,0,.81-.16,1.1-.47.29-.31.43-.7.43-1.16s-.14-.85-.43-1.16c-.29-.31-.65-.47-1.1-.47s-.82.16-1.11.47c-.29.31-.43.7-.43,1.16s.14.85.43,1.16c.29.31.66.47,1.11.47Z"/><path d="m281.28,47.62c-.41,0-.75-.12-1-.35s-.38-.58-.38-1.03v-2.46h-.95v-.71h.95v-1.25h.78v1.25h1.29v.71h-1.29v2.36c0,.28.06.48.18.59.12.11.31.17.57.17.23,0,.41-.03.55-.09v.69c-.21.07-.45.11-.69.11Z"/><path d="m283.74,47.58h-.77v-6.75h.77v2.94c.31-.52.78-.78,1.43-.78.51,0,.92.17,1.23.5s.47.77.47,1.32v2.77h-.77v-2.65c0-.38-.1-.68-.29-.9-.19-.22-.45-.33-.78-.33-.37,0-.68.15-.93.44-.25.29-.38.7-.38,1.21v2.23Z"/><path d="m290.44,47.58v-4.5h.78v.87c.08-.28.25-.5.49-.67s.5-.25.77-.25c.13,0,.25.01.35.04v.8c-.11-.05-.25-.07-.42-.07-.31,0-.59.13-.83.4-.24.27-.36.65-.36,1.14v2.23h-.78Z"/><path d="m295.43,47.67c-.62,0-1.15-.23-1.57-.68-.42-.46-.63-1.01-.63-1.66s.21-1.2.63-1.66c.42-.46.95-.68,1.57-.68.33,0,.64.07.92.22s.51.33.66.56v-.69h.77v4.5h-.77v-.69c-.16.23-.38.42-.66.56-.29.15-.59.22-.92.22Zm.12-.71c.44,0,.81-.16,1.1-.47.29-.31.43-.7.43-1.16s-.14-.85-.43-1.16c-.29-.31-.65-.47-1.1-.47s-.82.16-1.11.47c-.29.31-.43.7-.43,1.16s.14.85.43,1.16c.29.31.66.47,1.11.47Z"/><path d="m300.99,47.62c-.41,0-.75-.12-1-.35s-.38-.58-.38-1.03v-2.46h-.95v-.71h.95v-1.25h.78v1.25h1.29v.71h-1.29v2.36c0,.28.06.48.18.59.12.11.31.17.57.17.23,0,.41-.03.55-.09v.69c-.21.07-.45.11-.69.11Z"/><path d="m304.53,47.67c-.65,0-1.2-.22-1.62-.67-.43-.44-.64-1-.64-1.67s.21-1.24.63-1.68c.42-.44.97-.66,1.66-.66s1.24.25,1.64.74c.4.49.57,1.09.52,1.81h-3.66c.01.41.16.75.45,1.02.29.27.63.41,1.04.41.61,0,1.05-.25,1.3-.76h.79c-.12.42-.36.77-.73,1.04-.37.28-.83.41-1.38.41Zm.88-3.68c-.25-.21-.54-.32-.89-.32s-.66.1-.93.31-.44.52-.51.94h2.81c-.07-.41-.23-.72-.48-.93Z"/><path d="m308.8,44.12c-.13.13-.29.2-.47.2s-.34-.07-.47-.2c-.13-.13-.19-.29-.19-.48s.07-.34.2-.47c.13-.13.29-.2.47-.2s.34.07.47.2c.13.13.2.29.2.47s-.06.34-.19.48Zm0,3.33c-.13.13-.29.2-.47.2s-.34-.07-.47-.2-.19-.29-.19-.48.07-.34.2-.47c.13-.13.29-.2.47-.2s.34.07.47.2c.13.13.2.29.2.47s-.06.34-.19.48Z"/><path d="m240.31,58.38v-5.62h-1.23l.63-.77h1.38v6.39h-.78Z"/><path d="m244.39,58.47c-.58,0-1.07-.18-1.49-.54s-.63-.79-.65-1.28h.79c.07.31.23.57.48.77.25.2.54.3.87.3.39,0,.72-.13.98-.4.26-.26.39-.59.39-.97s-.12-.72-.38-.98c-.25-.26-.57-.4-.96-.4-.54,0-.94.22-1.21.65l-.74-.22.66-3.41h2.99v.76h-2.37l-.35,1.83c.31-.22.68-.33,1.12-.33.6,0,1.08.21,1.46.63s.57.94.57,1.58c0,.56-.21,1.04-.62,1.44-.41.39-.93.59-1.55.59Z"/><path d="m248.53,58.25c-.13.13-.29.2-.47.2s-.34-.07-.47-.2-.19-.29-.19-.48.07-.34.2-.47c.13-.13.29-.2.47-.2s.34.07.47.2c.13.14.2.29.2.47s-.06.35-.19.48Z"/><path d="m249.82,58.38l1.97-2.32c-.07,0-.15,0-.25,0-.54,0-1-.2-1.4-.61-.4-.41-.6-.89-.6-1.44,0-.6.21-1.11.62-1.52.41-.41.92-.62,1.54-.62s1.13.2,1.55.61c.41.41.62.91.62,1.49,0,.31-.06.59-.18.84s-.3.51-.54.79l-2.34,2.76h-.99Zm.9-3.4c.26.27.59.4.98.4s.72-.13.98-.4c.26-.27.4-.59.4-.98s-.13-.71-.4-.98-.59-.4-.98-.4-.72.13-.98.4c-.26.27-.39.59-.39.98s.13.71.39.98Z"/><path d="m254.85,58.38l1.97-2.32c-.07,0-.15,0-.25,0-.54,0-1-.2-1.4-.61-.4-.41-.6-.89-.6-1.44,0-.6.21-1.11.62-1.52.41-.41.92-.62,1.54-.62s1.13.2,1.55.61c.41.41.62.91.62,1.49,0,.31-.06.59-.18.84s-.3.51-.54.79l-2.34,2.76h-.99Zm.9-3.4c.26.27.59.4.98.4s.72-.13.98-.4c.26-.27.4-.59.4-.98s-.13-.71-.4-.98-.59-.4-.98-.4-.72.13-.98.4c-.26.27-.39.59-.39.98s.13.71.39.98Z"/><path d="m263.06,57.85c-.41.41-.93.62-1.54.62s-1.13-.2-1.55-.61-.62-.91-.62-1.49c0-.31.06-.59.19-.84s.3-.51.54-.79l2.33-2.75h.98l-1.95,2.31c.11-.01.19-.02.25-.02.53,0,1,.2,1.4.61s.6.89.6,1.45c0,.59-.21,1.1-.62,1.51Zm-1.54-.13c.38,0,.71-.13.97-.41.26-.27.4-.59.4-.97s-.13-.7-.4-.97c-.26-.27-.59-.41-.97-.41s-.72.13-.98.4c-.26.27-.39.59-.39.98s.13.71.39.98c.27.27.59.4.98.4Z"/><path d="m265.45,58.38h-.86l2.98-5.63h-3.27v-.76h4.2v.65l-3.04,5.74Z"/><path d="m269.29,58.38l1.97-2.32c-.06,0-.15,0-.25,0-.53,0-1-.2-1.4-.61-.4-.41-.6-.89-.6-1.44,0-.6.21-1.11.62-1.52s.93-.62,1.54-.62,1.13.2,1.55.61c.41.41.62.91.62,1.49,0,.31-.06.59-.19.84s-.3.51-.54.79l-2.34,2.76h-.99Zm.9-3.4c.26.27.59.4.98.4s.72-.13.98-.4c.26-.27.39-.59.39-.98s-.13-.71-.39-.98c-.27-.27-.59-.4-.98-.4s-.71.13-.98.4c-.26.27-.39.59-.39.98s.13.71.39.98Z"/><path d="m276.33,58.47c-.64,0-1.18-.19-1.62-.58-.44-.39-.66-.87-.66-1.45h.78c.02.38.18.69.46.92.28.24.63.36,1.04.36.37,0,.68-.1.93-.31.25-.2.37-.49.37-.85,0-.38-.12-.67-.37-.86-.25-.19-.59-.29-1.02-.29h-.48v-.71h.51c.34,0,.62-.1.84-.29.22-.19.33-.44.34-.75,0-.3-.11-.55-.33-.74s-.49-.29-.82-.29c-.38,0-.7.11-.95.33s-.39.53-.39.93h-.79c0-.61.21-1.1.61-1.47s.91-.55,1.52-.55c.56,0,1.02.16,1.39.48s.55.75.55,1.27c0,.31-.09.58-.25.83s-.37.43-.62.57c.32.13.58.33.77.61.19.27.28.59.28.95,0,.56-.2,1.01-.59,1.36-.39.35-.89.52-1.5.52Z"/><path d="m279.54,58.38l1.97-2.32c-.07,0-.15,0-.25,0-.54,0-1-.2-1.4-.61-.4-.41-.6-.89-.6-1.44,0-.6.21-1.11.62-1.52.41-.41.92-.62,1.54-.62s1.13.2,1.55.61c.41.41.62.91.62,1.49,0,.31-.06.59-.18.84s-.3.51-.54.79l-2.34,2.76h-.99Zm.9-3.4c.26.27.59.4.98.4s.72-.13.98-.4c.26-.27.4-.59.4-.98s-.13-.71-.4-.98-.59-.4-.98-.4-.72.13-.98.4c-.26.27-.39.59-.39.98s.13.71.39.98Z"/><path d="m286.7,58.47c-.67,0-1.21-.22-1.63-.67-.42-.45-.63-1.02-.63-1.73v-1.78c0-.71.21-1.29.63-1.73.42-.45.96-.67,1.62-.67s1.2.22,1.63.67.64,1.03.64,1.73v1.78c0,.71-.21,1.29-.64,1.73-.43.45-.97.67-1.63.67Zm0-.76c.44,0,.8-.15,1.08-.44.28-.29.41-.7.41-1.21v-1.78c0-.51-.14-.91-.41-1.21-.28-.29-.64-.44-1.08-.44s-.79.15-1.07.44c-.28.29-.41.7-.41,1.21v1.78c0,.51.14.91.41,1.21.28.29.63.44,1.07.44Z"/><path d="m293.55,57.85c-.41.41-.93.62-1.54.62s-1.13-.2-1.55-.61-.62-.91-.62-1.49c0-.31.06-.59.19-.84s.3-.51.54-.79l2.33-2.75h.98l-1.95,2.31c.11-.01.19-.02.25-.02.53,0,1,.2,1.4.61s.6.89.6,1.45c0,.59-.21,1.1-.62,1.51Zm-1.54-.13c.38,0,.71-.13.97-.41.26-.27.4-.59.4-.97s-.13-.7-.4-.97c-.26-.27-.59-.41-.97-.41s-.72.13-.98.4c-.26.27-.39.59-.39.98s.13.71.39.98c.27.27.59.4.98.4Z"/><line class="cls-2" x1="181.3" y1="185.07" x2="193.9" y2="271.2"/><line class="cls-2" x1="263.21" y1="73.43" x2="207.91" y2="133.55"/></g></svg>