<?xml version="1.0" encoding="UTF-8"?><svg id="_图层_2" xmlns="http://www.w3.org/2000/svg" viewBox="0 0 297.94 297.17"><defs><style>.cls-1{fill:#fff;}.cls-2{fill:none;stroke:#241f20;stroke-miterlimit:10;stroke-width:.5px;}</style></defs><g id="_图层_1-2"><path class="cls-1" d="m289.2,200.41c-34.05,137.77-74.39,91.75-206.97,79.53C12.44,273.5,13.34,226.58,4.28,200.41-26.04,112.85,111.51-41.44,205.11,10.41c88.85,49.22,106.32,100.04,84.09,190Z"/><path d="m104.5,129.61v-6.39h.84v6.39h-.84Z"/><path d="m106.89,129.61v-4.5h.77v.69c.31-.52.78-.78,1.43-.78.51,0,.92.17,1.23.49.31.33.47.77.47,1.32v2.77h-.76v-2.65c0-.38-.1-.68-.29-.9-.19-.22-.45-.33-.77-.33-.37,0-.68.15-.93.44-.25.29-.37.7-.37,1.21v2.23h-.77Z"/><path d="m118.21,128.87v.75h-4.14v-.31c0-.22.03-.43.1-.63.07-.2.14-.37.23-.51.08-.14.22-.29.4-.46s.32-.3.42-.38c.1-.08.27-.21.51-.38.24-.17.4-.28.48-.34.43-.31.72-.57.89-.79s.25-.49.25-.84-.11-.6-.32-.81c-.22-.2-.5-.3-.85-.3-.37,0-.68.11-.94.33-.26.22-.39.53-.39.93h-.79c0-.6.2-1.09.6-1.46.4-.37.9-.56,1.51-.56.56,0,1.03.16,1.41.49.38.32.56.79.56,1.39,0,.46-.11.84-.33,1.17s-.6.68-1.14,1.07c-.1.07-.25.17-.43.3-.19.13-.33.23-.43.31-.1.08-.21.17-.34.28-.12.11-.22.23-.29.35-.07.12-.12.26-.15.4h3.19Z"/><path d="m121.46,129.7c-.67,0-1.21-.22-1.63-.67-.42-.45-.63-1.02-.63-1.73v-1.78c0-.71.21-1.29.63-1.73.42-.45.96-.67,1.62-.67s1.2.23,1.63.67c.43.45.64,1.03.64,1.73v1.78c0,.71-.21,1.29-.64,1.73-.43.45-.97.67-1.63.67Zm0-.76c.44,0,.8-.15,1.08-.44s.41-.7.41-1.21v-1.78c0-.51-.14-.91-.41-1.21s-.64-.44-1.08-.44-.79.15-1.07.44c-.28.29-.41.7-.41,1.21v1.78c0,.51.14.91.41,1.21.28.29.63.44,1.07.44Z"/><path d="m125.57,129.61v-5.62h-1.23l.63-.77h1.38v6.39h-.77Z"/><path d="m131.77,128.87v.75h-4.14v-.31c0-.22.03-.43.1-.63.07-.2.14-.37.23-.51.08-.14.22-.29.4-.46s.32-.3.42-.38c.1-.08.27-.21.51-.38.24-.17.4-.28.48-.34.43-.31.72-.57.89-.79s.25-.49.25-.84-.11-.6-.32-.81c-.22-.2-.5-.3-.85-.3-.37,0-.68.11-.94.33-.26.22-.39.53-.39.93h-.79c0-.6.2-1.09.6-1.46.4-.37.9-.56,1.51-.56.56,0,1.03.16,1.41.49.38.32.56.79.56,1.39,0,.46-.11.84-.33,1.17s-.6.68-1.14,1.07c-.1.07-.25.17-.43.3-.19.13-.33.23-.43.31-.1.08-.21.17-.34.28-.12.11-.22.23-.29.35-.07.12-.12.26-.15.4h3.19Z"/><path d="m136.7,129.66c-.41,0-.75-.12-1-.35-.25-.23-.38-.58-.38-1.03v-2.46h-.95v-.71h.95v-1.25h.77v1.25h1.3v.71h-1.3v2.36c0,.28.06.48.18.59s.31.17.57.17c.23,0,.41-.03.55-.09v.69c-.22.07-.45.11-.69.11Z"/><path d="m139.16,129.61h-.77v-6.75h.77v2.94c.31-.52.78-.78,1.43-.78.51,0,.92.17,1.23.49.31.33.47.77.47,1.32v2.77h-.76v-2.65c0-.38-.1-.68-.29-.9-.19-.22-.45-.33-.77-.33-.37,0-.68.15-.93.44-.25.29-.37.7-.37,1.21v2.23Z"/><path d="m145.6,129.7c-.65,0-1.2-.22-1.62-.67-.43-.44-.64-1-.64-1.67s.21-1.24.63-1.68c.42-.44.97-.66,1.66-.66s1.24.25,1.64.74c.4.49.57,1.1.52,1.81h-3.66c.01.41.16.75.45,1.02s.64.41,1.04.41c.61,0,1.05-.25,1.3-.76h.79c-.11.42-.36.77-.73,1.04-.37.28-.83.41-1.38.41Zm.88-3.68c-.25-.21-.54-.32-.89-.32s-.66.1-.93.31c-.27.21-.44.52-.51.94h2.81c-.07-.41-.23-.72-.48-.93Z"/><path d="m148.89,129.61v-4.5h.77v.87c.08-.28.25-.5.49-.67.24-.17.5-.25.77-.25.13,0,.25.01.35.04v.8c-.11-.05-.25-.07-.42-.07-.31,0-.59.13-.83.4-.24.27-.36.65-.36,1.14v2.23h-.77Z"/><path d="m153.94,129.7c-.65,0-1.2-.22-1.62-.67-.43-.44-.64-1-.64-1.67s.21-1.24.63-1.68c.42-.44.97-.66,1.66-.66s1.24.25,1.64.74c.4.49.57,1.1.52,1.81h-3.66c.01.41.16.75.45,1.02s.64.41,1.04.41c.61,0,1.05-.25,1.3-.76h.79c-.11.42-.36.77-.73,1.04-.37.28-.83.41-1.38.41Zm.88-3.68c-.25-.21-.54-.32-.89-.32s-.66.1-.93.31c-.27.21-.44.52-.51.94h2.81c-.07-.41-.23-.72-.48-.93Z"/><path d="m163.06,129.61l-1.12-3.23-1.11,3.23h-.68l-1.53-4.5h.81l1.09,3.29,1.12-3.29h.59l1.12,3.29,1.09-3.29h.82l-1.53,4.5h-.68Z"/><path d="m168.01,129.7c-.65,0-1.2-.22-1.62-.67-.43-.44-.64-1-.64-1.67s.21-1.24.63-1.68c.42-.44.97-.66,1.66-.66s1.24.25,1.64.74c.4.49.57,1.1.52,1.81h-3.66c.01.41.16.75.45,1.02s.64.41,1.04.41c.61,0,1.05-.25,1.3-.76h.79c-.11.42-.36.77-.73,1.04-.37.28-.83.41-1.38.41Zm.88-3.68c-.25-.21-.54-.32-.89-.32s-.66.1-.93.31c-.27.21-.44.52-.51.94h2.81c-.07-.41-.23-.72-.48-.93Z"/><path d="m171.3,129.61v-4.5h.77v.87c.08-.28.25-.5.49-.67.24-.17.5-.25.77-.25.13,0,.25.01.35.04v.8c-.11-.05-.25-.07-.42-.07-.31,0-.59.13-.83.4-.24.27-.36.65-.36,1.14v2.23h-.77Z"/><path d="m176.35,129.7c-.65,0-1.2-.22-1.62-.67-.43-.44-.64-1-.64-1.67s.21-1.24.63-1.68c.42-.44.97-.66,1.66-.66s1.24.25,1.64.74c.4.49.57,1.1.52,1.81h-3.66c.01.41.16.75.45,1.02s.64.41,1.04.41c.61,0,1.05-.25,1.3-.76h.79c-.11.42-.36.77-.73,1.04-.37.28-.83.41-1.38.41Zm.88-3.68c-.25-.21-.54-.32-.89-.32s-.66.1-.93.31c-.27.21-.44.52-.51.94h2.81c-.07-.41-.23-.72-.48-.93Z"/><path d="m182.39,129.61v-5.62h-1.23l.63-.77h1.38v6.39h-.77Z"/><path d="m184.68,129.61l1.97-2.32c-.07,0-.15,0-.25,0-.53,0-1-.2-1.4-.61-.4-.41-.6-.89-.6-1.44,0-.6.21-1.1.62-1.52.41-.41.92-.62,1.54-.62s1.13.2,1.55.61c.41.41.62.91.62,1.49,0,.31-.06.59-.18.84s-.3.51-.54.79l-2.34,2.76h-.99Zm.9-3.4c.26.27.59.4.98.4s.72-.13.98-.4c.26-.27.4-.59.4-.98s-.13-.71-.4-.98c-.26-.27-.59-.4-.98-.4s-.72.13-.98.4c-.26.27-.39.59-.39.98s.13.71.39.98Z"/><path d="m189.91,129.49c-.13.13-.29.2-.47.2s-.34-.07-.47-.2-.19-.29-.19-.48.07-.34.2-.47c.13-.13.29-.2.47-.2s.34.07.47.2c.13.14.2.29.2.47s-.06.35-.19.48Z"/><path d="m195.16,128.87v.75h-4.14v-.31c0-.22.03-.43.1-.63.07-.2.14-.37.23-.51.08-.14.22-.29.4-.46s.32-.3.42-.38c.1-.08.27-.21.51-.38.24-.17.4-.28.48-.34.43-.31.72-.57.89-.79s.25-.49.25-.84-.11-.6-.32-.81c-.22-.2-.5-.3-.85-.3-.37,0-.68.11-.94.33-.26.22-.39.53-.39.93h-.79c0-.6.2-1.09.6-1.46.4-.37.9-.56,1.51-.56.56,0,1.03.16,1.41.49.38.32.56.79.56,1.39,0,.46-.11.84-.33,1.17s-.6.68-1.14,1.07c-.1.07-.25.17-.43.3-.19.13-.33.23-.43.31-.1.08-.21.17-.34.28-.12.11-.22.23-.29.35-.07.12-.12.26-.15.4h3.19Z"/><path d="m199.27,131.49h-.77v-6.38h.77v.69c.16-.23.38-.42.66-.56.29-.15.59-.22.92-.22.62,0,1.15.23,1.57.68.42.46.63,1.01.63,1.66s-.21,1.2-.63,1.66c-.42.46-.95.68-1.57.68-.33,0-.64-.07-.92-.22-.28-.15-.5-.33-.66-.56v2.57Zm.37-2.97c.29.31.65.47,1.1.47s.81-.16,1.1-.47.43-.7.43-1.16-.14-.85-.43-1.16-.65-.47-1.1-.47-.81.16-1.1.47-.43.7-.43,1.16.14.85.43,1.16Z"/><path d="m206.09,129.7c-.65,0-1.2-.22-1.62-.67-.43-.44-.64-1-.64-1.67s.21-1.24.63-1.68c.42-.44.97-.66,1.66-.66s1.24.25,1.64.74c.4.49.57,1.1.52,1.81h-3.66c.01.41.16.75.45,1.02s.64.41,1.04.41c.61,0,1.05-.25,1.3-.76h.79c-.11.42-.36.77-.73,1.04-.37.28-.83.41-1.38.41Zm.88-3.68c-.25-.21-.54-.32-.89-.32s-.66.1-.93.31c-.27.21-.44.52-.51.94h2.81c-.07-.41-.23-.72-.48-.93Z"/><path d="m209.38,129.61v-4.5h.77v.87c.08-.28.25-.5.49-.67.24-.17.5-.25.77-.25.13,0,.25.01.35.04v.8c-.11-.05-.25-.07-.42-.07-.31,0-.59.13-.83.4-.24.27-.36.65-.36,1.14v2.23h-.77Z"/><path d="m215.2,129.61v-5.62h-1.23l.63-.77h1.38v6.39h-.77Z"/><path d="m219.62,129.7c-.67,0-1.21-.22-1.63-.67-.42-.45-.63-1.02-.63-1.73v-1.78c0-.71.21-1.29.63-1.73.42-.45.96-.67,1.62-.67s1.2.23,1.63.67c.43.45.64,1.03.64,1.73v1.78c0,.71-.21,1.29-.64,1.73-.43.45-.97.67-1.63.67Zm0-.76c.44,0,.8-.15,1.08-.44s.41-.7.41-1.21v-1.78c0-.51-.14-.91-.41-1.21s-.64-.44-1.08-.44-.79.15-1.07.44c-.28.29-.41.7-.41,1.21v1.78c0,.51.14.91.41,1.21.28.29.63.44,1.07.44Z"/><path d="m225.22,129.7c-.67,0-1.21-.22-1.63-.67-.42-.45-.63-1.02-.63-1.73v-1.78c0-.71.21-1.29.63-1.73.42-.45.96-.67,1.62-.67s1.2.23,1.63.67c.43.45.64,1.03.64,1.73v1.78c0,.71-.21,1.29-.64,1.73-.43.45-.97.67-1.63.67Zm0-.76c.44,0,.8-.15,1.08-.44s.41-.7.41-1.21v-1.78c0-.51-.14-.91-.41-1.21s-.64-.44-1.08-.44-.79.15-1.07.44c-.28.29-.41.7-.41,1.21v1.78c0,.51.14.91.41,1.21.28.29.63.44,1.07.44Z"/><path d="m229.58,129.41l-.93,1.49h-.51l.6-1.29c-.25-.12-.37-.32-.37-.6,0-.18.07-.34.2-.47.13-.13.29-.2.47-.2s.34.07.47.2c.13.14.2.29.2.47,0,.13-.04.27-.13.4Z"/><path d="m232.84,129.7c-.67,0-1.21-.22-1.63-.67-.42-.45-.63-1.02-.63-1.73v-1.78c0-.71.21-1.29.63-1.73.42-.45.96-.67,1.62-.67s1.2.23,1.63.67c.43.45.64,1.03.64,1.73v1.78c0,.71-.21,1.29-.64,1.73-.43.45-.97.67-1.63.67Zm0-.76c.44,0,.8-.15,1.08-.44s.41-.7.41-1.21v-1.78c0-.51-.14-.91-.41-1.21s-.64-.44-1.08-.44-.79.15-1.07.44c-.28.29-.41.7-.41,1.21v1.78c0,.51.14.91.41,1.21.28.29.63.44,1.07.44Z"/><path d="m238.45,129.7c-.67,0-1.21-.22-1.63-.67-.42-.45-.63-1.02-.63-1.73v-1.78c0-.71.21-1.29.63-1.73.42-.45.96-.67,1.62-.67s1.2.23,1.63.67c.43.45.64,1.03.64,1.73v1.78c0,.71-.21,1.29-.64,1.73-.43.45-.97.67-1.63.67Zm0-.76c.44,0,.8-.15,1.08-.44s.41-.7.41-1.21v-1.78c0-.51-.14-.91-.41-1.21s-.64-.44-1.08-.44-.79.15-1.07.44c-.28.29-.41.7-.41,1.21v1.78c0,.51.14.91.41,1.21.28.29.63.44,1.07.44Z"/><path d="m244.06,129.7c-.67,0-1.21-.22-1.63-.67-.42-.45-.63-1.02-.63-1.73v-1.78c0-.71.21-1.29.63-1.73.42-.45.96-.67,1.62-.67s1.2.23,1.63.67c.43.45.64,1.03.64,1.73v1.78c0,.71-.21,1.29-.64,1.73-.43.45-.97.67-1.63.67Zm0-.76c.44,0,.8-.15,1.08-.44s.41-.7.41-1.21v-1.78c0-.51-.14-.91-.41-1.21s-.64-.44-1.08-.44-.79.15-1.07.44c-.28.29-.41.7-.41,1.21v1.78c0,.51.14.91.41,1.21.28.29.63.44,1.07.44Z"/><path d="m251.62,129.7c-.62,0-1.15-.23-1.57-.68-.42-.46-.63-1.01-.63-1.66s.21-1.2.63-1.66c.42-.46.95-.68,1.57-.68.33,0,.64.07.92.22.28.15.5.33.66.56v-2.94h.77v6.75h-.77v-.69c-.16.23-.38.42-.66.56-.29.15-.59.22-.92.22Zm.12-.71c.44,0,.81-.16,1.1-.47s.43-.7.43-1.16-.14-.85-.43-1.16-.65-.47-1.1-.47-.82.16-1.11.47-.43.7-.43,1.16.14.85.43,1.16.66.47,1.11.47Z"/><path d="m257.35,129.7c-.65,0-1.2-.22-1.62-.67-.43-.44-.64-1-.64-1.67s.21-1.24.63-1.68c.42-.44.97-.66,1.66-.66s1.24.25,1.64.74c.4.49.57,1.1.52,1.81h-3.66c.01.41.16.75.45,1.02s.64.41,1.04.41c.61,0,1.05-.25,1.3-.76h.79c-.11.42-.36.77-.73,1.04-.37.28-.83.41-1.38.41Zm.88-3.68c-.25-.21-.54-.32-.89-.32s-.66.1-.93.31c-.27.21-.44.52-.51.94h2.81c-.07-.41-.23-.72-.48-.93Z"/><path d="m262.5,129.7c-.62,0-1.15-.23-1.57-.68-.42-.46-.63-1.01-.63-1.66s.21-1.2.63-1.66c.42-.46.95-.68,1.57-.68.33,0,.64.07.92.22.28.15.5.33.66.56v-.69h.77v4.5h-.77v-.69c-.16.23-.38.42-.66.56-.29.15-.59.22-.92.22Zm.12-.71c.44,0,.81-.16,1.1-.47s.43-.7.43-1.16-.14-.85-.43-1.16-.65-.47-1.1-.47-.82.16-1.11.47-.43.7-.43,1.16.14.85.43,1.16.66.47,1.11.47Z"/><path d="m268.06,129.66c-.41,0-.75-.12-1-.35-.25-.23-.38-.58-.38-1.03v-2.46h-.95v-.71h.95v-1.25h.77v1.25h1.3v.71h-1.3v2.36c0,.28.06.48.18.59s.31.17.57.17c.23,0,.41-.03.55-.09v.69c-.22.07-.45.11-.69.11Z"/><path d="m270.52,129.61h-.77v-6.75h.77v2.94c.31-.52.78-.78,1.43-.78.51,0,.92.17,1.23.49.31.33.47.77.47,1.32v2.77h-.76v-2.65c0-.38-.1-.68-.29-.9-.19-.22-.45-.33-.77-.33-.37,0-.68.15-.93.44-.25.29-.37.7-.37,1.21v2.23Z"/><path d="m276.49,129.7c-.5,0-.93-.12-1.26-.37s-.53-.59-.56-1.03h.79c.05.25.17.44.37.56.19.12.42.18.68.18s.47-.05.63-.15c.16-.1.24-.25.24-.44,0-.18-.06-.33-.17-.44-.12-.11-.31-.21-.57-.28l-.65-.17c-.77-.2-1.16-.65-1.16-1.32,0-.37.15-.66.44-.88.29-.22.66-.33,1.12-.33s.84.12,1.14.36c.3.24.46.55.5.92h-.77c-.06-.2-.17-.35-.32-.47-.15-.11-.33-.17-.54-.17-.22,0-.41.05-.55.15-.15.1-.22.24-.22.41s.05.29.16.4c.11.1.28.19.52.25l.72.19c.77.19,1.15.64,1.15,1.33,0,.43-.15.76-.46.98-.31.22-.71.33-1.2.33Z"/><path d="m106.74,140.5c-.33,0-.64-.07-.92-.22-.28-.15-.5-.33-.66-.56v.69h-.77v-6.75h.77v2.94c.16-.23.38-.42.66-.56.29-.15.59-.22.92-.22.62,0,1.15.23,1.57.68.42.46.63,1.01.63,1.66s-.21,1.2-.63,1.66c-.42.46-.95.68-1.57.68Zm-1.21-1.18c.29.31.65.47,1.1.47s.81-.16,1.1-.47.43-.7.43-1.16-.14-.85-.43-1.16-.65-.47-1.1-.47-.81.16-1.1.47-.43.7-.43,1.16.14.85.43,1.16Z"/><path d="m111.97,140.5c-.65,0-1.2-.22-1.62-.67-.43-.44-.64-1-.64-1.67s.21-1.24.63-1.68c.42-.44.97-.66,1.66-.66s1.24.25,1.64.74c.4.49.57,1.1.52,1.81h-3.66c.01.41.16.75.45,1.02s.64.41,1.04.41c.61,0,1.05-.25,1.3-.76h.79c-.11.42-.36.77-.73,1.04-.37.28-.83.41-1.38.41Zm.88-3.68c-.25-.21-.54-.32-.89-.32s-.66.1-.93.31c-.27.21-.44.52-.51.94h2.81c-.07-.41-.23-.72-.48-.93Z"/><path d="m117.26,140.5c-.68,0-1.24-.23-1.68-.68s-.67-1.01-.67-1.66.22-1.21.67-1.66c.44-.45,1-.68,1.68-.68.56,0,1.04.15,1.45.46s.68.71.82,1.21h-.83c-.11-.29-.29-.53-.54-.7-.25-.17-.55-.26-.9-.26-.46,0-.84.16-1.13.47s-.44.7-.44,1.16.15.85.44,1.16.67.47,1.13.47c.35,0,.65-.09.9-.26.25-.17.43-.41.54-.7h.83c-.13.5-.4.9-.81,1.21-.41.31-.89.46-1.46.46Z"/><path d="m122.41,140.5c-.62,0-1.15-.23-1.57-.68-.42-.46-.63-1.01-.63-1.66s.21-1.2.63-1.66c.42-.46.95-.68,1.57-.68.33,0,.64.07.92.22.28.15.5.33.66.56v-.69h.77v4.5h-.77v-.69c-.16.23-.38.42-.66.56-.29.15-.59.22-.92.22Zm.12-.71c.44,0,.81-.16,1.1-.47s.43-.7.43-1.16-.14-.85-.43-1.16-.65-.47-1.1-.47-.82.16-1.11.47-.43.7-.43,1.16.14.85.43,1.16.66.47,1.11.47Z"/><path d="m127.82,140.5c-.49,0-.89-.17-1.2-.5s-.46-.78-.46-1.33v-2.76h.77v2.65c0,.38.09.68.27.9.18.22.43.33.74.33.36,0,.66-.15.9-.45s.36-.7.36-1.2v-2.23h.77v4.5h-.77v-.69c-.29.52-.76.78-1.39.78Z"/><path d="m132.88,140.5c-.5,0-.93-.12-1.26-.37s-.53-.59-.56-1.03h.79c.05.25.17.44.37.56.19.12.42.18.68.18s.47-.05.63-.15c.16-.1.24-.25.24-.44,0-.18-.06-.33-.17-.44-.12-.11-.31-.21-.57-.28l-.65-.17c-.77-.2-1.16-.65-1.16-1.32,0-.37.15-.66.44-.88.29-.22.66-.33,1.12-.33s.84.12,1.14.36c.3.24.46.55.5.92h-.77c-.06-.2-.17-.35-.32-.47-.15-.11-.33-.17-.54-.17-.22,0-.41.05-.55.15-.15.1-.22.24-.22.41s.05.29.16.4c.11.1.28.19.52.25l.72.19c.77.19,1.15.64,1.15,1.33,0,.43-.15.76-.46.98-.31.22-.71.33-1.2.33Z"/><path d="m137.56,140.5c-.65,0-1.2-.22-1.62-.67-.43-.44-.64-1-.64-1.67s.21-1.24.63-1.68c.42-.44.97-.66,1.66-.66s1.24.25,1.64.74c.4.49.57,1.1.52,1.81h-3.66c.01.41.16.75.45,1.02s.64.41,1.04.41c.61,0,1.05-.25,1.3-.76h.79c-.11.42-.36.77-.73,1.04-.37.28-.83.41-1.38.41Zm.88-3.68c-.25-.21-.54-.32-.89-.32s-.66.1-.93.31c-.27.21-.44.52-.51.94h2.81c-.07-.41-.23-.72-.48-.93Z"/><path d="m145.02,140.5c-.68,0-1.24-.23-1.69-.68-.45-.45-.67-1.01-.67-1.66s.22-1.21.67-1.66c.45-.45,1.01-.68,1.69-.68s1.23.23,1.68.68c.45.45.67,1.01.67,1.66s-.22,1.21-.67,1.66-1.01.68-1.68.68Zm-1.13-1.19c.29.31.67.47,1.13.47s.84-.16,1.12-.47c.29-.31.43-.7.43-1.15s-.14-.84-.43-1.15c-.29-.31-.66-.47-1.12-.47s-.84.16-1.13.47-.44.7-.44,1.15.15.84.44,1.15Z"/><path d="m148.78,140.41v-3.79h-.95v-.71h.95v-.91c0-.45.13-.79.38-1.03.25-.24.58-.36,1-.36.25,0,.48.04.7.12v.68c-.14-.06-.32-.09-.56-.09-.26,0-.45.06-.57.17-.12.11-.18.31-.18.59v.83h1.3v.71h-1.3v3.79h-.77Z"/><path d="m156.63,140.52c-.94,0-1.73-.32-2.36-.95-.63-.63-.95-1.42-.95-2.35s.32-1.72.95-2.35c.63-.63,1.42-.95,2.36-.95.77,0,1.43.22,1.99.65.56.43.92.95,1.07,1.57h-.88c-.15-.41-.42-.75-.81-1.02-.39-.27-.85-.4-1.36-.4-.71,0-1.3.24-1.77.72-.47.48-.71,1.08-.71,1.79s.24,1.3.71,1.79c.47.48,1.06.72,1.77.72.52,0,.97-.13,1.36-.4.39-.27.66-.61.81-1.02h.88c-.15.61-.51,1.13-1.07,1.57-.56.43-1.23.65-1.99.65Z"/><path d="m160.85,140.41v-6.39h.84v5.6h3.09v.79h-3.92Z"/><path d="m165.78,140.41v-6.39h2.18c.59,0,1.05.16,1.39.48.34.32.51.75.51,1.28,0,.47-.14.85-.42,1.15-.28.3-.67.49-1.17.56l2.47,2.92h-1.05l-2.46-2.91h-.62v2.91h-.84Zm.84-3.65h1.24c.37,0,.66-.08.86-.25s.31-.41.31-.72-.1-.56-.31-.73-.49-.26-.86-.26h-1.24v1.96Z"/><path d="m171.49,140.41v-6.39h1.84c.98,0,1.79.3,2.43.91.65.61.97,1.37.97,2.29s-.32,1.68-.97,2.29c-.64.61-1.46.91-2.43.91h-1.84Zm.84-.78h1c.76,0,1.38-.23,1.85-.68.47-.45.71-1.03.71-1.73s-.24-1.28-.71-1.73c-.47-.45-1.09-.68-1.85-.68h-1v4.82Z"/><path d="m178.41,140.29c-.13.13-.29.2-.47.2s-.34-.07-.47-.2-.19-.29-.19-.48.07-.34.2-.47c.13-.13.29-.2.47-.2s.34.07.47.2c.13.14.2.29.2.47s-.06.35-.19.48Z"/><path d="m33.08,243.6v-3.79h-.95v-.71h.95v-.91c0-.45.13-.79.38-1.03.25-.24.58-.36,1-.36.25,0,.48.04.7.12v.68c-.14-.06-.32-.09-.56-.09-.26,0-.45.06-.57.17-.12.11-.18.31-.18.59v.83h1.3v.71h-1.3v3.79h-.77Z"/><path d="m37.8,243.69c-.65,0-1.2-.22-1.62-.67-.43-.44-.64-1-.64-1.67s.21-1.24.63-1.68c.42-.44.97-.66,1.66-.66s1.24.25,1.64.74c.4.49.57,1.1.52,1.81h-3.66c.01.41.16.75.45,1.02s.64.41,1.04.41c.61,0,1.05-.25,1.3-.76h.79c-.11.42-.36.77-.73,1.04-.37.28-.83.41-1.38.41Zm.88-3.68c-.25-.21-.54-.32-.89-.32s-.66.1-.93.31c-.27.21-.44.52-.51.94h2.81c-.07-.41-.23-.72-.48-.93Z"/><path d="m46.89,243.6v-2.65c0-.37-.08-.67-.23-.9-.15-.23-.37-.34-.66-.34-.36,0-.65.14-.88.42-.23.28-.34.67-.36,1.15v2.3h-.77v-2.65c0-.38-.08-.68-.23-.9s-.37-.33-.65-.33c-.37,0-.67.15-.9.45-.23.3-.34.7-.34,1.2v2.23h-.77v-4.5h.77v.69c.29-.52.74-.78,1.36-.78.68,0,1.15.32,1.39.96.12-.29.31-.53.58-.7.26-.17.56-.26.9-.26.49,0,.87.17,1.15.49.28.33.42.77.42,1.33v2.76h-.77Z"/><path d="m50.91,243.69c-.62,0-1.15-.23-1.57-.68-.42-.46-.63-1.01-.63-1.66s.21-1.2.63-1.66c.42-.46.95-.68,1.57-.68.33,0,.64.07.92.22.28.15.5.33.66.56v-.69h.77v4.5h-.77v-.69c-.16.23-.38.42-.66.56-.29.15-.59.22-.92.22Zm.12-.71c.44,0,.81-.16,1.1-.47s.43-.7.43-1.16-.14-.85-.43-1.16-.65-.47-1.1-.47-.82.16-1.11.47-.43.7-.43,1.16.14.85.43,1.16.66.47,1.11.47Z"/><path d="m54.73,243.6v-6.75h.77v6.75h-.77Z"/><path d="m58.89,243.69c-.65,0-1.2-.22-1.62-.67-.43-.44-.64-1-.64-1.67s.21-1.24.63-1.68c.42-.44.97-.66,1.66-.66s1.24.25,1.64.74c.4.49.57,1.1.52,1.81h-3.66c.01.41.16.75.45,1.02s.64.41,1.04.41c.61,0,1.05-.25,1.3-.76h.79c-.11.42-.36.77-.73,1.04-.37.28-.83.41-1.38.41Zm.88-3.68c-.25-.21-.54-.32-.89-.32s-.66.1-.93.31c-.27.21-.44.52-.51.94h2.81c-.07-.41-.23-.72-.48-.93Z"/><path d="m66.21,243.69c-.62,0-1.15-.23-1.57-.68-.42-.46-.63-1.01-.63-1.66s.21-1.2.63-1.66c.42-.46.95-.68,1.57-.68.33,0,.64.07.92.22.28.15.5.33.66.56v-2.94h.77v6.75h-.77v-.69c-.16.23-.38.42-.66.56-.29.15-.59.22-.92.22Zm.12-.71c.44,0,.81-.16,1.1-.47s.43-.7.43-1.16-.14-.85-.43-1.16-.65-.47-1.1-.47-.82.16-1.11.47-.43.7-.43,1.16.14.85.43,1.16.66.47,1.11.47Z"/><path d="m71.94,243.69c-.65,0-1.2-.22-1.62-.67-.43-.44-.64-1-.64-1.67s.21-1.24.63-1.68c.42-.44.97-.66,1.66-.66s1.24.25,1.64.74c.4.49.57,1.1.52,1.81h-3.66c.01.41.16.75.45,1.02s.64.41,1.04.41c.61,0,1.05-.25,1.3-.76h.79c-.11.42-.36.77-.73,1.04-.37.28-.83.41-1.38.41Zm.88-3.68c-.25-.21-.54-.32-.89-.32s-.66.1-.93.31c-.27.21-.44.52-.51.94h2.81c-.07-.41-.23-.72-.48-.93Z"/><path d="m77.09,243.69c-.62,0-1.15-.23-1.57-.68-.42-.46-.63-1.01-.63-1.66s.21-1.2.63-1.66c.42-.46.95-.68,1.57-.68.33,0,.64.07.92.22.28.15.5.33.66.56v-.69h.77v4.5h-.77v-.69c-.16.23-.38.42-.66.56-.29.15-.59.22-.92.22Zm.12-.71c.44,0,.81-.16,1.1-.47s.43-.7.43-1.16-.14-.85-.43-1.16-.65-.47-1.1-.47-.82.16-1.11.47-.43.7-.43,1.16.14.85.43,1.16.66.47,1.11.47Z"/><path d="m82.65,243.64c-.41,0-.75-.12-1-.35-.25-.23-.38-.58-.38-1.03v-2.46h-.95v-.71h.95v-1.25h.77v1.25h1.3v.71h-1.3v2.36c0,.28.06.48.18.59s.31.17.57.17c.23,0,.41-.03.55-.09v.69c-.22.07-.45.11-.69.11Z"/><path d="m85.1,243.6h-.77v-6.75h.77v2.94c.31-.52.78-.78,1.43-.78.51,0,.92.17,1.23.49.31.33.47.77.47,1.32v2.77h-.76v-2.65c0-.38-.1-.68-.29-.9-.19-.22-.45-.33-.77-.33-.37,0-.68.15-.93.44-.25.29-.37.7-.37,1.21v2.23Z"/><path d="m91.8,243.6v-4.5h.77v.87c.08-.28.25-.5.49-.67.24-.17.5-.25.77-.25.13,0,.25.01.35.04v.8c-.11-.05-.25-.07-.42-.07-.31,0-.59.13-.83.4-.24.27-.36.65-.36,1.14v2.23h-.77Z"/><path d="m96.8,243.69c-.62,0-1.15-.23-1.57-.68-.42-.46-.63-1.01-.63-1.66s.21-1.2.63-1.66c.42-.46.95-.68,1.57-.68.33,0,.64.07.92.22.28.15.5.33.66.56v-.69h.77v4.5h-.77v-.69c-.16.23-.38.42-.66.56-.29.15-.59.22-.92.22Zm.12-.71c.44,0,.81-.16,1.1-.47s.43-.7.43-1.16-.14-.85-.43-1.16-.65-.47-1.1-.47-.82.16-1.11.47-.43.7-.43,1.16.14.85.43,1.16.66.47,1.11.47Z"/><path d="m102.36,243.64c-.41,0-.75-.12-1-.35-.25-.23-.38-.58-.38-1.03v-2.46h-.95v-.71h.95v-1.25h.77v1.25h1.3v.71h-1.3v2.36c0,.28.06.48.18.59s.31.17.57.17c.23,0,.41-.03.55-.09v.69c-.22.07-.45.11-.69.11Z"/><path d="m105.89,243.69c-.65,0-1.2-.22-1.62-.67-.43-.44-.64-1-.64-1.67s.21-1.24.63-1.68c.42-.44.97-.66,1.66-.66s1.24.25,1.64.74c.4.49.57,1.1.52,1.81h-3.66c.01.41.16.75.45,1.02s.64.41,1.04.41c.61,0,1.05-.25,1.3-.76h.79c-.11.42-.36.77-.73,1.04-.37.28-.83.41-1.38.41Zm.88-3.68c-.25-.21-.54-.32-.89-.32s-.66.1-.93.31c-.27.21-.44.52-.51.94h2.81c-.07-.41-.23-.72-.48-.93Z"/><path d="m110.16,240.14c-.13.13-.29.2-.47.2s-.34-.07-.47-.2c-.13-.13-.19-.29-.19-.48s.07-.34.2-.47c.13-.14.29-.2.47-.2s.34.07.47.2c.13.13.2.29.2.47s-.07.35-.19.48Zm0,3.33c-.13.13-.29.2-.47.2s-.34-.07-.47-.2-.19-.29-.19-.48.07-.34.2-.47c.13-.13.29-.2.47-.2s.34.07.47.2c.13.14.2.29.2.47s-.07.35-.19.48Z"/><path d="m117.13,243.07c-.41.41-.92.62-1.54.62s-1.13-.2-1.55-.61-.62-.91-.62-1.49c0-.31.06-.59.18-.84s.3-.51.54-.79l2.33-2.75h.98l-1.95,2.31c.11-.01.19-.02.25-.02.53,0,1,.2,1.4.61.4.41.6.89.6,1.45,0,.59-.21,1.1-.62,1.51Zm-1.54-.13c.38,0,.71-.13.97-.4s.4-.59.4-.97-.13-.7-.4-.97-.59-.41-.97-.41-.72.13-.98.4c-.26.27-.4.59-.4.98s.13.71.4.98c.26.27.59.4.98.4Z"/><path d="m119.73,243.47c-.13.13-.29.2-.47.2s-.34-.07-.47-.2-.19-.29-.19-.48.07-.34.2-.47c.13-.13.29-.2.47-.2s.34.07.47.2c.13.14.2.29.2.47s-.06.35-.19.48Z"/><path d="m121.81,243.6h-.86l2.98-5.63h-3.27v-.76h4.19v.65l-3.04,5.74Z"/><path d="m103.86,46.02v-2.65c0-.37-.08-.67-.23-.9-.15-.23-.37-.34-.66-.34-.36,0-.65.14-.88.42-.23.28-.34.67-.36,1.15v2.3h-.77v-2.65c0-.38-.08-.68-.23-.9s-.37-.33-.65-.33c-.37,0-.67.15-.9.45-.23.3-.34.7-.34,1.2v2.23h-.77v-4.5h.77v.69c.29-.52.74-.78,1.36-.78.68,0,1.15.32,1.39.96.12-.29.31-.53.58-.7.26-.17.56-.26.9-.26.49,0,.87.17,1.15.49.28.33.42.77.42,1.33v2.76h-.77Z"/><path d="m107.88,46.11c-.62,0-1.15-.23-1.57-.68-.42-.46-.63-1.01-.63-1.66s.21-1.2.63-1.66c.42-.46.95-.68,1.57-.68.33,0,.64.07.92.22.28.15.5.33.66.56v-.69h.77v4.5h-.77v-.69c-.16.23-.38.42-.66.56-.29.15-.59.22-.92.22Zm.12-.71c.44,0,.81-.16,1.1-.47s.43-.7.43-1.16-.14-.85-.43-1.16-.65-.47-1.1-.47-.82.16-1.11.47-.43.7-.43,1.16.14.85.43,1.16.66.47,1.11.47Z"/><path d="m111.69,46.02v-6.75h.77v6.75h-.77Z"/><path d="m115.85,46.11c-.65,0-1.2-.22-1.62-.67-.43-.44-.64-1-.64-1.67s.21-1.24.63-1.68c.42-.44.97-.66,1.66-.66s1.24.25,1.64.74c.4.49.57,1.1.52,1.81h-3.66c.01.41.16.75.45,1.02s.64.41,1.04.41c.61,0,1.05-.25,1.3-.76h.79c-.11.42-.36.77-.73,1.04-.37.28-.83.41-1.38.41Zm.88-3.68c-.25-.21-.54-.32-.89-.32s-.66.1-.93.31c-.27.21-.44.52-.51.94h2.81c-.07-.41-.23-.72-.48-.93Z"/><path d="m123.17,46.11c-.62,0-1.15-.23-1.57-.68-.42-.46-.63-1.01-.63-1.66s.21-1.2.63-1.66c.42-.46.95-.68,1.57-.68.33,0,.64.07.92.22.28.15.5.33.66.56v-2.94h.77v6.75h-.77v-.69c-.16.23-.38.42-.66.56-.29.15-.59.22-.92.22Zm.12-.71c.44,0,.81-.16,1.1-.47s.43-.7.43-1.16-.14-.85-.43-1.16-.65-.47-1.1-.47-.82.16-1.11.47-.43.7-.43,1.16.14.85.43,1.16.66.47,1.11.47Z"/><path d="m128.9,46.11c-.65,0-1.2-.22-1.62-.67-.43-.44-.64-1-.64-1.67s.21-1.24.63-1.68c.42-.44.97-.66,1.66-.66s1.24.25,1.64.74c.4.49.57,1.1.52,1.81h-3.66c.01.41.16.75.45,1.02s.64.41,1.04.41c.61,0,1.05-.25,1.3-.76h.79c-.11.42-.36.77-.73,1.04-.37.28-.83.41-1.38.41Zm.88-3.68c-.25-.21-.54-.32-.89-.32s-.66.1-.93.31c-.27.21-.44.52-.51.94h2.81c-.07-.41-.23-.72-.48-.93Z"/><path d="m134.05,46.11c-.62,0-1.15-.23-1.57-.68-.42-.46-.63-1.01-.63-1.66s.21-1.2.63-1.66c.42-.46.95-.68,1.57-.68.33,0,.64.07.92.22.28.15.5.33.66.56v-.69h.77v4.5h-.77v-.69c-.16.23-.38.42-.66.56-.29.15-.59.22-.92.22Zm.12-.71c.44,0,.81-.16,1.1-.47s.43-.7.43-1.16-.14-.85-.43-1.16-.65-.47-1.1-.47-.82.16-1.11.47-.43.7-.43,1.16.14.85.43,1.16.66.47,1.11.47Z"/><path d="m139.61,46.07c-.41,0-.75-.12-1-.35-.25-.23-.38-.58-.38-1.03v-2.46h-.95v-.71h.95v-1.25h.77v1.25h1.3v.71h-1.3v2.36c0,.28.06.48.18.59s.31.17.57.17c.23,0,.41-.03.55-.09v.69c-.22.07-.45.11-.69.11Z"/><path d="m142.07,46.02h-.77v-6.75h.77v2.94c.31-.52.78-.78,1.43-.78.51,0,.92.17,1.23.49.31.33.47.77.47,1.32v2.77h-.76v-2.65c0-.38-.1-.68-.29-.9-.19-.22-.45-.33-.77-.33-.37,0-.68.15-.93.44-.25.29-.37.7-.37,1.21v2.23Z"/><path d="m148.76,46.02v-4.5h.77v.87c.08-.28.25-.5.49-.67.24-.17.5-.25.77-.25.13,0,.25.01.35.04v.8c-.11-.05-.25-.07-.42-.07-.31,0-.59.13-.83.4-.24.27-.36.65-.36,1.14v2.23h-.77Z"/><path d="m153.76,46.11c-.62,0-1.15-.23-1.57-.68-.42-.46-.63-1.01-.63-1.66s.21-1.2.63-1.66c.42-.46.95-.68,1.57-.68.33,0,.64.07.92.22.28.15.5.33.66.56v-.69h.77v4.5h-.77v-.69c-.16.23-.38.42-.66.56-.29.15-.59.22-.92.22Zm.12-.71c.44,0,.81-.16,1.1-.47s.43-.7.43-1.16-.14-.85-.43-1.16-.65-.47-1.1-.47-.82.16-1.11.47-.43.7-.43,1.16.14.85.43,1.16.66.47,1.11.47Z"/><path d="m159.32,46.07c-.41,0-.75-.12-1-.35-.25-.23-.38-.58-.38-1.03v-2.46h-.95v-.71h.95v-1.25h.77v1.25h1.3v.71h-1.3v2.36c0,.28.06.48.18.59s.31.17.57.17c.23,0,.41-.03.55-.09v.69c-.22.07-.45.11-.69.11Z"/><path d="m162.86,46.11c-.65,0-1.2-.22-1.62-.67-.43-.44-.64-1-.64-1.67s.21-1.24.63-1.68c.42-.44.97-.66,1.66-.66s1.24.25,1.64.74c.4.49.57,1.1.52,1.81h-3.66c.01.41.16.75.45,1.02s.64.41,1.04.41c.61,0,1.05-.25,1.3-.76h.79c-.11.42-.36.77-.73,1.04-.37.28-.83.41-1.38.41Zm.88-3.68c-.25-.21-.54-.32-.89-.32s-.66.1-.93.31c-.27.21-.44.52-.51.94h2.81c-.07-.41-.23-.72-.48-.93Z"/><path d="m167.13,42.56c-.13.13-.29.2-.47.2s-.34-.07-.47-.2c-.13-.13-.19-.29-.19-.48s.07-.34.2-.47c.13-.14.29-.2.47-.2s.34.07.47.2c.13.13.2.29.2.47s-.07.35-.19.48Zm0,3.33c-.13.13-.29.2-.47.2s-.34-.07-.47-.2-.19-.29-.19-.48.07-.34.2-.47c.13-.13.29-.2.47-.2s.34.07.47.2c.13.14.2.29.2.47s-.07.35-.19.48Z"/><path d="m171.36,46.02v-5.62h-1.23l.63-.77h1.38v6.39h-.77Z"/><path d="m175.78,46.11c-.67,0-1.21-.22-1.63-.67-.42-.45-.63-1.02-.63-1.73v-1.78c0-.71.21-1.29.63-1.73.42-.45.96-.67,1.62-.67s1.2.23,1.63.67c.43.45.64,1.03.64,1.73v1.78c0,.71-.21,1.29-.64,1.73-.43.45-.97.67-1.63.67Zm0-.76c.44,0,.8-.15,1.08-.44s.41-.7.41-1.21v-1.78c0-.51-.14-.91-.41-1.21s-.64-.44-1.08-.44-.79.15-1.07.44c-.28.29-.41.7-.41,1.21v1.78c0,.51.14.91.41,1.21.28.29.63.44,1.07.44Z"/><path d="m180.05,45.89c-.13.13-.29.2-.47.2s-.34-.07-.47-.2-.19-.29-.19-.48.07-.34.2-.47c.13-.13.29-.2.47-.2s.34.07.47.2c.13.14.2.29.2.47s-.06.35-.19.48Z"/><path d="m185.29,45.27v.75h-4.14v-.31c0-.22.03-.43.1-.63.07-.2.14-.37.23-.51.08-.14.22-.29.4-.46s.32-.3.42-.38c.1-.08.27-.21.51-.38.24-.17.4-.28.48-.34.43-.31.72-.57.89-.79s.25-.49.25-.84-.11-.6-.32-.81c-.22-.2-.5-.3-.85-.3-.37,0-.68.11-.94.33-.26.22-.39.53-.39.93h-.79c0-.6.2-1.09.6-1.46.4-.37.9-.56,1.51-.56.56,0,1.03.16,1.41.49.38.32.56.79.56,1.39,0,.46-.11.84-.33,1.17s-.6.68-1.14,1.07c-.1.07-.25.17-.43.3-.19.13-.33.23-.43.31-.1.08-.21.17-.34.28-.12.11-.22.23-.29.35-.07.12-.12.26-.15.4h3.19Z"/><line class="cls-2" x1="162.53" y1="58.13" x2="196.43" y2="109.1"/><line class="cls-2" x1="165.76" y1="154.1" x2="79.64" y2="225.67"/></g></svg>