<?xml version="1.0" encoding="UTF-8"?><svg id="_图层_2" xmlns="http://www.w3.org/2000/svg" viewBox="0 0 519.86 326.79"><defs><style>.cls-1{letter-spacing:-.02em;}.cls-2{letter-spacing:-.08em;}.cls-3{letter-spacing:-.02em;}.cls-4{fill:#fff;}.cls-5{letter-spacing:-.02em;}.cls-6{letter-spacing:-.02em;}.cls-7{letter-spacing:0em;}.cls-8{letter-spacing:0em;}.cls-9{letter-spacing:0em;}.cls-10{letter-spacing:-.02em;}.cls-11{letter-spacing:-.01em;}.cls-12{letter-spacing:0em;}.cls-13{letter-spacing:0em;}.cls-14{font-family:EuclidCircularA-Regular, 'Euclid Circular A';font-size:12px;}.cls-15{letter-spacing:-.03em;}.cls-16{letter-spacing:0em;}.cls-17{letter-spacing:-.03em;}.cls-18{letter-spacing:-.02em;}.cls-19{letter-spacing:-.01em;}.cls-20{letter-spacing:-.03em;}.cls-21{fill:none;stroke:#241f20;stroke-miterlimit:10;stroke-width:.5px;}</style></defs><g id="_图层_1-2"><path class="cls-4" d="m516.47,129.23c-39.89,161.43-56.89,175.02-211.39,196.6C214.16,338.52-14.89,223.28.76,134.55,19.63,27.63,215.79,62.73,330.44,11.97c81.86-36.25,212.08,11.86,186.04,117.26Z"/><text class="cls-14" transform="translate(54.25 114.59)"><tspan class="cls-13" x="0" y="0">I</tspan><tspan x="3.35" y="0">n 2020</tspan><tspan class="cls-18" x="41.65" y="0"> </tspan><tspan x="44.34" y="0">the</tspan><tspan class="cls-5" x="62.93" y="0">r</tspan><tspan class="cls-8" x="67.1" y="0">e</tspan><tspan class="cls-5" x="74.05" y="0"> </tspan><tspan class="cls-9" x="76.73" y="0">w</tspan><tspan x="85.86" y="0">e</tspan><tspan class="cls-5" x="92.81" y="0">r</tspan><tspan x="96.98" y="0">e 223.3 pe</tspan><tspan class="cls-6" x="154.57" y="0">r</tspan><tspan x="158.66" y="0" xml:space="preserve"> 10</tspan><tspan class="cls-10" x="172.93" y="0">0,</tspan><tspan x="183.1" y="0">000 deaths</tspan><tspan x="0" y="14.4">because </tspan><tspan class="cls-12" x="51.51" y="14.4">o</tspan><tspan class="cls-15" x="58.69" y="14.4">f</tspan><tspan x="62.78" y="14.4" xml:space="preserve"> C</tspan><tspan class="cls-3" x="75.13" y="14.4">O</tspan><tspan x="84.78" y="14.4">VID</tspan><tspan class="cls-17" x="105.21" y="14.4">-</tspan><tspan x="109.43" y="14.4">1</tspan><tspan class="cls-2" x="113.33" y="14.4">9</tspan><tspan x="119.05" y="14.4">.</tspan></text><text class="cls-14" transform="translate(161.69 252.44)"><tspan class="cls-16" x="0" y="0">(</tspan><tspan class="cls-13" x="3.24" y="0">5</tspan><tspan x="9.88" y="0">1%)</tspan><tspan class="cls-5" x="28.96" y="0"> </tspan><tspan class="cls-13" x="31.63" y="0">w</tspan><tspan class="cls-7" x="40.76" y="0">e</tspan><tspan class="cls-1" x="47.71" y="0">r</tspan><tspan x="51.89" y="0">e</tspan><tspan class="cls-19" x="58.84" y="0" xml:space="preserve"> f</tspan><tspan x="65.82" y="0">emale</tspan></text><text class="cls-14" transform="translate(378.58 87.44)"><tspan class="cls-20" x="0" y="0">(</tspan><tspan class="cls-11" x="2.99" y="0">4</tspan><tspan x="10.22" y="0">9%)</tspan><tspan class="cls-5" x="32.11" y="0"> </tspan><tspan class="cls-13" x="34.79" y="0">w</tspan><tspan x="43.92" y="0">e</tspan><tspan class="cls-5" x="50.87" y="0">r</tspan><tspan x="55.04" y="0">e male</tspan></text><line class="cls-21" x1="173.8" y1="143.15" x2="184.54" y2="226.75"/><line class="cls-21" x1="424.56" y1="106.61" x2="272.74" y2="232.88"/></g></svg>