<?xml version="1.0" encoding="UTF-8"?><svg id="_图层_2" xmlns="http://www.w3.org/2000/svg" viewBox="0 0 313.95 310.81"><defs><style>.cls-1{font-family:EuclidCircularA-Regular, 'Euclid Circular A';font-size:9px;}.cls-2{fill:#fff;}.cls-3{letter-spacing:-.03em;}.cls-4{letter-spacing:-.02em;}.cls-5{letter-spacing:0em;}.cls-6{letter-spacing:0em;}.cls-7{letter-spacing:-.02em;}.cls-8{letter-spacing:0em;}.cls-9{letter-spacing:0em;}.cls-10{letter-spacing:0em;}.cls-11{letter-spacing:-.02em;}.cls-12{letter-spacing:-.02em;}.cls-13{letter-spacing:-.01em;}.cls-14{letter-spacing:-.03em;}.cls-15{fill:none;stroke:#241f20;stroke-miterlimit:10;stroke-width:.5px;}</style></defs><g id="_图层_1-2"><path class="cls-2" d="m305.52,149.32c-37.01,150.29,68.09,181.29-209.51,151.03-75.99-8.28-30.54-116.56-83.81-151.03C-31.56,121.01,51.26,53.3,120.43,24.69c104.32-43.15,226.99-45.52,185.09,124.63Z"/><text class="cls-1" transform="translate(23.74 127.32)"><tspan class="cls-6" x="0" y="0">I</tspan><tspan x="2.51" y="0">n 2018</tspan><tspan class="cls-11" x="28.67" y="0"> </tspan><tspan x="30.69" y="0">the</tspan><tspan class="cls-4" x="44.63" y="0">r</tspan><tspan x="47.76" y="0">e</tspan><tspan class="cls-4" x="52.97" y="0"> </tspan><tspan class="cls-6" x="54.98" y="0">w</tspan><tspan x="61.83" y="0">e</tspan><tspan class="cls-4" x="67.04" y="0">r</tspan><tspan x="70.17" y="0">e 2</tspan><tspan class="cls-7" x="82.57" y="0">0</tspan><tspan x="88.04" y="0">.2 pe</tspan><tspan class="cls-3" x="108.39" y="0">r</tspan><tspan x="111.45" y="0" xml:space="preserve"> 10</tspan><tspan class="cls-7" x="122.15" y="0">0,</tspan><tspan x="129.78" y="0">000 deaths</tspan><tspan x="0" y="10.8">because </tspan><tspan class="cls-8" x="38.64" y="10.8">o</tspan><tspan class="cls-14" x="44.02" y="10.8">f</tspan><tspan x="47.09" y="10.8"> </tspan><tspan class="cls-10" x="49.26" y="10.8">D</tspan><tspan x="55.7" y="10.8">iab</tspan><tspan class="cls-9" x="69.28" y="10.8">et</tspan><tspan x="77.8" y="10.8">es.</tspan></text><text class="cls-1" transform="translate(204.39 51.01)"><tspan class="cls-13" x="0" y="0">f</tspan><tspan x="3.19" y="0">emale death </tspan><tspan class="cls-12" x="59.1" y="0">r</tspan><tspan x="62.24" y="0">a</tspan><tspan class="cls-9" x="67.91" y="0">t</tspan><tspan x="71.28" y="0">e: </tspan><tspan x="0" y="10.8">13</tspan><tspan class="cls-7" x="8.14" y="10.8">.</tspan><tspan x="10.27" y="10.8">087</tspan></text><text class="cls-1" transform="translate(116.88 261.84)"><tspan x="0" y="0">male death </tspan><tspan class="cls-11" x="50.71" y="0">r</tspan><tspan x="53.85" y="0">a</tspan><tspan class="cls-5" x="59.52" y="0">t</tspan><tspan x="62.88" y="0">e: 16.855</tspan></text><line class="cls-15" x1="246.46" y1="74.63" x2="134.51" y2="108.13"/><line class="cls-15" x1="143.46" y1="241.72" x2="107.31" y2="155.41"/></g></svg>