<?xml version="1.0" encoding="UTF-8"?><svg id="_图层_2" xmlns="http://www.w3.org/2000/svg" viewBox="0 0 349.19 349.48"><defs><style>.cls-1{fill:#fff;}.cls-2{fill:none;stroke:#241f20;stroke-miterlimit:10;stroke-width:.5px;}</style></defs><g id="_图层_1-2"><path class="cls-1" d="m347.41,170.13c15.81,152.06-76.03,93.35-182.93,170.13C99.95,386.62-12.43,246.92,1.12,170.13,17.45,77.6,63.45,0,164.48,0s173.21,76.67,182.93,170.13Z"/><path d="m62.05,261.79v-7.1h.93v7.1h-.93Z"/><path d="m64.71,261.79v-5h.86v.77c.34-.58.87-.87,1.59-.87.57,0,1.02.18,1.37.55s.52.86.52,1.47v3.08h-.85v-2.95c0-.42-.11-.75-.32-.99-.21-.24-.5-.37-.86-.37-.41,0-.76.16-1.04.49s-.42.77-.42,1.34v2.48h-.86Z"/><path d="m77.29,260.96v.83h-4.6v-.34c0-.25.04-.48.12-.71.08-.22.16-.41.25-.56.09-.15.24-.33.44-.52s.36-.33.47-.42.3-.23.57-.42.44-.31.53-.38c.47-.35.8-.64.99-.88.18-.24.27-.55.27-.94s-.12-.67-.36-.9c-.24-.22-.55-.33-.94-.33-.41,0-.75.12-1.04.37-.29.25-.43.59-.43,1.03h-.88c0-.67.22-1.21.66-1.62.44-.41,1-.62,1.68-.62.63,0,1.15.18,1.56.54.42.36.62.87.62,1.54,0,.51-.12.94-.37,1.29-.25.36-.67.75-1.27,1.19-.11.08-.27.19-.48.33-.21.14-.37.26-.48.35-.11.09-.24.19-.38.31-.14.12-.24.25-.32.39-.08.14-.13.28-.17.44h3.54Z"/><path d="m80.89,261.89c-.74,0-1.34-.25-1.81-.75s-.7-1.14-.7-1.92v-1.98c0-.79.24-1.43.71-1.93.47-.5,1.07-.75,1.81-.75s1.34.25,1.81.75.71,1.14.71,1.92v1.98c0,.79-.24,1.43-.71,1.92s-1.08.75-1.81.75Zm0-.84c.49,0,.89-.16,1.2-.49s.46-.77.46-1.34v-1.98c0-.57-.15-1.01-.46-1.34s-.71-.49-1.2-.49-.88.16-1.19.49-.46.77-.46,1.34v1.98c0,.57.15,1.01.46,1.34s.7.49,1.19.49Z"/><path d="m89.1,260.96v.83h-4.6v-.34c0-.25.04-.48.12-.71.08-.22.16-.41.25-.56.09-.15.24-.33.44-.52s.36-.33.47-.42.3-.23.57-.42.44-.31.53-.38c.47-.35.8-.64.99-.88.18-.24.27-.55.27-.94s-.12-.67-.36-.9c-.24-.22-.55-.33-.94-.33-.41,0-.75.12-1.04.37-.29.25-.43.59-.43,1.03h-.88c0-.67.22-1.21.66-1.62.44-.41,1-.62,1.68-.62.63,0,1.15.18,1.56.54.42.36.62.87.62,1.54,0,.51-.12.94-.37,1.29-.25.36-.67.75-1.27,1.19-.11.08-.27.19-.48.33-.21.14-.37.26-.48.35-.11.09-.24.19-.38.31-.14.12-.24.25-.32.39-.08.14-.13.28-.17.44h3.54Z"/><path d="m92.7,261.89c-.74,0-1.34-.25-1.81-.75s-.7-1.14-.7-1.92v-1.98c0-.79.24-1.43.71-1.93.47-.5,1.07-.75,1.81-.75s1.34.25,1.81.75.71,1.14.71,1.92v1.98c0,.79-.24,1.43-.71,1.92s-1.08.75-1.81.75Zm0-.84c.49,0,.89-.16,1.2-.49s.46-.77.46-1.34v-1.98c0-.57-.15-1.01-.46-1.34s-.71-.49-1.2-.49-.88.16-1.19.49-.46.77-.46,1.34v1.98c0,.57.15,1.01.46,1.34s.7.49,1.19.49Z"/><path d="m100.81,261.84c-.46,0-.83-.13-1.11-.39-.28-.26-.42-.64-.42-1.14v-2.73h-1.06v-.79h1.06v-1.39h.86v1.39h1.44v.79h-1.44v2.62c0,.31.07.53.2.66.13.13.34.19.63.19.25,0,.46-.03.61-.1v.77c-.24.08-.5.12-.77.12Z"/><path d="m103.54,261.79h-.86v-7.5h.86v3.27c.34-.58.87-.87,1.59-.87.57,0,1.02.18,1.37.55s.52.86.52,1.47v3.08h-.85v-2.95c0-.42-.11-.75-.32-.99-.21-.24-.5-.37-.86-.37-.41,0-.76.16-1.04.49s-.42.77-.42,1.34v2.48Z"/><path d="m110.7,261.89c-.73,0-1.33-.25-1.81-.74-.48-.49-.71-1.11-.71-1.86s.23-1.38.7-1.87c.46-.49,1.08-.73,1.84-.73s1.38.27,1.82.82c.44.55.63,1.22.58,2.01h-4.07c.01.45.18.83.5,1.14.32.3.71.45,1.16.45.68,0,1.16-.28,1.45-.84h.88c-.13.47-.4.85-.81,1.16s-.92.46-1.53.46Zm.98-4.08c-.27-.24-.6-.35-.99-.35s-.73.12-1.04.35c-.3.23-.49.58-.56,1.04h3.12c-.08-.45-.26-.8-.53-1.03Z"/><path d="m114.36,261.79v-5h.86v.97c.09-.31.28-.55.54-.74.27-.19.55-.28.86-.28.15,0,.28.01.39.04v.89c-.12-.05-.28-.08-.47-.08-.35,0-.65.15-.92.45s-.4.72-.4,1.27v2.48h-.86Z"/><path d="m119.97,261.89c-.73,0-1.33-.25-1.81-.74-.48-.49-.71-1.11-.71-1.86s.23-1.38.7-1.87c.46-.49,1.08-.73,1.84-.73s1.38.27,1.82.82c.44.55.63,1.22.58,2.01h-4.07c.01.45.18.83.5,1.14.32.3.71.45,1.16.45.68,0,1.16-.28,1.45-.84h.88c-.13.47-.4.85-.81,1.16s-.92.46-1.53.46Zm.98-4.08c-.27-.24-.6-.35-.99-.35s-.73.12-1.04.35c-.3.23-.49.58-.56,1.04h3.12c-.08-.45-.26-.8-.53-1.03Z"/><path d="m130.1,261.79l-1.24-3.59-1.23,3.59h-.76l-1.7-5h.9l1.21,3.65,1.25-3.65h.66l1.25,3.65,1.21-3.65h.91l-1.7,5h-.76Z"/><path d="m135.6,261.89c-.73,0-1.33-.25-1.81-.74-.48-.49-.71-1.11-.71-1.86s.23-1.38.7-1.87c.46-.49,1.08-.73,1.84-.73s1.38.27,1.82.82c.44.55.63,1.22.58,2.01h-4.07c.01.45.18.83.5,1.14.32.3.71.45,1.16.45.68,0,1.16-.28,1.45-.84h.88c-.13.47-.4.85-.81,1.16s-.92.46-1.53.46Zm.98-4.08c-.27-.24-.6-.35-.99-.35s-.73.12-1.04.35c-.3.23-.49.58-.56,1.04h3.12c-.08-.45-.26-.8-.53-1.03Z"/><path d="m139.26,261.79v-5h.86v.97c.09-.31.28-.55.54-.74.27-.19.55-.28.86-.28.15,0,.28.01.39.04v.89c-.12-.05-.28-.08-.47-.08-.35,0-.65.15-.92.45s-.4.72-.4,1.27v2.48h-.86Z"/><path d="m144.87,261.89c-.73,0-1.33-.25-1.81-.74-.48-.49-.71-1.11-.71-1.86s.23-1.38.7-1.87c.46-.49,1.08-.73,1.84-.73s1.38.27,1.82.82c.44.55.63,1.22.58,2.01h-4.07c.01.45.18.83.5,1.14.32.3.71.45,1.16.45.68,0,1.16-.28,1.45-.84h.88c-.13.47-.4.85-.81,1.16s-.92.46-1.53.46Zm.98-4.08c-.27-.24-.6-.35-.99-.35s-.73.12-1.04.35c-.3.23-.49.58-.56,1.04h3.12c-.08-.45-.26-.8-.53-1.03Z"/><path d="m155.22,260.96v.83h-4.6v-.34c0-.25.04-.48.12-.71.08-.22.16-.41.25-.56.09-.15.24-.33.44-.52s.36-.33.47-.42.3-.23.57-.42.44-.31.53-.38c.47-.35.8-.64.99-.88.18-.24.27-.55.27-.94s-.12-.67-.36-.9c-.24-.22-.55-.33-.94-.33-.41,0-.75.12-1.04.37-.29.25-.43.59-.43,1.03h-.88c0-.67.22-1.21.66-1.62.44-.41,1-.62,1.68-.62.63,0,1.15.18,1.56.54.42.36.62.87.62,1.54,0,.51-.12.94-.37,1.29-.25.36-.67.75-1.27,1.19-.11.08-.27.19-.48.33-.21.14-.37.26-.48.35-.11.09-.24.19-.38.31-.14.12-.24.25-.32.39-.08.14-.13.28-.17.44h3.54Z"/><path d="m157.16,261.79v-6.25h-1.37l.7-.85h1.53v7.1h-.86Z"/><path d="m160.41,261.79v-6.25h-1.37l.7-.85h1.53v7.1h-.86Z"/><path d="m164,261.65c-.14.15-.32.22-.53.22s-.38-.07-.52-.22c-.14-.15-.22-.32-.22-.53s.07-.38.22-.52c.15-.15.32-.23.52-.23s.37.07.52.23c.15.15.22.32.22.52s-.07.38-.21.53Z"/><path d="m167.59,261.89c-.69,0-1.27-.21-1.72-.63-.45-.42-.67-.95-.67-1.6,0-.87.37-1.48,1.12-1.85-.49-.35-.73-.82-.73-1.41,0-.53.19-.97.56-1.31.38-.34.86-.52,1.44-.52s1.06.17,1.43.52c.37.34.55.78.55,1.31,0,.6-.24,1.07-.72,1.41.74.37,1.11.98,1.11,1.85,0,.65-.22,1.18-.67,1.6-.44.42-1.02.63-1.71.63Zm0-.82c.47,0,.83-.13,1.1-.4.27-.27.41-.6.41-1.01s-.13-.75-.41-1.02c-.27-.27-.64-.4-1.1-.4s-.82.13-1.1.4c-.28.27-.42.61-.42,1.02s.14.73.42,1c.28.27.65.4,1.1.4Zm0-3.6c.35,0,.62-.1.83-.31.21-.2.31-.45.31-.75s-.1-.56-.3-.75c-.2-.19-.48-.29-.83-.29s-.62.1-.83.29c-.21.2-.32.45-.32.75s.11.53.32.74c.21.21.49.31.83.31Z"/><path d="m174.52,263.88h-.86v-7.09h.86v.77c.17-.25.42-.46.74-.62.32-.16.66-.25,1.02-.25.69,0,1.28.25,1.75.76.47.51.71,1.12.71,1.84s-.24,1.33-.71,1.84c-.47.51-1.05.76-1.75.76-.37,0-.71-.08-1.02-.25-.32-.16-.56-.37-.74-.62v2.86Zm.41-3.3c.32.35.73.52,1.22.52s.9-.17,1.22-.52c.32-.35.48-.78.48-1.29s-.16-.94-.48-1.29c-.32-.35-.73-.52-1.22-.52s-.9.17-1.22.52-.48.78-.48,1.29.16.94.48,1.29Z"/><path d="m182.1,261.89c-.73,0-1.33-.25-1.81-.74-.48-.49-.71-1.11-.71-1.86s.23-1.38.7-1.87c.46-.49,1.08-.73,1.84-.73s1.38.27,1.82.82c.44.55.63,1.22.58,2.01h-4.07c.01.45.18.83.5,1.14.32.3.71.45,1.16.45.68,0,1.16-.28,1.45-.84h.88c-.13.47-.4.85-.81,1.16s-.92.46-1.53.46Zm.98-4.08c-.27-.24-.6-.35-.99-.35s-.73.12-1.04.35c-.3.23-.49.58-.56,1.04h3.12c-.08-.45-.26-.8-.53-1.03Z"/><path d="m185.76,261.79v-5h.86v.97c.09-.31.28-.55.54-.74.27-.19.55-.28.86-.28.15,0,.28.01.39.04v.89c-.12-.05-.28-.08-.47-.08-.35,0-.65.15-.92.45s-.4.72-.4,1.27v2.48h-.86Z"/><path d="m192.22,261.79v-6.25h-1.37l.7-.85h1.53v7.1h-.86Z"/><path d="m197.13,261.89c-.74,0-1.34-.25-1.81-.75s-.7-1.14-.7-1.92v-1.98c0-.79.24-1.43.71-1.93.47-.5,1.07-.75,1.81-.75s1.34.25,1.81.75.71,1.14.71,1.92v1.98c0,.79-.24,1.43-.71,1.92s-1.08.75-1.81.75Zm0-.84c.49,0,.89-.16,1.2-.49s.46-.77.46-1.34v-1.98c0-.57-.15-1.01-.46-1.34s-.71-.49-1.2-.49-.88.16-1.19.49-.46.77-.46,1.34v1.98c0,.57.15,1.01.46,1.34s.7.49,1.19.49Z"/><path d="m203.36,261.89c-.74,0-1.34-.25-1.81-.75s-.7-1.14-.7-1.92v-1.98c0-.79.24-1.43.71-1.93.47-.5,1.07-.75,1.81-.75s1.34.25,1.81.75.71,1.14.71,1.92v1.98c0,.79-.24,1.43-.71,1.92s-1.08.75-1.81.75Zm0-.84c.49,0,.89-.16,1.2-.49s.46-.77.46-1.34v-1.98c0-.57-.15-1.01-.46-1.34s-.71-.49-1.2-.49-.88.16-1.19.49-.46.77-.46,1.34v1.98c0,.57.15,1.01.46,1.34s.7.49,1.19.49Z"/><path d="m208.2,261.57l-1.03,1.65h-.57l.67-1.43c-.27-.13-.41-.36-.41-.67,0-.2.07-.38.22-.52.15-.15.32-.23.52-.23s.37.07.52.23c.15.15.22.32.22.52,0,.15-.05.3-.14.45Z"/><path d="m211.83,261.89c-.74,0-1.34-.25-1.81-.75s-.7-1.14-.7-1.92v-1.98c0-.79.24-1.43.71-1.93.47-.5,1.07-.75,1.81-.75s1.34.25,1.81.75.71,1.14.71,1.92v1.98c0,.79-.24,1.43-.71,1.92s-1.08.75-1.81.75Zm0-.84c.49,0,.89-.16,1.2-.49s.46-.77.46-1.34v-1.98c0-.57-.15-1.01-.46-1.34s-.71-.49-1.2-.49-.88.16-1.19.49-.46.77-.46,1.34v1.98c0,.57.15,1.01.46,1.34s.7.49,1.19.49Z"/><path d="m218.06,261.89c-.74,0-1.34-.25-1.81-.75s-.7-1.14-.7-1.92v-1.98c0-.79.24-1.43.71-1.93.47-.5,1.07-.75,1.81-.75s1.34.25,1.81.75.71,1.14.71,1.92v1.98c0,.79-.24,1.43-.71,1.92s-1.08.75-1.81.75Zm0-.84c.49,0,.89-.16,1.2-.49s.46-.77.46-1.34v-1.98c0-.57-.15-1.01-.46-1.34s-.71-.49-1.2-.49-.88.16-1.19.49-.46.77-.46,1.34v1.98c0,.57.15,1.01.46,1.34s.7.49,1.19.49Z"/><path d="m224.29,261.89c-.74,0-1.34-.25-1.81-.75s-.7-1.14-.7-1.92v-1.98c0-.79.24-1.43.71-1.93.47-.5,1.07-.75,1.81-.75s1.34.25,1.81.75.71,1.14.71,1.92v1.98c0,.79-.24,1.43-.71,1.92s-1.08.75-1.81.75Zm0-.84c.49,0,.89-.16,1.2-.49s.46-.77.46-1.34v-1.98c0-.57-.15-1.01-.46-1.34s-.71-.49-1.2-.49-.88.16-1.19.49-.46.77-.46,1.34v1.98c0,.57.15,1.01.46,1.34s.7.49,1.19.49Z"/><path d="m232.69,261.89c-.69,0-1.28-.25-1.75-.76-.47-.51-.71-1.12-.71-1.84s.24-1.33.71-1.84c.47-.51,1.05-.76,1.75-.76.37,0,.71.08,1.02.25.32.16.56.37.74.62v-3.27h.86v7.5h-.86v-.77c-.17.25-.42.46-.74.62-.32.16-.66.25-1.02.25Zm.13-.79c.49,0,.9-.17,1.22-.52.32-.35.48-.78.48-1.29s-.16-.94-.48-1.29c-.32-.35-.73-.52-1.22-.52s-.91.17-1.23.52c-.32.35-.48.78-.48,1.29s.16.94.48,1.29c.32.35.73.52,1.23.52Z"/><path d="m239.06,261.89c-.73,0-1.33-.25-1.81-.74-.48-.49-.71-1.11-.71-1.86s.23-1.38.7-1.87c.46-.49,1.08-.73,1.84-.73s1.38.27,1.82.82c.44.55.63,1.22.58,2.01h-4.07c.01.45.18.83.5,1.14.32.3.71.45,1.16.45.68,0,1.16-.28,1.45-.84h.88c-.13.47-.4.85-.81,1.16s-.92.46-1.53.46Zm.98-4.08c-.27-.24-.6-.35-.99-.35s-.73.12-1.04.35c-.3.23-.49.58-.56,1.04h3.12c-.08-.45-.26-.8-.53-1.03Z"/><path d="m244.78,261.89c-.69,0-1.28-.25-1.75-.76-.47-.51-.71-1.12-.71-1.84s.24-1.33.71-1.84c.47-.51,1.05-.76,1.75-.76.37,0,.71.08,1.02.25.32.16.56.37.74.62v-.77h.86v5h-.86v-.77c-.17.25-.42.46-.74.62-.32.16-.66.25-1.02.25Zm.13-.79c.49,0,.9-.17,1.22-.52.32-.35.48-.78.48-1.29s-.16-.94-.48-1.29c-.32-.35-.73-.52-1.22-.52s-.91.17-1.23.52c-.32.35-.48.78-.48,1.29s.16.94.48,1.29c.32.35.73.52,1.23.52Z"/><path d="m250.96,261.84c-.46,0-.83-.13-1.11-.39-.28-.26-.42-.64-.42-1.14v-2.73h-1.06v-.79h1.06v-1.39h.86v1.39h1.44v.79h-1.44v2.62c0,.31.07.53.2.66.13.13.34.19.63.19.25,0,.46-.03.61-.1v.77c-.24.08-.5.12-.77.12Z"/><path d="m253.69,261.79h-.86v-7.5h.86v3.27c.34-.58.87-.87,1.59-.87.57,0,1.02.18,1.37.55s.52.86.52,1.47v3.08h-.85v-2.95c0-.42-.11-.75-.32-.99-.21-.24-.5-.37-.86-.37-.41,0-.76.16-1.04.49s-.42.77-.42,1.34v2.48Z"/><path d="m260.33,261.89c-.56,0-1.03-.14-1.41-.41-.38-.27-.58-.65-.62-1.14h.88c.05.28.19.49.41.62s.47.2.75.2.52-.06.7-.17.26-.28.26-.49c0-.2-.06-.36-.19-.49-.13-.13-.34-.23-.64-.31l-.72-.19c-.86-.23-1.29-.72-1.29-1.47,0-.41.16-.73.49-.98s.74-.37,1.25-.37.93.14,1.26.41.51.61.55,1.02h-.86c-.07-.22-.19-.39-.36-.52s-.37-.19-.6-.19c-.25,0-.45.06-.62.17s-.25.26-.25.45.06.33.18.44c.12.11.31.21.58.28l.8.21c.85.21,1.28.71,1.28,1.48,0,.48-.17.84-.51,1.08-.34.24-.78.37-1.33.37Z"/><path d="m64.54,273.89c-.37,0-.71-.08-1.02-.25-.32-.16-.56-.37-.74-.62v.77h-.86v-7.5h.86v3.27c.17-.25.42-.46.74-.62.32-.16.66-.25,1.02-.25.69,0,1.28.25,1.75.76.47.51.71,1.12.71,1.84s-.24,1.33-.71,1.84c-.47.51-1.05.76-1.75.76Zm-1.35-1.31c.32.35.73.52,1.22.52s.9-.17,1.22-.52c.32-.35.48-.78.48-1.29s-.16-.94-.48-1.29c-.32-.35-.73-.52-1.22-.52s-.9.17-1.22.52-.48.78-.48,1.29.16.94.48,1.29Z"/><path d="m70.35,273.89c-.73,0-1.33-.25-1.81-.74-.48-.49-.71-1.11-.71-1.86s.23-1.38.7-1.87c.46-.49,1.08-.73,1.84-.73s1.38.27,1.82.82c.44.55.63,1.22.58,2.01h-4.07c.01.45.18.83.5,1.14.32.3.71.45,1.16.45.68,0,1.16-.28,1.45-.84h.88c-.13.47-.4.85-.81,1.16s-.92.46-1.53.46Zm.98-4.08c-.27-.24-.6-.35-.99-.35s-.73.12-1.04.35c-.3.23-.49.58-.56,1.04h3.12c-.08-.45-.26-.8-.53-1.03Z"/><path d="m76.23,273.89c-.75,0-1.38-.25-1.87-.75s-.74-1.12-.74-1.85.25-1.34.74-1.85c.49-.5,1.12-.75,1.87-.75.62,0,1.16.17,1.61.52.45.34.76.79.91,1.34h-.92c-.12-.33-.32-.59-.6-.78-.28-.19-.61-.29-1-.29-.51,0-.93.17-1.25.52-.32.35-.49.78-.49,1.29s.16.94.49,1.29c.32.35.74.52,1.25.52.39,0,.72-.1,1-.29.28-.19.48-.45.6-.78h.92c-.15.55-.45,1-.9,1.34-.45.34-.99.52-1.62.52Z"/><path d="m81.95,273.89c-.69,0-1.28-.25-1.75-.76-.47-.51-.71-1.12-.71-1.84s.24-1.33.71-1.84c.47-.51,1.05-.76,1.75-.76.37,0,.71.08,1.02.25.32.16.56.37.74.62v-.77h.86v5h-.86v-.77c-.17.25-.42.46-.74.62-.32.16-.66.25-1.02.25Zm.13-.79c.49,0,.9-.17,1.22-.52.32-.35.48-.78.48-1.29s-.16-.94-.48-1.29c-.32-.35-.73-.52-1.22-.52s-.91.17-1.23.52c-.32.35-.48.78-.48,1.29s.16.94.48,1.29c.32.35.73.52,1.23.52Z"/><path d="m87.96,273.89c-.55,0-.99-.19-1.33-.56s-.51-.86-.51-1.48v-3.07h.86v2.94c0,.42.1.75.31,1,.2.25.48.37.83.37.4,0,.73-.17.99-.5.26-.33.4-.77.4-1.33v-2.48h.86v5h-.86v-.77c-.33.58-.84.87-1.54.87Z"/><path d="m93.59,273.89c-.56,0-1.03-.14-1.41-.41-.38-.27-.58-.65-.62-1.14h.88c.05.28.19.49.41.62s.47.2.75.2.52-.06.7-.17.26-.28.26-.49c0-.2-.06-.36-.19-.49-.13-.13-.34-.23-.64-.31l-.72-.19c-.86-.23-1.29-.72-1.29-1.47,0-.41.16-.73.49-.98s.74-.37,1.25-.37.93.14,1.26.41.51.61.55,1.02h-.86c-.07-.22-.19-.39-.36-.52s-.37-.19-.6-.19c-.25,0-.45.06-.62.17s-.25.26-.25.45.06.33.18.44c.12.11.31.21.58.28l.8.21c.85.21,1.28.71,1.28,1.48,0,.48-.17.84-.51,1.08-.34.24-.78.37-1.33.37Z"/><path d="m98.78,273.89c-.73,0-1.33-.25-1.81-.74-.48-.49-.71-1.11-.71-1.86s.23-1.38.7-1.87c.46-.49,1.08-.73,1.84-.73s1.38.27,1.82.82c.44.55.63,1.22.58,2.01h-4.07c.01.45.18.83.5,1.14.32.3.71.45,1.16.45.68,0,1.16-.28,1.45-.84h.88c-.13.47-.4.85-.81,1.16s-.92.46-1.53.46Zm.98-4.08c-.27-.24-.6-.35-.99-.35s-.73.12-1.04.35c-.3.23-.49.58-.56,1.04h3.12c-.08-.45-.26-.8-.53-1.03Z"/><path d="m107.07,273.89c-.75,0-1.38-.25-1.88-.75-.5-.5-.75-1.12-.75-1.85s.25-1.34.75-1.85c.5-.5,1.12-.75,1.88-.75s1.37.25,1.86.75c.5.5.75,1.12.75,1.85s-.25,1.34-.75,1.85c-.5.5-1.12.75-1.86.75Zm-1.25-1.32c.32.35.74.52,1.25.52s.93-.17,1.25-.52c.32-.35.48-.77.48-1.28s-.16-.93-.48-1.28c-.32-.35-.74-.52-1.25-.52s-.93.17-1.25.52c-.32.35-.49.77-.49,1.28s.16.93.49,1.28Z"/><path d="m111.25,273.79v-4.21h-1.06v-.79h1.06v-1.01c0-.5.14-.88.42-1.15.28-.27.65-.4,1.11-.4.27,0,.53.04.78.13v.76c-.15-.07-.36-.1-.62-.1-.29,0-.5.06-.63.19-.13.13-.2.35-.2.66v.92h1.45v.79h-1.45v4.21h-.86Z"/><path d="m116.78,273.79v-7.1h.93v3.03h3.89v-3.03h.93v7.1h-.93v-3.2h-3.89v3.2h-.93Z"/><path d="m126.32,273.89c-.73,0-1.33-.25-1.81-.74-.48-.49-.71-1.11-.71-1.86s.23-1.38.7-1.87c.46-.49,1.08-.73,1.84-.73s1.38.27,1.82.82c.44.55.63,1.22.58,2.01h-4.07c.01.45.18.83.5,1.14.32.3.71.45,1.16.45.68,0,1.16-.28,1.45-.84h.88c-.13.47-.4.85-.81,1.16s-.92.46-1.53.46Zm.98-4.08c-.27-.24-.6-.35-.99-.35s-.73.12-1.04.35c-.3.23-.49.58-.56,1.04h3.12c-.08-.45-.26-.8-.53-1.03Z"/><path d="m132.04,273.89c-.69,0-1.28-.25-1.75-.76-.47-.51-.71-1.12-.71-1.84s.24-1.33.71-1.84c.47-.51,1.05-.76,1.75-.76.37,0,.71.08,1.02.25.32.16.56.37.74.62v-.77h.86v5h-.86v-.77c-.17.25-.42.46-.74.62-.32.16-.66.25-1.02.25Zm.13-.79c.49,0,.9-.17,1.22-.52.32-.35.48-.78.48-1.29s-.16-.94-.48-1.29c-.32-.35-.73-.52-1.22-.52s-.91.17-1.23.52c-.32.35-.48.78-.48,1.29s.16.94.48,1.29c.32.35.73.52,1.23.52Z"/><path d="m136.28,273.79v-5h.86v.97c.09-.31.28-.55.54-.74.27-.19.55-.28.86-.28.15,0,.28.01.39.04v.89c-.12-.05-.28-.08-.47-.08-.35,0-.65.15-.92.45s-.4.72-.4,1.27v2.48h-.86Z"/><path d="m141.88,273.84c-.46,0-.83-.13-1.11-.39-.28-.26-.42-.64-.42-1.14v-2.73h-1.06v-.79h1.06v-1.39h.86v1.39h1.44v.79h-1.44v2.62c0,.31.07.53.2.66.13.13.34.19.63.19.25,0,.46-.03.61-.1v.77c-.24.08-.5.12-.77.12Z"/><path d="m146.29,273.79v-7.1h2.04c1.09,0,1.99.34,2.7,1.01.72.67,1.08,1.52,1.08,2.54s-.36,1.87-1.08,2.54c-.72.67-1.62,1.01-2.7,1.01h-2.04Zm.93-.87h1.11c.85,0,1.53-.25,2.05-.75s.79-1.15.79-1.92-.26-1.42-.79-1.93-1.21-.75-2.05-.75h-1.11v5.36Z"/><path d="m154.19,267.27c-.11.12-.26.18-.43.18s-.32-.06-.44-.18c-.12-.12-.18-.26-.18-.44s.06-.31.18-.43c.12-.12.27-.18.44-.18s.32.06.43.18.17.26.17.43-.06.32-.17.44Zm-.87,6.52v-5h.86v5h-.86Z"/><path d="m157.42,273.89c-.56,0-1.03-.14-1.41-.41-.38-.27-.58-.65-.62-1.14h.88c.05.28.19.49.41.62s.47.2.75.2.52-.06.7-.17.26-.28.26-.49c0-.2-.06-.36-.19-.49-.13-.13-.34-.23-.64-.31l-.72-.19c-.86-.23-1.29-.72-1.29-1.47,0-.41.16-.73.49-.98s.74-.37,1.25-.37.93.14,1.26.41.51.61.55,1.02h-.86c-.07-.22-.19-.39-.36-.52s-.37-.19-.6-.19c-.25,0-.45.06-.62.17s-.25.26-.25.45.06.33.18.44c.12.11.31.21.58.28l.8.21c.85.21,1.28.71,1.28,1.48,0,.48-.17.84-.51,1.08-.34.24-.78.37-1.33.37Z"/><path d="m162.61,273.89c-.73,0-1.33-.25-1.81-.74-.48-.49-.71-1.11-.71-1.86s.23-1.38.7-1.87c.46-.49,1.08-.73,1.84-.73s1.38.27,1.82.82c.44.55.63,1.22.58,2.01h-4.07c.01.45.18.83.5,1.14.32.3.71.45,1.16.45.68,0,1.16-.28,1.45-.84h.88c-.13.47-.4.85-.81,1.16s-.92.46-1.53.46Zm.98-4.08c-.27-.24-.6-.35-.99-.35s-.73.12-1.04.35c-.3.23-.49.58-.56,1.04h3.12c-.08-.45-.26-.8-.53-1.03Z"/><path d="m168.33,273.89c-.69,0-1.28-.25-1.75-.76-.47-.51-.71-1.12-.71-1.84s.24-1.33.71-1.84c.47-.51,1.05-.76,1.75-.76.37,0,.71.08,1.02.25.32.16.56.37.74.62v-.77h.86v5h-.86v-.77c-.17.25-.42.46-.74.62-.32.16-.66.25-1.02.25Zm.13-.79c.49,0,.9-.17,1.22-.52.32-.35.48-.78.48-1.29s-.16-.94-.48-1.29c-.32-.35-.73-.52-1.22-.52s-.91.17-1.23.52c-.32.35-.48.78-.48,1.29s.16.94.48,1.29c.32.35.73.52,1.23.52Z"/><path d="m174.18,273.89c-.56,0-1.03-.14-1.41-.41-.38-.27-.58-.65-.62-1.14h.88c.05.28.19.49.41.62s.47.2.75.2.52-.06.7-.17.26-.28.26-.49c0-.2-.06-.36-.19-.49-.13-.13-.34-.23-.64-.31l-.72-.19c-.86-.23-1.29-.72-1.29-1.47,0-.41.16-.73.49-.98s.74-.37,1.25-.37.93.14,1.26.41.51.61.55,1.02h-.86c-.07-.22-.19-.39-.36-.52s-.37-.19-.6-.19c-.25,0-.45.06-.62.17s-.25.26-.25.45.06.33.18.44c.12.11.31.21.58.28l.8.21c.85.21,1.28.71,1.28,1.48,0,.48-.17.84-.51,1.08-.34.24-.78.37-1.33.37Z"/><path d="m179.37,273.89c-.73,0-1.33-.25-1.81-.74-.48-.49-.71-1.11-.71-1.86s.23-1.38.7-1.87c.46-.49,1.08-.73,1.84-.73s1.38.27,1.82.82c.44.55.63,1.22.58,2.01h-4.07c.01.45.18.83.5,1.14.32.3.71.45,1.16.45.68,0,1.16-.28,1.45-.84h.88c-.13.47-.4.85-.81,1.16s-.92.46-1.53.46Zm.98-4.08c-.27-.24-.6-.35-.99-.35s-.73.12-1.04.35c-.3.23-.49.58-.56,1.04h3.12c-.08-.45-.26-.8-.53-1.03Z"/><path d="m184.01,273.65c-.14.15-.32.22-.53.22s-.38-.07-.52-.22c-.14-.15-.22-.32-.22-.53s.07-.38.22-.52c.15-.15.32-.23.52-.23s.37.07.52.23c.15.15.22.32.22.52s-.07.38-.21.53Z"/><line class="cls-2" x1="132.37" y1="83.03" x2="166.24" y2="234.47"/><line class="cls-2" x1="223.39" y1="239.65" x2="267.59" y2="165.37"/><path d="m82.34,63.59v-6.25h-1.37l.7-.85h1.53v7.1h-.86Z"/><path d="m87.11,63.69c-.71,0-1.3-.22-1.79-.65-.49-.43-.73-.97-.73-1.62h.87c.03.42.2.76.51,1.03.31.26.7.39,1.15.39.41,0,.76-.11,1.03-.34s.41-.54.41-.94c0-.43-.14-.75-.42-.96s-.66-.32-1.13-.32h-.53v-.79h.57c.38,0,.69-.11.93-.32.24-.21.37-.49.38-.83,0-.33-.12-.61-.37-.82s-.55-.32-.92-.32c-.42,0-.77.12-1.06.37-.29.25-.43.59-.43,1.03h-.88c0-.68.23-1.22.68-1.63.45-.41,1.02-.61,1.69-.61.62,0,1.14.18,1.54.54.41.36.62.83.62,1.42,0,.34-.1.65-.27.92-.18.27-.41.48-.69.63.36.15.64.37.85.68.21.3.31.65.31,1.05,0,.62-.22,1.12-.65,1.51-.43.39-.99.58-1.67.58Z"/><path d="m93.05,63.69c-.74,0-1.34-.25-1.81-.75s-.7-1.14-.7-1.92v-1.98c0-.79.24-1.43.71-1.93.47-.5,1.07-.75,1.81-.75s1.34.25,1.81.75.71,1.14.71,1.92v1.98c0,.79-.24,1.43-.71,1.92s-1.08.75-1.81.75Zm0-.84c.49,0,.89-.16,1.2-.49s.46-.77.46-1.34v-1.98c0-.57-.15-1.01-.46-1.34s-.71-.49-1.2-.49-.88.16-1.19.49-.46.77-.46,1.34v1.98c0,.57.15,1.01.46,1.34s.7.49,1.19.49Z"/><path d="m97.8,63.45c-.14.15-.32.22-.53.22s-.38-.07-.52-.22c-.14-.15-.22-.32-.22-.53s.07-.38.22-.52c.15-.15.32-.23.52-.23s.37.07.52.23c.15.15.22.32.22.52s-.07.38-.21.53Z"/><path d="m103.62,62.76v.83h-4.6v-.34c0-.25.04-.48.12-.71.08-.22.16-.41.25-.56.09-.15.24-.33.44-.52s.36-.33.47-.42.3-.23.57-.42.44-.31.53-.38c.47-.35.8-.64.99-.88.18-.24.27-.55.27-.94s-.12-.67-.36-.9c-.24-.22-.55-.33-.94-.33-.41,0-.75.12-1.04.37-.29.25-.43.59-.43,1.03h-.88c0-.67.22-1.21.66-1.62.44-.41,1-.62,1.68-.62.63,0,1.15.18,1.56.54.42.36.62.87.62,1.54,0,.51-.12.94-.37,1.29-.25.36-.67.75-1.27,1.19-.11.08-.27.19-.48.33-.21.14-.37.26-.48.35-.11.09-.24.19-.38.31-.14.12-.24.25-.32.39-.08.14-.13.28-.17.44h3.54Z"/><path d="m108.19,65.68h-.86v-7.09h.86v.77c.17-.25.42-.46.74-.62.32-.16.66-.25,1.02-.25.69,0,1.28.25,1.75.76.47.51.71,1.12.71,1.84s-.24,1.33-.71,1.84c-.47.51-1.05.76-1.75.76-.37,0-.71-.08-1.02-.25-.32-.16-.56-.37-.74-.62v2.86Zm.41-3.3c.32.35.73.52,1.22.52s.9-.17,1.22-.52c.32-.35.48-.78.48-1.29s-.16-.94-.48-1.29c-.32-.35-.73-.52-1.22-.52s-.9.17-1.22.52-.48.78-.48,1.29.16.94.48,1.29Z"/><path d="m115.77,63.69c-.73,0-1.33-.25-1.81-.74-.48-.49-.71-1.11-.71-1.86s.23-1.38.7-1.87c.46-.49,1.08-.73,1.84-.73s1.38.27,1.82.82c.44.55.63,1.22.58,2.01h-4.07c.01.45.18.83.5,1.14.32.3.71.45,1.16.45.68,0,1.16-.28,1.45-.84h.88c-.13.47-.4.85-.81,1.16s-.92.46-1.53.46Zm.98-4.08c-.27-.24-.6-.35-.99-.35s-.73.12-1.04.35c-.3.23-.49.58-.56,1.04h3.12c-.08-.45-.26-.8-.53-1.03Z"/><path d="m119.43,63.59v-5h.86v.97c.09-.31.28-.55.54-.74.27-.19.55-.28.86-.28.15,0,.28.01.39.04v.89c-.12-.05-.28-.08-.47-.08-.35,0-.65.15-.92.45s-.4.72-.4,1.27v2.48h-.86Z"/><path d="m125.89,63.59v-6.25h-1.37l.7-.85h1.53v7.1h-.86Z"/><path d="m130.8,63.69c-.74,0-1.34-.25-1.81-.75s-.7-1.14-.7-1.92v-1.98c0-.79.24-1.43.71-1.93.47-.5,1.07-.75,1.81-.75s1.34.25,1.81.75.71,1.14.71,1.92v1.98c0,.79-.24,1.43-.71,1.92s-1.08.75-1.81.75Zm0-.84c.49,0,.89-.16,1.2-.49s.46-.77.46-1.34v-1.98c0-.57-.15-1.01-.46-1.34s-.71-.49-1.2-.49-.88.16-1.19.49-.46.77-.46,1.34v1.98c0,.57.15,1.01.46,1.34s.7.49,1.19.49Z"/><path d="m137.03,63.69c-.74,0-1.34-.25-1.81-.75s-.7-1.14-.7-1.92v-1.98c0-.79.24-1.43.71-1.93.47-.5,1.07-.75,1.81-.75s1.34.25,1.81.75.71,1.14.71,1.92v1.98c0,.79-.24,1.43-.71,1.92s-1.08.75-1.81.75Zm0-.84c.49,0,.89-.16,1.2-.49s.46-.77.46-1.34v-1.98c0-.57-.15-1.01-.46-1.34s-.71-.49-1.2-.49-.88.16-1.19.49-.46.77-.46,1.34v1.98c0,.57.15,1.01.46,1.34s.7.49,1.19.49Z"/><path d="m141.87,63.37l-1.03,1.65h-.57l.67-1.43c-.27-.13-.41-.36-.41-.67,0-.2.07-.38.22-.52.15-.15.32-.23.52-.23s.37.07.52.23c.15.15.22.32.22.52,0,.15-.05.3-.14.45Z"/><path d="m145.5,63.69c-.74,0-1.34-.25-1.81-.75s-.7-1.14-.7-1.92v-1.98c0-.79.24-1.43.71-1.93.47-.5,1.07-.75,1.81-.75s1.34.25,1.81.75.71,1.14.71,1.92v1.98c0,.79-.24,1.43-.71,1.92s-1.08.75-1.81.75Zm0-.84c.49,0,.89-.16,1.2-.49s.46-.77.46-1.34v-1.98c0-.57-.15-1.01-.46-1.34s-.71-.49-1.2-.49-.88.16-1.19.49-.46.77-.46,1.34v1.98c0,.57.15,1.01.46,1.34s.7.49,1.19.49Z"/><path d="m151.73,63.69c-.74,0-1.34-.25-1.81-.75s-.7-1.14-.7-1.92v-1.98c0-.79.24-1.43.71-1.93.47-.5,1.07-.75,1.81-.75s1.34.25,1.81.75.71,1.14.71,1.92v1.98c0,.79-.24,1.43-.71,1.92s-1.08.75-1.81.75Zm0-.84c.49,0,.89-.16,1.2-.49s.46-.77.46-1.34v-1.98c0-.57-.15-1.01-.46-1.34s-.71-.49-1.2-.49-.88.16-1.19.49-.46.77-.46,1.34v1.98c0,.57.15,1.01.46,1.34s.7.49,1.19.49Z"/><path d="m157.96,63.69c-.74,0-1.34-.25-1.81-.75s-.7-1.14-.7-1.92v-1.98c0-.79.24-1.43.71-1.93.47-.5,1.07-.75,1.81-.75s1.34.25,1.81.75.71,1.14.71,1.92v1.98c0,.79-.24,1.43-.71,1.92s-1.08.75-1.81.75Zm0-.84c.49,0,.89-.16,1.2-.49s.46-.77.46-1.34v-1.98c0-.57-.15-1.01-.46-1.34s-.71-.49-1.2-.49-.88.16-1.19.49-.46.77-.46,1.34v1.98c0,.57.15,1.01.46,1.34s.7.49,1.19.49Z"/><path d="m168.44,63.59l-1.25-3.63-1.24,3.63h-.77l-1.72-5.05h.91l1.22,3.69,1.26-3.69h.67l1.26,3.69,1.22-3.69h.92l-1.72,5.05h-.77Z"/><path d="m174,63.69c-.73,0-1.34-.25-1.82-.75-.48-.5-.72-1.13-.72-1.88s.23-1.39.7-1.89c.47-.5,1.09-.74,1.87-.74s1.4.28,1.84.83c.45.55.64,1.23.59,2.03h-4.12c.01.46.18.84.51,1.15s.71.46,1.17.46c.69,0,1.18-.28,1.47-.85h.89c-.13.47-.4.86-.82,1.17s-.93.46-1.55.46Zm.99-4.13c-.28-.24-.61-.36-1-.36s-.74.12-1.05.35c-.31.24-.5.59-.57,1.05h3.15c-.08-.46-.26-.81-.54-1.05Z"/><path d="m177.7,63.59v-5.05h.87v.98c.09-.31.28-.56.55-.75.27-.19.56-.28.86-.28.15,0,.28.01.39.04v.9c-.12-.05-.28-.08-.48-.08-.35,0-.66.15-.93.45s-.4.73-.4,1.28v2.51h-.87Z"/><path d="m183.37,63.69c-.73,0-1.34-.25-1.82-.75-.48-.5-.72-1.13-.72-1.88s.23-1.39.7-1.89c.47-.5,1.09-.74,1.87-.74s1.4.28,1.84.83c.45.55.64,1.23.59,2.03h-4.12c.01.46.18.84.51,1.15s.71.46,1.17.46c.69,0,1.18-.28,1.47-.85h.89c-.13.47-.4.86-.82,1.17s-.93.46-1.55.46Zm.99-4.13c-.28-.24-.61-.36-1-.36s-.74.12-1.05.35c-.31.24-.5.59-.57,1.05h3.15c-.08-.46-.26-.81-.54-1.05Z"/><path d="m189.8,63.59v-4.26h-1.07v-.8h1.07v-1.02c0-.51.14-.89.42-1.16.28-.27.66-.4,1.12-.4.28,0,.54.04.79.13v.77c-.16-.07-.36-.1-.63-.1-.29,0-.5.06-.64.19-.14.13-.2.35-.2.67v.93h1.47v.8h-1.47v4.26h-.87Z"/><path d="m195.11,63.69c-.73,0-1.34-.25-1.82-.75-.48-.5-.72-1.13-.72-1.88s.23-1.39.7-1.89c.47-.5,1.09-.74,1.87-.74s1.4.28,1.84.83c.45.55.64,1.23.59,2.03h-4.12c.01.46.18.84.51,1.15s.71.46,1.17.46c.69,0,1.18-.28,1.47-.85h.89c-.13.47-.4.86-.82,1.17s-.93.46-1.55.46Zm.99-4.13c-.28-.24-.61-.36-1-.36s-.74.12-1.05.35c-.31.24-.5.59-.57,1.05h3.15c-.08-.46-.26-.81-.54-1.05Z"/><path d="m205.32,63.59v-2.97c0-.42-.09-.75-.26-1.01-.17-.25-.42-.38-.74-.38-.4,0-.73.16-.99.48s-.39.75-.4,1.29v2.59h-.87v-2.97c0-.42-.09-.76-.26-1.01s-.42-.37-.73-.37c-.42,0-.75.17-1.01.5-.26.33-.38.78-.38,1.35v2.51h-.87v-5.05h.87v.78c.32-.59.83-.88,1.53-.88.77,0,1.29.36,1.56,1.08.13-.33.35-.59.65-.79.3-.2.63-.29,1.01-.29.55,0,.98.19,1.29.56.32.37.47.87.47,1.5v3.1h-.87Z"/><path d="m209.84,63.69c-.7,0-1.29-.26-1.76-.77-.48-.51-.71-1.13-.71-1.86s.24-1.35.71-1.86c.47-.51,1.06-.77,1.76-.77.37,0,.72.08,1.04.25.32.17.57.38.74.63v-.78h.87v5.05h-.87v-.78c-.18.26-.42.47-.74.63s-.67.25-1.04.25Zm.13-.8c.5,0,.91-.17,1.23-.53.32-.35.49-.79.49-1.3s-.16-.95-.49-1.3c-.32-.35-.73-.53-1.23-.53s-.92.18-1.24.53c-.32.35-.49.79-.49,1.3s.16.95.49,1.3c.32.35.74.53,1.24.53Z"/><path d="m214.12,63.59v-7.58h.87v7.58h-.87Z"/><path d="m218.79,63.69c-.73,0-1.34-.25-1.82-.75-.48-.5-.72-1.13-.72-1.88s.23-1.39.7-1.89c.47-.5,1.09-.74,1.87-.74s1.4.28,1.84.83c.45.55.64,1.23.59,2.03h-4.12c.01.46.18.84.51,1.15s.71.46,1.17.46c.69,0,1.18-.28,1.47-.85h.89c-.13.47-.4.86-.82,1.17s-.93.46-1.55.46Zm.99-4.13c-.28-.24-.61-.36-1-.36s-.74.12-1.05.35c-.31.24-.5.59-.57,1.05h3.15c-.08-.46-.26-.81-.54-1.05Z"/><path d="m243.51,139.06v.83h-4.6v-.34c0-.25.04-.48.12-.71.08-.22.16-.41.25-.56.09-.15.24-.33.44-.52s.36-.33.47-.42.3-.23.57-.42.44-.31.53-.38c.47-.35.8-.64.99-.88.18-.24.27-.55.27-.94s-.12-.67-.36-.9c-.24-.22-.55-.33-.94-.33-.41,0-.75.12-1.04.37-.29.25-.43.59-.43,1.03h-.88c0-.67.22-1.21.66-1.62.44-.41,1-.62,1.68-.62.63,0,1.15.18,1.56.54.42.36.62.87.62,1.54,0,.51-.12.94-.37,1.29-.25.36-.67.75-1.27,1.19-.11.08-.27.19-.48.33-.21.14-.37.26-.48.35-.11.09-.24.19-.38.31-.14.12-.24.25-.32.39-.08.14-.13.28-.17.44h3.54Z"/><path d="m245.45,139.89v-6.25h-1.37l.7-.85h1.53v7.1h-.86Z"/><path d="m251.2,139.89v-1.93h-3.78v-.69l3.89-4.48h.75v4.36h.98v.81h-.98v1.93h-.86Zm-2.66-2.74h2.66v-3.06l-2.66,3.06Z"/><path d="m255.2,139.75c-.14.15-.32.22-.53.22s-.38-.07-.52-.22c-.14-.15-.22-.32-.22-.53s.07-.38.22-.52c.15-.15.32-.23.52-.23s.37.07.52.23c.15.15.22.32.22.52s-.07.38-.21.53Z"/><path d="m261.03,139.06v.83h-4.6v-.34c0-.25.04-.48.12-.71.08-.22.16-.41.25-.56.09-.15.24-.33.44-.52s.36-.33.47-.42.3-.23.57-.42.44-.31.53-.38c.47-.35.8-.64.99-.88.18-.24.27-.55.27-.94s-.12-.67-.36-.9c-.24-.22-.55-.33-.94-.33-.41,0-.75.12-1.04.37-.29.25-.43.59-.43,1.03h-.88c0-.67.22-1.21.66-1.62.44-.41,1-.62,1.68-.62.63,0,1.15.18,1.56.54.42.36.62.87.62,1.54,0,.51-.12.94-.37,1.29-.25.36-.67.75-1.27,1.19-.11.08-.27.19-.48.33-.21.14-.37.26-.48.35-.11.09-.24.19-.38.31-.14.12-.24.25-.32.39-.08.14-.13.28-.17.44h3.54Z"/><path d="m265.6,141.98h-.86v-7.09h.86v.77c.17-.25.42-.46.74-.62.32-.16.66-.25,1.02-.25.69,0,1.28.25,1.75.76.47.51.71,1.12.71,1.84s-.24,1.33-.71,1.84c-.47.51-1.05.76-1.75.76-.37,0-.71-.08-1.02-.25-.32-.16-.56-.37-.74-.62v2.86Zm.41-3.3c.32.35.73.52,1.22.52s.9-.17,1.22-.52c.32-.35.48-.78.48-1.29s-.16-.94-.48-1.29c-.32-.35-.73-.52-1.22-.52s-.9.17-1.22.52-.48.78-.48,1.29.16.94.48,1.29Z"/><path d="m273.18,139.99c-.73,0-1.33-.25-1.81-.74-.48-.49-.71-1.11-.71-1.86s.23-1.38.7-1.87c.46-.49,1.08-.73,1.84-.73s1.38.27,1.82.82c.44.55.63,1.22.58,2.01h-4.07c.01.45.18.83.5,1.14.32.3.71.45,1.16.45.68,0,1.16-.28,1.45-.84h.88c-.13.47-.4.85-.81,1.16s-.92.46-1.53.46Zm.98-4.08c-.27-.24-.6-.35-.99-.35s-.73.12-1.04.35c-.3.23-.49.58-.56,1.04h3.12c-.08-.45-.26-.8-.53-1.03Z"/><path d="m276.84,139.89v-5h.86v.97c.09-.31.28-.55.54-.74.27-.19.55-.28.86-.28.15,0,.28.01.39.04v.89c-.12-.05-.28-.08-.47-.08-.35,0-.65.15-.92.45s-.4.72-.4,1.27v2.48h-.86Z"/><path d="m283.3,139.89v-6.25h-1.37l.7-.85h1.53v7.1h-.86Z"/><path d="m288.21,139.99c-.74,0-1.34-.25-1.81-.75s-.7-1.14-.7-1.92v-1.98c0-.79.24-1.43.71-1.93.47-.5,1.07-.75,1.81-.75s1.34.25,1.81.75.71,1.14.71,1.92v1.98c0,.79-.24,1.43-.71,1.92s-1.08.75-1.81.75Zm0-.84c.49,0,.89-.16,1.2-.49s.46-.77.46-1.34v-1.98c0-.57-.15-1.01-.46-1.34s-.71-.49-1.2-.49-.88.16-1.19.49-.46.77-.46,1.34v1.98c0,.57.15,1.01.46,1.34s.7.49,1.19.49Z"/><path d="m294.44,139.99c-.74,0-1.34-.25-1.81-.75s-.7-1.14-.7-1.92v-1.98c0-.79.24-1.43.71-1.93.47-.5,1.07-.75,1.81-.75s1.34.25,1.81.75.71,1.14.71,1.92v1.98c0,.79-.24,1.43-.71,1.92s-1.08.75-1.81.75Zm0-.84c.49,0,.89-.16,1.2-.49s.46-.77.46-1.34v-1.98c0-.57-.15-1.01-.46-1.34s-.71-.49-1.2-.49-.88.16-1.19.49-.46.77-.46,1.34v1.98c0,.57.15,1.01.46,1.34s.7.49,1.19.49Z"/><path d="m299.28,139.67l-1.03,1.65h-.57l.67-1.43c-.27-.13-.41-.36-.41-.67,0-.2.07-.38.22-.52.15-.15.32-.23.52-.23s.37.07.52.23c.15.15.22.32.22.52,0,.15-.05.3-.14.45Z"/><path d="m302.91,139.99c-.74,0-1.34-.25-1.81-.75s-.7-1.14-.7-1.92v-1.98c0-.79.24-1.43.71-1.93.47-.5,1.07-.75,1.81-.75s1.34.25,1.81.75.71,1.14.71,1.92v1.98c0,.79-.24,1.43-.71,1.92s-1.08.75-1.81.75Zm0-.84c.49,0,.89-.16,1.2-.49s.46-.77.46-1.34v-1.98c0-.57-.15-1.01-.46-1.34s-.71-.49-1.2-.49-.88.16-1.19.49-.46.77-.46,1.34v1.98c0,.57.15,1.01.46,1.34s.7.49,1.19.49Z"/><path d="m309.14,139.99c-.74,0-1.34-.25-1.81-.75s-.7-1.14-.7-1.92v-1.98c0-.79.24-1.43.71-1.93.47-.5,1.07-.75,1.81-.75s1.34.25,1.81.75.71,1.14.71,1.92v1.98c0,.79-.24,1.43-.71,1.92s-1.08.75-1.81.75Zm0-.84c.49,0,.89-.16,1.2-.49s.46-.77.46-1.34v-1.98c0-.57-.15-1.01-.46-1.34s-.71-.49-1.2-.49-.88.16-1.19.49-.46.77-.46,1.34v1.98c0,.57.15,1.01.46,1.34s.7.49,1.19.49Z"/><path d="m315.37,139.99c-.74,0-1.34-.25-1.81-.75s-.7-1.14-.7-1.92v-1.98c0-.79.24-1.43.71-1.93.47-.5,1.07-.75,1.81-.75s1.34.25,1.81.75.71,1.14.71,1.92v1.98c0,.79-.24,1.43-.71,1.92s-1.08.75-1.81.75Zm0-.84c.49,0,.89-.16,1.2-.49s.46-.77.46-1.34v-1.98c0-.57-.15-1.01-.46-1.34s-.71-.49-1.2-.49-.88.16-1.19.49-.46.77-.46,1.34v1.98c0,.57.15,1.01.46,1.34s.7.49,1.19.49Z"/><path d="m243.52,152.02l-1.25-3.63-1.24,3.63h-.77l-1.72-5.05h.91l1.22,3.69,1.26-3.69h.67l1.26,3.69,1.22-3.69h.92l-1.72,5.05h-.77Z"/><path d="m249.08,152.13c-.73,0-1.34-.25-1.82-.75-.48-.5-.72-1.13-.72-1.88s.23-1.39.7-1.89c.47-.5,1.09-.74,1.87-.74s1.4.28,1.84.83c.45.55.64,1.23.59,2.03h-4.12c.01.46.18.84.51,1.15s.71.46,1.17.46c.69,0,1.18-.28,1.47-.85h.89c-.13.47-.4.86-.82,1.17s-.93.46-1.55.46Zm.99-4.13c-.28-.24-.61-.36-1-.36s-.74.12-1.05.35c-.31.24-.5.59-.57,1.05h3.15c-.08-.46-.26-.81-.54-1.05Z"/><path d="m252.78,152.02v-5.05h.87v.98c.09-.31.28-.56.55-.75.27-.19.56-.28.86-.28.15,0,.28.01.39.04v.9c-.12-.05-.28-.08-.48-.08-.35,0-.66.15-.93.45s-.4.73-.4,1.28v2.51h-.87Z"/><path d="m258.45,152.13c-.73,0-1.34-.25-1.82-.75-.48-.5-.72-1.13-.72-1.88s.23-1.39.7-1.89c.47-.5,1.09-.74,1.87-.74s1.4.28,1.84.83c.45.55.64,1.23.59,2.03h-4.12c.01.46.18.84.51,1.15s.71.46,1.17.46c.69,0,1.18-.28,1.47-.85h.89c-.13.47-.4.86-.82,1.17s-.93.46-1.55.46Zm.99-4.13c-.28-.24-.61-.36-1-.36s-.74.12-1.05.35c-.31.24-.5.59-.57,1.05h3.15c-.08-.46-.26-.81-.54-1.05Z"/><path d="m271.1,152.02v-2.97c0-.42-.09-.75-.26-1.01-.17-.25-.42-.38-.74-.38-.4,0-.73.16-.99.48s-.39.75-.4,1.29v2.59h-.87v-2.97c0-.42-.09-.76-.26-1.01s-.42-.37-.73-.37c-.42,0-.75.17-1.01.5-.26.33-.38.78-.38,1.35v2.51h-.87v-5.05h.87v.78c.32-.59.83-.88,1.53-.88.77,0,1.29.36,1.56,1.08.13-.33.35-.59.65-.79.3-.2.63-.29,1.01-.29.55,0,.98.19,1.29.56.32.37.47.87.47,1.5v3.1h-.87Z"/><path d="m275.62,152.13c-.7,0-1.29-.26-1.76-.77-.48-.51-.71-1.13-.71-1.86s.24-1.35.71-1.86c.47-.51,1.06-.77,1.76-.77.37,0,.72.08,1.04.25.32.17.57.38.74.63v-.78h.87v5.05h-.87v-.78c-.18.26-.42.47-.74.63s-.67.25-1.04.25Zm.13-.8c.5,0,.91-.17,1.23-.53.32-.35.49-.79.49-1.3s-.16-.95-.49-1.3c-.32-.35-.73-.53-1.23-.53s-.92.18-1.24.53c-.32.35-.49.79-.49,1.3s.16.95.49,1.3c.32.35.74.53,1.24.53Z"/><path d="m279.91,152.02v-7.58h.87v7.58h-.87Z"/><path d="m284.58,152.13c-.73,0-1.34-.25-1.82-.75-.48-.5-.72-1.13-.72-1.88s.23-1.39.7-1.89c.47-.5,1.09-.74,1.87-.74s1.4.28,1.84.83c.45.55.64,1.23.59,2.03h-4.12c.01.46.18.84.51,1.15s.71.46,1.17.46c.69,0,1.18-.28,1.47-.85h.89c-.13.47-.4.86-.82,1.17s-.93.46-1.55.46Zm.99-4.13c-.28-.24-.61-.36-1-.36s-.74.12-1.05.35c-.31.24-.5.59-.57,1.05h3.15c-.08-.46-.26-.81-.54-1.05Z"/></g></svg>