<?xml version="1.0" encoding="UTF-8"?><svg id="_图层_2" xmlns="http://www.w3.org/2000/svg" viewBox="0 0 304.33 387.48"><defs><style>.cls-1{fill:#fff;}.cls-2{fill:none;stroke:#241f20;stroke-miterlimit:10;stroke-width:.5px;}</style></defs><g id="_图层_1-2"><path class="cls-1" d="m301.38,329.24c-35.87,145.14-86-25.17-225.67-38.05-73.52-6.78-101.3-63.24-48.06-125.19C81.21,103.68,155.87-75.63,174.25,35.6c27.94,169.11,150.55,198.87,127.13,293.64Z"/><path d="m20.04,224.74v-6.39h.84v6.39h-.84Z"/><path d="m22.44,224.74v-4.5h.77v.69c.31-.52.78-.78,1.43-.78.51,0,.92.17,1.23.49.31.33.47.77.47,1.32v2.77h-.76v-2.66c0-.38-.1-.68-.29-.9s-.45-.33-.77-.33c-.37,0-.68.15-.93.44-.25.29-.37.7-.37,1.21v2.23h-.77Z"/><path d="m33.76,223.99v.75h-4.14v-.31c0-.22.03-.43.1-.63.07-.2.14-.37.23-.51.08-.14.22-.29.4-.46s.32-.3.42-.38c.1-.08.27-.21.51-.38.24-.17.4-.28.48-.34.43-.31.72-.58.89-.79s.25-.49.25-.84-.11-.6-.32-.81c-.22-.2-.5-.3-.85-.3-.37,0-.68.11-.94.33-.26.22-.39.53-.39.93h-.79c0-.6.2-1.09.6-1.46.4-.37.9-.56,1.51-.56.56,0,1.03.16,1.41.49.38.32.56.79.56,1.39,0,.46-.11.84-.33,1.17-.22.32-.6.68-1.14,1.07-.1.07-.25.17-.43.3-.19.13-.33.23-.43.31s-.21.17-.34.28c-.12.11-.22.23-.29.35-.07.12-.12.26-.15.4h3.19Z"/><path d="m37,224.83c-.67,0-1.21-.22-1.63-.67-.42-.45-.63-1.02-.63-1.73v-1.78c0-.71.21-1.29.63-1.73.42-.45.96-.67,1.62-.67s1.2.22,1.63.67.64,1.03.64,1.73v1.78c0,.71-.21,1.29-.64,1.73-.43.45-.97.67-1.63.67Zm0-.76c.44,0,.8-.15,1.08-.44s.41-.7.41-1.21v-1.78c0-.51-.14-.91-.41-1.21s-.64-.44-1.08-.44-.79.15-1.07.44c-.28.29-.41.7-.41,1.21v1.78c0,.51.14.91.41,1.21.28.29.63.44,1.07.44Z"/><path d="m41.11,224.74v-5.62h-1.23l.63-.77h1.38v6.39h-.77Z"/><path d="m45.31,224.83c-.62,0-1.14-.19-1.54-.57-.4-.38-.61-.86-.61-1.44,0-.78.34-1.33,1.01-1.67-.44-.31-.66-.74-.66-1.27,0-.48.17-.87.51-1.18.34-.31.77-.46,1.29-.46s.96.15,1.29.46c.33.31.5.7.5,1.18,0,.54-.22.96-.65,1.27.67.33,1,.88,1,1.67,0,.58-.2,1.06-.6,1.44-.4.38-.91.57-1.54.57Zm0-.74c.42,0,.75-.12.99-.36.24-.24.36-.54.36-.91s-.12-.68-.36-.92-.57-.36-.99-.36-.74.12-.99.36-.38.55-.38.91.13.66.38.9.58.36.99.36Zm0-3.24c.31,0,.56-.09.75-.27.19-.18.28-.41.28-.67s-.09-.5-.27-.67c-.18-.17-.43-.26-.75-.26s-.56.09-.75.27c-.19.18-.29.4-.29.67s.1.48.29.67c.19.19.44.28.75.28Z"/><path d="m52.36,224.78c-.41,0-.75-.12-1-.35-.25-.23-.38-.58-.38-1.03v-2.46h-.95v-.71h.95v-1.25h.77v1.25h1.3v.71h-1.3v2.36c0,.28.06.48.18.59.12.11.31.17.57.17.23,0,.41-.03.55-.09v.69c-.22.07-.45.11-.69.11Z"/><path d="m54.82,224.74h-.77v-6.75h.77v2.94c.31-.52.78-.78,1.43-.78.51,0,.92.17,1.23.49.31.33.47.77.47,1.32v2.77h-.76v-2.66c0-.38-.1-.68-.29-.9s-.45-.33-.77-.33c-.37,0-.68.15-.93.44-.25.29-.37.7-.37,1.21v2.23Z"/><path d="m61.26,224.83c-.65,0-1.2-.22-1.62-.67s-.64-1-.64-1.67.21-1.24.63-1.68c.42-.44.97-.66,1.66-.66s1.24.25,1.64.74c.4.49.57,1.1.52,1.81h-3.66c.01.41.16.75.45,1.02.29.27.64.41,1.04.41.61,0,1.05-.25,1.3-.76h.79c-.11.42-.36.77-.73,1.04-.37.28-.83.41-1.38.41Zm.88-3.68c-.25-.21-.54-.32-.89-.32s-.66.11-.93.32c-.27.21-.44.52-.51.94h2.81c-.07-.41-.23-.72-.48-.93Z"/><path d="m64.55,224.74v-4.5h.77v.87c.08-.28.25-.5.49-.67.24-.17.5-.25.77-.25.13,0,.25.01.35.04v.8c-.11-.05-.25-.07-.42-.07-.31,0-.59.13-.83.41-.24.27-.36.65-.36,1.14v2.23h-.77Z"/><path d="m69.6,224.83c-.65,0-1.2-.22-1.62-.67s-.64-1-.64-1.67.21-1.24.63-1.68c.42-.44.97-.66,1.66-.66s1.24.25,1.64.74c.4.49.57,1.1.52,1.81h-3.66c.01.41.16.75.45,1.02.29.27.64.41,1.04.41.61,0,1.05-.25,1.3-.76h.79c-.11.42-.36.77-.73,1.04-.37.28-.83.41-1.38.41Zm.88-3.68c-.25-.21-.54-.32-.89-.32s-.66.11-.93.32c-.27.21-.44.52-.51.94h2.81c-.07-.41-.23-.72-.48-.93Z"/><path d="m78.72,224.74l-1.12-3.23-1.11,3.23h-.68l-1.53-4.5h.81l1.09,3.29,1.12-3.29h.59l1.12,3.29,1.09-3.29h.82l-1.53,4.5h-.68Z"/><path d="m83.67,224.83c-.65,0-1.2-.22-1.62-.67s-.64-1-.64-1.67.21-1.24.63-1.68c.42-.44.97-.66,1.66-.66s1.24.25,1.64.74c.4.49.57,1.1.52,1.81h-3.66c.01.41.16.75.45,1.02.29.27.64.41,1.04.41.61,0,1.05-.25,1.3-.76h.79c-.11.42-.36.77-.73,1.04-.37.28-.83.41-1.38.41Zm.88-3.68c-.25-.21-.54-.32-.89-.32s-.66.11-.93.32c-.27.21-.44.52-.51.94h2.81c-.07-.41-.23-.72-.48-.93Z"/><path d="m86.96,224.74v-4.5h.77v.87c.08-.28.25-.5.49-.67.24-.17.5-.25.77-.25.13,0,.25.01.35.04v.8c-.11-.05-.25-.07-.42-.07-.31,0-.59.13-.83.41-.24.27-.36.65-.36,1.14v2.23h-.77Z"/><path d="m92.01,224.83c-.65,0-1.2-.22-1.62-.67s-.64-1-.64-1.67.21-1.24.63-1.68c.42-.44.97-.66,1.66-.66s1.24.25,1.64.74c.4.49.57,1.1.52,1.81h-3.66c.01.41.16.75.45,1.02.29.27.64.41,1.04.41.61,0,1.05-.25,1.3-.76h.79c-.11.42-.36.77-.73,1.04-.37.28-.83.41-1.38.41Zm.88-3.68c-.25-.21-.54-.32-.89-.32s-.66.11-.93.32c-.27.21-.44.52-.51.94h2.81c-.07-.41-.23-.72-.48-.93Z"/><path d="m101.33,223.99v.75h-4.14v-.31c0-.22.03-.43.1-.63.07-.2.14-.37.23-.51.08-.14.22-.29.4-.46s.32-.3.42-.38c.1-.08.27-.21.51-.38.24-.17.4-.28.48-.34.43-.31.72-.58.89-.79s.25-.49.25-.84-.11-.6-.32-.81c-.22-.2-.5-.3-.85-.3-.37,0-.68.11-.94.33-.26.22-.39.53-.39.93h-.79c0-.6.2-1.09.6-1.46.4-.37.9-.56,1.51-.56.56,0,1.03.16,1.41.49.38.32.56.79.56,1.39,0,.46-.11.84-.33,1.17-.22.32-.6.68-1.14,1.07-.1.07-.25.17-.43.3-.19.13-.33.23-.43.31s-.21.17-.34.28c-.12.11-.22.23-.29.35-.07.12-.12.26-.15.4h3.19Z"/><path d="m104.24,224.83c-.58,0-1.07-.18-1.49-.54s-.64-.79-.65-1.28h.79c.07.31.23.57.48.77.25.2.54.3.87.3.39,0,.72-.13.98-.4s.4-.59.4-.97-.13-.72-.38-.98c-.25-.26-.57-.4-.96-.4-.53,0-.94.22-1.21.65l-.74-.22.66-3.41h2.99v.76h-2.37l-.35,1.83c.31-.22.68-.33,1.12-.33.59,0,1.08.21,1.46.63s.57.94.57,1.58c0,.56-.21,1.04-.62,1.44-.41.39-.93.59-1.55.59Z"/><path d="m108.37,224.61c-.13.13-.29.2-.47.2s-.34-.07-.47-.2-.19-.29-.19-.48.07-.34.2-.47c.13-.13.29-.2.47-.2s.34.07.47.2c.13.14.2.29.2.47s-.06.35-.19.48Z"/><path d="m112.59,224.74v-1.74h-3.4v-.62l3.5-4.03h.67v3.92h.88v.73h-.88v1.74h-.77Zm-2.39-2.47h2.39v-2.75l-2.39,2.75Z"/><path d="m118.26,226.62h-.77v-6.38h.77v.69c.16-.23.38-.42.66-.56.29-.15.59-.22.92-.22.62,0,1.15.23,1.57.68s.63,1.01.63,1.66-.21,1.2-.63,1.66c-.42.46-.95.68-1.57.68-.33,0-.64-.07-.92-.22-.28-.15-.5-.33-.66-.56v2.57Zm.37-2.97c.29.31.65.47,1.1.47s.81-.16,1.1-.47c.29-.31.43-.7.43-1.16s-.14-.85-.43-1.16c-.29-.31-.65-.47-1.1-.47s-.81.16-1.1.47c-.29.31-.43.7-.43,1.16s.14.85.43,1.16Z"/><path d="m125.08,224.83c-.65,0-1.2-.22-1.62-.67s-.64-1-.64-1.67.21-1.24.63-1.68c.42-.44.97-.66,1.66-.66s1.24.25,1.64.74c.4.49.57,1.1.52,1.81h-3.66c.01.41.16.75.45,1.02.29.27.64.41,1.04.41.61,0,1.05-.25,1.3-.76h.79c-.11.42-.36.77-.73,1.04-.37.28-.83.41-1.38.41Zm.88-3.68c-.25-.21-.54-.32-.89-.32s-.66.11-.93.32c-.27.21-.44.52-.51.94h2.81c-.07-.41-.23-.72-.48-.93Z"/><path d="m128.37,224.74v-4.5h.77v.87c.08-.28.25-.5.49-.67.24-.17.5-.25.77-.25.13,0,.25.01.35.04v.8c-.11-.05-.25-.07-.42-.07-.31,0-.59.13-.83.41-.24.27-.36.65-.36,1.14v2.23h-.77Z"/><path d="m134.19,224.74v-5.62h-1.23l.63-.77h1.38v6.39h-.77Z"/><path d="m138.61,224.83c-.67,0-1.21-.22-1.63-.67-.42-.45-.63-1.02-.63-1.73v-1.78c0-.71.21-1.29.63-1.73.42-.45.96-.67,1.62-.67s1.2.22,1.63.67.64,1.03.64,1.73v1.78c0,.71-.21,1.29-.64,1.73-.43.45-.97.67-1.63.67Zm0-.76c.44,0,.8-.15,1.08-.44s.41-.7.41-1.21v-1.78c0-.51-.14-.91-.41-1.21s-.64-.44-1.08-.44-.79.15-1.07.44c-.28.29-.41.7-.41,1.21v1.78c0,.51.14.91.41,1.21.28.29.63.44,1.07.44Z"/><path d="m144.21,224.83c-.67,0-1.21-.22-1.63-.67-.42-.45-.63-1.02-.63-1.73v-1.78c0-.71.21-1.29.63-1.73.42-.45.96-.67,1.62-.67s1.2.22,1.63.67.64,1.03.64,1.73v1.78c0,.71-.21,1.29-.64,1.73-.43.45-.97.67-1.63.67Zm0-.76c.44,0,.8-.15,1.08-.44s.41-.7.41-1.21v-1.78c0-.51-.14-.91-.41-1.21s-.64-.44-1.08-.44-.79.15-1.07.44c-.28.29-.41.7-.41,1.21v1.78c0,.51.14.91.41,1.21.28.29.63.44,1.07.44Z"/><path d="m148.57,224.54l-.93,1.49h-.51l.6-1.29c-.25-.12-.37-.32-.37-.6,0-.18.07-.34.2-.47.13-.13.29-.2.47-.2s.34.07.47.2c.13.14.2.29.2.47,0,.13-.04.27-.13.41Z"/><path d="m151.84,224.83c-.67,0-1.21-.22-1.63-.67-.42-.45-.63-1.02-.63-1.73v-1.78c0-.71.21-1.29.63-1.73.42-.45.96-.67,1.62-.67s1.2.22,1.63.67.64,1.03.64,1.73v1.78c0,.71-.21,1.29-.64,1.73-.43.45-.97.67-1.63.67Zm0-.76c.44,0,.8-.15,1.08-.44s.41-.7.41-1.21v-1.78c0-.51-.14-.91-.41-1.21s-.64-.44-1.08-.44-.79.15-1.07.44c-.28.29-.41.7-.41,1.21v1.78c0,.51.14.91.41,1.21.28.29.63.44,1.07.44Z"/><path d="m157.44,224.83c-.67,0-1.21-.22-1.63-.67-.42-.45-.63-1.02-.63-1.73v-1.78c0-.71.21-1.29.63-1.73.42-.45.96-.67,1.62-.67s1.2.22,1.63.67.64,1.03.64,1.73v1.78c0,.71-.21,1.29-.64,1.73-.43.45-.97.67-1.63.67Zm0-.76c.44,0,.8-.15,1.08-.44s.41-.7.41-1.21v-1.78c0-.51-.14-.91-.41-1.21s-.64-.44-1.08-.44-.79.15-1.07.44c-.28.29-.41.7-.41,1.21v1.78c0,.51.14.91.41,1.21.28.29.63.44,1.07.44Z"/><path d="m163.05,224.83c-.67,0-1.21-.22-1.63-.67-.42-.45-.63-1.02-.63-1.73v-1.78c0-.71.21-1.29.63-1.73.42-.45.96-.67,1.62-.67s1.2.22,1.63.67.64,1.03.64,1.73v1.78c0,.71-.21,1.29-.64,1.73-.43.45-.97.67-1.63.67Zm0-.76c.44,0,.8-.15,1.08-.44s.41-.7.41-1.21v-1.78c0-.51-.14-.91-.41-1.21s-.64-.44-1.08-.44-.79.15-1.07.44c-.28.29-.41.7-.41,1.21v1.78c0,.51.14.91.41,1.21.28.29.63.44,1.07.44Z"/><path d="m170.61,224.83c-.62,0-1.15-.23-1.57-.68-.42-.46-.63-1.01-.63-1.66s.21-1.2.63-1.66.95-.68,1.57-.68c.33,0,.64.07.92.22.28.15.5.33.66.56v-2.94h.77v6.75h-.77v-.69c-.16.23-.38.42-.66.56-.29.15-.59.22-.92.22Zm.12-.71c.44,0,.81-.16,1.1-.47.29-.31.43-.7.43-1.16s-.14-.85-.43-1.16c-.29-.31-.65-.47-1.1-.47s-.82.16-1.11.47c-.29.31-.43.7-.43,1.16s.14.85.43,1.16c.29.31.66.47,1.11.47Z"/><path d="m176.34,224.83c-.65,0-1.2-.22-1.62-.67s-.64-1-.64-1.67.21-1.24.63-1.68c.42-.44.97-.66,1.66-.66s1.24.25,1.64.74c.4.49.57,1.1.52,1.81h-3.66c.01.41.16.75.45,1.02.29.27.64.41,1.04.41.61,0,1.05-.25,1.3-.76h.79c-.11.42-.36.77-.73,1.04-.37.28-.83.41-1.38.41Zm.88-3.68c-.25-.21-.54-.32-.89-.32s-.66.11-.93.32c-.27.21-.44.52-.51.94h2.81c-.07-.41-.23-.72-.48-.93Z"/><path d="m181.49,224.83c-.62,0-1.15-.23-1.57-.68-.42-.46-.63-1.01-.63-1.66s.21-1.2.63-1.66.95-.68,1.57-.68c.33,0,.64.07.92.22.28.15.5.33.66.56v-.69h.77v4.5h-.77v-.69c-.16.23-.38.42-.66.56-.29.15-.59.22-.92.22Zm.12-.71c.44,0,.81-.16,1.1-.47.29-.31.43-.7.43-1.16s-.14-.85-.43-1.16c-.29-.31-.65-.47-1.1-.47s-.82.16-1.11.47c-.29.31-.43.7-.43,1.16s.14.85.43,1.16c.29.31.66.47,1.11.47Z"/><path d="m187.05,224.78c-.41,0-.75-.12-1-.35-.25-.23-.38-.58-.38-1.03v-2.46h-.95v-.71h.95v-1.25h.77v1.25h1.3v.71h-1.3v2.36c0,.28.06.48.18.59.12.11.31.17.57.17.23,0,.41-.03.55-.09v.69c-.22.07-.45.11-.69.11Z"/><path d="m189.51,224.74h-.77v-6.75h.77v2.94c.31-.52.78-.78,1.43-.78.51,0,.92.17,1.23.49.31.33.47.77.47,1.32v2.77h-.76v-2.66c0-.38-.1-.68-.29-.9s-.45-.33-.77-.33c-.37,0-.68.15-.93.44-.25.29-.37.7-.37,1.21v2.23Z"/><path d="m195.48,224.83c-.5,0-.93-.12-1.26-.37s-.53-.59-.56-1.03h.79c.05.25.17.44.37.56.19.12.42.18.68.18s.47-.05.63-.15c.16-.1.24-.25.24-.44,0-.18-.06-.33-.17-.44-.12-.11-.31-.21-.57-.28l-.65-.17c-.77-.2-1.16-.65-1.16-1.32,0-.37.15-.66.44-.88.29-.22.66-.33,1.12-.33s.84.12,1.14.36.46.55.5.92h-.77c-.06-.2-.17-.35-.32-.47-.15-.11-.33-.17-.54-.17-.22,0-.41.05-.55.15-.15.1-.22.24-.22.41s.05.29.16.4c.11.1.28.19.52.25l.72.19c.77.19,1.15.64,1.15,1.33,0,.43-.15.76-.46.98-.31.22-.71.33-1.2.33Z"/><path d="m22.28,235.63c-.33,0-.64-.07-.92-.22-.28-.15-.5-.33-.66-.56v.69h-.77v-6.75h.77v2.94c.16-.23.38-.42.66-.56.29-.15.59-.22.92-.22.62,0,1.15.23,1.57.68.42.46.63,1.01.63,1.66s-.21,1.2-.63,1.66-.95.68-1.57.68Zm-1.21-1.18c.29.31.65.47,1.1.47s.81-.16,1.1-.47c.29-.31.43-.7.43-1.16s-.14-.85-.43-1.16c-.29-.31-.65-.47-1.1-.47s-.81.16-1.1.47c-.29.31-.43.7-.43,1.16s.14.85.43,1.16Z"/><path d="m27.51,235.63c-.65,0-1.2-.22-1.62-.67-.43-.44-.64-1-.64-1.67s.21-1.24.63-1.68c.42-.44.97-.66,1.66-.66s1.24.25,1.64.74c.4.49.57,1.09.52,1.81h-3.66c.01.41.16.75.45,1.02.29.27.64.41,1.04.41.61,0,1.05-.25,1.3-.76h.79c-.11.42-.36.77-.73,1.04-.37.28-.83.41-1.38.41Zm.88-3.68c-.25-.21-.54-.32-.89-.32s-.66.1-.93.31c-.27.21-.44.52-.51.94h2.81c-.07-.41-.23-.72-.48-.93Z"/><path d="m32.8,235.63c-.68,0-1.24-.23-1.68-.68s-.67-1.01-.67-1.66.22-1.21.67-1.66,1-.68,1.68-.68c.56,0,1.04.15,1.45.46.41.31.68.71.82,1.21h-.83c-.11-.29-.29-.53-.54-.7-.25-.17-.55-.26-.9-.26-.46,0-.84.16-1.13.47-.29.31-.44.7-.44,1.16s.15.85.44,1.16c.29.31.67.47,1.13.47.35,0,.65-.09.9-.26s.43-.41.54-.7h.83c-.13.5-.4.9-.81,1.21-.41.31-.89.46-1.46.46Z"/><path d="m37.95,235.63c-.62,0-1.15-.23-1.57-.68s-.63-1.01-.63-1.66.21-1.2.63-1.66c.42-.46.95-.68,1.57-.68.33,0,.64.07.92.22.28.15.5.33.66.56v-.69h.77v4.5h-.77v-.69c-.16.23-.38.42-.66.56-.29.15-.59.22-.92.22Zm.12-.71c.44,0,.81-.16,1.1-.47.29-.31.43-.7.43-1.16s-.14-.85-.43-1.16c-.29-.31-.65-.47-1.1-.47s-.82.16-1.11.47c-.29.31-.43.7-.43,1.16s.14.85.43,1.16c.29.31.66.47,1.11.47Z"/><path d="m43.36,235.63c-.49,0-.89-.17-1.2-.5s-.46-.78-.46-1.33v-2.76h.77v2.65c0,.38.09.68.27.9.18.22.43.33.74.33.36,0,.66-.15.9-.45s.36-.7.36-1.2v-2.23h.77v4.5h-.77v-.69c-.29.52-.76.78-1.39.78Z"/><path d="m48.43,235.63c-.5,0-.93-.12-1.26-.37s-.53-.59-.56-1.03h.79c.05.25.17.44.37.56.19.12.42.18.68.18s.47-.05.63-.15c.16-.1.24-.25.24-.44,0-.18-.06-.33-.17-.44-.12-.11-.31-.21-.57-.28l-.65-.17c-.77-.2-1.16-.64-1.16-1.32,0-.37.15-.66.44-.88s.66-.33,1.12-.33.84.12,1.14.36c.3.24.46.55.5.92h-.77c-.06-.2-.17-.35-.32-.47-.15-.11-.33-.17-.54-.17-.22,0-.41.05-.55.15-.15.1-.22.24-.22.41s.05.29.16.4c.11.1.28.19.52.25l.72.19c.77.19,1.15.64,1.15,1.33,0,.43-.15.76-.46.98s-.71.33-1.2.33Z"/><path d="m53.1,235.63c-.65,0-1.2-.22-1.62-.67-.43-.44-.64-1-.64-1.67s.21-1.24.63-1.68c.42-.44.97-.66,1.66-.66s1.24.25,1.64.74c.4.49.57,1.09.52,1.81h-3.66c.01.41.16.75.45,1.02.29.27.64.41,1.04.41.61,0,1.05-.25,1.3-.76h.79c-.11.42-.36.77-.73,1.04-.37.28-.83.41-1.38.41Zm.88-3.68c-.25-.21-.54-.32-.89-.32s-.66.1-.93.31c-.27.21-.44.52-.51.94h2.81c-.07-.41-.23-.72-.48-.93Z"/><path d="m60.56,235.63c-.68,0-1.24-.23-1.69-.68-.45-.45-.67-1.01-.67-1.66s.22-1.21.67-1.66c.45-.45,1.01-.68,1.69-.68s1.23.23,1.68.68.67,1.01.67,1.66-.22,1.21-.67,1.66-1.01.68-1.68.68Zm-1.13-1.19c.29.31.67.47,1.13.47s.84-.16,1.12-.47c.29-.31.43-.7.43-1.15s-.14-.84-.43-1.15c-.29-.31-.66-.47-1.12-.47s-.84.16-1.13.47c-.29.31-.44.7-.44,1.15s.15.84.44,1.15Z"/><path d="m64.32,235.54v-3.79h-.95v-.71h.95v-.91c0-.45.13-.79.38-1.03.25-.24.58-.36,1-.36.25,0,.48.04.7.12v.68c-.14-.06-.32-.09-.56-.09-.26,0-.45.06-.57.17s-.18.31-.18.59v.83h1.3v.71h-1.3v3.79h-.77Z"/><path d="m72.84,229.72c.41.38.61.87.61,1.46s-.2,1.07-.61,1.45-.93.57-1.59.57h-1.12v2.33h-.84v-6.39h1.95c.65,0,1.18.19,1.59.58Zm-.58,2.36c.24-.23.36-.53.36-.9s-.12-.67-.36-.9-.58-.35-1-.35h-1.12v2.5h1.12c.43,0,.76-.12,1-.35Z"/><path d="m74.39,235.54v-4.5h.77v.69c.31-.52.78-.78,1.43-.78.51,0,.92.17,1.23.5.31.33.47.77.47,1.32v2.77h-.76v-2.65c0-.38-.1-.68-.29-.9-.19-.22-.45-.33-.77-.33-.37,0-.68.15-.93.44-.25.29-.37.7-.37,1.21v2.23h-.77Z"/><path d="m81.61,235.63c-.65,0-1.2-.22-1.62-.67-.43-.44-.64-1-.64-1.67s.21-1.24.63-1.68c.42-.44.97-.66,1.66-.66s1.24.25,1.64.74c.4.49.57,1.09.52,1.81h-3.66c.01.41.16.75.45,1.02.29.27.64.41,1.04.41.61,0,1.05-.25,1.3-.76h.79c-.11.42-.36.77-.73,1.04-.37.28-.83.41-1.38.41Zm.88-3.68c-.25-.21-.54-.32-.89-.32s-.66.1-.93.31c-.27.21-.44.52-.51.94h2.81c-.07-.41-.23-.72-.48-.93Z"/><path d="m86.5,235.63c-.49,0-.89-.17-1.2-.5s-.46-.78-.46-1.33v-2.76h.77v2.65c0,.38.09.68.27.9.18.22.43.33.74.33.36,0,.66-.15.9-.45s.36-.7.36-1.2v-2.23h.77v4.5h-.77v-.69c-.29.52-.76.78-1.39.78Z"/><path d="m95.91,235.54v-2.65c0-.37-.08-.67-.23-.9-.15-.23-.37-.34-.66-.34-.36,0-.65.14-.88.42-.23.28-.34.67-.36,1.15v2.3h-.77v-2.65c0-.38-.08-.68-.23-.9-.15-.22-.37-.33-.65-.33-.37,0-.67.15-.9.45-.23.3-.34.7-.34,1.2v2.23h-.77v-4.5h.77v.69c.29-.52.74-.78,1.36-.78.68,0,1.15.32,1.39.96.12-.29.31-.53.58-.7.26-.17.56-.26.9-.26.49,0,.87.17,1.15.5s.42.77.42,1.33v2.76h-.77Z"/><path d="m100.08,235.63c-.68,0-1.24-.23-1.69-.68-.45-.45-.67-1.01-.67-1.66s.22-1.21.67-1.66c.45-.45,1.01-.68,1.69-.68s1.23.23,1.68.68.67,1.01.67,1.66-.22,1.21-.67,1.66-1.01.68-1.68.68Zm-1.13-1.19c.29.31.67.47,1.13.47s.84-.16,1.12-.47c.29-.31.43-.7.43-1.15s-.14-.84-.43-1.15c-.29-.31-.66-.47-1.12-.47s-.84.16-1.13.47c-.29.31-.44.7-.44,1.15s.15.84.44,1.15Z"/><path d="m103.53,235.54v-4.5h.77v.69c.31-.52.78-.78,1.43-.78.51,0,.92.17,1.23.5.31.33.47.77.47,1.32v2.77h-.76v-2.65c0-.38-.1-.68-.29-.9-.19-.22-.45-.33-.77-.33-.37,0-.68.15-.93.44-.25.29-.37.7-.37,1.21v2.23h-.77Z"/><path d="m109.62,229.67c-.1.11-.23.16-.39.16s-.29-.05-.4-.16c-.11-.1-.16-.24-.16-.39s.05-.28.16-.39.24-.16.4-.16.29.05.39.16c.1.11.15.24.15.39s-.05.29-.15.39Zm-.78,5.86v-4.5h.77v4.5h-.77Z"/><path d="m112.93,235.63c-.62,0-1.15-.23-1.57-.68s-.63-1.01-.63-1.66.21-1.2.63-1.66c.42-.46.95-.68,1.57-.68.33,0,.64.07.92.22.28.15.5.33.66.56v-.69h.77v4.5h-.77v-.69c-.16.23-.38.42-.66.56-.29.15-.59.22-.92.22Zm.12-.71c.44,0,.81-.16,1.1-.47.29-.31.43-.7.43-1.16s-.14-.85-.43-1.16c-.29-.31-.65-.47-1.1-.47s-.82.16-1.11.47c-.29.31-.43.7-.43,1.16s.14.85.43,1.16c.29.31.66.47,1.11.47Z"/><path d="m120.77,235.63c-.62,0-1.15-.23-1.57-.68s-.63-1.01-.63-1.66.21-1.2.63-1.66c.42-.46.95-.68,1.57-.68.33,0,.64.07.92.22.28.15.5.33.66.56v-.69h.77v4.5h-.77v-.69c-.16.23-.38.42-.66.56-.29.15-.59.22-.92.22Zm.12-.71c.44,0,.81-.16,1.1-.47.29-.31.43-.7.43-1.16s-.14-.85-.43-1.16c-.29-.31-.65-.47-1.1-.47s-.82.16-1.11.47c-.29.31-.43.7-.43,1.16s.14.85.43,1.16c.29.31.66.47,1.11.47Z"/><path d="m124.59,235.54v-4.5h.77v.69c.31-.52.78-.78,1.43-.78.51,0,.92.17,1.23.5.31.33.47.77.47,1.32v2.77h-.76v-2.65c0-.38-.1-.68-.29-.9-.19-.22-.45-.33-.77-.33-.37,0-.68.15-.93.44-.25.29-.37.7-.37,1.21v2.23h-.77Z"/><path d="m131.74,235.63c-.62,0-1.15-.23-1.57-.68s-.63-1.01-.63-1.66.21-1.2.63-1.66c.42-.46.95-.68,1.57-.68.33,0,.64.07.92.22.28.15.5.33.66.56v-2.94h.77v6.75h-.77v-.69c-.16.23-.38.42-.66.56-.29.15-.59.22-.92.22Zm.12-.71c.44,0,.81-.16,1.1-.47.29-.31.43-.7.43-1.16s-.14-.85-.43-1.16c-.29-.31-.65-.47-1.1-.47s-.82.16-1.11.47c-.29.31-.43.7-.43,1.16s.14.85.43,1.16c.29.31.66.47,1.11.47Z"/><path d="m137.84,235.54v-6.39h.84v6.39h-.84Z"/><path d="m140.24,235.54v-4.5h.77v.69c.31-.52.78-.78,1.43-.78.51,0,.92.17,1.23.5.31.33.47.77.47,1.32v2.77h-.76v-2.65c0-.38-.1-.68-.29-.9-.19-.22-.45-.33-.77-.33-.37,0-.68.15-.93.44-.25.29-.37.7-.37,1.21v2.23h-.77Z"/><path d="m145.86,235.54v-3.79h-.95v-.71h.95v-.91c0-.45.13-.79.38-1.03.25-.24.58-.36,1-.36.25,0,.48.04.7.12v.68c-.14-.06-.32-.09-.56-.09-.26,0-.45.06-.57.17s-.18.31-.18.59v.83h1.3v.71h-1.3v3.79h-.77Zm2.92,0v-6.75h.77v6.75h-.77Z"/><path d="m152.61,235.63c-.49,0-.89-.17-1.2-.5s-.46-.78-.46-1.33v-2.76h.77v2.65c0,.38.09.68.27.9.18.22.43.33.74.33.36,0,.66-.15.9-.45s.36-.7.36-1.2v-2.23h.77v4.5h-.77v-.69c-.29.52-.76.78-1.39.78Z"/><path d="m158.15,235.63c-.65,0-1.2-.22-1.62-.67-.43-.44-.64-1-.64-1.67s.21-1.24.63-1.68c.42-.44.97-.66,1.66-.66s1.24.25,1.64.74c.4.49.57,1.09.52,1.81h-3.66c.01.41.16.75.45,1.02.29.27.64.41,1.04.41.61,0,1.05-.25,1.3-.76h.79c-.11.42-.36.77-.73,1.04-.37.28-.83.41-1.38.41Zm.88-3.68c-.25-.21-.54-.32-.89-.32s-.66.1-.93.31c-.27.21-.44.52-.51.94h2.81c-.07-.41-.23-.72-.48-.93Z"/><path d="m161.44,235.54v-4.5h.77v.69c.31-.52.78-.78,1.43-.78.51,0,.92.17,1.23.5.31.33.47.77.47,1.32v2.77h-.76v-2.65c0-.38-.1-.68-.29-.9-.19-.22-.45-.33-.77-.33-.37,0-.68.15-.93.44-.25.29-.37.7-.37,1.21v2.23h-.77Z"/><path d="m166.37,235.54v-.61l2.57-3.18h-2.54v-.71h3.54v.62l-2.57,3.17h2.65v.71h-3.65Z"/><path d="m172.88,235.63c-.62,0-1.15-.23-1.57-.68s-.63-1.01-.63-1.66.21-1.2.63-1.66c.42-.46.95-.68,1.57-.68.33,0,.64.07.92.22.28.15.5.33.66.56v-.69h.77v4.5h-.77v-.69c-.16.23-.38.42-.66.56-.29.15-.59.22-.92.22Zm.12-.71c.44,0,.81-.16,1.1-.47.29-.31.43-.7.43-1.16s-.14-.85-.43-1.16c-.29-.31-.65-.47-1.1-.47s-.82.16-1.11.47c-.29.31-.43.7-.43,1.16s.14.85.43,1.16c.29.31.66.47,1.11.47Z"/><path d="m177.57,235.41c-.13.13-.29.2-.47.2s-.34-.07-.47-.2-.19-.29-.19-.48.07-.34.2-.47.29-.2.47-.2.34.07.47.2c.13.13.2.29.2.47s-.06.34-.19.48Z"/><path d="m187.74,304.55v-3.79h-.95v-.71h.95v-.91c0-.45.13-.79.38-1.03.25-.24.58-.36,1-.36.25,0,.48.04.7.12v.68c-.14-.06-.32-.09-.56-.09-.26,0-.45.06-.57.17-.12.11-.18.31-.18.59v.83h1.3v.71h-1.3v3.79h-.77Z"/><path d="m192.46,304.64c-.65,0-1.2-.22-1.62-.67-.43-.44-.64-1-.64-1.67s.21-1.24.63-1.68c.42-.44.97-.66,1.66-.66s1.24.25,1.64.74c.4.49.57,1.09.52,1.81h-3.66c.01.41.16.75.45,1.02.29.27.64.41,1.04.41.61,0,1.05-.25,1.3-.76h.79c-.11.42-.36.77-.73,1.04-.37.28-.83.41-1.38.41Zm.88-3.68c-.25-.21-.54-.32-.89-.32s-.66.11-.93.31c-.27.21-.44.52-.51.94h2.81c-.07-.41-.23-.72-.48-.93Z"/><path d="m201.55,304.55v-2.65c0-.37-.08-.67-.23-.9-.15-.23-.37-.34-.66-.34-.36,0-.65.14-.88.42-.23.28-.34.67-.36,1.15v2.3h-.77v-2.65c0-.38-.08-.68-.23-.9-.15-.22-.37-.33-.65-.33-.37,0-.67.15-.9.45-.23.3-.34.7-.34,1.2v2.23h-.77v-4.5h.77v.69c.29-.52.74-.78,1.36-.78.68,0,1.15.32,1.39.96.12-.29.31-.53.58-.7.26-.17.56-.26.9-.26.49,0,.87.16,1.15.49s.42.77.42,1.33v2.76h-.77Z"/><path d="m205.57,304.64c-.62,0-1.15-.23-1.57-.68s-.63-1.01-.63-1.66.21-1.2.63-1.66c.42-.46.95-.68,1.57-.68.33,0,.64.07.92.22.28.15.5.33.66.56v-.69h.77v4.5h-.77v-.69c-.16.23-.38.42-.66.56-.29.15-.59.22-.92.22Zm.12-.71c.44,0,.81-.16,1.1-.47.29-.31.43-.7.43-1.16s-.14-.85-.43-1.16c-.29-.31-.65-.47-1.1-.47s-.82.16-1.11.47c-.29.31-.43.7-.43,1.16s.14.85.43,1.16c.29.31.66.47,1.11.47Z"/><path d="m209.39,304.55v-6.75h.77v6.75h-.77Z"/><path d="m213.55,304.64c-.65,0-1.2-.22-1.62-.67-.43-.44-.64-1-.64-1.67s.21-1.24.63-1.68c.42-.44.97-.66,1.66-.66s1.24.25,1.64.74c.4.49.57,1.09.52,1.81h-3.66c.01.41.16.75.45,1.02.29.27.64.41,1.04.41.61,0,1.05-.25,1.3-.76h.79c-.11.42-.36.77-.73,1.04-.37.28-.83.41-1.38.41Zm.88-3.68c-.25-.21-.54-.32-.89-.32s-.66.11-.93.31c-.27.21-.44.52-.51.94h2.81c-.07-.41-.23-.72-.48-.93Z"/><path d="m220.87,304.64c-.62,0-1.15-.23-1.57-.68s-.63-1.01-.63-1.66.21-1.2.63-1.66c.42-.46.95-.68,1.57-.68.33,0,.64.07.92.22.28.15.5.33.66.56v-2.94h.77v6.75h-.77v-.69c-.16.23-.38.42-.66.56-.29.15-.59.22-.92.22Zm.12-.71c.44,0,.81-.16,1.1-.47.29-.31.43-.7.43-1.16s-.14-.85-.43-1.16c-.29-.31-.65-.47-1.1-.47s-.82.16-1.11.47c-.29.31-.43.7-.43,1.16s.14.85.43,1.16c.29.31.66.47,1.11.47Z"/><path d="m226.6,304.64c-.65,0-1.2-.22-1.62-.67-.43-.44-.64-1-.64-1.67s.21-1.24.63-1.68c.42-.44.97-.66,1.66-.66s1.24.25,1.64.74c.4.49.57,1.09.52,1.81h-3.66c.01.41.16.75.45,1.02.29.27.64.41,1.04.41.61,0,1.05-.25,1.3-.76h.79c-.11.42-.36.77-.73,1.04-.37.28-.83.41-1.38.41Zm.88-3.68c-.25-.21-.54-.32-.89-.32s-.66.11-.93.31c-.27.21-.44.52-.51.94h2.81c-.07-.41-.23-.72-.48-.93Z"/><path d="m231.75,304.64c-.62,0-1.15-.23-1.57-.68s-.63-1.01-.63-1.66.21-1.2.63-1.66c.42-.46.95-.68,1.57-.68.33,0,.64.07.92.22.28.15.5.33.66.56v-.69h.77v4.5h-.77v-.69c-.16.23-.38.42-.66.56-.29.15-.59.22-.92.22Zm.12-.71c.44,0,.81-.16,1.1-.47.29-.31.43-.7.43-1.16s-.14-.85-.43-1.16c-.29-.31-.65-.47-1.1-.47s-.82.16-1.11.47c-.29.31-.43.7-.43,1.16s.14.85.43,1.16c.29.31.66.47,1.11.47Z"/><path d="m237.31,304.6c-.41,0-.75-.12-1-.35s-.38-.58-.38-1.03v-2.46h-.95v-.71h.95v-1.25h.77v1.25h1.3v.71h-1.3v2.36c0,.28.06.48.18.59.12.11.31.17.57.17.23,0,.41-.03.55-.09v.69c-.22.07-.45.11-.69.11Z"/><path d="m239.76,304.55h-.77v-6.75h.77v2.94c.31-.52.78-.78,1.43-.78.51,0,.92.16,1.23.49.31.33.47.77.47,1.32v2.77h-.76v-2.66c0-.38-.1-.68-.29-.9s-.45-.33-.77-.33c-.37,0-.68.15-.93.44-.25.29-.37.7-.37,1.21v2.23Z"/><path d="m246.46,304.55v-4.5h.77v.87c.08-.28.25-.5.49-.67.24-.17.5-.25.77-.25.13,0,.25.01.35.04v.8c-.11-.05-.25-.07-.42-.07-.31,0-.59.13-.83.41-.24.27-.36.65-.36,1.14v2.23h-.77Z"/><path d="m251.46,304.64c-.62,0-1.15-.23-1.57-.68s-.63-1.01-.63-1.66.21-1.2.63-1.66c.42-.46.95-.68,1.57-.68.33,0,.64.07.92.22.28.15.5.33.66.56v-.69h.77v4.5h-.77v-.69c-.16.23-.38.42-.66.56-.29.15-.59.22-.92.22Zm.12-.71c.44,0,.81-.16,1.1-.47.29-.31.43-.7.43-1.16s-.14-.85-.43-1.16c-.29-.31-.65-.47-1.1-.47s-.82.16-1.11.47c-.29.31-.43.7-.43,1.16s.14.85.43,1.16c.29.31.66.47,1.11.47Z"/><path d="m257.02,304.6c-.41,0-.75-.12-1-.35s-.38-.58-.38-1.03v-2.46h-.95v-.71h.95v-1.25h.77v1.25h1.3v.71h-1.3v2.36c0,.28.06.48.18.59.12.11.31.17.57.17.23,0,.41-.03.55-.09v.69c-.22.07-.45.11-.69.11Z"/><path d="m260.55,304.64c-.65,0-1.2-.22-1.62-.67-.43-.44-.64-1-.64-1.67s.21-1.24.63-1.68c.42-.44.97-.66,1.66-.66s1.24.25,1.64.74c.4.49.57,1.09.52,1.81h-3.66c.01.41.16.75.45,1.02.29.27.64.41,1.04.41.61,0,1.05-.25,1.3-.76h.79c-.11.42-.36.77-.73,1.04-.37.28-.83.41-1.38.41Zm.88-3.68c-.25-.21-.54-.32-.89-.32s-.66.11-.93.31c-.27.21-.44.52-.51.94h2.81c-.07-.41-.23-.72-.48-.93Z"/><path d="m264.82,301.1c-.13.13-.29.2-.47.2s-.34-.07-.47-.2c-.13-.13-.19-.29-.19-.48s.07-.34.2-.47.29-.2.47-.2.34.07.47.2.2.29.2.47-.07.35-.19.48Zm0,3.33c-.13.13-.29.2-.47.2s-.34-.07-.47-.2c-.13-.13-.19-.29-.19-.48s.07-.34.2-.47.29-.2.47-.2.34.07.47.2.2.29.2.47-.07.35-.19.48Z"/><path d="m269.06,304.55v-5.62h-1.23l.63-.77h1.38v6.39h-.77Z"/><path d="m275.26,303.81v.75h-4.14v-.31c0-.22.03-.43.1-.63.07-.2.14-.37.23-.51.08-.14.22-.29.4-.46s.32-.3.42-.38c.1-.08.27-.21.51-.38.24-.17.4-.28.48-.34.43-.31.72-.58.89-.79s.25-.49.25-.84-.11-.61-.32-.81c-.22-.2-.5-.3-.85-.3-.37,0-.68.11-.94.33-.26.22-.39.53-.39.93h-.79c0-.6.2-1.09.6-1.46.4-.37.9-.56,1.51-.56.56,0,1.03.16,1.41.49.38.32.56.79.56,1.39,0,.46-.11.85-.33,1.17s-.6.68-1.14,1.07c-.1.07-.25.17-.43.3-.19.13-.33.23-.43.31-.1.08-.21.17-.34.28-.12.11-.22.23-.29.35-.07.12-.12.26-.15.4h3.19Z"/><path d="m277.31,304.43c-.13.13-.29.2-.47.2s-.34-.07-.47-.2c-.13-.13-.19-.29-.19-.48s.07-.34.2-.47.29-.2.47-.2.34.07.47.2c.13.13.2.29.2.47s-.06.35-.19.48Z"/><path d="m278.94,304.55v-5.62h-1.23l.63-.77h1.38v6.39h-.77Z"/><path d="m284.6,304.03c-.41.41-.92.62-1.54.62s-1.13-.2-1.55-.61-.62-.91-.62-1.49c0-.31.06-.59.18-.84.12-.25.3-.51.54-.79l2.33-2.75h.98l-1.95,2.31c.11-.01.19-.02.25-.02.53,0,1,.2,1.4.61.4.41.6.89.6,1.45,0,.59-.21,1.1-.62,1.51Zm-1.54-.13c.38,0,.71-.13.97-.4s.4-.59.4-.97-.13-.7-.4-.97c-.26-.27-.59-.41-.97-.41s-.72.13-.98.4c-.26.27-.4.59-.4.98s.13.71.4.98c.26.27.59.4.98.4Z"/><path d="m288.26,304.64c-.64,0-1.17-.19-1.62-.58-.44-.39-.66-.87-.66-1.45h.78c.02.38.18.69.46.92.28.24.63.36,1.04.36.37,0,.68-.1.93-.31.25-.2.37-.49.37-.85,0-.38-.12-.67-.37-.86s-.59-.29-1.02-.29h-.48v-.71h.51c.34,0,.62-.1.84-.29.22-.19.33-.44.34-.75,0-.3-.11-.54-.33-.74-.22-.19-.49-.29-.82-.29-.38,0-.7.11-.95.33-.26.22-.39.53-.39.93h-.79c0-.61.2-1.1.61-1.47.41-.37.92-.55,1.52-.55.56,0,1.02.16,1.39.48.37.32.55.75.55,1.27,0,.31-.09.58-.25.83-.16.25-.37.44-.62.57.32.13.58.33.77.61.19.27.28.59.28.95,0,.56-.19,1.01-.58,1.36-.39.35-.89.52-1.5.52Z"/><path d="m89.88,111.04v-2.65c0-.37-.08-.67-.23-.9-.15-.23-.37-.34-.66-.34-.36,0-.65.14-.88.42-.23.28-.34.67-.36,1.15v2.3h-.77v-2.65c0-.38-.08-.68-.23-.9-.15-.22-.37-.33-.65-.33-.37,0-.67.15-.9.45-.23.3-.34.7-.34,1.2v2.23h-.77v-4.5h.77v.69c.29-.52.74-.78,1.36-.78.68,0,1.15.32,1.39.96.12-.29.31-.53.58-.7.26-.17.56-.26.9-.26.49,0,.87.17,1.15.5s.42.77.42,1.33v2.76h-.77Z"/><path d="m93.9,111.13c-.62,0-1.15-.23-1.57-.68s-.63-1.01-.63-1.66.21-1.2.63-1.66c.42-.46.95-.68,1.57-.68.33,0,.64.07.92.22.28.15.5.33.66.56v-.69h.77v4.5h-.77v-.69c-.16.23-.38.42-.66.56-.29.15-.59.22-.92.22Zm.12-.71c.44,0,.81-.16,1.1-.47.29-.31.43-.7.43-1.16s-.14-.85-.43-1.16c-.29-.31-.65-.47-1.1-.47s-.82.16-1.11.47c-.29.31-.43.7-.43,1.16s.14.85.43,1.16c.29.31.66.47,1.11.47Z"/><path d="m97.71,111.04v-6.75h.77v6.75h-.77Z"/><path d="m101.87,111.13c-.65,0-1.2-.22-1.62-.67-.43-.44-.64-1-.64-1.67s.21-1.24.63-1.68c.42-.44.97-.66,1.66-.66s1.24.25,1.64.74c.4.49.57,1.09.52,1.81h-3.66c.01.41.16.75.45,1.02.29.27.64.41,1.04.41.61,0,1.05-.25,1.3-.76h.79c-.11.42-.36.77-.73,1.04-.37.28-.83.41-1.38.41Zm.88-3.68c-.25-.21-.54-.32-.89-.32s-.66.1-.93.31c-.27.21-.44.52-.51.94h2.81c-.07-.41-.23-.72-.48-.93Z"/><path d="m109.19,111.13c-.62,0-1.15-.23-1.57-.68s-.63-1.01-.63-1.66.21-1.2.63-1.66c.42-.46.95-.68,1.57-.68.33,0,.64.07.92.22.28.15.5.33.66.56v-2.94h.77v6.75h-.77v-.69c-.16.23-.38.42-.66.56-.29.15-.59.22-.92.22Zm.12-.71c.44,0,.81-.16,1.1-.47.29-.31.43-.7.43-1.16s-.14-.85-.43-1.16c-.29-.31-.65-.47-1.1-.47s-.82.16-1.11.47c-.29.31-.43.7-.43,1.16s.14.85.43,1.16c.29.31.66.47,1.11.47Z"/><path d="m114.92,111.13c-.65,0-1.2-.22-1.62-.67-.43-.44-.64-1-.64-1.67s.21-1.24.63-1.68c.42-.44.97-.66,1.66-.66s1.24.25,1.64.74c.4.49.57,1.09.52,1.81h-3.66c.01.41.16.75.45,1.02.29.27.64.41,1.04.41.61,0,1.05-.25,1.3-.76h.79c-.11.42-.36.77-.73,1.04-.37.28-.83.41-1.38.41Zm.88-3.68c-.25-.21-.54-.32-.89-.32s-.66.1-.93.31c-.27.21-.44.52-.51.94h2.81c-.07-.41-.23-.72-.48-.93Z"/><path d="m120.07,111.13c-.62,0-1.15-.23-1.57-.68s-.63-1.01-.63-1.66.21-1.2.63-1.66c.42-.46.95-.68,1.57-.68.33,0,.64.07.92.22.28.15.5.33.66.56v-.69h.77v4.5h-.77v-.69c-.16.23-.38.42-.66.56-.29.15-.59.22-.92.22Zm.12-.71c.44,0,.81-.16,1.1-.47.29-.31.43-.7.43-1.16s-.14-.85-.43-1.16c-.29-.31-.65-.47-1.1-.47s-.82.16-1.11.47c-.29.31-.43.7-.43,1.16s.14.85.43,1.16c.29.31.66.47,1.11.47Z"/><path d="m125.63,111.08c-.41,0-.75-.12-1-.35s-.38-.58-.38-1.03v-2.46h-.95v-.71h.95v-1.25h.77v1.25h1.3v.71h-1.3v2.36c0,.28.06.48.18.59.12.11.31.17.57.17.23,0,.41-.03.55-.09v.69c-.22.07-.45.11-.69.11Z"/><path d="m128.09,111.04h-.77v-6.75h.77v2.94c.31-.52.78-.78,1.43-.78.51,0,.92.17,1.23.5.31.33.47.77.47,1.32v2.77h-.76v-2.65c0-.38-.1-.68-.29-.9-.19-.22-.45-.33-.77-.33-.37,0-.68.15-.93.44-.25.29-.37.7-.37,1.21v2.23Z"/><path d="m134.79,111.04v-4.5h.77v.87c.08-.28.25-.5.49-.67.24-.17.5-.25.77-.25.13,0,.25.01.35.04v.8c-.11-.05-.25-.07-.42-.07-.31,0-.59.13-.83.4-.24.27-.36.65-.36,1.14v2.23h-.77Z"/><path d="m139.78,111.13c-.62,0-1.15-.23-1.57-.68s-.63-1.01-.63-1.66.21-1.2.63-1.66c.42-.46.95-.68,1.57-.68.33,0,.64.07.92.22.28.15.5.33.66.56v-.69h.77v4.5h-.77v-.69c-.16.23-.38.42-.66.56-.29.15-.59.22-.92.22Zm.12-.71c.44,0,.81-.16,1.1-.47.29-.31.43-.7.43-1.16s-.14-.85-.43-1.16c-.29-.31-.65-.47-1.1-.47s-.82.16-1.11.47c-.29.31-.43.7-.43,1.16s.14.85.43,1.16c.29.31.66.47,1.11.47Z"/><path d="m145.34,111.08c-.41,0-.75-.12-1-.35s-.38-.58-.38-1.03v-2.46h-.95v-.71h.95v-1.25h.77v1.25h1.3v.71h-1.3v2.36c0,.28.06.48.18.59.12.11.31.17.57.17.23,0,.41-.03.55-.09v.69c-.22.07-.45.11-.69.11Z"/><path d="m148.88,111.13c-.65,0-1.2-.22-1.62-.67-.43-.44-.64-1-.64-1.67s.21-1.24.63-1.68c.42-.44.97-.66,1.66-.66s1.24.25,1.64.74c.4.49.57,1.09.52,1.81h-3.66c.01.41.16.75.45,1.02.29.27.64.41,1.04.41.61,0,1.05-.25,1.3-.76h.79c-.11.42-.36.77-.73,1.04-.37.28-.83.41-1.38.41Zm.88-3.68c-.25-.21-.54-.32-.89-.32s-.66.1-.93.31c-.27.21-.44.52-.51.94h2.81c-.07-.41-.23-.72-.48-.93Z"/><path d="m153.15,107.58c-.13.13-.29.2-.47.2s-.34-.07-.47-.2c-.13-.13-.19-.29-.19-.48s.07-.34.2-.47.29-.2.47-.2.34.07.47.2.2.29.2.47-.07.34-.19.48Zm0,3.33c-.13.13-.29.2-.47.2s-.34-.07-.47-.2-.19-.29-.19-.48.07-.34.2-.47.29-.2.47-.2.34.07.47.2.2.29.2.47-.07.34-.19.48Z"/><path d="m157.38,111.04v-5.62h-1.23l.63-.76h1.38v6.39h-.77Z"/><path d="m159.67,111.04l1.97-2.32c-.07,0-.15,0-.25,0-.53,0-1-.2-1.4-.61s-.6-.89-.6-1.44c0-.6.21-1.1.62-1.52.41-.41.92-.62,1.54-.62s1.13.2,1.55.61.62.91.62,1.49c0,.31-.06.59-.18.84s-.3.51-.54.79l-2.34,2.76h-.99Zm.9-3.4c.26.27.59.4.98.4s.72-.13.98-.4c.26-.27.4-.59.4-.98s-.13-.71-.4-.98c-.26-.27-.59-.4-.98-.4s-.72.13-.98.4c-.26.27-.39.59-.39.98s.13.71.39.98Z"/><path d="m164.9,110.91c-.13.13-.29.2-.47.2s-.34-.07-.47-.2-.19-.29-.19-.48.07-.34.2-.47.29-.2.47-.2.34.07.47.2c.13.13.2.29.2.47s-.06.34-.19.48Z"/><path d="m166.2,111.04l1.97-2.32c-.07,0-.15,0-.25,0-.53,0-1-.2-1.4-.61s-.6-.89-.6-1.44c0-.6.21-1.1.62-1.52.41-.41.92-.62,1.54-.62s1.13.2,1.55.61.62.91.62,1.49c0,.31-.06.59-.18.84s-.3.51-.54.79l-2.34,2.76h-.99Zm.9-3.4c.26.27.59.4.98.4s.72-.13.98-.4c.26-.27.4-.59.4-.98s-.13-.71-.4-.98c-.26-.27-.59-.4-.98-.4s-.72.13-.98.4c-.26.27-.39.59-.39.98s.13.71.39.98Z"/><path d="m171.87,111.04v-5.62h-1.23l.63-.76h1.38v6.39h-.77Z"/><path d="m174.15,111.04l1.97-2.32c-.07,0-.15,0-.25,0-.53,0-1-.2-1.4-.61s-.6-.89-.6-1.44c0-.6.21-1.1.62-1.52.41-.41.92-.62,1.54-.62s1.13.2,1.55.61.62.91.62,1.49c0,.31-.06.59-.18.84s-.3.51-.54.79l-2.34,2.76h-.99Zm.9-3.4c.26.27.59.4.98.4s.72-.13.98-.4c.26-.27.4-.59.4-.98s-.13-.71-.4-.98c-.26-.27-.59-.4-.98-.4s-.72.13-.98.4c-.26.27-.39.59-.39.98s.13.71.39.98Z"/><line class="cls-2" x1="120.1" y1="130.79" x2="141.52" y2="201.11"/><line class="cls-2" x1="168.29" y1="248.45" x2="217.64" y2="282.99"/></g></svg>