<?xml version="1.0" encoding="UTF-8"?><svg id="_图层_2" xmlns="http://www.w3.org/2000/svg" viewBox="0 0 360.2 353.83"><defs><style>.cls-1{fill:#fff;}.cls-2{fill:none;stroke:#241f20;stroke-miterlimit:10;stroke-width:.5px;}</style></defs><g id="_图层_1-2"><path class="cls-1" d="m338,302.13c-102.4,86.74-419.06,59.53-318.55-45.75,76.64-80.28,80.14-19.73,116.8-182.53,21.54-95.66,262.29-95.48,218.68-16.28-85.68,155.59,32.77,202.46-16.93,244.56Z"/><path d="m84.33,293.15v-7.1h.93v7.1h-.93Z"/><path d="m86.99,293.15v-5h.86v.77c.34-.58.87-.87,1.59-.87.57,0,1.02.18,1.37.55.35.37.52.86.52,1.47v3.08h-.85v-2.95c0-.42-.11-.75-.32-.99-.21-.24-.5-.37-.86-.37-.41,0-.76.16-1.04.49-.28.33-.41.77-.41,1.34v2.48h-.86Z"/><path d="m99.57,292.32v.83h-4.6v-.34c0-.25.04-.48.12-.71s.16-.41.26-.57c.09-.15.24-.32.44-.51.2-.19.36-.33.47-.42s.3-.23.57-.42c.27-.19.44-.32.53-.38.47-.35.8-.64.98-.88.18-.24.28-.55.28-.93s-.12-.67-.36-.9c-.24-.22-.55-.33-.94-.33-.41,0-.75.12-1.04.37-.29.25-.43.59-.43,1.03h-.88c0-.67.22-1.21.66-1.62.44-.41,1-.62,1.68-.62.63,0,1.15.18,1.56.54.42.36.62.87.62,1.54,0,.51-.12.94-.37,1.29-.25.36-.67.75-1.27,1.18-.11.08-.27.19-.48.33-.21.14-.37.26-.48.35-.11.09-.24.19-.38.31s-.24.25-.32.39c-.08.14-.13.28-.16.44h3.54Z"/><path d="m103.17,293.25c-.74,0-1.34-.25-1.81-.75-.47-.5-.7-1.14-.7-1.92v-1.98c0-.79.24-1.43.71-1.93.47-.5,1.07-.74,1.81-.74s1.34.25,1.81.75c.47.5.71,1.14.71,1.92v1.98c0,.79-.24,1.43-.71,1.92-.47.5-1.08.75-1.81.75Zm0-.84c.49,0,.89-.16,1.2-.49.31-.33.46-.77.46-1.34v-1.98c0-.57-.15-1.01-.46-1.34-.31-.33-.71-.49-1.2-.49s-.88.16-1.19.49c-.31.33-.46.77-.46,1.34v1.98c0,.57.15,1.01.46,1.34.31.33.7.49,1.19.49Z"/><path d="m111.38,292.32v.83h-4.6v-.34c0-.25.04-.48.12-.71.08-.22.16-.41.25-.57.09-.15.24-.32.44-.51.2-.19.36-.33.47-.42s.3-.23.57-.42c.27-.19.44-.32.53-.38.47-.35.8-.64.99-.88.18-.24.27-.55.27-.93s-.12-.67-.36-.9-.55-.33-.94-.33c-.41,0-.75.12-1.04.37s-.43.59-.43,1.03h-.88c0-.67.22-1.21.66-1.62.44-.41,1-.62,1.68-.62.62,0,1.15.18,1.56.54.42.36.62.87.62,1.54,0,.51-.12.94-.37,1.29-.25.36-.67.75-1.27,1.18-.11.08-.27.19-.48.33-.21.14-.37.26-.48.35-.11.09-.24.19-.38.31s-.24.25-.32.39-.13.28-.17.44h3.54Z"/><path d="m114.98,293.25c-.74,0-1.34-.25-1.81-.75-.47-.5-.7-1.14-.7-1.92v-1.98c0-.79.23-1.43.71-1.93.47-.5,1.07-.74,1.8-.74s1.34.25,1.81.75c.47.5.71,1.14.71,1.92v1.98c0,.79-.24,1.43-.71,1.92-.47.5-1.08.75-1.81.75Zm0-.84c.49,0,.89-.16,1.2-.49.31-.33.46-.77.46-1.34v-1.98c0-.57-.15-1.01-.46-1.34-.31-.33-.71-.49-1.2-.49s-.88.16-1.19.49c-.31.33-.46.77-.46,1.34v1.98c0,.57.15,1.01.46,1.34.31.33.7.49,1.19.49Z"/><path d="m123.09,293.2c-.46,0-.83-.13-1.11-.39-.28-.26-.42-.64-.42-1.14v-2.73h-1.06v-.79h1.06v-1.39h.86v1.39h1.44v.79h-1.44v2.62c0,.31.07.53.2.66.13.13.34.19.63.19.25,0,.46-.03.61-.1v.77c-.24.08-.5.12-.77.12Z"/><path d="m125.82,293.15h-.86v-7.5h.86v3.27c.34-.58.87-.87,1.59-.87.57,0,1.02.18,1.37.55.35.37.52.86.52,1.47v3.08h-.85v-2.95c0-.42-.11-.75-.32-.99-.21-.24-.5-.37-.86-.37-.41,0-.76.16-1.04.49-.28.33-.42.77-.42,1.34v2.48Z"/><path d="m132.98,293.25c-.73,0-1.33-.25-1.8-.74-.48-.49-.71-1.11-.71-1.86s.23-1.38.7-1.87c.46-.49,1.08-.74,1.84-.74s1.38.27,1.82.82.63,1.22.58,2.01h-4.07c.01.45.18.83.5,1.14s.71.45,1.16.45c.68,0,1.16-.28,1.45-.84h.88c-.13.47-.4.85-.81,1.16-.41.31-.92.46-1.53.46Zm.98-4.09c-.27-.24-.6-.35-.99-.35s-.73.12-1.04.35-.49.58-.56,1.04h3.12c-.08-.45-.26-.8-.53-1.04Z"/><path d="m136.64,293.15v-5h.86v.97c.09-.31.28-.55.54-.74.27-.19.55-.28.86-.28.15,0,.28.01.39.04v.89c-.12-.05-.28-.08-.47-.08-.35,0-.65.15-.92.45-.27.3-.4.72-.4,1.27v2.48h-.86Z"/><path d="m142.25,293.25c-.73,0-1.33-.25-1.81-.74-.48-.49-.71-1.11-.71-1.86s.23-1.38.7-1.87c.46-.49,1.08-.74,1.85-.74s1.38.27,1.82.82c.44.55.63,1.22.58,2.01h-4.07c.01.45.18.83.5,1.14s.71.45,1.16.45c.68,0,1.16-.28,1.45-.84h.88c-.13.47-.4.85-.81,1.16-.41.31-.92.46-1.53.46Zm.98-4.09c-.27-.24-.6-.35-.99-.35s-.73.12-1.04.35c-.3.23-.49.58-.56,1.04h3.12c-.08-.45-.26-.8-.53-1.04Z"/><path d="m152.38,293.15l-1.24-3.59-1.23,3.59h-.76l-1.7-5h.9l1.21,3.65,1.25-3.65h.66l1.25,3.65,1.21-3.65h.91l-1.7,5h-.76Z"/><path d="m157.88,293.25c-.73,0-1.33-.25-1.81-.74-.48-.49-.71-1.11-.71-1.86s.23-1.38.7-1.87c.46-.49,1.08-.74,1.85-.74s1.38.27,1.82.82c.44.55.63,1.22.58,2.01h-4.07c.01.45.18.83.5,1.14s.71.45,1.16.45c.68,0,1.16-.28,1.45-.84h.88c-.13.47-.4.85-.81,1.16-.41.31-.92.46-1.53.46Zm.98-4.09c-.27-.24-.6-.35-.99-.35s-.73.12-1.04.35c-.3.23-.49.58-.56,1.04h3.12c-.08-.45-.26-.8-.53-1.04Z"/><path d="m161.54,293.15v-5h.86v.97c.09-.31.28-.55.54-.74.27-.19.55-.28.86-.28.15,0,.28.01.39.04v.89c-.12-.05-.28-.08-.47-.08-.35,0-.65.15-.92.45-.27.3-.4.72-.4,1.27v2.48h-.86Z"/><path d="m167.15,293.25c-.73,0-1.33-.25-1.81-.74-.48-.49-.71-1.11-.71-1.86s.23-1.38.7-1.87c.46-.49,1.08-.74,1.85-.74s1.38.27,1.82.82c.44.55.63,1.22.58,2.01h-4.07c.01.45.18.83.5,1.14s.71.45,1.16.45c.68,0,1.16-.28,1.45-.84h.88c-.13.47-.4.85-.81,1.16-.41.31-.92.46-1.53.46Zm.98-4.09c-.27-.24-.6-.35-.99-.35s-.73.12-1.04.35c-.3.23-.49.58-.56,1.04h3.12c-.08-.45-.26-.8-.53-1.04Z"/><path d="m177.5,292.32v.83h-4.6v-.34c0-.25.04-.48.12-.71.08-.22.16-.41.25-.57.09-.15.24-.32.44-.51.2-.19.36-.33.47-.42s.3-.23.57-.42c.27-.19.44-.32.53-.38.47-.35.8-.64.99-.88.18-.24.27-.55.27-.93s-.12-.67-.36-.9-.55-.33-.94-.33c-.41,0-.75.12-1.04.37s-.43.59-.43,1.03h-.88c0-.67.22-1.21.66-1.62.44-.41,1-.62,1.68-.62.62,0,1.15.18,1.56.54.42.36.62.87.62,1.54,0,.51-.12.94-.37,1.29-.25.36-.67.75-1.27,1.18-.11.08-.27.19-.48.33-.21.14-.37.26-.48.35-.11.09-.24.19-.38.31s-.24.25-.32.39-.13.28-.17.44h3.54Z"/><path d="m183.08,292.32v.83h-4.6v-.34c0-.25.04-.48.12-.71.08-.22.16-.41.25-.57.09-.15.24-.32.44-.51.2-.19.36-.33.47-.42s.3-.23.57-.42c.27-.19.44-.32.53-.38.47-.35.8-.64.99-.88.18-.24.27-.55.27-.93s-.12-.67-.36-.9-.55-.33-.94-.33c-.41,0-.75.12-1.04.37s-.43.59-.43,1.03h-.88c0-.67.22-1.21.66-1.62.44-.41,1-.62,1.68-.62.62,0,1.15.18,1.56.54.42.36.62.87.62,1.54,0,.51-.12.94-.37,1.29-.25.36-.67.75-1.27,1.18-.11.08-.27.19-.48.33-.21.14-.37.26-.48.35-.11.09-.24.19-.38.31s-.24.25-.32.39-.13.28-.17.44h3.54Z"/><path d="m185.35,293.01c-.14.15-.32.22-.53.22s-.38-.07-.53-.22-.21-.32-.21-.53.07-.38.22-.52c.15-.15.32-.23.52-.23s.37.08.52.23c.15.15.22.32.22.52s-.07.38-.21.53Z"/><path d="m188.83,293.25c-.64,0-1.19-.2-1.66-.6s-.71-.87-.72-1.42h.88c.08.35.26.63.53.85.27.22.6.33.97.33.43,0,.79-.15,1.09-.44.29-.29.44-.65.44-1.08s-.14-.8-.42-1.09c-.28-.29-.64-.44-1.07-.44-.59,0-1.04.24-1.34.72l-.82-.24.73-3.79h3.32v.84h-2.63l-.39,2.03c.35-.25.76-.37,1.24-.37.66,0,1.2.23,1.62.7.42.46.64,1.05.64,1.76,0,.63-.23,1.16-.69,1.59-.46.44-1.03.66-1.72.66Z"/><path d="m195.72,295.24h-.86v-7.09h.86v.77c.17-.25.42-.46.74-.62.32-.16.66-.25,1.02-.25.69,0,1.28.25,1.75.76.47.51.71,1.12.71,1.84s-.24,1.33-.71,1.84c-.47.51-1.05.76-1.75.76-.37,0-.71-.08-1.02-.25-.32-.16-.56-.37-.74-.62v2.86Zm.41-3.3c.32.35.73.52,1.22.52s.9-.17,1.22-.52c.32-.35.48-.78.48-1.29s-.16-.94-.48-1.29c-.32-.35-.73-.52-1.22-.52s-.9.17-1.22.52-.48.78-.48,1.29.16.94.48,1.29Z"/><path d="m203.3,293.25c-.73,0-1.33-.25-1.8-.74-.48-.49-.71-1.11-.71-1.86s.23-1.38.7-1.87c.46-.49,1.08-.74,1.84-.74s1.38.27,1.82.82.63,1.22.58,2.01h-4.07c.01.45.18.83.5,1.14s.71.45,1.16.45c.68,0,1.16-.28,1.45-.84h.88c-.13.47-.4.85-.81,1.16-.41.31-.92.46-1.53.46Zm.98-4.09c-.27-.24-.6-.35-.99-.35s-.73.12-1.04.35-.49.58-.56,1.04h3.12c-.08-.45-.26-.8-.53-1.04Z"/><path d="m206.96,293.15v-5h.86v.97c.09-.31.28-.55.54-.74.27-.19.55-.28.86-.28.15,0,.28.01.39.04v.89c-.12-.05-.28-.08-.47-.08-.35,0-.65.15-.92.45-.27.3-.4.72-.4,1.27v2.48h-.86Z"/><path d="m213.42,293.15v-6.25h-1.37l.7-.85h1.53v7.1h-.86Z"/><path d="m218.33,293.25c-.74,0-1.34-.25-1.81-.75-.47-.5-.7-1.14-.7-1.92v-1.98c0-.79.24-1.43.71-1.93.47-.5,1.07-.74,1.81-.74s1.34.25,1.81.75c.47.5.71,1.14.71,1.92v1.98c0,.79-.24,1.43-.71,1.92-.47.5-1.08.75-1.81.75Zm0-.84c.49,0,.89-.16,1.2-.49.31-.33.46-.77.46-1.34v-1.98c0-.57-.15-1.01-.46-1.34-.31-.33-.71-.49-1.2-.49s-.88.16-1.19.49c-.31.33-.46.77-.46,1.34v1.98c0,.57.15,1.01.46,1.34.31.33.7.49,1.19.49Z"/><path d="m224.56,293.25c-.74,0-1.34-.25-1.81-.75-.47-.5-.7-1.14-.7-1.92v-1.98c0-.79.23-1.43.71-1.93.47-.5,1.07-.74,1.8-.74s1.34.25,1.81.75c.47.5.71,1.14.71,1.92v1.98c0,.79-.24,1.43-.71,1.92-.47.5-1.08.75-1.81.75Zm0-.84c.49,0,.89-.16,1.2-.49.31-.33.46-.77.46-1.34v-1.98c0-.57-.15-1.01-.46-1.34-.31-.33-.71-.49-1.2-.49s-.88.16-1.19.49c-.31.33-.46.77-.46,1.34v1.98c0,.57.15,1.01.46,1.34.31.33.7.49,1.19.49Z"/><path d="m229.4,292.93l-1.03,1.65h-.57l.67-1.43c-.27-.13-.41-.36-.41-.67,0-.2.07-.38.22-.52.15-.15.32-.23.52-.23s.37.08.52.23c.15.15.22.32.22.52,0,.15-.05.3-.14.45Z"/><path d="m233.03,293.25c-.74,0-1.34-.25-1.81-.75-.47-.5-.7-1.14-.7-1.92v-1.98c0-.79.24-1.43.71-1.93.47-.5,1.07-.74,1.81-.74s1.34.25,1.81.75c.47.5.71,1.14.71,1.92v1.98c0,.79-.24,1.43-.71,1.92-.47.5-1.08.75-1.81.75Zm0-.84c.49,0,.89-.16,1.2-.49.31-.33.46-.77.46-1.34v-1.98c0-.57-.15-1.01-.46-1.34-.31-.33-.71-.49-1.2-.49s-.88.16-1.19.49c-.31.33-.46.77-.46,1.34v1.98c0,.57.15,1.01.46,1.34.31.33.7.49,1.19.49Z"/><path d="m239.26,293.25c-.74,0-1.34-.25-1.81-.75-.47-.5-.7-1.14-.7-1.92v-1.98c0-.79.23-1.43.71-1.93.47-.5,1.07-.74,1.8-.74s1.34.25,1.81.75c.47.5.71,1.14.71,1.92v1.98c0,.79-.24,1.43-.71,1.92-.47.5-1.08.75-1.81.75Zm0-.84c.49,0,.89-.16,1.2-.49.31-.33.46-.77.46-1.34v-1.98c0-.57-.15-1.01-.46-1.34-.31-.33-.71-.49-1.2-.49s-.88.16-1.19.49c-.31.33-.46.77-.46,1.34v1.98c0,.57.15,1.01.46,1.34.31.33.7.49,1.19.49Z"/><path d="m245.49,293.25c-.74,0-1.34-.25-1.81-.75-.47-.5-.7-1.14-.7-1.92v-1.98c0-.79.24-1.43.71-1.93.47-.5,1.07-.74,1.81-.74s1.34.25,1.81.75c.47.5.71,1.14.71,1.92v1.98c0,.79-.24,1.43-.71,1.92-.47.5-1.08.75-1.81.75Zm0-.84c.49,0,.89-.16,1.2-.49.31-.33.46-.77.46-1.34v-1.98c0-.57-.15-1.01-.46-1.34-.31-.33-.71-.49-1.2-.49s-.88.16-1.19.49c-.31.33-.46.77-.46,1.34v1.98c0,.57.15,1.01.46,1.34.31.33.7.49,1.19.49Z"/><path d="m253.89,293.25c-.69,0-1.28-.25-1.74-.76-.47-.51-.71-1.12-.71-1.84s.23-1.33.71-1.84c.47-.51,1.05-.76,1.74-.76.37,0,.71.08,1.03.25.32.16.56.37.73.62v-3.27h.86v7.5h-.86v-.77c-.17.25-.42.46-.73.62-.32.16-.66.25-1.03.25Zm.13-.79c.49,0,.9-.17,1.22-.52.32-.35.48-.78.48-1.29s-.16-.94-.48-1.29c-.32-.35-.73-.52-1.22-.52s-.91.17-1.23.52-.48.78-.48,1.29.16.94.48,1.29.73.52,1.23.52Z"/><path d="m260.26,293.25c-.73,0-1.33-.25-1.81-.74-.48-.49-.71-1.11-.71-1.86s.23-1.38.7-1.87c.46-.49,1.08-.74,1.85-.74s1.38.27,1.82.82c.44.55.63,1.22.58,2.01h-4.07c.01.45.18.83.5,1.14s.71.45,1.16.45c.68,0,1.16-.28,1.45-.84h.88c-.13.47-.4.85-.81,1.16-.41.31-.92.46-1.53.46Zm.98-4.09c-.27-.24-.6-.35-.99-.35s-.73.12-1.04.35c-.3.23-.49.58-.56,1.04h3.12c-.08-.45-.26-.8-.53-1.04Z"/><path d="m265.98,293.25c-.69,0-1.28-.25-1.74-.76-.47-.51-.71-1.12-.71-1.84s.23-1.33.71-1.84c.47-.51,1.05-.76,1.74-.76.37,0,.71.08,1.03.25.32.16.56.37.73.62v-.77h.86v5h-.86v-.77c-.17.25-.42.46-.73.62-.32.16-.66.25-1.03.25Zm.13-.79c.49,0,.9-.17,1.22-.52.32-.35.48-.78.48-1.29s-.16-.94-.48-1.29c-.32-.35-.73-.52-1.22-.52s-.91.17-1.23.52-.48.78-.48,1.29.16.94.48,1.29.73.52,1.23.52Z"/><path d="m272.15,293.2c-.46,0-.83-.13-1.11-.39-.28-.26-.42-.64-.42-1.14v-2.73h-1.06v-.79h1.06v-1.39h.86v1.39h1.44v.79h-1.44v2.62c0,.31.07.53.2.66.13.13.34.19.63.19.25,0,.46-.03.61-.1v.77c-.24.08-.5.12-.77.12Z"/><path d="m274.89,293.15h-.86v-7.5h.86v3.27c.34-.58.87-.87,1.59-.87.57,0,1.02.18,1.37.55.35.37.52.86.52,1.47v3.08h-.85v-2.95c0-.42-.11-.75-.32-.99-.21-.24-.5-.37-.86-.37-.41,0-.76.16-1.04.49-.28.33-.41.77-.41,1.34v2.48Z"/><path d="m281.52,293.25c-.56,0-1.03-.14-1.4-.41s-.59-.65-.62-1.14h.88c.05.28.19.49.41.62s.47.2.75.2.52-.06.7-.17c.18-.11.27-.28.27-.49,0-.2-.06-.36-.2-.49-.13-.13-.34-.23-.63-.31l-.72-.19c-.86-.23-1.29-.72-1.29-1.47,0-.41.16-.73.48-.98.32-.25.74-.37,1.25-.37s.93.14,1.26.41c.33.27.52.61.55,1.02h-.86c-.07-.22-.19-.39-.36-.52-.17-.13-.37-.19-.6-.19-.25,0-.45.06-.62.17-.16.11-.25.26-.25.45s.06.33.18.44c.12.11.31.21.58.28l.8.21c.85.21,1.28.71,1.28,1.48,0,.48-.17.84-.51,1.09-.34.24-.78.37-1.33.37Z"/><path d="m86.82,305.25c-.37,0-.71-.08-1.02-.25-.32-.16-.56-.37-.74-.62v.77h-.86v-7.5h.86v3.27c.17-.25.42-.46.74-.62.32-.16.66-.25,1.02-.25.69,0,1.28.25,1.75.76.47.51.71,1.12.71,1.84s-.24,1.33-.71,1.84c-.47.51-1.05.76-1.75.76Zm-1.35-1.31c.32.35.73.52,1.22.52s.9-.17,1.22-.52c.32-.35.48-.78.48-1.29s-.16-.94-.48-1.29c-.32-.35-.73-.52-1.22-.52s-.9.17-1.22.52-.48.78-.48,1.29.16.94.48,1.29Z"/><path d="m92.63,305.25c-.73,0-1.33-.25-1.8-.74-.48-.49-.71-1.11-.71-1.86s.23-1.38.7-1.87c.46-.49,1.08-.74,1.84-.74s1.38.27,1.82.82.63,1.22.58,2.01h-4.07c.01.45.18.83.5,1.14s.71.45,1.16.45c.68,0,1.16-.28,1.45-.84h.88c-.13.47-.4.85-.81,1.16-.41.31-.92.46-1.53.46Zm.98-4.09c-.27-.24-.6-.35-.99-.35s-.73.12-1.04.35-.49.58-.56,1.04h3.12c-.08-.45-.26-.8-.53-1.04Z"/><path d="m98.51,305.25c-.75,0-1.38-.25-1.87-.76-.49-.5-.74-1.12-.74-1.84s.25-1.34.74-1.84c.49-.5,1.12-.76,1.87-.76.62,0,1.16.17,1.61.52s.76.79.91,1.34h-.92c-.12-.33-.32-.59-.6-.78-.28-.19-.61-.29-1-.29-.51,0-.93.17-1.26.52s-.48.78-.48,1.29.16.94.48,1.29.74.52,1.26.52c.39,0,.72-.1,1-.29.28-.19.48-.45.6-.78h.92c-.15.55-.45,1-.9,1.34s-.99.52-1.62.52Z"/><path d="m104.23,305.25c-.69,0-1.28-.25-1.74-.76-.47-.51-.71-1.12-.71-1.84s.23-1.33.71-1.84c.47-.51,1.05-.76,1.74-.76.37,0,.71.08,1.03.25.32.16.56.37.73.62v-.77h.86v5h-.86v-.77c-.17.25-.42.46-.73.62-.32.16-.66.25-1.03.25Zm.13-.79c.49,0,.9-.17,1.22-.52.32-.35.48-.78.48-1.29s-.16-.94-.48-1.29c-.32-.35-.73-.52-1.22-.52s-.91.17-1.23.52-.48.78-.48,1.29.16.94.48,1.29.73.52,1.23.52Z"/><path d="m110.24,305.25c-.55,0-.99-.19-1.33-.56s-.51-.86-.51-1.48v-3.07h.86v2.94c0,.42.1.75.31,1,.2.25.48.37.82.37.4,0,.73-.16.99-.49.26-.33.4-.78.4-1.34v-2.48h.86v5h-.86v-.77c-.33.58-.84.87-1.54.87Z"/><path d="m115.87,305.25c-.56,0-1.03-.14-1.41-.41-.38-.27-.58-.65-.62-1.14h.88c.05.28.19.49.4.62s.47.2.76.2.52-.06.7-.17c.18-.11.26-.28.26-.49,0-.2-.06-.36-.19-.49-.13-.13-.34-.23-.64-.31l-.72-.19c-.86-.23-1.29-.72-1.29-1.47,0-.41.16-.73.49-.98.32-.25.74-.37,1.24-.37s.94.14,1.27.41c.33.27.51.61.55,1.02h-.86c-.07-.22-.19-.39-.36-.52-.17-.13-.37-.19-.61-.19-.25,0-.45.06-.62.17-.16.11-.24.26-.24.45s.06.33.18.44.31.21.58.28l.8.21c.85.21,1.28.71,1.28,1.48,0,.48-.17.84-.51,1.09-.34.24-.78.37-1.33.37Z"/><path d="m121.06,305.25c-.73,0-1.33-.25-1.8-.74-.48-.49-.71-1.11-.71-1.86s.23-1.38.7-1.87c.46-.49,1.08-.74,1.84-.74s1.38.27,1.82.82.63,1.22.58,2.01h-4.07c.01.45.18.83.5,1.14s.71.45,1.16.45c.68,0,1.16-.28,1.45-.84h.88c-.13.47-.4.85-.81,1.16-.41.31-.92.46-1.53.46Zm.98-4.09c-.27-.24-.6-.35-.99-.35s-.73.12-1.04.35-.49.58-.56,1.04h3.12c-.08-.45-.26-.8-.53-1.04Z"/><path d="m129.35,305.25c-.75,0-1.38-.25-1.88-.76-.5-.5-.75-1.12-.75-1.84s.25-1.34.75-1.84c.5-.5,1.12-.76,1.88-.76s1.37.25,1.86.76c.5.5.75,1.12.75,1.84s-.25,1.34-.75,1.84c-.5.5-1.12.76-1.86.76Zm-1.26-1.32c.32.35.74.52,1.26.52s.93-.17,1.25-.52c.32-.35.48-.77.48-1.28s-.16-.93-.48-1.28c-.32-.35-.74-.52-1.25-.52s-.93.17-1.26.52c-.32.35-.48.77-.48,1.28s.16.93.48,1.28Z"/><path d="m133.53,305.15v-4.21h-1.06v-.79h1.06v-1.01c0-.5.14-.88.42-1.15.28-.27.65-.4,1.11-.4.27,0,.53.04.78.13v.76c-.15-.07-.36-.1-.62-.1-.29,0-.5.06-.63.19-.13.13-.2.35-.2.66v.92h1.45v.79h-1.45v4.21h-.86Z"/><path d="m142.26,305.27c-1.04,0-1.92-.35-2.62-1.05-.7-.7-1.05-1.58-1.05-2.62s.35-1.91,1.05-2.62c.71-.7,1.58-1.05,2.62-1.05.85,0,1.59.24,2.22.72.62.48,1.02,1.06,1.18,1.74h-.98c-.17-.46-.47-.84-.9-1.14-.44-.3-.94-.44-1.52-.44-.79,0-1.44.27-1.96.8-.52.54-.79,1.2-.79,1.99s.26,1.45.79,1.98c.52.54,1.18.81,1.96.81.57,0,1.08-.15,1.52-.45.44-.3.74-.67.9-1.13h.98c-.17.68-.56,1.26-1.18,1.74-.62.48-1.36.72-2.22.72Z"/><path d="m148.94,305.25c-.73,0-1.33-.25-1.81-.74-.48-.49-.71-1.11-.71-1.86s.23-1.38.7-1.87c.46-.49,1.08-.74,1.85-.74s1.38.27,1.82.82c.44.55.63,1.22.58,2.01h-4.07c.01.45.18.83.5,1.14s.71.45,1.16.45c.68,0,1.16-.28,1.45-.84h.88c-.13.47-.4.85-.81,1.16-.41.31-.92.46-1.53.46Zm.98-4.09c-.27-.24-.6-.35-.99-.35s-.73.12-1.04.35c-.3.23-.49.58-.56,1.04h3.12c-.08-.45-.26-.8-.53-1.04Z"/><path d="m152.6,305.15v-5h.86v.97c.09-.31.28-.55.54-.74.27-.19.55-.28.86-.28.15,0,.28.01.39.04v.89c-.12-.05-.28-.08-.47-.08-.35,0-.65.15-.92.45-.27.3-.4.72-.4,1.27v2.48h-.86Z"/><path d="m158.21,305.25c-.73,0-1.33-.25-1.8-.74-.48-.49-.71-1.11-.71-1.86s.23-1.38.7-1.87c.46-.49,1.08-.74,1.84-.74s1.38.27,1.82.82.63,1.22.58,2.01h-4.07c.01.45.18.83.5,1.14s.71.45,1.16.45c.68,0,1.16-.28,1.45-.84h.88c-.13.47-.4.85-.81,1.16-.41.31-.92.46-1.53.46Zm.98-4.09c-.27-.24-.6-.35-.99-.35s-.73.12-1.04.35-.49.58-.56,1.04h3.12c-.08-.45-.26-.8-.53-1.04Z"/><path d="m164.49,305.25c-.37,0-.71-.08-1.02-.25-.32-.16-.56-.37-.74-.62v.77h-.86v-7.5h.86v3.27c.17-.25.42-.46.74-.62.32-.16.66-.25,1.02-.25.69,0,1.28.25,1.75.76.47.51.71,1.12.71,1.84s-.24,1.33-.71,1.84c-.47.51-1.05.76-1.75.76Zm-1.35-1.31c.32.35.73.52,1.22.52s.9-.17,1.22-.52c.32-.35.48-.78.48-1.29s-.16-.94-.48-1.29c-.32-.35-.73-.52-1.22-.52s-.9.17-1.22.52-.48.78-.48,1.29.16.94.48,1.29Z"/><path d="m168.17,305.15v-5h.86v.97c.09-.31.28-.55.54-.74.27-.19.55-.28.86-.28.15,0,.28.01.39.04v.89c-.12-.05-.28-.08-.47-.08-.35,0-.65.15-.92.45-.27.3-.4.72-.4,1.27v2.48h-.86Z"/><path d="m173.87,305.25c-.75,0-1.38-.25-1.88-.76-.5-.5-.74-1.12-.74-1.84s.25-1.34.74-1.84c.5-.5,1.12-.76,1.88-.76s1.37.25,1.87.76c.5.5.74,1.12.74,1.84s-.25,1.34-.74,1.84c-.5.5-1.12.76-1.87.76Zm-1.25-1.32c.32.35.74.52,1.25.52s.93-.17,1.25-.52.48-.77.48-1.28-.16-.93-.48-1.28c-.32-.35-.74-.52-1.25-.52s-.93.17-1.25.52c-.32.35-.49.77-.49,1.28s.16.93.49,1.28Z"/><path d="m179.16,305.15l-2.31-5h.96l1.71,3.79,1.71-3.79h.96l-2.31,5h-.72Z"/><path d="m185.02,305.25c-.69,0-1.28-.25-1.75-.76-.47-.51-.71-1.12-.71-1.84s.24-1.33.71-1.84c.47-.51,1.05-.76,1.75-.76.37,0,.71.08,1.02.25.32.16.56.37.74.62v-.77h.86v5h-.86v-.77c-.17.25-.42.46-.74.62-.32.16-.66.25-1.02.25Zm.13-.79c.49,0,.9-.17,1.22-.52s.48-.78.48-1.29-.16-.94-.48-1.29-.73-.52-1.22-.52-.91.17-1.23.52c-.32.35-.48.78-.48,1.29s.16.94.48,1.29c.32.35.73.52,1.23.52Z"/><path d="m190.87,305.25c-.56,0-1.03-.14-1.41-.41-.38-.27-.58-.65-.62-1.14h.88c.05.28.19.49.4.62s.47.2.76.2.52-.06.7-.17c.18-.11.26-.28.26-.49,0-.2-.06-.36-.19-.49-.13-.13-.34-.23-.64-.31l-.72-.19c-.86-.23-1.29-.72-1.29-1.47,0-.41.16-.73.49-.98.32-.25.74-.37,1.24-.37s.94.14,1.27.41c.33.27.51.61.55,1.02h-.86c-.07-.22-.19-.39-.36-.52-.17-.13-.37-.19-.61-.19-.25,0-.45.06-.62.17-.16.11-.24.26-.24.45s.06.33.18.44.31.21.58.28l.8.21c.85.21,1.28.71,1.28,1.48,0,.48-.17.84-.51,1.09-.34.24-.78.37-1.33.37Z"/><path d="m196.15,305.25c-.75,0-1.38-.25-1.87-.76-.49-.5-.74-1.12-.74-1.84s.25-1.34.74-1.84c.49-.5,1.12-.76,1.87-.76.62,0,1.16.17,1.61.52.46.34.76.79.91,1.34h-.92c-.12-.33-.32-.59-.6-.78s-.61-.29-1-.29c-.51,0-.93.17-1.25.52-.32.35-.49.78-.49,1.29s.16.94.49,1.29c.32.35.74.52,1.25.52.39,0,.72-.1,1-.29s.48-.45.6-.78h.92c-.15.55-.45,1-.9,1.34-.46.34-.99.52-1.62.52Z"/><path d="m201.58,305.25c-.55,0-.99-.19-1.33-.56s-.51-.86-.51-1.48v-3.07h.86v2.94c0,.42.1.75.31,1,.2.25.48.37.82.37.4,0,.73-.16.99-.49.26-.33.4-.78.4-1.34v-2.48h.86v5h-.86v-.77c-.33.58-.84.87-1.54.87Z"/><path d="m205.6,305.15v-7.5h.86v7.5h-.86Z"/><path d="m210.15,305.25c-.69,0-1.28-.25-1.74-.76-.47-.51-.71-1.12-.71-1.84s.23-1.33.71-1.84c.47-.51,1.05-.76,1.74-.76.37,0,.71.08,1.03.25.32.16.56.37.73.62v-.77h.86v5h-.86v-.77c-.17.25-.42.46-.73.62-.32.16-.66.25-1.03.25Zm.13-.79c.49,0,.9-.17,1.22-.52.32-.35.48-.78.48-1.29s-.16-.94-.48-1.29c-.32-.35-.73-.52-1.22-.52s-.91.17-1.23.52-.48.78-.48,1.29.16.94.48,1.29.73.52,1.23.52Z"/><path d="m214.39,305.15v-5h.86v.97c.09-.31.28-.55.54-.74.27-.19.55-.28.86-.28.15,0,.28.01.39.04v.89c-.12-.05-.28-.08-.47-.08-.35,0-.65.15-.92.45-.27.3-.4.72-.4,1.27v2.48h-.86Z"/><path d="m218.48,305.01c-.14.15-.32.22-.53.22s-.38-.07-.53-.22-.21-.32-.21-.53.07-.38.22-.52c.15-.15.32-.23.52-.23s.37.08.52.23c.15.15.22.32.22.52s-.07.38-.21.53Z"/><line class="cls-2" x1="181.3" y1="185.07" x2="193.9" y2="271.2"/><line class="cls-2" x1="263.21" y1="73.43" x2="207.91" y2="133.55"/><path d="m140.8,168.25h-.7c-.85-1.55-1.28-3.15-1.28-4.8s.43-3.25,1.28-4.8h.7c-.81,1.57-1.21,3.17-1.21,4.8s.4,3.23,1.21,4.8Z"/><path d="m144.79,166.65v-1.93h-3.78v-.69l3.89-4.48h.75v4.36h.98v.81h-.98v1.93h-.86Zm-2.66-2.74h2.66v-3.06l-2.66,3.06Z"/><path d="m152.04,165.82v.83h-4.6v-.34c0-.25.04-.48.12-.71.08-.22.16-.41.26-.57.09-.15.24-.33.44-.51.2-.19.36-.33.47-.42s.3-.23.57-.42c.27-.19.44-.32.53-.38.47-.35.8-.64.98-.88.18-.24.28-.55.28-.94s-.12-.67-.36-.89c-.24-.22-.55-.33-.94-.33-.41,0-.75.12-1.04.37-.29.25-.43.59-.43,1.03h-.88c0-.67.22-1.21.66-1.62.44-.41,1-.62,1.68-.62.63,0,1.15.18,1.56.54.42.36.62.87.62,1.54,0,.51-.12.94-.37,1.29-.25.36-.67.75-1.27,1.19-.11.08-.27.19-.48.33s-.37.26-.48.34c-.11.09-.24.19-.38.32s-.24.25-.32.39c-.08.14-.13.29-.16.45h3.54Z"/><path d="m154.31,166.51c-.14.15-.32.22-.53.22s-.38-.07-.52-.22c-.14-.15-.22-.32-.22-.53s.07-.38.22-.53.32-.22.52-.22.37.07.52.22c.15.15.22.33.22.53s-.07.38-.21.53Z"/><path d="m155.75,166.65l2.19-2.58c-.07,0-.17,0-.28,0-.59,0-1.11-.23-1.55-.68s-.67-.99-.67-1.6c0-.67.23-1.23.69-1.68s1.03-.69,1.71-.69,1.26.23,1.72.68c.46.45.69,1.01.69,1.66,0,.35-.07.66-.21.93s-.33.57-.59.88l-2.6,3.07h-1.1Zm1.01-3.78c.29.3.65.45,1.08.45s.8-.15,1.09-.45.44-.66.44-1.08-.15-.79-.44-1.08-.66-.45-1.09-.45-.79.15-1.08.45c-.29.3-.44.66-.44,1.08s.14.79.44,1.08Z"/><path d="m162.89,163.41c-.55,0-1.01-.19-1.4-.58-.38-.39-.57-.85-.57-1.39s.19-1.01.57-1.4c.38-.38.85-.58,1.4-.58s1,.19,1.39.58c.39.38.58.85.58,1.4s-.19,1-.58,1.39-.85.58-1.39.58Zm0-.78c.32,0,.6-.12.83-.35.23-.24.35-.52.35-.83s-.12-.6-.35-.83c-.23-.24-.51-.36-.83-.36s-.61.12-.84.35-.34.51-.34.84.11.61.34.84.51.35.84.35Zm.88,4.02h-.93l4.5-7.1h.93l-4.5,7.1Zm4.45.08c-.55,0-1.01-.19-1.4-.58-.38-.39-.57-.85-.57-1.39s.19-1.01.57-1.39c.38-.38.85-.58,1.4-.58s1,.19,1.39.58.58.85.58,1.39-.19,1-.58,1.39-.85.58-1.39.58Zm0-.78c.32,0,.6-.12.83-.36.23-.24.35-.51.35-.83s-.12-.6-.35-.83c-.23-.24-.51-.35-.83-.35s-.61.12-.84.35-.34.51-.34.84.11.61.34.84.51.35.84.35Z"/><path d="m171.5,168.25h-.7c.81-1.57,1.21-3.17,1.21-4.8s-.4-3.23-1.21-4.8h.7c.85,1.55,1.28,3.15,1.28,4.8s-.43,3.25-1.28,4.8Z"/><path d="m180.53,166.65l-1.24-3.59-1.23,3.59h-.76l-1.7-5h.9l1.21,3.65,1.25-3.65h.66l1.25,3.65,1.21-3.65h.91l-1.7,5h-.76Z"/><path d="m186.03,166.75c-.73,0-1.33-.25-1.81-.74-.48-.49-.71-1.11-.71-1.86s.23-1.38.7-1.87,1.08-.74,1.85-.74,1.38.27,1.82.82c.44.55.63,1.22.58,2.01h-4.07c.01.45.18.83.5,1.14.32.3.71.45,1.16.45.68,0,1.16-.28,1.45-.84h.88c-.13.47-.4.85-.81,1.16-.41.31-.92.46-1.53.46Zm.98-4.08c-.27-.24-.6-.35-.99-.35s-.73.12-1.04.35c-.3.23-.49.58-.56,1.04h3.12c-.08-.45-.26-.8-.53-1.04Z"/><path d="m189.69,166.65v-5h.86v.97c.09-.31.28-.55.54-.74s.55-.28.86-.28c.15,0,.28.01.39.04v.89c-.12-.05-.28-.08-.47-.08-.35,0-.65.15-.92.45-.27.3-.4.72-.4,1.27v2.48h-.86Z"/><path d="m195.3,166.75c-.73,0-1.33-.25-1.8-.74-.48-.49-.71-1.11-.71-1.86s.23-1.38.7-1.87c.46-.49,1.08-.74,1.84-.74s1.38.27,1.82.82.63,1.22.58,2.01h-4.07c.01.45.18.83.5,1.14.32.3.71.45,1.16.45.68,0,1.16-.28,1.45-.84h.88c-.13.47-.4.85-.81,1.16-.41.31-.92.46-1.53.46Zm.98-4.08c-.27-.24-.6-.35-.99-.35s-.73.12-1.04.35-.49.58-.56,1.04h3.12c-.08-.45-.26-.8-.53-1.04Z"/><path d="m207.81,166.65v-2.94c0-.41-.08-.75-.25-1s-.42-.38-.74-.38c-.4,0-.72.16-.97.47s-.38.74-.39,1.28v2.56h-.86v-2.94c0-.42-.09-.75-.26-1-.17-.25-.41-.37-.72-.37-.41,0-.75.17-1,.5s-.38.78-.38,1.33v2.48h-.86v-5h.86v.77c.32-.58.82-.87,1.51-.87.76,0,1.27.36,1.54,1.07.13-.33.35-.59.64-.78.29-.19.62-.29,1-.29.54,0,.96.18,1.28.55.31.37.47.86.47,1.48v3.07h-.86Z"/><path d="m212.28,166.75c-.69,0-1.28-.25-1.75-.76-.47-.51-.71-1.12-.71-1.84s.24-1.33.71-1.84c.47-.51,1.05-.76,1.75-.76.37,0,.71.08,1.02.25.32.16.56.37.74.62v-.77h.86v5h-.86v-.77c-.17.25-.42.46-.74.62-.32.16-.66.25-1.02.25Zm.13-.79c.49,0,.9-.17,1.22-.52s.48-.78.48-1.29-.16-.94-.48-1.29-.73-.52-1.22-.52-.91.17-1.23.52c-.32.35-.48.78-.48,1.29s.16.94.48,1.29c.32.35.73.52,1.23.52Z"/><path d="m216.52,166.65v-7.5h.86v7.5h-.86Z"/><path d="m221.14,166.75c-.73,0-1.33-.25-1.8-.74-.48-.49-.71-1.11-.71-1.86s.23-1.38.7-1.87c.46-.49,1.08-.74,1.84-.74s1.38.27,1.82.82.63,1.22.58,2.01h-4.07c.01.45.18.83.5,1.14.32.3.71.45,1.16.45.68,0,1.16-.28,1.45-.84h.88c-.13.47-.4.85-.81,1.16-.41.31-.92.46-1.53.46Zm.98-4.08c-.27-.24-.6-.35-.99-.35s-.73.12-1.04.35-.49.58-.56,1.04h3.12c-.08-.45-.26-.8-.53-1.04Z"/><path d="m231.51,54.89h-.7c-.85-1.55-1.28-3.15-1.28-4.8s.43-3.25,1.28-4.8h.7c-.81,1.57-1.21,3.17-1.21,4.8s.4,3.23,1.21,4.8Z"/><path d="m234.5,53.39c-.64,0-1.19-.2-1.66-.6-.47-.4-.71-.87-.72-1.42h.88c.08.35.26.63.53.85s.6.33.97.33c.43,0,.8-.15,1.09-.44s.44-.65.44-1.08-.14-.8-.42-1.09c-.28-.29-.64-.44-1.07-.44-.59,0-1.04.24-1.34.72l-.82-.24.73-3.79h3.32v.84h-2.63l-.39,2.03c.35-.25.76-.37,1.24-.37.66,0,1.2.23,1.62.7.42.46.64,1.05.64,1.75,0,.63-.23,1.16-.69,1.59-.46.44-1.03.66-1.72.66Z"/><path d="m238.88,53.29h-.96l3.31-6.26h-3.63v-.84h4.66v.72l-3.38,6.38Z"/><path d="m243.26,53.15c-.14.15-.32.22-.53.22s-.38-.07-.52-.22c-.14-.15-.22-.32-.22-.53s.07-.38.22-.53.32-.22.52-.22.37.07.52.22c.15.15.22.33.22.53s-.07.38-.21.53Z"/><path d="m245.08,53.29v-6.25h-1.37l.7-.85h1.53v7.1h-.86Z"/><path d="m249.17,50.05c-.55,0-1.01-.19-1.4-.58-.38-.39-.57-.85-.57-1.39s.19-1.01.57-1.4c.38-.38.85-.58,1.4-.58s1,.19,1.39.58c.39.38.58.85.58,1.4s-.19,1-.58,1.39-.85.58-1.39.58Zm0-.78c.32,0,.6-.12.83-.35s.35-.52.35-.83-.12-.6-.35-.83c-.23-.24-.51-.36-.83-.36s-.61.12-.84.35-.34.51-.34.84.11.61.34.84.51.35.84.35Zm.88,4.02h-.93l4.5-7.1h.93l-4.5,7.1Zm4.45.08c-.55,0-1.01-.19-1.4-.58-.38-.39-.57-.85-.57-1.39s.19-1.01.57-1.39c.38-.38.85-.58,1.4-.58s1,.19,1.39.58.58.85.58,1.39-.19,1-.58,1.39-.85.58-1.39.58Zm0-.78c.32,0,.6-.12.83-.36.23-.24.35-.51.35-.83s-.12-.6-.35-.83c-.23-.24-.51-.35-.83-.35s-.61.12-.84.35-.34.51-.34.84.11.61.34.84.51.35.84.35Z"/><path d="m257.78,54.89h-.7c.81-1.57,1.21-3.17,1.21-4.8s-.4-3.23-1.21-4.8h.7c.85,1.55,1.28,3.15,1.28,4.8s-.43,3.25-1.28,4.8Z"/><path d="m266.81,53.29l-1.24-3.59-1.23,3.59h-.76l-1.7-5h.9l1.21,3.65,1.25-3.65h.66l1.25,3.65,1.21-3.65h.91l-1.7,5h-.76Z"/><path d="m272.31,53.39c-.73,0-1.33-.25-1.81-.74-.48-.49-.71-1.11-.71-1.86s.23-1.38.7-1.87c.46-.49,1.08-.74,1.84-.74s1.38.27,1.82.82c.44.55.63,1.22.58,2.01h-4.07c.01.45.18.83.5,1.14.32.3.71.45,1.16.45.68,0,1.16-.28,1.45-.84h.88c-.13.47-.4.85-.81,1.16s-.92.46-1.53.46Zm.98-4.08c-.27-.24-.6-.35-.99-.35s-.73.12-1.04.35c-.3.23-.49.58-.56,1.04h3.12c-.08-.45-.26-.8-.53-1.04Z"/><path d="m275.97,53.29v-5h.86v.97c.09-.31.28-.55.54-.74.27-.19.55-.28.86-.28.15,0,.28.01.39.04v.89c-.12-.05-.28-.08-.47-.08-.35,0-.65.15-.92.45s-.4.72-.4,1.27v2.48h-.86Z"/><path d="m281.58,53.39c-.73,0-1.33-.25-1.81-.74-.48-.49-.71-1.11-.71-1.86s.23-1.38.7-1.87c.46-.49,1.08-.74,1.84-.74s1.38.27,1.82.82c.44.55.63,1.22.58,2.01h-4.07c.01.45.18.83.5,1.14.32.3.71.45,1.16.45.68,0,1.16-.28,1.45-.84h.88c-.13.47-.4.85-.81,1.16s-.92.46-1.53.46Zm.98-4.08c-.27-.24-.6-.35-.99-.35s-.73.12-1.04.35c-.3.23-.49.58-.56,1.04h3.12c-.08-.45-.26-.8-.53-1.04Z"/><path d="m287.94,53.29v-4.21h-1.06v-.79h1.06v-1.01c0-.5.14-.88.42-1.15.28-.27.65-.4,1.11-.4.27,0,.53.04.78.13v.76c-.15-.07-.36-.1-.62-.1-.29,0-.5.06-.63.19-.13.13-.2.35-.2.66v.92h1.45v.79h-1.45v4.21h-.86Z"/><path d="m293.19,53.39c-.73,0-1.33-.25-1.81-.74-.48-.49-.71-1.11-.71-1.86s.23-1.38.7-1.87c.46-.49,1.08-.74,1.84-.74s1.38.27,1.82.82c.44.55.63,1.22.58,2.01h-4.07c.01.45.18.83.5,1.14.32.3.71.45,1.16.45.68,0,1.16-.28,1.45-.84h.88c-.13.47-.4.85-.81,1.16s-.92.46-1.53.46Zm.98-4.08c-.27-.24-.6-.35-.99-.35s-.73.12-1.04.35c-.3.23-.49.58-.56,1.04h3.12c-.08-.45-.26-.8-.53-1.04Z"/><path d="m303.29,53.29v-2.94c0-.41-.08-.75-.25-1s-.42-.38-.74-.38c-.4,0-.72.16-.97.47s-.38.74-.4,1.28v2.56h-.86v-2.94c0-.42-.08-.75-.25-1-.17-.25-.41-.37-.73-.37-.41,0-.75.17-1,.5-.25.33-.38.78-.38,1.33v2.48h-.86v-5h.86v.77c.32-.58.82-.87,1.51-.87.76,0,1.27.36,1.54,1.07.13-.33.35-.59.64-.78.29-.19.63-.29,1-.29.54,0,.97.18,1.28.55.31.37.47.86.47,1.48v3.07h-.86Z"/><path d="m307.76,53.39c-.69,0-1.28-.25-1.75-.76s-.71-1.12-.71-1.84.24-1.33.71-1.84c.47-.51,1.05-.76,1.75-.76.37,0,.71.08,1.02.25.32.16.56.37.74.62v-.77h.86v5h-.86v-.77c-.17.25-.42.46-.74.62-.32.16-.66.25-1.02.25Zm.13-.79c.49,0,.9-.17,1.22-.52.32-.35.48-.78.48-1.29s-.16-.94-.48-1.29c-.32-.35-.73-.52-1.22-.52s-.91.17-1.23.52c-.32.35-.48.78-.48,1.29s.16.94.48,1.29c.32.35.73.52,1.23.52Z"/><path d="m312,53.29v-7.5h.86v7.5h-.86Z"/><path d="m316.62,53.39c-.73,0-1.33-.25-1.81-.74-.48-.49-.71-1.11-.71-1.86s.23-1.38.7-1.87c.46-.49,1.08-.74,1.84-.74s1.38.27,1.82.82c.44.55.63,1.22.58,2.01h-4.07c.01.45.18.83.5,1.14.32.3.71.45,1.16.45.68,0,1.16-.28,1.45-.84h.88c-.13.47-.4.85-.81,1.16s-.92.46-1.53.46Zm.98-4.08c-.27-.24-.6-.35-.99-.35s-.73.12-1.04.35c-.3.23-.49.58-.56,1.04h3.12c-.08-.45-.26-.8-.53-1.04Z"/></g></svg>