<?xml version="1.0" encoding="UTF-8"?><svg id="_图层_2" xmlns="http://www.w3.org/2000/svg" viewBox="0 0 313.95 310.81"><defs><style>.cls-1{fill:#fff;}.cls-2{fill:none;stroke:#241f20;stroke-miterlimit:10;stroke-width:.5px;}</style></defs><g id="_图层_1-2"><path class="cls-1" d="m305.52,149.32c-37.01,150.29,68.09,181.29-209.51,151.03-75.99-8.28-30.54-116.56-83.81-151.03C-31.56,121.01,51.26,53.3,120.43,24.69c104.32-43.15,226.99-45.52,185.09,124.63Z"/><line class="cls-2" x1="246.46" y1="74.63" x2="134.51" y2="108.13"/><line class="cls-2" x1="143.46" y1="241.72" x2="107.31" y2="155.41"/><path d="m36.31,132.27v-6.39h.84v6.39h-.84Z"/><path d="m38.71,132.27v-4.5h.77v.69c.31-.52.78-.78,1.43-.78.51,0,.92.17,1.23.49.31.33.47.77.47,1.32v2.77h-.76v-2.66c0-.38-.1-.68-.29-.9s-.45-.33-.77-.33c-.37,0-.68.15-.93.44-.25.29-.37.7-.37,1.21v2.23h-.77Z"/><path d="m50.03,131.52v.75h-4.14v-.31c0-.22.03-.43.1-.63.07-.2.14-.37.23-.51.08-.14.22-.29.4-.46s.32-.3.42-.38c.1-.08.27-.21.51-.38.24-.17.4-.28.48-.34.43-.31.72-.58.89-.79s.25-.49.25-.84-.11-.6-.32-.81c-.22-.2-.5-.3-.85-.3-.37,0-.68.11-.94.33-.26.22-.39.53-.39.93h-.79c0-.6.2-1.09.6-1.46.4-.37.9-.56,1.51-.56.56,0,1.03.16,1.41.49.38.32.56.79.56,1.39,0,.46-.11.84-.33,1.17-.22.32-.6.68-1.14,1.07-.1.07-.25.17-.43.3-.19.13-.33.23-.43.31s-.21.17-.34.28c-.12.11-.22.23-.29.35-.07.12-.12.26-.15.4h3.19Z"/><path d="m53.27,132.36c-.67,0-1.21-.22-1.63-.67-.42-.45-.63-1.02-.63-1.73v-1.78c0-.71.21-1.29.63-1.73.42-.45.96-.67,1.62-.67s1.2.22,1.63.67.64,1.03.64,1.73v1.78c0,.71-.21,1.29-.64,1.73-.43.45-.97.67-1.63.67Zm0-.76c.44,0,.8-.15,1.08-.44s.41-.7.41-1.21v-1.78c0-.51-.14-.91-.41-1.21s-.64-.44-1.08-.44-.79.15-1.07.44c-.28.29-.41.7-.41,1.21v1.78c0,.51.14.91.41,1.21.28.29.63.44,1.07.44Z"/><path d="m57.38,132.27v-5.62h-1.23l.63-.77h1.38v6.39h-.77Z"/><path d="m61.8,132.36c-.67,0-1.21-.22-1.63-.67-.42-.45-.63-1.02-.63-1.73v-1.78c0-.71.21-1.29.63-1.73.42-.45.96-.67,1.62-.67s1.2.22,1.63.67.64,1.03.64,1.73v1.78c0,.71-.21,1.29-.64,1.73-.43.45-.97.67-1.63.67Zm0-.76c.44,0,.8-.15,1.08-.44s.41-.7.41-1.21v-1.78c0-.51-.14-.91-.41-1.21s-.64-.44-1.08-.44-.79.15-1.07.44c-.28.29-.41.7-.41,1.21v1.78c0,.51.14.91.41,1.21.28.29.63.44,1.07.44Z"/><path d="m69.1,132.32c-.41,0-.75-.12-1-.35-.25-.23-.38-.58-.38-1.03v-2.46h-.95v-.71h.95v-1.25h.77v1.25h1.3v.71h-1.3v2.36c0,.28.06.48.18.59.12.11.31.17.57.17.23,0,.41-.03.55-.09v.69c-.22.07-.45.11-.69.11Z"/><path d="m71.55,132.27h-.77v-6.75h.77v2.94c.31-.52.78-.78,1.43-.78.51,0,.92.17,1.23.49.31.33.47.77.47,1.32v2.77h-.76v-2.66c0-.38-.1-.68-.29-.9s-.45-.33-.77-.33c-.37,0-.68.15-.93.44-.25.29-.37.7-.37,1.21v2.23Z"/><path d="m78,132.36c-.65,0-1.2-.22-1.62-.67s-.64-1-.64-1.67.21-1.24.63-1.68c.42-.44.97-.66,1.66-.66s1.24.25,1.64.74c.4.49.57,1.1.52,1.81h-3.66c.01.41.16.75.45,1.02.29.27.64.41,1.04.41.61,0,1.05-.25,1.3-.76h.79c-.11.42-.36.77-.73,1.04-.37.28-.83.41-1.38.41Zm.88-3.68c-.25-.21-.54-.32-.89-.32s-.66.11-.93.32c-.27.21-.44.52-.51.94h2.81c-.07-.41-.23-.72-.48-.93Z"/><path d="m81.29,132.27v-4.5h.77v.87c.08-.28.25-.5.49-.67.24-.17.5-.25.77-.25.13,0,.25.01.35.04v.8c-.11-.05-.25-.07-.42-.07-.31,0-.59.13-.83.41-.24.27-.36.65-.36,1.14v2.23h-.77Z"/><path d="m86.34,132.36c-.65,0-1.2-.22-1.62-.67s-.64-1-.64-1.67.21-1.24.63-1.68c.42-.44.97-.66,1.66-.66s1.24.25,1.64.74c.4.49.57,1.1.52,1.81h-3.66c.01.41.16.75.45,1.02.29.27.64.41,1.04.41.61,0,1.05-.25,1.3-.76h.79c-.11.42-.36.77-.73,1.04-.37.28-.83.41-1.38.41Zm.88-3.68c-.25-.21-.54-.32-.89-.32s-.66.11-.93.32c-.27.21-.44.52-.51.94h2.81c-.07-.41-.23-.72-.48-.93Z"/><path d="m95.46,132.27l-1.12-3.23-1.11,3.23h-.68l-1.53-4.5h.81l1.09,3.29,1.12-3.29h.59l1.12,3.29,1.09-3.29h.82l-1.53,4.5h-.68Z"/><path d="m100.41,132.36c-.65,0-1.2-.22-1.62-.67s-.64-1-.64-1.67.21-1.24.63-1.68c.42-.44.97-.66,1.66-.66s1.24.25,1.64.74c.4.49.57,1.1.52,1.81h-3.66c.01.41.16.75.45,1.02.29.27.64.41,1.04.41.61,0,1.05-.25,1.3-.76h.79c-.11.42-.36.77-.73,1.04-.37.28-.83.41-1.38.41Zm.88-3.68c-.25-.21-.54-.32-.89-.32s-.66.11-.93.32c-.27.21-.44.52-.51.94h2.81c-.07-.41-.23-.72-.48-.93Z"/><path d="m103.7,132.27v-4.5h.77v.87c.08-.28.25-.5.49-.67.24-.17.5-.25.77-.25.13,0,.25.01.35.04v.8c-.11-.05-.25-.07-.42-.07-.31,0-.59.13-.83.41-.24.27-.36.65-.36,1.14v2.23h-.77Z"/><path d="m108.75,132.36c-.65,0-1.2-.22-1.62-.67s-.64-1-.64-1.67.21-1.24.63-1.68c.42-.44.97-.66,1.66-.66s1.24.25,1.64.74c.4.49.57,1.1.52,1.81h-3.66c.01.41.16.75.45,1.02.29.27.64.41,1.04.41.61,0,1.05-.25,1.3-.76h.79c-.11.42-.36.77-.73,1.04-.37.28-.83.41-1.38.41Zm.88-3.68c-.25-.21-.54-.32-.89-.32s-.66.11-.93.32c-.27.21-.44.52-.51.94h2.81c-.07-.41-.23-.72-.48-.93Z"/><path d="m114.15,132.27l1.97-2.32c-.07,0-.15,0-.25,0-.53,0-1-.2-1.4-.61-.4-.41-.6-.89-.6-1.44,0-.6.21-1.11.62-1.52.41-.41.92-.62,1.54-.62s1.13.2,1.55.61c.41.41.62.91.62,1.49,0,.31-.06.59-.18.84s-.3.51-.54.79l-2.34,2.76h-.99Zm.9-3.4c.26.27.59.4.98.4s.72-.13.98-.4c.26-.27.4-.59.4-.98s-.13-.71-.4-.98c-.26-.27-.59-.4-.98-.4s-.72.13-.98.4-.39.59-.39.98.13.71.39.98Z"/><path d="m120.58,129.36c-.49,0-.91-.17-1.25-.52-.35-.35-.52-.76-.52-1.25s.17-.91.52-1.25c.34-.35.76-.52,1.25-.52s.9.17,1.25.52c.35.34.52.76.52,1.25s-.17.9-.52,1.25c-.35.35-.76.52-1.25.52Zm0-.7c.29,0,.54-.11.75-.32s.32-.46.32-.75-.11-.54-.32-.75-.46-.32-.75-.32-.55.1-.76.31-.31.46-.31.76.1.55.31.76.46.32.76.32Zm.79,3.62h-.84l4.05-6.39h.84l-4.05,6.39Zm4.01.07c-.49,0-.91-.17-1.26-.52s-.52-.76-.52-1.25.17-.91.52-1.26c.34-.34.76-.52,1.26-.52s.9.17,1.25.52c.35.35.52.76.52,1.26s-.17.9-.52,1.25c-.35.35-.77.52-1.25.52Zm0-.7c.29,0,.54-.11.75-.32.21-.21.31-.46.31-.75s-.1-.54-.31-.75c-.21-.21-.46-.32-.75-.32s-.55.11-.76.32c-.2.21-.31.46-.31.76s.1.55.31.76c.2.21.46.32.76.32Z"/><path d="m132.33,132.36c-.68,0-1.24-.23-1.69-.68-.45-.45-.67-1.01-.67-1.66s.22-1.21.67-1.66c.45-.45,1.01-.68,1.69-.68s1.23.23,1.68.68c.45.45.67,1.01.67,1.66s-.22,1.21-.67,1.66-1.01.68-1.68.68Zm-1.13-1.19c.29.31.67.47,1.13.47s.84-.16,1.12-.47c.29-.31.43-.7.43-1.15s-.14-.84-.43-1.15c-.29-.31-.66-.47-1.12-.47s-.84.16-1.13.47c-.29.31-.44.7-.44,1.15s.15.84.44,1.15Z"/><path d="m136.09,132.27v-3.79h-.95v-.71h.95v-.91c0-.45.13-.79.38-1.04s.58-.36,1-.36c.25,0,.48.04.7.12v.68c-.14-.06-.32-.09-.56-.09-.26,0-.45.06-.57.17-.12.11-.18.31-.18.59v.83h1.3v.71h-1.3v3.79h-.77Z"/><path d="m142.81,132.36c-.62,0-1.15-.23-1.57-.68-.42-.46-.63-1.01-.63-1.66s.21-1.2.63-1.66.95-.68,1.57-.68c.33,0,.64.07.92.22.28.15.5.33.66.56v-2.94h.77v6.75h-.77v-.69c-.16.23-.38.42-.66.56-.29.15-.59.22-.92.22Zm.12-.71c.44,0,.81-.16,1.1-.47.29-.31.43-.7.43-1.16s-.14-.85-.43-1.16c-.29-.31-.65-.47-1.1-.47s-.82.16-1.11.47c-.29.31-.43.7-.43,1.16s.14.85.43,1.16c.29.31.66.47,1.11.47Z"/><path d="m148.54,132.36c-.65,0-1.2-.22-1.62-.67s-.64-1-.64-1.67.21-1.24.63-1.68c.42-.44.97-.66,1.66-.66s1.24.25,1.64.74c.4.49.57,1.1.52,1.81h-3.66c.01.41.16.75.45,1.02.29.27.64.41,1.04.41.61,0,1.05-.25,1.3-.76h.79c-.11.42-.36.77-.73,1.04-.37.28-.83.41-1.38.41Zm.88-3.68c-.25-.21-.54-.32-.89-.32s-.66.11-.93.32c-.27.21-.44.52-.51.94h2.81c-.07-.41-.23-.72-.48-.93Z"/><path d="m153.69,132.36c-.62,0-1.15-.23-1.57-.68-.42-.46-.63-1.01-.63-1.66s.21-1.2.63-1.66.95-.68,1.57-.68c.33,0,.64.07.92.22.28.15.5.33.66.56v-.69h.77v4.5h-.77v-.69c-.16.23-.38.42-.66.56-.29.15-.59.22-.92.22Zm.12-.71c.44,0,.81-.16,1.1-.47.29-.31.43-.7.43-1.16s-.14-.85-.43-1.16c-.29-.31-.65-.47-1.1-.47s-.82.16-1.11.47c-.29.31-.43.7-.43,1.16s.14.85.43,1.16c.29.31.66.47,1.11.47Z"/><path d="m159.25,132.32c-.41,0-.75-.12-1-.35-.25-.23-.38-.58-.38-1.03v-2.46h-.95v-.71h.95v-1.25h.77v1.25h1.3v.71h-1.3v2.36c0,.28.06.48.18.59.12.11.31.17.57.17.23,0,.41-.03.55-.09v.69c-.22.07-.45.11-.69.11Z"/><path d="m161.71,132.27h-.77v-6.75h.77v2.94c.31-.52.78-.78,1.43-.78.51,0,.92.17,1.23.49.31.33.47.77.47,1.32v2.77h-.76v-2.66c0-.38-.1-.68-.29-.9s-.45-.33-.77-.33c-.37,0-.68.15-.93.44-.25.29-.37.7-.37,1.21v2.23Z"/><path d="m167.68,132.36c-.5,0-.93-.12-1.26-.37s-.53-.59-.56-1.03h.79c.05.25.17.44.37.56.19.12.42.18.68.18s.47-.05.63-.15c.16-.1.24-.25.24-.44,0-.18-.06-.33-.17-.44-.12-.11-.31-.21-.57-.28l-.65-.17c-.77-.2-1.16-.65-1.16-1.32,0-.37.15-.66.44-.88.29-.22.66-.33,1.12-.33s.84.12,1.14.36.46.55.5.92h-.77c-.06-.2-.17-.35-.32-.47-.15-.11-.33-.17-.54-.17-.22,0-.41.05-.55.15-.15.1-.22.24-.22.41s.05.29.16.4c.11.1.28.19.52.25l.72.19c.77.19,1.15.64,1.15,1.33,0,.43-.15.76-.46.98-.31.22-.71.33-1.2.33Z"/><path d="m38.55,143.16c-.33,0-.64-.07-.92-.22-.28-.15-.5-.33-.66-.56v.69h-.77v-6.75h.77v2.94c.16-.23.38-.42.66-.56.29-.15.59-.22.92-.22.62,0,1.15.23,1.57.68.42.46.63,1.01.63,1.66s-.21,1.2-.63,1.66-.95.68-1.57.68Zm-1.21-1.18c.29.31.65.47,1.1.47s.81-.16,1.1-.47c.29-.31.43-.7.43-1.16s-.14-.85-.43-1.16c-.29-.31-.65-.47-1.1-.47s-.81.16-1.1.47c-.29.31-.43.7-.43,1.16s.14.85.43,1.16Z"/><path d="m43.78,143.16c-.65,0-1.2-.22-1.62-.67-.43-.44-.64-1-.64-1.67s.21-1.24.63-1.68c.42-.44.97-.66,1.66-.66s1.24.25,1.64.74c.4.49.57,1.09.52,1.81h-3.66c.01.41.16.75.45,1.02.29.27.64.41,1.04.41.61,0,1.05-.25,1.3-.76h.79c-.11.42-.36.77-.73,1.04-.37.28-.83.41-1.38.41Zm.88-3.68c-.25-.21-.54-.32-.89-.32s-.66.1-.93.31c-.27.21-.44.52-.51.94h2.81c-.07-.41-.23-.72-.48-.93Z"/><path d="m49.07,143.16c-.68,0-1.24-.23-1.68-.68s-.67-1.01-.67-1.66.22-1.21.67-1.66,1-.68,1.68-.68c.56,0,1.04.15,1.45.46.41.31.68.71.82,1.21h-.83c-.11-.29-.29-.53-.54-.7-.25-.17-.55-.26-.9-.26-.46,0-.84.16-1.13.47-.29.31-.44.7-.44,1.16s.15.85.44,1.16c.29.31.67.47,1.13.47.35,0,.65-.09.9-.26s.43-.41.54-.7h.83c-.13.5-.4.9-.81,1.21-.41.31-.89.46-1.46.46Z"/><path d="m54.22,143.16c-.62,0-1.15-.23-1.57-.68s-.63-1.01-.63-1.66.21-1.2.63-1.66c.42-.46.95-.68,1.57-.68.33,0,.64.07.92.22.28.15.5.33.66.56v-.69h.77v4.5h-.77v-.69c-.16.23-.38.42-.66.56-.29.15-.59.22-.92.22Zm.12-.71c.44,0,.81-.16,1.1-.47.29-.31.43-.7.43-1.16s-.14-.85-.43-1.16c-.29-.31-.65-.47-1.1-.47s-.82.16-1.11.47c-.29.31-.43.7-.43,1.16s.14.85.43,1.16c.29.31.66.47,1.11.47Z"/><path d="m59.63,143.16c-.49,0-.89-.17-1.2-.5s-.46-.78-.46-1.33v-2.76h.77v2.65c0,.38.09.68.27.9.18.22.43.33.74.33.36,0,.66-.15.9-.45s.36-.7.36-1.2v-2.23h.77v4.5h-.77v-.69c-.29.52-.76.78-1.39.78Z"/><path d="m64.7,143.16c-.5,0-.93-.12-1.26-.37s-.53-.59-.56-1.03h.79c.05.25.17.44.37.56.19.12.42.18.68.18s.47-.05.63-.15c.16-.1.24-.25.24-.44,0-.18-.06-.33-.17-.44-.12-.11-.31-.21-.57-.28l-.65-.17c-.77-.2-1.16-.64-1.16-1.32,0-.37.15-.66.44-.88s.66-.33,1.12-.33.84.12,1.14.36c.3.24.46.55.5.92h-.77c-.06-.2-.17-.35-.32-.47-.15-.11-.33-.17-.54-.17-.22,0-.41.05-.55.15-.15.1-.22.24-.22.41s.05.29.16.4c.11.1.28.19.52.25l.72.19c.77.19,1.15.64,1.15,1.33,0,.43-.15.76-.46.98s-.71.33-1.2.33Z"/><path d="m69.37,143.16c-.65,0-1.2-.22-1.62-.67-.43-.44-.64-1-.64-1.67s.21-1.24.63-1.68c.42-.44.97-.66,1.66-.66s1.24.25,1.64.74c.4.49.57,1.09.52,1.81h-3.66c.01.41.16.75.45,1.02.29.27.64.41,1.04.41.61,0,1.05-.25,1.3-.76h.79c-.11.42-.36.77-.73,1.04-.37.28-.83.41-1.38.41Zm.88-3.68c-.25-.21-.54-.32-.89-.32s-.66.1-.93.31c-.27.21-.44.52-.51.94h2.81c-.07-.41-.23-.72-.48-.93Z"/><path d="m76.83,143.16c-.68,0-1.24-.23-1.69-.68-.45-.45-.67-1.01-.67-1.66s.22-1.21.67-1.66c.45-.45,1.01-.68,1.69-.68s1.23.23,1.68.68.67,1.01.67,1.66-.22,1.21-.67,1.66-1.01.68-1.68.68Zm-1.13-1.19c.29.31.67.47,1.13.47s.84-.16,1.12-.47c.29-.31.43-.7.43-1.15s-.14-.84-.43-1.15c-.29-.31-.66-.47-1.12-.47s-.84.16-1.13.47c-.29.31-.44.7-.44,1.15s.15.84.44,1.15Z"/><path d="m80.59,143.07v-3.79h-.95v-.71h.95v-.91c0-.45.13-.79.38-1.03.25-.24.58-.36,1-.36.25,0,.48.04.7.12v.68c-.14-.06-.32-.09-.56-.09-.26,0-.45.06-.57.17s-.18.31-.18.59v.83h1.3v.71h-1.3v3.79h-.77Z"/><path d="m85.57,143.07v-6.39h1.84c.98,0,1.79.3,2.43.91.65.61.97,1.37.97,2.29s-.32,1.68-.97,2.29c-.64.61-1.46.91-2.43.91h-1.84Zm.84-.78h1c.76,0,1.38-.23,1.85-.68.47-.45.71-1.03.71-1.73s-.24-1.28-.71-1.73c-.47-.45-1.09-.68-1.85-.68h-1v4.82Z"/><path d="m92.68,137.21c-.1.11-.23.16-.39.16s-.29-.05-.4-.16c-.11-.1-.16-.24-.16-.39s.05-.28.16-.39.24-.16.4-.16.29.05.39.16c.1.11.15.24.15.39s-.05.29-.15.39Zm-.78,5.86v-4.5h.77v4.5h-.77Z"/><path d="m95.99,143.16c-.62,0-1.15-.23-1.57-.68s-.63-1.01-.63-1.66.21-1.2.63-1.66c.42-.46.95-.68,1.57-.68.33,0,.64.07.92.22.28.15.5.33.66.56v-.69h.77v4.5h-.77v-.69c-.16.23-.38.42-.66.56-.29.15-.59.22-.92.22Zm.12-.71c.44,0,.81-.16,1.1-.47.29-.31.43-.7.43-1.16s-.14-.85-.43-1.16c-.29-.31-.65-.47-1.1-.47s-.82.16-1.11.47c-.29.31-.43.7-.43,1.16s.14.85.43,1.16c.29.31.66.47,1.11.47Z"/><path d="m102.16,143.16c-.33,0-.64-.07-.92-.22-.28-.15-.5-.33-.66-.56v.69h-.77v-6.75h.77v2.94c.16-.23.38-.42.66-.56.29-.15.59-.22.92-.22.62,0,1.15.23,1.57.68.42.46.63,1.01.63,1.66s-.21,1.2-.63,1.66-.95.68-1.57.68Zm-1.21-1.18c.29.31.65.47,1.1.47s.81-.16,1.1-.47c.29-.31.43-.7.43-1.16s-.14-.85-.43-1.16c-.29-.31-.65-.47-1.1-.47s-.81.16-1.1.47c-.29.31-.43.7-.43,1.16s.14.85.43,1.16Z"/><path d="m107.39,143.16c-.65,0-1.2-.22-1.62-.67-.43-.44-.64-1-.64-1.67s.21-1.24.63-1.68c.42-.44.97-.66,1.66-.66s1.24.25,1.64.74c.4.49.57,1.09.52,1.81h-3.66c.01.41.16.75.45,1.02.29.27.64.41,1.04.41.61,0,1.05-.25,1.3-.76h.79c-.11.42-.36.77-.73,1.04-.37.28-.83.41-1.38.41Zm.88-3.68c-.25-.21-.54-.32-.89-.32s-.66.1-.93.31c-.27.21-.44.52-.51.94h2.81c-.07-.41-.23-.72-.48-.93Z"/><path d="m112.37,143.12c-.41,0-.75-.12-1-.35s-.38-.58-.38-1.03v-2.46h-.95v-.71h.95v-1.25h.77v1.25h1.3v.71h-1.3v2.36c0,.28.06.48.18.59.12.11.31.17.57.17.23,0,.41-.03.55-.09v.69c-.22.07-.45.11-.69.11Z"/><path d="m115.91,143.16c-.65,0-1.2-.22-1.62-.67-.43-.44-.64-1-.64-1.67s.21-1.24.63-1.68c.42-.44.97-.66,1.66-.66s1.24.25,1.64.74c.4.49.57,1.09.52,1.81h-3.66c.01.41.16.75.45,1.02.29.27.64.41,1.04.41.61,0,1.05-.25,1.3-.76h.79c-.11.42-.36.77-.73,1.04-.37.28-.83.41-1.38.41Zm.88-3.68c-.25-.21-.54-.32-.89-.32s-.66.1-.93.31c-.27.21-.44.52-.51.94h2.81c-.07-.41-.23-.72-.48-.93Z"/><path d="m120.65,143.16c-.5,0-.93-.12-1.26-.37s-.53-.59-.56-1.03h.79c.05.25.17.44.37.56.19.12.42.18.68.18s.47-.05.63-.15c.16-.1.24-.25.24-.44,0-.18-.06-.33-.17-.44-.12-.11-.31-.21-.57-.28l-.65-.17c-.77-.2-1.16-.64-1.16-1.32,0-.37.15-.66.44-.88s.66-.33,1.12-.33.84.12,1.14.36c.3.24.46.55.5.92h-.77c-.06-.2-.17-.35-.32-.47-.15-.11-.33-.17-.54-.17-.22,0-.41.05-.55.15-.15.1-.22.24-.22.41s.05.29.16.4c.11.1.28.19.52.25l.72.19c.77.19,1.15.64,1.15,1.33,0,.43-.15.76-.46.98s-.71.33-1.2.33Z"/><path d="m124.28,142.95c-.13.13-.29.2-.47.2s-.34-.07-.47-.2-.19-.29-.19-.48.07-.34.2-.47.29-.2.47-.2.34.07.47.2c.13.13.2.29.2.47s-.06.34-.19.48Z"/><path d="m132.15,261.67v-2.65c0-.37-.08-.67-.23-.9-.15-.22-.37-.34-.66-.34-.36,0-.65.14-.88.42-.23.28-.34.67-.36,1.15v2.3h-.77v-2.65c0-.38-.08-.68-.23-.9-.15-.22-.37-.33-.65-.33-.37,0-.67.15-.9.45-.23.3-.34.7-.34,1.2v2.23h-.77v-4.5h.77v.69c.29-.52.74-.78,1.36-.78.68,0,1.15.32,1.39.96.12-.29.31-.53.58-.7.26-.17.56-.26.9-.26.49,0,.87.17,1.15.49.28.33.42.77.42,1.33v2.76h-.77Z"/><path d="m136.17,261.76c-.62,0-1.15-.23-1.57-.68-.42-.46-.63-1.01-.63-1.66s.21-1.2.63-1.66.95-.68,1.57-.68c.33,0,.64.07.92.22.28.15.5.33.66.56v-.69h.77v4.5h-.77v-.69c-.16.23-.38.42-.66.56-.29.15-.59.22-.92.22Zm.12-.71c.44,0,.81-.16,1.1-.47.29-.31.43-.7.43-1.16s-.14-.85-.43-1.16c-.29-.31-.65-.47-1.1-.47s-.82.16-1.11.47c-.29.31-.43.7-.43,1.16s.14.85.43,1.16c.29.31.66.47,1.11.47Z"/><path d="m139.99,261.67v-6.75h.77v6.75h-.77Z"/><path d="m144.15,261.76c-.65,0-1.2-.22-1.62-.67s-.64-1-.64-1.67.21-1.24.63-1.68c.42-.44.97-.66,1.66-.66s1.24.25,1.64.74c.4.49.57,1.1.52,1.81h-3.66c.01.41.16.75.45,1.02.29.27.64.41,1.04.41.61,0,1.05-.25,1.3-.76h.79c-.11.42-.36.77-.73,1.04-.37.28-.83.41-1.38.41Zm.88-3.68c-.25-.21-.54-.32-.89-.32s-.66.11-.93.32c-.27.21-.44.52-.51.94h2.81c-.07-.41-.23-.72-.48-.93Z"/><path d="m151.47,261.76c-.62,0-1.15-.23-1.57-.68-.42-.46-.63-1.01-.63-1.66s.21-1.2.63-1.66.95-.68,1.57-.68c.33,0,.64.07.92.22.28.15.5.33.66.56v-2.94h.77v6.75h-.77v-.69c-.16.23-.38.42-.66.56-.29.15-.59.22-.92.22Zm.12-.71c.44,0,.81-.16,1.1-.47.29-.31.43-.7.43-1.16s-.14-.85-.43-1.16c-.29-.31-.65-.47-1.1-.47s-.82.16-1.11.47c-.29.31-.43.7-.43,1.16s.14.85.43,1.16c.29.31.66.47,1.11.47Z"/><path d="m157.2,261.76c-.65,0-1.2-.22-1.62-.67s-.64-1-.64-1.67.21-1.24.63-1.68c.42-.44.97-.66,1.66-.66s1.24.25,1.64.74c.4.49.57,1.1.52,1.81h-3.66c.01.41.16.75.45,1.02.29.27.64.41,1.04.41.61,0,1.05-.25,1.3-.76h.79c-.11.42-.36.77-.73,1.04-.37.28-.83.41-1.38.41Zm.88-3.68c-.25-.21-.54-.32-.89-.32s-.66.11-.93.32c-.27.21-.44.52-.51.94h2.81c-.07-.41-.23-.72-.48-.93Z"/><path d="m162.35,261.76c-.62,0-1.15-.23-1.57-.68-.42-.46-.63-1.01-.63-1.66s.21-1.2.63-1.66.95-.68,1.57-.68c.33,0,.64.07.92.22.28.15.5.33.66.56v-.69h.77v4.5h-.77v-.69c-.16.23-.38.42-.66.56-.29.15-.59.22-.92.22Zm.12-.71c.44,0,.81-.16,1.1-.47.29-.31.43-.7.43-1.16s-.14-.85-.43-1.16c-.29-.31-.65-.47-1.1-.47s-.82.16-1.11.47c-.29.31-.43.7-.43,1.16s.14.85.43,1.16c.29.31.66.47,1.11.47Z"/><path d="m167.91,261.71c-.41,0-.75-.12-1-.35-.25-.23-.38-.58-.38-1.03v-2.46h-.95v-.71h.95v-1.25h.77v1.25h1.3v.71h-1.3v2.36c0,.28.06.48.18.59.12.11.31.17.57.17.23,0,.41-.03.55-.09v.69c-.22.07-.45.11-.69.11Z"/><path d="m170.36,261.67h-.77v-6.75h.77v2.94c.31-.52.78-.78,1.43-.78.51,0,.92.17,1.23.49.31.33.47.77.47,1.32v2.77h-.76v-2.66c0-.38-.1-.68-.29-.9s-.45-.33-.77-.33c-.37,0-.68.15-.93.44-.25.29-.37.7-.37,1.21v2.23Z"/><path d="m177.06,261.67v-4.5h.77v.87c.08-.28.25-.5.49-.67.24-.17.5-.25.77-.25.13,0,.25.01.35.04v.8c-.11-.05-.25-.07-.42-.07-.31,0-.59.13-.83.41-.24.27-.36.65-.36,1.14v2.23h-.77Z"/><path d="m182.06,261.76c-.62,0-1.15-.23-1.57-.68-.42-.46-.63-1.01-.63-1.66s.21-1.2.63-1.66.95-.68,1.57-.68c.33,0,.64.07.92.22.28.15.5.33.66.56v-.69h.77v4.5h-.77v-.69c-.16.23-.38.42-.66.56-.29.15-.59.22-.92.22Zm.12-.71c.44,0,.81-.16,1.1-.47.29-.31.43-.7.43-1.16s-.14-.85-.43-1.16c-.29-.31-.65-.47-1.1-.47s-.82.16-1.11.47c-.29.31-.43.7-.43,1.16s.14.85.43,1.16c.29.31.66.47,1.11.47Z"/><path d="m187.62,261.71c-.41,0-.75-.12-1-.35-.25-.23-.38-.58-.38-1.03v-2.46h-.95v-.71h.95v-1.25h.77v1.25h1.3v.71h-1.3v2.36c0,.28.06.48.18.59.12.11.31.17.57.17.23,0,.41-.03.55-.09v.69c-.22.07-.45.11-.69.11Z"/><path d="m191.16,261.76c-.65,0-1.2-.22-1.62-.67s-.64-1-.64-1.67.21-1.24.63-1.68c.42-.44.97-.66,1.66-.66s1.24.25,1.64.74c.4.49.57,1.1.52,1.81h-3.66c.01.41.16.75.45,1.02.29.27.64.41,1.04.41.61,0,1.05-.25,1.3-.76h.79c-.11.42-.36.77-.73,1.04-.37.28-.83.41-1.38.41Zm.88-3.68c-.25-.21-.54-.32-.89-.32s-.66.11-.93.32c-.27.21-.44.52-.51.94h2.81c-.07-.41-.23-.72-.48-.93Z"/><path d="m195.42,258.21c-.13.13-.29.2-.47.2s-.34-.07-.47-.2-.19-.29-.19-.48.07-.34.2-.47c.13-.14.29-.2.47-.2s.34.07.47.2c.13.13.2.29.2.47s-.07.35-.19.48Zm0,3.33c-.13.13-.29.2-.47.2s-.34-.07-.47-.2-.19-.29-.19-.48.07-.34.2-.47c.13-.13.29-.2.47-.2s.34.07.47.2c.13.14.2.29.2.47s-.07.35-.19.48Z"/><path d="m199.66,261.67v-5.62h-1.23l.63-.77h1.38v6.39h-.77Z"/><path d="m205.86,260.92v.75h-4.14v-.31c0-.22.03-.43.1-.63.07-.2.14-.37.23-.51.08-.14.22-.29.4-.46s.32-.3.42-.38c.1-.08.27-.21.51-.38.24-.17.4-.28.48-.34.43-.31.72-.58.89-.79s.25-.49.25-.84-.11-.6-.32-.81c-.22-.2-.5-.3-.85-.3-.37,0-.68.11-.94.33-.26.22-.39.53-.39.93h-.79c0-.6.2-1.09.6-1.46.4-.37.9-.56,1.51-.56.56,0,1.03.16,1.41.49.38.32.56.79.56,1.39,0,.46-.11.84-.33,1.17-.22.32-.6.68-1.14,1.07-.1.07-.25.17-.43.3-.19.13-.33.23-.43.31s-.21.17-.34.28c-.12.11-.22.23-.29.35-.07.12-.12.26-.15.4h3.19Z"/><path d="m207.91,261.54c-.13.13-.29.2-.47.2s-.34-.07-.47-.2-.19-.29-.19-.48.07-.34.2-.47c.13-.13.29-.2.47-.2s.34.07.47.2c.13.14.2.29.2.47s-.06.35-.19.48Z"/><path d="m211.24,261.76c-.64,0-1.17-.19-1.62-.58-.44-.39-.66-.87-.66-1.45h.78c.02.38.18.69.46.92s.63.36,1.04.36c.37,0,.68-.1.93-.31.25-.2.37-.49.37-.85,0-.38-.12-.67-.37-.86-.25-.19-.59-.29-1.02-.29h-.48v-.71h.51c.34,0,.62-.1.84-.29.22-.19.33-.44.34-.75,0-.3-.11-.55-.33-.74-.22-.19-.49-.29-.82-.29-.38,0-.7.11-.95.33s-.39.53-.39.93h-.79c0-.61.2-1.1.61-1.47s.92-.55,1.52-.55c.56,0,1.02.16,1.39.48s.55.75.55,1.27c0,.31-.09.58-.25.83-.16.25-.37.43-.62.57.32.13.58.33.77.61.19.27.28.59.28.95,0,.56-.19,1.01-.58,1.36-.39.35-.89.52-1.5.52Z"/><path d="m205.52,60.49v-3.79h-.95v-.71h.95v-.91c0-.45.13-.79.38-1.03.25-.24.58-.36,1-.36.25,0,.48.04.7.12v.68c-.14-.06-.32-.09-.56-.09-.26,0-.45.06-.57.17s-.18.31-.18.59v.83h1.3v.71h-1.3v3.79h-.77Z"/><path d="m210.25,60.58c-.65,0-1.2-.22-1.62-.67-.43-.44-.64-1-.64-1.67s.21-1.24.63-1.68c.42-.44.97-.66,1.66-.66s1.24.25,1.64.74c.4.49.57,1.09.52,1.81h-3.66c.01.41.16.75.45,1.02.29.27.64.41,1.04.41.61,0,1.05-.25,1.3-.76h.79c-.11.42-.36.77-.73,1.04-.37.28-.83.41-1.38.41Zm.88-3.68c-.25-.21-.54-.32-.89-.32s-.66.1-.93.31c-.27.21-.44.52-.51.94h2.81c-.07-.41-.23-.72-.48-.93Z"/><path d="m219.34,60.49v-2.65c0-.37-.08-.67-.23-.9-.15-.23-.37-.34-.66-.34-.36,0-.65.14-.88.42-.23.28-.34.67-.36,1.15v2.3h-.77v-2.65c0-.38-.08-.68-.23-.9-.15-.22-.37-.33-.65-.33-.37,0-.67.15-.9.45-.23.3-.34.7-.34,1.2v2.23h-.77v-4.5h.77v.69c.29-.52.74-.78,1.36-.78.68,0,1.15.32,1.39.96.12-.29.31-.53.58-.7.26-.17.56-.26.9-.26.49,0,.87.17,1.15.5s.42.77.42,1.33v2.76h-.77Z"/><path d="m223.36,60.58c-.62,0-1.15-.23-1.57-.68s-.63-1.01-.63-1.66.21-1.2.63-1.66c.42-.46.95-.68,1.57-.68.33,0,.64.07.92.22.28.15.5.33.66.56v-.69h.77v4.5h-.77v-.69c-.16.23-.38.42-.66.56-.29.15-.59.22-.92.22Zm.12-.71c.44,0,.81-.16,1.1-.47.29-.31.43-.7.43-1.16s-.14-.85-.43-1.16c-.29-.31-.65-.47-1.1-.47s-.82.16-1.11.47c-.29.31-.43.7-.43,1.16s.14.85.43,1.16c.29.31.66.47,1.11.47Z"/><path d="m227.17,60.49v-6.75h.77v6.75h-.77Z"/><path d="m231.33,60.58c-.65,0-1.2-.22-1.62-.67-.43-.44-.64-1-.64-1.67s.21-1.24.63-1.68c.42-.44.97-.66,1.66-.66s1.24.25,1.64.74c.4.49.57,1.09.52,1.81h-3.66c.01.41.16.75.45,1.02.29.27.64.41,1.04.41.61,0,1.05-.25,1.3-.76h.79c-.11.42-.36.77-.73,1.04-.37.28-.83.41-1.38.41Zm.88-3.68c-.25-.21-.54-.32-.89-.32s-.66.1-.93.31c-.27.21-.44.52-.51.94h2.81c-.07-.41-.23-.72-.48-.93Z"/><path d="m238.65,60.58c-.62,0-1.15-.23-1.57-.68s-.63-1.01-.63-1.66.21-1.2.63-1.66c.42-.46.95-.68,1.57-.68.33,0,.64.07.92.22.28.15.5.33.66.56v-2.94h.77v6.75h-.77v-.69c-.16.23-.38.42-.66.56-.29.15-.59.22-.92.22Zm.12-.71c.44,0,.81-.16,1.1-.47.29-.31.43-.7.43-1.16s-.14-.85-.43-1.16c-.29-.31-.65-.47-1.1-.47s-.82.16-1.11.47c-.29.31-.43.7-.43,1.16s.14.85.43,1.16c.29.31.66.47,1.11.47Z"/><path d="m244.38,60.58c-.65,0-1.2-.22-1.62-.67-.43-.44-.64-1-.64-1.67s.21-1.24.63-1.68c.42-.44.97-.66,1.66-.66s1.24.25,1.64.74c.4.49.57,1.09.52,1.81h-3.66c.01.41.16.75.45,1.02.29.27.64.41,1.04.41.61,0,1.05-.25,1.3-.76h.79c-.11.42-.36.77-.73,1.04-.37.28-.83.41-1.38.41Zm.88-3.68c-.25-.21-.54-.32-.89-.32s-.66.1-.93.31c-.27.21-.44.52-.51.94h2.81c-.07-.41-.23-.72-.48-.93Z"/><path d="m249.53,60.58c-.62,0-1.15-.23-1.57-.68s-.63-1.01-.63-1.66.21-1.2.63-1.66c.42-.46.95-.68,1.57-.68.33,0,.64.07.92.22.28.15.5.33.66.56v-.69h.77v4.5h-.77v-.69c-.16.23-.38.42-.66.56-.29.15-.59.22-.92.22Zm.12-.71c.44,0,.81-.16,1.1-.47.29-.31.43-.7.43-1.16s-.14-.85-.43-1.16c-.29-.31-.65-.47-1.1-.47s-.82.16-1.11.47c-.29.31-.43.7-.43,1.16s.14.85.43,1.16c.29.31.66.47,1.11.47Z"/><path d="m255.09,60.54c-.41,0-.75-.12-1-.35s-.38-.58-.38-1.03v-2.46h-.95v-.71h.95v-1.25h.77v1.25h1.3v.71h-1.3v2.36c0,.28.06.48.18.59.12.11.31.17.57.17.23,0,.41-.03.55-.09v.69c-.22.07-.45.11-.69.11Z"/><path d="m257.55,60.49h-.77v-6.75h.77v2.94c.31-.52.78-.78,1.43-.78.51,0,.92.17,1.23.5.31.33.47.77.47,1.32v2.77h-.76v-2.65c0-.38-.1-.68-.29-.9-.19-.22-.45-.33-.77-.33-.37,0-.68.15-.93.44-.25.29-.37.7-.37,1.21v2.23Z"/><path d="m264.24,60.49v-4.5h.77v.87c.08-.28.25-.5.49-.67.24-.17.5-.25.77-.25.13,0,.25.01.35.04v.8c-.11-.05-.25-.07-.42-.07-.31,0-.59.13-.83.4-.24.27-.36.65-.36,1.14v2.23h-.77Z"/><path d="m269.24,60.58c-.62,0-1.15-.23-1.57-.68s-.63-1.01-.63-1.66.21-1.2.63-1.66c.42-.46.95-.68,1.57-.68.33,0,.64.07.92.22.28.15.5.33.66.56v-.69h.77v4.5h-.77v-.69c-.16.23-.38.42-.66.56-.29.15-.59.22-.92.22Zm.12-.71c.44,0,.81-.16,1.1-.47.29-.31.43-.7.43-1.16s-.14-.85-.43-1.16c-.29-.31-.65-.47-1.1-.47s-.82.16-1.11.47c-.29.31-.43.7-.43,1.16s.14.85.43,1.16c.29.31.66.47,1.11.47Z"/><path d="m274.8,60.54c-.41,0-.75-.12-1-.35s-.38-.58-.38-1.03v-2.46h-.95v-.71h.95v-1.25h.77v1.25h1.3v.71h-1.3v2.36c0,.28.06.48.18.59.12.11.31.17.57.17.23,0,.41-.03.55-.09v.69c-.22.07-.45.11-.69.11Z"/><path d="m278.34,60.58c-.65,0-1.2-.22-1.62-.67-.43-.44-.64-1-.64-1.67s.21-1.24.63-1.68c.42-.44.97-.66,1.66-.66s1.24.25,1.64.74c.4.49.57,1.09.52,1.81h-3.66c.01.41.16.75.45,1.02.29.27.64.41,1.04.41.61,0,1.05-.25,1.3-.76h.79c-.11.42-.36.77-.73,1.04-.37.28-.83.41-1.38.41Zm.88-3.68c-.25-.21-.54-.32-.89-.32s-.66.1-.93.31c-.27.21-.44.52-.51.94h2.81c-.07-.41-.23-.72-.48-.93Z"/><path d="m282.61,57.04c-.13.13-.29.2-.47.2s-.34-.07-.47-.2c-.13-.13-.19-.29-.19-.48s.07-.34.2-.47.29-.2.47-.2.34.07.47.2.2.29.2.47-.07.34-.19.48Zm0,3.33c-.13.13-.29.2-.47.2s-.34-.07-.47-.2-.19-.29-.19-.48.07-.34.2-.47.29-.2.47-.2.34.07.47.2.2.29.2.47-.07.34-.19.48Z"/><path d="m286.2,60.49l1.97-2.32c-.07,0-.15,0-.25,0-.53,0-1-.2-1.4-.61s-.6-.89-.6-1.44c0-.6.21-1.1.62-1.52.41-.41.92-.62,1.54-.62s1.13.2,1.55.61.62.91.62,1.49c0,.31-.06.59-.18.84s-.3.51-.54.79l-2.34,2.76h-.99Zm.9-3.4c.26.27.59.4.98.4s.72-.13.98-.4c.26-.27.4-.59.4-.98s-.13-.71-.4-.98c-.26-.27-.59-.4-.98-.4s-.72.13-.98.4c-.26.27-.39.59-.39.98s.13.71.39.98Z"/><path d="m291.44,60.37c-.13.13-.29.2-.47.2s-.34-.07-.47-.2-.19-.29-.19-.48.07-.34.2-.47.29-.2.47-.2.34.07.47.2c.13.13.2.29.2.47s-.06.34-.19.48Z"/><path d="m293.07,60.49v-5.62h-1.23l.63-.76h1.38v6.39h-.77Z"/></g></svg>