<?xml version="1.0" encoding="UTF-8"?><svg id="_图层_2" xmlns="http://www.w3.org/2000/svg" viewBox="0 0 349.19 349.48"><defs><style>.cls-1{fill:#fff;}.cls-2{letter-spacing:0em;}.cls-3{letter-spacing:-.02em;}.cls-4{letter-spacing:-.02em;}.cls-5{letter-spacing:0em;}.cls-6{letter-spacing:-.02em;}.cls-7{letter-spacing:0em;}.cls-8{letter-spacing:-.03em;}.cls-9{font-family:EuclidCircularA-Regular, 'Euclid Circular A';font-size:11px;}.cls-10{letter-spacing:0em;}.cls-11{letter-spacing:-.01em;}.cls-12{letter-spacing:-.02em;}.cls-13{letter-spacing:0em;}.cls-14{letter-spacing:-.03em;}.cls-15{fill:none;stroke:#241f20;stroke-miterlimit:10;stroke-width:.5px;}</style></defs><g id="_图层_1-2"><path class="cls-1" d="m347.41,170.13c15.81,152.06-76.03,93.35-182.93,170.13C99.95,386.62-12.43,246.92,1.12,170.13,17.45,77.6,63.45,0,164.48,0s173.21,76.67,182.93,170.13Z"/><text class="cls-9" transform="translate(57.28 265.95)"><tspan class="cls-10" x="0" y="0">I</tspan><tspan x="3.07" y="0">n 2020</tspan><tspan class="cls-12" x="38.18" y="0"> </tspan><tspan x="40.64" y="0">the</tspan><tspan class="cls-4" x="57.68" y="0">r</tspan><tspan x="61.51" y="0">e</tspan><tspan class="cls-3" x="67.88" y="0"> </tspan><tspan class="cls-10" x="70.33" y="0">w</tspan><tspan x="78.7" y="0">e</tspan><tspan class="cls-3" x="85.07" y="0">r</tspan><tspan x="88.9" y="0">e 211.8 pe</tspan><tspan class="cls-8" x="136.23" y="0">r</tspan><tspan x="139.98" y="0" xml:space="preserve"> 10</tspan><tspan class="cls-6" x="153.06" y="0">0,</tspan><tspan x="162.37" y="0">000 deaths</tspan><tspan x="0" y="13.2">because </tspan><tspan class="cls-7" x="47.22" y="13.2">o</tspan><tspan class="cls-14" x="53.8" y="13.2">f</tspan><tspan x="57.55" y="13.2"> </tspan><tspan class="cls-2" x="60.2" y="13.2">H</tspan><tspan x="68.5" y="13.2">eart </tspan><tspan class="cls-13" x="92.67" y="13.2">D</tspan><tspan x="100.54" y="13.2">isease.</tspan></text><text class="cls-9" transform="translate(65.12 66.49)"><tspan x="0" y="0">13</tspan><tspan class="cls-6" x="9.96" y="0">0</tspan><tspan x="16.63" y="0">.2 pe</tspan><tspan class="cls-8" x="41.5" y="0">r</tspan><tspan x="45.25" y="0" xml:space="preserve"> 10</tspan><tspan class="cls-6" x="58.33" y="0">0,</tspan><tspan x="67.65" y="0">000</tspan><tspan class="cls-4" x="88.21" y="0"> </tspan><tspan class="cls-5" x="90.66" y="0">w</tspan><tspan x="99.03" y="0">e</tspan><tspan class="cls-4" x="105.4" y="0">r</tspan><tspan x="109.23" y="0">e</tspan><tspan class="cls-11" x="115.6" y="0" xml:space="preserve"> f</tspan><tspan x="122" y="0">emale</tspan></text><text class="cls-9" transform="translate(232.81 164.34)"><tspan x="0" y="0">214.2 pe</tspan><tspan class="cls-8" x="41.37" y="0">r</tspan><tspan x="45.12" y="0" xml:space="preserve"> 10</tspan><tspan class="cls-6" x="58.2" y="0">0,</tspan><tspan x="67.52" y="0">000 </tspan><tspan class="cls-10" x="0" y="13.2">w</tspan><tspan x="8.37" y="13.2">e</tspan><tspan class="cls-3" x="14.74" y="13.2">r</tspan><tspan x="18.57" y="13.2">e male</tspan></text><line class="cls-15" x1="115.16" y1="87.55" x2="149.05" y2="242.03"/><line class="cls-15" x1="250.1" y1="195.4" x2="203.25" y2="237.78"/></g></svg>