<?xml version="1.0" encoding="UTF-8"?><svg id="_图层_2" xmlns="http://www.w3.org/2000/svg" viewBox="0 0 360.2 353.83"><defs><style>.cls-1{letter-spacing:-.09em;}.cls-2{letter-spacing:0em;}.cls-3{fill:#fff;}.cls-4{letter-spacing:-.02em;}.cls-5{letter-spacing:-.02em;}.cls-6{letter-spacing:-.04em;}.cls-7{letter-spacing:-.06em;}.cls-8{letter-spacing:0em;}.cls-9{letter-spacing:-.02em;}.cls-10{letter-spacing:0em;}.cls-11{letter-spacing:0em;}.cls-12{letter-spacing:-.01em;}.cls-13{letter-spacing:-.03em;}.cls-14{font-family:EuclidCircularA-Regular, 'Euclid Circular A';font-size:11px;}.cls-15{letter-spacing:0em;}.cls-16{letter-spacing:0em;}.cls-17{letter-spacing:-.01em;}.cls-18{letter-spacing:-.02em;}.cls-19{letter-spacing:0em;}.cls-20{letter-spacing:-.03em;}.cls-21{fill:none;stroke:#241f20;stroke-miterlimit:10;stroke-width:.5px;}</style></defs><g id="_图层_1-2"><path class="cls-3" d="m338,302.13c-102.4,86.74-419.06,59.53-318.55-45.75,76.64-80.28,80.14-19.73,116.8-182.53,21.54-95.66,262.29-95.48,218.68-16.28-85.68,155.59,32.77,202.46-16.93,244.56Z"/><text class="cls-14" transform="translate(83.39 294)"><tspan class="cls-16" x="0" y="0">I</tspan><tspan x="3.07" y="0">n 2020</tspan><tspan class="cls-18" x="38.18" y="0"> </tspan><tspan x="40.64" y="0">the</tspan><tspan class="cls-5" x="57.68" y="0">r</tspan><tspan x="61.51" y="0">e</tspan><tspan class="cls-4" x="67.88" y="0"> </tspan><tspan class="cls-16" x="70.33" y="0">w</tspan><tspan x="78.7" y="0">e</tspan><tspan class="cls-4" x="85.07" y="0">r</tspan><tspan x="88.9" y="0">e 22.5 pe</tspan><tspan class="cls-13" x="135.04" y="0">r</tspan><tspan x="138.79" y="0" xml:space="preserve"> 10</tspan><tspan class="cls-9" x="151.87" y="0">0,</tspan><tspan x="161.18" y="0">000 deaths</tspan><tspan x="0" y="13.2">because </tspan><tspan class="cls-10" x="47.22" y="13.2">o</tspan><tspan class="cls-20" x="53.8" y="13.2">f</tspan><tspan x="57.55" y="13.2" xml:space="preserve"> Ce</tspan><tspan class="cls-4" x="75.24" y="13.2">r</tspan><tspan x="79.07" y="13.2">eb</tspan><tspan class="cls-5" x="92.37" y="13.2">r</tspan><tspan class="cls-12" x="96.2" y="13.2">o</tspan><tspan class="cls-15" x="102.74" y="13.2">v</tspan><tspan x="108.64" y="13.2">ascula</tspan><tspan class="cls-7" x="143.21" y="13.2">r</tspan><tspan x="146.63" y="13.2">.</tspan></text><text class="cls-14" transform="translate(126.38 161.02)"><tspan class="cls-19" x="0" y="0">(</tspan><tspan x="2.97" y="0">5</tspan><tspan class="cls-1" x="9.08" y="0">7</tspan><tspan class="cls-6" x="13.66" y="0">.</tspan><tspan x="16.03" y="0">1%)</tspan><tspan class="cls-5" x="33.52" y="0"> </tspan><tspan class="cls-8" x="35.97" y="0">w</tspan><tspan x="44.34" y="0">e</tspan><tspan class="cls-5" x="50.71" y="0">r</tspan><tspan x="54.54" y="0">e</tspan><tspan class="cls-17" x="60.91" y="0" xml:space="preserve"> f</tspan><tspan x="67.31" y="0">emale</tspan></text><text class="cls-14" transform="translate(223.11 58.85)"><tspan class="cls-20" x="0" y="0">(</tspan><tspan class="cls-2" x="2.74" y="0">4</tspan><tspan x="9.46" y="0">2</tspan><tspan class="cls-11" x="15.6" y="0">.</tspan><tspan x="18.33" y="0">9%)</tspan><tspan class="cls-5" x="38.39" y="0"> </tspan><tspan class="cls-8" x="40.84" y="0">w</tspan><tspan x="49.21" y="0">e</tspan><tspan class="cls-5" x="55.58" y="0">r</tspan><tspan x="59.41" y="0">e male</tspan></text><line class="cls-21" x1="180.1" y1="176.91" x2="192.7" y2="263.04"/><line class="cls-21" x1="263.21" y1="73.43" x2="207.91" y2="133.55"/></g></svg>