<?xml version="1.0" encoding="UTF-8"?><svg id="_图层_2" xmlns="http://www.w3.org/2000/svg" viewBox="0 0 315.77 304.48"><defs><style>.cls-1{font-family:EuclidCircularA-Regular, 'Euclid Circular A';font-size:9px;}.cls-2{fill:#fff;}.cls-3{letter-spacing:0em;}.cls-4{letter-spacing:-.02em;}.cls-5{letter-spacing:-.02em;}.cls-6{letter-spacing:-.06em;}.cls-7{letter-spacing:0em;}.cls-8{letter-spacing:0em;}.cls-9{letter-spacing:-.01em;}.cls-10{letter-spacing:0em;}.cls-11{letter-spacing:-.02em;}.cls-12{letter-spacing:-.02em;}.cls-13{letter-spacing:-.03em;}.cls-14{fill:none;stroke:#241f20;stroke-miterlimit:10;stroke-width:.5px;}</style></defs><g id="_图层_1-2"><path class="cls-2" d="m312.92,131.71c-36.04,145.82-80.74,183.33-221.06,170.39C18,295.29,20.94,159.41,11.35,131.71-20.74,39.03,15.69-36.3,114.76,18.58c94.05,52.09,221.69,17.91,198.16,113.13Z"/><text class="cls-1" transform="translate(31.63 78.32)"><tspan class="cls-7" x="0" y="0">I</tspan><tspan x="2.51" y="0">n 2020</tspan><tspan class="cls-12" x="31.24" y="0"> </tspan><tspan x="33.25" y="0">the</tspan><tspan class="cls-5" x="47.2" y="0">r</tspan><tspan x="50.33" y="0">e</tspan><tspan class="cls-5" x="55.54" y="0"> </tspan><tspan class="cls-7" x="57.54" y="0">w</tspan><tspan x="64.39" y="0">e</tspan><tspan class="cls-5" x="69.61" y="0">r</tspan><tspan x="72.74" y="0">e 113.5 pe</tspan><tspan class="cls-4" x="111.51" y="0">r</tspan><tspan x="114.58" y="0" xml:space="preserve"> 10</tspan><tspan class="cls-11" x="125.28" y="0">0,</tspan><tspan x="132.9" y="0">000 deaths</tspan><tspan x="0" y="10.8">because </tspan><tspan class="cls-8" x="38.64" y="10.8">o</tspan><tspan class="cls-13" x="44.02" y="10.8">f</tspan><tspan x="47.09" y="10.8" xml:space="preserve"> Cance</tspan><tspan class="cls-6" x="77.82" y="10.8">r</tspan><tspan x="80.62" y="10.8">.</tspan></text><text class="cls-1" transform="translate(56.46 248.58)"><tspan class="cls-13" x="0" y="0">(</tspan><tspan class="cls-3" x="2.24" y="0">4</tspan><tspan x="7.74" y="0">2%)</tspan><tspan class="cls-5" x="24.15" y="0"> </tspan><tspan class="cls-7" x="26.15" y="0">w</tspan><tspan x="33" y="0">e</tspan><tspan class="cls-5" x="38.21" y="0">r</tspan><tspan x="41.35" y="0">e</tspan><tspan class="cls-9" x="46.56" y="0" xml:space="preserve"> f</tspan><tspan x="51.79" y="0">emale</tspan></text><text class="cls-1" transform="translate(207.73 171.51)"><tspan class="cls-10" x="0" y="0">(</tspan><tspan x="2.43" y="0">58%)</tspan><tspan class="cls-5" x="23.95" y="0"> </tspan><tspan class="cls-7" x="25.96" y="0">w</tspan><tspan x="32.8" y="0">e</tspan><tspan class="cls-5" x="38.02" y="0">r</tspan><tspan x="41.15" y="0">e male</tspan></text><line class="cls-14" x1="118.55" y1="101.45" x2="91.17" y2="228.61"/><line class="cls-14" x1="227.06" y1="145.19" x2="194.38" y2="94.4"/></g></svg>