<?xml version="1.0" encoding="UTF-8"?><svg id="_图层_2" xmlns="http://www.w3.org/2000/svg" viewBox="0 0 315.77 304.48"><defs><style>.cls-1{letter-spacing:-.08em;}.cls-2{font-family:EuclidCircularA-Regular, 'Euclid Circular A';font-size:9px;}.cls-3{fill:#fff;}.cls-4{letter-spacing:-.02em;}.cls-5{letter-spacing:-.02em;}.cls-6{letter-spacing:-.02em;}.cls-7{letter-spacing:-.06em;}.cls-8{letter-spacing:0em;}.cls-9{letter-spacing:-.01em;}.cls-10{letter-spacing:-.02em;}.cls-11{letter-spacing:0em;}.cls-12{letter-spacing:0em;}.cls-13{letter-spacing:-.02em;}.cls-14{letter-spacing:-.02em;}.cls-15{letter-spacing:0em;}.cls-16{letter-spacing:-.01em;}.cls-17{letter-spacing:-.03em;}.cls-18{fill:none;stroke:#241f20;stroke-miterlimit:10;stroke-width:.5px;}</style></defs><g id="_图层_1-2"><path class="cls-3" d="m312.92,131.71c-36.04,145.82-80.74,183.33-221.06,170.39C18,295.29,20.94,159.41,11.35,131.71-20.74,39.03,15.69-36.3,114.76,18.58c94.05,52.09,221.69,17.91,198.16,113.13Z"/><text class="cls-2" transform="translate(35.53 78.32)"><tspan class="cls-8" x="0" y="0">I</tspan><tspan x="2.51" y="0">n 2019</tspan><tspan class="cls-14" x="28.57" y="0"> </tspan><tspan x="30.58" y="0">the</tspan><tspan class="cls-6" x="44.52" y="0">r</tspan><tspan x="47.65" y="0">e</tspan><tspan class="cls-6" x="52.87" y="0"> </tspan><tspan class="cls-8" x="54.87" y="0">w</tspan><tspan x="61.72" y="0">e</tspan><tspan class="cls-6" x="66.93" y="0">r</tspan><tspan x="70.06" y="0">e 118.7 pe</tspan><tspan class="cls-5" x="108.34" y="0">r</tspan><tspan x="111.41" y="0" xml:space="preserve"> 10</tspan><tspan class="cls-13" x="122.11" y="0">0,</tspan><tspan x="129.73" y="0">000 deaths</tspan><tspan x="0" y="10.8">because </tspan><tspan class="cls-11" x="38.64" y="10.8">o</tspan><tspan class="cls-17" x="44.02" y="10.8">f</tspan><tspan x="47.09" y="10.8" xml:space="preserve"> Cance</tspan><tspan class="cls-7" x="77.82" y="10.8">r</tspan><tspan x="80.62" y="10.8">.</tspan></text><text class="cls-2" transform="translate(56.46 248.58)"><tspan class="cls-12" x="0" y="0">(</tspan><tspan x="2.43" y="0">5</tspan><tspan class="cls-10" x="7.42" y="0">0</tspan><tspan x="12.89" y="0">.5%)</tspan><tspan class="cls-6" x="31.54" y="0"> </tspan><tspan class="cls-15" x="33.54" y="0">w</tspan><tspan x="40.39" y="0">e</tspan><tspan class="cls-4" x="45.6" y="0">r</tspan><tspan x="48.73" y="0">e</tspan><tspan class="cls-16" x="53.95" y="0" xml:space="preserve"> f</tspan><tspan x="59.18" y="0">emale</tspan></text><text class="cls-2" transform="translate(207.73 171.51)"><tspan class="cls-17" x="0" y="0">(</tspan><tspan class="cls-9" x="2.24" y="0">4</tspan><tspan class="cls-1" x="7.67" y="0">9</tspan><tspan x="11.96" y="0">.5%)</tspan><tspan class="cls-6" x="30.61" y="0"> </tspan><tspan class="cls-8" x="32.62" y="0">w</tspan><tspan x="39.46" y="0">e</tspan><tspan class="cls-6" x="44.68" y="0">r</tspan><tspan x="47.81" y="0">e male</tspan></text><line class="cls-18" x1="118.55" y1="101.45" x2="91.17" y2="228.61"/><line class="cls-18" x1="227.06" y1="145.19" x2="194.38" y2="94.4"/></g></svg>