<?xml version="1.0" encoding="UTF-8"?><svg id="_图层_2" xmlns="http://www.w3.org/2000/svg" viewBox="0 0 315.77 304.48"><defs><style>.cls-1{font-family:EuclidCircularA-Regular, 'Euclid Circular A';font-size:9px;}.cls-2{fill:#fff;}.cls-3{letter-spacing:-.02em;}.cls-4{letter-spacing:-.02em;}.cls-5{letter-spacing:0em;}.cls-6{letter-spacing:-.06em;}.cls-7{letter-spacing:0em;}.cls-8{letter-spacing:-.01em;}.cls-9{letter-spacing:-.02em;}.cls-10{letter-spacing:0em;}.cls-11{letter-spacing:0em;}.cls-12{letter-spacing:-.02em;}.cls-13{letter-spacing:-.02em;}.cls-14{letter-spacing:-.02em;}.cls-15{letter-spacing:-.01em;}.cls-16{letter-spacing:-.03em;}.cls-17{fill:none;stroke:#241f20;stroke-miterlimit:10;stroke-width:.5px;}</style></defs><g id="_图层_1-2"><path class="cls-2" d="m312.92,131.71c-36.04,145.82-80.74,183.33-221.06,170.39C18,295.29,20.94,159.41,11.35,131.71-20.74,39.03,15.69-36.3,114.76,18.58c94.05,52.09,221.69,17.91,198.16,113.13Z"/><text class="cls-1" transform="translate(35.53 78.32)"><tspan class="cls-7" x="0" y="0">I</tspan><tspan x="2.51" y="0">n 2018</tspan><tspan class="cls-13" x="28.67" y="0"> </tspan><tspan x="30.69" y="0">the</tspan><tspan class="cls-4" x="44.63" y="0">r</tspan><tspan x="47.76" y="0">e</tspan><tspan class="cls-4" x="52.97" y="0"> </tspan><tspan class="cls-7" x="54.98" y="0">w</tspan><tspan x="61.83" y="0">e</tspan><tspan class="cls-4" x="67.04" y="0">r</tspan><tspan x="70.17" y="0">e 1</tspan><tspan class="cls-8" x="80.48" y="0">2</tspan><tspan x="85.37" y="0">4.2 pe</tspan><tspan class="cls-3" x="111.27" y="0">r</tspan><tspan x="114.34" y="0" xml:space="preserve"> 10</tspan><tspan class="cls-12" x="125.04" y="0">0,</tspan><tspan x="132.67" y="0">000 deaths</tspan><tspan x="0" y="10.8">because </tspan><tspan class="cls-10" x="38.64" y="10.8">o</tspan><tspan class="cls-16" x="44.02" y="10.8">f</tspan><tspan x="47.09" y="10.8" xml:space="preserve"> Cance</tspan><tspan class="cls-6" x="77.82" y="10.8">r</tspan><tspan x="80.62" y="10.8">.</tspan></text><text class="cls-1" transform="translate(56.46 248.58)"><tspan class="cls-15" x="0" y="0">f</tspan><tspan x="3.19" y="0">emale death </tspan><tspan class="cls-14" x="59.1" y="0">r</tspan><tspan x="62.24" y="0">a</tspan><tspan class="cls-11" x="67.91" y="0">t</tspan><tspan x="71.28" y="0">e: 9</tspan><tspan class="cls-9" x="86.16" y="0">0</tspan><tspan x="91.62" y="0">.84</tspan></text><text class="cls-1" transform="translate(207.73 171.51)"><tspan x="0" y="0">male death </tspan><tspan class="cls-13" x="50.71" y="0">r</tspan><tspan x="53.85" y="0">a</tspan><tspan class="cls-5" x="59.52" y="0">t</tspan><tspan x="62.88" y="0">e: </tspan><tspan x="0" y="10.8">121</tspan><tspan class="cls-9" x="10.87" y="10.8">.</tspan><tspan x="13" y="10.8">0</tspan><tspan class="cls-8" x="18.6" y="10.8">4</tspan><tspan x="24.03" y="10.8">7</tspan></text><line class="cls-17" x1="118.55" y1="101.45" x2="91.17" y2="228.61"/><line class="cls-17" x1="227.06" y1="145.19" x2="194.38" y2="94.4"/></g></svg>