<?xml version="1.0" encoding="UTF-8"?><svg id="_图层_2" xmlns="http://www.w3.org/2000/svg" viewBox="0 0 360.2 353.83"><defs><style>.cls-1{fill:#fff;}.cls-2{fill:none;stroke:#241f20;stroke-miterlimit:10;stroke-width:.5px;}</style></defs><g id="_图层_1-2"><path class="cls-1" d="m338,302.13c-102.4,86.74-419.06,59.53-318.55-45.75,76.64-80.28,80.14-19.73,116.8-182.53,21.54-95.66,262.29-95.48,218.68-16.28-85.68,155.59,32.77,202.46-16.93,244.56Z"/><path d="m84.33,293.15v-7.1h.93v7.1h-.93Z"/><path d="m86.99,293.15v-5h.86v.77c.34-.58.87-.87,1.59-.87.57,0,1.02.18,1.37.55.35.37.52.86.52,1.47v3.08h-.85v-2.95c0-.42-.11-.75-.32-1-.21-.24-.5-.37-.86-.37-.41,0-.76.16-1.04.49-.28.33-.42.77-.42,1.34v2.48h-.86Z"/><path d="m99.57,292.32v.83h-4.6v-.34c0-.25.04-.48.12-.71.08-.22.16-.41.25-.57.09-.15.24-.33.44-.51.2-.19.36-.33.47-.42s.3-.23.57-.42c.27-.19.44-.32.53-.38.47-.35.8-.64.99-.88.18-.24.27-.55.27-.94s-.12-.67-.36-.89c-.24-.22-.55-.33-.94-.33-.41,0-.75.12-1.04.37-.29.25-.43.59-.43,1.03h-.88c0-.67.22-1.21.66-1.62.44-.41,1-.62,1.68-.62.63,0,1.15.18,1.56.54.42.36.62.87.62,1.54,0,.51-.12.94-.37,1.29-.25.36-.67.75-1.27,1.19-.11.08-.27.19-.48.33-.21.14-.37.26-.48.34-.11.09-.24.19-.38.32s-.24.25-.32.39c-.08.14-.13.29-.17.45h3.54Z"/><path d="m103.17,293.25c-.74,0-1.34-.25-1.81-.75-.47-.5-.7-1.14-.7-1.92v-1.98c0-.79.24-1.43.71-1.93.47-.5,1.07-.75,1.81-.75s1.34.25,1.81.75.71,1.14.71,1.92v1.98c0,.79-.24,1.43-.71,1.92-.47.5-1.08.75-1.81.75Zm0-.84c.49,0,.89-.16,1.2-.49.31-.33.46-.77.46-1.34v-1.98c0-.57-.15-1.01-.46-1.34-.31-.33-.71-.49-1.2-.49s-.88.16-1.19.49c-.31.33-.46.77-.46,1.34v1.98c0,.57.15,1.01.46,1.34.31.33.7.49,1.19.49Z"/><path d="m107.74,293.15v-6.25h-1.37l.7-.85h1.53v7.1h-.86Z"/><path d="m112.65,293.25c-.74,0-1.34-.25-1.81-.75-.47-.5-.7-1.14-.7-1.92v-1.98c0-.79.24-1.43.71-1.93.47-.5,1.07-.75,1.81-.75s1.34.25,1.81.75.71,1.14.71,1.92v1.98c0,.79-.24,1.43-.71,1.92-.47.5-1.08.75-1.81.75Zm0-.84c.49,0,.89-.16,1.2-.49.31-.33.46-.77.46-1.34v-1.98c0-.57-.15-1.01-.46-1.34-.31-.33-.71-.49-1.2-.49s-.88.16-1.19.49c-.31.33-.46.77-.46,1.34v1.98c0,.57.15,1.01.46,1.34.31.33.7.49,1.19.49Z"/><path d="m120.76,293.2c-.46,0-.83-.13-1.11-.39-.28-.26-.42-.64-.42-1.14v-2.73h-1.06v-.79h1.06v-1.39h.86v1.39h1.44v.79h-1.44v2.62c0,.31.07.53.2.66.13.13.34.19.63.19.25,0,.46-.03.61-.1v.77c-.24.08-.5.12-.77.12Z"/><path d="m123.49,293.15h-.86v-7.5h.86v3.27c.34-.58.87-.87,1.59-.87.57,0,1.02.18,1.37.55.35.37.52.86.52,1.47v3.08h-.85v-2.95c0-.42-.11-.75-.32-1-.21-.24-.5-.37-.86-.37-.41,0-.76.16-1.04.49-.28.33-.42.77-.42,1.34v2.48Z"/><path d="m130.65,293.25c-.73,0-1.33-.25-1.81-.74-.48-.49-.71-1.11-.71-1.86s.23-1.38.7-1.87c.46-.49,1.08-.74,1.84-.74s1.38.27,1.82.82c.44.55.63,1.22.58,2.01h-4.07c.01.45.18.83.5,1.14.32.3.71.45,1.16.45.68,0,1.16-.28,1.45-.84h.88c-.13.47-.4.85-.81,1.16s-.92.46-1.53.46Zm.98-4.08c-.27-.24-.6-.35-.99-.35s-.73.12-1.04.35c-.3.23-.49.58-.56,1.04h3.12c-.08-.45-.26-.8-.53-1.04Z"/><path d="m134.31,293.15v-5h.86v.97c.09-.31.28-.55.54-.74.27-.19.55-.28.86-.28.15,0,.28.01.39.04v.89c-.12-.05-.28-.08-.47-.08-.35,0-.65.15-.92.45s-.4.72-.4,1.27v2.48h-.86Z"/><path d="m139.92,293.25c-.73,0-1.33-.25-1.81-.74-.48-.49-.71-1.11-.71-1.86s.23-1.38.7-1.87c.46-.49,1.08-.74,1.84-.74s1.38.27,1.82.82c.44.55.63,1.22.58,2.01h-4.07c.01.45.18.83.5,1.14.32.3.71.45,1.16.45.68,0,1.16-.28,1.45-.84h.88c-.13.47-.4.85-.81,1.16s-.92.46-1.53.46Zm.98-4.08c-.27-.24-.6-.35-.99-.35s-.73.12-1.04.35c-.3.23-.49.58-.56,1.04h3.12c-.08-.45-.26-.8-.53-1.04Z"/><path d="m150.05,293.15l-1.24-3.59-1.23,3.59h-.76l-1.7-5h.9l1.21,3.65,1.25-3.65h.66l1.25,3.65,1.21-3.65h.91l-1.7,5h-.76Z"/><path d="m155.55,293.25c-.73,0-1.33-.25-1.81-.74-.48-.49-.71-1.11-.71-1.86s.23-1.38.7-1.87c.46-.49,1.08-.74,1.84-.74s1.38.27,1.82.82c.44.55.63,1.22.58,2.01h-4.07c.01.45.18.83.5,1.14.32.3.71.45,1.16.45.68,0,1.16-.28,1.45-.84h.88c-.13.47-.4.85-.81,1.16s-.92.46-1.53.46Zm.98-4.08c-.27-.24-.6-.35-.99-.35s-.73.12-1.04.35c-.3.23-.49.58-.56,1.04h3.12c-.08-.45-.26-.8-.53-1.04Z"/><path d="m159.21,293.15v-5h.86v.97c.09-.31.28-.55.54-.74.27-.19.55-.28.86-.28.15,0,.28.01.39.04v.89c-.12-.05-.28-.08-.47-.08-.35,0-.65.15-.92.45s-.4.72-.4,1.27v2.48h-.86Z"/><path d="m164.82,293.25c-.73,0-1.33-.25-1.81-.74-.48-.49-.71-1.11-.71-1.86s.23-1.38.7-1.87c.46-.49,1.08-.74,1.84-.74s1.38.27,1.82.82c.44.55.63,1.22.58,2.01h-4.07c.01.45.18.83.5,1.14.32.3.71.45,1.16.45.68,0,1.16-.28,1.45-.84h.88c-.13.47-.4.85-.81,1.16s-.92.46-1.53.46Zm.98-4.08c-.27-.24-.6-.35-.99-.35s-.73.12-1.04.35c-.3.23-.49.58-.56,1.04h3.12c-.08-.45-.26-.8-.53-1.04Z"/><path d="m170.82,293.15l2.19-2.58c-.07,0-.17,0-.28,0-.59,0-1.11-.23-1.56-.68s-.67-.99-.67-1.6c0-.67.23-1.23.69-1.68.46-.46,1.03-.69,1.71-.69s1.26.23,1.72.68.69,1.01.69,1.66c0,.35-.07.66-.21.93s-.33.57-.59.88l-2.6,3.07h-1.1Zm1-3.78c.29.3.65.45,1.08.45s.8-.15,1.09-.45.44-.66.44-1.08-.15-.79-.44-1.08-.66-.45-1.09-.45-.79.15-1.08.45-.44.66-.44,1.08.15.79.44,1.08Z"/><path d="m177.96,289.91c-.55,0-1.01-.19-1.4-.58-.38-.39-.57-.85-.57-1.39s.19-1.01.57-1.4c.38-.38.85-.58,1.4-.58s1,.19,1.39.58c.39.38.58.85.58,1.4s-.19,1-.58,1.39-.85.58-1.39.58Zm0-.78c.32,0,.6-.12.83-.35s.35-.52.35-.83-.12-.6-.35-.83c-.23-.24-.51-.36-.83-.36s-.61.12-.84.35-.34.51-.34.84.11.61.34.84.51.35.84.35Zm.88,4.02h-.93l4.5-7.1h.93l-4.5,7.1Zm4.45.08c-.55,0-1.01-.19-1.4-.58-.38-.39-.57-.85-.57-1.39s.19-1.01.57-1.39c.38-.38.85-.58,1.4-.58s1,.19,1.39.58.58.85.58,1.39-.19,1-.58,1.39-.85.58-1.39.58Zm0-.78c.32,0,.6-.12.83-.36.23-.24.35-.51.35-.83s-.12-.6-.35-.83c-.23-.24-.51-.35-.83-.35s-.61.12-.84.35-.34.51-.34.84.11.61.34.84.51.35.84.35Z"/><path d="m191.02,293.25c-.75,0-1.38-.25-1.88-.75-.5-.5-.75-1.12-.75-1.84s.25-1.34.75-1.85c.5-.5,1.12-.75,1.88-.75s1.37.25,1.86.75c.5.5.75,1.12.75,1.85s-.25,1.34-.75,1.84c-.5.5-1.12.75-1.86.75Zm-1.25-1.32c.32.35.74.52,1.25.52s.93-.17,1.25-.52c.32-.35.48-.77.48-1.28s-.16-.93-.48-1.28c-.32-.35-.74-.52-1.25-.52s-.93.17-1.25.52c-.32.35-.49.77-.49,1.28s.16.93.49,1.28Z"/><path d="m195.2,293.15v-4.21h-1.06v-.79h1.06v-1.01c0-.5.14-.88.42-1.15.28-.27.65-.4,1.11-.4.27,0,.53.04.78.13v.76c-.15-.07-.36-.1-.62-.1-.29,0-.5.06-.63.19-.13.13-.2.35-.2.66v.92h1.45v.79h-1.45v4.21h-.86Z"/><path d="m202.66,293.25c-.69,0-1.28-.25-1.75-.76s-.71-1.12-.71-1.84.24-1.33.71-1.84c.47-.51,1.05-.76,1.75-.76.37,0,.71.08,1.02.25.32.16.56.37.74.62v-3.27h.86v7.5h-.86v-.77c-.17.25-.42.46-.74.62-.32.16-.66.25-1.02.25Zm.13-.79c.49,0,.9-.17,1.22-.52.32-.35.48-.78.48-1.29s-.16-.94-.48-1.29c-.32-.35-.73-.52-1.22-.52s-.91.17-1.23.52c-.32.35-.48.78-.48,1.29s.16.94.48,1.29c.32.35.73.52,1.23.52Z"/><path d="m209.03,293.25c-.73,0-1.33-.25-1.81-.74-.48-.49-.71-1.11-.71-1.86s.23-1.38.7-1.87c.46-.49,1.08-.74,1.84-.74s1.38.27,1.82.82c.44.55.63,1.22.58,2.01h-4.07c.01.45.18.83.5,1.14.32.3.71.45,1.16.45.68,0,1.16-.28,1.45-.84h.88c-.13.47-.4.85-.81,1.16s-.92.46-1.53.46Zm.98-4.08c-.27-.24-.6-.35-.99-.35s-.73.12-1.04.35c-.3.23-.49.58-.56,1.04h3.12c-.08-.45-.26-.8-.53-1.04Z"/><path d="m214.75,293.25c-.69,0-1.28-.25-1.75-.76s-.71-1.12-.71-1.84.24-1.33.71-1.84c.47-.51,1.05-.76,1.75-.76.37,0,.71.08,1.02.25.32.16.56.37.74.62v-.77h.86v5h-.86v-.77c-.17.25-.42.46-.74.62-.32.16-.66.25-1.02.25Zm.13-.79c.49,0,.9-.17,1.22-.52.32-.35.48-.78.48-1.29s-.16-.94-.48-1.29c-.32-.35-.73-.52-1.22-.52s-.91.17-1.23.52c-.32.35-.48.78-.48,1.29s.16.94.48,1.29c.32.35.73.52,1.23.52Z"/><path d="m220.93,293.2c-.46,0-.83-.13-1.11-.39-.28-.26-.42-.64-.42-1.14v-2.73h-1.06v-.79h1.06v-1.39h.86v1.39h1.44v.79h-1.44v2.62c0,.31.07.53.2.66.13.13.34.19.63.19.25,0,.46-.03.61-.1v.77c-.24.08-.5.12-.77.12Z"/><path d="m223.66,293.15h-.86v-7.5h.86v3.27c.34-.58.87-.87,1.59-.87.57,0,1.02.18,1.37.55.35.37.52.86.52,1.47v3.08h-.85v-2.95c0-.42-.11-.75-.32-1-.21-.24-.5-.37-.86-.37-.41,0-.76.16-1.04.49-.28.33-.42.77-.42,1.34v2.48Z"/><path d="m230.3,293.25c-.56,0-1.03-.14-1.41-.41-.38-.27-.58-.65-.62-1.14h.88c.05.28.19.49.41.62.22.13.47.2.75.2s.52-.06.7-.17.26-.28.26-.49c0-.2-.06-.36-.19-.49s-.34-.23-.64-.31l-.72-.19c-.86-.23-1.29-.72-1.29-1.47,0-.41.16-.73.49-.98.32-.25.74-.37,1.25-.37s.93.14,1.26.41c.33.27.51.61.55,1.03h-.86c-.07-.22-.19-.39-.36-.52-.17-.13-.37-.19-.6-.19-.25,0-.45.06-.62.17s-.25.26-.25.45.06.33.18.44c.12.11.31.21.58.28l.8.21c.85.21,1.28.71,1.28,1.48,0,.48-.17.84-.51,1.08-.34.24-.78.37-1.33.37Z"/><path d="m86.82,305.25c-.37,0-.71-.08-1.02-.25-.32-.16-.56-.37-.74-.62v.77h-.86v-7.5h.86v3.27c.17-.25.42-.46.74-.62.32-.16.66-.25,1.02-.25.69,0,1.28.25,1.75.76.47.51.71,1.12.71,1.84s-.24,1.33-.71,1.84-1.05.76-1.75.76Zm-1.35-1.31c.32.35.73.52,1.22.52s.9-.17,1.22-.52c.32-.35.48-.78.48-1.29s-.16-.94-.48-1.29c-.32-.35-.73-.52-1.22-.52s-.9.17-1.22.52-.48.78-.48,1.29.16.94.48,1.29Z"/><path d="m92.63,305.25c-.73,0-1.33-.25-1.81-.74-.48-.49-.71-1.11-.71-1.86s.23-1.38.7-1.87c.46-.49,1.08-.74,1.84-.74s1.38.27,1.82.82c.44.55.63,1.22.58,2.01h-4.07c.01.45.18.83.5,1.14.32.3.71.45,1.16.45.68,0,1.16-.28,1.45-.84h.88c-.13.47-.4.85-.81,1.16s-.92.46-1.53.46Zm.98-4.08c-.27-.24-.6-.35-.99-.35s-.73.12-1.04.35c-.3.23-.49.58-.56,1.04h3.12c-.08-.45-.26-.8-.53-1.04Z"/><path d="m98.51,305.25c-.75,0-1.38-.25-1.87-.75-.49-.5-.74-1.12-.74-1.84s.25-1.34.74-1.85c.49-.5,1.12-.75,1.87-.75.62,0,1.16.17,1.61.52.45.34.76.79.91,1.34h-.92c-.12-.33-.32-.59-.6-.78-.28-.19-.61-.29-1-.29-.51,0-.93.17-1.25.52-.32.35-.49.78-.49,1.29s.16.94.49,1.29c.32.35.74.52,1.25.52.39,0,.72-.1,1-.29.28-.19.48-.45.6-.78h.92c-.15.55-.45,1-.9,1.34-.45.34-.99.51-1.62.51Z"/><path d="m104.23,305.25c-.69,0-1.28-.25-1.75-.76s-.71-1.12-.71-1.84.24-1.33.71-1.84c.47-.51,1.05-.76,1.75-.76.37,0,.71.08,1.02.25.32.16.56.37.74.62v-.77h.86v5h-.86v-.77c-.17.25-.42.46-.74.62-.32.16-.66.25-1.02.25Zm.13-.79c.49,0,.9-.17,1.22-.52.32-.35.48-.78.48-1.29s-.16-.94-.48-1.29c-.32-.35-.73-.52-1.22-.52s-.91.17-1.23.52c-.32.35-.48.78-.48,1.29s.16.94.48,1.29c.32.35.73.52,1.23.52Z"/><path d="m110.24,305.25c-.55,0-.99-.18-1.33-.55s-.51-.86-.51-1.48v-3.07h.86v2.94c0,.42.1.75.31,1,.2.25.48.37.83.37.4,0,.73-.17.99-.5.26-.33.4-.77.4-1.33v-2.48h.86v5h-.86v-.77c-.33.58-.84.87-1.54.87Z"/><path d="m115.87,305.25c-.56,0-1.03-.14-1.41-.41-.38-.27-.58-.65-.62-1.14h.88c.05.28.19.49.41.62.22.13.47.2.75.2s.52-.06.7-.17.26-.28.26-.49c0-.2-.06-.36-.19-.49s-.34-.23-.64-.31l-.72-.19c-.86-.23-1.29-.72-1.29-1.47,0-.41.16-.73.49-.98.32-.25.74-.37,1.25-.37s.93.14,1.26.41c.33.27.51.61.55,1.03h-.86c-.07-.22-.19-.39-.36-.52-.17-.13-.37-.19-.6-.19-.25,0-.45.06-.62.17s-.25.26-.25.45.06.33.18.44c.12.11.31.21.58.28l.8.21c.85.21,1.28.71,1.28,1.48,0,.48-.17.84-.51,1.08-.34.24-.78.37-1.33.37Z"/><path d="m121.06,305.25c-.73,0-1.33-.25-1.81-.74-.48-.49-.71-1.11-.71-1.86s.23-1.38.7-1.87c.46-.49,1.08-.74,1.84-.74s1.38.27,1.82.82c.44.55.63,1.22.58,2.01h-4.07c.01.45.18.83.5,1.14.32.3.71.45,1.16.45.68,0,1.16-.28,1.45-.84h.88c-.13.47-.4.85-.81,1.16s-.92.46-1.53.46Zm.98-4.08c-.27-.24-.6-.35-.99-.35s-.73.12-1.04.35c-.3.23-.49.58-.56,1.04h3.12c-.08-.45-.26-.8-.53-1.04Z"/><path d="m129.35,305.25c-.75,0-1.38-.25-1.88-.75-.5-.5-.75-1.12-.75-1.84s.25-1.34.75-1.85c.5-.5,1.12-.75,1.88-.75s1.37.25,1.86.75c.5.5.75,1.12.75,1.85s-.25,1.34-.75,1.84c-.5.5-1.12.75-1.86.75Zm-1.25-1.32c.32.35.74.52,1.25.52s.93-.17,1.25-.52c.32-.35.48-.77.48-1.28s-.16-.93-.48-1.28c-.32-.35-.74-.52-1.25-.52s-.93.17-1.25.52c-.32.35-.49.77-.49,1.28s.16.93.49,1.28Z"/><path d="m133.53,305.15v-4.21h-1.06v-.79h1.06v-1.01c0-.5.14-.88.42-1.15.28-.27.65-.4,1.11-.4.27,0,.53.04.78.13v.76c-.15-.07-.36-.1-.62-.1-.29,0-.5.06-.63.19-.13.13-.2.35-.2.66v.92h1.45v.79h-1.45v4.21h-.86Z"/><path d="m142.26,305.27c-1.05,0-1.92-.35-2.62-1.06s-1.05-1.57-1.05-2.61.35-1.91,1.05-2.62c.7-.7,1.58-1.06,2.62-1.06.85,0,1.59.24,2.22.72.62.48,1.02,1.06,1.18,1.74h-.98c-.17-.46-.47-.84-.9-1.14-.44-.3-.94-.44-1.52-.44-.79,0-1.44.27-1.96.8s-.79,1.2-.79,1.99.26,1.45.79,1.98c.52.54,1.18.81,1.96.81.57,0,1.08-.15,1.52-.45s.74-.67.9-1.13h.98c-.17.68-.56,1.26-1.18,1.74-.62.48-1.36.72-2.22.72Z"/><path d="m148.94,305.25c-.73,0-1.33-.25-1.81-.74-.48-.49-.71-1.11-.71-1.86s.23-1.38.7-1.87c.46-.49,1.08-.74,1.84-.74s1.38.27,1.82.82c.44.55.63,1.22.58,2.01h-4.07c.01.45.18.83.5,1.14.32.3.71.45,1.16.45.68,0,1.16-.28,1.45-.84h.88c-.13.47-.4.85-.81,1.16s-.92.46-1.53.46Zm.98-4.08c-.27-.24-.6-.35-.99-.35s-.73.12-1.04.35c-.3.23-.49.58-.56,1.04h3.12c-.08-.45-.26-.8-.53-1.04Z"/><path d="m152.6,305.15v-5h.86v.97c.09-.31.28-.55.54-.74.27-.19.55-.28.86-.28.15,0,.28.01.39.04v.89c-.12-.05-.28-.08-.47-.08-.35,0-.65.15-.92.45s-.4.72-.4,1.27v2.48h-.86Z"/><path d="m158.21,305.25c-.73,0-1.33-.25-1.81-.74-.48-.49-.71-1.11-.71-1.86s.23-1.38.7-1.87c.46-.49,1.08-.74,1.84-.74s1.38.27,1.82.82c.44.55.63,1.22.58,2.01h-4.07c.01.45.18.83.5,1.14.32.3.71.45,1.16.45.68,0,1.16-.28,1.45-.84h.88c-.13.47-.4.85-.81,1.16s-.92.46-1.53.46Zm.98-4.08c-.27-.24-.6-.35-.99-.35s-.73.12-1.04.35c-.3.23-.49.58-.56,1.04h3.12c-.08-.45-.26-.8-.53-1.04Z"/><path d="m164.49,305.25c-.37,0-.71-.08-1.02-.25-.32-.16-.56-.37-.74-.62v.77h-.86v-7.5h.86v3.27c.17-.25.42-.46.74-.62.32-.16.66-.25,1.02-.25.69,0,1.28.25,1.75.76.47.51.71,1.12.71,1.84s-.24,1.33-.71,1.84-1.05.76-1.75.76Zm-1.35-1.31c.32.35.73.52,1.22.52s.9-.17,1.22-.52c.32-.35.48-.78.48-1.29s-.16-.94-.48-1.29c-.32-.35-.73-.52-1.22-.52s-.9.17-1.22.52-.48.78-.48,1.29.16.94.48,1.29Z"/><path d="m168.17,305.15v-5h.86v.97c.09-.31.28-.55.54-.74.27-.19.55-.28.86-.28.15,0,.28.01.39.04v.89c-.12-.05-.28-.08-.47-.08-.35,0-.65.15-.92.45s-.4.72-.4,1.27v2.48h-.86Z"/><path d="m173.87,305.25c-.75,0-1.38-.25-1.88-.75-.5-.5-.75-1.12-.75-1.84s.25-1.34.75-1.85c.5-.5,1.12-.75,1.88-.75s1.37.25,1.86.75c.5.5.75,1.12.75,1.85s-.25,1.34-.75,1.84c-.5.5-1.12.75-1.86.75Zm-1.25-1.32c.32.35.74.52,1.25.52s.93-.17,1.25-.52c.32-.35.48-.77.48-1.28s-.16-.93-.48-1.28c-.32-.35-.74-.52-1.25-.52s-.93.17-1.25.52c-.32.35-.49.77-.49,1.28s.16.93.49,1.28Z"/><path d="m179.16,305.15l-2.31-5h.96l1.71,3.79,1.71-3.79h.96l-2.31,5h-.72Z"/><path d="m185.02,305.25c-.69,0-1.28-.25-1.75-.76s-.71-1.12-.71-1.84.24-1.33.71-1.84c.47-.51,1.05-.76,1.75-.76.37,0,.71.08,1.02.25.32.16.56.37.74.62v-.77h.86v5h-.86v-.77c-.17.25-.42.46-.74.62-.32.16-.66.25-1.02.25Zm.13-.79c.49,0,.9-.17,1.22-.52.32-.35.48-.78.48-1.29s-.16-.94-.48-1.29c-.32-.35-.73-.52-1.22-.52s-.91.17-1.23.52c-.32.35-.48.78-.48,1.29s.16.94.48,1.29c.32.35.73.52,1.23.52Z"/><path d="m190.87,305.25c-.56,0-1.03-.14-1.41-.41-.38-.27-.58-.65-.62-1.14h.88c.05.28.19.49.41.62.22.13.47.2.75.2s.52-.06.7-.17.26-.28.26-.49c0-.2-.06-.36-.19-.49s-.34-.23-.64-.31l-.72-.19c-.86-.23-1.29-.72-1.29-1.47,0-.41.16-.73.49-.98.32-.25.74-.37,1.25-.37s.93.14,1.26.41c.33.27.51.61.55,1.03h-.86c-.07-.22-.19-.39-.36-.52-.17-.13-.37-.19-.6-.19-.25,0-.45.06-.62.17s-.25.26-.25.45.06.33.18.44c.12.11.31.21.58.28l.8.21c.85.21,1.28.71,1.28,1.48,0,.48-.17.84-.51,1.08-.34.24-.78.37-1.33.37Z"/><path d="m196.15,305.25c-.75,0-1.38-.25-1.87-.75-.49-.5-.74-1.12-.74-1.84s.25-1.34.74-1.85c.49-.5,1.12-.75,1.87-.75.62,0,1.16.17,1.61.52.45.34.76.79.91,1.34h-.92c-.12-.33-.32-.59-.6-.78-.28-.19-.61-.29-1-.29-.51,0-.93.17-1.25.52-.32.35-.49.78-.49,1.29s.16.94.49,1.29c.32.35.74.52,1.25.52.39,0,.72-.1,1-.29.28-.19.48-.45.6-.78h.92c-.15.55-.45,1-.9,1.34-.45.34-.99.51-1.62.51Z"/><path d="m201.58,305.25c-.55,0-.99-.18-1.33-.55s-.51-.86-.51-1.48v-3.07h.86v2.94c0,.42.1.75.31,1,.2.25.48.37.83.37.4,0,.73-.17.99-.5.26-.33.4-.77.4-1.33v-2.48h.86v5h-.86v-.77c-.33.58-.84.87-1.54.87Z"/><path d="m205.6,305.15v-7.5h.86v7.5h-.86Z"/><path d="m210.15,305.25c-.69,0-1.28-.25-1.75-.76s-.71-1.12-.71-1.84.24-1.33.71-1.84c.47-.51,1.05-.76,1.75-.76.37,0,.71.08,1.02.25.32.16.56.37.74.62v-.77h.86v5h-.86v-.77c-.17.25-.42.46-.74.62-.32.16-.66.25-1.02.25Zm.13-.79c.49,0,.9-.17,1.22-.52.32-.35.48-.78.48-1.29s-.16-.94-.48-1.29c-.32-.35-.73-.52-1.22-.52s-.91.17-1.23.52c-.32.35-.48.78-.48,1.29s.16.94.48,1.29c.32.35.73.52,1.23.52Z"/><path d="m214.39,305.15v-5h.86v.97c.09-.31.28-.55.54-.74.27-.19.55-.28.86-.28.15,0,.28.01.39.04v.89c-.12-.05-.28-.08-.47-.08-.35,0-.65.15-.92.45s-.4.72-.4,1.27v2.48h-.86Z"/><path d="m218.47,305.01c-.14.15-.32.22-.53.22s-.38-.07-.52-.22c-.14-.15-.22-.32-.22-.53s.07-.38.22-.53.32-.22.52-.22.37.07.52.22c.15.15.22.33.22.53s-.07.38-.21.53Z"/><path d="m144.54,162.86v-4.21h-1.06v-.79h1.06v-1.01c0-.5.14-.88.42-1.15.28-.27.65-.4,1.11-.4.27,0,.53.04.78.13v.76c-.15-.07-.36-.1-.62-.1-.29,0-.5.06-.63.19-.13.13-.2.35-.2.66v.92h1.45v.79h-1.45v4.21h-.86Z"/><path d="m149.79,162.96c-.73,0-1.33-.25-1.8-.74-.48-.49-.71-1.11-.71-1.86s.23-1.38.7-1.87c.46-.49,1.08-.73,1.84-.73s1.38.27,1.82.82c.44.55.63,1.22.58,2.01h-4.07c.01.45.18.83.5,1.13.32.3.71.46,1.16.46.68,0,1.16-.28,1.45-.84h.88c-.13.47-.4.85-.81,1.16-.41.31-.92.46-1.53.46Zm.98-4.08c-.27-.24-.6-.36-.99-.36s-.73.12-1.04.35c-.3.23-.49.58-.56,1.04h3.12c-.08-.45-.26-.8-.53-1.03Z"/><path d="m159.89,162.86v-2.94c0-.41-.08-.75-.25-1s-.42-.38-.74-.38c-.4,0-.72.16-.97.47s-.38.74-.39,1.28v2.56h-.86v-2.94c0-.42-.09-.75-.26-1-.17-.25-.41-.37-.72-.37-.41,0-.75.17-1,.5s-.38.77-.38,1.33v2.48h-.86v-5h.86v.77c.32-.58.82-.87,1.51-.87.76,0,1.27.36,1.54,1.07.13-.33.35-.59.64-.78.29-.19.62-.29,1-.29.54,0,.96.18,1.28.55.31.37.47.86.47,1.48v3.07h-.86Z"/><path d="m164.36,162.96c-.69,0-1.28-.25-1.75-.76-.47-.51-.71-1.12-.71-1.84s.24-1.33.71-1.84c.47-.51,1.05-.76,1.75-.76.37,0,.71.08,1.02.24.32.16.56.37.74.62v-.77h.86v5h-.86v-.77c-.17.25-.42.46-.74.62-.32.16-.66.24-1.02.24Zm.13-.79c.49,0,.9-.17,1.22-.52s.48-.78.48-1.29-.16-.94-.48-1.29-.73-.52-1.22-.52-.91.17-1.23.52c-.32.35-.48.78-.48,1.29s.16.94.48,1.29c.32.35.73.52,1.23.52Z"/><path d="m168.6,162.86v-7.5h.86v7.5h-.86Z"/><path d="m173.22,162.96c-.73,0-1.33-.25-1.8-.74-.48-.49-.71-1.11-.71-1.86s.23-1.38.7-1.87c.46-.49,1.08-.73,1.84-.73s1.38.27,1.82.82c.44.55.63,1.22.58,2.01h-4.07c.01.45.18.83.5,1.13.32.3.71.46,1.16.46.68,0,1.16-.28,1.45-.84h.88c-.13.47-.4.85-.81,1.16-.41.31-.92.46-1.53.46Zm.98-4.08c-.27-.24-.6-.36-.99-.36s-.73.12-1.04.35c-.3.23-.49.58-.56,1.04h3.12c-.08-.45-.26-.8-.53-1.03Z"/><path d="m181.35,162.96c-.69,0-1.28-.25-1.75-.76-.47-.51-.71-1.12-.71-1.84s.24-1.33.71-1.84c.47-.51,1.05-.76,1.75-.76.37,0,.71.08,1.02.24.32.16.56.37.74.62v-3.27h.86v7.5h-.86v-.77c-.17.25-.42.46-.74.62-.32.16-.66.24-1.02.24Zm.13-.79c.49,0,.9-.17,1.22-.52s.48-.78.48-1.29-.16-.94-.48-1.29-.73-.52-1.22-.52-.91.17-1.23.52c-.32.35-.48.78-.48,1.29s.16.94.48,1.29c.32.35.73.52,1.23.52Z"/><path d="m187.72,162.96c-.73,0-1.33-.25-1.8-.74-.48-.49-.71-1.11-.71-1.86s.23-1.38.7-1.87c.46-.49,1.08-.73,1.84-.73s1.38.27,1.82.82c.44.55.63,1.22.58,2.01h-4.07c.01.45.18.83.5,1.13.32.3.71.46,1.16.46.68,0,1.16-.28,1.45-.84h.88c-.13.47-.4.85-.81,1.16-.41.31-.92.46-1.53.46Zm.98-4.08c-.27-.24-.6-.36-.99-.36s-.73.12-1.04.35c-.3.23-.49.58-.56,1.04h3.12c-.08-.45-.26-.8-.53-1.03Z"/><path d="m193.44,162.96c-.69,0-1.28-.25-1.75-.76-.47-.51-.71-1.12-.71-1.84s.24-1.33.71-1.84c.47-.51,1.05-.76,1.75-.76.37,0,.71.08,1.02.24.32.16.56.37.74.62v-.77h.86v5h-.86v-.77c-.17.25-.42.46-.74.62-.32.16-.66.24-1.02.24Zm.13-.79c.49,0,.9-.17,1.22-.52s.48-.78.48-1.29-.16-.94-.48-1.29-.73-.52-1.22-.52-.91.17-1.23.52c-.32.35-.48.78-.48,1.29s.16.94.48,1.29c.32.35.73.52,1.23.52Z"/><path d="m199.62,162.91c-.46,0-.83-.13-1.11-.39-.28-.26-.42-.64-.42-1.14v-2.73h-1.06v-.79h1.06v-1.39h.86v1.39h1.44v.79h-1.44v2.62c0,.31.07.53.2.66s.34.19.63.19c.25,0,.46-.03.61-.1v.77c-.24.08-.5.12-.77.12Z"/><path d="m202.35,162.86h-.86v-7.5h.86v3.27c.34-.58.87-.87,1.59-.87.57,0,1.02.18,1.37.55.35.37.52.86.52,1.47v3.08h-.85v-2.95c0-.42-.11-.75-.32-1-.21-.24-.5-.37-.86-.37-.41,0-.76.16-1.04.49-.28.33-.42.77-.42,1.34v2.48Z"/><path d="m209.79,162.86v-5h.86v.97c.09-.31.28-.55.54-.74.27-.19.55-.28.86-.28.15,0,.28.01.39.04v.89c-.12-.05-.28-.08-.47-.08-.35,0-.65.15-.92.45-.27.3-.4.72-.4,1.27v2.48h-.86Z"/><path d="m215.34,162.96c-.69,0-1.28-.25-1.74-.76-.47-.51-.71-1.12-.71-1.84s.23-1.33.71-1.84c.47-.51,1.05-.76,1.74-.76.37,0,.71.08,1.03.24.32.16.56.37.73.62v-.77h.86v5h-.86v-.77c-.17.25-.42.46-.73.62-.32.16-.66.24-1.03.24Zm.13-.79c.49,0,.9-.17,1.22-.52.32-.35.48-.78.48-1.29s-.16-.94-.48-1.29c-.32-.35-.73-.52-1.22-.52s-.91.17-1.23.52-.48.78-.48,1.29.16.94.48,1.29.73.52,1.23.52Z"/><path d="m221.52,162.91c-.46,0-.83-.13-1.11-.39s-.42-.64-.42-1.14v-2.73h-1.06v-.79h1.06v-1.39h.86v1.39h1.44v.79h-1.44v2.62c0,.31.07.53.2.66.13.13.34.19.63.19.25,0,.46-.03.61-.1v.77c-.24.08-.5.12-.77.12Z"/><path d="m225.45,162.96c-.73,0-1.33-.25-1.8-.74-.48-.49-.71-1.11-.71-1.86s.23-1.38.7-1.87c.46-.49,1.08-.73,1.84-.73s1.38.27,1.82.82c.44.55.63,1.22.58,2.01h-4.07c.01.45.18.83.5,1.13.32.3.71.46,1.16.46.68,0,1.16-.28,1.45-.84h.88c-.13.47-.4.85-.81,1.16-.41.31-.92.46-1.53.46Zm.98-4.08c-.27-.24-.6-.36-.99-.36s-.73.12-1.04.35c-.3.23-.49.58-.56,1.04h3.12c-.08-.45-.26-.8-.53-1.03Z"/><path d="m230.2,159.02c-.14.15-.32.22-.52.22s-.38-.07-.53-.22c-.14-.15-.21-.32-.21-.53s.07-.38.22-.52c.15-.15.32-.23.52-.23s.37.08.52.23c.15.15.22.32.22.52s-.07.38-.22.53Zm0,3.7c-.14.15-.32.22-.52.22s-.38-.07-.53-.22c-.14-.15-.21-.32-.21-.53s.07-.38.22-.53.32-.22.52-.22.37.07.52.22.22.33.22.53-.07.38-.22.53Z"/><path d="m234.9,162.86v-6.25h-1.37l.7-.85h1.53v7.1h-.86Z"/><path d="m239.44,162.96c-.64,0-1.19-.2-1.66-.6s-.71-.87-.72-1.42h.88c.08.35.26.63.53.85.27.22.6.33.97.33.43,0,.8-.15,1.09-.44s.44-.65.44-1.08-.14-.8-.42-1.09c-.28-.29-.64-.44-1.07-.44-.59,0-1.04.24-1.34.72l-.82-.24.73-3.79h3.32v.84h-2.63l-.39,2.03c.35-.25.76-.37,1.24-.37.66,0,1.2.23,1.62.7.42.46.63,1.05.63,1.75,0,.63-.23,1.16-.69,1.6-.46.44-1.03.65-1.72.65Z"/><path d="m244.04,162.72c-.14.15-.32.22-.53.22s-.38-.07-.53-.22-.21-.32-.21-.53.07-.38.22-.53.32-.22.52-.22.37.07.52.22.22.33.22.53-.07.38-.21.53Z"/><path d="m247.63,162.96c-.69,0-1.27-.21-1.71-.63-.45-.42-.68-.95-.68-1.6,0-.87.38-1.48,1.12-1.85-.49-.35-.73-.82-.73-1.41,0-.53.19-.97.56-1.31s.86-.52,1.44-.52,1.06.17,1.44.52c.37.34.55.78.55,1.31,0,.6-.24,1.07-.72,1.41.74.37,1.11.98,1.11,1.85,0,.65-.22,1.18-.67,1.6-.44.42-1.02.63-1.71.63Zm0-.82c.47,0,.84-.13,1.11-.4s.4-.6.4-1.01-.13-.75-.4-1.02c-.27-.27-.64-.4-1.11-.4s-.82.13-1.1.41c-.28.27-.42.61-.42,1.01s.14.74.42,1,.65.4,1.1.4Zm0-3.6c.35,0,.62-.1.83-.3s.31-.45.31-.75-.1-.56-.3-.75c-.21-.19-.48-.29-.84-.29s-.62.1-.83.29c-.21.2-.32.45-.32.75s.11.53.32.74.49.31.83.31Z"/><path d="m246.25,48.43v-2.94c0-.41-.08-.75-.25-1s-.42-.38-.74-.38c-.4,0-.72.16-.97.47s-.38.74-.39,1.28v2.56h-.86v-2.94c0-.42-.09-.75-.26-1-.17-.25-.41-.37-.72-.37-.41,0-.75.17-1,.5s-.38.78-.38,1.33v2.48h-.86v-5h.86v.77c.32-.58.82-.87,1.51-.87.76,0,1.27.36,1.54,1.07.13-.33.35-.59.64-.78.29-.19.62-.29,1-.29.54,0,.96.18,1.28.55.31.37.47.86.47,1.48v3.07h-.86Z"/><path d="m250.72,48.53c-.69,0-1.28-.25-1.75-.76-.47-.51-.71-1.12-.71-1.84s.24-1.33.71-1.84c.47-.51,1.05-.76,1.75-.76.37,0,.71.08,1.02.25.32.16.56.37.74.62v-.77h.86v5h-.86v-.77c-.17.25-.42.46-.74.62-.32.16-.66.25-1.02.25Zm.13-.79c.49,0,.9-.17,1.22-.52s.48-.78.48-1.29-.16-.94-.48-1.29-.73-.52-1.22-.52-.91.17-1.23.52c-.32.35-.48.78-.48,1.29s.16.94.48,1.29c.32.35.73.52,1.23.52Z"/><path d="m254.96,48.43v-7.5h.86v7.5h-.86Z"/><path d="m259.58,48.53c-.73,0-1.33-.25-1.8-.74-.48-.49-.71-1.11-.71-1.86s.23-1.38.7-1.87c.46-.49,1.08-.74,1.84-.74s1.38.27,1.82.82.63,1.22.58,2.01h-4.07c.01.45.18.83.5,1.14.32.3.71.45,1.16.45.68,0,1.16-.28,1.45-.84h.88c-.13.47-.4.85-.81,1.16-.41.31-.92.46-1.53.46Zm.98-4.08c-.27-.24-.6-.35-.99-.35s-.73.12-1.04.35-.49.58-.56,1.04h3.12c-.08-.45-.26-.8-.53-1.04Z"/><path d="m267.71,48.53c-.69,0-1.28-.25-1.75-.76-.47-.51-.71-1.12-.71-1.84s.24-1.33.71-1.84c.47-.51,1.05-.76,1.75-.76.37,0,.71.08,1.02.25.32.16.56.37.74.62v-3.27h.86v7.5h-.86v-.77c-.17.25-.42.46-.74.62-.32.16-.66.25-1.02.25Zm.13-.79c.49,0,.9-.17,1.22-.52s.48-.78.48-1.29-.16-.94-.48-1.29-.73-.52-1.22-.52-.91.17-1.23.52c-.32.35-.48.78-.48,1.29s.16.94.48,1.29c.32.35.73.52,1.23.52Z"/><path d="m274.08,48.53c-.73,0-1.33-.25-1.8-.74-.48-.49-.71-1.11-.71-1.86s.23-1.38.7-1.87c.46-.49,1.08-.74,1.84-.74s1.38.27,1.82.82.63,1.22.58,2.01h-4.07c.01.45.18.83.5,1.14.32.3.71.45,1.16.45.68,0,1.16-.28,1.45-.84h.88c-.13.47-.4.85-.81,1.16-.41.31-.92.46-1.53.46Zm.98-4.08c-.27-.24-.6-.35-.99-.35s-.73.12-1.04.35-.49.58-.56,1.04h3.12c-.08-.45-.26-.8-.53-1.04Z"/><path d="m279.8,48.53c-.69,0-1.28-.25-1.75-.76-.47-.51-.71-1.12-.71-1.84s.24-1.33.71-1.84c.47-.51,1.05-.76,1.75-.76.37,0,.71.08,1.02.25.32.16.56.37.74.62v-.77h.86v5h-.86v-.77c-.17.25-.42.46-.74.62-.32.16-.66.25-1.02.25Zm.13-.79c.49,0,.9-.17,1.22-.52s.48-.78.48-1.29-.16-.94-.48-1.29-.73-.52-1.22-.52-.91.17-1.23.52c-.32.35-.48.78-.48,1.29s.16.94.48,1.29c.32.35.73.52,1.23.52Z"/><path d="m285.98,48.48c-.46,0-.83-.13-1.11-.39-.28-.26-.42-.64-.42-1.14v-2.73h-1.06v-.79h1.06v-1.39h.86v1.39h1.44v.79h-1.44v2.62c0,.31.07.53.2.66.13.13.34.19.63.19.25,0,.46-.03.61-.1v.77c-.24.08-.5.12-.77.12Z"/><path d="m288.71,48.43h-.86v-7.5h.86v3.27c.34-.58.87-.87,1.59-.87.57,0,1.02.18,1.37.55.35.37.52.86.52,1.47v3.08h-.85v-2.95c0-.42-.11-.75-.32-1s-.5-.37-.86-.37c-.41,0-.76.16-1.04.49-.28.33-.42.77-.42,1.34v2.48Z"/><path d="m296.15,48.43v-5h.86v.97c.09-.31.28-.55.54-.74s.55-.28.86-.28c.15,0,.28.01.39.04v.89c-.12-.05-.28-.08-.47-.08-.35,0-.65.15-.92.45-.27.3-.4.72-.4,1.27v2.48h-.86Z"/><path d="m301.7,48.53c-.69,0-1.28-.25-1.74-.76-.47-.51-.71-1.12-.71-1.84s.23-1.33.71-1.84c.47-.51,1.05-.76,1.74-.76.37,0,.71.08,1.03.25.32.16.56.37.73.62v-.77h.86v5h-.86v-.77c-.17.25-.42.46-.73.62s-.66.25-1.03.25Zm.13-.79c.49,0,.9-.17,1.22-.52.32-.35.48-.78.48-1.29s-.16-.94-.48-1.29c-.32-.35-.73-.52-1.22-.52s-.91.17-1.23.52-.48.78-.48,1.29.16.94.48,1.29.73.52,1.23.52Z"/><path d="m307.88,48.48c-.46,0-.83-.13-1.11-.39-.28-.26-.42-.64-.42-1.14v-2.73h-1.06v-.79h1.06v-1.39h.86v1.39h1.44v.79h-1.44v2.62c0,.31.07.53.2.66.13.13.34.19.63.19.25,0,.46-.03.61-.1v.77c-.24.08-.5.12-.77.12Z"/><path d="m311.81,48.53c-.73,0-1.33-.25-1.8-.74-.48-.49-.71-1.11-.71-1.86s.23-1.38.7-1.87c.46-.49,1.08-.74,1.84-.74s1.38.27,1.82.82.63,1.22.58,2.01h-4.07c.01.45.18.83.5,1.14.32.3.71.45,1.16.45.68,0,1.16-.28,1.45-.84h.88c-.13.47-.4.85-.81,1.16-.41.31-.92.46-1.53.46Zm.98-4.08c-.27-.24-.6-.35-.99-.35s-.73.12-1.04.35-.49.58-.56,1.04h3.12c-.08-.45-.26-.8-.53-1.04Z"/><path d="m316.55,44.59c-.14.15-.32.22-.52.22s-.38-.07-.53-.22c-.14-.15-.21-.32-.21-.53s.07-.38.22-.53c.15-.15.32-.22.52-.22s.37.08.52.22c.15.15.22.33.22.53s-.07.38-.22.53Zm0,3.7c-.14.15-.32.22-.52.22s-.38-.07-.53-.22c-.14-.15-.21-.32-.21-.53s.07-.38.22-.53.32-.22.52-.22.37.07.52.22.22.33.22.53-.07.38-.22.53Z"/><path d="m321.26,48.43v-6.25h-1.37l.7-.85h1.53v7.1h-.86Z"/><path d="m325.8,48.53c-.64,0-1.19-.2-1.66-.6-.47-.4-.71-.87-.72-1.42h.88c.08.35.26.63.53.85s.6.33.97.33c.43,0,.8-.15,1.09-.44.29-.29.44-.65.44-1.08s-.14-.8-.42-1.09c-.28-.29-.64-.44-1.07-.44-.59,0-1.04.24-1.34.72l-.82-.24.73-3.79h3.32v.84h-2.63l-.39,2.03c.35-.25.76-.37,1.24-.37.66,0,1.2.23,1.62.7.42.46.63,1.05.63,1.75,0,.63-.23,1.16-.69,1.59-.46.44-1.03.66-1.72.66Z"/><path d="m330.4,48.29c-.14.15-.32.22-.53.22s-.38-.07-.53-.22-.21-.32-.21-.53.07-.38.22-.53.32-.22.52-.22.37.07.52.22.22.33.22.53-.07.38-.21.53Z"/><path d="m331.83,48.43l2.19-2.58c-.07,0-.17,0-.28,0-.59,0-1.11-.23-1.55-.68s-.67-.99-.67-1.6c0-.67.23-1.23.69-1.68s1.03-.69,1.71-.69,1.26.23,1.72.68c.46.45.69,1.01.69,1.66,0,.35-.07.66-.21.93s-.33.57-.59.88l-2.6,3.07h-1.1Zm1.01-3.78c.29.3.65.45,1.08.45s.8-.15,1.09-.45.44-.66.44-1.08-.15-.79-.44-1.08-.66-.45-1.09-.45-.79.15-1.08.45c-.29.3-.44.66-.44,1.08s.14.79.44,1.08Z"/><line class="cls-2" x1="181.3" y1="185.07" x2="193.9" y2="271.2"/><line class="cls-2" x1="263.21" y1="73.43" x2="207.91" y2="133.55"/></g></svg>