<?xml version="1.0" encoding="UTF-8"?><svg id="_图层_2" xmlns="http://www.w3.org/2000/svg" xmlns:xlink="http://www.w3.org/1999/xlink" viewBox="0 0 67.11 22.5"><defs><style>.cls-1{fill:#fff;}.cls-2{fill:url(#_未命名的渐变_40);}</style><radialGradient id="_未命名的渐变_40" cx="6.87" cy="6.8" fx="6.87" fy="6.8" r="6.84" gradientUnits="userSpaceOnUse"><stop offset="0" stop-color="#fff"/><stop offset=".11" stop-color="#fcf9ff"/><stop offset=".24" stop-color="#f4eaff"/><stop offset=".38" stop-color="#e7d1ff"/><stop offset=".53" stop-color="#d6aeff"/><stop offset=".69" stop-color="#bf81ff"/><stop offset=".85" stop-color="#a34bff"/><stop offset="1" stop-color="#8815ff"/></radialGradient></defs><g id="_图层_1-2"><path class="cls-2" d="m13.38,6.54c-1.62,6.58,2.98,7.94-9.17,6.61-3.33-.36-1.34-5.1-3.67-6.61-1.92-1.24,1.71-4.2,4.74-5.46C9.84-.81,15.21-.91,13.38,6.54Z"/><path class="cls-1" d="m26.57,4.07c.16.06.31.15.46.19.3.08.88-.05,1.6.13,2.25.56,3.5,2.92,2.92,5.26-.68,2.74-2.89,3.74-4.95,3.23l-2.18-.54c.08-.12.17-.27.2-.41l1.95-7.86Zm-1.29,7.88l1.41.35c1.99.49,3.76-.9,4.24-2.84.52-2.1-.6-4.07-2.67-4.58-.4-.1-.82-.1-1.21-.04l-1.76,7.11Z"/><path class="cls-1" d="m33.85,7.43c-.21-.05-.34-.26-.29-.48.05-.21.27-.34.48-.29.22.06.34.27.29.48-.05.22-.26.34-.48.29Zm-2.05,6.73c.08-.12.17-.27.2-.41l1.2-4.84c.03-.14.03-.31.01-.45l.63.16-1.31,5.27c-.03.14-.03.31-.01.45l-.72-.18Z"/><path class="cls-1" d="m39.33,15.58c-.03.14-.03.31-.01.45l-.63-.16.21-.84h-.02c-.67.57-1.37.74-2.22.53-1.54-.38-2.63-1.99-2.19-3.77s2.16-2.69,3.7-2.31c.79.2,1.49.79,1.93,1.48.13.21.27.3.4.33-.08.12-.17.27-.2.41l-.96,3.87Zm.36-3.75c.09-.65-.78-1.6-1.68-1.83-1.39-.34-2.69.54-3.04,1.93s.4,2.78,1.78,3.12c.84.21,1.9-.1,2.35-.86l.59-2.36Z"/><path class="cls-1" d="m42.31,11.43c.52-.35,1.5-.53,2.4-.31,1.67.41,2.53,2.01,2.1,3.73-.46,1.84-2.13,2.71-3.76,2.3-1.28-.32-1.6-1.22-2.06-1.66-.07-.07-.18-.17-.3-.22.08-.12.17-.27.2-.41l1.59-6.39c.03-.14.03-.31.01-.45l.63.16-.81,3.25Zm-.9,3.62c.33.76,1,1.41,1.77,1.6,1.41.35,2.76-.46,3.12-1.91s-.46-2.79-1.86-3.14c-.77-.19-1.66.07-2.31.59l-.71,2.86Z"/><path class="cls-1" d="m47.95,15.36c-.07,1.52.6,2.62,1.95,2.95.55.14,1.17.13,1.68,0l-.2.79c-.13-.06-.23-.11-.38-.14-.13-.03-.77-.02-1.42-.18-1.5-.37-2.5-2.08-2.09-3.74s2.09-2.71,3.59-2.33c1.77.44,2.57,2.14,2.13,3.96l-5.26-1.31Zm4.88.67c.04-1.23-.44-2.46-1.83-2.8s-2.38.52-2.92,1.62l4.75,1.18Z"/><path class="cls-1" d="m57.47,14.48l-.13.54-1.64-.41-1.18,4.74c-.03.14-.03.31-.01.45l-.72-.18c.08-.12.17-.27.2-.41l1.18-4.74-.64-.16,1.58-1.34-.27,1.09,1.64.41Z"/><path class="cls-1" d="m57.67,17.77c-.07,1.52.6,2.62,1.95,2.95.55.14,1.17.13,1.68,0l-.2.79c-.13-.06-.23-.11-.38-.14-.13-.03-.77-.02-1.42-.18-1.5-.37-2.5-2.08-2.09-3.74s2.09-2.71,3.59-2.33c1.77.44,2.57,2.14,2.13,3.96l-5.26-1.31Zm4.88.67c.04-1.23-.44-2.46-1.83-2.8s-2.38.52-2.92,1.62l4.75,1.18Z"/><path class="cls-1" d="m66.91,17.54c-.32-.29-.63-.53-1.07-.63-.65-.16-1.13.13-1.29.76-.33,1.24,2.55,1.53,2.04,3.59-.22.9-1.24,1.43-2.27,1.18-.66-.16-.91-.47-1.11-.52-.14-.03-.29-.05-.4-.03l.21-.84c.32.34.84.73,1.31.84.69.17,1.55.04,1.75-.78.37-1.44-2.48-1.83-2.02-3.65.22-.87,1.09-1.27,1.87-1.08.3.08.64.27.78.3s.29.05.4.03l-.2.83Z"/></g></svg>