<?xml version="1.0" encoding="UTF-8"?><svg id="_图层_1" xmlns="http://www.w3.org/2000/svg" xmlns:xlink="http://www.w3.org/1999/xlink" viewBox="0 0 136.6 71.07"><defs><style>.cls-1{fill:#fff;}.cls-2{fill:url(#_未命名的渐变_41);}</style><radialGradient id="_未命名的渐变_41" cx="29.78" cy="26.5" fx="29.78" fy="26.5" r="7.5" gradientUnits="userSpaceOnUse"><stop offset="0" stop-color="#fff"/><stop offset=".12" stop-color="#fff9fb"/><stop offset=".28" stop-color="#ffeaef"/><stop offset=".44" stop-color="#ffd1dd"/><stop offset=".62" stop-color="#ffaec3"/><stop offset=".81" stop-color="#ff81a1"/><stop offset="1" stop-color="#ff4c7a"/></radialGradient></defs><path class="cls-2" d="m36.97,26.31c.66,6.33-3.16,3.88-7.61,7.08-2.69,1.93-7.36-3.88-6.8-7.08.68-3.85,2.59-7.08,6.8-7.08s7.21,3.19,7.61,7.08Z"/><path class="cls-1" d="m53.33,32.02c-.03.14-.03.31-.01.45l-.82-.2c.08-.12.17-.27.2-.41l.86-3.46-4.17-1.03-.86,3.46c-.03.14-.03.31-.01.45l-.82-.2c.08-.12.17-.27.2-.41l1.84-7.43c.03-.14.03-.31.01-.45l.82.2c-.08.12-.17.27-.2.41l-.85,3.41,4.17,1.03.85-3.41c.03-.14.03-.31.01-.45l.82.2c-.08.12-.17.27-.2.41l-1.84,7.43Z"/><path class="cls-1" d="m55.63,30.23c-.07,1.52.6,2.62,1.95,2.95.55.14,1.17.13,1.68,0l-.2.79c-.13-.06-.23-.11-.38-.14-.13-.03-.77-.02-1.42-.18-1.5-.37-2.5-2.08-2.09-3.74s2.09-2.71,3.59-2.33c1.77.44,2.57,2.14,2.13,3.96l-5.26-1.31Zm4.88.67c.04-1.23-.44-2.46-1.83-2.8s-2.38.52-2.92,1.62l4.75,1.18Z"/><path class="cls-1" d="m66.43,35.27c-.03.14-.03.31-.01.45l-.63-.16.21-.84h-.02c-.67.57-1.37.74-2.22.53-1.54-.38-2.63-1.99-2.19-3.77s2.16-2.69,3.7-2.31c.79.2,1.49.79,1.93,1.48.13.21.27.3.4.33-.08.12-.17.27-.2.41l-.96,3.87Zm.36-3.75c.09-.65-.78-1.6-1.68-1.83-1.39-.34-2.69.54-3.04,1.93s.4,2.78,1.78,3.12c.84.21,1.9-.1,2.35-.86l.59-2.36Z"/><path class="cls-1" d="m68.47,35.78c-.03.14-.03.31-.01.45l-.72-.18c.08-.12.17-.27.2-.41l1.2-4.84c.03-.14.03-.31.01-.45l.63.16-.23.93h.02c.44-.54,1.3-.66,1.91-.51.14.03.29.05.4.03l-.17.68c-.09-.07-.23-.13-.37-.17-.78-.19-1.47,0-2.03.92l-.84,3.4Z"/><path class="cls-1" d="m74.86,31.77l-.13.54-1.64-.41-1.18,4.74c-.03.14-.03.31-.01.45l-.72-.18c.08-.12.17-.27.2-.41l1.18-4.74-.64-.16,1.58-1.34-.27,1.09,1.64.41Z"/><path class="cls-1" d="m79.56,30.19c.16.06.31.15.46.19.3.08.88-.05,1.6.13,2.25.56,3.5,2.92,2.92,5.26-.68,2.74-2.89,3.74-4.95,3.23l-2.18-.54c.08-.12.17-.27.2-.41l1.95-7.86Zm-1.29,7.88l1.41.35c1.99.49,3.76-.9,4.24-2.84.52-2.1-.6-4.07-2.67-4.58-.4-.1-.82-.1-1.21-.04l-1.76,7.11Z"/><path class="cls-1" d="m86.84,33.55c-.21-.05-.34-.26-.29-.48.05-.21.27-.34.48-.29.22.06.34.27.29.48-.05.22-.26.34-.48.29Zm-2.05,6.73c.08-.12.17-.27.2-.41l1.2-4.84c.03-.14.03-.31.01-.45l.63.16-1.31,5.27c-.03.14-.03.31-.01.45l-.72-.18Z"/><path class="cls-1" d="m90.76,36.43c-.32-.29-.63-.53-1.07-.63-.65-.16-1.13.13-1.29.76-.33,1.24,2.55,1.53,2.04,3.59-.22.9-1.24,1.43-2.27,1.18-.66-.16-.91-.47-1.11-.52-.14-.03-.29-.05-.4-.03l.21-.84c.32.34.84.73,1.31.84.69.17,1.55.04,1.75-.78.37-1.44-2.48-1.83-2.02-3.65.22-.87,1.09-1.27,1.87-1.08.3.08.64.27.78.3s.29.05.4.03l-.2.83Z"/><path class="cls-1" d="m91.87,39.22c-.07,1.52.6,2.62,1.95,2.95.55.14,1.17.13,1.68,0l-.2.79c-.13-.06-.23-.11-.38-.14-.13-.03-.77-.02-1.42-.18-1.5-.37-2.5-2.08-2.09-3.74s2.09-2.71,3.59-2.33c1.77.44,2.57,2.14,2.13,3.96l-5.26-1.31Zm4.88.67c.04-1.23-.44-2.46-1.83-2.8s-2.38.52-2.92,1.62l4.75,1.18Z"/><path class="cls-1" d="m102.67,44.27c-.03.14-.03.31-.01.45l-.63-.16.21-.84h-.02c-.67.57-1.37.74-2.22.53-1.54-.38-2.63-1.99-2.19-3.77s2.16-2.69,3.7-2.31c.79.2,1.49.79,1.93,1.48.13.21.27.3.4.33-.08.12-.17.27-.2.41l-.96,3.87Zm.36-3.75c.09-.65-.78-1.6-1.68-1.83-1.39-.34-2.69.54-3.04,1.93s.4,2.78,1.78,3.12c.84.21,1.9-.1,2.35-.86l.59-2.36Z"/><path class="cls-1" d="m107.59,40.6c-.32-.29-.63-.53-1.07-.63-.65-.16-1.13.13-1.29.76-.33,1.24,2.55,1.53,2.04,3.59-.22.9-1.24,1.43-2.27,1.18-.66-.16-.91-.47-1.11-.52-.14-.03-.29-.05-.4-.03l.21-.84c.32.34.84.73,1.31.84.69.17,1.55.04,1.75-.78.37-1.44-2.48-1.83-2.02-3.65.22-.87,1.09-1.27,1.87-1.08.3.08.64.27.78.3s.29.05.4.03l-.2.83Z"/><path class="cls-1" d="m108.7,43.4c-.07,1.52.6,2.62,1.95,2.95.55.14,1.17.13,1.68,0l-.2.79c-.13-.06-.23-.11-.38-.14-.13-.03-.77-.02-1.42-.18-1.5-.37-2.5-2.08-2.09-3.74s2.09-2.71,3.59-2.33c1.77.44,2.57,2.14,2.13,3.96l-5.26-1.31Zm4.88.67c.04-1.23-.44-2.46-1.83-2.8s-2.38.52-2.92,1.62l4.75,1.18Z"/></svg>