<?xml version="1.0" encoding="UTF-8"?><svg id="_图层_2" xmlns="http://www.w3.org/2000/svg" viewBox="0 0 360.2 353.83"><defs><style>.cls-1{fill:#fff;}.cls-2{fill:none;stroke:#241f20;stroke-miterlimit:10;stroke-width:.5px;}</style></defs><g id="_图层_1-2"><path class="cls-1" d="m338,302.13c-102.4,86.74-419.06,59.53-318.55-45.75,76.64-80.28,80.14-19.73,116.8-182.53,21.54-95.66,262.29-95.48,218.68-16.28-85.68,155.59,32.77,202.46-16.93,244.56Z"/><path d="m84.33,293.15v-7.1h.93v7.1h-.93Z"/><path d="m86.99,293.15v-5h.86v.77c.34-.58.87-.87,1.59-.87.57,0,1.02.18,1.37.55.35.37.52.86.52,1.47v3.08h-.85v-2.95c0-.42-.11-.75-.32-1-.21-.24-.5-.37-.86-.37-.41,0-.76.16-1.04.49-.28.33-.42.77-.42,1.34v2.48h-.86Z"/><path d="m99.57,292.32v.83h-4.6v-.34c0-.25.04-.48.12-.71.08-.22.16-.41.25-.57.09-.15.24-.33.44-.51.2-.19.36-.33.47-.42s.3-.23.57-.42c.27-.19.44-.32.53-.38.47-.35.8-.64.99-.88.18-.24.27-.55.27-.94s-.12-.67-.36-.89c-.24-.22-.55-.33-.94-.33-.41,0-.75.12-1.04.37-.29.25-.43.59-.43,1.03h-.88c0-.67.22-1.21.66-1.62.44-.41,1-.62,1.68-.62.63,0,1.15.18,1.56.54.42.36.62.87.62,1.54,0,.51-.12.94-.37,1.29-.25.36-.67.75-1.27,1.19-.11.08-.27.19-.48.33-.21.14-.37.26-.48.34-.11.09-.24.19-.38.32s-.24.25-.32.39c-.08.14-.13.29-.17.45h3.54Z"/><path d="m103.17,293.25c-.74,0-1.34-.25-1.81-.75-.47-.5-.7-1.14-.7-1.92v-1.98c0-.79.24-1.43.71-1.93.47-.5,1.07-.75,1.81-.75s1.34.25,1.81.75.71,1.14.71,1.92v1.98c0,.79-.24,1.43-.71,1.92-.47.5-1.08.75-1.81.75Zm0-.84c.49,0,.89-.16,1.2-.49.31-.33.46-.77.46-1.34v-1.98c0-.57-.15-1.01-.46-1.34-.31-.33-.71-.49-1.2-.49s-.88.16-1.19.49c-.31.33-.46.77-.46,1.34v1.98c0,.57.15,1.01.46,1.34.31.33.7.49,1.19.49Z"/><path d="m107.74,293.15v-6.25h-1.37l.7-.85h1.53v7.1h-.86Z"/><path d="m112.28,293.25c-.64,0-1.19-.2-1.66-.6-.47-.4-.71-.87-.72-1.42h.88c.08.35.26.63.53.85s.6.33.97.33c.43,0,.8-.15,1.09-.44s.44-.65.44-1.08-.14-.8-.42-1.09c-.28-.29-.64-.44-1.07-.44-.59,0-1.04.24-1.34.72l-.82-.24.73-3.79h3.32v.84h-2.63l-.39,2.03c.35-.25.76-.37,1.24-.37.66,0,1.2.23,1.62.7.42.46.64,1.05.64,1.75,0,.63-.23,1.16-.69,1.59-.46.44-1.03.66-1.72.66Z"/><path d="m120.08,293.2c-.46,0-.83-.13-1.11-.39-.28-.26-.42-.64-.42-1.14v-2.73h-1.06v-.79h1.06v-1.39h.86v1.39h1.44v.79h-1.44v2.62c0,.31.07.53.2.66.13.13.34.19.63.19.25,0,.46-.03.61-.1v.77c-.24.08-.5.12-.77.12Z"/><path d="m122.81,293.15h-.86v-7.5h.86v3.27c.34-.58.87-.87,1.59-.87.57,0,1.02.18,1.37.55.35.37.52.86.52,1.47v3.08h-.85v-2.95c0-.42-.11-.75-.32-1-.21-.24-.5-.37-.86-.37-.41,0-.76.16-1.04.49-.28.33-.42.77-.42,1.34v2.48Z"/><path d="m129.97,293.25c-.73,0-1.33-.25-1.81-.74-.48-.49-.71-1.11-.71-1.86s.23-1.38.7-1.87c.46-.49,1.08-.74,1.84-.74s1.38.27,1.82.82c.44.55.63,1.22.58,2.01h-4.07c.01.45.18.83.5,1.14.32.3.71.45,1.16.45.68,0,1.16-.28,1.45-.84h.88c-.13.47-.4.85-.81,1.16s-.92.46-1.53.46Zm.98-4.08c-.27-.24-.6-.35-.99-.35s-.73.12-1.04.35c-.3.23-.49.58-.56,1.04h3.12c-.08-.45-.26-.8-.53-1.04Z"/><path d="m133.63,293.15v-5h.86v.97c.09-.31.28-.55.54-.74.27-.19.55-.28.86-.28.15,0,.28.01.39.04v.89c-.12-.05-.28-.08-.47-.08-.35,0-.65.15-.92.45s-.4.72-.4,1.27v2.48h-.86Z"/><path d="m139.24,293.25c-.73,0-1.33-.25-1.81-.74-.48-.49-.71-1.11-.71-1.86s.23-1.38.7-1.87c.46-.49,1.08-.74,1.84-.74s1.38.27,1.82.82c.44.55.63,1.22.58,2.01h-4.07c.01.45.18.83.5,1.14.32.3.71.45,1.16.45.68,0,1.16-.28,1.45-.84h.88c-.13.47-.4.85-.81,1.16s-.92.46-1.53.46Zm.98-4.08c-.27-.24-.6-.35-.99-.35s-.73.12-1.04.35c-.3.23-.49.58-.56,1.04h3.12c-.08-.45-.26-.8-.53-1.04Z"/><path d="m149.37,293.15l-1.24-3.59-1.23,3.59h-.76l-1.7-5h.9l1.21,3.65,1.25-3.65h.66l1.25,3.65,1.21-3.65h.91l-1.7,5h-.76Z"/><path d="m154.87,293.25c-.73,0-1.33-.25-1.81-.74-.48-.49-.71-1.11-.71-1.86s.23-1.38.7-1.87c.46-.49,1.08-.74,1.84-.74s1.38.27,1.82.82c.44.55.63,1.22.58,2.01h-4.07c.01.45.18.83.5,1.14.32.3.71.45,1.16.45.68,0,1.16-.28,1.45-.84h.88c-.13.47-.4.85-.81,1.16s-.92.46-1.53.46Zm.98-4.08c-.27-.24-.6-.35-.99-.35s-.73.12-1.04.35c-.3.23-.49.58-.56,1.04h3.12c-.08-.45-.26-.8-.53-1.04Z"/><path d="m158.53,293.15v-5h.86v.97c.09-.31.28-.55.54-.74.27-.19.55-.28.86-.28.15,0,.28.01.39.04v.89c-.12-.05-.28-.08-.47-.08-.35,0-.65.15-.92.45s-.4.72-.4,1.27v2.48h-.86Z"/><path d="m164.14,293.25c-.73,0-1.33-.25-1.81-.74-.48-.49-.71-1.11-.71-1.86s.23-1.38.7-1.87c.46-.49,1.08-.74,1.84-.74s1.38.27,1.82.82c.44.55.63,1.22.58,2.01h-4.07c.01.45.18.83.5,1.14.32.3.71.45,1.16.45.68,0,1.16-.28,1.45-.84h.88c-.13.47-.4.85-.81,1.16s-.92.46-1.53.46Zm.98-4.08c-.27-.24-.6-.35-.99-.35s-.73.12-1.04.35c-.3.23-.49.58-.56,1.04h3.12c-.08-.45-.26-.8-.53-1.04Z"/><path d="m174.49,292.32v.83h-4.6v-.34c0-.25.04-.48.12-.71.08-.22.16-.41.25-.57.09-.15.24-.33.44-.51.2-.19.36-.33.47-.42s.3-.23.57-.42c.27-.19.44-.32.53-.38.47-.35.8-.64.99-.88.18-.24.27-.55.27-.94s-.12-.67-.36-.89c-.24-.22-.55-.33-.94-.33-.41,0-.75.12-1.04.37-.29.25-.43.59-.43,1.03h-.88c0-.67.22-1.21.66-1.62.44-.41,1-.62,1.68-.62.63,0,1.15.18,1.56.54.42.36.62.87.62,1.54,0,.51-.12.94-.37,1.29-.25.36-.67.75-1.27,1.19-.11.08-.27.19-.48.33-.21.14-.37.26-.48.34-.11.09-.24.19-.38.32s-.24.25-.32.39c-.08.14-.13.29-.17.45h3.54Z"/><path d="m178.09,293.25c-.74,0-1.34-.25-1.81-.75-.47-.5-.7-1.14-.7-1.92v-1.98c0-.79.24-1.43.71-1.93.47-.5,1.07-.75,1.81-.75s1.34.25,1.81.75.71,1.14.71,1.92v1.98c0,.79-.24,1.43-.71,1.92-.47.5-1.08.75-1.81.75Zm0-.84c.49,0,.89-.16,1.2-.49.31-.33.46-.77.46-1.34v-1.98c0-.57-.15-1.01-.46-1.34-.31-.33-.71-.49-1.2-.49s-.88.16-1.19.49c-.31.33-.46.77-.46,1.34v1.98c0,.57.15,1.01.46,1.34.31.33.7.49,1.19.49Z"/><path d="m182.83,293.01c-.14.15-.32.22-.53.22s-.38-.07-.52-.22c-.14-.15-.22-.32-.22-.53s.07-.38.22-.53.32-.22.52-.22.37.07.52.22c.15.15.22.33.22.53s-.07.38-.21.53Z"/><path d="m188.05,292.56c-.46.46-1.03.68-1.72.68s-1.26-.23-1.72-.68-.69-1.01-.69-1.66c0-.35.07-.66.21-.93.14-.28.33-.57.59-.88l2.59-3.05h1.09l-2.17,2.57c.12-.01.21-.02.28-.02.59,0,1.11.23,1.55.68s.67.99.67,1.61c0,.66-.23,1.22-.68,1.67Zm-1.72-.15c.43,0,.79-.15,1.08-.45.29-.3.44-.66.44-1.08s-.15-.78-.44-1.08c-.29-.3-.65-.45-1.08-.45s-.8.15-1.09.44c-.29.3-.44.66-.44,1.09s.15.79.44,1.08c.29.3.66.44,1.09.44Z"/><path d="m193.24,295.24h-.86v-7.09h.86v.77c.17-.25.42-.46.74-.62.32-.16.66-.25,1.02-.25.69,0,1.28.25,1.75.76.47.51.71,1.12.71,1.84s-.24,1.33-.71,1.84-1.05.76-1.75.76c-.37,0-.71-.08-1.02-.25-.32-.16-.56-.37-.74-.62v2.86Zm.41-3.3c.32.35.73.52,1.22.52s.9-.17,1.22-.52c.32-.35.48-.78.48-1.29s-.16-.94-.48-1.29c-.32-.35-.73-.52-1.22-.52s-.9.17-1.22.52-.48.78-.48,1.29.16.94.48,1.29Z"/><path d="m200.82,293.25c-.73,0-1.33-.25-1.81-.74-.48-.49-.71-1.11-.71-1.86s.23-1.38.7-1.87c.46-.49,1.08-.74,1.84-.74s1.38.27,1.82.82c.44.55.63,1.22.58,2.01h-4.07c.01.45.18.83.5,1.14.32.3.71.45,1.16.45.68,0,1.16-.28,1.45-.84h.88c-.13.47-.4.85-.81,1.16s-.92.46-1.53.46Zm.98-4.08c-.27-.24-.6-.35-.99-.35s-.73.12-1.04.35c-.3.23-.49.58-.56,1.04h3.12c-.08-.45-.26-.8-.53-1.04Z"/><path d="m204.48,293.15v-5h.86v.97c.09-.31.28-.55.54-.74.27-.19.55-.28.86-.28.15,0,.28.01.39.04v.89c-.12-.05-.28-.08-.47-.08-.35,0-.65.15-.92.45s-.4.72-.4,1.27v2.48h-.86Z"/><path d="m210.94,293.15v-6.25h-1.37l.7-.85h1.53v7.1h-.86Z"/><path d="m215.85,293.25c-.74,0-1.34-.25-1.81-.75-.47-.5-.7-1.14-.7-1.92v-1.98c0-.79.24-1.43.71-1.93.47-.5,1.07-.75,1.81-.75s1.34.25,1.81.75.71,1.14.71,1.92v1.98c0,.79-.24,1.43-.71,1.92-.47.5-1.08.75-1.81.75Zm0-.84c.49,0,.89-.16,1.2-.49.31-.33.46-.77.46-1.34v-1.98c0-.57-.15-1.01-.46-1.34-.31-.33-.71-.49-1.2-.49s-.88.16-1.19.49c-.31.33-.46.77-.46,1.34v1.98c0,.57.15,1.01.46,1.34.31.33.7.49,1.19.49Z"/><path d="m222.08,293.25c-.74,0-1.34-.25-1.81-.75-.47-.5-.7-1.14-.7-1.92v-1.98c0-.79.24-1.43.71-1.93.47-.5,1.07-.75,1.81-.75s1.34.25,1.81.75.71,1.14.71,1.92v1.98c0,.79-.24,1.43-.71,1.92-.47.5-1.08.75-1.81.75Zm0-.84c.49,0,.89-.16,1.2-.49.31-.33.46-.77.46-1.34v-1.98c0-.57-.15-1.01-.46-1.34-.31-.33-.71-.49-1.2-.49s-.88.16-1.19.49c-.31.33-.46.77-.46,1.34v1.98c0,.57.15,1.01.46,1.34.31.33.7.49,1.19.49Z"/><path d="m226.92,292.93l-1.03,1.65h-.57l.67-1.43c-.27-.13-.41-.36-.41-.67,0-.2.07-.38.22-.53s.32-.22.52-.22.37.07.52.22.22.33.22.53c0,.15-.05.3-.14.45Z"/><path d="m230.55,293.25c-.74,0-1.34-.25-1.81-.75-.47-.5-.7-1.14-.7-1.92v-1.98c0-.79.24-1.43.71-1.93.47-.5,1.07-.75,1.81-.75s1.34.25,1.81.75.71,1.14.71,1.92v1.98c0,.79-.24,1.43-.71,1.92-.47.5-1.08.75-1.81.75Zm0-.84c.49,0,.89-.16,1.2-.49.31-.33.46-.77.46-1.34v-1.98c0-.57-.15-1.01-.46-1.34-.31-.33-.71-.49-1.2-.49s-.88.16-1.19.49c-.31.33-.46.77-.46,1.34v1.98c0,.57.15,1.01.46,1.34.31.33.7.49,1.19.49Z"/><path d="m236.78,293.25c-.74,0-1.34-.25-1.81-.75-.47-.5-.7-1.14-.7-1.92v-1.98c0-.79.24-1.43.71-1.93.47-.5,1.07-.75,1.81-.75s1.34.25,1.81.75.71,1.14.71,1.92v1.98c0,.79-.24,1.43-.71,1.92-.47.5-1.08.75-1.81.75Zm0-.84c.49,0,.89-.16,1.2-.49.31-.33.46-.77.46-1.34v-1.98c0-.57-.15-1.01-.46-1.34-.31-.33-.71-.49-1.2-.49s-.88.16-1.19.49c-.31.33-.46.77-.46,1.34v1.98c0,.57.15,1.01.46,1.34.31.33.7.49,1.19.49Z"/><path d="m243.01,293.25c-.74,0-1.34-.25-1.81-.75-.47-.5-.7-1.14-.7-1.92v-1.98c0-.79.24-1.43.71-1.93.47-.5,1.07-.75,1.81-.75s1.34.25,1.81.75.71,1.14.71,1.92v1.98c0,.79-.24,1.43-.71,1.92-.47.5-1.08.75-1.81.75Zm0-.84c.49,0,.89-.16,1.2-.49.31-.33.46-.77.46-1.34v-1.98c0-.57-.15-1.01-.46-1.34-.31-.33-.71-.49-1.2-.49s-.88.16-1.19.49c-.31.33-.46.77-.46,1.34v1.98c0,.57.15,1.01.46,1.34.31.33.7.49,1.19.49Z"/><path d="m251.41,293.25c-.69,0-1.28-.25-1.75-.76s-.71-1.12-.71-1.84.24-1.33.71-1.84c.47-.51,1.05-.76,1.75-.76.37,0,.71.08,1.02.25.32.16.56.37.74.62v-3.27h.86v7.5h-.86v-.77c-.17.25-.42.46-.74.62-.32.16-.66.25-1.02.25Zm.13-.79c.49,0,.9-.17,1.22-.52.32-.35.48-.78.48-1.29s-.16-.94-.48-1.29c-.32-.35-.73-.52-1.22-.52s-.91.17-1.23.52c-.32.35-.48.78-.48,1.29s.16.94.48,1.29c.32.35.73.52,1.23.52Z"/><path d="m257.78,293.25c-.73,0-1.33-.25-1.81-.74-.48-.49-.71-1.11-.71-1.86s.23-1.38.7-1.87c.46-.49,1.08-.74,1.84-.74s1.38.27,1.82.82c.44.55.63,1.22.58,2.01h-4.07c.01.45.18.83.5,1.14.32.3.71.45,1.16.45.68,0,1.16-.28,1.45-.84h.88c-.13.47-.4.85-.81,1.16s-.92.46-1.53.46Zm.98-4.08c-.27-.24-.6-.35-.99-.35s-.73.12-1.04.35c-.3.23-.49.58-.56,1.04h3.12c-.08-.45-.26-.8-.53-1.04Z"/><path d="m263.5,293.25c-.69,0-1.28-.25-1.75-.76s-.71-1.12-.71-1.84.24-1.33.71-1.84c.47-.51,1.05-.76,1.75-.76.37,0,.71.08,1.02.25.32.16.56.37.74.62v-.77h.86v5h-.86v-.77c-.17.25-.42.46-.74.62-.32.16-.66.25-1.02.25Zm.13-.79c.49,0,.9-.17,1.22-.52.32-.35.48-.78.48-1.29s-.16-.94-.48-1.29c-.32-.35-.73-.52-1.22-.52s-.91.17-1.23.52c-.32.35-.48.78-.48,1.29s.16.94.48,1.29c.32.35.73.52,1.23.52Z"/><path d="m269.68,293.2c-.46,0-.83-.13-1.11-.39-.28-.26-.42-.64-.42-1.14v-2.73h-1.06v-.79h1.06v-1.39h.86v1.39h1.44v.79h-1.44v2.62c0,.31.07.53.2.66.13.13.34.19.63.19.25,0,.46-.03.61-.1v.77c-.24.08-.5.12-.77.12Z"/><path d="m272.4,293.15h-.86v-7.5h.86v3.27c.34-.58.87-.87,1.59-.87.57,0,1.02.18,1.37.55.35.37.52.86.52,1.47v3.08h-.85v-2.95c0-.42-.11-.75-.32-1-.21-.24-.5-.37-.86-.37-.41,0-.76.16-1.04.49-.28.33-.42.77-.42,1.34v2.48Z"/><path d="m279.04,293.25c-.56,0-1.03-.14-1.41-.41-.38-.27-.58-.65-.62-1.14h.88c.05.28.19.49.41.62.22.13.47.2.75.2s.52-.06.7-.17.26-.28.26-.49c0-.2-.06-.36-.19-.49s-.34-.23-.64-.31l-.72-.19c-.86-.23-1.29-.72-1.29-1.47,0-.41.16-.73.49-.98.32-.25.74-.37,1.25-.37s.93.14,1.26.41c.33.27.51.61.55,1.03h-.86c-.07-.22-.19-.39-.36-.52-.17-.13-.37-.19-.6-.19-.25,0-.45.06-.62.17s-.25.26-.25.45.06.33.18.44c.12.11.31.21.58.28l.8.21c.85.21,1.28.71,1.28,1.48,0,.48-.17.84-.51,1.08-.34.24-.78.37-1.33.37Z"/><path d="m86.82,305.25c-.37,0-.71-.08-1.02-.25-.32-.16-.56-.37-.74-.62v.77h-.86v-7.5h.86v3.27c.17-.25.42-.46.74-.62.32-.16.66-.25,1.02-.25.69,0,1.28.25,1.75.76.47.51.71,1.12.71,1.84s-.24,1.33-.71,1.84-1.05.76-1.75.76Zm-1.35-1.31c.32.35.73.52,1.22.52s.9-.17,1.22-.52c.32-.35.48-.78.48-1.29s-.16-.94-.48-1.29c-.32-.35-.73-.52-1.22-.52s-.9.17-1.22.52-.48.78-.48,1.29.16.94.48,1.29Z"/><path d="m92.63,305.25c-.73,0-1.33-.25-1.81-.74-.48-.49-.71-1.11-.71-1.86s.23-1.38.7-1.87c.46-.49,1.08-.74,1.84-.74s1.38.27,1.82.82c.44.55.63,1.22.58,2.01h-4.07c.01.45.18.83.5,1.14.32.3.71.45,1.16.45.68,0,1.16-.28,1.45-.84h.88c-.13.47-.4.85-.81,1.16s-.92.46-1.53.46Zm.98-4.08c-.27-.24-.6-.35-.99-.35s-.73.12-1.04.35c-.3.23-.49.58-.56,1.04h3.12c-.08-.45-.26-.8-.53-1.04Z"/><path d="m98.51,305.25c-.75,0-1.38-.25-1.87-.75-.49-.5-.74-1.12-.74-1.84s.25-1.34.74-1.85c.49-.5,1.12-.75,1.87-.75.62,0,1.16.17,1.61.52.45.34.76.79.91,1.34h-.92c-.12-.33-.32-.59-.6-.78-.28-.19-.61-.29-1-.29-.51,0-.93.17-1.25.52-.32.35-.49.78-.49,1.29s.16.94.49,1.29c.32.35.74.52,1.25.52.39,0,.72-.1,1-.29.28-.19.48-.45.6-.78h.92c-.15.55-.45,1-.9,1.34-.45.34-.99.51-1.62.51Z"/><path d="m104.23,305.25c-.69,0-1.28-.25-1.75-.76s-.71-1.12-.71-1.84.24-1.33.71-1.84c.47-.51,1.05-.76,1.75-.76.37,0,.71.08,1.02.25.32.16.56.37.74.62v-.77h.86v5h-.86v-.77c-.17.25-.42.46-.74.62-.32.16-.66.25-1.02.25Zm.13-.79c.49,0,.9-.17,1.22-.52.32-.35.48-.78.48-1.29s-.16-.94-.48-1.29c-.32-.35-.73-.52-1.22-.52s-.91.17-1.23.52c-.32.35-.48.78-.48,1.29s.16.94.48,1.29c.32.35.73.52,1.23.52Z"/><path d="m110.24,305.25c-.55,0-.99-.18-1.33-.55s-.51-.86-.51-1.48v-3.07h.86v2.94c0,.42.1.75.31,1,.2.25.48.37.83.37.4,0,.73-.17.99-.5.26-.33.4-.77.4-1.33v-2.48h.86v5h-.86v-.77c-.33.58-.84.87-1.54.87Z"/><path d="m115.87,305.25c-.56,0-1.03-.14-1.41-.41-.38-.27-.58-.65-.62-1.14h.88c.05.28.19.49.41.62.22.13.47.2.75.2s.52-.06.7-.17.26-.28.26-.49c0-.2-.06-.36-.19-.49s-.34-.23-.64-.31l-.72-.19c-.86-.23-1.29-.72-1.29-1.47,0-.41.16-.73.49-.98.32-.25.74-.37,1.25-.37s.93.14,1.26.41c.33.27.51.61.55,1.03h-.86c-.07-.22-.19-.39-.36-.52-.17-.13-.37-.19-.6-.19-.25,0-.45.06-.62.17s-.25.26-.25.45.06.33.18.44c.12.11.31.21.58.28l.8.21c.85.21,1.28.71,1.28,1.48,0,.48-.17.84-.51,1.08-.34.24-.78.37-1.33.37Z"/><path d="m121.06,305.25c-.73,0-1.33-.25-1.81-.74-.48-.49-.71-1.11-.71-1.86s.23-1.38.7-1.87c.46-.49,1.08-.74,1.84-.74s1.38.27,1.82.82c.44.55.63,1.22.58,2.01h-4.07c.01.45.18.83.5,1.14.32.3.71.45,1.16.45.68,0,1.16-.28,1.45-.84h.88c-.13.47-.4.85-.81,1.16s-.92.46-1.53.46Zm.98-4.08c-.27-.24-.6-.35-.99-.35s-.73.12-1.04.35c-.3.23-.49.58-.56,1.04h3.12c-.08-.45-.26-.8-.53-1.04Z"/><path d="m129.35,305.25c-.75,0-1.38-.25-1.88-.75-.5-.5-.75-1.12-.75-1.84s.25-1.34.75-1.85c.5-.5,1.12-.75,1.88-.75s1.37.25,1.86.75c.5.5.75,1.12.75,1.85s-.25,1.34-.75,1.84c-.5.5-1.12.75-1.86.75Zm-1.25-1.32c.32.35.74.52,1.25.52s.93-.17,1.25-.52c.32-.35.48-.77.48-1.28s-.16-.93-.48-1.28c-.32-.35-.74-.52-1.25-.52s-.93.17-1.25.52c-.32.35-.49.77-.49,1.28s.16.93.49,1.28Z"/><path d="m133.53,305.15v-4.21h-1.06v-.79h1.06v-1.01c0-.5.14-.88.42-1.15.28-.27.65-.4,1.11-.4.27,0,.53.04.78.13v.76c-.15-.07-.36-.1-.62-.1-.29,0-.5.06-.63.19-.13.13-.2.35-.2.66v.92h1.45v.79h-1.45v4.21h-.86Z"/><path d="m142.26,305.27c-1.05,0-1.92-.35-2.62-1.06s-1.05-1.57-1.05-2.61.35-1.91,1.05-2.62c.7-.7,1.58-1.06,2.62-1.06.85,0,1.59.24,2.22.72.62.48,1.02,1.06,1.18,1.74h-.98c-.17-.46-.47-.84-.9-1.14-.44-.3-.94-.44-1.52-.44-.79,0-1.44.27-1.96.8s-.79,1.2-.79,1.99.26,1.45.79,1.98c.52.54,1.18.81,1.96.81.57,0,1.08-.15,1.52-.45s.74-.67.9-1.13h.98c-.17.68-.56,1.26-1.18,1.74-.62.48-1.36.72-2.22.72Z"/><path d="m148.94,305.25c-.73,0-1.33-.25-1.81-.74-.48-.49-.71-1.11-.71-1.86s.23-1.38.7-1.87c.46-.49,1.08-.74,1.84-.74s1.38.27,1.82.82c.44.55.63,1.22.58,2.01h-4.07c.01.45.18.83.5,1.14.32.3.71.45,1.16.45.68,0,1.16-.28,1.45-.84h.88c-.13.47-.4.85-.81,1.16s-.92.46-1.53.46Zm.98-4.08c-.27-.24-.6-.35-.99-.35s-.73.12-1.04.35c-.3.23-.49.58-.56,1.04h3.12c-.08-.45-.26-.8-.53-1.04Z"/><path d="m152.6,305.15v-5h.86v.97c.09-.31.28-.55.54-.74.27-.19.55-.28.86-.28.15,0,.28.01.39.04v.89c-.12-.05-.28-.08-.47-.08-.35,0-.65.15-.92.45s-.4.72-.4,1.27v2.48h-.86Z"/><path d="m158.21,305.25c-.73,0-1.33-.25-1.81-.74-.48-.49-.71-1.11-.71-1.86s.23-1.38.7-1.87c.46-.49,1.08-.74,1.84-.74s1.38.27,1.82.82c.44.55.63,1.22.58,2.01h-4.07c.01.45.18.83.5,1.14.32.3.71.45,1.16.45.68,0,1.16-.28,1.45-.84h.88c-.13.47-.4.85-.81,1.16s-.92.46-1.53.46Zm.98-4.08c-.27-.24-.6-.35-.99-.35s-.73.12-1.04.35c-.3.23-.49.58-.56,1.04h3.12c-.08-.45-.26-.8-.53-1.04Z"/><path d="m164.49,305.25c-.37,0-.71-.08-1.02-.25-.32-.16-.56-.37-.74-.62v.77h-.86v-7.5h.86v3.27c.17-.25.42-.46.74-.62.32-.16.66-.25,1.02-.25.69,0,1.28.25,1.75.76.47.51.71,1.12.71,1.84s-.24,1.33-.71,1.84-1.05.76-1.75.76Zm-1.35-1.31c.32.35.73.52,1.22.52s.9-.17,1.22-.52c.32-.35.48-.78.48-1.29s-.16-.94-.48-1.29c-.32-.35-.73-.52-1.22-.52s-.9.17-1.22.52-.48.78-.48,1.29.16.94.48,1.29Z"/><path d="m168.17,305.15v-5h.86v.97c.09-.31.28-.55.54-.74.27-.19.55-.28.86-.28.15,0,.28.01.39.04v.89c-.12-.05-.28-.08-.47-.08-.35,0-.65.15-.92.45s-.4.72-.4,1.27v2.48h-.86Z"/><path d="m173.87,305.25c-.75,0-1.38-.25-1.88-.75-.5-.5-.75-1.12-.75-1.84s.25-1.34.75-1.85c.5-.5,1.12-.75,1.88-.75s1.37.25,1.86.75c.5.5.75,1.12.75,1.85s-.25,1.34-.75,1.84c-.5.5-1.12.75-1.86.75Zm-1.25-1.32c.32.35.74.52,1.25.52s.93-.17,1.25-.52c.32-.35.48-.77.48-1.28s-.16-.93-.48-1.28c-.32-.35-.74-.52-1.25-.52s-.93.17-1.25.52c-.32.35-.49.77-.49,1.28s.16.93.49,1.28Z"/><path d="m179.16,305.15l-2.31-5h.96l1.71,3.79,1.71-3.79h.96l-2.31,5h-.72Z"/><path d="m185.02,305.25c-.69,0-1.28-.25-1.75-.76s-.71-1.12-.71-1.84.24-1.33.71-1.84c.47-.51,1.05-.76,1.75-.76.37,0,.71.08,1.02.25.32.16.56.37.74.62v-.77h.86v5h-.86v-.77c-.17.25-.42.46-.74.62-.32.16-.66.25-1.02.25Zm.13-.79c.49,0,.9-.17,1.22-.52.32-.35.48-.78.48-1.29s-.16-.94-.48-1.29c-.32-.35-.73-.52-1.22-.52s-.91.17-1.23.52c-.32.35-.48.78-.48,1.29s.16.94.48,1.29c.32.35.73.52,1.23.52Z"/><path d="m190.87,305.25c-.56,0-1.03-.14-1.41-.41-.38-.27-.58-.65-.62-1.14h.88c.05.28.19.49.41.62.22.13.47.2.75.2s.52-.06.7-.17.26-.28.26-.49c0-.2-.06-.36-.19-.49s-.34-.23-.64-.31l-.72-.19c-.86-.23-1.29-.72-1.29-1.47,0-.41.16-.73.49-.98.32-.25.74-.37,1.25-.37s.93.14,1.26.41c.33.27.51.61.55,1.03h-.86c-.07-.22-.19-.39-.36-.52-.17-.13-.37-.19-.6-.19-.25,0-.45.06-.62.17s-.25.26-.25.45.06.33.18.44c.12.11.31.21.58.28l.8.21c.85.21,1.28.71,1.28,1.48,0,.48-.17.84-.51,1.08-.34.24-.78.37-1.33.37Z"/><path d="m196.15,305.25c-.75,0-1.38-.25-1.87-.75-.49-.5-.74-1.12-.74-1.84s.25-1.34.74-1.85c.49-.5,1.12-.75,1.87-.75.62,0,1.16.17,1.61.52.45.34.76.79.91,1.34h-.92c-.12-.33-.32-.59-.6-.78-.28-.19-.61-.29-1-.29-.51,0-.93.17-1.25.52-.32.35-.49.78-.49,1.29s.16.94.49,1.29c.32.35.74.52,1.25.52.39,0,.72-.1,1-.29.28-.19.48-.45.6-.78h.92c-.15.55-.45,1-.9,1.34-.45.34-.99.51-1.62.51Z"/><path d="m201.58,305.25c-.55,0-.99-.18-1.33-.55s-.51-.86-.51-1.48v-3.07h.86v2.94c0,.42.1.75.31,1,.2.25.48.37.83.37.4,0,.73-.17.99-.5.26-.33.4-.77.4-1.33v-2.48h.86v5h-.86v-.77c-.33.58-.84.87-1.54.87Z"/><path d="m205.6,305.15v-7.5h.86v7.5h-.86Z"/><path d="m210.15,305.25c-.69,0-1.28-.25-1.75-.76s-.71-1.12-.71-1.84.24-1.33.71-1.84c.47-.51,1.05-.76,1.75-.76.37,0,.71.08,1.02.25.32.16.56.37.74.62v-.77h.86v5h-.86v-.77c-.17.25-.42.46-.74.62-.32.16-.66.25-1.02.25Zm.13-.79c.49,0,.9-.17,1.22-.52.32-.35.48-.78.48-1.29s-.16-.94-.48-1.29c-.32-.35-.73-.52-1.22-.52s-.91.17-1.23.52c-.32.35-.48.78-.48,1.29s.16.94.48,1.29c.32.35.73.52,1.23.52Z"/><path d="m214.39,305.15v-5h.86v.97c.09-.31.28-.55.54-.74.27-.19.55-.28.86-.28.15,0,.28.01.39.04v.89c-.12-.05-.28-.08-.47-.08-.35,0-.65.15-.92.45s-.4.72-.4,1.27v2.48h-.86Z"/><path d="m218.47,305.01c-.14.15-.32.22-.53.22s-.38-.07-.52-.22c-.14-.15-.22-.32-.22-.53s.07-.38.22-.53.32-.22.52-.22.37.07.52.22c.15.15.22.33.22.53s-.07.38-.21.53Z"/><path d="m144.54,156.24v-4.21h-1.06v-.79h1.06v-1.01c0-.5.14-.88.42-1.15.28-.27.65-.4,1.11-.4.27,0,.53.04.78.13v.76c-.15-.07-.36-.1-.62-.1-.29,0-.5.06-.63.19-.13.13-.2.35-.2.66v.92h1.45v.79h-1.45v4.21h-.86Z"/><path d="m149.79,156.34c-.73,0-1.33-.25-1.8-.74s-.71-1.11-.71-1.86.23-1.38.7-1.87c.46-.49,1.08-.73,1.84-.73s1.38.27,1.82.82c.44.55.63,1.22.58,2.01h-4.07c.01.45.18.83.5,1.13s.71.46,1.16.46c.68,0,1.16-.28,1.45-.84h.88c-.13.47-.4.85-.81,1.16-.41.31-.92.46-1.53.46Zm.98-4.08c-.27-.24-.6-.36-.99-.36s-.73.12-1.04.35c-.3.23-.49.58-.56,1.04h3.12c-.08-.45-.26-.8-.53-1.03Z"/><path d="m159.89,156.24v-2.94c0-.41-.08-.75-.25-1s-.42-.38-.74-.38c-.4,0-.72.16-.97.47s-.38.74-.39,1.28v2.56h-.86v-2.94c0-.42-.09-.75-.26-1-.17-.25-.41-.37-.72-.37-.41,0-.75.17-1,.5s-.38.77-.38,1.33v2.48h-.86v-5h.86v.77c.32-.58.82-.87,1.51-.87.76,0,1.27.36,1.54,1.07.13-.33.35-.59.64-.78.29-.19.62-.29,1-.29.54,0,.96.18,1.28.55.31.37.47.86.47,1.48v3.07h-.86Z"/><path d="m164.36,156.34c-.69,0-1.28-.25-1.75-.76-.47-.51-.71-1.12-.71-1.84s.24-1.33.71-1.84c.47-.51,1.05-.76,1.75-.76.37,0,.71.08,1.02.25.32.16.56.37.74.62v-.77h.86v5h-.86v-.77c-.17.25-.42.46-.74.62-.32.16-.66.25-1.02.25Zm.13-.79c.49,0,.9-.17,1.22-.52s.48-.78.48-1.29-.16-.94-.48-1.29-.73-.52-1.22-.52-.91.17-1.23.52c-.32.35-.48.78-.48,1.29s.16.94.48,1.29c.32.35.73.52,1.23.52Z"/><path d="m168.6,156.24v-7.5h.86v7.5h-.86Z"/><path d="m173.22,156.34c-.73,0-1.33-.25-1.8-.74s-.71-1.11-.71-1.86.23-1.38.7-1.87c.46-.49,1.08-.73,1.84-.73s1.38.27,1.82.82c.44.55.63,1.22.58,2.01h-4.07c.01.45.18.83.5,1.13s.71.46,1.16.46c.68,0,1.16-.28,1.45-.84h.88c-.13.47-.4.85-.81,1.16-.41.31-.92.46-1.53.46Zm.98-4.08c-.27-.24-.6-.36-.99-.36s-.73.12-1.04.35c-.3.23-.49.58-.56,1.04h3.12c-.08-.45-.26-.8-.53-1.03Z"/><path d="m181.35,156.34c-.69,0-1.28-.25-1.75-.76-.47-.51-.71-1.12-.71-1.84s.24-1.33.71-1.84c.47-.51,1.05-.76,1.75-.76.37,0,.71.08,1.02.25.32.16.56.37.74.62v-3.27h.86v7.5h-.86v-.77c-.17.25-.42.46-.74.62-.32.16-.66.25-1.02.25Zm.13-.79c.49,0,.9-.17,1.22-.52s.48-.78.48-1.29-.16-.94-.48-1.29-.73-.52-1.22-.52-.91.17-1.23.52c-.32.35-.48.78-.48,1.29s.16.94.48,1.29c.32.35.73.52,1.23.52Z"/><path d="m187.72,156.34c-.73,0-1.33-.25-1.8-.74s-.71-1.11-.71-1.86.23-1.38.7-1.87c.46-.49,1.08-.73,1.84-.73s1.38.27,1.82.82c.44.55.63,1.22.58,2.01h-4.07c.01.45.18.83.5,1.13s.71.46,1.16.46c.68,0,1.16-.28,1.45-.84h.88c-.13.47-.4.85-.81,1.16-.41.31-.92.46-1.53.46Zm.98-4.08c-.27-.24-.6-.36-.99-.36s-.73.12-1.04.35c-.3.23-.49.58-.56,1.04h3.12c-.08-.45-.26-.8-.53-1.03Z"/><path d="m193.44,156.34c-.69,0-1.28-.25-1.75-.76-.47-.51-.71-1.12-.71-1.84s.24-1.33.71-1.84c.47-.51,1.05-.76,1.75-.76.37,0,.71.08,1.02.25.32.16.56.37.74.62v-.77h.86v5h-.86v-.77c-.17.25-.42.46-.74.62-.32.16-.66.25-1.02.25Zm.13-.79c.49,0,.9-.17,1.22-.52s.48-.78.48-1.29-.16-.94-.48-1.29-.73-.52-1.22-.52-.91.17-1.23.52c-.32.35-.48.78-.48,1.29s.16.94.48,1.29c.32.35.73.52,1.23.52Z"/><path d="m199.62,156.29c-.46,0-.83-.13-1.11-.39-.28-.26-.42-.64-.42-1.14v-2.73h-1.06v-.79h1.06v-1.39h.86v1.39h1.44v.79h-1.44v2.62c0,.31.07.53.2.66s.34.19.63.19c.25,0,.46-.03.61-.1v.77c-.24.08-.5.12-.77.12Z"/><path d="m202.35,156.24h-.86v-7.5h.86v3.27c.34-.58.87-.87,1.59-.87.57,0,1.02.18,1.37.55.35.37.52.86.52,1.47v3.08h-.85v-2.95c0-.42-.11-.75-.32-.99-.21-.24-.5-.37-.86-.37-.41,0-.76.16-1.04.49-.28.33-.42.77-.42,1.34v2.48Z"/><path d="m209.79,156.24v-5h.86v.97c.09-.31.28-.55.54-.74s.55-.28.86-.28c.15,0,.28.01.39.04v.89c-.12-.05-.28-.08-.47-.08-.35,0-.65.15-.92.45-.27.3-.4.72-.4,1.27v2.48h-.86Z"/><path d="m215.34,156.34c-.69,0-1.28-.25-1.74-.76-.47-.51-.71-1.12-.71-1.84s.23-1.33.71-1.84c.47-.51,1.05-.76,1.74-.76.37,0,.71.08,1.03.25s.56.37.73.62v-.77h.86v5h-.86v-.77c-.17.25-.42.46-.73.62s-.66.25-1.03.25Zm.13-.79c.49,0,.9-.17,1.22-.52.32-.35.48-.78.48-1.29s-.16-.94-.48-1.29c-.32-.35-.73-.52-1.22-.52s-.91.17-1.23.52-.48.78-.48,1.29.16.94.48,1.29.73.52,1.23.52Z"/><path d="m221.52,156.29c-.46,0-.83-.13-1.11-.39s-.42-.64-.42-1.14v-2.73h-1.06v-.79h1.06v-1.39h.86v1.39h1.44v.79h-1.44v2.62c0,.31.07.53.2.66.13.13.34.19.63.19.25,0,.46-.03.61-.1v.77c-.24.08-.5.12-.77.12Z"/><path d="m225.45,156.34c-.73,0-1.33-.25-1.8-.74s-.71-1.11-.71-1.86.23-1.38.7-1.87c.46-.49,1.08-.73,1.84-.73s1.38.27,1.82.82c.44.55.63,1.22.58,2.01h-4.07c.01.45.18.83.5,1.13s.71.46,1.16.46c.68,0,1.16-.28,1.45-.84h.88c-.13.47-.4.85-.81,1.16-.41.31-.92.46-1.53.46Zm.98-4.08c-.27-.24-.6-.36-.99-.36s-.73.12-1.04.35c-.3.23-.49.58-.56,1.04h3.12c-.08-.45-.26-.8-.53-1.03Z"/><path d="m230.2,152.4c-.14.15-.32.22-.52.22s-.38-.07-.53-.22c-.14-.15-.21-.32-.21-.53s.07-.38.22-.52c.15-.15.32-.23.52-.23s.37.08.52.23c.15.15.22.33.22.52s-.07.38-.22.53Zm0,3.7c-.14.15-.32.22-.52.22s-.38-.07-.53-.22c-.14-.15-.21-.32-.21-.53s.07-.38.22-.52c.15-.15.32-.23.52-.23s.37.08.52.23c.15.15.22.32.22.52s-.07.38-.22.53Z"/><path d="m144.76,168.24v-6.25h-1.37l.7-.85h1.53v7.1h-.86Z"/><path d="m150.51,168.24v-1.93h-3.78v-.69l3.89-4.48h.75v4.36h.98v.81h-.98v1.93h-.86Zm-2.66-2.74h2.66v-3.06l-2.66,3.06Z"/><path d="m154.52,168.1c-.14.15-.32.22-.53.22s-.38-.07-.52-.22c-.14-.15-.22-.32-.22-.53s.07-.38.22-.52c.15-.15.32-.23.52-.23s.37.08.52.23c.15.15.22.32.22.52s-.07.38-.21.53Z"/><path d="m156.82,168.24h-.96l3.31-6.26h-3.63v-.84h4.66v.72l-3.38,6.38Z"/><path d="m163.45,168.34c-.74,0-1.34-.25-1.81-.75-.47-.5-.7-1.14-.7-1.92v-1.98c0-.79.24-1.43.71-1.92.47-.5,1.07-.75,1.81-.75s1.34.25,1.81.75c.47.5.71,1.14.71,1.92v1.98c0,.79-.24,1.43-.71,1.92-.47.5-1.08.75-1.81.75Zm0-.84c.49,0,.89-.16,1.2-.49.31-.33.46-.77.46-1.34v-1.98c0-.57-.15-1.01-.46-1.34-.31-.33-.71-.49-1.2-.49s-.88.16-1.19.49c-.31.33-.46.77-.46,1.34v1.98c0,.57.15,1.01.46,1.34.31.33.7.49,1.19.49Z"/><path d="m171.06,167.65c-.46.46-1.03.69-1.71.69s-1.26-.23-1.72-.68c-.46-.45-.69-1.01-.69-1.66,0-.35.07-.66.21-.93s.34-.57.6-.88l2.59-3.05h1.09l-2.17,2.57c.12-.01.21-.02.28-.02.59,0,1.11.23,1.55.68.44.45.67.99.67,1.61,0,.66-.23,1.22-.69,1.67Zm-1.71-.14c.43,0,.79-.15,1.08-.45s.44-.66.44-1.08-.15-.78-.44-1.08-.65-.45-1.08-.45-.8.15-1.09.45-.44.66-.44,1.08.15.79.44,1.08.66.45,1.09.45Z"/><path d="m175.02,168.34c-.69,0-1.27-.21-1.71-.63-.45-.42-.68-.95-.68-1.6,0-.87.38-1.48,1.12-1.85-.49-.35-.73-.82-.73-1.41,0-.53.19-.97.56-1.32.38-.34.86-.51,1.44-.51s1.06.17,1.44.51c.37.34.55.78.55,1.32,0,.6-.24,1.07-.72,1.41.74.37,1.11.98,1.11,1.85,0,.65-.22,1.18-.67,1.6-.44.42-1.02.63-1.71.63Zm0-.82c.47,0,.84-.13,1.11-.4s.4-.6.4-1.01-.13-.75-.4-1.02-.64-.4-1.11-.4-.82.13-1.1.41c-.28.27-.42.61-.42,1.01s.14.74.42,1c.28.27.65.41,1.1.41Zm0-3.6c.35,0,.62-.1.83-.31.21-.2.31-.45.31-.75s-.1-.56-.3-.75c-.21-.19-.48-.29-.84-.29s-.62.1-.83.29c-.21.2-.32.45-.32.75s.11.53.32.74c.21.21.49.31.83.31Z"/><path d="m182.36,167.65c-.46.46-1.03.69-1.72.69s-1.26-.23-1.72-.68c-.46-.45-.69-1.01-.69-1.66,0-.35.07-.66.21-.93.13-.28.33-.57.59-.88l2.59-3.05h1.09l-2.17,2.57c.12-.01.21-.02.28-.02.59,0,1.11.23,1.55.68.44.45.66.99.66,1.61,0,.66-.23,1.22-.68,1.67Zm-1.72-.14c.43,0,.79-.15,1.08-.45.29-.3.44-.66.44-1.08s-.15-.78-.44-1.08c-.29-.3-.65-.45-1.08-.45s-.79.15-1.09.45c-.29.3-.44.66-.44,1.08s.15.79.44,1.08c.29.3.66.45,1.09.45Z"/><path d="m184.86,168.24v-6.25h-1.37l.7-.85h1.53v7.1h-.86Z"/><path d="m191.75,167.41v.83h-4.6v-.34c0-.25.04-.48.12-.71.08-.22.16-.41.25-.56s.24-.33.44-.52c.2-.19.36-.33.47-.42s.3-.23.57-.42c.27-.19.44-.31.53-.38.47-.35.8-.64.99-.88.18-.24.27-.55.27-.93s-.12-.67-.36-.9c-.24-.22-.55-.33-.94-.33-.41,0-.75.12-1.04.37-.29.25-.43.59-.43,1.03h-.88c0-.67.22-1.21.66-1.62s1-.62,1.68-.62c.62,0,1.15.18,1.56.54s.62.87.62,1.54c0,.51-.12.94-.37,1.29-.25.36-.67.75-1.27,1.18-.11.08-.27.19-.48.33-.21.14-.37.26-.48.35s-.24.19-.38.31c-.14.12-.24.25-.32.39s-.13.28-.17.44h3.54Z"/><path d="m192.98,168.24l2.19-2.58c-.07,0-.17.01-.28.01-.59,0-1.11-.23-1.56-.68-.44-.45-.66-.99-.66-1.6,0-.67.23-1.23.69-1.69.46-.46,1.03-.68,1.71-.68s1.26.23,1.72.68c.46.45.69,1.01.69,1.66,0,.35-.07.66-.21.94-.14.28-.34.57-.6.88l-2.6,3.07h-1.1Zm1-3.77c.29.3.65.44,1.09.44s.8-.15,1.09-.44c.29-.3.44-.66.44-1.08s-.15-.79-.44-1.08c-.29-.3-.66-.45-1.09-.45s-.79.15-1.09.45c-.29.3-.44.66-.44,1.08s.15.79.44,1.08Z"/><path d="m200.8,168.34c-.71,0-1.3-.22-1.79-.65s-.73-.97-.73-1.62h.87c.03.42.2.76.51,1.03.31.26.7.39,1.15.39.41,0,.76-.11,1.03-.34s.41-.54.41-.94c0-.43-.14-.75-.42-.96-.28-.21-.65-.32-1.13-.32h-.53v-.79h.57c.38,0,.69-.11.93-.32.24-.21.37-.49.38-.83,0-.33-.12-.61-.37-.82-.24-.21-.55-.32-.91-.32-.42,0-.77.12-1.06.37-.29.25-.43.59-.43,1.03h-.88c0-.68.23-1.22.68-1.63.45-.41,1.02-.61,1.69-.61.62,0,1.13.18,1.54.54s.62.83.62,1.42c0,.34-.1.65-.28.92s-.4.48-.69.63c.36.15.64.37.85.67.21.3.31.66.31,1.05,0,.62-.22,1.12-.65,1.51-.43.39-.99.58-1.67.58Z"/><path d="m246.25,48.43v-2.94c0-.41-.08-.75-.25-1s-.42-.38-.74-.38c-.4,0-.72.16-.97.47s-.38.74-.39,1.28v2.56h-.86v-2.94c0-.42-.09-.75-.26-1-.17-.25-.41-.37-.72-.37-.41,0-.75.17-1,.5s-.38.78-.38,1.33v2.48h-.86v-5h.86v.77c.32-.58.82-.87,1.51-.87.76,0,1.27.36,1.54,1.07.13-.33.35-.59.64-.78.29-.19.62-.29,1-.29.54,0,.96.18,1.28.55.31.37.47.86.47,1.48v3.07h-.86Z"/><path d="m250.72,48.53c-.69,0-1.28-.25-1.75-.76-.47-.51-.71-1.12-.71-1.84s.24-1.33.71-1.84c.47-.51,1.05-.76,1.75-.76.37,0,.71.08,1.02.25.32.16.56.37.74.62v-.77h.86v5h-.86v-.77c-.17.25-.42.46-.74.62-.32.16-.66.25-1.02.25Zm.13-.79c.49,0,.9-.17,1.22-.52s.48-.78.48-1.29-.16-.94-.48-1.29-.73-.52-1.22-.52-.91.17-1.23.52c-.32.35-.48.78-.48,1.29s.16.94.48,1.29c.32.35.73.52,1.23.52Z"/><path d="m254.96,48.43v-7.5h.86v7.5h-.86Z"/><path d="m259.58,48.53c-.73,0-1.33-.25-1.8-.74-.48-.49-.71-1.11-.71-1.86s.23-1.38.7-1.87c.46-.49,1.08-.74,1.84-.74s1.38.27,1.82.82.63,1.22.58,2.01h-4.07c.01.45.18.83.5,1.14.32.3.71.45,1.16.45.68,0,1.16-.28,1.45-.84h.88c-.13.47-.4.85-.81,1.16-.41.31-.92.46-1.53.46Zm.98-4.08c-.27-.24-.6-.35-.99-.35s-.73.12-1.04.35-.49.58-.56,1.04h3.12c-.08-.45-.26-.8-.53-1.04Z"/><path d="m267.71,48.53c-.69,0-1.28-.25-1.75-.76-.47-.51-.71-1.12-.71-1.84s.24-1.33.71-1.84c.47-.51,1.05-.76,1.75-.76.37,0,.71.08,1.02.25.32.16.56.37.74.62v-3.27h.86v7.5h-.86v-.77c-.17.25-.42.46-.74.62-.32.16-.66.25-1.02.25Zm.13-.79c.49,0,.9-.17,1.22-.52s.48-.78.48-1.29-.16-.94-.48-1.29-.73-.52-1.22-.52-.91.17-1.23.52c-.32.35-.48.78-.48,1.29s.16.94.48,1.29c.32.35.73.52,1.23.52Z"/><path d="m274.08,48.53c-.73,0-1.33-.25-1.8-.74-.48-.49-.71-1.11-.71-1.86s.23-1.38.7-1.87c.46-.49,1.08-.74,1.84-.74s1.38.27,1.82.82.63,1.22.58,2.01h-4.07c.01.45.18.83.5,1.14.32.3.71.45,1.16.45.68,0,1.16-.28,1.45-.84h.88c-.13.47-.4.85-.81,1.16-.41.31-.92.46-1.53.46Zm.98-4.08c-.27-.24-.6-.35-.99-.35s-.73.12-1.04.35-.49.58-.56,1.04h3.12c-.08-.45-.26-.8-.53-1.04Z"/><path d="m279.8,48.53c-.69,0-1.28-.25-1.75-.76-.47-.51-.71-1.12-.71-1.84s.24-1.33.71-1.84c.47-.51,1.05-.76,1.75-.76.37,0,.71.08,1.02.25.32.16.56.37.74.62v-.77h.86v5h-.86v-.77c-.17.25-.42.46-.74.62-.32.16-.66.25-1.02.25Zm.13-.79c.49,0,.9-.17,1.22-.52s.48-.78.48-1.29-.16-.94-.48-1.29-.73-.52-1.22-.52-.91.17-1.23.52c-.32.35-.48.78-.48,1.29s.16.94.48,1.29c.32.35.73.52,1.23.52Z"/><path d="m285.98,48.48c-.46,0-.83-.13-1.11-.39-.28-.26-.42-.64-.42-1.14v-2.73h-1.06v-.79h1.06v-1.39h.86v1.39h1.44v.79h-1.44v2.62c0,.31.07.53.2.66.13.13.34.19.63.19.25,0,.46-.03.61-.1v.77c-.24.08-.5.12-.77.12Z"/><path d="m288.71,48.43h-.86v-7.5h.86v3.27c.34-.58.87-.87,1.59-.87.57,0,1.02.18,1.37.55.35.37.52.86.52,1.47v3.08h-.85v-2.95c0-.42-.11-.75-.32-1s-.5-.37-.86-.37c-.41,0-.76.16-1.04.49-.28.33-.42.77-.42,1.34v2.48Z"/><path d="m296.15,48.43v-5h.86v.97c.09-.31.28-.55.54-.74s.55-.28.86-.28c.15,0,.28.01.39.04v.89c-.12-.05-.28-.08-.47-.08-.35,0-.65.15-.92.45-.27.3-.4.72-.4,1.27v2.48h-.86Z"/><path d="m301.7,48.53c-.69,0-1.28-.25-1.74-.76-.47-.51-.71-1.12-.71-1.84s.23-1.33.71-1.84c.47-.51,1.05-.76,1.74-.76.37,0,.71.08,1.03.25.32.16.56.37.73.62v-.77h.86v5h-.86v-.77c-.17.25-.42.46-.73.62s-.66.25-1.03.25Zm.13-.79c.49,0,.9-.17,1.22-.52.32-.35.48-.78.48-1.29s-.16-.94-.48-1.29c-.32-.35-.73-.52-1.22-.52s-.91.17-1.23.52-.48.78-.48,1.29.16.94.48,1.29.73.52,1.23.52Z"/><path d="m307.88,48.48c-.46,0-.83-.13-1.11-.39-.28-.26-.42-.64-.42-1.14v-2.73h-1.06v-.79h1.06v-1.39h.86v1.39h1.44v.79h-1.44v2.62c0,.31.07.53.2.66.13.13.34.19.63.19.25,0,.46-.03.61-.1v.77c-.24.08-.5.12-.77.12Z"/><path d="m311.81,48.53c-.73,0-1.33-.25-1.8-.74-.48-.49-.71-1.11-.71-1.86s.23-1.38.7-1.87c.46-.49,1.08-.74,1.84-.74s1.38.27,1.82.82.63,1.22.58,2.01h-4.07c.01.45.18.83.5,1.14.32.3.71.45,1.16.45.68,0,1.16-.28,1.45-.84h.88c-.13.47-.4.85-.81,1.16-.41.31-.92.46-1.53.46Zm.98-4.08c-.27-.24-.6-.35-.99-.35s-.73.12-1.04.35-.49.58-.56,1.04h3.12c-.08-.45-.26-.8-.53-1.04Z"/><path d="m316.55,44.59c-.14.15-.32.22-.52.22s-.38-.07-.53-.22c-.14-.15-.21-.32-.21-.53s.07-.38.22-.53c.15-.15.32-.22.52-.22s.37.08.52.22c.15.15.22.33.22.53s-.07.38-.22.53Zm0,3.7c-.14.15-.32.22-.52.22s-.38-.07-.53-.22c-.14-.15-.21-.32-.21-.53s.07-.38.22-.53.32-.22.52-.22.37.07.52.22.22.33.22.53-.07.38-.22.53Z"/><path d="m240.45,60.43v-6.25h-1.37l.7-.85h1.53v7.1h-.86Z"/><path d="m244.99,60.53c-.64,0-1.19-.2-1.66-.6-.47-.4-.71-.87-.72-1.42h.88c.08.35.26.63.53.85s.6.33.97.33c.43,0,.8-.15,1.09-.44.29-.29.44-.65.44-1.08s-.14-.8-.42-1.09c-.28-.29-.64-.44-1.07-.44-.59,0-1.04.24-1.34.72l-.82-.24.73-3.79h3.32v.84h-2.63l-.39,2.03c.35-.25.76-.37,1.24-.37.66,0,1.2.23,1.62.7.42.46.63,1.05.63,1.75,0,.63-.23,1.16-.69,1.59-.46.44-1.03.66-1.72.66Z"/><path d="m249.59,60.29c-.14.15-.32.22-.53.22s-.38-.07-.53-.22-.21-.32-.21-.53.07-.38.22-.53.32-.22.52-.22.37.07.52.22.22.33.22.53-.07.38-.21.53Z"/><path d="m255.41,59.6v.83h-4.6v-.34c0-.25.04-.48.12-.71.08-.22.16-.41.25-.57s.24-.33.44-.51c.2-.19.36-.33.47-.42s.3-.23.57-.42c.27-.19.44-.32.53-.38.47-.35.8-.64.99-.88.18-.24.27-.55.27-.94s-.12-.67-.36-.89c-.24-.22-.55-.33-.94-.33-.41,0-.75.12-1.04.37-.29.25-.43.59-.43,1.03h-.88c0-.67.22-1.21.66-1.62.44-.41,1-.62,1.68-.62.62,0,1.15.18,1.56.54.42.36.62.87.62,1.54,0,.51-.12.94-.37,1.29-.25.36-.67.75-1.27,1.19-.11.08-.27.19-.48.33-.21.14-.37.26-.48.34-.11.09-.24.19-.38.32s-.24.25-.32.39-.13.29-.17.45h3.54Z"/><path d="m260.99,59.6v.83h-4.6v-.34c0-.25.04-.48.12-.71.08-.22.16-.41.25-.57s.24-.33.44-.51c.2-.19.36-.33.47-.42s.3-.23.57-.42c.27-.19.44-.32.53-.38.47-.35.8-.64.99-.88.18-.24.27-.55.27-.94s-.12-.67-.36-.89c-.24-.22-.55-.33-.94-.33-.41,0-.75.12-1.04.37-.29.25-.43.59-.43,1.03h-.88c0-.67.22-1.21.66-1.62.44-.41,1-.62,1.68-.62.62,0,1.15.18,1.56.54.42.36.62.87.62,1.54,0,.51-.12.94-.37,1.29-.25.36-.67.75-1.27,1.19-.11.08-.27.19-.48.33-.21.14-.37.26-.48.34-.11.09-.24.19-.38.32s-.24.25-.32.39-.13.29-.17.45h3.54Z"/><path d="m262.22,60.43l2.19-2.58c-.07,0-.17,0-.28,0-.59,0-1.11-.23-1.56-.68s-.66-.99-.66-1.6c0-.67.23-1.23.69-1.68.46-.46,1.03-.69,1.71-.69s1.26.23,1.72.68c.46.45.69,1.01.69,1.66,0,.35-.07.66-.21.93s-.34.57-.6.88l-2.6,3.07h-1.1Zm1-3.78c.29.3.65.45,1.09.45s.8-.15,1.09-.45.44-.66.44-1.08-.15-.79-.44-1.08-.66-.45-1.09-.45-.79.15-1.09.45c-.29.3-.44.66-.44,1.08s.15.79.44,1.08Z"/><path d="m267.81,60.43l2.19-2.58c-.07,0-.17,0-.28,0-.59,0-1.11-.23-1.56-.68s-.66-.99-.66-1.6c0-.67.23-1.23.69-1.68.46-.46,1.03-.69,1.71-.69s1.26.23,1.72.68c.46.45.69,1.01.69,1.66,0,.35-.07.66-.21.93s-.34.57-.6.88l-2.6,3.07h-1.1Zm1-3.78c.29.3.65.45,1.09.45s.8-.15,1.09-.45.44-.66.44-1.08-.15-.79-.44-1.08-.66-.45-1.09-.45-.79.15-1.09.45c-.29.3-.44.66-.44,1.08s.15.79.44,1.08Z"/><path d="m273.4,60.43l2.19-2.58c-.07,0-.17,0-.28,0-.59,0-1.11-.23-1.56-.68s-.66-.99-.66-1.6c0-.67.23-1.23.69-1.68.46-.46,1.03-.69,1.71-.69s1.26.23,1.72.68c.46.45.69,1.01.69,1.66,0,.35-.07.66-.21.93s-.34.57-.6.88l-2.6,3.07h-1.1Zm1-3.78c.29.3.65.45,1.09.45s.8-.15,1.09-.45.44-.66.44-1.08-.15-.79-.44-1.08-.66-.45-1.09-.45-.79.15-1.09.45c-.29.3-.44.66-.44,1.08s.15.79.44,1.08Z"/><path d="m281.11,60.53c-.69,0-1.27-.21-1.71-.63s-.68-.95-.68-1.6c0-.87.38-1.48,1.12-1.85-.49-.35-.73-.82-.73-1.41,0-.53.19-.97.56-1.31s.86-.52,1.44-.52,1.06.17,1.44.52c.37.34.55.78.55,1.31,0,.6-.24,1.07-.72,1.41.74.37,1.11.98,1.11,1.85,0,.65-.22,1.18-.67,1.6s-1.02.63-1.71.63Zm0-.82c.47,0,.84-.13,1.11-.4s.4-.6.4-1.01-.13-.75-.4-1.02-.64-.4-1.11-.4-.82.13-1.1.4c-.28.27-.42.61-.42,1.02s.14.73.42,1c.28.27.65.4,1.1.4Zm0-3.6c.35,0,.62-.1.83-.3s.31-.45.31-.75-.1-.56-.3-.75c-.21-.19-.48-.29-.84-.29s-.62.1-.83.29-.32.45-.32.75.11.53.32.74c.21.21.49.31.83.31Z"/><path d="m286.93,60.53c-.71,0-1.3-.21-1.79-.64-.49-.43-.73-.97-.73-1.62h.87c.03.42.2.76.51,1.03.31.26.7.39,1.15.39.41,0,.76-.11,1.03-.34s.41-.54.41-.94c0-.43-.14-.75-.41-.96-.28-.21-.66-.32-1.13-.32h-.53v-.79h.57c.38,0,.69-.11.94-.32.24-.21.37-.49.38-.83,0-.33-.12-.61-.37-.82-.24-.21-.55-.32-.92-.32-.42,0-.77.12-1.06.37-.29.25-.43.59-.43,1.03h-.88c0-.68.23-1.22.68-1.63.45-.41,1.02-.61,1.69-.61.62,0,1.14.18,1.54.54.41.36.62.83.62,1.42,0,.34-.1.65-.27.92-.18.27-.41.48-.69.63.36.15.64.37.85.68.21.3.31.65.31,1.05,0,.62-.22,1.12-.65,1.51s-.99.58-1.67.58Z"/><path d="m292.5,60.53c-.64,0-1.19-.2-1.66-.6-.47-.4-.71-.87-.72-1.42h.88c.08.35.26.63.53.85s.6.33.97.33c.43,0,.79-.15,1.09-.44.29-.29.44-.65.44-1.08s-.14-.8-.42-1.09c-.28-.29-.64-.44-1.07-.44-.59,0-1.04.24-1.34.72l-.82-.24.73-3.79h3.32v.84h-2.63l-.39,2.03c.35-.25.76-.37,1.24-.37.66,0,1.2.23,1.62.7.42.46.64,1.05.64,1.75,0,.63-.23,1.16-.69,1.59-.46.44-1.03.66-1.72.66Z"/><path d="m296.03,60.43l2.19-2.58c-.07,0-.17,0-.28,0-.59,0-1.11-.23-1.55-.68s-.67-.99-.67-1.6c0-.67.23-1.23.69-1.68s1.03-.69,1.71-.69,1.26.23,1.72.68c.46.45.69,1.01.69,1.66,0,.35-.07.66-.21.93s-.33.57-.59.88l-2.6,3.07h-1.1Zm1.01-3.78c.29.3.65.45,1.08.45s.8-.15,1.09-.45.44-.66.44-1.08-.15-.79-.44-1.08-.66-.45-1.09-.45-.79.15-1.08.45c-.29.3-.44.66-.44,1.08s.14.79.44,1.08Z"/><line class="cls-2" x1="181.3" y1="185.07" x2="193.9" y2="271.2"/><line class="cls-2" x1="263.21" y1="73.43" x2="207.91" y2="133.55"/></g></svg>