<?xml version="1.0" encoding="UTF-8"?><svg id="_图层_2" xmlns="http://www.w3.org/2000/svg" viewBox="0 0 418.29 345.91"><defs><style>.cls-1{fill:#fff;}.cls-2{letter-spacing:0em;}.cls-3{letter-spacing:-.06em;}.cls-4{letter-spacing:-.02em;}.cls-5{letter-spacing:-.05em;}.cls-6{letter-spacing:0em;}.cls-7{letter-spacing:-.02em;}.cls-8{letter-spacing:0em;}.cls-9{letter-spacing:0em;}.cls-10{letter-spacing:-.02em;}.cls-11{letter-spacing:0em;}.cls-12{letter-spacing:0em;}.cls-13{letter-spacing:-.03em;}.cls-14{font-family:EuclidCircularA-Regular, 'Euclid Circular A';font-size:11px;}.cls-15{letter-spacing:-.02em;}.cls-16{letter-spacing:0em;}.cls-17{letter-spacing:-.01em;}.cls-18{letter-spacing:-.02em;}.cls-19{letter-spacing:-.03em;}.cls-20{fill:none;stroke:#241f20;stroke-miterlimit:10;stroke-width:.5px;}</style></defs><g id="_图层_1-2"><path class="cls-1" d="m405.64,193.81c-41.07,178.93-202.48,157.78-373.98,141.97-90.28-8.32,45.37-78.21,5.4-141.97C-15.67,109.71,84.22,95.61,163.45,55.55c233.41-118.04,282.36-36.74,242.19,138.26Z"/><text class="cls-14" transform="translate(51.17 166.94)"><tspan class="cls-16" x="0" y="0">I</tspan><tspan x="3.07" y="0">n 2018</tspan><tspan class="cls-18" x="35.04" y="0"> </tspan><tspan x="37.51" y="0">the</tspan><tspan class="cls-7" x="54.55" y="0">r</tspan><tspan x="58.38" y="0">e</tspan><tspan class="cls-4" x="64.75" y="0"> </tspan><tspan class="cls-16" x="67.2" y="0">w</tspan><tspan x="75.57" y="0">e</tspan><tspan class="cls-4" x="81.94" y="0">r</tspan><tspan x="85.77" y="0">e 25.4 pe</tspan><tspan class="cls-13" x="132.55" y="0">r</tspan><tspan x="136.3" y="0" xml:space="preserve"> 10</tspan><tspan class="cls-10" x="149.38" y="0">0,</tspan><tspan x="158.7" y="0">000 deaths</tspan><tspan x="0" y="13.2">because </tspan><tspan class="cls-11" x="47.22" y="13.2">o</tspan><tspan class="cls-19" x="53.8" y="13.2">f</tspan><tspan x="57.55" y="13.2"> </tspan><tspan class="cls-2" x="60.2" y="13.2">U</tspan><tspan x="68.09" y="13.2">ni</tspan><tspan class="cls-6" x="77.31" y="13.2">n</tspan><tspan class="cls-8" x="83.72" y="13.2">t</tspan><tspan x="87.84" y="13.2">e</tspan><tspan class="cls-6" x="94.21" y="13.2">n</tspan><tspan x="100.62" y="13.2">tional </tspan><tspan class="cls-9" x="133.01" y="13.2">I</tspan><tspan x="136.08" y="13.2">njur</tspan><tspan class="cls-5" x="155.78" y="13.2">y</tspan><tspan x="161.26" y="13.2">.</tspan></text><text class="cls-14" transform="translate(146.81 299.76)"><tspan class="cls-17" x="0" y="0">f</tspan><tspan x="3.89" y="0">emale death </tspan><tspan class="cls-15" x="72.24" y="0">r</tspan><tspan x="76.08" y="0">a</tspan><tspan class="cls-8" x="83.01" y="0">t</tspan><tspan x="87.12" y="0">e: 65.897</tspan></text><text class="cls-14" transform="translate(248.41 67.48)"><tspan x="0" y="0">male death </tspan><tspan class="cls-18" x="61.97" y="0">r</tspan><tspan x="65.81" y="0">a</tspan><tspan class="cls-12" x="72.74" y="0">t</tspan><tspan x="76.86" y="0">e: </tspan><tspan class="cls-3" x="88.89" y="0">7</tspan><tspan x="93.83" y="0">4.399</tspan></text><line class="cls-20" x1="173.91" y1="198.43" x2="195.05" y2="276.39"/><line class="cls-20" x1="295.12" y1="85.33" x2="252.6" y2="143.78"/></g></svg>