<?xml version="1.0" encoding="UTF-8"?><svg id="_图层_2" xmlns="http://www.w3.org/2000/svg" viewBox="0 0 360.2 353.83"><defs><style>.cls-1{letter-spacing:-.09em;}.cls-2{letter-spacing:-.08em;}.cls-3{fill:#fff;}.cls-4{letter-spacing:-.06em;}.cls-5{letter-spacing:-.02em;}.cls-6{letter-spacing:-.02em;}.cls-7{letter-spacing:0em;}.cls-8{letter-spacing:-.06em;}.cls-9{letter-spacing:-.02em;}.cls-10{letter-spacing:0em;}.cls-11{letter-spacing:0em;}.cls-12{letter-spacing:0em;}.cls-13{letter-spacing:-.01em;}.cls-14{letter-spacing:-.03em;}.cls-15{letter-spacing:-.02em;}.cls-16{font-family:EuclidCircularA-Regular, 'Euclid Circular A';font-size:11px;}.cls-17{letter-spacing:0em;}.cls-18{letter-spacing:-.02em;}.cls-19{letter-spacing:0em;}.cls-20{letter-spacing:-.01em;}.cls-21{letter-spacing:-.02em;}.cls-22{letter-spacing:-.03em;}.cls-23{fill:none;stroke:#241f20;stroke-miterlimit:10;stroke-width:.5px;}</style></defs><g id="_图层_1-2"><path class="cls-3" d="m338,302.13c-102.4,86.74-419.06,59.53-318.55-45.75,76.64-80.28,80.14-19.73,116.8-182.53,21.54-95.66,262.29-95.48,218.68-16.28-85.68,155.59,32.77,202.46-16.93,244.56Z"/><text class="cls-16" transform="translate(83.39 294)"><tspan class="cls-19" x="0" y="0">I</tspan><tspan x="3.07" y="0">n 2019</tspan><tspan class="cls-21" x="34.91" y="0"> </tspan><tspan x="37.38" y="0">the</tspan><tspan class="cls-6" x="54.42" y="0">r</tspan><tspan x="58.24" y="0">e</tspan><tspan class="cls-5" x="64.61" y="0"> </tspan><tspan class="cls-19" x="67.07" y="0">w</tspan><tspan x="75.44" y="0">e</tspan><tspan class="cls-5" x="81.81" y="0">r</tspan><tspan x="85.64" y="0">e 1</tspan><tspan class="cls-2" x="98.23" y="0">9</tspan><tspan class="cls-9" x="103.48" y="0">.</tspan><tspan x="106.07" y="0">0 pe</tspan><tspan class="cls-14" x="128.89" y="0">r</tspan><tspan x="132.64" y="0" xml:space="preserve"> 10</tspan><tspan class="cls-9" x="145.72" y="0">0,</tspan><tspan x="155.04" y="0">000 deaths</tspan><tspan x="0" y="13.2">because </tspan><tspan class="cls-10" x="47.22" y="13.2">o</tspan><tspan class="cls-22" x="53.8" y="13.2">f</tspan><tspan x="57.55" y="13.2" xml:space="preserve"> Ce</tspan><tspan class="cls-5" x="75.24" y="13.2">r</tspan><tspan x="79.07" y="13.2">eb</tspan><tspan class="cls-6" x="92.37" y="13.2">r</tspan><tspan class="cls-13" x="96.2" y="13.2">o</tspan><tspan class="cls-17" x="102.74" y="13.2">v</tspan><tspan x="108.64" y="13.2">ascula</tspan><tspan class="cls-8" x="143.21" y="13.2">r</tspan><tspan x="146.63" y="13.2">.</tspan></text><text class="cls-16" transform="translate(137.63 153.73)"><tspan class="cls-20" x="0" y="0">f</tspan><tspan x="3.89" y="0">emale death </tspan><tspan class="cls-18" x="72.24" y="0">r</tspan><tspan x="76.08" y="0">a</tspan><tspan class="cls-7" x="83.01" y="0">t</tspan><tspan x="87.12" y="0">e: </tspan><tspan x="0" y="13.2">16</tspan><tspan class="cls-11" x="9.72" y="13.2">.</tspan><tspan x="12.45" y="13.2">9836</tspan><tspan class="cls-13" x="37.41" y="13.2">6</tspan><tspan class="cls-15" x="43.44" y="13.2">9</tspan><tspan x="49.34" y="13.2">43</tspan></text><text class="cls-16" transform="translate(239 50.29)"><tspan x="0" y="0">male death </tspan><tspan class="cls-21" x="61.97" y="0">r</tspan><tspan x="65.81" y="0">a</tspan><tspan class="cls-12" x="72.74" y="0">t</tspan><tspan x="76.86" y="0">e: </tspan><tspan x="0" y="13.2">1</tspan><tspan class="cls-1" x="3.58" y="13.2">7</tspan><tspan x="8.16" y="13.2">.</tspan><tspan class="cls-4" x="10.93" y="13.2">7</tspan><tspan x="15.87" y="13.2">486215</tspan></text><line class="cls-23" x1="180.1" y1="176.91" x2="192.7" y2="263.04"/><line class="cls-23" x1="263.21" y1="73.43" x2="207.91" y2="133.55"/></g></svg>