<?xml version="1.0" encoding="UTF-8"?><svg id="_图层_2" xmlns="http://www.w3.org/2000/svg" viewBox="0 0 411.76 258.84"><defs><style>.cls-1{fill:#fff;}.cls-2{fill:none;stroke:#241f20;stroke-miterlimit:10;stroke-width:.5px;}</style></defs><g id="_图层_1-2"><path class="cls-1" d="m409.08,102.36c-31.6,127.86-45.06,138.63-167.43,155.72C169.62,268.13-11.8,176.86.61,106.58,15.55,21.88,170.92,49.69,261.73,9.48c64.84-28.71,167.98,9.39,147.35,92.88Z"/><path d="m43.86,90.77v-6.75h.88v6.75h-.88Z"/><path d="m46.39,90.77v-4.75h.82v.73c.32-.55.83-.83,1.51-.83.54,0,.97.17,1.3.52.33.35.49.81.49,1.4v2.93h-.81v-2.8c0-.4-.1-.71-.3-.95-.2-.23-.48-.35-.82-.35-.39,0-.72.16-.98.47s-.39.74-.39,1.27v2.36h-.82Z"/><path d="m58.35,89.98v.79h-4.37v-.32c0-.23.04-.46.11-.67.07-.21.15-.39.24-.54.09-.15.23-.31.42-.49.19-.18.34-.31.45-.4.11-.09.29-.22.54-.4.25-.18.42-.3.5-.36.45-.33.76-.61.94-.83.17-.22.26-.52.26-.89s-.11-.64-.34-.85c-.23-.21-.53-.32-.89-.32s-.72.12-.99.35-.41.56-.41.98h-.84c0-.63.21-1.15.63-1.54.42-.39.95-.59,1.59-.59.6,0,1.09.17,1.49.51.4.34.59.83.59,1.46,0,.48-.12.89-.35,1.23-.23.34-.64.71-1.21,1.13-.11.08-.26.18-.46.32s-.35.25-.46.33c-.11.08-.23.18-.36.3s-.23.24-.3.37c-.07.13-.12.27-.16.42h3.36Z"/><path d="m61.77,90.86c-.7,0-1.28-.24-1.72-.71-.44-.47-.67-1.08-.67-1.83v-1.88c0-.75.22-1.36.67-1.83.45-.47,1.02-.71,1.72-.71s1.27.24,1.72.71c.45.48.67,1.08.67,1.82v1.88c0,.75-.23,1.36-.67,1.83-.45.47-1.02.71-1.72.71Zm0-.8c.47,0,.85-.16,1.14-.47.29-.31.44-.74.44-1.27v-1.88c0-.54-.15-.96-.44-1.27-.29-.31-.67-.47-1.14-.47s-.84.16-1.13.47c-.29.31-.44.73-.44,1.27v1.88c0,.54.15.96.44,1.27.29.31.67.47,1.13.47Z"/><path d="m69.57,89.98v.79h-4.37v-.32c0-.23.04-.46.11-.67.07-.21.15-.39.24-.54.09-.15.23-.31.42-.49.19-.18.34-.31.45-.4.11-.09.29-.22.54-.4.25-.18.42-.3.5-.36.45-.33.76-.61.94-.83.17-.22.26-.52.26-.89s-.11-.64-.34-.85c-.23-.21-.53-.32-.89-.32s-.72.12-.99.35-.41.56-.41.98h-.84c0-.63.21-1.15.63-1.54.42-.39.95-.59,1.59-.59.6,0,1.09.17,1.49.51.4.34.59.83.59,1.46,0,.48-.12.89-.35,1.23-.23.34-.64.71-1.21,1.13-.11.08-.26.18-.46.32s-.35.25-.46.33c-.11.08-.23.18-.36.3s-.23.24-.3.37c-.07.13-.12.27-.16.42h3.36Z"/><path d="m73,90.86c-.7,0-1.28-.24-1.72-.71-.44-.47-.67-1.08-.67-1.83v-1.88c0-.75.22-1.36.67-1.83.45-.47,1.02-.71,1.72-.71s1.27.24,1.72.71c.45.48.67,1.08.67,1.82v1.88c0,.75-.23,1.36-.67,1.83-.45.47-1.02.71-1.72.71Zm0-.8c.47,0,.85-.16,1.14-.47.29-.31.44-.74.44-1.27v-1.88c0-.54-.15-.96-.44-1.27-.29-.31-.67-.47-1.14-.47s-.84.16-1.13.47c-.29.31-.44.73-.44,1.27v1.88c0,.54.15.96.44,1.27.29.31.67.47,1.13.47Z"/><path d="m80.7,90.81c-.44,0-.79-.12-1.06-.37-.27-.25-.4-.61-.4-1.08v-2.59h-1.01v-.75h1.01v-1.32h.82v1.32h1.37v.75h-1.37v2.49c0,.3.06.51.19.63.13.12.33.18.6.18.24,0,.43-.03.58-.1v.73c-.23.08-.47.11-.73.11Z"/><path d="m83.3,90.77h-.82v-7.13h.82v3.11c.32-.55.83-.83,1.51-.83.54,0,.97.17,1.3.52.33.35.49.81.49,1.4v2.93h-.81v-2.8c0-.4-.1-.71-.3-.95-.2-.23-.48-.35-.82-.35-.39,0-.72.16-.98.47s-.39.74-.39,1.27v2.36Z"/><path d="m90.1,90.86c-.69,0-1.26-.23-1.71-.7-.45-.47-.68-1.06-.68-1.77s.22-1.31.66-1.77,1.03-.7,1.75-.7,1.31.26,1.73.78c.42.52.6,1.16.55,1.91h-3.87c.01.43.17.79.47,1.08.3.29.67.43,1.1.43.65,0,1.11-.27,1.38-.8h.84c-.12.44-.38.81-.77,1.1-.39.29-.88.44-1.46.44Zm.93-3.88c-.26-.23-.57-.34-.94-.34s-.7.11-.98.33c-.29.22-.47.55-.54.99h2.97c-.08-.43-.24-.76-.5-.98Z"/><path d="m93.58,90.77v-4.75h.82v.92c.09-.29.26-.53.52-.7s.53-.27.81-.27c.14,0,.26.01.37.04v.85c-.11-.05-.26-.08-.45-.08-.33,0-.62.14-.87.43-.25.29-.38.69-.38,1.21v2.36h-.82Z"/><path d="m98.91,90.86c-.69,0-1.26-.23-1.71-.7-.45-.47-.68-1.06-.68-1.77s.22-1.31.66-1.77,1.03-.7,1.75-.7,1.31.26,1.73.78c.42.52.6,1.16.55,1.91h-3.87c.01.43.17.79.47,1.08.3.29.67.43,1.1.43.65,0,1.11-.27,1.38-.8h.84c-.12.44-.38.81-.77,1.1-.39.29-.88.44-1.46.44Zm.93-3.88c-.26-.23-.57-.34-.94-.34s-.7.11-.98.33c-.29.22-.47.55-.54.99h2.97c-.08-.43-.24-.76-.5-.98Z"/><path d="m108.54,90.77l-1.18-3.41-1.17,3.41h-.72l-1.62-4.75h.86l1.15,3.47,1.19-3.47h.63l1.19,3.47,1.15-3.47h.86l-1.62,4.75h-.72Z"/><path d="m113.77,90.86c-.69,0-1.26-.23-1.71-.7-.45-.47-.68-1.06-.68-1.77s.22-1.31.66-1.77,1.03-.7,1.75-.7,1.31.26,1.73.78c.42.52.6,1.16.55,1.91h-3.87c.01.43.17.79.47,1.08.3.29.67.43,1.1.43.65,0,1.11-.27,1.38-.8h.84c-.12.44-.38.81-.77,1.1-.39.29-.88.44-1.46.44Zm.93-3.88c-.26-.23-.57-.34-.94-.34s-.7.11-.98.33c-.29.22-.47.55-.54.99h2.97c-.08-.43-.24-.76-.5-.98Z"/><path d="m117.25,90.77v-4.75h.82v.92c.09-.29.26-.53.52-.7s.53-.27.81-.27c.14,0,.26.01.37.04v.85c-.11-.05-.26-.08-.45-.08-.33,0-.62.14-.87.43-.25.29-.38.69-.38,1.21v2.36h-.82Z"/><path d="m122.58,90.86c-.69,0-1.26-.23-1.71-.7-.45-.47-.68-1.06-.68-1.77s.22-1.31.66-1.77,1.03-.7,1.75-.7,1.31.26,1.73.78c.42.52.6,1.16.55,1.91h-3.87c.01.43.17.79.47,1.08.3.29.67.43,1.1.43.65,0,1.11-.27,1.38-.8h.84c-.12.44-.38.81-.77,1.1-.39.29-.88.44-1.46.44Zm.93-3.88c-.26-.23-.57-.34-.94-.34s-.7.11-.98.33c-.29.22-.47.55-.54.99h2.97c-.08-.43-.24-.76-.5-.98Z"/><path d="m132.42,89.98v.79h-4.37v-.32c0-.23.04-.46.11-.67.07-.21.15-.39.24-.54.09-.15.23-.31.42-.49.19-.18.34-.31.45-.4.11-.09.29-.22.54-.4.25-.18.42-.3.5-.36.45-.33.76-.61.94-.83.17-.22.26-.52.26-.89s-.11-.64-.34-.85c-.23-.21-.53-.32-.89-.32s-.72.12-.99.35-.41.56-.41.98h-.84c0-.63.21-1.15.63-1.54.42-.39.95-.59,1.59-.59.6,0,1.09.17,1.49.51.4.34.59.83.59,1.46,0,.48-.12.89-.35,1.23-.23.34-.64.71-1.21,1.13-.11.08-.26.18-.46.32s-.35.25-.46.33c-.11.08-.23.18-.36.3s-.23.24-.3.37c-.07.13-.12.27-.16.42h3.36Z"/><path d="m137.72,89.98v.79h-4.37v-.32c0-.23.04-.46.11-.67.07-.21.15-.39.24-.54.09-.15.23-.31.42-.49.19-.18.34-.31.45-.4.11-.09.29-.22.54-.4.25-.18.42-.3.5-.36.45-.33.76-.61.94-.83.17-.22.26-.52.26-.89s-.11-.64-.34-.85c-.23-.21-.53-.32-.89-.32s-.72.12-.99.35-.41.56-.41.98h-.84c0-.63.21-1.15.63-1.54.42-.39.95-.59,1.59-.59.6,0,1.09.17,1.49.51.4.34.59.83.59,1.46,0,.48-.12.89-.35,1.23-.23.34-.64.71-1.21,1.13-.11.08-.26.18-.46.32s-.35.25-.46.33c-.11.08-.23.18-.36.3s-.23.24-.3.37c-.07.13-.12.27-.16.42h3.36Z"/><path d="m141.01,90.86c-.67,0-1.24-.2-1.71-.61s-.7-.92-.7-1.54h.83c.03.4.19.72.48.97.3.25.66.38,1.09.38.39,0,.72-.11.98-.32s.39-.51.39-.89c0-.41-.13-.71-.39-.91-.26-.2-.62-.3-1.08-.3h-.5v-.75h.54c.36,0,.66-.1.89-.3.23-.2.35-.47.36-.79,0-.32-.12-.58-.35-.78s-.52-.3-.87-.3c-.4,0-.74.12-1.01.35s-.41.56-.41.98h-.84c0-.65.22-1.16.65-1.55.43-.39.97-.58,1.61-.58.59,0,1.08.17,1.47.51.39.34.58.79.58,1.35,0,.32-.09.61-.26.87-.17.26-.38.46-.65.6.34.14.61.35.81.64.2.29.29.62.29,1,0,.59-.21,1.07-.62,1.44-.41.37-.94.55-1.59.55Z"/><path d="m145.4,90.63c-.14.14-.3.21-.5.21s-.36-.07-.5-.21c-.14-.14-.2-.31-.2-.5s.07-.36.21-.5.3-.21.49-.21.36.07.49.21c.14.14.21.31.21.5s-.07.36-.21.5Z"/><path d="m148.92,90.86c-.67,0-1.24-.2-1.71-.61s-.7-.92-.7-1.54h.83c.03.4.19.72.48.97.3.25.66.38,1.09.38.39,0,.72-.11.98-.32s.39-.51.39-.89c0-.41-.13-.71-.39-.91-.26-.2-.62-.3-1.08-.3h-.5v-.75h.54c.36,0,.66-.1.89-.3.23-.2.35-.47.36-.79,0-.32-.12-.58-.35-.78s-.52-.3-.87-.3c-.4,0-.74.12-1.01.35s-.41.56-.41.98h-.84c0-.65.22-1.16.65-1.55.43-.39.97-.58,1.61-.58.59,0,1.08.17,1.47.51.39.34.58.79.58,1.35,0,.32-.09.61-.26.87-.17.26-.38.46-.65.6.34.14.61.35.81.64.2.29.29.62.29,1,0,.59-.21,1.07-.62,1.44-.41.37-.94.55-1.59.55Z"/><path d="m155.49,92.75h-.82v-6.74h.82v.73c.17-.24.4-.44.7-.59.3-.15.62-.23.97-.23.66,0,1.21.24,1.66.72.45.48.67,1.06.67,1.75s-.22,1.27-.67,1.75c-.45.48-1,.72-1.66.72-.35,0-.67-.08-.97-.23s-.53-.35-.7-.59v2.72Zm.39-3.14c.3.33.69.49,1.16.49s.86-.16,1.16-.49c.3-.33.46-.74.46-1.23s-.15-.9-.46-1.23c-.3-.33-.69-.49-1.16-.49s-.86.17-1.16.49c-.3.33-.46.74-.46,1.23s.15.9.46,1.23Z"/><path d="m162.69,90.86c-.69,0-1.26-.23-1.71-.7-.45-.47-.68-1.06-.68-1.77s.22-1.31.66-1.77,1.03-.7,1.75-.7,1.31.26,1.73.78c.42.52.6,1.16.55,1.91h-3.87c.01.43.17.79.47,1.08.3.29.67.43,1.1.43.65,0,1.11-.27,1.38-.8h.84c-.12.44-.38.81-.77,1.1-.39.29-.88.44-1.46.44Zm.93-3.88c-.26-.23-.57-.34-.94-.34s-.7.11-.98.33c-.29.22-.47.55-.54.99h2.97c-.08-.43-.24-.76-.5-.98Z"/><path d="m166.17,90.77v-4.75h.82v.92c.09-.29.26-.53.52-.7s.53-.27.81-.27c.14,0,.26.01.37.04v.85c-.11-.05-.26-.08-.45-.08-.33,0-.62.14-.87.43-.25.29-.38.69-.38,1.21v2.36h-.82Z"/><path d="m172.31,90.77v-5.94h-1.3l.67-.81h1.45v6.75h-.82Z"/><path d="m176.98,90.86c-.7,0-1.28-.24-1.72-.71-.44-.47-.67-1.08-.67-1.83v-1.88c0-.75.22-1.36.67-1.83.45-.47,1.02-.71,1.72-.71s1.27.24,1.72.71c.45.48.67,1.08.67,1.82v1.88c0,.75-.23,1.36-.67,1.83-.45.47-1.02.71-1.72.71Zm0-.8c.47,0,.85-.16,1.14-.47.29-.31.44-.74.44-1.27v-1.88c0-.54-.15-.96-.44-1.27-.29-.31-.67-.47-1.14-.47s-.84.16-1.13.47c-.29.31-.44.73-.44,1.27v1.88c0,.54.15.96.44,1.27.29.31.67.47,1.13.47Z"/><path d="m182.9,90.86c-.7,0-1.28-.24-1.72-.71-.44-.47-.67-1.08-.67-1.83v-1.88c0-.75.22-1.36.67-1.83.45-.47,1.02-.71,1.72-.71s1.27.24,1.72.71c.45.48.67,1.08.67,1.82v1.88c0,.75-.23,1.36-.67,1.83-.45.47-1.02.71-1.72.71Zm0-.8c.47,0,.85-.16,1.14-.47.29-.31.44-.74.44-1.27v-1.88c0-.54-.15-.96-.44-1.27-.29-.31-.67-.47-1.14-.47s-.84.16-1.13.47c-.29.31-.44.73-.44,1.27v1.88c0,.54.15.96.44,1.27.29.31.67.47,1.13.47Z"/><path d="m187.5,90.56l-.98,1.57h-.54l.64-1.36c-.26-.13-.39-.34-.39-.64,0-.19.07-.36.21-.5.14-.14.3-.21.49-.21s.35.07.49.21.21.31.21.5c0,.14-.04.28-.13.43Z"/><path d="m190.95,90.86c-.7,0-1.28-.24-1.72-.71-.44-.47-.67-1.08-.67-1.83v-1.88c0-.75.22-1.36.67-1.83.45-.47,1.02-.71,1.72-.71s1.27.24,1.72.71c.45.48.67,1.08.67,1.82v1.88c0,.75-.23,1.36-.67,1.83-.45.47-1.02.71-1.72.71Zm0-.8c.47,0,.85-.16,1.14-.47.29-.31.44-.74.44-1.27v-1.88c0-.54-.15-.96-.44-1.27-.29-.31-.67-.47-1.14-.47s-.84.16-1.13.47c-.29.31-.44.73-.44,1.27v1.88c0,.54.15.96.44,1.27.29.31.67.47,1.13.47Z"/><path d="m196.87,90.86c-.7,0-1.28-.24-1.72-.71-.44-.47-.67-1.08-.67-1.83v-1.88c0-.75.22-1.36.67-1.83.45-.47,1.02-.71,1.72-.71s1.27.24,1.72.71c.45.48.67,1.08.67,1.82v1.88c0,.75-.23,1.36-.67,1.83-.45.47-1.02.71-1.72.71Zm0-.8c.47,0,.85-.16,1.14-.47.29-.31.44-.74.44-1.27v-1.88c0-.54-.15-.96-.44-1.27-.29-.31-.67-.47-1.14-.47s-.84.16-1.13.47c-.29.31-.44.73-.44,1.27v1.88c0,.54.15.96.44,1.27.29.31.67.47,1.13.47Z"/><path d="m202.79,90.86c-.7,0-1.28-.24-1.72-.71-.44-.47-.67-1.08-.67-1.83v-1.88c0-.75.22-1.36.67-1.83.45-.47,1.02-.71,1.72-.71s1.27.24,1.72.71c.45.48.67,1.08.67,1.82v1.88c0,.75-.23,1.36-.67,1.83-.45.47-1.02.71-1.72.71Zm0-.8c.47,0,.85-.16,1.14-.47.29-.31.44-.74.44-1.27v-1.88c0-.54-.15-.96-.44-1.27-.29-.31-.67-.47-1.14-.47s-.84.16-1.13.47c-.29.31-.44.73-.44,1.27v1.88c0,.54.15.96.44,1.27.29.31.67.47,1.13.47Z"/><path d="m210.77,90.86c-.66,0-1.21-.24-1.66-.72-.45-.48-.67-1.06-.67-1.75s.22-1.27.67-1.75,1-.72,1.66-.72c.35,0,.67.08.97.23.3.16.53.35.7.59v-3.11h.82v7.13h-.82v-.73c-.16.24-.4.44-.7.59s-.63.23-.97.23Zm.12-.75c.47,0,.86-.16,1.16-.49.3-.33.46-.74.46-1.23s-.15-.9-.46-1.23c-.3-.33-.69-.49-1.16-.49s-.87.17-1.17.49c-.3.33-.46.74-.46,1.23s.15.9.46,1.23c.3.33.69.49,1.17.49Z"/><path d="m216.83,90.86c-.69,0-1.26-.23-1.71-.7-.45-.47-.68-1.06-.68-1.77s.22-1.31.66-1.77,1.03-.7,1.75-.7,1.31.26,1.73.78c.42.52.6,1.16.55,1.91h-3.87c.01.43.17.79.47,1.08.3.29.67.43,1.1.43.65,0,1.11-.27,1.38-.8h.84c-.12.44-.38.81-.77,1.1-.39.29-.88.44-1.46.44Zm.93-3.88c-.26-.23-.57-.34-.94-.34s-.7.11-.98.33c-.29.22-.47.55-.54.99h2.97c-.08-.43-.24-.76-.5-.98Z"/><path d="m222.26,90.86c-.66,0-1.21-.24-1.66-.72-.45-.48-.67-1.06-.67-1.75s.22-1.27.67-1.75,1-.72,1.66-.72c.35,0,.67.08.97.23.3.16.53.35.7.59v-.73h.82v4.75h-.82v-.73c-.16.24-.4.44-.7.59s-.63.23-.97.23Zm.12-.75c.47,0,.86-.16,1.16-.49.3-.33.46-.74.46-1.23s-.15-.9-.46-1.23c-.3-.33-.69-.49-1.16-.49s-.87.17-1.17.49c-.3.33-.46.74-.46,1.23s.15.9.46,1.23c.3.33.69.49,1.17.49Z"/><path d="m228.14,90.81c-.44,0-.79-.12-1.06-.37-.27-.25-.4-.61-.4-1.08v-2.59h-1.01v-.75h1.01v-1.32h.82v1.32h1.37v.75h-1.37v2.49c0,.3.06.51.19.63.13.12.33.18.6.18.24,0,.43-.03.58-.1v.73c-.23.08-.47.11-.73.11Z"/><path d="m230.73,90.77h-.82v-7.13h.82v3.11c.32-.55.83-.83,1.51-.83.54,0,.97.17,1.3.52.33.35.49.81.49,1.4v2.93h-.81v-2.8c0-.4-.1-.71-.3-.95-.2-.23-.48-.35-.82-.35-.39,0-.72.16-.98.47s-.39.74-.39,1.27v2.36Z"/><path d="m237.04,90.86c-.53,0-.98-.13-1.33-.39-.36-.26-.56-.62-.59-1.08h.84c.05.27.18.46.38.59.21.13.45.19.72.19s.49-.05.66-.16c.17-.11.25-.26.25-.47,0-.19-.06-.35-.18-.47-.12-.12-.33-.22-.6-.29l-.68-.18c-.82-.22-1.23-.68-1.23-1.4,0-.39.15-.7.46-.93.31-.23.7-.35,1.18-.35s.89.13,1.2.39c.31.26.49.58.53.97h-.82c-.06-.21-.18-.37-.34-.49-.16-.12-.35-.18-.58-.18-.23,0-.43.05-.58.16-.16.11-.23.25-.23.43s.06.31.17.42c.11.11.3.2.55.27l.76.2c.81.2,1.22.67,1.22,1.41,0,.46-.16.8-.48,1.03-.32.23-.75.35-1.26.35Z"/><path d="m46.23,102.27c-.35,0-.67-.08-.97-.23s-.53-.35-.7-.59v.73h-.82v-7.13h.82v3.11c.17-.24.4-.44.7-.59.3-.15.62-.23.97-.23.66,0,1.21.24,1.66.72.45.48.67,1.06.67,1.75s-.22,1.27-.67,1.75c-.45.48-1,.72-1.66.72Zm-1.28-1.25c.3.33.69.49,1.16.49s.86-.16,1.16-.49c.3-.33.46-.74.46-1.23s-.15-.9-.46-1.23c-.3-.33-.69-.49-1.16-.49s-.86.17-1.16.49c-.3.33-.46.74-.46,1.23s.15.9.46,1.23Z"/><path d="m51.75,102.27c-.69,0-1.26-.23-1.71-.7-.45-.47-.68-1.06-.68-1.77s.22-1.31.66-1.77,1.03-.7,1.75-.7,1.31.26,1.73.78c.42.52.6,1.16.55,1.91h-3.87c.01.43.17.79.47,1.08.3.29.67.43,1.1.43.65,0,1.11-.27,1.38-.8h.84c-.12.44-.38.81-.77,1.1-.39.29-.88.44-1.46.44Zm.93-3.88c-.26-.23-.57-.34-.94-.34s-.7.11-.98.33c-.29.22-.47.55-.54.99h2.97c-.08-.43-.24-.76-.5-.98Z"/><path d="m57.34,102.27c-.72,0-1.31-.24-1.78-.72s-.7-1.06-.7-1.75.23-1.28.7-1.75,1.06-.72,1.78-.72c.59,0,1.1.16,1.53.49s.72.75.87,1.28h-.88c-.11-.31-.3-.56-.57-.74-.27-.18-.58-.28-.95-.28-.49,0-.89.17-1.19.49-.31.33-.46.74-.46,1.23s.15.9.46,1.23c.31.33.7.49,1.19.49.37,0,.68-.09.95-.28.27-.18.46-.43.57-.74h.88c-.14.53-.42.95-.86,1.28-.43.33-.94.49-1.54.49Z"/><path d="m62.78,102.27c-.66,0-1.21-.24-1.66-.72-.45-.48-.67-1.06-.67-1.75s.22-1.27.67-1.75,1-.72,1.66-.72c.35,0,.67.08.97.23.3.16.53.35.7.59v-.73h.82v4.75h-.82v-.73c-.16.24-.4.44-.7.59s-.63.23-.97.23Zm.12-.75c.47,0,.86-.16,1.16-.49.3-.33.46-.74.46-1.23s-.15-.9-.46-1.23c-.3-.33-.69-.49-1.16-.49s-.87.17-1.17.49c-.3.33-.46.74-.46,1.23s.15.9.46,1.23c.3.33.69.49,1.17.49Z"/><path d="m68.49,102.27c-.52,0-.94-.18-1.26-.53-.32-.35-.49-.82-.49-1.4v-2.92h.82v2.79c0,.4.1.72.29.95s.46.35.78.35c.38,0,.7-.16.95-.47.25-.31.38-.74.38-1.27v-2.36h.82v4.75h-.82v-.73c-.31.55-.8.83-1.46.83Z"/><path d="m73.84,102.27c-.53,0-.98-.13-1.33-.39-.36-.26-.56-.62-.59-1.08h.84c.05.27.18.46.38.59.21.13.45.19.72.19s.49-.05.66-.16c.17-.11.25-.26.25-.47,0-.19-.06-.35-.18-.47-.12-.12-.33-.22-.6-.29l-.68-.18c-.82-.22-1.23-.68-1.23-1.4,0-.39.15-.7.46-.93.31-.23.7-.35,1.18-.35s.89.13,1.2.39c.31.26.49.58.53.97h-.82c-.06-.21-.18-.37-.34-.49-.16-.12-.35-.18-.58-.18-.23,0-.43.05-.58.16-.16.11-.23.25-.23.43s.06.31.17.42c.11.11.3.2.55.27l.76.2c.81.2,1.22.67,1.22,1.41,0,.46-.16.8-.48,1.03-.32.23-.75.35-1.26.35Z"/><path d="m78.77,102.27c-.69,0-1.26-.23-1.71-.7-.45-.47-.68-1.06-.68-1.77s.22-1.31.66-1.77,1.03-.7,1.75-.7,1.31.26,1.73.78c.42.52.6,1.16.55,1.91h-3.87c.01.43.17.79.47,1.08.3.29.67.43,1.1.43.65,0,1.11-.27,1.38-.8h.84c-.12.44-.38.81-.77,1.1-.39.29-.88.44-1.46.44Zm.93-3.88c-.26-.23-.57-.34-.94-.34s-.7.11-.98.33c-.29.22-.47.55-.54.99h2.97c-.08-.43-.24-.76-.5-.98Z"/><path d="m86.65,102.27c-.72,0-1.31-.24-1.78-.72s-.71-1.06-.71-1.75.24-1.28.71-1.75,1.07-.72,1.78-.72,1.3.24,1.77.72c.47.48.71,1.06.71,1.75s-.24,1.27-.71,1.75c-.47.48-1.06.72-1.77.72Zm-1.19-1.25c.31.33.7.49,1.19.49s.88-.16,1.19-.49c.3-.33.46-.73.46-1.22s-.15-.89-.46-1.22c-.3-.33-.7-.49-1.19-.49s-.89.16-1.19.49c-.31.33-.46.73-.46,1.22s.15.89.46,1.22Z"/><path d="m90.63,102.17v-4h-1.01v-.75h1.01v-.96c0-.48.13-.84.4-1.09.27-.25.62-.38,1.05-.38.26,0,.51.04.74.12v.72c-.15-.06-.34-.09-.59-.09-.27,0-.47.06-.6.18-.13.12-.19.33-.19.63v.87h1.38v.75h-1.38v4h-.82Z"/><path d="m98.92,102.29c-.99,0-1.83-.33-2.49-1-.67-.67-1-1.5-1-2.49s.33-1.82,1-2.49c.67-.67,1.5-1,2.49-1,.81,0,1.51.23,2.11.68.59.46.97,1.01,1.13,1.65h-.93c-.16-.44-.45-.8-.86-1.08s-.9-.42-1.44-.42c-.75,0-1.37.25-1.87.77-.5.51-.75,1.14-.75,1.89s.25,1.38.75,1.89c.5.51,1.12.77,1.87.77.54,0,1.03-.14,1.44-.42.42-.28.7-.64.86-1.08h.93c-.16.65-.53,1.2-1.13,1.65s-1.29.68-2.11.68Z"/><path d="m106.39,102.29c-.97,0-1.79-.34-2.47-1.01-.68-.67-1.02-1.5-1.02-2.48s.34-1.8,1.02-2.48c.68-.67,1.5-1.01,2.47-1.01s1.8.34,2.48,1.01,1.01,1.5,1.01,2.48-.34,1.8-1.01,2.48c-.67.68-1.5,1.01-2.48,1.01Zm0-.84c.74,0,1.36-.26,1.86-.77.5-.51.75-1.14.75-1.88s-.25-1.37-.75-1.88c-.5-.51-1.12-.77-1.86-.77s-1.35.26-1.85.77c-.5.51-.75,1.14-.75,1.88s.25,1.37.75,1.88c.5.51,1.11.77,1.85.77Z"/><path d="m113.08,102.17l-2.88-6.75h.98l2.27,5.37,2.28-5.37h.96l-2.87,6.75h-.74Z"/><path d="m117.68,102.17v-6.75h.88v6.75h-.88Z"/><path d="m120.35,102.17v-6.75h1.94c1.03,0,1.89.32,2.57.96.68.64,1.02,1.44,1.02,2.41s-.34,1.77-1.02,2.41c-.68.64-1.54.96-2.57.96h-1.94Zm.88-.83h1.05c.8,0,1.46-.24,1.95-.72.5-.48.75-1.09.75-1.83s-.25-1.35-.75-1.83c-.5-.48-1.15-.72-1.95-.72h-1.05v5.09Z"/><path d="m126.93,99.92v-.82h2.42v.82h-2.42Z"/><path d="m131.02,102.17v-5.94h-1.3l.67-.81h1.45v6.75h-.82Z"/><path d="m133.44,102.17l2.08-2.45c-.07,0-.16,0-.27,0-.56,0-1.06-.22-1.48-.65-.42-.43-.63-.94-.63-1.52,0-.63.22-1.17.65-1.6.43-.43.98-.65,1.63-.65s1.2.22,1.63.65c.44.43.66.96.66,1.58,0,.33-.07.63-.19.89-.13.26-.32.54-.57.83l-2.47,2.92h-1.05Zm.96-3.59c.28.28.62.42,1.03.42s.76-.14,1.04-.42c.28-.28.42-.63.42-1.03s-.14-.75-.42-1.03c-.28-.28-.62-.42-1.04-.42s-.75.14-1.03.42c-.28.28-.41.63-.41,1.03s.14.75.41,1.03Z"/><path d="m138.96,102.04c-.14.14-.3.21-.5.21s-.36-.07-.5-.21c-.14-.14-.2-.31-.2-.5s.07-.36.21-.5.3-.21.49-.21.36.07.49.21c.14.14.21.31.21.5s-.07.36-.21.5Z"/><path d="m130.4,201.47h-.67c-.81-1.48-1.22-3-1.22-4.56s.41-3.09,1.22-4.56h.67c-.77,1.49-1.15,3.01-1.15,4.56s.38,3.07,1.15,4.56Z"/><path d="m133.24,200.05c-.61,0-1.13-.19-1.58-.57-.44-.38-.67-.83-.68-1.35h.84c.08.33.24.6.5.81s.57.31.92.31c.41,0,.76-.14,1.04-.42.28-.28.42-.62.42-1.03s-.13-.76-.4-1.04c-.27-.28-.61-.42-1.02-.42-.56,0-.99.23-1.27.68l-.78-.23.69-3.6h3.16v.8h-2.5l-.37,1.93c.33-.23.72-.35,1.18-.35.63,0,1.14.22,1.54.66s.6,1,.6,1.67c0,.6-.22,1.1-.66,1.52s-.98.62-1.63.62Z"/><path d="m137.27,199.95v-5.94h-1.3l.67-.81h1.45v6.75h-.82Z"/><path d="m141.16,196.87c-.52,0-.96-.18-1.33-.55-.36-.37-.55-.81-.55-1.32s.18-.96.55-1.33.81-.55,1.33-.55.95.18,1.32.55c.37.36.55.81.55,1.33s-.18.95-.55,1.32c-.37.37-.81.55-1.32.55Zm0-.74c.3,0,.57-.11.79-.34.22-.23.33-.49.33-.79s-.11-.57-.33-.79c-.22-.23-.49-.34-.79-.34s-.58.11-.8.33c-.21.22-.32.49-.32.8s.11.58.32.8c.22.22.48.33.8.33Zm.84,3.82h-.88l4.28-6.75h.88l-4.28,6.75Zm4.23.08c-.52,0-.96-.18-1.33-.55-.36-.37-.55-.81-.55-1.32s.18-.96.55-1.33c.36-.36.81-.55,1.33-.55s.95.18,1.32.55c.37.36.55.81.55,1.33s-.18.95-.55,1.32c-.37.37-.81.55-1.32.55Zm0-.74c.3,0,.57-.11.79-.34.22-.22.33-.49.33-.79s-.11-.57-.33-.79c-.22-.23-.48-.34-.79-.34s-.58.11-.8.33c-.22.22-.32.49-.32.8s.11.58.32.8c.21.22.48.33.8.33Z"/><path d="m149.34,201.47h-.67c.77-1.49,1.15-3.01,1.15-4.56s-.38-3.07-1.15-4.56h.67c.81,1.48,1.22,3,1.22,4.56s-.41,3.09-1.22,4.56Z"/><path d="m157.93,199.95l-1.18-3.41-1.17,3.41h-.72l-1.62-4.75h.86l1.15,3.47,1.19-3.47h.63l1.19,3.47,1.15-3.47h.86l-1.62,4.75h-.72Z"/><path d="m163.15,200.05c-.69,0-1.26-.23-1.71-.7-.45-.47-.68-1.06-.68-1.77s.22-1.31.66-1.77,1.03-.7,1.75-.7,1.31.26,1.73.78c.42.52.6,1.16.55,1.91h-3.87c.01.43.17.79.47,1.08.3.29.67.43,1.1.43.65,0,1.11-.27,1.38-.8h.84c-.12.44-.38.81-.77,1.1-.39.29-.88.44-1.46.44Zm.93-3.88c-.26-.23-.57-.34-.94-.34s-.7.11-.98.33c-.29.22-.47.55-.54.99h2.97c-.08-.43-.24-.76-.5-.98Z"/><path d="m166.63,199.95v-4.75h.82v.92c.09-.29.26-.53.52-.7s.53-.27.81-.27c.14,0,.26.01.37.04v.85c-.11-.05-.26-.08-.45-.08-.33,0-.62.14-.87.43-.25.29-.38.69-.38,1.21v2.36h-.82Z"/><path d="m171.96,200.05c-.69,0-1.26-.23-1.71-.7-.45-.47-.68-1.06-.68-1.77s.22-1.31.66-1.77,1.03-.7,1.75-.7,1.31.26,1.73.78c.42.52.6,1.16.55,1.91h-3.87c.01.43.17.79.47,1.08.3.29.67.43,1.1.43.65,0,1.11-.27,1.38-.8h.84c-.12.44-.38.81-.77,1.1-.39.29-.88.44-1.46.44Zm.93-3.88c-.26-.23-.57-.34-.94-.34s-.7.11-.98.33c-.29.22-.47.55-.54.99h2.97c-.08-.43-.24-.76-.5-.98Z"/><path d="m178.01,199.95v-4h-1.01v-.75h1.01v-.96c0-.48.13-.84.4-1.09.27-.25.62-.38,1.05-.38.26,0,.51.04.74.12v.72c-.15-.06-.34-.09-.59-.09-.27,0-.47.06-.6.18-.13.12-.19.33-.19.63v.87h1.38v.75h-1.38v4h-.82Z"/><path d="m183,200.05c-.69,0-1.26-.23-1.71-.7-.45-.47-.68-1.06-.68-1.77s.22-1.31.66-1.77,1.03-.7,1.75-.7,1.31.26,1.73.78c.42.52.6,1.16.55,1.91h-3.87c.01.43.17.79.47,1.08.3.29.67.43,1.1.43.65,0,1.11-.27,1.38-.8h.84c-.12.44-.38.81-.77,1.1-.39.29-.88.44-1.46.44Zm.93-3.88c-.26-.23-.57-.34-.94-.34s-.7.11-.98.33c-.29.22-.47.55-.54.99h2.97c-.08-.43-.24-.76-.5-.98Z"/><path d="m192.6,199.95v-2.79c0-.39-.08-.71-.24-.95-.16-.24-.39-.36-.7-.36-.38,0-.69.15-.93.45s-.36.7-.38,1.22v2.43h-.82v-2.79c0-.4-.08-.72-.24-.95-.16-.23-.39-.35-.69-.35-.39,0-.71.16-.95.47-.24.31-.36.74-.36,1.27v2.36h-.82v-4.75h.82v.73c.3-.55.78-.83,1.44-.83.72,0,1.21.34,1.46,1.02.13-.31.33-.56.61-.74.28-.18.6-.28.95-.28.51,0,.92.17,1.22.52.3.35.45.82.45,1.41v2.92h-.82Z"/><path d="m196.85,200.05c-.66,0-1.21-.24-1.66-.72-.45-.48-.67-1.06-.67-1.75s.22-1.27.67-1.75,1-.72,1.66-.72c.35,0,.67.08.97.23.3.16.53.35.7.59v-.73h.82v4.75h-.82v-.73c-.16.24-.4.44-.7.59s-.63.23-.97.23Zm.12-.75c.47,0,.86-.16,1.16-.49.3-.33.46-.74.46-1.23s-.15-.9-.46-1.23c-.3-.33-.69-.49-1.16-.49s-.87.17-1.17.49c-.3.33-.46.74-.46,1.23s.15.9.46,1.23c.3.33.69.49,1.17.49Z"/><path d="m200.88,199.95v-7.13h.82v7.13h-.82Z"/><path d="m205.27,200.05c-.69,0-1.26-.23-1.71-.7-.45-.47-.68-1.06-.68-1.77s.22-1.31.66-1.77,1.03-.7,1.75-.7,1.31.26,1.73.78c.42.52.6,1.16.55,1.91h-3.87c.01.43.17.79.47,1.08.3.29.67.43,1.1.43.65,0,1.11-.27,1.38-.8h.84c-.12.44-.38.81-.77,1.1-.39.29-.88.44-1.46.44Zm.93-3.88c-.26-.23-.57-.34-.94-.34s-.7.11-.98.33c-.29.22-.47.55-.54.99h2.97c-.08-.43-.24-.76-.5-.98Z"/><path d="m302.19,70.78h-.67c-.81-1.48-1.22-3-1.22-4.56s.41-3.09,1.22-4.56h.67c-.77,1.49-1.15,3.01-1.15,4.56s.38,3.07,1.15,4.56Z"/><path d="m305.98,69.26v-1.83h-3.59v-.66l3.7-4.26h.71v4.14h.93v.77h-.93v1.83h-.82Zm-2.53-2.6h2.53v-2.91l-2.53,2.91Z"/><path d="m308.66,69.26l2.08-2.45c-.07,0-.16,0-.27,0-.56,0-1.06-.22-1.48-.65-.42-.43-.63-.94-.63-1.52,0-.63.22-1.17.65-1.6.43-.43.98-.65,1.63-.65s1.2.22,1.63.65c.44.43.66.96.66,1.58,0,.33-.07.63-.19.89-.13.26-.32.54-.57.83l-2.47,2.92h-1.05Zm.96-3.59c.28.28.62.42,1.03.42s.76-.14,1.04-.42c.28-.28.42-.63.42-1.03s-.14-.75-.42-1.03c-.28-.28-.62-.42-1.04-.42s-.75.14-1.03.42c-.28.28-.41.63-.41,1.03s.14.75.41,1.03Z"/><path d="m315.45,66.18c-.52,0-.96-.18-1.33-.55-.36-.37-.55-.81-.55-1.32s.18-.96.55-1.33.81-.55,1.33-.55.95.18,1.32.55c.37.36.55.81.55,1.33s-.18.95-.55,1.32c-.37.37-.81.55-1.32.55Zm0-.74c.3,0,.57-.11.79-.34.22-.23.33-.49.33-.79s-.11-.57-.33-.79c-.22-.23-.49-.34-.79-.34s-.58.11-.8.33c-.21.22-.32.49-.32.8s.11.58.32.8c.22.22.48.33.8.33Zm.84,3.82h-.88l4.28-6.75h.88l-4.28,6.75Zm4.23.08c-.52,0-.96-.18-1.33-.55-.36-.37-.55-.81-.55-1.32s.18-.96.55-1.33c.36-.36.81-.55,1.33-.55s.95.18,1.32.55c.37.36.55.81.55,1.33s-.18.95-.55,1.32c-.37.37-.81.55-1.32.55Zm0-.74c.3,0,.57-.11.79-.34.22-.22.33-.49.33-.79s-.11-.57-.33-.79c-.22-.23-.48-.34-.79-.34s-.58.11-.8.33c-.22.22-.32.49-.32.8s.11.58.32.8c.21.22.48.33.8.33Z"/><path d="m323.63,70.78h-.67c.77-1.49,1.15-3.01,1.15-4.56s-.38-3.07-1.15-4.56h.67c.81,1.48,1.22,3,1.22,4.56s-.41,3.09-1.22,4.56Z"/><path d="m332.22,69.26l-1.18-3.41-1.17,3.41h-.72l-1.62-4.75h.86l1.15,3.47,1.19-3.47h.63l1.19,3.47,1.15-3.47h.86l-1.62,4.75h-.72Z"/><path d="m337.44,69.35c-.69,0-1.26-.23-1.71-.7-.45-.47-.68-1.06-.68-1.77s.22-1.31.66-1.77,1.03-.7,1.75-.7,1.31.26,1.73.78c.42.52.6,1.16.55,1.91h-3.87c.01.43.17.79.47,1.08.3.29.67.43,1.1.43.65,0,1.11-.27,1.38-.8h.84c-.12.44-.38.81-.77,1.1-.39.29-.88.44-1.46.44Zm.93-3.88c-.26-.23-.57-.34-.94-.34s-.7.11-.98.33c-.29.22-.47.55-.54.99h2.97c-.08-.43-.24-.76-.5-.98Z"/><path d="m340.92,69.26v-4.75h.82v.92c.09-.29.26-.53.52-.7s.53-.27.81-.27c.14,0,.26.01.37.04v.85c-.11-.05-.26-.08-.45-.08-.33,0-.62.14-.87.43-.25.29-.38.69-.38,1.21v2.36h-.82Z"/><path d="m346.25,69.35c-.69,0-1.26-.23-1.71-.7-.45-.47-.68-1.06-.68-1.77s.22-1.31.66-1.77,1.03-.7,1.75-.7,1.31.26,1.73.78c.42.52.6,1.16.55,1.91h-3.87c.01.43.17.79.47,1.08.3.29.67.43,1.1.43.65,0,1.11-.27,1.38-.8h.84c-.12.44-.38.81-.77,1.1-.39.29-.88.44-1.46.44Zm.93-3.88c-.26-.23-.57-.34-.94-.34s-.7.11-.98.33c-.29.22-.47.55-.54.99h2.97c-.08-.43-.24-.76-.5-.98Z"/><path d="m358.14,69.26v-2.79c0-.39-.08-.71-.24-.95-.16-.24-.39-.36-.7-.36-.38,0-.69.15-.93.45s-.36.7-.38,1.22v2.43h-.82v-2.79c0-.4-.08-.72-.24-.95-.16-.23-.39-.35-.69-.35-.39,0-.71.16-.95.47-.24.31-.36.74-.36,1.27v2.36h-.82v-4.75h.82v.73c.3-.55.78-.83,1.44-.83.72,0,1.21.34,1.46,1.02.13-.31.33-.56.61-.74.28-.18.6-.28.95-.28.51,0,.92.17,1.22.52.3.35.45.82.45,1.41v2.92h-.82Z"/><path d="m362.39,69.35c-.66,0-1.21-.24-1.66-.72-.45-.48-.67-1.06-.67-1.75s.22-1.27.67-1.75,1-.72,1.66-.72c.35,0,.67.08.97.23.3.16.53.35.7.59v-.73h.82v4.75h-.82v-.73c-.16.24-.4.44-.7.59s-.63.23-.97.23Zm.12-.75c.47,0,.86-.16,1.16-.49.3-.33.46-.74.46-1.23s-.15-.9-.46-1.23c-.3-.33-.69-.49-1.16-.49s-.87.17-1.17.49c-.3.33-.46.74-.46,1.23s.15.9.46,1.23c.3.33.69.49,1.17.49Z"/><path d="m366.42,69.26v-7.13h.82v7.13h-.82Z"/><path d="m370.81,69.35c-.69,0-1.26-.23-1.71-.7-.45-.47-.68-1.06-.68-1.77s.22-1.31.66-1.77,1.03-.7,1.75-.7,1.31.26,1.73.78c.42.52.6,1.16.55,1.91h-3.87c.01.43.17.79.47,1.08.3.29.67.43,1.1.43.65,0,1.11-.27,1.38-.8h.84c-.12.44-.38.81-.77,1.1-.39.29-.88.44-1.46.44Zm.93-3.88c-.26-.23-.57-.34-.94-.34s-.7.11-.98.33c-.29.22-.47.55-.54.99h2.97c-.08-.43-.24-.76-.5-.98Z"/><line class="cls-2" x1="137.66" y1="113.39" x2="146.17" y2="179.6"/><line class="cls-2" x1="336.28" y1="84.45" x2="216.03" y2="184.46"/></g></svg>