<?xml version="1.0" encoding="UTF-8"?><svg id="_图层_1" xmlns="http://www.w3.org/2000/svg" xmlns:xlink="http://www.w3.org/1999/xlink" viewBox="0 0 136.6 71.07"><defs><style>.cls-1{fill:#fff;}.cls-2{fill:url(#_未命名的渐变_38);}</style><radialGradient id="_未命名的渐变_38" cx="15.65" cy="27.85" fx="15.65" fy="27.85" r="8.7" gradientUnits="userSpaceOnUse"><stop offset="0" stop-color="#fff"/><stop offset=".11" stop-color="#fafdf9"/><stop offset=".25" stop-color="#edf8ea"/><stop offset=".41" stop-color="#d6f0d1"/><stop offset=".57" stop-color="#b8e5ae"/><stop offset=".74" stop-color="#90d781"/><stop offset=".92" stop-color="#61c64b"/><stop offset="1" stop-color="#48bd2f"/></radialGradient></defs><path class="cls-2" d="m22.68,28.6c-1.47,6.41-7.25,5.65-13.39,5.08-3.23-.3,1.62-2.8.19-5.08-1.89-3.01,1.69-3.52,4.52-4.95,8.36-4.23,10.11-1.32,8.67,4.95Z"/><path class="cls-1" d="m35.05,24.39c-.08.12-.17.27-.2.41l-1.19,4.78c-.52,2.11.4,2.97,1.33,3.2s2.15-.1,2.67-2.2l1.19-4.78c.03-.14.03-.31.01-.45l.82.2c-.08.12-.17.27-.2.41l-1.19,4.78c-.62,2.49-2.36,2.87-3.44,2.61s-2.44-1.42-1.82-3.91l1.19-4.78c.03-.14.03-.31.01-.45l.82.2Z"/><path class="cls-1" d="m39.49,33.84c-.03.14-.03.31-.01.45l-.72-.18c.08-.12.17-.27.2-.41l.92-3.71c.03-.14.03-.31.01-.45.13,0,.32-.09.49-.17.82-.4,1.46-.74,2.4-.5,1.54.38,2.33,1.66,1.93,3.29l-.7,2.81c-.03.14-.03.31-.01.45l-.72-.18c.08-.12.17-.27.2-.41l.7-2.81c.29-1.18-.23-2.31-1.51-2.62-.7-.17-1.69.12-2.21.6l-.95,3.84Z"/><path class="cls-1" d="m47.6,29.06c-.21-.05-.34-.26-.29-.48.05-.21.27-.34.48-.29.22.06.34.27.29.48-.05.22-.26.34-.48.29Zm-2.05,6.73c.08-.12.17-.27.2-.41l1.2-4.84c.03-.14.03-.31.01-.45l.63.16-1.31,5.27c-.03.14-.03.31-.01.45l-.72-.18Z"/><path class="cls-1" d="m48.55,36.08c-.03.14-.03.31-.01.45l-.72-.18c.08-.12.17-.27.2-.41l.92-3.71c.03-.14.03-.31.01-.45.13,0,.32-.09.49-.17.82-.4,1.46-.74,2.4-.5,1.54.38,2.33,1.66,1.93,3.29l-.7,2.81c-.03.14-.03.31-.01.45l-.72-.18c.08-.12.17-.27.2-.41l.7-2.81c.29-1.18-.23-2.31-1.51-2.62-.7-.17-1.69.12-2.21.6l-.95,3.84Z"/><path class="cls-1" d="m58.27,32.9l-.13.54-1.64-.41-1.18,4.74c-.03.14-.03.31-.01.45l-.72-.18c.08-.12.17-.27.2-.41l1.18-4.74-.64-.16,1.58-1.34-.27,1.09,1.64.41Z"/><path class="cls-1" d="m58.47,36.18c-.07,1.52.6,2.62,1.95,2.95.55.14,1.17.13,1.68,0l-.2.79c-.13-.06-.23-.11-.38-.14-.13-.03-.77-.02-1.42-.18-1.5-.37-2.5-2.08-2.09-3.74s2.09-2.71,3.59-2.33c1.77.44,2.57,2.14,2.13,3.96l-5.26-1.31Zm4.88.67c.04-1.23-.44-2.46-1.83-2.8s-2.38.52-2.92,1.62l4.75,1.18Z"/><path class="cls-1" d="m64.74,40.1c-.03.14-.03.31-.01.45l-.72-.18c.08-.12.17-.27.2-.41l.92-3.71c.03-.14.03-.31.01-.45.13,0,.32-.09.49-.17.82-.4,1.46-.74,2.4-.5,1.54.38,2.33,1.66,1.93,3.29l-.7,2.81c-.03.14-.03.31-.01.45l-.72-.18c.08-.12.17-.27.2-.41l.7-2.81c.29-1.18-.23-2.31-1.51-2.62-.7-.17-1.69.12-2.21.6l-.95,3.84Z"/><path class="cls-1" d="m74.46,36.91l-.13.54-1.64-.41-1.18,4.74c-.03.14-.03.31-.01.45l-.72-.18c.08-.12.17-.27.2-.41l1.18-4.74-.64-.16,1.58-1.34-.27,1.09,1.64.41Z"/><path class="cls-1" d="m76.09,36.13c-.21-.05-.34-.26-.29-.48.05-.21.27-.34.48-.29.22.06.34.27.29.48-.05.22-.26.34-.48.29Zm-2.05,6.73c.08-.12.17-.27.2-.41l1.2-4.84c.03-.14.03-.31.01-.45l.63.16-1.31,5.27c-.03.14-.03.31-.01.45l-.72-.18Z"/><path class="cls-1" d="m76.64,40.48c.42-1.69,2.05-2.72,3.75-2.3s2.66,2.09,2.24,3.78-2.05,2.72-3.75,2.3-2.66-2.09-2.24-3.78Zm5.47,1.36c.34-1.37-.46-2.79-1.85-3.14s-2.77.54-3.11,1.91.46,2.79,1.85,3.14,2.77-.54,3.11-1.91Z"/><path class="cls-1" d="m83.52,44.76c-.03.14-.03.31-.01.45l-.72-.18c.08-.12.17-.27.2-.41l.92-3.71c.03-.14.03-.31.01-.45.13,0,.32-.09.49-.17.82-.4,1.46-.74,2.4-.5,1.54.38,2.33,1.66,1.93,3.29l-.7,2.81c-.03.14-.03.31-.01.45l-.72-.18c.08-.12.17-.27.2-.41l.7-2.81c.29-1.18-.23-2.31-1.51-2.62-.7-.17-1.69.12-2.21.6l-.95,3.84Z"/><path class="cls-1" d="m94.52,47.49c-.03.14-.03.31-.01.45l-.63-.16.21-.84h-.02c-.67.57-1.37.74-2.22.53-1.54-.38-2.63-1.99-2.19-3.77s2.16-2.69,3.7-2.31c.79.2,1.49.79,1.93,1.48.13.21.27.3.4.33-.08.12-.17.27-.2.41l-.96,3.87Zm.36-3.75c.09-.65-.78-1.6-1.68-1.83-1.39-.34-2.69.54-3.04,1.93s.4,2.78,1.78,3.12c.84.21,1.9-.1,2.35-.86l.59-2.36Z"/><path class="cls-1" d="m96.78,48.05c-.03.14-.03.31-.01.45l-.72-.18c.08-.12.17-.27.2-.41l1.84-7.43c.03-.14.03-.31.01-.45l.63.16-1.95,7.86Z"/><path class="cls-1" d="m101.82,49.76c.08-.12.17-.27.2-.41l1.84-7.43c.03-.14.03-.31.01-.45l.82.2c-.08.12-.17.27-.2.41l-1.84,7.43c-.03.14-.03.31-.01.45l-.82-.2Z"/><path class="cls-1" d="m104.88,50.06c-.03.14-.03.31-.01.45l-.72-.18c.08-.12.17-.27.2-.41l.92-3.71c.03-.14.03-.31.01-.45.13,0,.32-.09.49-.17.82-.4,1.46-.74,2.4-.5,1.54.38,2.33,1.66,1.93,3.29l-.7,2.81c-.03.14-.03.31-.01.45l-.72-.18c.08-.12.17-.27.2-.41l.7-2.81c.29-1.18-.23-2.31-1.51-2.62-.7-.17-1.69.12-2.21.6l-.95,3.84Z"/><path class="cls-1" d="m111.58,52.45c-.33,1.33-1.56,2.01-2.7,1.73-.14-.03-.29-.06-.42-.07l.16-.64c.09.07.23.13.37.17,1.04.26,1.82-.34,2.09-1.44l1.34-5.41c.03-.14.03-.31.01-.45l.63.16-1.48,5.96Zm1.97-7.43c-.05.22-.26.34-.48.29-.21-.05-.34-.26-.29-.48.05-.21.27-.34.48-.29.22.06.34.27.29.48Z"/><path class="cls-1" d="m119.12,48.45c.03-.14.03-.31.01-.45l.72.18c-.08.12-.17.27-.2.41l-.92,3.71c-.03.14-.03.31-.01.45-.13,0-.32.09-.49.17-.82.4-1.46.74-2.4.5-1.54-.38-2.33-1.66-1.93-3.3l.7-2.8c.03-.14.03-.31.01-.45l.72.18c-.08.12-.17.27-.2.41l-.7,2.8c-.29,1.18.23,2.31,1.51,2.62.7.17,1.69-.13,2.21-.6l.95-3.84Z"/><path class="cls-1" d="m120.51,53.93c-.03.14-.03.31-.01.45l-.72-.18c.08-.12.17-.27.2-.41l1.2-4.84c.03-.14.03-.31.01-.45l.63.16-.23.93h.02c.44-.54,1.3-.66,1.91-.51.14.03.29.05.4.03l-.17.68c-.09-.07-.23-.13-.37-.17-.78-.19-1.47,0-2.03.92l-.84,3.4Z"/><path class="cls-1" d="m124.64,54.98l-1.06-5.54c-.02-.12-.07-.28-.12-.38l.86.21c-.05.06-.09.13-.11.18-.01.05.02.13.03.19l.92,4.78,3.07-3.76c.05-.06.1-.12.12-.18s0-.13,0-.21l.9.22c-.12.1-.25.22-.36.34l-5.35,6.41c-.07.09-.14.15-.17.3-.01.06,0,.13,0,.21l-.89-.22c.12-.12.24-.24.35-.36l1.81-2.21Z"/></svg>