<?xml version="1.0" encoding="UTF-8"?><svg id="_图层_2" xmlns="http://www.w3.org/2000/svg" viewBox="0 0 316.37 387.48"><defs><style>.cls-1{letter-spacing:-.08em;}.cls-2{font-family:EuclidCircularA-Regular, 'Euclid Circular A';font-size:9px;}.cls-3{letter-spacing:0em;}.cls-4{letter-spacing:0em;}.cls-5{fill:#fff;}.cls-6{letter-spacing:-.05em;}.cls-7{letter-spacing:-.02em;}.cls-8{letter-spacing:-.02em;}.cls-9{letter-spacing:0em;}.cls-10{letter-spacing:-.04em;}.cls-11{letter-spacing:0em;}.cls-12{letter-spacing:0em;}.cls-13{letter-spacing:0em;}.cls-14{letter-spacing:0em;}.cls-15{letter-spacing:-.02em;}.cls-16{letter-spacing:-.02em;}.cls-17{letter-spacing:-.02em;}.cls-18{letter-spacing:-.01em;}.cls-19{letter-spacing:-.03em;}.cls-20{fill:none;stroke:#241f20;stroke-miterlimit:10;stroke-width:.5px;}</style></defs><g id="_图层_1-2"><path class="cls-5" d="m301.38,329.24c-35.87,145.14-86-25.17-225.67-38.05-73.52-6.78-101.3-63.24-48.06-125.19C81.21,103.68,155.87-75.63,174.25,35.6c27.94,169.11,150.55,198.87,127.13,293.64Z"/><text class="cls-2" transform="translate(19.2 224.74)"><tspan class="cls-11" x="0" y="0">I</tspan><tspan x="2.51" y="0">n 2018</tspan><tspan class="cls-16" x="28.67" y="0"> </tspan><tspan x="30.69" y="0">the</tspan><tspan class="cls-8" x="44.63" y="0">r</tspan><tspan x="47.76" y="0">e</tspan><tspan class="cls-8" x="52.97" y="0"> </tspan><tspan class="cls-11" x="54.98" y="0">w</tspan><tspan x="61.83" y="0">e</tspan><tspan class="cls-8" x="67.04" y="0">r</tspan><tspan x="70.17" y="0">e 25.4 pe</tspan><tspan class="cls-7" x="108.45" y="0">r</tspan><tspan x="111.52" y="0" xml:space="preserve"> 10</tspan><tspan class="cls-15" x="122.22" y="0">0,</tspan><tspan x="129.84" y="0">000 deaths</tspan><tspan x="0" y="10.8">because </tspan><tspan class="cls-13" x="38.64" y="10.8">o</tspan><tspan class="cls-19" x="44.02" y="10.8">f</tspan><tspan x="47.09" y="10.8"> </tspan><tspan class="cls-3" x="49.26" y="10.8">U</tspan><tspan x="55.71" y="10.8">ni</tspan><tspan class="cls-4" x="63.25" y="10.8">n</tspan><tspan class="cls-14" x="68.5" y="10.8">t</tspan><tspan x="71.86" y="10.8">e</tspan><tspan class="cls-4" x="77.08" y="10.8">n</tspan><tspan x="82.32" y="10.8">tional </tspan><tspan class="cls-11" x="108.83" y="10.8">I</tspan><tspan x="111.34" y="10.8">njur</tspan><tspan class="cls-6" x="127.46" y="10.8">y</tspan><tspan x="131.94" y="10.8">.</tspan></text><text class="cls-2" transform="translate(183.72 299.27)"><tspan class="cls-18" x="0" y="0">f</tspan><tspan x="3.19" y="0">emale death </tspan><tspan class="cls-17" x="59.1" y="0">r</tspan><tspan x="62.24" y="0">a</tspan><tspan class="cls-14" x="67.91" y="0">t</tspan><tspan x="71.28" y="0">e: 12</tspan><tspan class="cls-10" x="89.07" y="0">.</tspan><tspan x="91.01" y="0">163</tspan></text><text class="cls-2" transform="translate(79.76 114.35)"><tspan x="0" y="0">male death </tspan><tspan class="cls-16" x="50.71" y="0">r</tspan><tspan x="53.85" y="0">a</tspan><tspan class="cls-9" x="59.52" y="0">t</tspan><tspan x="62.88" y="0">e: 1</tspan><tspan class="cls-1" x="75.65" y="0">9</tspan><tspan class="cls-12" x="79.95" y="0">.</tspan><tspan x="82.18" y="0">919</tspan></text><line class="cls-20" x1="120.1" y1="130.79" x2="141.52" y2="201.11"/><line class="cls-20" x1="168.29" y1="248.45" x2="217.64" y2="282.99"/></g></svg>