<?xml version="1.0" encoding="UTF-8"?><svg id="_图层_2" xmlns="http://www.w3.org/2000/svg" viewBox="0 0 436.27 326.76"><defs><style>.cls-1{fill:#fff;}.cls-2{fill:none;stroke:#241f20;stroke-miterlimit:10;stroke-width:.5px;}</style></defs><g id="_图层_1-2"><path class="cls-1" d="m407.22,187.09c-183.89,136.55-66.17,151.36-298.08,133.63-85.53-6.54-125.95-29.88-102.61-162.17C34.66-.87,130.74-5.64,157.25,2.22c33.68,9.99,379.93,88.35,249.97,184.86Z"/><path d="m199.04,160.38v-7.18h.94v7.18h-.94Z"/><path d="m201.73,160.38v-5.06h.87v.78c.34-.59.88-.88,1.61-.88.57,0,1.04.19,1.39.56s.53.87.53,1.49v3.12h-.86v-2.98c0-.42-.11-.76-.32-1.01s-.51-.37-.87-.37c-.42,0-.77.17-1.05.5-.28.33-.42.78-.42,1.36v2.51h-.87Z"/><path d="m214.45,159.54v.84h-4.65v-.34c0-.25.04-.49.12-.71.08-.23.16-.42.26-.57s.24-.33.45-.52c.2-.19.36-.33.48-.42.11-.09.31-.23.58-.42.27-.19.45-.32.54-.38.48-.35.81-.65,1-.89s.28-.55.28-.95-.12-.68-.36-.91c-.24-.23-.56-.34-.95-.34-.41,0-.76.12-1.05.37-.29.25-.44.6-.44,1.04h-.89c0-.67.22-1.22.67-1.64.45-.42,1.01-.63,1.7-.63.63,0,1.16.18,1.58.55s.63.88.63,1.56c0,.51-.12.95-.38,1.31-.25.36-.68.76-1.29,1.2-.11.08-.28.19-.49.34-.21.15-.37.26-.49.35-.12.09-.24.19-.38.32-.14.12-.25.26-.32.39-.08.14-.13.29-.17.45h3.58Z"/><path d="m218.1,160.48c-.75,0-1.36-.25-1.83-.75-.47-.5-.71-1.15-.71-1.95v-2c0-.8.24-1.45.71-1.95.48-.5,1.08-.75,1.83-.75s1.35.25,1.83.76c.48.51.72,1.15.72,1.94v2c0,.8-.24,1.45-.72,1.95-.48.5-1.09.75-1.83.75Zm0-.85c.5,0,.9-.17,1.21-.5.31-.33.47-.78.47-1.36v-2c0-.57-.16-1.03-.47-1.36-.31-.33-.71-.5-1.21-.5s-.89.17-1.2.5c-.31.33-.46.78-.46,1.36v2c0,.57.15,1.03.46,1.36.31.33.71.5,1.2.5Z"/><path d="m222.72,160.38v-6.32h-1.39l.71-.86h1.55v7.18h-.87Z"/><path d="m227.69,160.48c-.75,0-1.36-.25-1.83-.75-.47-.5-.71-1.15-.71-1.95v-2c0-.8.24-1.45.71-1.95.48-.5,1.08-.75,1.83-.75s1.35.25,1.83.76c.48.51.72,1.15.72,1.94v2c0,.8-.24,1.45-.72,1.95-.48.5-1.09.75-1.83.75Zm0-.85c.5,0,.9-.17,1.21-.5.31-.33.47-.78.47-1.36v-2c0-.57-.16-1.03-.47-1.36-.31-.33-.71-.5-1.21-.5s-.89.17-1.2.5c-.31.33-.46.78-.46,1.36v2c0,.57.15,1.03.46,1.36.31.33.71.5,1.2.5Z"/><path d="m235.89,160.43c-.46,0-.84-.13-1.12-.39-.28-.26-.42-.65-.42-1.15v-2.76h-1.07v-.8h1.07v-1.41h.87v1.41h1.46v.8h-1.46v2.65c0,.32.07.54.2.67.13.13.35.19.64.19.26,0,.46-.03.62-.1v.78c-.24.08-.5.12-.78.12Z"/><path d="m238.66,160.38h-.87v-7.59h.87v3.31c.34-.59.88-.88,1.61-.88.57,0,1.04.19,1.39.56s.53.87.53,1.49v3.12h-.86v-2.98c0-.42-.11-.76-.32-1.01s-.51-.37-.87-.37c-.42,0-.77.17-1.05.5-.28.33-.42.78-.42,1.36v2.51Z"/><path d="m245.9,160.48c-.74,0-1.34-.25-1.83-.75s-.72-1.13-.72-1.88.23-1.39.7-1.89c.47-.5,1.09-.74,1.87-.74s1.4.28,1.84.83c.45.55.64,1.23.59,2.03h-4.12c.01.46.18.84.51,1.15.32.31.71.46,1.17.46.69,0,1.18-.28,1.47-.85h.89c-.13.47-.4.86-.82,1.17s-.93.47-1.55.47Zm.99-4.13c-.28-.24-.61-.36-1-.36s-.74.12-1.05.35c-.31.24-.5.59-.57,1.05h3.16c-.08-.46-.26-.81-.54-1.05Z"/><path d="m249.6,160.38v-5.06h.87v.98c.09-.31.28-.56.55-.75.27-.19.56-.28.87-.28.15,0,.28.01.39.04v.9c-.12-.05-.28-.08-.48-.08-.35,0-.66.15-.93.46-.27.3-.41.73-.41,1.29v2.51h-.87Z"/><path d="m255.28,160.48c-.74,0-1.34-.25-1.83-.75s-.72-1.13-.72-1.88.23-1.39.7-1.89c.47-.5,1.09-.74,1.87-.74s1.4.28,1.84.83c.45.55.64,1.23.59,2.03h-4.12c.01.46.18.84.51,1.15.32.31.71.46,1.17.46.69,0,1.18-.28,1.47-.85h.89c-.13.47-.4.86-.82,1.17s-.93.47-1.55.47Zm.99-4.13c-.28-.24-.61-.36-1-.36s-.74.12-1.05.35c-.31.24-.5.59-.57,1.05h3.16c-.08-.46-.26-.81-.54-1.05Z"/><path d="m265.53,160.38l-1.25-3.63-1.24,3.63h-.77l-1.72-5.06h.91l1.22,3.69,1.26-3.69h.67l1.26,3.69,1.22-3.69h.92l-1.72,5.06h-.77Z"/><path d="m271.09,160.48c-.74,0-1.34-.25-1.83-.75s-.72-1.13-.72-1.88.23-1.39.7-1.89c.47-.5,1.09-.74,1.87-.74s1.4.28,1.84.83c.45.55.64,1.23.59,2.03h-4.12c.01.46.18.84.51,1.15.32.31.71.46,1.17.46.69,0,1.18-.28,1.47-.85h.89c-.13.47-.4.86-.82,1.17s-.93.47-1.55.47Zm.99-4.13c-.28-.24-.61-.36-1-.36s-.74.12-1.05.35c-.31.24-.5.59-.57,1.05h3.16c-.08-.46-.26-.81-.54-1.05Z"/><path d="m274.8,160.38v-5.06h.87v.98c.09-.31.28-.56.55-.75.27-.19.56-.28.87-.28.15,0,.28.01.39.04v.9c-.12-.05-.28-.08-.48-.08-.35,0-.66.15-.93.46-.27.3-.41.73-.41,1.29v2.51h-.87Z"/><path d="m280.47,160.48c-.74,0-1.34-.25-1.83-.75s-.72-1.13-.72-1.88.23-1.39.7-1.89c.47-.5,1.09-.74,1.87-.74s1.4.28,1.84.83c.45.55.64,1.23.59,2.03h-4.12c.01.46.18.84.51,1.15.32.31.71.46,1.17.46.69,0,1.18-.28,1.47-.85h.89c-.13.47-.4.86-.82,1.17s-.93.47-1.55.47Zm.99-4.13c-.28-.24-.61-.36-1-.36s-.74.12-1.05.35c-.31.24-.5.59-.57,1.05h3.16c-.08-.46-.26-.81-.54-1.05Z"/><path d="m287.26,160.38v-6.32h-1.39l.71-.86h1.55v7.18h-.87Z"/><path d="m293.08,160.38v-1.95h-3.82v-.7l3.94-4.53h.76v4.41h.99v.82h-.99v1.95h-.87Zm-2.69-2.77h2.69v-3.1l-2.69,3.1Z"/><path d="m297.64,157.1c-.55,0-1.02-.2-1.41-.59-.39-.39-.58-.86-.58-1.41s.19-1.02.58-1.41.86-.58,1.41-.58,1.01.19,1.41.58c.39.39.59.86.59,1.41s-.2,1.02-.59,1.41-.86.59-1.41.59Zm0-.79c.32,0,.6-.12.84-.36.24-.24.35-.52.35-.84s-.12-.61-.35-.84c-.24-.24-.52-.36-.84-.36s-.62.12-.85.35-.34.52-.34.85.11.61.34.85c.23.24.51.35.85.35Zm.89,4.07h-.94l4.55-7.18h.94l-4.55,7.18Zm4.5.08c-.55,0-1.02-.2-1.41-.59s-.58-.86-.58-1.41.19-1.02.58-1.41.86-.58,1.41-.58,1.01.19,1.41.58c.39.39.59.86.59,1.41s-.2,1.01-.59,1.41c-.39.39-.86.59-1.41.59Zm0-.79c.32,0,.6-.12.84-.36.24-.24.35-.52.35-.84s-.12-.61-.35-.84c-.24-.24-.52-.36-.84-.36s-.62.12-.85.35c-.23.24-.34.52-.34.85s.11.61.34.85.51.35.85.35Z"/><path d="m310.86,160.48c-.76,0-1.39-.25-1.9-.76-.5-.51-.75-1.13-.75-1.87s.25-1.36.75-1.87c.5-.51,1.13-.76,1.9-.76s1.38.25,1.89.76c.5.51.75,1.13.75,1.87s-.25,1.36-.75,1.87c-.5.51-1.13.76-1.89.76Zm-1.27-1.34c.33.35.75.53,1.27.53s.94-.18,1.26-.53c.32-.35.49-.78.49-1.29s-.16-.94-.49-1.29c-.32-.35-.75-.53-1.26-.53s-.94.18-1.27.53-.49.78-.49,1.29.16.94.49,1.29Z"/><path d="m315.08,160.38v-4.26h-1.07v-.8h1.07v-1.02c0-.51.14-.89.42-1.16.28-.27.66-.4,1.12-.4.28,0,.54.04.79.13v.77c-.16-.07-.36-.1-.63-.1-.29,0-.5.06-.64.19-.14.13-.2.35-.2.67v.93h1.47v.8h-1.47v4.26h-.87Z"/><path d="m322.63,160.48c-.7,0-1.29-.26-1.76-.77-.48-.51-.71-1.13-.71-1.86s.24-1.35.71-1.86c.47-.51,1.06-.77,1.76-.77.37,0,.72.08,1.04.25s.57.38.74.63v-3.31h.87v7.59h-.87v-.78c-.18.26-.42.47-.74.63s-.67.25-1.04.25Zm.13-.8c.5,0,.91-.17,1.23-.53.32-.35.49-.79.49-1.3s-.16-.95-.49-1.31c-.32-.35-.74-.53-1.23-.53s-.92.17-1.24.53c-.32.35-.49.79-.49,1.31s.16.95.49,1.3c.32.35.74.53,1.24.53Z"/><path d="m329.08,160.48c-.74,0-1.34-.25-1.83-.75s-.72-1.13-.72-1.88.23-1.39.7-1.89c.47-.5,1.09-.74,1.87-.74s1.4.28,1.84.83c.45.55.64,1.23.59,2.03h-4.12c.01.46.18.84.51,1.15.32.31.71.46,1.17.46.69,0,1.18-.28,1.47-.85h.89c-.13.47-.4.86-.82,1.17s-.93.47-1.55.47Zm.99-4.13c-.28-.24-.61-.36-1-.36s-.74.12-1.05.35c-.31.24-.5.59-.57,1.05h3.16c-.08-.46-.26-.81-.54-1.05Z"/><path d="m334.86,160.48c-.7,0-1.29-.26-1.76-.77-.48-.51-.71-1.13-.71-1.86s.24-1.35.71-1.86c.47-.51,1.06-.77,1.76-.77.37,0,.72.08,1.04.25s.57.38.74.63v-.78h.87v5.06h-.87v-.78c-.18.26-.42.47-.74.63s-.67.25-1.04.25Zm.13-.8c.5,0,.91-.17,1.23-.53.32-.35.49-.79.49-1.3s-.16-.95-.49-1.31c-.32-.35-.74-.53-1.23-.53s-.92.17-1.24.53c-.32.35-.49.79-.49,1.31s.16.95.49,1.3c.32.35.74.53,1.24.53Z"/><path d="m341.12,160.43c-.46,0-.84-.13-1.12-.39-.28-.26-.42-.65-.42-1.15v-2.76h-1.07v-.8h1.07v-1.41h.87v1.41h1.46v.8h-1.46v2.65c0,.32.07.54.2.67.13.13.35.19.64.19.26,0,.46-.03.62-.1v.78c-.24.08-.5.12-.78.12Z"/><path d="m343.88,160.38h-.87v-7.59h.87v3.31c.34-.59.88-.88,1.61-.88.57,0,1.04.19,1.39.56s.53.87.53,1.49v3.12h-.86v-2.98c0-.42-.11-.76-.32-1.01s-.51-.37-.87-.37c-.42,0-.77.17-1.05.5-.28.33-.42.78-.42,1.36v2.51Z"/><path d="m350.6,160.48c-.57,0-1.04-.14-1.42-.42-.38-.28-.59-.66-.63-1.15h.89c.05.28.19.49.41.63.22.13.47.2.76.2s.52-.06.7-.17c.18-.11.27-.28.27-.5,0-.2-.07-.37-.2-.5s-.35-.23-.64-.31l-.73-.19c-.87-.23-1.3-.73-1.3-1.49,0-.41.16-.74.49-.99.33-.25.75-.38,1.26-.38s.95.14,1.28.41.52.62.56,1.04h-.87c-.07-.22-.19-.4-.36-.53s-.38-.19-.61-.19c-.25,0-.46.06-.62.17-.17.12-.25.27-.25.46s.06.33.18.45c.12.12.32.21.59.28l.81.21c.86.22,1.3.71,1.3,1.5,0,.49-.17.85-.52,1.1-.34.25-.79.37-1.35.37Z"/><path d="m201.56,172.62c-.37,0-.72-.08-1.04-.25s-.57-.38-.74-.63v.78h-.87v-7.59h.87v3.31c.18-.26.42-.47.74-.63s.67-.25,1.04-.25c.7,0,1.29.26,1.77.77.47.51.71,1.13.71,1.86s-.24,1.35-.71,1.86c-.48.51-1.06.77-1.77.77Zm-1.37-1.33c.32.35.74.53,1.23.53s.91-.17,1.23-.53c.32-.35.49-.79.49-1.3s-.16-.95-.49-1.31c-.32-.35-.74-.53-1.23-.53s-.91.17-1.23.53c-.32.35-.49.79-.49,1.31s.16.95.49,1.3Z"/><path d="m207.43,172.62c-.74,0-1.34-.25-1.83-.75s-.72-1.13-.72-1.88.23-1.39.7-1.89c.47-.5,1.09-.74,1.87-.74s1.4.28,1.84.83c.45.55.64,1.23.59,2.03h-4.12c.01.46.18.84.51,1.15.32.31.71.46,1.17.46.69,0,1.18-.28,1.47-.85h.89c-.13.47-.4.86-.82,1.17s-.93.47-1.55.47Zm.99-4.13c-.28-.24-.61-.36-1-.36s-.74.12-1.05.35c-.31.24-.5.59-.57,1.05h3.16c-.08-.46-.26-.81-.54-1.05Z"/><path d="m213.38,172.62c-.76,0-1.39-.25-1.89-.76-.5-.51-.75-1.13-.75-1.87s.25-1.36.75-1.87c.5-.51,1.13-.76,1.89-.76.63,0,1.17.17,1.63.52s.77.8.92,1.36h-.93c-.12-.33-.32-.59-.61-.79-.28-.2-.62-.29-1.01-.29-.52,0-.94.17-1.27.53-.33.35-.49.79-.49,1.31s.16.95.49,1.3c.33.35.75.53,1.27.53.39,0,.73-.1,1.01-.29.28-.2.49-.46.61-.79h.93c-.15.56-.45,1.01-.91,1.36-.46.35-1.01.52-1.64.52Z"/><path d="m219.17,172.62c-.7,0-1.29-.26-1.76-.77-.48-.51-.71-1.13-.71-1.86s.24-1.35.71-1.86c.47-.51,1.06-.77,1.76-.77.37,0,.72.08,1.04.25s.57.38.74.63v-.78h.87v5.06h-.87v-.78c-.18.26-.42.47-.74.63s-.67.25-1.04.25Zm.13-.8c.5,0,.91-.17,1.23-.53.32-.35.49-.79.49-1.3s-.16-.95-.49-1.31c-.32-.35-.74-.53-1.23-.53s-.92.17-1.24.53c-.32.35-.49.79-.49,1.31s.16.95.49,1.3c.32.35.74.53,1.24.53Z"/><path d="m225.25,172.62c-.55,0-1-.19-1.35-.56-.34-.38-.52-.87-.52-1.49v-3.11h.87v2.97c0,.42.1.76.31,1.01.21.25.48.37.83.37.41,0,.74-.17,1.01-.5s.4-.78.4-1.35v-2.51h.87v5.06h-.87v-.78c-.33.59-.85.88-1.56.88Z"/><path d="m230.95,172.62c-.57,0-1.04-.14-1.42-.42-.38-.28-.59-.66-.63-1.15h.89c.05.28.19.49.41.63.22.13.47.2.76.2s.52-.06.7-.17c.18-.11.27-.28.27-.5,0-.2-.07-.37-.2-.5s-.35-.23-.64-.31l-.73-.19c-.87-.23-1.3-.73-1.3-1.49,0-.41.16-.74.49-.99.33-.25.75-.38,1.26-.38s.95.14,1.28.41.52.62.56,1.04h-.87c-.07-.22-.19-.4-.36-.53s-.38-.19-.61-.19c-.25,0-.46.06-.62.17-.17.12-.25.27-.25.46s.06.33.18.45c.12.12.32.21.59.28l.81.21c.86.22,1.3.71,1.3,1.5,0,.49-.17.85-.52,1.1-.34.25-.79.37-1.35.37Z"/><path d="m236.2,172.62c-.74,0-1.34-.25-1.83-.75s-.72-1.13-.72-1.88.23-1.39.7-1.89c.47-.5,1.09-.74,1.87-.74s1.4.28,1.84.83c.45.55.64,1.23.59,2.03h-4.12c.01.46.18.84.51,1.15.32.31.71.46,1.17.46.69,0,1.18-.28,1.47-.85h.89c-.13.47-.4.86-.82,1.17s-.93.47-1.55.47Zm.99-4.13c-.28-.24-.61-.36-1-.36s-.74.12-1.05.35c-.31.24-.5.59-.57,1.05h3.16c-.08-.46-.26-.81-.54-1.05Z"/><path d="m244.59,172.62c-.76,0-1.39-.25-1.9-.76-.5-.51-.75-1.13-.75-1.87s.25-1.36.75-1.87c.5-.51,1.13-.76,1.9-.76s1.38.25,1.89.76c.5.51.75,1.13.75,1.87s-.25,1.36-.75,1.87c-.5.51-1.13.76-1.89.76Zm-1.27-1.34c.33.35.75.53,1.27.53s.94-.18,1.26-.53c.32-.35.49-.78.49-1.29s-.16-.94-.49-1.29c-.32-.35-.75-.53-1.26-.53s-.94.18-1.27.53-.49.78-.49,1.29.16.94.49,1.29Z"/><path d="m248.82,172.52v-4.26h-1.07v-.8h1.07v-1.02c0-.51.14-.89.42-1.16.28-.27.66-.4,1.12-.4.28,0,.54.04.79.13v.77c-.16-.07-.36-.1-.63-.1-.29,0-.5.06-.64.19-.14.13-.2.35-.2.67v.93h1.47v.8h-1.47v4.26h-.87Z"/><path d="m254.41,165.34h.86l2.66,3.58,2.68-3.58h.85v7.18h-.93v-5.58l-2.59,3.48-2.59-3.48v5.58h-.94v-7.18Z"/><path d="m265.24,172.62c-.7,0-1.29-.26-1.76-.77-.48-.51-.71-1.13-.71-1.86s.24-1.35.71-1.86c.47-.51,1.06-.77,1.76-.77.37,0,.72.08,1.04.25s.57.38.74.63v-.78h.87v5.06h-.87v-.78c-.18.26-.42.47-.74.63s-.67.25-1.04.25Zm.13-.8c.5,0,.91-.17,1.23-.53.32-.35.49-.79.49-1.3s-.16-.95-.49-1.31c-.32-.35-.74-.53-1.23-.53s-.92.17-1.24.53c-.32.35-.49.79-.49,1.31s.16.95.49,1.3c.32.35.74.53,1.24.53Z"/><path d="m269.53,172.52v-7.59h.87v7.59h-.87Z"/><path d="m272.93,165.93c-.12.12-.26.18-.44.18s-.32-.06-.45-.18c-.12-.12-.18-.26-.18-.44s.06-.31.18-.44c.12-.12.27-.18.45-.18s.32.06.44.18c.11.12.17.27.17.44s-.06.32-.17.44Zm-.88,6.59v-5.06h.87v5.06h-.87Z"/><path d="m276.79,174.74c-.67,0-1.22-.16-1.66-.49s-.7-.75-.78-1.26h.85c.22.65.76.98,1.62.98.48,0,.87-.15,1.16-.46.29-.31.44-.74.44-1.29v-.6c-.18.27-.43.49-.74.65-.31.16-.65.24-1.02.24-.71,0-1.3-.25-1.77-.74-.47-.5-.71-1.11-.71-1.84s.24-1.33.71-1.83c.47-.5,1.06-.74,1.76-.74.37,0,.71.08,1.02.24.31.16.56.37.74.64v-.78h.87v4.75c0,.81-.23,1.43-.7,1.87-.47.44-1.06.66-1.79.66Zm-1.25-3.54c.32.33.73.5,1.23.5s.92-.17,1.23-.5c.32-.33.48-.76.48-1.27s-.16-.94-.48-1.27c-.32-.33-.73-.5-1.23-.5s-.91.17-1.23.5c-.32.33-.48.76-.48,1.27s.16.94.48,1.27Z"/><path d="m280.92,172.52v-5.06h.87v.78c.34-.59.88-.88,1.61-.88.57,0,1.04.19,1.39.56s.53.87.53,1.49v3.12h-.86v-2.98c0-.42-.11-.76-.32-1.01s-.51-.37-.87-.37c-.42,0-.77.17-1.05.5-.28.33-.42.78-.42,1.36v2.51h-.87Z"/><path d="m288.96,172.62c-.7,0-1.29-.26-1.76-.77-.48-.51-.71-1.13-.71-1.86s.24-1.35.71-1.86c.47-.51,1.06-.77,1.76-.77.37,0,.72.08,1.04.25s.57.38.74.63v-.78h.87v5.06h-.87v-.78c-.18.26-.42.47-.74.63s-.67.25-1.04.25Zm.13-.8c.5,0,.91-.17,1.23-.53.32-.35.49-.79.49-1.3s-.16-.95-.49-1.31c-.32-.35-.74-.53-1.23-.53s-.92.17-1.24.53c-.32.35-.49.79-.49,1.31s.16.95.49,1.3c.32.35.74.53,1.24.53Z"/><path d="m293.25,172.52v-5.06h.87v.78c.34-.59.88-.88,1.61-.88.57,0,1.04.19,1.39.56s.53.87.53,1.49v3.12h-.86v-2.98c0-.42-.11-.76-.32-1.01s-.51-.37-.87-.37c-.42,0-.77.17-1.05.5-.28.33-.42.78-.42,1.36v2.51h-.87Z"/><path d="m301.11,172.57c-.46,0-.84-.13-1.12-.39-.28-.26-.42-.65-.42-1.15v-2.76h-1.07v-.8h1.07v-1.41h.87v1.41h1.46v.8h-1.46v2.65c0,.32.07.54.2.67.13.13.35.19.64.19.26,0,.46-.03.62-.1v.78c-.24.08-.5.12-.78.12Z"/><path d="m311.7,172.52h-.81l-4.37-5.59v5.59h-.94v-7.18h.82l4.37,5.59v-5.59h.93v7.18Z"/><path d="m315.54,172.62c-.74,0-1.34-.25-1.83-.75s-.72-1.13-.72-1.88.23-1.39.7-1.89c.47-.5,1.09-.74,1.87-.74s1.4.28,1.84.83c.45.55.64,1.23.59,2.03h-4.12c.01.46.18.84.51,1.15.32.31.71.46,1.17.46.69,0,1.18-.28,1.47-.85h.89c-.13.47-.4.86-.82,1.17s-.93.47-1.55.47Zm.99-4.13c-.28-.24-.61-.36-1-.36s-.74.12-1.05.35c-.31.24-.5.59-.57,1.05h3.16c-.08-.46-.26-.81-.54-1.05Z"/><path d="m321.49,172.62c-.76,0-1.39-.25-1.9-.76-.5-.51-.75-1.13-.75-1.87s.25-1.36.75-1.87c.5-.51,1.13-.76,1.9-.76s1.38.25,1.89.76c.5.51.75,1.13.75,1.87s-.25,1.36-.75,1.87c-.5.51-1.13.76-1.89.76Zm-1.27-1.34c.33.35.75.53,1.27.53s.94-.18,1.26-.53c.32-.35.49-.78.49-1.29s-.16-.94-.49-1.29c-.32-.35-.75-.53-1.26-.53s-.94.18-1.27.53-.49.78-.49,1.29.16.94.49,1.29Z"/><path d="m326.24,174.63h-.87v-7.17h.87v.78c.18-.26.42-.47.74-.63s.67-.25,1.04-.25c.7,0,1.29.26,1.77.77.47.51.71,1.13.71,1.86s-.24,1.35-.71,1.86c-.48.51-1.06.77-1.77.77-.37,0-.72-.08-1.04-.25s-.57-.38-.74-.63v2.89Zm.42-3.34c.32.35.74.53,1.23.53s.91-.17,1.23-.53c.32-.35.49-.79.49-1.3s-.16-.95-.49-1.31c-.32-.35-.74-.53-1.23-.53s-.91.17-1.23.53c-.32.35-.49.79-.49,1.31s.16.95.49,1.3Z"/><path d="m331.76,172.52v-7.59h.87v7.59h-.87Z"/><path d="m336.36,172.62c-.7,0-1.29-.26-1.76-.77-.48-.51-.71-1.13-.71-1.86s.24-1.35.71-1.86c.47-.51,1.06-.77,1.76-.77.37,0,.72.08,1.04.25s.57.38.74.63v-.78h.87v5.06h-.87v-.78c-.18.26-.42.47-.74.63s-.67.25-1.04.25Zm.13-.8c.5,0,.91-.17,1.23-.53.32-.35.49-.79.49-1.3s-.16-.95-.49-1.31c-.32-.35-.74-.53-1.23-.53s-.92.17-1.24.53c-.32.35-.49.79-.49,1.31s.16.95.49,1.3c.32.35.74.53,1.24.53Z"/><path d="m342.28,172.62c-.57,0-1.04-.14-1.42-.42-.38-.28-.59-.66-.63-1.15h.89c.05.28.19.49.41.63.22.13.47.2.76.2s.52-.06.7-.17c.18-.11.27-.28.27-.5,0-.2-.07-.37-.2-.5s-.35-.23-.64-.31l-.73-.19c-.87-.23-1.3-.73-1.3-1.49,0-.41.16-.74.49-.99.33-.25.75-.38,1.26-.38s.95.14,1.28.41.52.62.56,1.04h-.87c-.07-.22-.19-.4-.36-.53s-.38-.19-.61-.19c-.25,0-.46.06-.62.17-.17.12-.25.27-.25.46s.06.33.18.45c.12.12.32.21.59.28l.81.21c.86.22,1.3.71,1.3,1.5,0,.49-.17.85-.52,1.1-.34.25-.79.37-1.35.37Z"/><path d="m351.89,172.52v-2.97c0-.42-.09-.75-.26-1.01s-.42-.38-.74-.38c-.41,0-.73.16-.99.48-.25.32-.39.75-.4,1.29v2.59h-.87v-2.97c0-.42-.09-.76-.26-1.01-.17-.25-.42-.37-.73-.37-.42,0-.76.17-1.01.5-.26.33-.38.78-.38,1.35v2.51h-.87v-5.06h.87v.78c.32-.59.83-.88,1.53-.88.77,0,1.29.36,1.56,1.08.13-.33.35-.59.65-.79.3-.2.63-.29,1.01-.29.55,0,.98.19,1.29.56.32.37.48.87.48,1.5v3.11h-.87Z"/><path d="m355.96,172.62c-.57,0-1.04-.14-1.42-.42-.38-.28-.59-.66-.63-1.15h.89c.05.28.19.49.41.63.22.13.47.2.76.2s.52-.06.7-.17c.18-.11.27-.28.27-.5,0-.2-.07-.37-.2-.5s-.35-.23-.64-.31l-.73-.19c-.87-.23-1.3-.73-1.3-1.49,0-.41.16-.74.49-.99.33-.25.75-.38,1.26-.38s.95.14,1.28.41.52.62.56,1.04h-.87c-.07-.22-.19-.4-.36-.53s-.38-.19-.61-.19c-.25,0-.46.06-.62.17-.17.12-.25.27-.25.46s.06.33.18.45c.12.12.32.21.59.28l.81.21c.86.22,1.3.71,1.3,1.5,0,.49-.17.85-.52,1.1-.34.25-.79.37-1.35.37Z"/><path d="m360.04,172.38c-.14.15-.32.22-.53.22s-.39-.07-.53-.22c-.14-.15-.22-.33-.22-.54s.07-.38.22-.53.32-.23.53-.23.38.08.53.23.22.33.22.53-.07.39-.22.54Z"/><line class="cls-2" x1="265.4" y1="194.05" x2="176.07" y2="252.76"/><line class="cls-2" x1="155.81" y1="93" x2="282.08" y2="128.73"/><path d="m120.69,283.55v-2.97c0-.42-.09-.75-.26-1.01s-.42-.38-.74-.38c-.41,0-.73.16-.99.48-.25.32-.39.75-.4,1.29v2.59h-.87v-2.97c0-.42-.09-.76-.26-1.01-.17-.25-.42-.37-.73-.37-.42,0-.76.17-1.01.5-.26.33-.38.78-.38,1.35v2.51h-.87v-5.06h.87v.78c.32-.59.83-.88,1.53-.88.77,0,1.29.36,1.56,1.08.13-.33.35-.59.65-.79.3-.2.63-.29,1.01-.29.55,0,.98.19,1.29.56.32.37.48.87.48,1.5v3.11h-.87Z"/><path d="m125.21,283.65c-.7,0-1.29-.26-1.76-.77-.48-.51-.71-1.13-.71-1.86s.24-1.35.71-1.86c.47-.51,1.06-.77,1.76-.77.37,0,.72.08,1.04.25s.57.38.74.63v-.78h.87v5.06h-.87v-.78c-.18.26-.42.47-.74.63s-.67.25-1.04.25Zm.13-.8c.5,0,.91-.17,1.23-.53.32-.35.49-.79.49-1.3s-.16-.95-.49-1.31c-.32-.35-.74-.53-1.23-.53s-.92.17-1.24.53c-.32.35-.49.79-.49,1.31s.16.95.49,1.3c.32.35.74.53,1.24.53Z"/><path d="m129.5,283.55v-7.59h.87v7.59h-.87Z"/><path d="m134.18,283.65c-.74,0-1.34-.25-1.83-.75s-.72-1.13-.72-1.88.23-1.39.7-1.89c.47-.5,1.09-.74,1.87-.74s1.4.28,1.84.83c.45.55.64,1.23.59,2.03h-4.12c.01.46.18.84.51,1.15.32.31.71.46,1.17.46.69,0,1.18-.28,1.47-.85h.89c-.13.47-.4.86-.82,1.17s-.93.47-1.55.47Zm.99-4.13c-.28-.24-.61-.36-1-.36s-.74.12-1.05.35c-.31.24-.5.59-.57,1.05h3.16c-.08-.46-.26-.81-.54-1.05Z"/><path d="m142.4,283.65c-.7,0-1.29-.26-1.76-.77-.48-.51-.71-1.13-.71-1.86s.24-1.35.71-1.86c.47-.51,1.06-.77,1.76-.77.37,0,.72.08,1.04.25s.57.38.74.63v-3.31h.87v7.59h-.87v-.78c-.18.26-.42.47-.74.63s-.67.25-1.04.25Zm.13-.8c.5,0,.91-.17,1.23-.53.32-.35.49-.79.49-1.3s-.16-.95-.49-1.31c-.32-.35-.74-.53-1.23-.53s-.92.17-1.24.53c-.32.35-.49.79-.49,1.31s.16.95.49,1.3c.32.35.74.53,1.24.53Z"/><path d="m148.85,283.65c-.74,0-1.34-.25-1.83-.75s-.72-1.13-.72-1.88.23-1.39.7-1.89c.47-.5,1.09-.74,1.87-.74s1.4.28,1.84.83c.45.55.64,1.23.59,2.03h-4.12c.01.46.18.84.51,1.15.32.31.71.46,1.17.46.69,0,1.18-.28,1.47-.85h.89c-.13.47-.4.86-.82,1.17s-.93.47-1.55.47Zm.99-4.13c-.28-.24-.61-.36-1-.36s-.74.12-1.05.35c-.31.24-.5.59-.57,1.05h3.16c-.08-.46-.26-.81-.54-1.05Z"/><path d="m154.64,283.65c-.7,0-1.29-.26-1.76-.77-.48-.51-.71-1.13-.71-1.86s.24-1.35.71-1.86c.47-.51,1.06-.77,1.76-.77.37,0,.72.08,1.04.25s.57.38.74.63v-.78h.87v5.06h-.87v-.78c-.18.26-.42.47-.74.63s-.67.25-1.04.25Zm.13-.8c.5,0,.91-.17,1.23-.53.32-.35.49-.79.49-1.3s-.16-.95-.49-1.31c-.32-.35-.74-.53-1.23-.53s-.92.17-1.24.53c-.32.35-.49.79-.49,1.31s.16.95.49,1.3c.32.35.74.53,1.24.53Z"/><path d="m160.89,283.6c-.46,0-.84-.13-1.12-.39-.28-.26-.42-.65-.42-1.15v-2.76h-1.07v-.8h1.07v-1.41h.87v1.41h1.46v.8h-1.46v2.65c0,.32.07.54.2.67.13.13.35.19.64.19.26,0,.46-.03.62-.1v.78c-.24.08-.5.12-.78.12Z"/><path d="m163.65,283.55h-.87v-7.59h.87v3.31c.34-.59.88-.88,1.61-.88.57,0,1.04.19,1.39.56s.53.87.53,1.49v3.12h-.86v-2.98c0-.42-.11-.76-.32-1.01s-.51-.37-.87-.37c-.42,0-.77.17-1.05.5-.28.33-.42.78-.42,1.36v2.51Z"/><path d="m171.18,283.55v-5.06h.87v.98c.09-.31.28-.56.55-.75.27-.19.56-.28.87-.28.15,0,.28.01.39.04v.9c-.12-.05-.28-.08-.48-.08-.35,0-.66.15-.93.46-.27.3-.41.73-.41,1.29v2.51h-.87Z"/><path d="m176.79,283.65c-.7,0-1.29-.26-1.76-.77-.48-.51-.71-1.13-.71-1.86s.24-1.35.71-1.86c.47-.51,1.06-.77,1.76-.77.37,0,.72.08,1.04.25s.57.38.74.63v-.78h.87v5.06h-.87v-.78c-.18.26-.42.47-.74.63s-.67.25-1.04.25Zm.13-.8c.5,0,.91-.17,1.23-.53.32-.35.49-.79.49-1.3s-.16-.95-.49-1.31c-.32-.35-.74-.53-1.23-.53s-.92.17-1.24.53c-.32.35-.49.79-.49,1.31s.16.95.49,1.3c.32.35.74.53,1.24.53Z"/><path d="m183.05,283.6c-.46,0-.84-.13-1.12-.39-.28-.26-.42-.65-.42-1.15v-2.76h-1.07v-.8h1.07v-1.41h.87v1.41h1.46v.8h-1.46v2.65c0,.32.07.54.2.67.13.13.35.19.64.19.26,0,.46-.03.62-.1v.78c-.24.08-.5.12-.78.12Z"/><path d="m187.02,283.65c-.74,0-1.34-.25-1.83-.75s-.72-1.13-.72-1.88.23-1.39.7-1.89c.47-.5,1.09-.74,1.87-.74s1.4.28,1.84.83c.45.55.64,1.23.59,2.03h-4.12c.01.46.18.84.51,1.15.32.31.71.46,1.17.46.69,0,1.18-.28,1.47-.85h.89c-.13.47-.4.86-.82,1.17s-.93.47-1.55.47Zm.99-4.13c-.28-.24-.61-.36-1-.36s-.74.12-1.05.35c-.31.24-.5.59-.57,1.05h3.16c-.08-.46-.26-.81-.54-1.05Z"/><path d="m191.82,279.67c-.14.15-.32.22-.53.22s-.39-.07-.53-.22c-.14-.15-.22-.33-.22-.54s.07-.38.22-.53c.15-.15.32-.23.53-.23s.38.08.53.23c.15.15.22.33.22.53s-.07.39-.22.54Zm0,3.74c-.14.15-.32.22-.53.22s-.39-.07-.53-.22c-.14-.15-.22-.33-.22-.54s.07-.38.22-.53c.15-.15.32-.23.53-.23s.38.08.53.23.22.33.22.53-.07.39-.22.54Z"/><path d="m195.87,283.55l2.22-2.61c-.07,0-.17,0-.28,0-.6,0-1.12-.23-1.57-.69-.45-.46-.67-1-.67-1.62,0-.67.23-1.24.69-1.71.46-.46,1.04-.69,1.74-.69s1.27.23,1.74.69c.47.46.7,1.02.7,1.68,0,.35-.07.67-.21.95-.14.28-.34.58-.6.88l-2.63,3.11h-1.11Zm1.02-3.82c.29.3.66.45,1.1.45s.81-.15,1.1-.45.45-.67.45-1.1-.15-.8-.45-1.1c-.3-.3-.66-.45-1.1-.45s-.8.15-1.1.45c-.29.3-.44.67-.44,1.1s.15.8.44,1.1Z"/><path d="m201.52,283.55l2.22-2.61c-.07,0-.17,0-.28,0-.6,0-1.12-.23-1.57-.69-.45-.46-.67-1-.67-1.62,0-.67.23-1.24.69-1.71.46-.46,1.04-.69,1.74-.69s1.27.23,1.74.69c.47.46.7,1.02.7,1.68,0,.35-.07.67-.21.95-.14.28-.34.58-.6.88l-2.63,3.11h-1.11Zm1.02-3.82c.29.3.66.45,1.1.45s.81-.15,1.1-.45.45-.67.45-1.1-.15-.8-.45-1.1c-.3-.3-.66-.45-1.1-.45s-.8.15-1.1.45c-.29.3-.44.67-.44,1.1s.15.8.44,1.1Z"/><path d="m207.4,283.41c-.14.15-.32.22-.53.22s-.39-.07-.53-.22c-.14-.15-.22-.33-.22-.54s.07-.38.22-.53.32-.23.53-.23.38.08.53.23.22.33.22.53-.07.39-.22.54Z"/><path d="m209.24,283.55v-6.32h-1.39l.71-.86h1.55v7.18h-.87Z"/><path d="m93.43,67.46v-4.26h-1.07v-.8h1.07v-1.02c0-.51.14-.89.42-1.16.28-.27.66-.4,1.12-.4.28,0,.54.04.79.13v.77c-.16-.07-.36-.1-.63-.1-.29,0-.5.06-.64.19-.14.13-.2.35-.2.67v.93h1.47v.8h-1.47v4.26h-.87Z"/><path d="m98.74,67.57c-.74,0-1.34-.25-1.83-.75s-.72-1.13-.72-1.88.23-1.39.7-1.89c.47-.5,1.09-.74,1.87-.74s1.4.28,1.84.83c.45.55.64,1.23.59,2.03h-4.12c.01.46.18.84.51,1.15.32.31.71.46,1.17.46.69,0,1.18-.28,1.47-.85h.89c-.13.47-.4.86-.82,1.17s-.93.47-1.55.47Zm.99-4.13c-.28-.24-.61-.36-1-.36s-.74.12-1.05.35c-.31.24-.5.59-.57,1.05h3.16c-.08-.46-.26-.81-.54-1.05Z"/><path d="m108.96,67.46v-2.97c0-.42-.09-.75-.26-1.01s-.42-.38-.74-.38c-.41,0-.73.16-.99.48-.25.32-.39.75-.4,1.29v2.59h-.87v-2.97c0-.42-.09-.76-.26-1.01-.17-.25-.42-.37-.73-.37-.42,0-.76.17-1.01.5-.26.33-.38.78-.38,1.35v2.51h-.87v-5.06h.87v.78c.32-.59.83-.88,1.53-.88.77,0,1.29.36,1.56,1.08.13-.33.35-.59.65-.79.3-.2.63-.29,1.01-.29.55,0,.98.19,1.29.56.32.37.48.87.48,1.5v3.11h-.87Z"/><path d="m113.48,67.57c-.7,0-1.29-.26-1.76-.77-.48-.51-.71-1.13-.71-1.86s.24-1.35.71-1.86c.47-.51,1.06-.77,1.76-.77.37,0,.72.08,1.04.25s.57.38.74.63v-.78h.87v5.06h-.87v-.78c-.18.26-.42.47-.74.63s-.67.25-1.04.25Zm.13-.8c.5,0,.91-.17,1.23-.53.32-.35.49-.79.49-1.3s-.16-.95-.49-1.31c-.32-.35-.74-.53-1.23-.53s-.92.17-1.24.53c-.32.35-.49.79-.49,1.31s.16.95.49,1.3c.32.35.74.53,1.24.53Z"/><path d="m117.77,67.46v-7.59h.87v7.59h-.87Z"/><path d="m122.45,67.57c-.74,0-1.34-.25-1.83-.75s-.72-1.13-.72-1.88.23-1.39.7-1.89c.47-.5,1.09-.74,1.87-.74s1.4.28,1.84.83c.45.55.64,1.23.59,2.03h-4.12c.01.46.18.84.51,1.15.32.31.71.46,1.17.46.69,0,1.18-.28,1.47-.85h.89c-.13.47-.4.86-.82,1.17s-.93.47-1.55.47Zm.99-4.13c-.28-.24-.61-.36-1-.36s-.74.12-1.05.35c-.31.24-.5.59-.57,1.05h3.16c-.08-.46-.26-.81-.54-1.05Z"/><path d="m130.67,67.57c-.7,0-1.29-.26-1.76-.77-.48-.51-.71-1.13-.71-1.86s.24-1.35.71-1.86c.47-.51,1.06-.77,1.76-.77.37,0,.72.08,1.04.25s.57.38.74.63v-3.31h.87v7.59h-.87v-.78c-.18.26-.42.47-.74.63s-.67.25-1.04.25Zm.13-.8c.5,0,.91-.17,1.23-.53.32-.35.49-.79.49-1.3s-.16-.95-.49-1.31c-.32-.35-.74-.53-1.23-.53s-.92.17-1.24.53c-.32.35-.49.79-.49,1.31s.16.95.49,1.3c.32.35.74.53,1.24.53Z"/><path d="m137.12,67.57c-.74,0-1.34-.25-1.83-.75s-.72-1.13-.72-1.88.23-1.39.7-1.89c.47-.5,1.09-.74,1.87-.74s1.4.28,1.84.83c.45.55.64,1.23.59,2.03h-4.12c.01.46.18.84.51,1.15.32.31.71.46,1.17.46.69,0,1.18-.28,1.47-.85h.89c-.13.47-.4.86-.82,1.17s-.93.47-1.55.47Zm.99-4.13c-.28-.24-.61-.36-1-.36s-.74.12-1.05.35c-.31.24-.5.59-.57,1.05h3.16c-.08-.46-.26-.81-.54-1.05Z"/><path d="m142.91,67.57c-.7,0-1.29-.26-1.76-.77-.48-.51-.71-1.13-.71-1.86s.24-1.35.71-1.86c.47-.51,1.06-.77,1.76-.77.37,0,.72.08,1.04.25s.57.38.74.63v-.78h.87v5.06h-.87v-.78c-.18.26-.42.47-.74.63s-.67.25-1.04.25Zm.13-.8c.5,0,.91-.17,1.23-.53.32-.35.49-.79.49-1.3s-.16-.95-.49-1.31c-.32-.35-.74-.53-1.23-.53s-.92.17-1.24.53c-.32.35-.49.79-.49,1.31s.16.95.49,1.3c.32.35.74.53,1.24.53Z"/><path d="m149.16,67.51c-.46,0-.84-.13-1.12-.39-.28-.26-.42-.65-.42-1.15v-2.76h-1.07v-.8h1.07v-1.41h.87v1.41h1.46v.8h-1.46v2.65c0,.32.07.54.2.67.13.13.35.19.64.19.26,0,.46-.03.62-.1v.78c-.24.08-.5.12-.78.12Z"/><path d="m151.92,67.46h-.87v-7.59h.87v3.31c.34-.59.88-.88,1.61-.88.57,0,1.04.19,1.39.56s.53.87.53,1.49v3.12h-.86v-2.98c0-.42-.11-.76-.32-1.01s-.51-.37-.87-.37c-.42,0-.77.17-1.05.5-.28.33-.42.78-.42,1.36v2.51Z"/><path d="m159.45,67.46v-5.06h.87v.98c.09-.31.28-.56.55-.75.27-.19.56-.28.87-.28.15,0,.28.01.39.04v.9c-.12-.05-.28-.08-.48-.08-.35,0-.66.15-.93.46-.27.3-.41.73-.41,1.29v2.51h-.87Z"/><path d="m165.06,67.57c-.7,0-1.29-.26-1.76-.77-.48-.51-.71-1.13-.71-1.86s.24-1.35.71-1.86c.47-.51,1.06-.77,1.76-.77.37,0,.72.08,1.04.25s.57.38.74.63v-.78h.87v5.06h-.87v-.78c-.18.26-.42.47-.74.63s-.67.25-1.04.25Zm.13-.8c.5,0,.91-.17,1.23-.53.32-.35.49-.79.49-1.3s-.16-.95-.49-1.31c-.32-.35-.74-.53-1.23-.53s-.92.17-1.24.53c-.32.35-.49.79-.49,1.31s.16.95.49,1.3c.32.35.74.53,1.24.53Z"/><path d="m171.32,67.51c-.46,0-.84-.13-1.12-.39-.28-.26-.42-.65-.42-1.15v-2.76h-1.07v-.8h1.07v-1.41h.87v1.41h1.46v.8h-1.46v2.65c0,.32.07.54.2.67.13.13.35.19.64.19.26,0,.46-.03.62-.1v.78c-.24.08-.5.12-.78.12Z"/><path d="m175.29,67.57c-.74,0-1.34-.25-1.83-.75s-.72-1.13-.72-1.88.23-1.39.7-1.89c.47-.5,1.09-.74,1.87-.74s1.4.28,1.84.83c.45.55.64,1.23.59,2.03h-4.12c.01.46.18.84.51,1.15.32.31.71.46,1.17.46.69,0,1.18-.28,1.47-.85h.89c-.13.47-.4.86-.82,1.17s-.93.47-1.55.47Zm.99-4.13c-.28-.24-.61-.36-1-.36s-.74.12-1.05.35c-.31.24-.5.59-.57,1.05h3.16c-.08-.46-.26-.81-.54-1.05Z"/><path d="m180.09,63.58c-.14.15-.32.22-.53.22s-.39-.07-.53-.22c-.14-.15-.22-.33-.22-.54s.07-.38.22-.53c.15-.15.32-.23.53-.23s.38.08.53.23c.15.15.22.33.22.53s-.07.39-.22.54Zm0,3.74c-.14.15-.32.22-.53.22s-.39-.07-.53-.22c-.14-.15-.22-.33-.22-.54s.07-.38.22-.53c.15-.15.32-.23.53-.23s.38.08.53.23.22.33.22.53-.07.39-.22.54Z"/><path d="m184.98,67.46h-.97l3.35-6.33h-3.67v-.85h4.71v.73l-3.42,6.46Z"/><path d="m193.69,66.62v.84h-4.65v-.34c0-.25.04-.49.12-.71.08-.23.16-.42.26-.57s.24-.33.45-.52c.2-.19.36-.33.48-.42.11-.09.31-.23.58-.42.27-.19.45-.32.54-.38.48-.35.81-.65,1-.89s.28-.55.28-.95-.12-.68-.36-.91c-.24-.23-.56-.34-.95-.34-.41,0-.76.12-1.05.37-.29.25-.44.6-.44,1.04h-.89c0-.67.22-1.22.67-1.64.45-.42,1.01-.63,1.7-.63.63,0,1.16.18,1.58.55s.63.88.63,1.56c0,.51-.12.95-.38,1.31-.25.36-.68.76-1.29,1.2-.11.08-.28.19-.49.34-.21.15-.37.26-.49.35-.12.09-.24.19-.38.32-.14.12-.25.26-.32.39-.08.14-.13.29-.17.45h3.58Z"/><path d="m195.99,67.32c-.14.15-.32.22-.53.22s-.39-.07-.53-.22c-.14-.15-.22-.33-.22-.54s.07-.38.22-.53.32-.23.53-.23.38.08.53.23.22.33.22.53-.07.39-.22.54Z"/><path d="m199.5,67.57c-.65,0-1.21-.2-1.68-.61-.47-.4-.71-.88-.73-1.44h.89c.08.35.26.64.54.86.28.22.6.33.98.33.44,0,.81-.15,1.1-.45.3-.3.45-.66.45-1.09s-.14-.81-.42-1.1-.64-.45-1.08-.45c-.6,0-1.05.24-1.36.73l-.83-.24.74-3.83h3.36v.85h-2.66l-.4,2.05c.35-.25.77-.38,1.25-.38.67,0,1.22.23,1.64.7.43.47.64,1.06.64,1.78,0,.63-.23,1.17-.7,1.61-.47.44-1.05.66-1.74.66Z"/></g></svg>