<?xml version="1.0" encoding="UTF-8"?><svg id="_图层_2" xmlns="http://www.w3.org/2000/svg" viewBox="0 0 315.77 304.48"><defs><style>.cls-1{fill:#fff;}.cls-2{fill:none;stroke:#241f20;stroke-miterlimit:10;stroke-width:.5px;}</style></defs><g id="_图层_1-2"><path class="cls-1" d="m312.92,131.71c-36.04,145.82-80.74,183.33-221.06,170.39C18,295.29,20.94,159.41,11.35,131.71-20.74,39.03,15.69-36.3,114.76,18.58c94.05,52.09,221.69,17.91,198.16,113.13Z"/><path d="m36.38,78.32v-6.39h.84v6.39h-.84Z"/><path d="m38.77,78.32v-4.5h.77v.69c.31-.52.78-.78,1.43-.78.51,0,.92.17,1.23.5.31.33.47.77.47,1.32v2.77h-.76v-2.65c0-.38-.1-.68-.29-.9-.19-.22-.45-.33-.77-.33-.37,0-.68.15-.93.44-.25.29-.37.7-.37,1.21v2.23h-.77Z"/><path d="m50.09,77.57v.75h-4.14v-.31c0-.22.03-.43.1-.63.07-.2.14-.37.23-.51.08-.14.22-.29.4-.46s.32-.3.42-.38c.1-.08.27-.21.51-.38.24-.17.4-.28.48-.34.43-.31.72-.57.89-.79s.25-.49.25-.84-.11-.6-.32-.81c-.22-.2-.5-.3-.85-.3-.37,0-.68.11-.94.33-.26.22-.39.53-.39.93h-.79c0-.6.2-1.09.6-1.46.4-.37.9-.56,1.51-.56.56,0,1.03.16,1.41.49s.56.79.56,1.39c0,.46-.11.84-.33,1.17-.22.32-.6.68-1.14,1.07-.1.07-.25.17-.43.3-.19.13-.33.23-.43.31-.1.08-.21.17-.34.28s-.22.23-.29.35c-.07.12-.12.26-.15.4h3.19Z"/><path d="m53.33,78.41c-.67,0-1.21-.22-1.63-.67s-.63-1.02-.63-1.73v-1.78c0-.71.21-1.29.63-1.73s.96-.67,1.62-.67,1.2.23,1.63.67c.43.45.64,1.03.64,1.73v1.78c0,.71-.21,1.29-.64,1.73s-.97.67-1.63.67Zm0-.76c.44,0,.8-.15,1.08-.44s.41-.7.41-1.21v-1.78c0-.51-.14-.91-.41-1.21s-.64-.44-1.08-.44-.79.15-1.07.44c-.28.29-.41.7-.41,1.21v1.78c0,.51.14.91.41,1.21.28.29.63.44,1.07.44Z"/><path d="m57.45,78.32v-5.62h-1.23l.63-.76h1.38v6.39h-.77Z"/><path d="m61.64,78.41c-.62,0-1.14-.19-1.54-.57-.4-.38-.61-.86-.61-1.44,0-.78.34-1.33,1.01-1.67-.44-.31-.66-.73-.66-1.27,0-.48.17-.88.51-1.18s.77-.46,1.29-.46.96.16,1.29.46.5.7.5,1.18c0,.54-.22.96-.65,1.27.67.33,1,.89,1,1.67,0,.58-.2,1.06-.6,1.44-.4.38-.91.57-1.54.57Zm0-.74c.42,0,.75-.12.99-.36s.36-.54.36-.91-.12-.68-.36-.92c-.24-.24-.57-.36-.99-.36s-.74.12-.99.36-.38.55-.38.91.13.66.38.9c.25.24.58.37.99.37Zm0-3.24c.31,0,.56-.09.75-.27.19-.18.28-.41.28-.67s-.09-.5-.27-.67c-.18-.17-.43-.26-.75-.26s-.56.09-.75.27c-.19.18-.29.4-.29.67s.1.48.29.67c.19.19.44.28.75.28Z"/><path d="m68.69,78.36c-.41,0-.75-.12-1-.35s-.38-.58-.38-1.03v-2.46h-.95v-.71h.95v-1.25h.77v1.25h1.3v.71h-1.3v2.36c0,.28.06.48.18.59.12.11.31.17.57.17.23,0,.41-.03.55-.09v.69c-.22.07-.45.11-.69.11Z"/><path d="m71.15,78.32h-.77v-6.75h.77v2.94c.31-.52.78-.78,1.43-.78.51,0,.92.17,1.23.5.31.33.47.77.47,1.32v2.77h-.76v-2.65c0-.38-.1-.68-.29-.9-.19-.22-.45-.33-.77-.33-.37,0-.68.15-.93.44-.25.29-.37.7-.37,1.21v2.23Z"/><path d="m77.6,78.41c-.65,0-1.2-.22-1.62-.67-.43-.44-.64-1-.64-1.67s.21-1.24.63-1.68c.42-.44.97-.66,1.66-.66s1.24.25,1.64.74c.4.49.57,1.09.52,1.81h-3.66c.01.41.16.75.45,1.02.29.27.64.41,1.04.41.61,0,1.05-.25,1.3-.76h.79c-.11.42-.36.77-.73,1.04-.37.28-.83.41-1.38.41Zm.88-3.68c-.25-.21-.54-.32-.89-.32s-.66.1-.93.31c-.27.21-.44.52-.51.94h2.81c-.07-.41-.23-.72-.48-.93Z"/><path d="m80.89,78.32v-4.5h.77v.87c.08-.28.25-.5.49-.67.24-.17.5-.25.77-.25.13,0,.25.01.35.04v.8c-.11-.05-.25-.07-.42-.07-.31,0-.59.13-.83.4-.24.27-.36.65-.36,1.14v2.23h-.77Z"/><path d="m85.94,78.41c-.65,0-1.2-.22-1.62-.67-.43-.44-.64-1-.64-1.67s.21-1.24.63-1.68c.42-.44.97-.66,1.66-.66s1.24.25,1.64.74c.4.49.57,1.09.52,1.81h-3.66c.01.41.16.75.45,1.02.29.27.64.41,1.04.41.61,0,1.05-.25,1.3-.76h.79c-.11.42-.36.77-.73,1.04-.37.28-.83.41-1.38.41Zm.88-3.68c-.25-.21-.54-.32-.89-.32s-.66.1-.93.31c-.27.21-.44.52-.51.94h2.81c-.07-.41-.23-.72-.48-.93Z"/><path d="m95.06,78.32l-1.12-3.23-1.11,3.23h-.68l-1.53-4.5h.81l1.09,3.29,1.12-3.29h.59l1.12,3.29,1.09-3.29h.82l-1.53,4.5h-.68Z"/><path d="m100.01,78.41c-.65,0-1.2-.22-1.62-.67-.43-.44-.64-1-.64-1.67s.21-1.24.63-1.68c.42-.44.97-.66,1.66-.66s1.24.25,1.64.74c.4.49.57,1.09.52,1.81h-3.66c.01.41.16.75.45,1.02.29.27.64.41,1.04.41.61,0,1.05-.25,1.3-.76h.79c-.11.42-.36.77-.73,1.04-.37.28-.83.41-1.38.41Zm.88-3.68c-.25-.21-.54-.32-.89-.32s-.66.1-.93.31c-.27.21-.44.52-.51.94h2.81c-.07-.41-.23-.72-.48-.93Z"/><path d="m103.3,78.32v-4.5h.77v.87c.08-.28.25-.5.49-.67.24-.17.5-.25.77-.25.13,0,.25.01.35.04v.8c-.11-.05-.25-.07-.42-.07-.31,0-.59.13-.83.4-.24.27-.36.65-.36,1.14v2.23h-.77Z"/><path d="m108.35,78.41c-.65,0-1.2-.22-1.62-.67-.43-.44-.64-1-.64-1.67s.21-1.24.63-1.68c.42-.44.97-.66,1.66-.66s1.24.25,1.64.74c.4.49.57,1.09.52,1.81h-3.66c.01.41.16.75.45,1.02.29.27.64.41,1.04.41.61,0,1.05-.25,1.3-.76h.79c-.11.42-.36.77-.73,1.04-.37.28-.83.41-1.38.41Zm.88-3.68c-.25-.21-.54-.32-.89-.32s-.66.1-.93.31c-.27.21-.44.52-.51.94h2.81c-.07-.41-.23-.72-.48-.93Z"/><path d="m114.39,78.32v-5.62h-1.23l.63-.76h1.38v6.39h-.77Z"/><path d="m120.59,77.57v.75h-4.14v-.31c0-.22.03-.43.1-.63.07-.2.14-.37.23-.51.08-.14.22-.29.4-.46s.32-.3.42-.38c.1-.08.27-.21.51-.38.24-.17.4-.28.48-.34.43-.31.72-.57.89-.79s.25-.49.25-.84-.11-.6-.32-.81c-.22-.2-.5-.3-.85-.3-.37,0-.68.11-.94.33-.26.22-.39.53-.39.93h-.79c0-.6.2-1.09.6-1.46.4-.37.9-.56,1.51-.56.56,0,1.03.16,1.41.49s.56.79.56,1.39c0,.46-.11.84-.33,1.17-.22.32-.6.68-1.14,1.07-.1.07-.25.17-.43.3-.19.13-.33.23-.43.31-.1.08-.21.17-.34.28s-.22.23-.29.35c-.07.12-.12.26-.15.4h3.19Z"/><path d="m124.46,78.32v-1.74h-3.4v-.62l3.5-4.03h.67v3.92h.88v.73h-.88v1.74h-.77Zm-2.39-2.47h2.39v-2.75l-2.39,2.75Z"/><path d="m128.06,78.19c-.13.13-.29.2-.47.2s-.34-.07-.47-.2-.19-.29-.19-.48.07-.34.2-.47.29-.2.47-.2.34.07.47.2c.13.13.2.29.2.47s-.06.34-.19.48Z"/><path d="m133.31,77.57v.75h-4.14v-.31c0-.22.03-.43.1-.63.07-.2.14-.37.23-.51.08-.14.22-.29.4-.46s.32-.3.42-.38c.1-.08.27-.21.51-.38.24-.17.4-.28.48-.34.43-.31.72-.57.89-.79s.25-.49.25-.84-.11-.6-.32-.81c-.22-.2-.5-.3-.85-.3-.37,0-.68.11-.94.33-.26.22-.39.53-.39.93h-.79c0-.6.2-1.09.6-1.46.4-.37.9-.56,1.51-.56.56,0,1.03.16,1.41.49s.56.79.56,1.39c0,.46-.11.84-.33,1.17-.22.32-.6.68-1.14,1.07-.1.07-.25.17-.43.3-.19.13-.33.23-.43.31-.1.08-.21.17-.34.28s-.22.23-.29.35c-.07.12-.12.26-.15.4h3.19Z"/><path d="m137.42,80.2h-.77v-6.38h.77v.69c.16-.23.38-.42.66-.56.29-.15.59-.22.92-.22.62,0,1.15.23,1.57.68.42.46.63,1.01.63,1.66s-.21,1.2-.63,1.66-.95.68-1.57.68c-.33,0-.64-.07-.92-.22-.28-.15-.5-.33-.66-.56v2.57Zm.37-2.97c.29.31.65.47,1.1.47s.81-.16,1.1-.47c.29-.31.43-.7.43-1.16s-.14-.85-.43-1.16c-.29-.31-.65-.47-1.1-.47s-.81.16-1.1.47c-.29.31-.43.7-.43,1.16s.14.85.43,1.16Z"/><path d="m144.24,78.41c-.65,0-1.2-.22-1.62-.67-.43-.44-.64-1-.64-1.67s.21-1.24.63-1.68c.42-.44.97-.66,1.66-.66s1.24.25,1.64.74c.4.49.57,1.09.52,1.81h-3.66c.01.41.16.75.45,1.02.29.27.64.41,1.04.41.61,0,1.05-.25,1.3-.76h.79c-.11.42-.36.77-.73,1.04-.37.28-.83.41-1.38.41Zm.88-3.68c-.25-.21-.54-.32-.89-.32s-.66.1-.93.31c-.27.21-.44.52-.51.94h2.81c-.07-.41-.23-.72-.48-.93Z"/><path d="m147.53,78.32v-4.5h.77v.87c.08-.28.25-.5.49-.67.24-.17.5-.25.77-.25.13,0,.25.01.35.04v.8c-.11-.05-.25-.07-.42-.07-.31,0-.59.13-.83.4-.24.27-.36.65-.36,1.14v2.23h-.77Z"/><path d="m153.35,78.32v-5.62h-1.23l.63-.76h1.38v6.39h-.77Z"/><path d="m157.77,78.41c-.67,0-1.21-.22-1.63-.67s-.63-1.02-.63-1.73v-1.78c0-.71.21-1.29.63-1.73s.96-.67,1.62-.67,1.2.23,1.63.67c.43.45.64,1.03.64,1.73v1.78c0,.71-.21,1.29-.64,1.73s-.97.67-1.63.67Zm0-.76c.44,0,.8-.15,1.08-.44s.41-.7.41-1.21v-1.78c0-.51-.14-.91-.41-1.21s-.64-.44-1.08-.44-.79.15-1.07.44c-.28.29-.41.7-.41,1.21v1.78c0,.51.14.91.41,1.21.28.29.63.44,1.07.44Z"/><path d="m163.37,78.41c-.67,0-1.21-.22-1.63-.67s-.63-1.02-.63-1.73v-1.78c0-.71.21-1.29.63-1.73s.96-.67,1.62-.67,1.2.23,1.63.67c.43.45.64,1.03.64,1.73v1.78c0,.71-.21,1.29-.64,1.73s-.97.67-1.63.67Zm0-.76c.44,0,.8-.15,1.08-.44s.41-.7.41-1.21v-1.78c0-.51-.14-.91-.41-1.21s-.64-.44-1.08-.44-.79.15-1.07.44c-.28.29-.41.7-.41,1.21v1.78c0,.51.14.91.41,1.21.28.29.63.44,1.07.44Z"/><path d="m167.73,78.12l-.93,1.49h-.51l.6-1.29c-.25-.12-.37-.32-.37-.6,0-.18.07-.34.2-.47s.29-.2.47-.2.34.07.47.2.2.29.2.47c0,.13-.04.27-.13.4Z"/><path d="m171,78.41c-.67,0-1.21-.22-1.63-.67s-.63-1.02-.63-1.73v-1.78c0-.71.21-1.29.63-1.73s.96-.67,1.62-.67,1.2.23,1.63.67c.43.45.64,1.03.64,1.73v1.78c0,.71-.21,1.29-.64,1.73s-.97.67-1.63.67Zm0-.76c.44,0,.8-.15,1.08-.44s.41-.7.41-1.21v-1.78c0-.51-.14-.91-.41-1.21s-.64-.44-1.08-.44-.79.15-1.07.44c-.28.29-.41.7-.41,1.21v1.78c0,.51.14.91.41,1.21.28.29.63.44,1.07.44Z"/><path d="m176.6,78.41c-.67,0-1.21-.22-1.63-.67s-.63-1.02-.63-1.73v-1.78c0-.71.21-1.29.63-1.73s.96-.67,1.62-.67,1.2.23,1.63.67c.43.45.64,1.03.64,1.73v1.78c0,.71-.21,1.29-.64,1.73s-.97.67-1.63.67Zm0-.76c.44,0,.8-.15,1.08-.44s.41-.7.41-1.21v-1.78c0-.51-.14-.91-.41-1.21s-.64-.44-1.08-.44-.79.15-1.07.44c-.28.29-.41.7-.41,1.21v1.78c0,.51.14.91.41,1.21.28.29.63.44,1.07.44Z"/><path d="m182.21,78.41c-.67,0-1.21-.22-1.63-.67s-.63-1.02-.63-1.73v-1.78c0-.71.21-1.29.63-1.73s.96-.67,1.62-.67,1.2.23,1.63.67c.43.45.64,1.03.64,1.73v1.78c0,.71-.21,1.29-.64,1.73s-.97.67-1.63.67Zm0-.76c.44,0,.8-.15,1.08-.44s.41-.7.41-1.21v-1.78c0-.51-.14-.91-.41-1.21s-.64-.44-1.08-.44-.79.15-1.07.44c-.28.29-.41.7-.41,1.21v1.78c0,.51.14.91.41,1.21.28.29.63.44,1.07.44Z"/><path d="m189.77,78.41c-.62,0-1.15-.23-1.57-.68s-.63-1.01-.63-1.66.21-1.2.63-1.66c.42-.46.95-.68,1.57-.68.33,0,.64.07.92.22.28.15.5.33.66.56v-2.94h.77v6.75h-.77v-.69c-.16.23-.38.42-.66.56-.29.15-.59.22-.92.22Zm.12-.71c.44,0,.81-.16,1.1-.47.29-.31.43-.7.43-1.16s-.14-.85-.43-1.16c-.29-.31-.65-.47-1.1-.47s-.82.16-1.11.47c-.29.31-.43.7-.43,1.16s.14.85.43,1.16c.29.31.66.47,1.11.47Z"/><path d="m195.5,78.41c-.65,0-1.2-.22-1.62-.67-.43-.44-.64-1-.64-1.67s.21-1.24.63-1.68c.42-.44.97-.66,1.66-.66s1.24.25,1.64.74c.4.49.57,1.09.52,1.81h-3.66c.01.41.16.75.45,1.02.29.27.64.41,1.04.41.61,0,1.05-.25,1.3-.76h.79c-.11.42-.36.77-.73,1.04-.37.28-.83.41-1.38.41Zm.88-3.68c-.25-.21-.54-.32-.89-.32s-.66.1-.93.31c-.27.21-.44.52-.51.94h2.81c-.07-.41-.23-.72-.48-.93Z"/><path d="m200.65,78.41c-.62,0-1.15-.23-1.57-.68s-.63-1.01-.63-1.66.21-1.2.63-1.66c.42-.46.95-.68,1.57-.68.33,0,.64.07.92.22.28.15.5.33.66.56v-.69h.77v4.5h-.77v-.69c-.16.23-.38.42-.66.56-.29.15-.59.22-.92.22Zm.12-.71c.44,0,.81-.16,1.1-.47.29-.31.43-.7.43-1.16s-.14-.85-.43-1.16c-.29-.31-.65-.47-1.1-.47s-.82.16-1.11.47c-.29.31-.43.7-.43,1.16s.14.85.43,1.16c.29.31.66.47,1.11.47Z"/><path d="m206.21,78.36c-.41,0-.75-.12-1-.35s-.38-.58-.38-1.03v-2.46h-.95v-.71h.95v-1.25h.77v1.25h1.3v.71h-1.3v2.36c0,.28.06.48.18.59.12.11.31.17.57.17.23,0,.41-.03.55-.09v.69c-.22.07-.45.11-.69.11Z"/><path d="m208.67,78.32h-.77v-6.75h.77v2.94c.31-.52.78-.78,1.43-.78.51,0,.92.17,1.23.5.31.33.47.77.47,1.32v2.77h-.76v-2.65c0-.38-.1-.68-.29-.9-.19-.22-.45-.33-.77-.33-.37,0-.68.15-.93.44-.25.29-.37.7-.37,1.21v2.23Z"/><path d="m214.64,78.41c-.5,0-.93-.12-1.26-.37s-.53-.59-.56-1.03h.79c.05.25.17.44.37.56.19.12.42.18.68.18s.47-.05.63-.15c.16-.1.24-.25.24-.44,0-.18-.06-.33-.17-.44-.12-.11-.31-.21-.57-.28l-.65-.17c-.77-.2-1.16-.64-1.16-1.32,0-.37.15-.66.44-.88s.66-.33,1.12-.33.84.12,1.14.36c.3.24.46.55.5.92h-.77c-.06-.2-.17-.35-.32-.47-.15-.11-.33-.17-.54-.17-.22,0-.41.05-.55.15-.15.1-.22.24-.22.41s.05.29.16.4c.11.1.28.19.52.25l.72.19c.77.19,1.15.64,1.15,1.33,0,.43-.15.76-.46.98s-.71.33-1.2.33Z"/><path d="m38.62,89.21c-.33,0-.64-.07-.92-.22-.28-.15-.5-.33-.66-.56v.69h-.77v-6.75h.77v2.94c.16-.23.38-.42.66-.56.29-.15.59-.22.92-.22.62,0,1.15.23,1.57.68s.63,1.01.63,1.66-.21,1.2-.63,1.66c-.42.46-.95.68-1.57.68Zm-1.21-1.18c.29.31.65.47,1.1.47s.81-.16,1.1-.47c.29-.31.43-.7.43-1.16s-.14-.85-.43-1.16c-.29-.31-.65-.47-1.1-.47s-.81.16-1.1.47c-.29.31-.43.7-.43,1.16s.14.85.43,1.16Z"/><path d="m43.85,89.21c-.65,0-1.2-.22-1.62-.67s-.64-1-.64-1.67.21-1.24.63-1.68c.42-.44.97-.66,1.66-.66s1.24.25,1.64.74c.4.49.57,1.1.52,1.81h-3.66c.01.41.16.75.45,1.02.29.27.64.41,1.04.41.61,0,1.05-.25,1.3-.76h.79c-.11.42-.36.77-.73,1.04-.37.28-.83.41-1.38.41Zm.88-3.68c-.25-.21-.54-.32-.89-.32s-.66.11-.93.32c-.27.21-.44.52-.51.94h2.81c-.07-.41-.23-.72-.48-.93Z"/><path d="m49.14,89.21c-.68,0-1.24-.23-1.68-.68s-.67-1.01-.67-1.66.22-1.21.67-1.66c.44-.45,1-.68,1.68-.68.56,0,1.04.15,1.45.46.41.31.68.71.82,1.21h-.83c-.11-.29-.29-.53-.54-.7s-.55-.26-.9-.26c-.46,0-.84.16-1.13.47-.29.31-.44.7-.44,1.16s.15.85.44,1.16c.29.31.67.47,1.13.47.35,0,.65-.09.9-.26.25-.17.43-.41.54-.7h.83c-.13.5-.4.9-.81,1.21-.41.31-.89.46-1.46.46Z"/><path d="m54.29,89.21c-.62,0-1.15-.23-1.57-.68-.42-.46-.63-1.01-.63-1.66s.21-1.2.63-1.66.95-.68,1.57-.68c.33,0,.64.07.92.22.28.15.5.33.66.56v-.69h.77v4.5h-.77v-.69c-.16.23-.38.42-.66.56-.29.15-.59.22-.92.22Zm.12-.71c.44,0,.81-.16,1.1-.47.29-.31.43-.7.43-1.16s-.14-.85-.43-1.16c-.29-.31-.65-.47-1.1-.47s-.82.16-1.11.47c-.29.31-.43.7-.43,1.16s.14.85.43,1.16c.29.31.66.47,1.11.47Z"/><path d="m59.7,89.21c-.49,0-.89-.17-1.2-.5s-.46-.78-.46-1.33v-2.76h.77v2.65c0,.38.09.68.27.9.18.22.43.33.74.33.36,0,.66-.15.9-.45s.36-.7.36-1.2v-2.23h.77v4.5h-.77v-.69c-.29.52-.76.78-1.39.78Z"/><path d="m64.76,89.21c-.5,0-.93-.12-1.26-.37s-.53-.59-.56-1.03h.79c.05.25.17.44.37.56.19.12.42.18.68.18s.47-.05.63-.15c.16-.1.24-.25.24-.44,0-.18-.06-.33-.17-.44-.12-.11-.31-.21-.57-.28l-.65-.17c-.77-.2-1.16-.65-1.16-1.32,0-.37.15-.66.44-.88.29-.22.66-.33,1.12-.33s.84.12,1.14.36.46.55.5.92h-.77c-.06-.2-.17-.35-.32-.47-.15-.11-.33-.17-.54-.17-.22,0-.41.05-.55.15-.15.1-.22.24-.22.41s.05.29.16.4c.11.1.28.19.52.25l.72.19c.77.19,1.15.64,1.15,1.33,0,.43-.15.76-.46.98-.31.22-.71.33-1.2.33Z"/><path d="m69.43,89.21c-.65,0-1.2-.22-1.62-.67s-.64-1-.64-1.67.21-1.24.63-1.68c.42-.44.97-.66,1.66-.66s1.24.25,1.64.74c.4.49.57,1.1.52,1.81h-3.66c.01.41.16.75.45,1.02.29.27.64.41,1.04.41.61,0,1.05-.25,1.3-.76h.79c-.11.42-.36.77-.73,1.04-.37.28-.83.41-1.38.41Zm.88-3.68c-.25-.21-.54-.32-.89-.32s-.66.11-.93.32c-.27.21-.44.52-.51.94h2.81c-.07-.41-.23-.72-.48-.93Z"/><path d="m76.89,89.21c-.68,0-1.24-.23-1.69-.68-.45-.45-.67-1.01-.67-1.66s.22-1.21.67-1.66c.45-.45,1.01-.68,1.69-.68s1.23.23,1.68.68c.45.45.67,1.01.67,1.66s-.22,1.21-.67,1.66-1.01.68-1.68.68Zm-1.13-1.19c.29.31.67.47,1.13.47s.84-.16,1.12-.47c.29-.31.43-.7.43-1.15s-.14-.84-.43-1.15c-.29-.31-.66-.47-1.12-.47s-.84.16-1.13.47c-.29.31-.44.7-.44,1.15s.15.84.44,1.15Z"/><path d="m80.66,89.12v-3.79h-.95v-.71h.95v-.91c0-.45.13-.79.38-1.04s.58-.36,1-.36c.25,0,.48.04.7.12v.68c-.14-.06-.32-.09-.56-.09-.26,0-.45.06-.57.17-.12.11-.18.31-.18.59v.83h1.3v.71h-1.3v3.79h-.77Z"/><path d="m88.51,89.22c-.94,0-1.73-.32-2.36-.95s-.95-1.42-.95-2.35.32-1.72.95-2.35,1.42-.95,2.36-.95c.77,0,1.43.22,1.99.65.56.43.92.95,1.07,1.57h-.88c-.15-.41-.42-.75-.81-1.02-.39-.27-.85-.4-1.36-.4-.71,0-1.3.24-1.77.72-.47.48-.71,1.08-.71,1.79s.24,1.3.71,1.79c.47.48,1.06.72,1.77.72.52,0,.97-.13,1.36-.4.39-.27.66-.61.81-1.02h.88c-.15.61-.51,1.13-1.07,1.57-.56.43-1.23.65-1.99.65Z"/><path d="m94.46,89.21c-.62,0-1.15-.23-1.57-.68-.42-.46-.63-1.01-.63-1.66s.21-1.2.63-1.66.95-.68,1.57-.68c.33,0,.64.07.92.22.28.15.5.33.66.56v-.69h.77v4.5h-.77v-.69c-.16.23-.38.42-.66.56-.29.15-.59.22-.92.22Zm.12-.71c.44,0,.81-.16,1.1-.47.29-.31.43-.7.43-1.16s-.14-.85-.43-1.16c-.29-.31-.65-.47-1.1-.47s-.82.16-1.11.47c-.29.31-.43.7-.43,1.16s.14.85.43,1.16c.29.31.66.47,1.11.47Z"/><path d="m98.28,89.12v-4.5h.77v.69c.31-.52.78-.78,1.43-.78.51,0,.92.17,1.23.49.31.33.47.77.47,1.32v2.77h-.76v-2.66c0-.38-.1-.68-.29-.9s-.45-.33-.77-.33c-.37,0-.68.15-.93.44-.25.29-.37.7-.37,1.21v2.23h-.77Z"/><path d="m105.58,89.21c-.68,0-1.24-.23-1.68-.68s-.67-1.01-.67-1.66.22-1.21.67-1.66c.44-.45,1-.68,1.68-.68.56,0,1.04.15,1.45.46.41.31.68.71.82,1.21h-.83c-.11-.29-.29-.53-.54-.7s-.55-.26-.9-.26c-.46,0-.84.16-1.13.47-.29.31-.44.7-.44,1.16s.15.85.44,1.16c.29.31.67.47,1.13.47.35,0,.65-.09.9-.26.25-.17.43-.41.54-.7h.83c-.13.5-.4.9-.81,1.21-.41.31-.89.46-1.46.46Z"/><path d="m110.79,89.21c-.65,0-1.2-.22-1.62-.67s-.64-1-.64-1.67.21-1.24.63-1.68c.42-.44.97-.66,1.66-.66s1.24.25,1.64.74c.4.49.57,1.1.52,1.81h-3.66c.01.41.16.75.45,1.02.29.27.64.41,1.04.41.61,0,1.05-.25,1.3-.76h.79c-.11.42-.36.77-.73,1.04-.37.28-.83.41-1.38.41Zm.88-3.68c-.25-.21-.54-.32-.89-.32s-.66.11-.93.32c-.27.21-.44.52-.51.94h2.81c-.07-.41-.23-.72-.48-.93Z"/><path d="m114.08,89.12v-4.5h.77v.87c.08-.28.25-.5.49-.67.24-.17.5-.25.77-.25.13,0,.25.01.35.04v.8c-.11-.05-.25-.07-.42-.07-.31,0-.59.13-.83.41-.24.27-.36.65-.36,1.14v2.23h-.77Z"/><path d="m117.76,88.99c-.13.13-.29.2-.47.2s-.34-.07-.47-.2-.19-.29-.19-.48.07-.34.2-.47c.13-.13.29-.2.47-.2s.34.07.47.2c.13.14.2.29.2.47s-.06.35-.19.48Z"/><path d="m57.57,248.58v-3.79h-.95v-.71h.95v-.91c0-.45.13-.79.38-1.04s.58-.36,1-.36c.25,0,.48.04.7.12v.68c-.14-.06-.32-.09-.56-.09-.26,0-.45.06-.57.17-.12.11-.18.31-.18.59v.83h1.3v.71h-1.3v3.79h-.77Z"/><path d="m62.3,248.67c-.65,0-1.2-.22-1.62-.67s-.64-1-.64-1.67.21-1.24.63-1.68c.42-.44.97-.66,1.66-.66s1.24.25,1.64.74c.4.49.57,1.1.52,1.81h-3.66c.01.41.16.75.45,1.02.29.27.64.41,1.04.41.61,0,1.05-.25,1.3-.76h.79c-.11.42-.36.77-.73,1.04-.37.28-.83.41-1.38.41Zm.88-3.68c-.25-.21-.54-.32-.89-.32s-.66.11-.93.32c-.27.21-.44.52-.51.94h2.81c-.07-.41-.23-.72-.48-.93Z"/><path d="m71.39,248.58v-2.65c0-.37-.08-.67-.23-.9-.15-.22-.37-.34-.66-.34-.36,0-.65.14-.88.42-.23.28-.34.67-.36,1.15v2.3h-.77v-2.65c0-.38-.08-.68-.23-.9-.15-.22-.37-.33-.65-.33-.37,0-.67.15-.9.45-.23.3-.34.7-.34,1.2v2.23h-.77v-4.5h.77v.69c.29-.52.74-.78,1.36-.78.68,0,1.15.32,1.39.96.12-.29.31-.53.58-.7.26-.17.56-.26.9-.26.49,0,.87.17,1.15.49.28.33.42.77.42,1.33v2.76h-.77Z"/><path d="m75.41,248.67c-.62,0-1.15-.23-1.57-.68-.42-.46-.63-1.01-.63-1.66s.21-1.2.63-1.66.95-.68,1.57-.68c.33,0,.64.07.92.22.28.15.5.33.66.56v-.69h.77v4.5h-.77v-.69c-.16.23-.38.42-.66.56-.29.15-.59.22-.92.22Zm.12-.71c.44,0,.81-.16,1.1-.47.29-.31.43-.7.43-1.16s-.14-.85-.43-1.16c-.29-.31-.65-.47-1.1-.47s-.82.16-1.11.47c-.29.31-.43.7-.43,1.16s.14.85.43,1.16c.29.31.66.47,1.11.47Z"/><path d="m79.22,248.58v-6.75h.77v6.75h-.77Z"/><path d="m83.38,248.67c-.65,0-1.2-.22-1.62-.67s-.64-1-.64-1.67.21-1.24.63-1.68c.42-.44.97-.66,1.66-.66s1.24.25,1.64.74c.4.49.57,1.1.52,1.81h-3.66c.01.41.16.75.45,1.02.29.27.64.41,1.04.41.61,0,1.05-.25,1.3-.76h.79c-.11.42-.36.77-.73,1.04-.37.28-.83.41-1.38.41Zm.88-3.68c-.25-.21-.54-.32-.89-.32s-.66.11-.93.32c-.27.21-.44.52-.51.94h2.81c-.07-.41-.23-.72-.48-.93Z"/><path d="m90.7,248.67c-.62,0-1.15-.23-1.57-.68-.42-.46-.63-1.01-.63-1.66s.21-1.2.63-1.66.95-.68,1.57-.68c.33,0,.64.07.92.22.28.15.5.33.66.56v-2.94h.77v6.75h-.77v-.69c-.16.23-.38.42-.66.56-.29.15-.59.22-.92.22Zm.12-.71c.44,0,.81-.16,1.1-.47.29-.31.43-.7.43-1.16s-.14-.85-.43-1.16c-.29-.31-.65-.47-1.1-.47s-.82.16-1.11.47c-.29.31-.43.7-.43,1.16s.14.85.43,1.16c.29.31.66.47,1.11.47Z"/><path d="m96.43,248.67c-.65,0-1.2-.22-1.62-.67s-.64-1-.64-1.67.21-1.24.63-1.68c.42-.44.97-.66,1.66-.66s1.24.25,1.64.74c.4.49.57,1.1.52,1.81h-3.66c.01.41.16.75.45,1.02.29.27.64.41,1.04.41.61,0,1.05-.25,1.3-.76h.79c-.11.42-.36.77-.73,1.04-.37.28-.83.41-1.38.41Zm.88-3.68c-.25-.21-.54-.32-.89-.32s-.66.11-.93.32c-.27.21-.44.52-.51.94h2.81c-.07-.41-.23-.72-.48-.93Z"/><path d="m101.58,248.67c-.62,0-1.15-.23-1.57-.68-.42-.46-.63-1.01-.63-1.66s.21-1.2.63-1.66.95-.68,1.57-.68c.33,0,.64.07.92.22.28.15.5.33.66.56v-.69h.77v4.5h-.77v-.69c-.16.23-.38.42-.66.56-.29.15-.59.22-.92.22Zm.12-.71c.44,0,.81-.16,1.1-.47.29-.31.43-.7.43-1.16s-.14-.85-.43-1.16c-.29-.31-.65-.47-1.1-.47s-.82.16-1.11.47c-.29.31-.43.7-.43,1.16s.14.85.43,1.16c.29.31.66.47,1.11.47Z"/><path d="m107.14,248.63c-.41,0-.75-.12-1-.35-.25-.23-.38-.58-.38-1.03v-2.46h-.95v-.71h.95v-1.25h.77v1.25h1.3v.71h-1.3v2.36c0,.28.06.48.18.59.12.11.31.17.57.17.23,0,.41-.03.55-.09v.69c-.22.07-.45.11-.69.11Z"/><path d="m109.6,248.58h-.77v-6.75h.77v2.94c.31-.52.78-.78,1.43-.78.51,0,.92.17,1.23.49.31.33.47.77.47,1.32v2.77h-.76v-2.66c0-.38-.1-.68-.29-.9s-.45-.33-.77-.33c-.37,0-.68.15-.93.44-.25.29-.37.7-.37,1.21v2.23Z"/><path d="m116.29,248.58v-4.5h.77v.87c.08-.28.25-.5.49-.67.24-.17.5-.25.77-.25.13,0,.25.01.35.04v.8c-.11-.05-.25-.07-.42-.07-.31,0-.59.13-.83.41-.24.27-.36.65-.36,1.14v2.23h-.77Z"/><path d="m121.29,248.67c-.62,0-1.15-.23-1.57-.68-.42-.46-.63-1.01-.63-1.66s.21-1.2.63-1.66.95-.68,1.57-.68c.33,0,.64.07.92.22.28.15.5.33.66.56v-.69h.77v4.5h-.77v-.69c-.16.23-.38.42-.66.56-.29.15-.59.22-.92.22Zm.12-.71c.44,0,.81-.16,1.1-.47.29-.31.43-.7.43-1.16s-.14-.85-.43-1.16c-.29-.31-.65-.47-1.1-.47s-.82.16-1.11.47c-.29.31-.43.7-.43,1.16s.14.85.43,1.16c.29.31.66.47,1.11.47Z"/><path d="m126.85,248.63c-.41,0-.75-.12-1-.35-.25-.23-.38-.58-.38-1.03v-2.46h-.95v-.71h.95v-1.25h.77v1.25h1.3v.71h-1.3v2.36c0,.28.06.48.18.59.12.11.31.17.57.17.23,0,.41-.03.55-.09v.69c-.22.07-.45.11-.69.11Z"/><path d="m130.39,248.67c-.65,0-1.2-.22-1.62-.67s-.64-1-.64-1.67.21-1.24.63-1.68c.42-.44.97-.66,1.66-.66s1.24.25,1.64.74c.4.49.57,1.1.52,1.81h-3.66c.01.41.16.75.45,1.02.29.27.64.41,1.04.41.61,0,1.05-.25,1.3-.76h.79c-.11.42-.36.77-.73,1.04-.37.28-.83.41-1.38.41Zm.88-3.68c-.25-.21-.54-.32-.89-.32s-.66.11-.93.32c-.27.21-.44.52-.51.94h2.81c-.07-.41-.23-.72-.48-.93Z"/><path d="m134.66,245.13c-.13.13-.29.2-.47.2s-.34-.07-.47-.2-.19-.29-.19-.48.07-.34.2-.47c.13-.14.29-.2.47-.2s.34.07.47.2c.13.13.2.29.2.47s-.07.35-.19.48Zm0,3.33c-.13.13-.29.2-.47.2s-.34-.07-.47-.2-.19-.29-.19-.48.07-.34.2-.47c.13-.13.29-.2.47-.2s.34.07.47.2c.13.14.2.29.2.47s-.07.35-.19.48Z"/><path d="m138.25,248.58l1.97-2.32c-.07,0-.15,0-.25,0-.53,0-1-.2-1.4-.61-.4-.41-.6-.89-.6-1.44,0-.6.21-1.11.62-1.52.41-.41.92-.62,1.54-.62s1.13.2,1.55.61c.41.41.62.91.62,1.49,0,.31-.06.59-.18.84s-.3.51-.54.79l-2.34,2.76h-.99Zm.9-3.4c.26.27.59.4.98.4s.72-.13.98-.4c.26-.27.4-.59.4-.98s-.13-.71-.4-.98c-.26-.27-.59-.4-.98-.4s-.72.13-.98.4-.39.59-.39.98.13.71.39.98Z"/><path d="m145.42,248.67c-.67,0-1.21-.22-1.63-.67-.42-.45-.63-1.02-.63-1.73v-1.78c0-.71.21-1.29.63-1.73.42-.45.96-.67,1.62-.67s1.2.22,1.63.67.64,1.03.64,1.73v1.78c0,.71-.21,1.29-.64,1.73-.43.45-.97.67-1.63.67Zm0-.76c.44,0,.8-.15,1.08-.44s.41-.7.41-1.21v-1.78c0-.51-.14-.91-.41-1.21s-.64-.44-1.08-.44-.79.15-1.07.44c-.28.29-.41.7-.41,1.21v1.78c0,.51.14.91.41,1.21.28.29.63.44,1.07.44Z"/><path d="m149.69,248.46c-.13.13-.29.2-.47.2s-.34-.07-.47-.2-.19-.29-.19-.48.07-.34.2-.47c.13-.13.29-.2.47-.2s.34.07.47.2c.13.14.2.29.2.47s-.06.35-.19.48Z"/><path d="m152.92,248.67c-.62,0-1.14-.19-1.54-.57-.4-.38-.61-.86-.61-1.44,0-.78.34-1.33,1.01-1.67-.44-.31-.66-.74-.66-1.27,0-.48.17-.87.51-1.18.34-.31.77-.46,1.29-.46s.96.15,1.29.46c.33.31.5.7.5,1.18,0,.54-.22.96-.65,1.27.67.33,1,.88,1,1.67,0,.58-.2,1.06-.6,1.44-.4.38-.91.57-1.54.57Zm0-.74c.42,0,.75-.12.99-.36.24-.24.36-.54.36-.91s-.12-.68-.36-.92-.57-.36-.99-.36-.74.12-.99.36-.38.55-.38.91.13.66.38.9.58.36.99.36Zm0-3.24c.31,0,.56-.09.75-.27.19-.18.28-.41.28-.67s-.09-.5-.27-.67c-.18-.17-.43-.26-.75-.26s-.56.09-.75.27c-.19.18-.29.4-.29.67s.1.48.29.67c.19.19.44.28.75.28Z"/><path d="m159.04,248.58v-1.74h-3.4v-.62l3.5-4.03h.67v3.92h.88v.73h-.88v1.74h-.77Zm-2.39-2.47h2.39v-2.75l-2.39,2.75Z"/><path d="m214.26,171.51v-2.65c0-.37-.08-.67-.23-.9-.15-.23-.37-.34-.66-.34-.36,0-.65.14-.88.42-.23.28-.34.67-.36,1.15v2.3h-.77v-2.65c0-.38-.08-.68-.23-.9-.15-.22-.37-.33-.65-.33-.37,0-.67.15-.9.45-.23.3-.34.7-.34,1.2v2.23h-.77v-4.5h.77v.69c.29-.52.74-.78,1.36-.78.68,0,1.15.32,1.39.96.12-.29.31-.53.58-.7.26-.17.56-.26.9-.26.49,0,.87.17,1.15.5s.42.77.42,1.33v2.76h-.77Z"/><path d="m218.28,171.6c-.62,0-1.15-.23-1.57-.68s-.63-1.01-.63-1.66.21-1.2.63-1.66c.42-.46.95-.68,1.57-.68.33,0,.64.07.92.22.28.15.5.33.66.56v-.69h.77v4.5h-.77v-.69c-.16.23-.38.42-.66.56-.29.15-.59.22-.92.22Zm.12-.71c.44,0,.81-.16,1.1-.47.29-.31.43-.7.43-1.16s-.14-.85-.43-1.16c-.29-.31-.65-.47-1.1-.47s-.82.16-1.11.47c-.29.31-.43.7-.43,1.16s.14.85.43,1.16c.29.31.66.47,1.11.47Z"/><path d="m222.1,171.51v-6.75h.77v6.75h-.77Z"/><path d="m226.25,171.6c-.65,0-1.2-.22-1.62-.67-.43-.44-.64-1-.64-1.67s.21-1.24.63-1.68c.42-.44.97-.66,1.66-.66s1.24.25,1.64.74c.4.49.57,1.09.52,1.81h-3.66c.01.41.16.75.45,1.02.29.27.64.41,1.04.41.61,0,1.05-.25,1.3-.76h.79c-.11.42-.36.77-.73,1.04-.37.28-.83.41-1.38.41Zm.88-3.68c-.25-.21-.54-.32-.89-.32s-.66.1-.93.31c-.27.21-.44.52-.51.94h2.81c-.07-.41-.23-.72-.48-.93Z"/><path d="m233.57,171.6c-.62,0-1.15-.23-1.57-.68s-.63-1.01-.63-1.66.21-1.2.63-1.66c.42-.46.95-.68,1.57-.68.33,0,.64.07.92.22.28.15.5.33.66.56v-2.94h.77v6.75h-.77v-.69c-.16.23-.38.42-.66.56-.29.15-.59.22-.92.22Zm.12-.71c.44,0,.81-.16,1.1-.47.29-.31.43-.7.43-1.16s-.14-.85-.43-1.16c-.29-.31-.65-.47-1.1-.47s-.82.16-1.11.47c-.29.31-.43.7-.43,1.16s.14.85.43,1.16c.29.31.66.47,1.11.47Z"/><path d="m239.3,171.6c-.65,0-1.2-.22-1.62-.67-.43-.44-.64-1-.64-1.67s.21-1.24.63-1.68c.42-.44.97-.66,1.66-.66s1.24.25,1.64.74c.4.49.57,1.09.52,1.81h-3.66c.01.41.16.75.45,1.02.29.27.64.41,1.04.41.61,0,1.05-.25,1.3-.76h.79c-.11.42-.36.77-.73,1.04-.37.28-.83.41-1.38.41Zm.88-3.68c-.25-.21-.54-.32-.89-.32s-.66.1-.93.31c-.27.21-.44.52-.51.94h2.81c-.07-.41-.23-.72-.48-.93Z"/><path d="m244.45,171.6c-.62,0-1.15-.23-1.57-.68s-.63-1.01-.63-1.66.21-1.2.63-1.66c.42-.46.95-.68,1.57-.68.33,0,.64.07.92.22.28.15.5.33.66.56v-.69h.77v4.5h-.77v-.69c-.16.23-.38.42-.66.56-.29.15-.59.22-.92.22Zm.12-.71c.44,0,.81-.16,1.1-.47.29-.31.43-.7.43-1.16s-.14-.85-.43-1.16c-.29-.31-.65-.47-1.1-.47s-.82.16-1.11.47c-.29.31-.43.7-.43,1.16s.14.85.43,1.16c.29.31.66.47,1.11.47Z"/><path d="m250.01,171.55c-.41,0-.75-.12-1-.35s-.38-.58-.38-1.03v-2.46h-.95v-.71h.95v-1.25h.77v1.25h1.3v.71h-1.3v2.36c0,.28.06.48.18.59.12.11.31.17.57.17.23,0,.41-.03.55-.09v.69c-.22.07-.45.11-.69.11Z"/><path d="m252.47,171.51h-.77v-6.75h.77v2.94c.31-.52.78-.78,1.43-.78.51,0,.92.17,1.23.5.31.33.47.77.47,1.32v2.77h-.76v-2.65c0-.38-.1-.68-.29-.9-.19-.22-.45-.33-.77-.33-.37,0-.68.15-.93.44-.25.29-.37.7-.37,1.21v2.23Z"/><path d="m259.17,171.51v-4.5h.77v.87c.08-.28.25-.5.49-.67.24-.17.5-.25.77-.25.13,0,.25.01.35.04v.8c-.11-.05-.25-.07-.42-.07-.31,0-.59.13-.83.4-.24.27-.36.65-.36,1.14v2.23h-.77Z"/><path d="m264.16,171.6c-.62,0-1.15-.23-1.57-.68s-.63-1.01-.63-1.66.21-1.2.63-1.66c.42-.46.95-.68,1.57-.68.33,0,.64.07.92.22.28.15.5.33.66.56v-.69h.77v4.5h-.77v-.69c-.16.23-.38.42-.66.56-.29.15-.59.22-.92.22Zm.12-.71c.44,0,.81-.16,1.1-.47.29-.31.43-.7.43-1.16s-.14-.85-.43-1.16c-.29-.31-.65-.47-1.1-.47s-.82.16-1.11.47c-.29.31-.43.7-.43,1.16s.14.85.43,1.16c.29.31.66.47,1.11.47Z"/><path d="m269.72,171.55c-.41,0-.75-.12-1-.35s-.38-.58-.38-1.03v-2.46h-.95v-.71h.95v-1.25h.77v1.25h1.3v.71h-1.3v2.36c0,.28.06.48.18.59.12.11.31.17.57.17.23,0,.41-.03.55-.09v.69c-.22.07-.45.11-.69.11Z"/><path d="m273.26,171.6c-.65,0-1.2-.22-1.62-.67-.43-.44-.64-1-.64-1.67s.21-1.24.63-1.68c.42-.44.97-.66,1.66-.66s1.24.25,1.64.74c.4.49.57,1.09.52,1.81h-3.66c.01.41.16.75.45,1.02.29.27.64.41,1.04.41.61,0,1.05-.25,1.3-.76h.79c-.11.42-.36.77-.73,1.04-.37.28-.83.41-1.38.41Zm.88-3.68c-.25-.21-.54-.32-.89-.32s-.66.1-.93.31c-.27.21-.44.52-.51.94h2.81c-.07-.41-.23-.72-.48-.93Z"/><path d="m277.53,168.05c-.13.13-.29.2-.47.2s-.34-.07-.47-.2c-.13-.13-.19-.29-.19-.48s.07-.34.2-.47.29-.2.47-.2.34.07.47.2.2.29.2.47-.07.34-.19.48Zm0,3.33c-.13.13-.29.2-.47.2s-.34-.07-.47-.2-.19-.29-.19-.48.07-.34.2-.47.29-.2.47-.2.34.07.47.2.2.29.2.47-.07.34-.19.48Z"/><path d="m209.04,182.31v-5.62h-1.23l.63-.77h1.38v6.39h-.77Z"/><path d="m215.24,181.56v.75h-4.14v-.31c0-.22.03-.43.1-.63.07-.2.14-.37.23-.51.08-.14.22-.29.4-.46s.32-.3.42-.38c.1-.08.27-.21.51-.38.24-.17.4-.28.48-.34.43-.31.72-.58.89-.79s.25-.49.25-.84-.11-.6-.32-.81c-.22-.2-.5-.3-.85-.3-.37,0-.68.11-.94.33-.26.22-.39.53-.39.93h-.79c0-.6.2-1.09.6-1.46.4-.37.9-.56,1.51-.56.56,0,1.03.16,1.41.49.38.32.56.79.56,1.39,0,.46-.11.84-.33,1.17-.22.32-.6.68-1.14,1.07-.1.07-.25.17-.43.3-.19.13-.33.23-.43.31s-.21.17-.34.28c-.12.11-.22.23-.29.35-.07.12-.12.26-.15.4h3.19Z"/><path d="m216.98,182.31v-5.62h-1.23l.63-.77h1.38v6.39h-.77Z"/><path d="m220.21,182.18c-.13.13-.29.2-.47.2s-.34-.07-.47-.2-.19-.29-.19-.48.07-.34.2-.47c.13-.13.29-.2.47-.2s.34.07.47.2c.13.14.2.29.2.47s-.06.35-.19.48Z"/><path d="m223.53,182.4c-.67,0-1.21-.22-1.63-.67-.42-.45-.63-1.02-.63-1.73v-1.78c0-.71.21-1.29.63-1.73.42-.45.96-.67,1.62-.67s1.2.22,1.63.67.64,1.03.64,1.73v1.78c0,.71-.21,1.29-.64,1.73-.43.45-.97.67-1.63.67Zm0-.76c.44,0,.8-.15,1.08-.44s.41-.7.41-1.21v-1.78c0-.51-.14-.91-.41-1.21s-.64-.44-1.08-.44-.79.15-1.07.44c-.28.29-.41.7-.41,1.21v1.78c0,.51.14.91.41,1.21.28.29.63.44,1.07.44Z"/><path d="m229.89,182.31v-1.74h-3.4v-.62l3.5-4.03h.67v3.92h.88v.73h-.88v1.74h-.77Zm-2.39-2.47h2.39v-2.75l-2.39,2.75Z"/><path d="m233.17,182.31h-.86l2.98-5.63h-3.27v-.76h4.19v.65l-3.04,5.74Z"/><line class="cls-2" x1="118.55" y1="101.45" x2="91.17" y2="228.61"/><line class="cls-2" x1="227.06" y1="145.19" x2="194.38" y2="94.4"/></g></svg>