<?xml version="1.0" encoding="UTF-8"?><svg id="_图层_2" xmlns="http://www.w3.org/2000/svg" viewBox="0 0 418.29 345.91"><defs><style>.cls-1{fill:#fff;}.cls-2{fill:none;stroke:#241f20;stroke-miterlimit:10;stroke-width:.5px;}</style></defs><g id="_图层_1-2"><path class="cls-1" d="m405.64,193.81c-41.07,178.93-202.48,157.78-373.98,141.97-90.28-8.32,45.37-78.21,5.4-141.97C-15.67,109.71,84.22,95.61,163.45,55.55c233.41-118.04,282.36-36.74,242.19,138.26Z"/><path d="m67.51,166.09v-7.1h.93v7.1h-.93Z"/><path d="m70.17,166.09v-5h.86v.77c.34-.58.87-.87,1.59-.87.57,0,1.02.18,1.37.55.35.37.52.86.52,1.47v3.08h-.85v-2.95c0-.42-.11-.75-.32-1-.21-.24-.5-.37-.86-.37-.41,0-.76.16-1.04.49s-.42.77-.42,1.34v2.48h-.86Z"/><path d="m82.75,165.26v.83h-4.6v-.34c0-.25.04-.48.12-.71.08-.22.16-.41.25-.56.09-.15.24-.33.44-.52.2-.19.36-.33.47-.42s.3-.23.57-.42c.27-.19.44-.31.53-.38.47-.35.8-.64.99-.88.18-.24.27-.55.27-.93s-.12-.67-.36-.9c-.24-.22-.55-.33-.94-.33-.41,0-.75.12-1.04.37-.29.25-.43.59-.43,1.03h-.88c0-.67.22-1.21.66-1.62.44-.41,1-.62,1.68-.62.63,0,1.15.18,1.56.54.42.36.62.87.62,1.54,0,.51-.12.94-.37,1.29-.25.36-.67.75-1.27,1.18-.11.08-.27.19-.48.34-.21.14-.37.26-.48.34s-.24.19-.38.32-.24.25-.32.39c-.08.14-.13.28-.17.44h3.54Z"/><path d="m86.35,166.19c-.74,0-1.34-.25-1.81-.75s-.7-1.14-.7-1.92v-1.98c0-.79.24-1.43.71-1.93.47-.5,1.07-.75,1.81-.75s1.34.25,1.81.75.71,1.14.71,1.92v1.98c0,.79-.24,1.43-.71,1.92s-1.08.75-1.81.75Zm0-.84c.49,0,.89-.16,1.2-.49s.46-.77.46-1.34v-1.98c0-.57-.15-1.01-.46-1.34s-.71-.49-1.2-.49-.88.16-1.19.49-.46.77-.46,1.34v1.98c0,.57.15,1.01.46,1.34s.7.49,1.19.49Z"/><path d="m94.56,165.26v.83h-4.6v-.34c0-.25.04-.48.12-.71.08-.22.16-.41.25-.56.09-.15.24-.33.44-.52.2-.19.36-.33.47-.42s.3-.23.57-.42c.27-.19.44-.31.53-.38.47-.35.8-.64.99-.88.18-.24.27-.55.27-.93s-.12-.67-.36-.9c-.24-.22-.55-.33-.94-.33-.41,0-.75.12-1.04.37-.29.25-.43.59-.43,1.03h-.88c0-.67.22-1.21.66-1.62.44-.41,1-.62,1.68-.62.63,0,1.15.18,1.56.54.42.36.62.87.62,1.54,0,.51-.12.94-.37,1.29-.25.36-.67.75-1.27,1.18-.11.08-.27.19-.48.34-.21.14-.37.26-.48.34s-.24.19-.38.32-.24.25-.32.39c-.08.14-.13.28-.17.44h3.54Z"/><path d="m98.16,166.19c-.74,0-1.34-.25-1.81-.75s-.7-1.14-.7-1.92v-1.98c0-.79.24-1.43.71-1.93.47-.5,1.07-.75,1.81-.75s1.34.25,1.81.75.71,1.14.71,1.92v1.98c0,.79-.24,1.43-.71,1.92s-1.08.75-1.81.75Zm0-.84c.49,0,.89-.16,1.2-.49s.46-.77.46-1.34v-1.98c0-.57-.15-1.01-.46-1.34s-.71-.49-1.2-.49-.88.16-1.19.49-.46.77-.46,1.34v1.98c0,.57.15,1.01.46,1.34s.7.49,1.19.49Z"/><path d="m106.27,166.14c-.46,0-.83-.13-1.11-.39-.28-.26-.42-.64-.42-1.14v-2.73h-1.06v-.79h1.06v-1.39h.86v1.39h1.44v.79h-1.44v2.62c0,.31.07.53.2.66.13.13.34.19.63.19.25,0,.46-.03.61-.1v.77c-.24.08-.5.12-.77.12Z"/><path d="m109,166.09h-.86v-7.5h.86v3.27c.34-.58.87-.87,1.59-.87.57,0,1.02.18,1.37.55.35.37.52.86.52,1.47v3.08h-.85v-2.95c0-.42-.11-.75-.32-1-.21-.24-.5-.37-.86-.37-.41,0-.76.16-1.04.49s-.42.77-.42,1.34v2.48Z"/><path d="m116.16,166.19c-.73,0-1.33-.25-1.81-.74s-.71-1.11-.71-1.86.23-1.38.7-1.87c.46-.49,1.08-.73,1.84-.73s1.38.27,1.82.82c.44.55.63,1.22.58,2.01h-4.07c.01.45.18.83.5,1.13.32.3.71.46,1.16.46.68,0,1.16-.28,1.45-.84h.88c-.13.47-.4.85-.81,1.16s-.92.46-1.53.46Zm.98-4.08c-.27-.24-.6-.36-.99-.36s-.73.12-1.04.35c-.3.23-.49.58-.56,1.04h3.12c-.08-.45-.26-.8-.53-1.04Z"/><path d="m119.82,166.09v-5h.86v.97c.09-.31.28-.55.54-.74.27-.19.55-.28.86-.28.15,0,.28.01.39.04v.89c-.12-.05-.28-.08-.47-.08-.35,0-.65.15-.92.45-.27.3-.4.72-.4,1.27v2.48h-.86Z"/><path d="m125.43,166.19c-.73,0-1.33-.25-1.81-.74s-.71-1.11-.71-1.86.23-1.38.7-1.87c.46-.49,1.08-.73,1.84-.73s1.38.27,1.82.82c.44.55.63,1.22.58,2.01h-4.07c.01.45.18.83.5,1.13.32.3.71.46,1.16.46.68,0,1.16-.28,1.45-.84h.88c-.13.47-.4.85-.81,1.16s-.92.46-1.53.46Zm.98-4.08c-.27-.24-.6-.36-.99-.36s-.73.12-1.04.35c-.3.23-.49.58-.56,1.04h3.12c-.08-.45-.26-.8-.53-1.04Z"/><path d="m135.56,166.09l-1.24-3.59-1.23,3.59h-.76l-1.7-5h.9l1.21,3.65,1.25-3.65h.66l1.25,3.65,1.21-3.65h.91l-1.7,5h-.76Z"/><path d="m141.06,166.19c-.73,0-1.33-.25-1.81-.74s-.71-1.11-.71-1.86.23-1.38.7-1.87c.46-.49,1.08-.73,1.84-.73s1.38.27,1.82.82c.44.55.63,1.22.58,2.01h-4.07c.01.45.18.83.5,1.13.32.3.71.46,1.16.46.68,0,1.16-.28,1.45-.84h.88c-.13.47-.4.85-.81,1.16s-.92.46-1.53.46Zm.98-4.08c-.27-.24-.6-.36-.99-.36s-.73.12-1.04.35c-.3.23-.49.58-.56,1.04h3.12c-.08-.45-.26-.8-.53-1.04Z"/><path d="m144.72,166.09v-5h.86v.97c.09-.31.28-.55.54-.74.27-.19.55-.28.86-.28.15,0,.28.01.39.04v.89c-.12-.05-.28-.08-.47-.08-.35,0-.65.15-.92.45-.27.3-.4.72-.4,1.27v2.48h-.86Z"/><path d="m150.33,166.19c-.73,0-1.33-.25-1.81-.74s-.71-1.11-.71-1.86.23-1.38.7-1.87c.46-.49,1.08-.73,1.84-.73s1.38.27,1.82.82c.44.55.63,1.22.58,2.01h-4.07c.01.45.18.83.5,1.13.32.3.71.46,1.16.46.68,0,1.16-.28,1.45-.84h.88c-.13.47-.4.85-.81,1.16s-.92.46-1.53.46Zm.98-4.08c-.27-.24-.6-.36-.99-.36s-.73.12-1.04.35c-.3.23-.49.58-.56,1.04h3.12c-.08-.45-.26-.8-.53-1.04Z"/><path d="m158.56,166.19c-.71,0-1.3-.22-1.79-.65s-.73-.97-.73-1.62h.87c.03.42.2.76.51,1.03.31.26.7.39,1.15.39.41,0,.76-.11,1.03-.34s.41-.54.41-.94c0-.43-.14-.75-.42-.96s-.66-.32-1.13-.32h-.53v-.79h.57c.38,0,.69-.11.93-.32.24-.21.37-.49.38-.83,0-.33-.12-.61-.37-.82s-.55-.32-.92-.32c-.42,0-.77.12-1.06.37-.29.25-.43.59-.43,1.03h-.88c0-.68.23-1.22.68-1.63.45-.41,1.02-.61,1.69-.61.62,0,1.14.18,1.54.54.41.36.62.83.62,1.42,0,.34-.1.65-.27.92-.18.27-.41.48-.69.63.36.15.64.37.85.67.21.3.31.66.31,1.05,0,.62-.22,1.12-.65,1.51-.43.39-.99.58-1.67.58Z"/><path d="m164.36,166.19c-.71,0-1.3-.22-1.79-.65s-.73-.97-.73-1.62h.87c.03.42.2.76.51,1.03.31.26.7.39,1.15.39.41,0,.76-.11,1.03-.34s.41-.54.41-.94c0-.43-.14-.75-.42-.96s-.66-.32-1.13-.32h-.53v-.79h.57c.38,0,.69-.11.93-.32.24-.21.37-.49.38-.83,0-.33-.12-.61-.37-.82s-.55-.32-.92-.32c-.42,0-.77.12-1.06.37-.29.25-.43.59-.43,1.03h-.88c0-.68.23-1.22.68-1.63.45-.41,1.02-.61,1.69-.61.62,0,1.14.18,1.54.54.41.36.62.83.62,1.42,0,.34-.1.65-.27.92-.18.27-.41.48-.69.63.36.15.64.37.85.67.21.3.31.66.31,1.05,0,.62-.22,1.12-.65,1.51-.43.39-.99.58-1.67.58Z"/><path d="m168.97,165.95c-.14.15-.32.22-.53.22s-.38-.07-.52-.22c-.14-.15-.22-.32-.22-.53s.07-.38.22-.52c.15-.15.32-.23.52-.23s.37.08.52.23c.15.15.22.33.22.52s-.07.38-.21.53Z"/><path d="m172.66,166.19c-.74,0-1.34-.25-1.81-.75s-.7-1.14-.7-1.92v-1.98c0-.79.24-1.43.71-1.93.47-.5,1.07-.75,1.81-.75s1.34.25,1.81.75.71,1.14.71,1.92v1.98c0,.79-.24,1.43-.71,1.92s-1.08.75-1.81.75Zm0-.84c.49,0,.89-.16,1.2-.49s.46-.77.46-1.34v-1.98c0-.57-.15-1.01-.46-1.34s-.71-.49-1.2-.49-.88.16-1.19.49-.46.77-.46,1.34v1.98c0,.57.15,1.01.46,1.34s.7.49,1.19.49Z"/><path d="m179.86,168.18h-.86v-7.09h.86v.77c.17-.25.42-.46.74-.62.32-.16.66-.25,1.02-.25.69,0,1.28.25,1.75.76.47.51.71,1.12.71,1.84s-.24,1.33-.71,1.84c-.47.51-1.05.76-1.75.76-.37,0-.71-.08-1.02-.25-.32-.16-.56-.37-.74-.62v2.86Zm.41-3.3c.32.35.73.52,1.22.52s.9-.17,1.22-.52c.32-.35.48-.78.48-1.29s-.16-.94-.48-1.29c-.32-.35-.73-.52-1.22-.52s-.9.17-1.22.52c-.32.35-.48.78-.48,1.29s.16.94.48,1.29Z"/><path d="m187.44,166.19c-.73,0-1.33-.25-1.81-.74s-.71-1.11-.71-1.86.23-1.38.7-1.87c.46-.49,1.08-.73,1.84-.73s1.38.27,1.82.82c.44.55.63,1.22.58,2.01h-4.07c.01.45.18.83.5,1.13.32.3.71.46,1.16.46.68,0,1.16-.28,1.45-.84h.88c-.13.47-.4.85-.81,1.16s-.92.46-1.53.46Zm.98-4.08c-.27-.24-.6-.36-.99-.36s-.73.12-1.04.35c-.3.23-.49.58-.56,1.04h3.12c-.08-.45-.26-.8-.53-1.04Z"/><path d="m191.1,166.09v-5h.86v.97c.09-.31.28-.55.54-.74.27-.19.55-.28.86-.28.15,0,.28.01.39.04v.89c-.12-.05-.28-.08-.47-.08-.35,0-.65.15-.92.45-.27.3-.4.72-.4,1.27v2.48h-.86Z"/><path d="m197.56,166.09v-6.25h-1.37l.7-.85h1.53v7.1h-.86Z"/><path d="m202.47,166.19c-.74,0-1.34-.25-1.81-.75s-.7-1.14-.7-1.92v-1.98c0-.79.24-1.43.71-1.93.47-.5,1.07-.75,1.81-.75s1.34.25,1.81.75.71,1.14.71,1.92v1.98c0,.79-.24,1.43-.71,1.92s-1.08.75-1.81.75Zm0-.84c.49,0,.89-.16,1.2-.49s.46-.77.46-1.34v-1.98c0-.57-.15-1.01-.46-1.34s-.71-.49-1.2-.49-.88.16-1.19.49-.46.77-.46,1.34v1.98c0,.57.15,1.01.46,1.34s.7.49,1.19.49Z"/><path d="m208.7,166.19c-.74,0-1.34-.25-1.81-.75s-.7-1.14-.7-1.92v-1.98c0-.79.24-1.43.71-1.93.47-.5,1.07-.75,1.81-.75s1.34.25,1.81.75.71,1.14.71,1.92v1.98c0,.79-.24,1.43-.71,1.92s-1.08.75-1.81.75Zm0-.84c.49,0,.89-.16,1.2-.49s.46-.77.46-1.34v-1.98c0-.57-.15-1.01-.46-1.34s-.71-.49-1.2-.49-.88.16-1.19.49-.46.77-.46,1.34v1.98c0,.57.15,1.01.46,1.34s.7.49,1.19.49Z"/><path d="m213.54,165.87l-1.03,1.65h-.57l.67-1.43c-.27-.13-.41-.36-.41-.67,0-.2.07-.38.22-.52.15-.15.32-.23.52-.23s.37.08.52.23c.15.15.22.33.22.52,0,.15-.05.3-.14.45Z"/><path d="m217.17,166.19c-.74,0-1.34-.25-1.81-.75s-.7-1.14-.7-1.92v-1.98c0-.79.24-1.43.71-1.93.47-.5,1.07-.75,1.81-.75s1.34.25,1.81.75.71,1.14.71,1.92v1.98c0,.79-.24,1.43-.71,1.92s-1.08.75-1.81.75Zm0-.84c.49,0,.89-.16,1.2-.49s.46-.77.46-1.34v-1.98c0-.57-.15-1.01-.46-1.34s-.71-.49-1.2-.49-.88.16-1.19.49-.46.77-.46,1.34v1.98c0,.57.15,1.01.46,1.34s.7.49,1.19.49Z"/><path d="m223.4,166.19c-.74,0-1.34-.25-1.81-.75s-.7-1.14-.7-1.92v-1.98c0-.79.24-1.43.71-1.93.47-.5,1.07-.75,1.81-.75s1.34.25,1.81.75.71,1.14.71,1.92v1.98c0,.79-.24,1.43-.71,1.92s-1.08.75-1.81.75Zm0-.84c.49,0,.89-.16,1.2-.49s.46-.77.46-1.34v-1.98c0-.57-.15-1.01-.46-1.34s-.71-.49-1.2-.49-.88.16-1.19.49-.46.77-.46,1.34v1.98c0,.57.15,1.01.46,1.34s.7.49,1.19.49Z"/><path d="m229.62,166.19c-.74,0-1.34-.25-1.81-.75s-.7-1.14-.7-1.92v-1.98c0-.79.24-1.43.71-1.93.47-.5,1.07-.75,1.81-.75s1.34.25,1.81.75.71,1.14.71,1.92v1.98c0,.79-.24,1.43-.71,1.92s-1.08.75-1.81.75Zm0-.84c.49,0,.89-.16,1.2-.49s.46-.77.46-1.34v-1.98c0-.57-.15-1.01-.46-1.34s-.71-.49-1.2-.49-.88.16-1.19.49-.46.77-.46,1.34v1.98c0,.57.15,1.01.46,1.34s.7.49,1.19.49Z"/><path d="m238.02,166.19c-.69,0-1.28-.25-1.75-.76-.47-.51-.71-1.12-.71-1.84s.24-1.33.71-1.84c.47-.51,1.05-.76,1.75-.76.37,0,.71.08,1.02.25.32.16.56.37.74.62v-3.27h.86v7.5h-.86v-.77c-.17.25-.42.46-.74.62-.32.16-.66.25-1.02.25Zm.13-.79c.49,0,.9-.17,1.22-.52.32-.35.48-.78.48-1.29s-.16-.94-.48-1.29c-.32-.35-.73-.52-1.22-.52s-.91.17-1.23.52c-.32.35-.48.78-.48,1.29s.16.94.48,1.29c.32.35.73.52,1.23.52Z"/><path d="m244.39,166.19c-.73,0-1.33-.25-1.81-.74s-.71-1.11-.71-1.86.23-1.38.7-1.87c.46-.49,1.08-.73,1.84-.73s1.38.27,1.82.82c.44.55.63,1.22.58,2.01h-4.07c.01.45.18.83.5,1.13.32.3.71.46,1.16.46.68,0,1.16-.28,1.45-.84h.88c-.13.47-.4.85-.81,1.16s-.92.46-1.53.46Zm.98-4.08c-.27-.24-.6-.36-.99-.36s-.73.12-1.04.35c-.3.23-.49.58-.56,1.04h3.12c-.08-.45-.26-.8-.53-1.04Z"/><path d="m250.11,166.19c-.69,0-1.28-.25-1.75-.76-.47-.51-.71-1.12-.71-1.84s.24-1.33.71-1.84c.47-.51,1.05-.76,1.75-.76.37,0,.71.08,1.02.25.32.16.56.37.74.62v-.77h.86v5h-.86v-.77c-.17.25-.42.46-.74.62-.32.16-.66.25-1.02.25Zm.13-.79c.49,0,.9-.17,1.22-.52.32-.35.48-.78.48-1.29s-.16-.94-.48-1.29c-.32-.35-.73-.52-1.22-.52s-.91.17-1.23.52c-.32.35-.48.78-.48,1.29s.16.94.48,1.29c.32.35.73.52,1.23.52Z"/><path d="m256.29,166.14c-.46,0-.83-.13-1.11-.39-.28-.26-.42-.64-.42-1.14v-2.73h-1.06v-.79h1.06v-1.39h.86v1.39h1.44v.79h-1.44v2.62c0,.31.07.53.2.66.13.13.34.19.63.19.25,0,.46-.03.61-.1v.77c-.24.08-.5.12-.77.12Z"/><path d="m259.02,166.09h-.86v-7.5h.86v3.27c.34-.58.87-.87,1.59-.87.57,0,1.02.18,1.37.55.35.37.52.86.52,1.47v3.08h-.85v-2.95c0-.42-.11-.75-.32-1-.21-.24-.5-.37-.86-.37-.41,0-.76.16-1.04.49s-.42.77-.42,1.34v2.48Z"/><path d="m265.66,166.19c-.56,0-1.03-.14-1.41-.41-.38-.27-.58-.65-.62-1.14h.88c.05.28.19.49.41.62.22.13.47.2.75.2s.52-.06.7-.17.26-.28.26-.49c0-.2-.06-.36-.19-.49s-.34-.23-.64-.31l-.72-.19c-.86-.23-1.29-.72-1.29-1.47,0-.41.16-.73.49-.98s.74-.37,1.25-.37.93.13,1.26.41.51.61.55,1.02h-.86c-.07-.22-.19-.39-.36-.52s-.37-.19-.6-.19c-.25,0-.45.06-.62.17s-.25.26-.25.45.06.33.18.44c.12.11.31.21.58.28l.8.21c.85.21,1.28.71,1.28,1.48,0,.48-.17.84-.51,1.08s-.78.37-1.33.37Z"/><path d="m70,178.19c-.37,0-.71-.08-1.02-.25-.32-.16-.56-.37-.74-.62v.77h-.86v-7.5h.86v3.27c.17-.25.42-.46.74-.62.32-.16.66-.25,1.02-.25.69,0,1.28.25,1.75.76.47.51.71,1.12.71,1.84s-.24,1.33-.71,1.84c-.47.51-1.05.76-1.75.76Zm-1.35-1.31c.32.35.73.52,1.22.52s.9-.17,1.22-.52c.32-.35.48-.78.48-1.29s-.16-.94-.48-1.29c-.32-.35-.73-.52-1.22-.52s-.9.17-1.22.52c-.32.35-.48.78-.48,1.29s.16.94.48,1.29Z"/><path d="m75.81,178.19c-.73,0-1.33-.25-1.81-.74s-.71-1.11-.71-1.86.23-1.38.7-1.87c.46-.49,1.08-.73,1.84-.73s1.38.27,1.82.82c.44.55.63,1.22.58,2.01h-4.07c.01.45.18.83.5,1.13.32.3.71.46,1.16.46.68,0,1.16-.28,1.45-.84h.88c-.13.47-.4.85-.81,1.16s-.92.46-1.53.46Zm.98-4.08c-.27-.24-.6-.36-.99-.36s-.73.12-1.04.35c-.3.23-.49.58-.56,1.04h3.12c-.08-.45-.26-.8-.53-1.04Z"/><path d="m81.69,178.19c-.75,0-1.38-.25-1.87-.75s-.74-1.12-.74-1.85.25-1.34.74-1.84,1.12-.75,1.87-.75c.62,0,1.16.17,1.61.52.45.34.76.79.91,1.34h-.92c-.12-.33-.32-.59-.6-.78-.28-.19-.61-.29-1-.29-.51,0-.93.17-1.25.52-.32.35-.49.78-.49,1.29s.16.94.49,1.29c.32.35.74.52,1.25.52.39,0,.72-.1,1-.29.28-.19.48-.45.6-.78h.92c-.15.55-.45,1-.9,1.35-.45.34-.99.51-1.62.51Z"/><path d="m87.41,178.19c-.69,0-1.28-.25-1.75-.76-.47-.51-.71-1.12-.71-1.84s.24-1.33.71-1.84c.47-.51,1.05-.76,1.75-.76.37,0,.71.08,1.02.25.32.16.56.37.74.62v-.77h.86v5h-.86v-.77c-.17.25-.42.46-.74.62-.32.16-.66.25-1.02.25Zm.13-.79c.49,0,.9-.17,1.22-.52.32-.35.48-.78.48-1.29s-.16-.94-.48-1.29c-.32-.35-.73-.52-1.22-.52s-.91.17-1.23.52c-.32.35-.48.78-.48,1.29s.16.94.48,1.29c.32.35.73.52,1.23.52Z"/><path d="m93.42,178.19c-.55,0-.99-.18-1.33-.56-.34-.37-.51-.86-.51-1.47v-3.07h.86v2.94c0,.42.1.75.31,1,.2.25.48.37.83.37.4,0,.73-.17.99-.5.26-.33.4-.77.4-1.33v-2.48h.86v5h-.86v-.77c-.33.58-.84.87-1.54.87Z"/><path d="m99.05,178.19c-.56,0-1.03-.14-1.41-.41-.38-.27-.58-.65-.62-1.14h.88c.05.28.19.49.41.62.22.13.47.2.75.2s.52-.06.7-.17.26-.28.26-.49c0-.2-.06-.36-.19-.49s-.34-.23-.64-.31l-.72-.19c-.86-.23-1.29-.72-1.29-1.47,0-.41.16-.73.49-.98s.74-.37,1.25-.37.93.13,1.26.41.51.61.55,1.02h-.86c-.07-.22-.19-.39-.36-.52s-.37-.19-.6-.19c-.25,0-.45.06-.62.17s-.25.26-.25.45.06.33.18.44c.12.11.31.21.58.28l.8.21c.85.21,1.28.71,1.28,1.48,0,.48-.17.84-.51,1.08s-.78.37-1.33.37Z"/><path d="m104.24,178.19c-.73,0-1.33-.25-1.81-.74s-.71-1.11-.71-1.86.23-1.38.7-1.87c.46-.49,1.08-.73,1.84-.73s1.38.27,1.82.82c.44.55.63,1.22.58,2.01h-4.07c.01.45.18.83.5,1.13.32.3.71.46,1.16.46.68,0,1.16-.28,1.45-.84h.88c-.13.47-.4.85-.81,1.16s-.92.46-1.53.46Zm.98-4.08c-.27-.24-.6-.36-.99-.36s-.73.12-1.04.35c-.3.23-.49.58-.56,1.04h3.12c-.08-.45-.26-.8-.53-1.04Z"/><path d="m112.53,178.19c-.75,0-1.38-.25-1.88-.75-.5-.5-.75-1.12-.75-1.85s.25-1.34.75-1.84c.5-.5,1.12-.75,1.88-.75s1.37.25,1.86.75c.5.5.75,1.12.75,1.84s-.25,1.34-.75,1.85c-.5.5-1.12.75-1.86.75Zm-1.25-1.32c.32.35.74.52,1.25.52s.93-.17,1.25-.52c.32-.35.48-.77.48-1.28s-.16-.93-.48-1.28c-.32-.35-.74-.52-1.25-.52s-.93.17-1.25.52c-.32.35-.49.77-.49,1.28s.16.93.49,1.28Z"/><path d="m116.71,178.09v-4.21h-1.06v-.79h1.06v-1.01c0-.5.14-.88.42-1.15.28-.27.65-.4,1.11-.4.27,0,.53.04.78.13v.76c-.15-.07-.36-.1-.62-.1-.29,0-.5.06-.63.19-.13.13-.2.35-.2.66v.92h1.45v.79h-1.45v4.21h-.86Z"/><path d="m126.94,177.43c-.51.52-1.18.79-2.01.79s-1.5-.26-2.01-.79c-.51-.52-.77-1.22-.77-2.1v-4.34h.93v4.36c0,.63.17,1.12.5,1.47.33.34.78.51,1.35.51s1.02-.17,1.35-.51c.33-.34.5-.83.5-1.47v-4.36h.93v4.34c0,.87-.26,1.57-.77,2.1Z"/><path d="m129.28,178.09v-5h.86v.77c.34-.58.87-.87,1.59-.87.57,0,1.02.18,1.37.55.35.37.52.86.52,1.47v3.08h-.85v-2.95c0-.42-.11-.75-.32-1-.21-.24-.5-.37-.86-.37-.41,0-.76.16-1.04.49s-.42.77-.42,1.34v2.48h-.86Z"/><path d="m136.04,171.57c-.11.12-.26.17-.43.17s-.32-.06-.44-.17c-.12-.12-.18-.26-.18-.43s.06-.31.18-.43c.12-.12.27-.18.44-.18s.32.06.43.18c.11.12.17.26.17.43s-.06.32-.17.43Zm-.87,6.51v-5h.86v5h-.86Z"/><path d="m137.66,178.09v-5h.86v.77c.34-.58.87-.87,1.59-.87.57,0,1.02.18,1.37.55.35.37.52.86.52,1.47v3.08h-.85v-2.95c0-.42-.11-.75-.32-1-.21-.24-.5-.37-.86-.37-.41,0-.76.16-1.04.49s-.42.77-.42,1.34v2.48h-.86Z"/><path d="m145.43,178.14c-.46,0-.83-.13-1.11-.39-.28-.26-.42-.64-.42-1.14v-2.73h-1.06v-.79h1.06v-1.39h.86v1.39h1.44v.79h-1.44v2.62c0,.31.07.53.2.66.13.13.34.19.63.19.25,0,.46-.03.61-.1v.77c-.24.08-.5.12-.77.12Z"/><path d="m149.36,178.19c-.73,0-1.33-.25-1.81-.74s-.71-1.11-.71-1.86.23-1.38.7-1.87c.46-.49,1.08-.73,1.84-.73s1.38.27,1.82.82c.44.55.63,1.22.58,2.01h-4.07c.01.45.18.83.5,1.13.32.3.71.46,1.16.46.68,0,1.16-.28,1.45-.84h.88c-.13.47-.4.85-.81,1.16s-.92.46-1.53.46Zm.98-4.08c-.27-.24-.6-.36-.99-.36s-.73.12-1.04.35c-.3.23-.49.58-.56,1.04h3.12c-.08-.45-.26-.8-.53-1.04Z"/><path d="m153.02,178.09v-5h.86v.77c.34-.58.87-.87,1.59-.87.57,0,1.02.18,1.37.55.35.37.52.86.52,1.47v3.08h-.85v-2.95c0-.42-.11-.75-.32-1-.21-.24-.5-.37-.86-.37-.41,0-.76.16-1.04.49s-.42.77-.42,1.34v2.48h-.86Z"/><path d="m160.79,178.14c-.46,0-.83-.13-1.11-.39-.28-.26-.42-.64-.42-1.14v-2.73h-1.06v-.79h1.06v-1.39h.86v1.39h1.44v.79h-1.44v2.62c0,.31.07.53.2.66.13.13.34.19.63.19.25,0,.46-.03.61-.1v.77c-.24.08-.5.12-.77.12Z"/><path d="m163.53,171.57c-.11.12-.26.17-.43.17s-.32-.06-.44-.17c-.12-.12-.18-.26-.18-.43s.06-.31.18-.43c.12-.12.27-.18.44-.18s.32.06.43.18c.11.12.17.26.17.43s-.06.32-.17.43Zm-.87,6.51v-5h.86v5h-.86Z"/><path d="m167.37,178.19c-.75,0-1.38-.25-1.88-.75-.5-.5-.75-1.12-.75-1.85s.25-1.34.75-1.84c.5-.5,1.12-.75,1.88-.75s1.37.25,1.86.75c.5.5.75,1.12.75,1.84s-.25,1.34-.75,1.85c-.5.5-1.12.75-1.86.75Zm-1.25-1.32c.32.35.74.52,1.25.52s.93-.17,1.25-.52c.32-.35.48-.77.48-1.28s-.16-.93-.48-1.28c-.32-.35-.74-.52-1.25-.52s-.93.17-1.25.52c-.32.35-.49.77-.49,1.28s.16.93.49,1.28Z"/><path d="m171.21,178.09v-5h.86v.77c.34-.58.87-.87,1.59-.87.57,0,1.02.18,1.37.55.35.37.52.86.52,1.47v3.08h-.85v-2.95c0-.42-.11-.75-.32-1-.21-.24-.5-.37-.86-.37-.41,0-.76.16-1.04.49s-.42.77-.42,1.34v2.48h-.86Z"/><path d="m179.16,178.19c-.69,0-1.28-.25-1.75-.76-.47-.51-.71-1.12-.71-1.84s.24-1.33.71-1.84c.47-.51,1.05-.76,1.75-.76.37,0,.71.08,1.02.25.32.16.56.37.74.62v-.77h.86v5h-.86v-.77c-.17.25-.42.46-.74.62-.32.16-.66.25-1.02.25Zm.13-.79c.49,0,.9-.17,1.22-.52.32-.35.48-.78.48-1.29s-.16-.94-.48-1.29c-.32-.35-.73-.52-1.22-.52s-.91.17-1.23.52c-.32.35-.48.78-.48,1.29s.16.94.48,1.29c.32.35.73.52,1.23.52Z"/><path d="m183.4,178.09v-7.5h.86v7.5h-.86Z"/><path d="m188.43,178.09v-7.1h.93v7.1h-.93Z"/><path d="m191.09,178.09v-5h.86v.77c.34-.58.87-.87,1.59-.87.57,0,1.02.18,1.37.55.35.37.52.86.52,1.47v3.08h-.85v-2.95c0-.42-.11-.75-.32-1-.21-.24-.5-.37-.86-.37-.41,0-.76.16-1.04.49s-.42.77-.42,1.34v2.48h-.86Z"/><path d="m197.92,173.09v5.66c0,.5-.14.88-.42,1.14s-.64.39-1.09.39c-.15,0-.29,0-.41-.03v-.77c.11.01.2.02.29.02.51,0,.77-.28.77-.85v-5.56h.86Zm0-1.51c-.11.12-.26.17-.43.17s-.32-.06-.44-.17-.18-.26-.18-.43.06-.31.18-.43c.12-.12.27-.18.44-.18s.32.06.43.18c.11.12.17.26.17.43s-.06.32-.17.43Z"/><path d="m201.32,178.19c-.55,0-.99-.18-1.33-.56-.34-.37-.51-.86-.51-1.47v-3.07h.86v2.94c0,.42.1.75.31,1,.2.25.48.37.83.37.4,0,.73-.17.99-.5.26-.33.4-.77.4-1.33v-2.48h.86v5h-.86v-.77c-.33.58-.84.87-1.54.87Z"/><path d="m205.34,178.09v-5h.86v.97c.09-.31.28-.55.54-.74.27-.19.55-.28.86-.28.15,0,.28.01.39.04v.89c-.12-.05-.28-.08-.47-.08-.35,0-.65.15-.92.45-.27.3-.4.72-.4,1.27v2.48h-.86Z"/><path d="m210.33,180.18h-.96l1.09-2.35-2.19-4.74h.95l1.72,3.8,1.71-3.8h.96l-3.28,7.09Z"/><path d="m214.95,177.95c-.14.15-.32.22-.53.22s-.38-.07-.52-.22c-.14-.15-.22-.32-.22-.53s.07-.38.22-.52c.15-.15.32-.23.52-.23s.37.08.52.23c.15.15.22.33.22.52s-.07.38-.21.53Z"/><line class="cls-2" x1="173.91" y1="198.43" x2="195.05" y2="276.39"/><line class="cls-2" x1="295.12" y1="85.33" x2="252.6" y2="143.78"/><path d="m278.93,69.72h-.7c-.85-1.55-1.28-3.15-1.28-4.8s.43-3.25,1.28-4.8h.7c-.81,1.57-1.21,3.17-1.21,4.8s.4,3.23,1.21,4.8Z"/><path d="m281.92,68.22c-.64,0-1.19-.2-1.66-.6-.47-.4-.71-.87-.72-1.42h.88c.08.35.26.63.53.85s.6.33.97.33c.43,0,.8-.15,1.09-.44s.44-.65.44-1.08-.14-.8-.42-1.09c-.28-.29-.64-.44-1.07-.44-.59,0-1.04.24-1.34.72l-.82-.24.73-3.79h3.32v.84h-2.63l-.39,2.03c.35-.25.76-.37,1.24-.37.66,0,1.2.23,1.62.7.42.46.64,1.05.64,1.75,0,.63-.23,1.16-.69,1.59-.46.44-1.03.66-1.72.66Z"/><path d="m289.82,67.29v.83h-4.6v-.34c0-.25.04-.48.12-.71.08-.22.16-.41.25-.57.09-.15.24-.33.44-.51.2-.19.36-.33.47-.42s.3-.23.57-.42c.27-.19.44-.32.53-.38.47-.35.8-.64.99-.88.18-.24.27-.55.27-.94s-.12-.67-.36-.89c-.24-.22-.55-.33-.94-.33-.41,0-.75.12-1.04.37-.29.25-.43.59-.43,1.03h-.88c0-.67.22-1.21.66-1.62.44-.41,1-.62,1.68-.62.63,0,1.15.18,1.56.54.42.36.62.87.62,1.54,0,.51-.12.94-.37,1.29-.25.36-.67.75-1.27,1.19-.11.08-.27.19-.48.33-.21.14-.37.26-.48.34-.11.09-.24.19-.38.32s-.24.25-.32.39c-.08.14-.13.29-.17.45h3.54Z"/><path d="m292.1,67.98c-.14.15-.32.22-.53.22s-.38-.07-.52-.22c-.14-.15-.22-.32-.22-.53s.07-.38.22-.53.32-.22.52-.22.37.07.52.22c.15.15.22.33.22.53s-.07.38-.21.53Z"/><path d="m295.8,68.22c-.71,0-1.3-.21-1.79-.64-.49-.43-.73-.97-.73-1.62h.87c.03.42.2.76.51,1.03.31.26.7.39,1.15.39.41,0,.76-.11,1.03-.34s.41-.54.41-.94c0-.43-.14-.75-.42-.96-.28-.21-.66-.32-1.13-.32h-.53v-.79h.57c.38,0,.69-.11.93-.32s.37-.49.38-.83c0-.33-.12-.61-.37-.82-.24-.21-.55-.32-.92-.32-.42,0-.77.12-1.06.37-.29.25-.43.59-.43,1.03h-.88c0-.68.23-1.22.68-1.63.45-.41,1.02-.61,1.69-.61.62,0,1.14.18,1.54.54.41.36.62.83.62,1.42,0,.34-.1.65-.27.92-.18.27-.41.48-.69.63.36.15.64.37.85.68.21.3.31.65.31,1.05,0,.62-.22,1.12-.65,1.51-.43.39-.99.58-1.67.58Z"/><path d="m299.37,68.12l2.19-2.58c-.07,0-.17,0-.28,0-.59,0-1.11-.23-1.56-.68s-.67-.99-.67-1.6c0-.67.23-1.23.69-1.68.46-.46,1.03-.69,1.71-.69s1.26.23,1.72.68.69,1.01.69,1.66c0,.35-.07.66-.21.93s-.33.57-.59.88l-2.6,3.07h-1.1Zm1-3.78c.29.3.65.45,1.08.45s.8-.15,1.09-.45.44-.66.44-1.08-.15-.79-.44-1.08-.66-.45-1.09-.45-.79.15-1.08.45-.44.66-.44,1.08.15.79.44,1.08Z"/><path d="m306.51,64.88c-.55,0-1.01-.19-1.4-.58-.38-.39-.57-.85-.57-1.39s.19-1.01.57-1.4c.38-.38.85-.58,1.4-.58s1,.19,1.39.58c.39.38.58.85.58,1.4s-.19,1-.58,1.39-.85.58-1.39.58Zm0-.78c.32,0,.6-.12.83-.35s.35-.52.35-.83-.12-.6-.35-.83c-.23-.24-.51-.36-.83-.36s-.61.12-.84.35-.34.51-.34.84.11.61.34.84.51.35.84.35Zm.88,4.02h-.93l4.5-7.1h.93l-4.5,7.1Zm4.45.08c-.55,0-1.01-.19-1.4-.58-.38-.39-.57-.85-.57-1.39s.19-1.01.57-1.39c.38-.38.85-.58,1.4-.58s1,.19,1.39.58.58.85.58,1.39-.19,1-.58,1.39-.85.58-1.39.58Zm0-.78c.32,0,.6-.12.83-.36.23-.24.35-.51.35-.83s-.12-.6-.35-.83c-.23-.24-.51-.35-.83-.35s-.61.12-.84.35-.34.51-.34.84.11.61.34.84.51.35.84.35Z"/><path d="m315.12,69.72h-.7c.81-1.57,1.21-3.17,1.21-4.8s-.4-3.23-1.21-4.8h.7c.85,1.55,1.28,3.15,1.28,4.8s-.43,3.25-1.28,4.8Z"/><path d="m324.15,68.12l-1.24-3.59-1.23,3.59h-.76l-1.7-5h.9l1.21,3.65,1.25-3.65h.66l1.25,3.65,1.21-3.65h.91l-1.7,5h-.76Z"/><path d="m329.65,68.22c-.73,0-1.33-.25-1.81-.74-.48-.49-.71-1.11-.71-1.86s.23-1.38.7-1.87c.46-.49,1.08-.74,1.84-.74s1.38.27,1.82.82c.44.55.63,1.22.58,2.01h-4.07c.01.45.18.83.5,1.14.32.3.71.45,1.16.45.68,0,1.16-.28,1.45-.84h.88c-.13.47-.4.85-.81,1.16s-.92.46-1.53.46Zm.98-4.08c-.27-.24-.6-.35-.99-.35s-.73.12-1.04.35c-.3.23-.49.58-.56,1.04h3.12c-.08-.45-.26-.8-.53-1.04Z"/><path d="m333.31,68.12v-5h.86v.97c.09-.31.28-.55.54-.74.27-.19.55-.28.86-.28.15,0,.28.01.39.04v.89c-.12-.05-.28-.08-.47-.08-.35,0-.65.15-.92.45s-.4.72-.4,1.27v2.48h-.86Z"/><path d="m338.92,68.22c-.73,0-1.33-.25-1.81-.74-.48-.49-.71-1.11-.71-1.86s.23-1.38.7-1.87c.46-.49,1.08-.74,1.84-.74s1.38.27,1.82.82c.44.55.63,1.22.58,2.01h-4.07c.01.45.18.83.5,1.14.32.3.71.45,1.16.45.68,0,1.16-.28,1.45-.84h.88c-.13.47-.4.85-.81,1.16s-.92.46-1.53.46Zm.98-4.08c-.27-.24-.6-.35-.99-.35s-.73.12-1.04.35c-.3.23-.49.58-.56,1.04h3.12c-.08-.45-.26-.8-.53-1.04Z"/><path d="m351.43,68.12v-2.94c0-.41-.08-.75-.25-1s-.42-.38-.74-.38c-.4,0-.72.16-.97.47s-.38.74-.4,1.28v2.56h-.86v-2.94c0-.42-.08-.75-.25-1-.17-.25-.41-.37-.73-.37-.41,0-.75.17-1,.5-.25.33-.38.78-.38,1.33v2.48h-.86v-5h.86v.77c.32-.58.82-.87,1.51-.87.76,0,1.27.36,1.54,1.07.13-.33.35-.59.64-.78.29-.19.63-.29,1-.29.54,0,.97.18,1.28.55.31.37.47.86.47,1.48v3.07h-.86Z"/><path d="m355.9,68.22c-.69,0-1.28-.25-1.75-.76s-.71-1.12-.71-1.84.24-1.33.71-1.84c.47-.51,1.05-.76,1.75-.76.37,0,.71.08,1.02.25.32.16.56.37.74.62v-.77h.86v5h-.86v-.77c-.17.25-.42.46-.74.62-.32.16-.66.25-1.02.25Zm.13-.79c.49,0,.9-.17,1.22-.52.32-.35.48-.78.48-1.29s-.16-.94-.48-1.29c-.32-.35-.73-.52-1.22-.52s-.91.17-1.23.52c-.32.35-.48.78-.48,1.29s.16.94.48,1.29c.32.35.73.52,1.23.52Z"/><path d="m360.14,68.12v-7.5h.86v7.5h-.86Z"/><path d="m364.76,68.22c-.73,0-1.33-.25-1.81-.74-.48-.49-.71-1.11-.71-1.86s.23-1.38.7-1.87c.46-.49,1.08-.74,1.84-.74s1.38.27,1.82.82c.44.55.63,1.22.58,2.01h-4.07c.01.45.18.83.5,1.14.32.3.71.45,1.16.45.68,0,1.16-.28,1.45-.84h.88c-.13.47-.4.85-.81,1.16s-.92.46-1.53.46Zm.98-4.08c-.27-.24-.6-.35-.99-.35s-.73.12-1.04.35c-.3.23-.49.58-.56,1.04h3.12c-.08-.45-.26-.8-.53-1.04Z"/><path d="m168.01,306.01h-.7c-.85-1.55-1.28-3.15-1.28-4.8s.43-3.25,1.28-4.8h.7c-.81,1.57-1.21,3.17-1.21,4.8s.4,3.23,1.21,4.8Z"/><path d="m172,304.41v-1.93h-3.78v-.69l3.89-4.48h.75v4.36h.98v.81h-.98v1.93h-.86Zm-2.66-2.74h2.66v-3.06l-2.66,3.06Z"/><path d="m175.65,304.41h-.96l3.31-6.26h-3.63v-.84h4.66v.72l-3.38,6.38Z"/><path d="m180.04,304.27c-.14.15-.32.22-.53.22s-.38-.07-.52-.22c-.14-.15-.22-.32-.22-.53s.07-.38.22-.53.32-.22.52-.22.37.07.52.22c.15.15.22.33.22.53s-.07.38-.21.53Z"/><path d="m185.26,303.83c-.46.46-1.03.68-1.72.68s-1.26-.23-1.72-.68c-.46-.45-.69-1.01-.69-1.66,0-.35.07-.66.21-.93.13-.28.33-.57.59-.88l2.59-3.05h1.09l-2.17,2.57c.12-.01.21-.02.28-.02.59,0,1.11.23,1.55.68s.66.99.66,1.61c0,.66-.23,1.22-.68,1.67Zm-1.72-.15c.43,0,.79-.15,1.08-.45.29-.3.44-.66.44-1.08s-.15-.78-.44-1.08c-.29-.3-.65-.45-1.08-.45s-.79.15-1.09.44c-.29.3-.44.66-.44,1.09s.15.79.44,1.08c.29.3.66.44,1.09.44Z"/><path d="m187.76,304.41v-6.25h-1.37l.7-.85h1.53v7.1h-.86Z"/><path d="m191.85,301.17c-.55,0-1.01-.19-1.39-.58s-.57-.85-.57-1.39.19-1.01.57-1.4c.38-.38.85-.58,1.39-.58s1,.19,1.39.58c.39.38.58.85.58,1.4s-.19,1-.58,1.39-.85.58-1.39.58Zm0-.78c.32,0,.6-.12.83-.35.23-.24.35-.52.35-.83s-.12-.6-.35-.83c-.23-.24-.51-.36-.83-.36s-.61.12-.84.35-.34.51-.34.84.11.61.34.84.51.35.84.35Zm.88,4.02h-.93l4.5-7.1h.93l-4.5,7.1Zm4.45.08c-.55,0-1.01-.19-1.39-.58s-.57-.85-.57-1.39.19-1.01.57-1.39.85-.58,1.39-.58,1,.19,1.39.58.58.85.58,1.39-.19,1-.58,1.39-.85.58-1.39.58Zm0-.78c.32,0,.6-.12.83-.36.23-.24.35-.51.35-.83s-.12-.6-.35-.83c-.23-.24-.51-.35-.83-.35s-.61.12-.84.35-.34.51-.34.84.11.61.34.84.51.35.84.35Z"/><path d="m200.46,306.01h-.7c.81-1.57,1.21-3.17,1.21-4.8s-.4-3.23-1.21-4.8h.7c.85,1.55,1.28,3.15,1.28,4.8s-.43,3.25-1.28,4.8Z"/><path d="m209.49,304.41l-1.24-3.59-1.23,3.59h-.76l-1.7-5h.9l1.21,3.65,1.25-3.65h.66l1.25,3.65,1.21-3.65h.91l-1.7,5h-.76Z"/><path d="m214.99,304.51c-.73,0-1.33-.25-1.8-.74-.48-.49-.71-1.11-.71-1.86s.23-1.38.7-1.87c.46-.49,1.08-.74,1.84-.74s1.38.27,1.82.82.63,1.22.58,2.01h-4.07c.01.45.18.83.5,1.14.32.3.71.45,1.16.45.68,0,1.16-.28,1.45-.84h.88c-.13.47-.4.85-.81,1.16-.41.31-.92.46-1.53.46Zm.98-4.08c-.27-.24-.6-.35-.99-.35s-.73.12-1.04.35-.49.58-.56,1.04h3.12c-.08-.45-.26-.8-.53-1.04Z"/><path d="m218.65,304.41v-5h.86v.97c.09-.31.28-.55.54-.74.27-.19.55-.28.86-.28.15,0,.28.01.39.04v.89c-.12-.05-.28-.08-.47-.08-.35,0-.65.15-.92.45-.27.3-.4.72-.4,1.27v2.48h-.86Z"/><path d="m224.27,304.51c-.73,0-1.33-.25-1.81-.74-.48-.49-.71-1.11-.71-1.86s.23-1.38.7-1.87,1.08-.74,1.85-.74,1.38.27,1.82.82c.44.55.63,1.22.58,2.01h-4.07c.01.45.18.83.5,1.14.32.3.71.45,1.16.45.68,0,1.16-.28,1.45-.84h.88c-.13.47-.4.85-.81,1.16-.41.31-.92.46-1.53.46Zm.98-4.08c-.27-.24-.6-.35-.99-.35s-.73.12-1.04.35c-.3.23-.49.58-.56,1.04h3.12c-.08-.45-.26-.8-.53-1.04Z"/><path d="m230.62,304.41v-4.21h-1.06v-.79h1.06v-1.01c0-.5.14-.88.42-1.15s.65-.4,1.11-.4c.27,0,.53.04.78.13v.76c-.15-.07-.36-.1-.62-.1-.29,0-.5.06-.63.19-.13.13-.2.35-.2.66v.92h1.45v.79h-1.45v4.21h-.86Z"/><path d="m235.87,304.51c-.73,0-1.33-.25-1.8-.74-.48-.49-.71-1.11-.71-1.86s.23-1.38.7-1.87c.46-.49,1.08-.74,1.84-.74s1.38.27,1.82.82.63,1.22.58,2.01h-4.07c.01.45.18.83.5,1.14.32.3.71.45,1.16.45.68,0,1.16-.28,1.45-.84h.88c-.13.47-.4.85-.81,1.16-.41.31-.92.46-1.53.46Zm.98-4.08c-.27-.24-.6-.35-.99-.35s-.73.12-1.04.35-.49.58-.56,1.04h3.12c-.08-.45-.26-.8-.53-1.04Z"/><path d="m245.97,304.41v-2.94c0-.41-.08-.75-.25-1s-.42-.38-.74-.38c-.4,0-.72.16-.97.47s-.38.74-.39,1.28v2.56h-.86v-2.94c0-.42-.09-.75-.26-1-.17-.25-.41-.37-.72-.37-.41,0-.75.17-1,.5s-.38.78-.38,1.33v2.48h-.86v-5h.86v.77c.32-.58.82-.87,1.51-.87.76,0,1.27.36,1.54,1.07.13-.33.35-.59.64-.78.29-.19.62-.29,1-.29.54,0,.96.18,1.28.55.31.37.47.86.47,1.48v3.07h-.86Z"/><path d="m250.45,304.51c-.69,0-1.28-.25-1.75-.76-.47-.51-.71-1.12-.71-1.84s.24-1.33.71-1.84c.47-.51,1.05-.76,1.75-.76.37,0,.71.08,1.02.25.32.16.56.37.74.62v-.77h.86v5h-.86v-.77c-.17.25-.42.46-.74.62-.32.16-.66.25-1.02.25Zm.13-.79c.49,0,.9-.17,1.22-.52s.48-.78.48-1.29-.16-.94-.48-1.29-.73-.52-1.22-.52-.91.17-1.23.52c-.32.35-.48.78-.48,1.29s.16.94.48,1.29c.32.35.73.52,1.23.52Z"/><path d="m254.68,304.41v-7.5h.86v7.5h-.86Z"/><path d="m259.3,304.51c-.73,0-1.33-.25-1.8-.74-.48-.49-.71-1.11-.71-1.86s.23-1.38.7-1.87c.46-.49,1.08-.74,1.84-.74s1.38.27,1.82.82.63,1.22.58,2.01h-4.07c.01.45.18.83.5,1.14.32.3.71.45,1.16.45.68,0,1.16-.28,1.45-.84h.88c-.13.47-.4.85-.81,1.16-.41.31-.92.46-1.53.46Zm.98-4.08c-.27-.24-.6-.35-.99-.35s-.73.12-1.04.35-.49.58-.56,1.04h3.12c-.08-.45-.26-.8-.53-1.04Z"/></g></svg>