<?xml version="1.0" encoding="UTF-8"?><svg id="_图层_2" xmlns="http://www.w3.org/2000/svg" viewBox="0 0 349.19 349.48"><defs><style>.cls-1{fill:#fff;}.cls-2{fill:none;stroke:#241f20;stroke-miterlimit:10;stroke-width:.5px;}</style></defs><g id="_图层_1-2"><path class="cls-1" d="m347.41,170.13c15.81,152.06-76.03,93.35-182.93,170.13C99.95,386.62-12.43,246.92,1.12,170.13,17.45,77.6,63.45,0,164.48,0s173.21,76.67,182.93,170.13Z"/><path d="m19,177.24v-7.1h.93v7.1h-.93Z"/><path d="m21.66,177.24v-5h.86v.77c.34-.58.87-.87,1.59-.87.57,0,1.02.18,1.37.55.35.37.52.86.52,1.47v3.08h-.85v-2.95c0-.42-.11-.75-.32-1-.21-.24-.5-.37-.86-.37-.41,0-.76.16-1.04.49-.28.33-.42.77-.42,1.34v2.48h-.86Z"/><path d="m34.24,176.41v.83h-4.6v-.34c0-.25.04-.48.12-.71.08-.22.16-.41.25-.57.09-.15.24-.33.44-.51.2-.19.36-.33.47-.42s.3-.23.57-.42c.27-.19.44-.32.53-.38.47-.35.8-.64.99-.88.18-.24.27-.55.27-.94s-.12-.67-.36-.89c-.24-.22-.55-.33-.94-.33-.41,0-.75.12-1.04.37-.29.25-.43.59-.43,1.03h-.88c0-.67.22-1.21.66-1.62.44-.41,1-.62,1.68-.62.63,0,1.15.18,1.56.54.42.36.62.87.62,1.54,0,.51-.12.94-.37,1.29-.25.36-.67.75-1.27,1.19-.11.08-.27.19-.48.33-.21.14-.37.26-.48.34-.11.09-.24.19-.38.32s-.24.25-.32.39c-.08.14-.13.29-.17.45h3.54Z"/><path d="m37.84,177.34c-.74,0-1.34-.25-1.81-.75-.47-.5-.7-1.14-.7-1.92v-1.98c0-.79.24-1.43.71-1.93.47-.5,1.07-.75,1.81-.75s1.34.25,1.81.75.71,1.14.71,1.92v1.98c0,.79-.24,1.43-.71,1.92-.47.5-1.08.75-1.81.75Zm0-.84c.49,0,.89-.16,1.2-.49.31-.33.46-.77.46-1.34v-1.98c0-.57-.15-1.01-.46-1.34-.31-.33-.71-.49-1.2-.49s-.88.16-1.19.49c-.31.33-.46.77-.46,1.34v1.98c0,.57.15,1.01.46,1.34.31.33.7.49,1.19.49Z"/><path d="m42.41,177.24v-6.25h-1.37l.7-.85h1.53v7.1h-.86Z"/><path d="m45.66,177.24v-6.25h-1.37l.7-.85h1.53v7.1h-.86Z"/><path d="m52.44,177.29c-.46,0-.83-.13-1.11-.39-.28-.26-.42-.64-.42-1.14v-2.73h-1.06v-.79h1.06v-1.39h.86v1.39h1.44v.79h-1.44v2.62c0,.31.07.53.2.66.13.13.34.19.63.19.25,0,.46-.03.61-.1v.77c-.24.08-.5.12-.77.12Z"/><path d="m55.17,177.24h-.86v-7.5h.86v3.27c.34-.58.87-.87,1.59-.87.57,0,1.02.18,1.37.55.35.37.52.86.52,1.47v3.08h-.85v-2.95c0-.42-.11-.75-.32-1-.21-.24-.5-.37-.86-.37-.41,0-.76.16-1.04.49-.28.33-.42.77-.42,1.34v2.48Z"/><path d="m62.33,177.34c-.73,0-1.33-.25-1.81-.74-.48-.49-.71-1.11-.71-1.86s.23-1.38.7-1.87c.46-.49,1.08-.74,1.84-.74s1.38.27,1.82.82c.44.55.63,1.22.58,2.01h-4.07c.01.45.18.83.5,1.14.32.3.71.45,1.16.45.68,0,1.16-.28,1.45-.84h.88c-.13.47-.4.85-.81,1.16s-.92.46-1.53.46Zm.98-4.08c-.27-.24-.6-.35-.99-.35s-.73.12-1.04.35c-.3.23-.49.58-.56,1.04h3.12c-.08-.45-.26-.8-.53-1.04Z"/><path d="m65.99,177.24v-5h.86v.97c.09-.31.28-.55.54-.74.27-.19.55-.28.86-.28.15,0,.28.01.39.04v.89c-.12-.05-.28-.08-.47-.08-.35,0-.65.15-.92.45s-.4.72-.4,1.27v2.48h-.86Z"/><path d="m71.6,177.34c-.73,0-1.33-.25-1.81-.74-.48-.49-.71-1.11-.71-1.86s.23-1.38.7-1.87c.46-.49,1.08-.74,1.84-.74s1.38.27,1.82.82c.44.55.63,1.22.58,2.01h-4.07c.01.45.18.83.5,1.14.32.3.71.45,1.16.45.68,0,1.16-.28,1.45-.84h.88c-.13.47-.4.85-.81,1.16s-.92.46-1.53.46Zm.98-4.08c-.27-.24-.6-.35-.99-.35s-.73.12-1.04.35c-.3.23-.49.58-.56,1.04h3.12c-.08-.45-.26-.8-.53-1.04Z"/><path d="m81.73,177.24l-1.24-3.59-1.23,3.59h-.76l-1.7-5h.9l1.21,3.65,1.25-3.65h.66l1.25,3.65,1.21-3.65h.91l-1.7,5h-.76Z"/><path d="m87.24,177.34c-.73,0-1.33-.25-1.81-.74-.48-.49-.71-1.11-.71-1.86s.23-1.38.7-1.87c.46-.49,1.08-.74,1.84-.74s1.38.27,1.82.82c.44.55.63,1.22.58,2.01h-4.07c.01.45.18.83.5,1.14.32.3.71.45,1.16.45.68,0,1.16-.28,1.45-.84h.88c-.13.47-.4.85-.81,1.16s-.92.46-1.53.46Zm.98-4.08c-.27-.24-.6-.35-.99-.35s-.73.12-1.04.35c-.3.23-.49.58-.56,1.04h3.12c-.08-.45-.26-.8-.53-1.04Z"/><path d="m90.89,177.24v-5h.86v.97c.09-.31.28-.55.54-.74.27-.19.55-.28.86-.28.15,0,.28.01.39.04v.89c-.12-.05-.28-.08-.47-.08-.35,0-.65.15-.92.45s-.4.72-.4,1.27v2.48h-.86Z"/><path d="m96.5,177.34c-.73,0-1.33-.25-1.81-.74-.48-.49-.71-1.11-.71-1.86s.23-1.38.7-1.87c.46-.49,1.08-.74,1.84-.74s1.38.27,1.82.82c.44.55.63,1.22.58,2.01h-4.07c.01.45.18.83.5,1.14.32.3.71.45,1.16.45.68,0,1.16-.28,1.45-.84h.88c-.13.47-.4.85-.81,1.16s-.92.46-1.53.46Zm.98-4.08c-.27-.24-.6-.35-.99-.35s-.73.12-1.04.35c-.3.23-.49.58-.56,1.04h3.12c-.08-.45-.26-.8-.53-1.04Z"/><path d="m103.21,177.24v-6.25h-1.37l.7-.85h1.53v7.1h-.86Z"/><path d="m105.75,177.24l2.19-2.58c-.07,0-.17,0-.28,0-.59,0-1.11-.23-1.56-.68s-.67-.99-.67-1.6c0-.67.23-1.23.69-1.68.46-.46,1.03-.69,1.71-.69s1.26.23,1.72.68.69,1.01.69,1.66c0,.35-.07.66-.21.93s-.33.57-.59.88l-2.6,3.07h-1.1Zm1-3.78c.29.3.65.45,1.08.45s.8-.15,1.09-.45.44-.66.44-1.08-.15-.79-.44-1.08-.66-.45-1.09-.45-.79.15-1.08.45-.44.66-.44,1.08.15.79.44,1.08Z"/><path d="m114.33,177.24v-1.93h-3.78v-.69l3.89-4.48h.75v4.36h.98v.81h-.98v1.93h-.86Zm-2.66-2.74h2.66v-3.06l-2.66,3.06Z"/><path d="m118.34,177.1c-.14.15-.32.22-.53.22s-.38-.07-.52-.22c-.14-.15-.22-.32-.22-.53s.07-.38.22-.53.32-.22.52-.22.37.07.52.22c.15.15.22.33.22.53s-.07.38-.21.53Z"/><path d="m121.81,177.34c-.64,0-1.19-.2-1.66-.6-.47-.4-.71-.87-.72-1.42h.88c.08.35.26.63.53.85s.6.33.97.33c.43,0,.8-.15,1.09-.44s.44-.65.44-1.08-.14-.8-.42-1.09c-.28-.29-.64-.44-1.07-.44-.59,0-1.04.24-1.34.72l-.82-.24.73-3.79h3.32v.84h-2.63l-.39,2.03c.35-.25.76-.37,1.24-.37.66,0,1.2.23,1.62.7.42.46.64,1.05.64,1.75,0,.63-.23,1.16-.69,1.59-.46.44-1.03.66-1.72.66Z"/><path d="m128.7,179.33h-.86v-7.09h.86v.77c.17-.25.42-.46.74-.62.32-.16.66-.25,1.02-.25.69,0,1.28.25,1.75.76.47.51.71,1.12.71,1.84s-.24,1.33-.71,1.84-1.05.76-1.75.76c-.37,0-.71-.08-1.02-.25-.32-.16-.56-.37-.74-.62v2.86Zm.41-3.3c.32.35.73.52,1.22.52s.9-.17,1.22-.52c.32-.35.48-.78.48-1.29s-.16-.94-.48-1.29c-.32-.35-.73-.52-1.22-.52s-.9.17-1.22.52-.48.78-.48,1.29.16.94.48,1.29Z"/><path d="m136.28,177.34c-.73,0-1.33-.25-1.81-.74-.48-.49-.71-1.11-.71-1.86s.23-1.38.7-1.87c.46-.49,1.08-.74,1.84-.74s1.38.27,1.82.82c.44.55.63,1.22.58,2.01h-4.07c.01.45.18.83.5,1.14.32.3.71.45,1.16.45.68,0,1.16-.28,1.45-.84h.88c-.13.47-.4.85-.81,1.16s-.92.46-1.53.46Zm.98-4.08c-.27-.24-.6-.35-.99-.35s-.73.12-1.04.35c-.3.23-.49.58-.56,1.04h3.12c-.08-.45-.26-.8-.53-1.04Z"/><path d="m139.94,177.24v-5h.86v.97c.09-.31.28-.55.54-.74.27-.19.55-.28.86-.28.15,0,.28.01.39.04v.89c-.12-.05-.28-.08-.47-.08-.35,0-.65.15-.92.45s-.4.72-.4,1.27v2.48h-.86Z"/><path d="m146.4,177.24v-6.25h-1.37l.7-.85h1.53v7.1h-.86Z"/><path d="m151.31,177.34c-.74,0-1.34-.25-1.81-.75-.47-.5-.7-1.14-.7-1.92v-1.98c0-.79.24-1.43.71-1.93.47-.5,1.07-.75,1.81-.75s1.34.25,1.81.75.71,1.14.71,1.92v1.98c0,.79-.24,1.43-.71,1.92-.47.5-1.08.75-1.81.75Zm0-.84c.49,0,.89-.16,1.2-.49.31-.33.46-.77.46-1.34v-1.98c0-.57-.15-1.01-.46-1.34-.31-.33-.71-.49-1.2-.49s-.88.16-1.19.49c-.31.33-.46.77-.46,1.34v1.98c0,.57.15,1.01.46,1.34.31.33.7.49,1.19.49Z"/><path d="m157.54,177.34c-.74,0-1.34-.25-1.81-.75-.47-.5-.7-1.14-.7-1.92v-1.98c0-.79.24-1.43.71-1.93.47-.5,1.07-.75,1.81-.75s1.34.25,1.81.75.71,1.14.71,1.92v1.98c0,.79-.24,1.43-.71,1.92-.47.5-1.08.75-1.81.75Zm0-.84c.49,0,.89-.16,1.2-.49.31-.33.46-.77.46-1.34v-1.98c0-.57-.15-1.01-.46-1.34-.31-.33-.71-.49-1.2-.49s-.88.16-1.19.49c-.31.33-.46.77-.46,1.34v1.98c0,.57.15,1.01.46,1.34.31.33.7.49,1.19.49Z"/><path d="m162.38,177.02l-1.03,1.65h-.57l.67-1.43c-.27-.13-.41-.36-.41-.67,0-.2.07-.38.22-.53s.32-.22.52-.22.37.07.52.22.22.33.22.53c0,.15-.05.3-.14.45Z"/><path d="m166.01,177.34c-.74,0-1.34-.25-1.81-.75-.47-.5-.7-1.14-.7-1.92v-1.98c0-.79.24-1.43.71-1.93.47-.5,1.07-.75,1.81-.75s1.34.25,1.81.75.71,1.14.71,1.92v1.98c0,.79-.24,1.43-.71,1.92-.47.5-1.08.75-1.81.75Zm0-.84c.49,0,.89-.16,1.2-.49.31-.33.46-.77.46-1.34v-1.98c0-.57-.15-1.01-.46-1.34-.31-.33-.71-.49-1.2-.49s-.88.16-1.19.49c-.31.33-.46.77-.46,1.34v1.98c0,.57.15,1.01.46,1.34.31.33.7.49,1.19.49Z"/><path d="m172.24,177.34c-.74,0-1.34-.25-1.81-.75-.47-.5-.7-1.14-.7-1.92v-1.98c0-.79.24-1.43.71-1.93.47-.5,1.07-.75,1.81-.75s1.34.25,1.81.75.71,1.14.71,1.92v1.98c0,.79-.24,1.43-.71,1.92-.47.5-1.08.75-1.81.75Zm0-.84c.49,0,.89-.16,1.2-.49.31-.33.46-.77.46-1.34v-1.98c0-.57-.15-1.01-.46-1.34-.31-.33-.71-.49-1.2-.49s-.88.16-1.19.49c-.31.33-.46.77-.46,1.34v1.98c0,.57.15,1.01.46,1.34.31.33.7.49,1.19.49Z"/><path d="m178.47,177.34c-.74,0-1.34-.25-1.81-.75-.47-.5-.7-1.14-.7-1.92v-1.98c0-.79.24-1.43.71-1.93.47-.5,1.07-.75,1.81-.75s1.34.25,1.81.75.71,1.14.71,1.92v1.98c0,.79-.24,1.43-.71,1.92-.47.5-1.08.75-1.81.75Zm0-.84c.49,0,.89-.16,1.2-.49.31-.33.46-.77.46-1.34v-1.98c0-.57-.15-1.01-.46-1.34-.31-.33-.71-.49-1.2-.49s-.88.16-1.19.49c-.31.33-.46.77-.46,1.34v1.98c0,.57.15,1.01.46,1.34.31.33.7.49,1.19.49Z"/><path d="m186.87,177.34c-.69,0-1.28-.25-1.75-.76s-.71-1.12-.71-1.84.24-1.33.71-1.84c.47-.51,1.05-.76,1.75-.76.37,0,.71.08,1.02.25.32.16.56.37.74.62v-3.27h.86v7.5h-.86v-.77c-.17.25-.42.46-.74.62-.32.16-.66.25-1.02.25Zm.13-.79c.49,0,.9-.17,1.22-.52.32-.35.48-.78.48-1.29s-.16-.94-.48-1.29c-.32-.35-.73-.52-1.22-.52s-.91.17-1.23.52c-.32.35-.48.78-.48,1.29s.16.94.48,1.29c.32.35.73.52,1.23.52Z"/><path d="m193.24,177.34c-.73,0-1.33-.25-1.81-.74-.48-.49-.71-1.11-.71-1.86s.23-1.38.7-1.87c.46-.49,1.08-.74,1.84-.74s1.38.27,1.82.82c.44.55.63,1.22.58,2.01h-4.07c.01.45.18.83.5,1.14.32.3.71.45,1.16.45.68,0,1.16-.28,1.45-.84h.88c-.13.47-.4.85-.81,1.16s-.92.46-1.53.46Zm.98-4.08c-.27-.24-.6-.35-.99-.35s-.73.12-1.04.35c-.3.23-.49.58-.56,1.04h3.12c-.08-.45-.26-.8-.53-1.04Z"/><path d="m198.96,177.34c-.69,0-1.28-.25-1.75-.76s-.71-1.12-.71-1.84.24-1.33.71-1.84c.47-.51,1.05-.76,1.75-.76.37,0,.71.08,1.02.25.32.16.56.37.74.62v-.77h.86v5h-.86v-.77c-.17.25-.42.46-.74.62-.32.16-.66.25-1.02.25Zm.13-.79c.49,0,.9-.17,1.22-.52.32-.35.48-.78.48-1.29s-.16-.94-.48-1.29c-.32-.35-.73-.52-1.22-.52s-.91.17-1.23.52c-.32.35-.48.78-.48,1.29s.16.94.48,1.29c.32.35.73.52,1.23.52Z"/><path d="m205.14,177.29c-.46,0-.83-.13-1.11-.39-.28-.26-.42-.64-.42-1.14v-2.73h-1.06v-.79h1.06v-1.39h.86v1.39h1.44v.79h-1.44v2.62c0,.31.07.53.2.66.13.13.34.19.63.19.25,0,.46-.03.61-.1v.77c-.24.08-.5.12-.77.12Z"/><path d="m207.87,177.24h-.86v-7.5h.86v3.27c.34-.58.87-.87,1.59-.87.57,0,1.02.18,1.37.55.35.37.52.86.52,1.47v3.08h-.85v-2.95c0-.42-.11-.75-.32-1-.21-.24-.5-.37-.86-.37-.41,0-.76.16-1.04.49-.28.33-.42.77-.42,1.34v2.48Z"/><path d="m214.51,177.34c-.56,0-1.03-.14-1.41-.41-.38-.27-.58-.65-.62-1.14h.88c.05.28.19.49.41.62.22.13.47.2.75.2s.52-.06.7-.17.26-.28.26-.49c0-.2-.06-.36-.19-.49s-.34-.23-.64-.31l-.72-.19c-.86-.23-1.29-.72-1.29-1.47,0-.41.16-.73.49-.98.32-.25.74-.37,1.25-.37s.93.14,1.26.41c.33.27.51.61.55,1.03h-.86c-.07-.22-.19-.39-.36-.52-.17-.13-.37-.19-.6-.19-.25,0-.45.06-.62.17s-.25.26-.25.45.06.33.18.44c.12.11.31.21.58.28l.8.21c.85.21,1.28.71,1.28,1.48,0,.48-.17.84-.51,1.08-.34.24-.78.37-1.33.37Z"/><path d="m21.49,189.34c-.37,0-.71-.08-1.02-.25-.32-.16-.56-.37-.74-.62v.77h-.86v-7.5h.86v3.27c.17-.25.42-.46.74-.62.32-.16.66-.25,1.02-.25.69,0,1.28.25,1.75.76.47.51.71,1.12.71,1.84s-.24,1.33-.71,1.84-1.05.76-1.75.76Zm-1.35-1.31c.32.35.73.52,1.22.52s.9-.17,1.22-.52c.32-.35.48-.78.48-1.29s-.16-.94-.48-1.29c-.32-.35-.73-.52-1.22-.52s-.9.17-1.22.52-.48.78-.48,1.29.16.94.48,1.29Z"/><path d="m27.3,189.34c-.73,0-1.33-.25-1.81-.74-.48-.49-.71-1.11-.71-1.86s.23-1.38.7-1.87c.46-.49,1.08-.74,1.84-.74s1.38.27,1.82.82c.44.55.63,1.22.58,2.01h-4.07c.01.45.18.83.5,1.14.32.3.71.45,1.16.45.68,0,1.16-.28,1.45-.84h.88c-.13.47-.4.85-.81,1.16s-.92.46-1.53.46Zm.98-4.08c-.27-.24-.6-.35-.99-.35s-.73.12-1.04.35c-.3.23-.49.58-.56,1.04h3.12c-.08-.45-.26-.8-.53-1.04Z"/><path d="m33.18,189.34c-.75,0-1.38-.25-1.87-.75-.49-.5-.74-1.12-.74-1.84s.25-1.34.74-1.85c.49-.5,1.12-.75,1.87-.75.62,0,1.16.17,1.61.52.45.34.76.79.91,1.34h-.92c-.12-.33-.32-.59-.6-.78-.28-.19-.61-.29-1-.29-.51,0-.93.17-1.25.52-.32.35-.49.78-.49,1.29s.16.94.49,1.29c.32.35.74.52,1.25.52.39,0,.72-.1,1-.29.28-.19.48-.45.6-.78h.92c-.15.55-.45,1-.9,1.34-.45.34-.99.51-1.62.51Z"/><path d="m38.9,189.34c-.69,0-1.28-.25-1.75-.76s-.71-1.12-.71-1.84.24-1.33.71-1.84c.47-.51,1.05-.76,1.75-.76.37,0,.71.08,1.02.25.32.16.56.37.74.62v-.77h.86v5h-.86v-.77c-.17.25-.42.46-.74.62-.32.16-.66.25-1.02.25Zm.13-.79c.49,0,.9-.17,1.22-.52.32-.35.48-.78.48-1.29s-.16-.94-.48-1.29c-.32-.35-.73-.52-1.22-.52s-.91.17-1.23.52c-.32.35-.48.78-.48,1.29s.16.94.48,1.29c.32.35.73.52,1.23.52Z"/><path d="m44.91,189.34c-.55,0-.99-.18-1.33-.55s-.51-.86-.51-1.48v-3.07h.86v2.94c0,.42.1.75.31,1,.2.25.48.37.83.37.4,0,.73-.17.99-.5.26-.33.4-.77.4-1.33v-2.48h.86v5h-.86v-.77c-.33.58-.84.87-1.54.87Z"/><path d="m50.53,189.34c-.56,0-1.03-.14-1.41-.41-.38-.27-.58-.65-.62-1.14h.88c.05.28.19.49.41.62.22.13.47.2.75.2s.52-.06.7-.17.26-.28.26-.49c0-.2-.06-.36-.19-.49s-.34-.23-.64-.31l-.72-.19c-.86-.23-1.29-.72-1.29-1.47,0-.41.16-.73.49-.98.32-.25.74-.37,1.25-.37s.93.14,1.26.41c.33.27.51.61.55,1.03h-.86c-.07-.22-.19-.39-.36-.52-.17-.13-.37-.19-.6-.19-.25,0-.45.06-.62.17s-.25.26-.25.45.06.33.18.44c.12.11.31.21.58.28l.8.21c.85.21,1.28.71,1.28,1.48,0,.48-.17.84-.51,1.08-.34.24-.78.37-1.33.37Z"/><path d="m55.73,189.34c-.73,0-1.33-.25-1.81-.74-.48-.49-.71-1.11-.71-1.86s.23-1.38.7-1.87c.46-.49,1.08-.74,1.84-.74s1.38.27,1.82.82c.44.55.63,1.22.58,2.01h-4.07c.01.45.18.83.5,1.14.32.3.71.45,1.16.45.68,0,1.16-.28,1.45-.84h.88c-.13.47-.4.85-.81,1.16s-.92.46-1.53.46Zm.98-4.08c-.27-.24-.6-.35-.99-.35s-.73.12-1.04.35c-.3.23-.49.58-.56,1.04h3.12c-.08-.45-.26-.8-.53-1.04Z"/><path d="m64.02,189.34c-.75,0-1.38-.25-1.88-.75-.5-.5-.75-1.12-.75-1.84s.25-1.34.75-1.85c.5-.5,1.12-.75,1.88-.75s1.37.25,1.86.75c.5.5.75,1.12.75,1.85s-.25,1.34-.75,1.84c-.5.5-1.12.75-1.86.75Zm-1.25-1.32c.32.35.74.52,1.25.52s.93-.17,1.25-.52c.32-.35.48-.77.48-1.28s-.16-.93-.48-1.28c-.32-.35-.74-.52-1.25-.52s-.93.17-1.25.52c-.32.35-.49.77-.49,1.28s.16.93.49,1.28Z"/><path d="m68.2,189.24v-4.21h-1.06v-.79h1.06v-1.01c0-.5.14-.88.42-1.15.28-.27.65-.4,1.11-.4.27,0,.53.04.78.13v.76c-.15-.07-.36-.1-.62-.1-.29,0-.5.06-.63.19-.13.13-.2.35-.2.66v.92h1.45v.79h-1.45v4.21h-.86Z"/><path d="m73.73,189.24v-7.1h.93v3.03h3.89v-3.03h.93v7.1h-.93v-3.2h-3.89v3.2h-.93Z"/><path d="m83.27,189.34c-.73,0-1.33-.25-1.81-.74-.48-.49-.71-1.11-.71-1.86s.23-1.38.7-1.87c.46-.49,1.08-.74,1.84-.74s1.38.27,1.82.82c.44.55.63,1.22.58,2.01h-4.07c.01.45.18.83.5,1.14.32.3.71.45,1.16.45.68,0,1.16-.28,1.45-.84h.88c-.13.47-.4.85-.81,1.16s-.92.46-1.53.46Zm.98-4.08c-.27-.24-.6-.35-.99-.35s-.73.12-1.04.35c-.3.23-.49.58-.56,1.04h3.12c-.08-.45-.26-.8-.53-1.04Z"/><path d="m88.99,189.34c-.69,0-1.28-.25-1.75-.76s-.71-1.12-.71-1.84.24-1.33.71-1.84c.47-.51,1.05-.76,1.75-.76.37,0,.71.08,1.02.25.32.16.56.37.74.62v-.77h.86v5h-.86v-.77c-.17.25-.42.46-.74.62-.32.16-.66.25-1.02.25Zm.13-.79c.49,0,.9-.17,1.22-.52.32-.35.48-.78.48-1.29s-.16-.94-.48-1.29c-.32-.35-.73-.52-1.22-.52s-.91.17-1.23.52c-.32.35-.48.78-.48,1.29s.16.94.48,1.29c.32.35.73.52,1.23.52Z"/><path d="m93.22,189.24v-5h.86v.97c.09-.31.28-.55.54-.74.27-.19.55-.28.86-.28.15,0,.28.01.39.04v.89c-.12-.05-.28-.08-.47-.08-.35,0-.65.15-.92.45s-.4.72-.4,1.27v2.48h-.86Z"/><path d="m98.82,189.29c-.46,0-.83-.13-1.11-.39-.28-.26-.42-.64-.42-1.14v-2.73h-1.06v-.79h1.06v-1.39h.86v1.39h1.44v.79h-1.44v2.62c0,.31.07.53.2.66.13.13.34.19.63.19.25,0,.46-.03.61-.1v.77c-.24.08-.5.12-.77.12Z"/><path d="m103.24,189.24v-7.1h2.04c1.09,0,1.99.34,2.7,1.01.72.67,1.08,1.52,1.08,2.54s-.36,1.87-1.08,2.54c-.72.67-1.62,1.01-2.7,1.01h-2.04Zm.93-.87h1.11c.85,0,1.53-.25,2.05-.75.52-.5.79-1.15.79-1.92s-.26-1.42-.79-1.93c-.52-.5-1.21-.75-2.05-.75h-1.11v5.36Z"/><path d="m111.13,182.72c-.11.12-.26.18-.43.18s-.32-.06-.44-.18c-.12-.12-.18-.26-.18-.43s.06-.31.18-.43c.12-.12.27-.18.44-.18s.32.06.43.18.17.26.17.43-.06.32-.17.43Zm-.87,6.52v-5h.86v5h-.86Z"/><path d="m114.37,189.34c-.56,0-1.03-.14-1.41-.41-.38-.27-.58-.65-.62-1.14h.88c.05.28.19.49.41.62.22.13.47.2.75.2s.52-.06.7-.17.26-.28.26-.49c0-.2-.06-.36-.19-.49s-.34-.23-.64-.31l-.72-.19c-.86-.23-1.29-.72-1.29-1.47,0-.41.16-.73.49-.98.32-.25.74-.37,1.25-.37s.93.14,1.26.41c.33.27.51.61.55,1.03h-.86c-.07-.22-.19-.39-.36-.52-.17-.13-.37-.19-.6-.19-.25,0-.45.06-.62.17s-.25.26-.25.45.06.33.18.44c.12.11.31.21.58.28l.8.21c.85.21,1.28.71,1.28,1.48,0,.48-.17.84-.51,1.08-.34.24-.78.37-1.33.37Z"/><path d="m119.56,189.34c-.73,0-1.33-.25-1.81-.74-.48-.49-.71-1.11-.71-1.86s.23-1.38.7-1.87c.46-.49,1.08-.74,1.84-.74s1.38.27,1.82.82c.44.55.63,1.22.58,2.01h-4.07c.01.45.18.83.5,1.14.32.3.71.45,1.16.45.68,0,1.16-.28,1.45-.84h.88c-.13.47-.4.85-.81,1.16s-.92.46-1.53.46Zm.98-4.08c-.27-.24-.6-.35-.99-.35s-.73.12-1.04.35c-.3.23-.49.58-.56,1.04h3.12c-.08-.45-.26-.8-.53-1.04Z"/><path d="m125.28,189.34c-.69,0-1.28-.25-1.75-.76s-.71-1.12-.71-1.84.24-1.33.71-1.84c.47-.51,1.05-.76,1.75-.76.37,0,.71.08,1.02.25.32.16.56.37.74.62v-.77h.86v5h-.86v-.77c-.17.25-.42.46-.74.62-.32.16-.66.25-1.02.25Zm.13-.79c.49,0,.9-.17,1.22-.52.32-.35.48-.78.48-1.29s-.16-.94-.48-1.29c-.32-.35-.73-.52-1.22-.52s-.91.17-1.23.52c-.32.35-.48.78-.48,1.29s.16.94.48,1.29c.32.35.73.52,1.23.52Z"/><path d="m131.12,189.34c-.56,0-1.03-.14-1.41-.41-.38-.27-.58-.65-.62-1.14h.88c.05.28.19.49.41.62.22.13.47.2.75.2s.52-.06.7-.17.26-.28.26-.49c0-.2-.06-.36-.19-.49s-.34-.23-.64-.31l-.72-.19c-.86-.23-1.29-.72-1.29-1.47,0-.41.16-.73.49-.98.32-.25.74-.37,1.25-.37s.93.14,1.26.41c.33.27.51.61.55,1.03h-.86c-.07-.22-.19-.39-.36-.52-.17-.13-.37-.19-.6-.19-.25,0-.45.06-.62.17s-.25.26-.25.45.06.33.18.44c.12.11.31.21.58.28l.8.21c.85.21,1.28.71,1.28,1.48,0,.48-.17.84-.51,1.08-.34.24-.78.37-1.33.37Z"/><path d="m136.32,189.34c-.73,0-1.33-.25-1.81-.74-.48-.49-.71-1.11-.71-1.86s.23-1.38.7-1.87c.46-.49,1.08-.74,1.84-.74s1.38.27,1.82.82c.44.55.63,1.22.58,2.01h-4.07c.01.45.18.83.5,1.14.32.3.71.45,1.16.45.68,0,1.16-.28,1.45-.84h.88c-.13.47-.4.85-.81,1.16s-.92.46-1.53.46Zm.98-4.08c-.27-.24-.6-.35-.99-.35s-.73.12-1.04.35c-.3.23-.49.58-.56,1.04h3.12c-.08-.45-.26-.8-.53-1.04Z"/><path d="m140.95,189.1c-.14.15-.32.22-.53.22s-.38-.07-.52-.22c-.14-.15-.22-.32-.22-.53s.07-.38.22-.53.32-.22.52-.22.37.07.52.22c.15.15.22.33.22.53s-.07.38-.21.53Z"/><path d="m70.99,63.53v-4.21h-1.06v-.79h1.06v-1.01c0-.5.14-.88.42-1.15.28-.27.65-.4,1.11-.4.27,0,.53.04.78.13v.76c-.15-.07-.36-.1-.62-.1-.29,0-.5.06-.63.19-.13.13-.2.35-.2.66v.92h1.45v.79h-1.45v4.21h-.86Z"/><path d="m76.24,63.63c-.73,0-1.33-.25-1.81-.74-.48-.49-.71-1.11-.71-1.86s.23-1.38.7-1.87c.46-.49,1.08-.74,1.84-.74s1.38.27,1.82.82c.44.55.63,1.22.58,2.01h-4.07c.01.45.18.83.5,1.14.32.3.71.45,1.16.45.68,0,1.16-.28,1.45-.84h.88c-.13.47-.4.85-.81,1.16s-.92.46-1.53.46Zm.98-4.08c-.27-.24-.6-.35-.99-.35s-.73.12-1.04.35c-.3.23-.49.58-.56,1.04h3.12c-.08-.45-.26-.8-.53-1.04Z"/><path d="m86.34,63.53v-2.94c0-.41-.08-.75-.25-1s-.42-.38-.74-.38c-.4,0-.72.16-.97.47s-.38.74-.4,1.28v2.56h-.86v-2.94c0-.42-.08-.75-.25-1-.17-.25-.41-.37-.73-.37-.41,0-.75.17-1,.5-.25.33-.38.78-.38,1.33v2.48h-.86v-5h.86v.77c.32-.58.82-.87,1.51-.87.76,0,1.27.36,1.54,1.07.13-.33.35-.59.64-.78.29-.19.63-.29,1-.29.54,0,.97.18,1.28.55.31.37.47.86.47,1.48v3.07h-.86Z"/><path d="m90.81,63.63c-.69,0-1.28-.25-1.75-.76s-.71-1.12-.71-1.84.24-1.33.71-1.84c.47-.51,1.05-.76,1.75-.76.37,0,.71.08,1.02.25.32.16.56.37.74.62v-.77h.86v5h-.86v-.77c-.17.25-.42.46-.74.62-.32.16-.66.25-1.02.25Zm.13-.79c.49,0,.9-.17,1.22-.52.32-.35.48-.78.48-1.29s-.16-.94-.48-1.29c-.32-.35-.73-.52-1.22-.52s-.91.17-1.23.52c-.32.35-.48.78-.48,1.29s.16.94.48,1.29c.32.35.73.52,1.23.52Z"/><path d="m95.05,63.53v-7.5h.86v7.5h-.86Z"/><path d="m99.67,63.63c-.73,0-1.33-.25-1.81-.74-.48-.49-.71-1.11-.71-1.86s.23-1.38.7-1.87c.46-.49,1.08-.74,1.84-.74s1.38.27,1.82.82c.44.55.63,1.22.58,2.01h-4.07c.01.45.18.83.5,1.14.32.3.71.45,1.16.45.68,0,1.16-.28,1.45-.84h.88c-.13.47-.4.85-.81,1.16s-.92.46-1.53.46Zm.98-4.08c-.27-.24-.6-.35-.99-.35s-.73.12-1.04.35c-.3.23-.49.58-.56,1.04h3.12c-.08-.45-.26-.8-.53-1.04Z"/><path d="m107.8,63.63c-.69,0-1.28-.25-1.75-.76s-.71-1.12-.71-1.84.24-1.33.71-1.84c.47-.51,1.05-.76,1.75-.76.37,0,.71.08,1.02.25.32.16.56.37.74.62v-3.27h.86v7.5h-.86v-.77c-.17.25-.42.46-.74.62-.32.16-.66.25-1.02.25Zm.13-.79c.49,0,.9-.17,1.22-.52.32-.35.48-.78.48-1.29s-.16-.94-.48-1.29c-.32-.35-.73-.52-1.22-.52s-.91.17-1.23.52c-.32.35-.48.78-.48,1.29s.16.94.48,1.29c.32.35.73.52,1.23.52Z"/><path d="m114.17,63.63c-.73,0-1.33-.25-1.81-.74-.48-.49-.71-1.11-.71-1.86s.23-1.38.7-1.87c.46-.49,1.08-.74,1.84-.74s1.38.27,1.82.82c.44.55.63,1.22.58,2.01h-4.07c.01.45.18.83.5,1.14.32.3.71.45,1.16.45.68,0,1.16-.28,1.45-.84h.88c-.13.47-.4.85-.81,1.16s-.92.46-1.53.46Zm.98-4.08c-.27-.24-.6-.35-.99-.35s-.73.12-1.04.35c-.3.23-.49.58-.56,1.04h3.12c-.08-.45-.26-.8-.53-1.04Z"/><path d="m119.89,63.63c-.69,0-1.28-.25-1.75-.76s-.71-1.12-.71-1.84.24-1.33.71-1.84c.47-.51,1.05-.76,1.75-.76.37,0,.71.08,1.02.25.32.16.56.37.74.62v-.77h.86v5h-.86v-.77c-.17.25-.42.46-.74.62-.32.16-.66.25-1.02.25Zm.13-.79c.49,0,.9-.17,1.22-.52.32-.35.48-.78.48-1.29s-.16-.94-.48-1.29c-.32-.35-.73-.52-1.22-.52s-.91.17-1.23.52c-.32.35-.48.78-.48,1.29s.16.94.48,1.29c.32.35.73.52,1.23.52Z"/><path d="m126.07,63.58c-.46,0-.83-.13-1.11-.39-.28-.26-.42-.64-.42-1.14v-2.73h-1.06v-.79h1.06v-1.39h.86v1.39h1.44v.79h-1.44v2.62c0,.31.07.53.2.66.13.13.34.19.63.19.25,0,.46-.03.61-.1v.77c-.24.08-.5.12-.77.12Z"/><path d="m128.8,63.53h-.86v-7.5h.86v3.27c.34-.58.87-.87,1.59-.87.57,0,1.02.18,1.37.55.35.37.52.86.52,1.47v3.08h-.85v-2.95c0-.42-.11-.75-.32-1-.21-.24-.5-.37-.86-.37-.41,0-.76.16-1.04.49-.28.33-.42.77-.42,1.34v2.48Z"/><path d="m136.24,63.53v-5h.86v.97c.09-.31.28-.55.54-.74.27-.19.55-.28.86-.28.15,0,.28.01.39.04v.89c-.12-.05-.28-.08-.47-.08-.35,0-.65.15-.92.45s-.4.72-.4,1.27v2.48h-.86Z"/><path d="m141.79,63.63c-.69,0-1.28-.25-1.75-.76s-.71-1.12-.71-1.84.24-1.33.71-1.84c.47-.51,1.05-.76,1.75-.76.37,0,.71.08,1.02.25.32.16.56.37.74.62v-.77h.86v5h-.86v-.77c-.17.25-.42.46-.74.62-.32.16-.66.25-1.02.25Zm.13-.79c.49,0,.9-.17,1.22-.52.32-.35.48-.78.48-1.29s-.16-.94-.48-1.29c-.32-.35-.73-.52-1.22-.52s-.91.17-1.23.52c-.32.35-.48.78-.48,1.29s.16.94.48,1.29c.32.35.73.52,1.23.52Z"/><path d="m147.97,63.58c-.46,0-.83-.13-1.11-.39-.28-.26-.42-.64-.42-1.14v-2.73h-1.06v-.79h1.06v-1.39h.86v1.39h1.44v.79h-1.44v2.62c0,.31.07.53.2.66.13.13.34.19.63.19.25,0,.46-.03.61-.1v.77c-.24.08-.5.12-.77.12Z"/><path d="m151.9,63.63c-.73,0-1.33-.25-1.81-.74-.48-.49-.71-1.11-.71-1.86s.23-1.38.7-1.87c.46-.49,1.08-.74,1.84-.74s1.38.27,1.82.82c.44.55.63,1.22.58,2.01h-4.07c.01.45.18.83.5,1.14.32.3.71.45,1.16.45.68,0,1.16-.28,1.45-.84h.88c-.13.47-.4.85-.81,1.16s-.92.46-1.53.46Zm.98-4.08c-.27-.24-.6-.35-.99-.35s-.73.12-1.04.35c-.3.23-.49.58-.56,1.04h3.12c-.08-.45-.26-.8-.53-1.04Z"/><path d="m156.65,59.69c-.14.15-.32.22-.52.22s-.38-.07-.53-.22-.21-.32-.21-.53.07-.38.22-.53c.15-.15.32-.22.52-.22s.37.08.52.22c.15.15.22.33.22.53s-.07.38-.22.53Zm0,3.7c-.14.15-.32.22-.52.22s-.38-.07-.53-.22-.21-.32-.21-.53.07-.38.22-.53.32-.22.52-.22.37.07.52.22.22.33.22.53-.07.38-.22.53Z"/><path d="m161.47,63.53h-.96l3.31-6.26h-3.63v-.84h4.66v.72l-3.38,6.38Z"/><path d="m168.1,63.63c-.74,0-1.34-.25-1.81-.75-.47-.5-.7-1.14-.7-1.92v-1.98c0-.79.24-1.43.71-1.93.47-.5,1.07-.75,1.81-.75s1.34.25,1.81.75.71,1.14.71,1.92v1.98c0,.79-.24,1.43-.71,1.92-.47.5-1.08.75-1.81.75Zm0-.84c.49,0,.89-.16,1.2-.49.31-.33.46-.77.46-1.34v-1.98c0-.57-.15-1.01-.46-1.34-.31-.33-.71-.49-1.2-.49s-.88.16-1.19.49c-.31.33-.46.77-.46,1.34v1.98c0,.57.15,1.01.46,1.34.31.33.7.49,1.19.49Z"/><path d="m172.85,63.39c-.14.15-.32.22-.53.22s-.38-.07-.52-.22c-.14-.15-.22-.32-.22-.53s.07-.38.22-.53.32-.22.52-.22.37.07.52.22c.15.15.22.33.22.53s-.07.38-.21.53Z"/><path d="m176.32,63.63c-.64,0-1.19-.2-1.66-.6-.47-.4-.71-.87-.72-1.42h.88c.08.35.26.63.53.85s.6.33.97.33c.43,0,.8-.15,1.09-.44s.44-.65.44-1.08-.14-.8-.42-1.09c-.28-.29-.64-.44-1.07-.44-.59,0-1.04.24-1.34.72l-.82-.24.73-3.79h3.32v.84h-2.63l-.39,2.03c.35-.25.76-.37,1.24-.37.66,0,1.2.23,1.62.7.42.46.64,1.05.64,1.75,0,.63-.23,1.16-.69,1.59-.46.44-1.03.66-1.72.66Z"/><path d="m204.99,268.07v-2.94c0-.41-.08-.75-.25-1s-.42-.38-.74-.38c-.4,0-.72.16-.97.47s-.38.74-.4,1.28v2.56h-.86v-2.94c0-.42-.08-.75-.25-1-.17-.25-.41-.37-.73-.37-.41,0-.75.17-1,.5-.25.33-.38.77-.38,1.33v2.48h-.86v-5h.86v.77c.32-.58.82-.87,1.51-.87.76,0,1.27.36,1.54,1.07.13-.33.35-.59.64-.78.29-.19.63-.29,1-.29.54,0,.97.18,1.28.55.31.37.47.86.47,1.48v3.07h-.86Z"/><path d="m209.46,268.18c-.69,0-1.28-.25-1.75-.76-.47-.51-.71-1.12-.71-1.84s.24-1.33.71-1.84,1.05-.76,1.75-.76c.37,0,.71.08,1.02.25.32.16.56.37.74.62v-.77h.86v5h-.86v-.77c-.17.25-.42.46-.74.62-.32.16-.66.25-1.02.25Zm.13-.79c.49,0,.9-.17,1.22-.52.32-.35.48-.78.48-1.29s-.16-.94-.48-1.29c-.32-.35-.73-.52-1.22-.52s-.91.17-1.23.52c-.32.35-.48.78-.48,1.29s.16.94.48,1.29c.32.35.73.52,1.23.52Z"/><path d="m213.7,268.07v-7.5h.86v7.5h-.86Z"/><path d="m218.32,268.18c-.73,0-1.33-.25-1.81-.74s-.71-1.11-.71-1.86.23-1.38.7-1.87c.46-.49,1.08-.73,1.84-.73s1.38.27,1.82.82c.44.55.63,1.22.58,2.01h-4.07c.01.45.18.83.5,1.13s.71.46,1.16.46c.68,0,1.16-.28,1.45-.84h.88c-.13.47-.4.85-.81,1.16s-.92.46-1.53.46Zm.98-4.08c-.27-.24-.6-.36-.99-.36s-.73.12-1.04.35c-.3.23-.49.58-.56,1.04h3.12c-.08-.45-.26-.8-.53-1.03Z"/><path d="m226.45,268.18c-.69,0-1.28-.25-1.75-.76-.47-.51-.71-1.12-.71-1.84s.24-1.33.71-1.84,1.05-.76,1.75-.76c.37,0,.71.08,1.02.25.32.16.56.37.74.62v-3.27h.86v7.5h-.86v-.77c-.17.25-.42.46-.74.62-.32.16-.66.25-1.02.25Zm.13-.79c.49,0,.9-.17,1.22-.52.32-.35.48-.78.48-1.29s-.16-.94-.48-1.29c-.32-.35-.73-.52-1.22-.52s-.91.17-1.23.52c-.32.35-.48.78-.48,1.29s.16.94.48,1.29c.32.35.73.52,1.23.52Z"/><path d="m232.82,268.18c-.73,0-1.33-.25-1.81-.74s-.71-1.11-.71-1.86.23-1.38.7-1.87c.46-.49,1.08-.73,1.84-.73s1.38.27,1.82.82c.44.55.63,1.22.58,2.01h-4.07c.01.45.18.83.5,1.13s.71.46,1.16.46c.68,0,1.16-.28,1.45-.84h.88c-.13.47-.4.85-.81,1.16s-.92.46-1.53.46Zm.98-4.08c-.27-.24-.6-.36-.99-.36s-.73.12-1.04.35c-.3.23-.49.58-.56,1.04h3.12c-.08-.45-.26-.8-.53-1.03Z"/><path d="m238.54,268.18c-.69,0-1.28-.25-1.75-.76-.47-.51-.71-1.12-.71-1.84s.24-1.33.71-1.84,1.05-.76,1.75-.76c.37,0,.71.08,1.02.25.32.16.56.37.74.62v-.77h.86v5h-.86v-.77c-.17.25-.42.46-.74.62-.32.16-.66.25-1.02.25Zm.13-.79c.49,0,.9-.17,1.22-.52.32-.35.48-.78.48-1.29s-.16-.94-.48-1.29c-.32-.35-.73-.52-1.22-.52s-.91.17-1.23.52c-.32.35-.48.78-.48,1.29s.16.94.48,1.29c.32.35.73.52,1.23.52Z"/><path d="m244.72,268.12c-.46,0-.83-.13-1.11-.39-.28-.26-.42-.64-.42-1.14v-2.73h-1.06v-.79h1.06v-1.39h.86v1.39h1.44v.79h-1.44v2.62c0,.31.07.53.2.66.13.13.34.19.63.19.25,0,.46-.03.61-.1v.77c-.24.08-.5.12-.77.12Z"/><path d="m247.45,268.07h-.86v-7.5h.86v3.27c.34-.58.87-.87,1.59-.87.57,0,1.02.18,1.37.55.35.37.52.86.52,1.47v3.08h-.85v-2.95c0-.42-.11-.75-.32-.99-.21-.24-.5-.37-.86-.37-.41,0-.76.16-1.04.49-.28.33-.42.77-.42,1.34v2.48Z"/><path d="m254.89,268.07v-5h.86v.97c.09-.31.28-.55.54-.74.27-.19.55-.28.86-.28.15,0,.28.01.39.04v.89c-.12-.05-.28-.08-.47-.08-.35,0-.65.15-.92.45s-.4.72-.4,1.27v2.48h-.86Z"/><path d="m260.44,268.18c-.69,0-1.28-.25-1.75-.76-.47-.51-.71-1.12-.71-1.84s.24-1.33.71-1.84,1.05-.76,1.75-.76c.37,0,.71.08,1.02.25.32.16.56.37.74.62v-.77h.86v5h-.86v-.77c-.17.25-.42.46-.74.62-.32.16-.66.25-1.02.25Zm.13-.79c.49,0,.9-.17,1.22-.52.32-.35.48-.78.48-1.29s-.16-.94-.48-1.29c-.32-.35-.73-.52-1.22-.52s-.91.17-1.23.52c-.32.35-.48.78-.48,1.29s.16.94.48,1.29c.32.35.73.52,1.23.52Z"/><path d="m266.62,268.12c-.46,0-.83-.13-1.11-.39-.28-.26-.42-.64-.42-1.14v-2.73h-1.06v-.79h1.06v-1.39h.86v1.39h1.44v.79h-1.44v2.62c0,.31.07.53.2.66.13.13.34.19.63.19.25,0,.46-.03.61-.1v.77c-.24.08-.5.12-.77.12Z"/><path d="m270.55,268.18c-.73,0-1.33-.25-1.81-.74s-.71-1.11-.71-1.86.23-1.38.7-1.87c.46-.49,1.08-.73,1.84-.73s1.38.27,1.82.82c.44.55.63,1.22.58,2.01h-4.07c.01.45.18.83.5,1.13s.71.46,1.16.46c.68,0,1.16-.28,1.45-.84h.88c-.13.47-.4.85-.81,1.16s-.92.46-1.53.46Zm.98-4.08c-.27-.24-.6-.36-.99-.36s-.73.12-1.04.35c-.3.23-.49.58-.56,1.04h3.12c-.08-.45-.26-.8-.53-1.03Z"/><path d="m275.29,264.23c-.14.15-.32.22-.52.22s-.38-.07-.53-.22-.21-.32-.21-.53.07-.38.22-.52c.15-.15.32-.23.52-.23s.37.08.52.23c.15.15.22.33.22.52s-.07.38-.22.53Zm0,3.7c-.14.15-.32.22-.52.22s-.38-.07-.53-.22-.21-.32-.21-.53.07-.38.22-.52c.15-.15.32-.23.52-.23s.37.08.52.23c.15.15.22.32.22.52s-.07.38-.22.53Z"/><path d="m281.41,268.18c-.69,0-1.27-.21-1.72-.63-.45-.42-.67-.95-.67-1.6,0-.87.37-1.48,1.12-1.85-.49-.35-.73-.82-.73-1.41,0-.53.19-.97.56-1.32.38-.34.86-.51,1.44-.51s1.06.17,1.43.51c.37.34.55.78.55,1.32,0,.6-.24,1.07-.72,1.41.74.37,1.11.98,1.11,1.85,0,.65-.22,1.18-.67,1.6-.44.42-1.02.63-1.71.63Zm0-.82c.47,0,.83-.13,1.1-.4.27-.27.41-.6.41-1.01s-.13-.75-.41-1.02c-.27-.27-.64-.4-1.1-.4s-.82.13-1.1.41c-.28.27-.42.61-.42,1.01s.14.74.42,1c.28.27.65.41,1.1.41Zm0-3.6c.35,0,.62-.1.83-.31.21-.2.31-.45.31-.75s-.1-.56-.3-.75c-.2-.19-.48-.29-.83-.29s-.62.1-.83.29c-.21.2-.32.45-.32.75s.11.53.32.74c.21.21.49.31.83.31Z"/><path d="m287,268.18c-.64,0-1.19-.2-1.66-.6-.47-.4-.71-.87-.72-1.42h.88c.08.35.26.63.53.85.27.22.6.33.97.33.43,0,.8-.15,1.09-.44.29-.29.44-.65.44-1.08s-.14-.8-.42-1.09c-.28-.29-.64-.44-1.07-.44-.59,0-1.04.24-1.34.72l-.82-.24.73-3.79h3.32v.84h-2.63l-.39,2.03c.35-.25.76-.37,1.24-.37.66,0,1.2.23,1.62.7.42.46.64,1.05.64,1.75,0,.63-.23,1.16-.69,1.59s-1.03.66-1.72.66Z"/><path d="m291.59,267.94c-.14.15-.32.22-.53.22s-.38-.07-.52-.22c-.14-.15-.22-.32-.22-.53s.07-.38.22-.52c.15-.15.32-.23.52-.23s.37.08.52.23c.15.15.22.32.22.52s-.07.38-.21.53Z"/><path d="m295.07,268.18c-.64,0-1.19-.2-1.66-.6-.47-.4-.71-.87-.72-1.42h.88c.08.35.26.63.53.85.27.22.6.33.97.33.43,0,.8-.15,1.09-.44.29-.29.44-.65.44-1.08s-.14-.8-.42-1.09c-.28-.29-.64-.44-1.07-.44-.59,0-1.04.24-1.34.72l-.82-.24.73-3.79h3.32v.84h-2.63l-.39,2.03c.35-.25.76-.37,1.24-.37.66,0,1.2.23,1.62.7.42.46.64,1.05.64,1.75,0,.63-.23,1.16-.69,1.59s-1.03.66-1.72.66Z"/><line class="cls-2" x1="115.16" y1="78.61" x2="138.69" y2="155.85"/><line class="cls-2" x1="242.17" y1="246.36" x2="165.08" y2="203.47"/></g></svg>