<?xml version="1.0" encoding="UTF-8"?><svg id="_图层_2" xmlns="http://www.w3.org/2000/svg" viewBox="0 0 418.29 345.91"><defs><style>.cls-1{fill:#fff;}.cls-2{fill:none;stroke:#241f20;stroke-miterlimit:10;stroke-width:.5px;}</style></defs><g id="_图层_1-2"><path class="cls-1" d="m405.64,193.81c-41.07,178.93-202.48,157.78-373.98,141.97-90.28-8.32,45.37-78.21,5.4-141.97C-15.67,109.71,84.22,95.61,163.45,55.55c233.41-118.04,282.36-36.74,242.19,138.26Z"/><path d="m52.2,166.95v-7.81h1.02v7.81h-1.02Z"/><path d="m55.12,166.95v-5.5h.95v.85c.37-.64.96-.96,1.75-.96.62,0,1.13.2,1.51.6.38.4.57.94.57,1.62v3.39h-.93v-3.25c0-.46-.12-.83-.35-1.09s-.55-.4-.95-.4c-.45,0-.83.18-1.14.54-.3.36-.46.85-.46,1.47v2.73h-.95Z"/><path d="m68.96,166.03v.91h-5.06v-.38c0-.27.04-.53.13-.78.08-.25.18-.45.28-.62.1-.17.26-.36.48-.57.22-.21.39-.36.52-.46.12-.1.33-.25.63-.46.29-.21.49-.35.58-.41.52-.38.88-.7,1.08-.96.2-.26.3-.6.3-1.03s-.13-.74-.4-.98c-.26-.25-.61-.37-1.03-.37-.45,0-.83.14-1.14.41s-.47.65-.47,1.13h-.97c0-.73.24-1.33.73-1.78.49-.46,1.1-.68,1.84-.68.69,0,1.26.2,1.72.59s.69.96.69,1.69c0,.56-.14,1.03-.41,1.42-.27.39-.74.83-1.4,1.3-.12.09-.3.21-.53.37-.23.16-.4.29-.53.38-.12.1-.26.21-.41.35s-.27.28-.35.43c-.08.15-.15.31-.18.49h3.89Z"/><path d="m72.92,167.05c-.81,0-1.48-.27-1.99-.82-.51-.55-.77-1.25-.77-2.12v-2.18c0-.87.26-1.57.78-2.12s1.18-.82,1.99-.82,1.47.27,1.99.83c.52.55.78,1.25.78,2.11v2.18c0,.87-.26,1.57-.78,2.12s-1.18.82-1.99.82Zm0-.92c.54,0,.98-.18,1.32-.54.34-.36.51-.85.51-1.47v-2.18c0-.62-.17-1.11-.51-1.47-.34-.36-.78-.54-1.32-.54s-.97.18-1.31.54c-.34.36-.51.85-.51,1.47v2.18c0,.62.17,1.12.51,1.47.34.36.77.54,1.31.54Z"/><path d="m77.95,166.95v-6.88h-1.51l.77-.94h1.68v7.81h-.95Z"/><path d="m83.08,167.05c-.76,0-1.39-.23-1.89-.69-.5-.46-.74-1.05-.74-1.76,0-.95.41-1.63,1.23-2.04-.54-.38-.8-.9-.8-1.55,0-.59.21-1.07.62-1.45s.94-.57,1.58-.57,1.17.19,1.58.57.61.86.61,1.45c0,.66-.26,1.18-.79,1.55.81.4,1.22,1.08,1.22,2.04,0,.71-.24,1.3-.73,1.76-.49.46-1.12.69-1.89.69Zm0-.9c.51,0,.92-.15,1.21-.44s.45-.66.45-1.11-.15-.83-.45-1.12c-.3-.29-.7-.44-1.21-.44s-.9.15-1.21.45c-.31.3-.46.67-.46,1.12s.15.81.46,1.11c.31.3.71.45,1.21.45Zm0-3.96c.38,0,.69-.11.91-.34.23-.22.34-.5.34-.82s-.11-.61-.34-.82-.53-.32-.92-.32-.68.11-.91.32c-.24.22-.35.49-.35.82s.12.59.35.81c.23.23.54.34.91.34Z"/><path d="m91.7,167c-.51,0-.91-.14-1.22-.43-.31-.29-.46-.7-.46-1.25v-3h-1.17v-.87h1.17v-1.53h.95v1.53h1.58v.87h-1.58v2.88c0,.35.07.59.22.73s.38.21.69.21c.28,0,.5-.04.67-.11v.85c-.26.09-.55.13-.85.13Z"/><path d="m94.7,166.95h-.95v-8.25h.95v3.6c.37-.64.96-.96,1.75-.96.62,0,1.13.2,1.51.6.38.4.57.94.57,1.62v3.39h-.93v-3.25c0-.46-.12-.83-.35-1.09s-.55-.4-.95-.4c-.45,0-.83.18-1.14.54-.3.36-.46.85-.46,1.47v2.73Z"/><path d="m102.58,167.05c-.8,0-1.46-.27-1.99-.81-.52-.54-.79-1.22-.79-2.04s.25-1.51.76-2.05c.51-.54,1.19-.81,2.03-.81s1.52.3,2,.9c.48.6.7,1.34.64,2.21h-4.48c.01.5.2.92.55,1.25.35.33.78.5,1.28.5.75,0,1.28-.31,1.59-.92h.97c-.14.51-.44.94-.89,1.28s-1.02.51-1.68.51Zm1.08-4.49c-.3-.26-.66-.39-1.09-.39s-.8.13-1.14.38c-.33.26-.54.64-.62,1.14h3.43c-.09-.5-.28-.88-.58-1.14Z"/><path d="m106.61,166.95v-5.5h.95v1.07c.1-.34.3-.61.6-.81.3-.21.61-.31.94-.31.16,0,.3.01.43.04v.98c-.13-.06-.3-.09-.52-.09-.38,0-.72.17-1.01.5-.29.33-.44.79-.44,1.4v2.73h-.95Z"/><path d="m112.78,167.05c-.8,0-1.46-.27-1.99-.81-.52-.54-.79-1.22-.79-2.04s.25-1.51.76-2.05c.51-.54,1.19-.81,2.03-.81s1.52.3,2,.9c.48.6.7,1.34.64,2.21h-4.48c.01.5.2.92.55,1.25.35.33.78.5,1.28.5.75,0,1.28-.31,1.59-.92h.97c-.14.51-.44.94-.89,1.28s-1.02.51-1.68.51Zm1.08-4.49c-.3-.26-.66-.39-1.09-.39s-.8.13-1.14.38c-.33.26-.54.64-.62,1.14h3.43c-.09-.5-.28-.88-.58-1.14Z"/><path d="m123.92,166.95l-1.36-3.95-1.35,3.95h-.84l-1.87-5.5h.99l1.33,4.01,1.38-4.01h.73l1.38,4.01,1.33-4.01h1l-1.87,5.5h-.84Z"/><path d="m129.97,167.05c-.8,0-1.46-.27-1.99-.81-.52-.54-.79-1.22-.79-2.04s.25-1.51.76-2.05c.51-.54,1.19-.81,2.03-.81s1.52.3,2,.9c.48.6.7,1.34.64,2.21h-4.48c.01.5.2.92.55,1.25.35.33.78.5,1.28.5.75,0,1.28-.31,1.59-.92h.97c-.14.51-.44.94-.89,1.28s-1.02.51-1.68.51Zm1.08-4.49c-.3-.26-.66-.39-1.09-.39s-.8.13-1.14.38c-.33.26-.54.64-.62,1.14h3.43c-.09-.5-.28-.88-.58-1.14Z"/><path d="m134,166.95v-5.5h.95v1.07c.1-.34.3-.61.6-.81.3-.21.61-.31.94-.31.16,0,.3.01.43.04v.98c-.13-.06-.3-.09-.52-.09-.38,0-.72.17-1.01.5-.29.33-.44.79-.44,1.4v2.73h-.95Z"/><path d="m140.17,167.05c-.8,0-1.46-.27-1.99-.81-.52-.54-.79-1.22-.79-2.04s.25-1.51.76-2.05c.51-.54,1.19-.81,2.03-.81s1.52.3,2,.9c.48.6.7,1.34.64,2.21h-4.48c.01.5.2.92.55,1.25.35.33.78.5,1.28.5.75,0,1.28-.31,1.59-.92h.97c-.14.51-.44.94-.89,1.28s-1.02.51-1.68.51Zm1.08-4.49c-.3-.26-.66-.39-1.09-.39s-.8.13-1.14.38c-.33.26-.54.64-.62,1.14h3.43c-.09-.5-.28-.88-.58-1.14Z"/><path d="m151.55,166.03v.91h-5.06v-.38c0-.27.04-.53.13-.78.08-.25.18-.45.28-.62.1-.17.26-.36.48-.57.22-.21.39-.36.52-.46.12-.1.33-.25.63-.46.29-.21.49-.35.58-.41.52-.38.88-.7,1.08-.96.2-.26.3-.6.3-1.03s-.13-.74-.4-.98c-.26-.25-.61-.37-1.03-.37-.45,0-.83.14-1.14.41s-.47.65-.47,1.13h-.97c0-.73.24-1.33.73-1.78.49-.46,1.1-.68,1.84-.68.69,0,1.26.2,1.72.59s.69.96.69,1.69c0,.56-.14,1.03-.41,1.42-.27.39-.74.83-1.4,1.3-.12.09-.3.21-.53.37-.23.16-.4.29-.53.38-.12.1-.26.21-.41.35s-.27.28-.35.43c-.08.15-.15.31-.18.49h3.89Z"/><path d="m155.11,167.05c-.7,0-1.31-.22-1.83-.66-.51-.44-.78-.96-.79-1.56h.97c.09.38.28.69.58.93s.66.36,1.07.36c.48,0,.88-.16,1.2-.48.32-.32.48-.72.48-1.19s-.15-.88-.46-1.2c-.31-.32-.7-.48-1.18-.48-.65,0-1.14.26-1.47.79l-.9-.26.8-4.17h3.65v.92h-2.89l-.43,2.23c.38-.27.84-.41,1.36-.41.73,0,1.32.25,1.79.76.46.51.7,1.15.7,1.93,0,.69-.25,1.27-.76,1.75s-1.14.72-1.89.72Z"/><path d="m160.16,166.79c-.16.16-.35.24-.58.24s-.42-.08-.58-.24c-.16-.16-.24-.36-.24-.58s.08-.41.24-.58c.16-.17.35-.25.57-.25s.41.08.57.25c.16.16.24.36.24.58s-.08.42-.24.58Z"/><path d="m165.31,166.95v-2.12h-4.16v-.76l4.28-4.93h.83v4.8h1.08v.89h-1.08v2.12h-.95Zm-2.93-3.01h2.93v-3.37l-2.93,3.37Z"/><path d="m172.24,169.24h-.95v-7.8h.95v.85c.19-.28.46-.51.81-.69s.72-.27,1.13-.27c.76,0,1.4.28,1.92.84.52.56.78,1.23.78,2.02s-.26,1.47-.78,2.02c-.52.56-1.16.84-1.92.84-.4,0-.78-.09-1.13-.27s-.62-.41-.81-.69v3.15Zm.45-3.63c.35.38.8.57,1.34.57s.99-.19,1.34-.57c.35-.38.53-.85.53-1.42s-.18-1.04-.53-1.42c-.35-.38-.8-.57-1.34-.57s-.99.19-1.34.57c-.35.38-.53.86-.53,1.42s.18,1.04.53,1.42Z"/><path d="m180.58,167.05c-.8,0-1.46-.27-1.99-.81-.52-.54-.79-1.22-.79-2.04s.25-1.51.76-2.05c.51-.54,1.19-.81,2.03-.81s1.52.3,2,.9c.48.6.7,1.34.64,2.21h-4.48c.01.5.2.92.55,1.25.35.33.78.5,1.28.5.75,0,1.28-.31,1.59-.92h.97c-.14.51-.44.94-.89,1.28s-1.02.51-1.68.51Zm1.08-4.49c-.3-.26-.66-.39-1.09-.39s-.8.13-1.14.38c-.33.26-.54.64-.62,1.14h3.43c-.09-.5-.28-.88-.58-1.14Z"/><path d="m184.61,166.95v-5.5h.95v1.07c.1-.34.3-.61.6-.81.3-.21.61-.31.94-.31.16,0,.3.01.43.04v.98c-.13-.06-.3-.09-.52-.09-.38,0-.72.17-1.01.5-.29.33-.44.79-.44,1.4v2.73h-.95Z"/><path d="m191.72,166.95v-6.88h-1.51l.77-.94h1.68v7.81h-.95Z"/><path d="m197.12,167.05c-.81,0-1.48-.27-1.99-.82-.51-.55-.77-1.25-.77-2.12v-2.18c0-.87.26-1.57.78-2.12s1.18-.82,1.99-.82,1.47.27,1.99.83c.52.55.78,1.25.78,2.11v2.18c0,.87-.26,1.57-.78,2.12s-1.18.82-1.99.82Zm0-.92c.54,0,.98-.18,1.32-.54.34-.36.51-.85.51-1.47v-2.18c0-.62-.17-1.11-.51-1.47-.34-.36-.78-.54-1.32-.54s-.97.18-1.31.54c-.34.36-.51.85-.51,1.47v2.18c0,.62.17,1.12.51,1.47.34.36.77.54,1.31.54Z"/><path d="m203.97,167.05c-.81,0-1.48-.27-1.99-.82-.51-.55-.77-1.25-.77-2.12v-2.18c0-.87.26-1.57.78-2.12s1.18-.82,1.99-.82,1.47.27,1.99.83c.52.55.78,1.25.78,2.11v2.18c0,.87-.26,1.57-.78,2.12s-1.18.82-1.99.82Zm0-.92c.54,0,.98-.18,1.32-.54.34-.36.51-.85.51-1.47v-2.18c0-.62-.17-1.11-.51-1.47-.34-.36-.78-.54-1.32-.54s-.97.18-1.31.54c-.34.36-.51.85-.51,1.47v2.18c0,.62.17,1.12.51,1.47.34.36.77.54,1.31.54Z"/><path d="m209.29,166.7l-1.13,1.81h-.63l.74-1.57c-.3-.15-.45-.39-.45-.74,0-.22.08-.41.24-.58.16-.17.35-.25.57-.25s.41.08.57.25c.16.16.24.36.24.58,0,.16-.05.33-.15.5Z"/><path d="m213.29,167.05c-.81,0-1.48-.27-1.99-.82-.51-.55-.77-1.25-.77-2.12v-2.18c0-.87.26-1.57.78-2.12s1.18-.82,1.99-.82,1.47.27,1.99.83c.52.55.78,1.25.78,2.11v2.18c0,.87-.26,1.57-.78,2.12s-1.18.82-1.99.82Zm0-.92c.54,0,.98-.18,1.32-.54.34-.36.51-.85.51-1.47v-2.18c0-.62-.17-1.11-.51-1.47-.34-.36-.78-.54-1.32-.54s-.97.18-1.31.54c-.34.36-.51.85-.51,1.47v2.18c0,.62.17,1.12.51,1.47.34.36.77.54,1.31.54Z"/><path d="m220.14,167.05c-.81,0-1.48-.27-1.99-.82-.51-.55-.77-1.25-.77-2.12v-2.18c0-.87.26-1.57.78-2.12s1.18-.82,1.99-.82,1.47.27,1.99.83c.52.55.78,1.25.78,2.11v2.18c0,.87-.26,1.57-.78,2.12s-1.18.82-1.99.82Zm0-.92c.54,0,.98-.18,1.32-.54.34-.36.51-.85.51-1.47v-2.18c0-.62-.17-1.11-.51-1.47-.34-.36-.78-.54-1.32-.54s-.97.18-1.31.54c-.34.36-.51.85-.51,1.47v2.18c0,.62.17,1.12.51,1.47.34.36.77.54,1.31.54Z"/><path d="m226.99,167.05c-.81,0-1.48-.27-1.99-.82-.51-.55-.77-1.25-.77-2.12v-2.18c0-.87.26-1.57.78-2.12s1.18-.82,1.99-.82,1.47.27,1.99.83c.52.55.78,1.25.78,2.11v2.18c0,.87-.26,1.57-.78,2.12s-1.18.82-1.99.82Zm0-.92c.54,0,.98-.18,1.32-.54.34-.36.51-.85.51-1.47v-2.18c0-.62-.17-1.11-.51-1.47-.34-.36-.78-.54-1.32-.54s-.97.18-1.31.54c-.34.36-.51.85-.51,1.47v2.18c0,.62.17,1.12.51,1.47.34.36.77.54,1.31.54Z"/><path d="m236.23,167.05c-.76,0-1.4-.28-1.92-.84-.52-.56-.78-1.23-.78-2.02s.26-1.47.78-2.02c.52-.56,1.16-.84,1.92-.84.4,0,.78.09,1.13.27.35.18.62.41.81.69v-3.6h.95v8.25h-.95v-.85c-.19.28-.46.51-.81.69-.35.18-.72.27-1.13.27Zm.14-.87c.54,0,.99-.19,1.34-.57.35-.38.53-.85.53-1.42s-.18-1.04-.53-1.42c-.35-.38-.8-.57-1.34-.57s-1,.19-1.35.57c-.35.38-.53.86-.53,1.42s.18,1.04.53,1.42c.35.38.8.57,1.35.57Z"/><path d="m243.24,167.05c-.8,0-1.46-.27-1.99-.81-.52-.54-.79-1.22-.79-2.04s.25-1.51.76-2.05c.51-.54,1.19-.81,2.03-.81s1.52.3,2,.9c.48.6.7,1.34.64,2.21h-4.48c.01.5.2.92.55,1.25.35.33.78.5,1.28.5.75,0,1.28-.31,1.59-.92h.97c-.14.51-.44.94-.89,1.28s-1.02.51-1.68.51Zm1.08-4.49c-.3-.26-.66-.39-1.09-.39s-.8.13-1.14.38c-.33.26-.54.64-.62,1.14h3.43c-.09-.5-.28-.88-.58-1.14Z"/><path d="m249.53,167.05c-.76,0-1.4-.28-1.92-.84-.52-.56-.78-1.23-.78-2.02s.26-1.47.78-2.02c.52-.56,1.16-.84,1.92-.84.4,0,.78.09,1.13.27.35.18.62.41.81.69v-.85h.95v5.5h-.95v-.85c-.19.28-.46.51-.81.69-.35.18-.72.27-1.13.27Zm.14-.87c.54,0,.99-.19,1.34-.57.35-.38.53-.85.53-1.42s-.18-1.04-.53-1.42c-.35-.38-.8-.57-1.34-.57s-1,.19-1.35.57c-.35.38-.53.86-.53,1.42s.18,1.04.53,1.42c.35.38.8.57,1.35.57Z"/><path d="m256.33,167c-.51,0-.91-.14-1.22-.43-.31-.29-.46-.7-.46-1.25v-3h-1.17v-.87h1.17v-1.53h.95v1.53h1.58v.87h-1.58v2.88c0,.35.07.59.22.73s.38.21.69.21c.28,0,.5-.04.67-.11v.85c-.26.09-.55.13-.85.13Z"/><path d="m259.33,166.95h-.95v-8.25h.95v3.6c.37-.64.96-.96,1.75-.96.62,0,1.13.2,1.51.6.38.4.57.94.57,1.62v3.39h-.93v-3.25c0-.46-.12-.83-.35-1.09s-.55-.4-.95-.4c-.45,0-.83.18-1.14.54-.3.36-.46.85-.46,1.47v2.73Z"/><path d="m266.64,167.05c-.62,0-1.13-.15-1.55-.45s-.64-.72-.69-1.25h.97c.06.31.21.54.45.68.24.15.51.22.83.22s.57-.06.76-.19c.19-.12.29-.3.29-.54,0-.22-.07-.4-.21-.54-.14-.14-.38-.25-.7-.34l-.79-.21c-.95-.25-1.42-.79-1.42-1.62,0-.45.18-.81.53-1.08s.81-.41,1.37-.41,1.03.15,1.39.45.57.67.61,1.13h-.95c-.07-.24-.2-.43-.39-.57-.19-.14-.41-.21-.67-.21-.27,0-.5.06-.68.19-.18.12-.27.29-.27.49s.07.36.2.48.34.23.64.31l.88.23c.94.23,1.41.78,1.41,1.63,0,.53-.19.93-.56,1.19s-.86.4-1.46.4Z"/><path d="m54.94,180.25c-.4,0-.78-.09-1.13-.27-.35-.18-.62-.41-.81-.69v.85h-.95v-8.25h.95v3.6c.19-.28.46-.51.81-.69s.72-.27,1.13-.27c.76,0,1.4.28,1.92.84.52.56.78,1.23.78,2.02s-.26,1.47-.78,2.02c-.52.56-1.16.84-1.92.84Zm-1.49-1.44c.35.38.8.57,1.34.57s.99-.19,1.34-.57c.35-.38.53-.85.53-1.42s-.18-1.04-.53-1.42c-.35-.38-.8-.57-1.34-.57s-.99.19-1.34.57c-.35.38-.53.85-.53,1.42s.18,1.04.53,1.42Z"/><path d="m61.33,180.25c-.8,0-1.46-.27-1.99-.81s-.79-1.22-.79-2.05.25-1.51.76-2.05,1.19-.81,2.03-.81,1.52.3,2,.9c.48.6.7,1.34.64,2.21h-4.48c.01.5.2.91.55,1.25.35.33.78.5,1.28.5.75,0,1.28-.31,1.59-.92h.97c-.14.51-.44.94-.89,1.28s-1.02.51-1.68.51Zm1.08-4.49c-.3-.26-.66-.39-1.09-.39s-.8.13-1.14.38c-.33.26-.54.64-.62,1.14h3.43c-.09-.5-.28-.88-.58-1.14Z"/><path d="m67.8,180.25c-.83,0-1.51-.28-2.06-.83-.54-.55-.81-1.23-.81-2.03s.27-1.47.81-2.03c.54-.55,1.23-.83,2.06-.83.68,0,1.27.19,1.77.57.5.38.83.87,1,1.48h-1.01c-.13-.36-.35-.65-.66-.86-.31-.21-.67-.32-1.1-.32-.56,0-1.02.19-1.38.57-.36.38-.53.85-.53,1.42s.18,1.04.53,1.42c.36.38.82.57,1.38.57.42,0,.79-.11,1.1-.32.31-.21.53-.5.66-.86h1.01c-.16.61-.49,1.1-.99,1.48-.5.38-1.09.57-1.78.57Z"/><path d="m74.09,180.25c-.76,0-1.4-.28-1.92-.84-.52-.56-.78-1.23-.78-2.02s.26-1.47.78-2.02c.52-.56,1.16-.84,1.92-.84.4,0,.78.09,1.13.27.35.18.62.41.81.69v-.85h.95v5.5h-.95v-.85c-.19.28-.46.51-.81.69-.35.18-.72.27-1.13.27Zm.14-.87c.54,0,.99-.19,1.34-.57.35-.38.53-.85.53-1.42s-.18-1.04-.53-1.42c-.35-.38-.8-.57-1.34-.57s-1,.19-1.35.57c-.35.38-.53.85-.53,1.42s.18,1.04.53,1.42c.35.38.8.57,1.35.57Z"/><path d="m80.7,180.25c-.6,0-1.09-.2-1.46-.61s-.56-.95-.56-1.62v-3.38h.95v3.23c0,.46.11.83.34,1.1.22.27.53.41.91.41.44,0,.8-.18,1.09-.54.29-.36.43-.85.43-1.47v-2.73h.95v5.5h-.95v-.85c-.36.64-.92.96-1.69.96Z"/><path d="m86.89,180.25c-.62,0-1.13-.15-1.55-.45s-.64-.72-.69-1.25h.97c.06.31.21.54.45.68s.51.22.83.22.57-.06.76-.19c.19-.12.29-.3.29-.54,0-.22-.07-.4-.21-.54-.14-.14-.38-.25-.7-.34l-.79-.21c-.95-.25-1.42-.79-1.42-1.62,0-.45.18-.81.53-1.08.36-.27.81-.41,1.37-.41s1.03.15,1.39.45.57.67.61,1.13h-.95c-.07-.24-.2-.43-.39-.57-.19-.14-.41-.21-.67-.21-.27,0-.5.06-.68.19-.18.12-.27.29-.27.5s.07.36.2.48.34.23.64.31l.88.23c.94.23,1.41.78,1.41,1.63,0,.53-.19.93-.56,1.19s-.86.4-1.46.4Z"/><path d="m92.6,180.25c-.8,0-1.46-.27-1.99-.81s-.79-1.22-.79-2.05.25-1.51.76-2.05,1.19-.81,2.03-.81,1.52.3,2,.9c.48.6.7,1.34.64,2.21h-4.48c.01.5.2.91.55,1.25.35.33.78.5,1.28.5.75,0,1.28-.31,1.59-.92h.97c-.14.51-.44.94-.89,1.28s-1.02.51-1.68.51Zm1.08-4.49c-.3-.26-.66-.39-1.09-.39s-.8.13-1.14.38c-.33.26-.54.64-.62,1.14h3.43c-.09-.5-.28-.88-.58-1.14Z"/><path d="m101.72,180.25c-.83,0-1.52-.28-2.06-.83-.55-.55-.82-1.23-.82-2.03s.27-1.47.82-2.03c.55-.55,1.23-.83,2.06-.83s1.5.28,2.05.83c.55.55.82,1.23.82,2.03s-.27,1.48-.82,2.03c-.55.55-1.23.83-2.05.83Zm-1.38-1.45c.36.38.82.57,1.38.57s1.02-.19,1.38-.57c.35-.38.53-.85.53-1.41s-.18-1.03-.53-1.41c-.35-.38-.81-.57-1.38-.57s-1.02.19-1.38.57c-.36.38-.53.85-.53,1.41s.18,1.03.53,1.41Z"/><path d="m106.32,180.14v-4.63h-1.17v-.87h1.17v-1.11c0-.55.15-.97.46-1.26.31-.29.71-.44,1.22-.44.3,0,.59.05.86.14v.84c-.17-.07-.4-.11-.68-.11-.32,0-.55.07-.69.21-.15.14-.22.38-.22.73v1.01h1.59v.87h-1.59v4.63h-.95Z"/><path d="m117.57,179.41c-.56.58-1.3.86-2.21.86s-1.65-.29-2.21-.86c-.57-.58-.85-1.34-.85-2.3v-4.77h1.02v4.8c0,.7.18,1.23.55,1.61.37.38.86.57,1.49.57s1.12-.19,1.48-.57c.37-.38.55-.91.55-1.61v-4.8h1.02v4.77c0,.96-.28,1.73-.85,2.3Z"/><path d="m120.15,180.14v-5.5h.95v.85c.37-.64.96-.96,1.75-.96.62,0,1.13.2,1.51.61.38.4.57.94.57,1.62v3.39h-.93v-3.24c0-.46-.12-.83-.35-1.09s-.55-.4-.95-.4c-.45,0-.83.18-1.14.54-.3.36-.46.85-.46,1.47v2.73h-.95Z"/><path d="m127.58,172.98c-.12.13-.28.19-.47.19s-.35-.06-.48-.19c-.13-.13-.2-.29-.2-.48s.07-.34.2-.47.29-.2.48-.2.35.07.47.2c.12.13.19.29.19.47s-.06.35-.19.48Zm-.96,7.17v-5.5h.95v5.5h-.95Z"/><path d="m129.37,180.14v-5.5h.95v.85c.37-.64.96-.96,1.75-.96.62,0,1.13.2,1.51.61.38.4.57.94.57,1.62v3.39h-.93v-3.24c0-.46-.12-.83-.35-1.09s-.55-.4-.95-.4c-.45,0-.83.18-1.14.54-.3.36-.46.85-.46,1.47v2.73h-.95Z"/><path d="m137.91,180.2c-.51,0-.91-.14-1.22-.43-.31-.29-.46-.71-.46-1.25v-3h-1.17v-.87h1.17v-1.53h.95v1.53h1.58v.87h-1.58v2.88c0,.34.07.59.22.73s.38.21.69.21c.28,0,.5-.04.67-.11v.85c-.26.09-.55.13-.85.13Z"/><path d="m142.24,180.25c-.8,0-1.46-.27-1.99-.81s-.79-1.22-.79-2.05.25-1.51.76-2.05,1.19-.81,2.03-.81,1.52.3,2,.9c.48.6.7,1.34.64,2.21h-4.48c.01.5.2.91.55,1.25.35.33.78.5,1.28.5.75,0,1.28-.31,1.59-.92h.97c-.14.51-.44.94-.89,1.28s-1.02.51-1.68.51Zm1.08-4.49c-.3-.26-.66-.39-1.09-.39s-.8.13-1.14.38c-.33.26-.54.64-.62,1.14h3.43c-.09-.5-.28-.88-.58-1.14Z"/><path d="m146.26,180.14v-5.5h.95v.85c.37-.64.96-.96,1.75-.96.62,0,1.13.2,1.51.61.38.4.57.94.57,1.62v3.39h-.93v-3.24c0-.46-.12-.83-.35-1.09s-.55-.4-.95-.4c-.45,0-.83.18-1.14.54-.3.36-.46.85-.46,1.47v2.73h-.95Z"/><path d="m154.81,180.2c-.51,0-.91-.14-1.22-.43-.31-.29-.46-.71-.46-1.25v-3h-1.17v-.87h1.17v-1.53h.95v1.53h1.58v.87h-1.58v2.88c0,.34.07.59.22.73s.38.21.69.21c.28,0,.5-.04.67-.11v.85c-.26.09-.55.13-.85.13Z"/><path d="m157.82,172.98c-.12.13-.28.19-.47.19s-.35-.06-.48-.19c-.13-.13-.2-.29-.2-.48s.07-.34.2-.47.29-.2.48-.2.35.07.47.2c.12.13.19.29.19.47s-.06.35-.19.48Zm-.96,7.17v-5.5h.95v5.5h-.95Z"/><path d="m162.05,180.25c-.83,0-1.52-.28-2.06-.83-.55-.55-.82-1.23-.82-2.03s.27-1.47.82-2.03c.55-.55,1.23-.83,2.06-.83s1.5.28,2.05.83c.55.55.82,1.23.82,2.03s-.27,1.48-.82,2.03c-.55.55-1.23.83-2.05.83Zm-1.38-1.45c.36.38.82.57,1.38.57s1.02-.19,1.38-.57c.35-.38.53-.85.53-1.41s-.18-1.03-.53-1.41c-.35-.38-.81-.57-1.38-.57s-1.02.19-1.38.57c-.36.38-.53.85-.53,1.41s.18,1.03.53,1.41Z"/><path d="m166.27,180.14v-5.5h.95v.85c.37-.64.96-.96,1.75-.96.62,0,1.13.2,1.51.61.38.4.57.94.57,1.62v3.39h-.93v-3.24c0-.46-.12-.83-.35-1.09s-.55-.4-.95-.4c-.45,0-.83.18-1.14.54-.3.36-.46.85-.46,1.47v2.73h-.95Z"/><path d="m175.02,180.25c-.76,0-1.4-.28-1.92-.84-.52-.56-.78-1.23-.78-2.02s.26-1.47.78-2.02c.52-.56,1.16-.84,1.92-.84.4,0,.78.09,1.13.27.35.18.62.41.81.69v-.85h.95v5.5h-.95v-.85c-.19.28-.46.51-.81.69-.35.18-.72.27-1.13.27Zm.14-.87c.54,0,.99-.19,1.34-.57.35-.38.53-.85.53-1.42s-.18-1.04-.53-1.42c-.35-.38-.8-.57-1.34-.57s-1,.19-1.35.57c-.35.38-.53.85-.53,1.42s.18,1.04.53,1.42c.35.38.8.57,1.35.57Z"/><path d="m179.68,180.14v-8.25h.95v8.25h-.95Z"/><path d="m185.21,180.14v-7.81h1.02v7.81h-1.02Z"/><path d="m188.14,180.14v-5.5h.95v.85c.37-.64.96-.96,1.75-.96.62,0,1.13.2,1.51.61.38.4.57.94.57,1.62v3.39h-.93v-3.24c0-.46-.12-.83-.35-1.09s-.55-.4-.95-.4c-.45,0-.83.18-1.14.54-.3.36-.46.85-.46,1.47v2.73h-.95Z"/><path d="m195.65,174.64v6.23c0,.55-.15.97-.46,1.25-.31.29-.71.43-1.2.43-.17,0-.32-.01-.45-.03v-.85c.12.01.22.02.32.02.56,0,.85-.31.85-.93v-6.12h.95Zm.01-1.67c-.12.13-.28.19-.47.19s-.35-.06-.48-.19c-.13-.13-.2-.29-.2-.48s.07-.34.2-.47.29-.2.48-.2.35.07.47.2c.12.13.19.29.19.47s-.06.35-.19.48Z"/><path d="m199.39,180.25c-.6,0-1.09-.2-1.46-.61s-.56-.95-.56-1.62v-3.38h.95v3.23c0,.46.11.83.34,1.1.22.27.53.41.91.41.44,0,.8-.18,1.09-.54.29-.36.43-.85.43-1.47v-2.73h.95v5.5h-.95v-.85c-.36.64-.92.96-1.69.96Z"/><path d="m203.81,180.14v-5.5h.95v1.07c.1-.34.3-.61.6-.81s.61-.31.94-.31c.16,0,.3.02.43.04v.98c-.13-.06-.3-.09-.52-.09-.38,0-.72.16-1.01.49-.29.33-.44.8-.44,1.4v2.73h-.95Z"/><path d="m209.3,182.44h-1.06l1.2-2.58-2.41-5.21h1.04l1.89,4.18,1.88-4.18h1.06l-3.61,7.8Z"/><path d="m214.39,179.99c-.16.16-.35.24-.58.24s-.42-.08-.58-.24c-.16-.16-.24-.36-.24-.58s.08-.41.24-.58c.16-.16.35-.25.57-.25s.41.08.57.25c.16.17.24.36.24.58s-.08.42-.24.58Z"/><path d="m148.16,299.76v-4.63h-1.17v-.87h1.17v-1.11c0-.55.15-.97.46-1.26.31-.29.71-.44,1.22-.44.3,0,.59.05.86.14v.84c-.17-.07-.4-.11-.68-.11-.32,0-.55.07-.69.21-.15.14-.22.38-.22.73v1.01h1.59v.87h-1.59v4.63h-.95Z"/><path d="m153.94,299.87c-.8,0-1.46-.27-1.99-.81s-.79-1.22-.79-2.05.25-1.51.76-2.05,1.19-.81,2.03-.81,1.52.3,2,.9c.48.6.7,1.34.64,2.21h-4.48c.01.5.2.91.55,1.25.35.33.78.5,1.28.5.75,0,1.28-.31,1.59-.92h.97c-.14.51-.44.94-.89,1.28s-1.02.51-1.68.51Zm1.08-4.49c-.3-.26-.66-.39-1.09-.39s-.8.13-1.14.38c-.33.26-.54.64-.62,1.14h3.43c-.09-.5-.28-.88-.58-1.14Z"/><path d="m165.05,299.76v-3.23c0-.45-.09-.82-.28-1.09-.19-.28-.46-.41-.81-.41-.44,0-.8.17-1.07.52s-.42.81-.43,1.41v2.82h-.95v-3.23c0-.46-.09-.83-.28-1.1-.19-.27-.45-.41-.8-.41-.46,0-.82.18-1.1.54-.28.36-.42.85-.42,1.47v2.73h-.95v-5.5h.95v.85c.35-.64.91-.96,1.66-.96.84,0,1.4.39,1.69,1.18.15-.36.38-.65.7-.86.32-.21.69-.32,1.1-.32.59,0,1.06.2,1.41.61.34.4.52.95.52,1.63v3.38h-.95Z"/><path d="m169.97,299.87c-.76,0-1.4-.28-1.92-.84-.52-.56-.78-1.23-.78-2.02s.26-1.47.78-2.02c.52-.56,1.16-.84,1.92-.84.4,0,.78.09,1.13.27.35.18.62.41.81.69v-.85h.95v5.5h-.95v-.85c-.19.28-.46.51-.81.69-.35.18-.72.27-1.13.27Zm.14-.87c.54,0,.99-.19,1.34-.57.35-.38.53-.85.53-1.42s-.18-1.04-.53-1.42c-.35-.38-.8-.57-1.34-.57s-1,.19-1.35.57c-.35.38-.53.85-.53,1.42s.18,1.04.53,1.42c.35.38.8.57,1.35.57Z"/><path d="m174.63,299.76v-8.25h.95v8.25h-.95Z"/><path d="m179.71,299.87c-.8,0-1.46-.27-1.99-.81s-.79-1.22-.79-2.05.25-1.51.76-2.05,1.19-.81,2.03-.81,1.52.3,2,.9c.48.6.7,1.34.64,2.21h-4.48c.01.5.2.91.55,1.25.35.33.78.5,1.28.5.75,0,1.28-.31,1.59-.92h.97c-.14.51-.44.94-.89,1.28s-1.02.51-1.68.51Zm1.08-4.49c-.3-.26-.66-.39-1.09-.39s-.8.13-1.14.38c-.33.26-.54.64-.62,1.14h3.43c-.09-.5-.28-.88-.58-1.14Z"/><path d="m188.66,299.87c-.76,0-1.4-.28-1.92-.84-.52-.56-.78-1.23-.78-2.02s.26-1.47.78-2.02c.52-.56,1.16-.84,1.92-.84.4,0,.78.09,1.13.27.35.18.62.41.81.69v-3.6h.95v8.25h-.95v-.85c-.19.28-.46.51-.81.69-.35.18-.72.27-1.13.27Zm.14-.87c.54,0,.99-.19,1.34-.57.35-.38.53-.85.53-1.42s-.18-1.04-.53-1.42c-.35-.38-.8-.57-1.34-.57s-1,.19-1.35.57c-.35.38-.53.85-.53,1.42s.18,1.04.53,1.42c.35.38.8.57,1.35.57Z"/><path d="m195.66,299.87c-.8,0-1.46-.27-1.99-.81s-.79-1.22-.79-2.05.25-1.51.76-2.05,1.19-.81,2.03-.81,1.52.3,2,.9c.48.6.7,1.34.64,2.21h-4.48c.01.5.2.91.55,1.25.35.33.78.5,1.28.5.75,0,1.28-.31,1.59-.92h.97c-.14.51-.44.94-.89,1.28s-1.02.51-1.68.51Zm1.08-4.49c-.3-.26-.66-.39-1.09-.39s-.8.13-1.14.38c-.33.26-.54.64-.62,1.14h3.43c-.09-.5-.28-.88-.58-1.14Z"/><path d="m201.96,299.87c-.76,0-1.4-.28-1.92-.84-.52-.56-.78-1.23-.78-2.02s.26-1.47.78-2.02c.52-.56,1.16-.84,1.92-.84.4,0,.78.09,1.13.27.35.18.62.41.81.69v-.85h.95v5.5h-.95v-.85c-.19.28-.46.51-.81.69-.35.18-.72.27-1.13.27Zm.14-.87c.54,0,.99-.19,1.34-.57.35-.38.53-.85.53-1.42s-.18-1.04-.53-1.42c-.35-.38-.8-.57-1.34-.57s-1,.19-1.35.57c-.35.38-.53.85-.53,1.42s.18,1.04.53,1.42c.35.38.8.57,1.35.57Z"/><path d="m208.75,299.81c-.51,0-.91-.14-1.22-.43-.31-.29-.46-.71-.46-1.25v-3h-1.17v-.87h1.17v-1.53h.95v1.53h1.58v.87h-1.58v2.88c0,.34.07.59.22.73s.38.21.69.21c.28,0,.5-.04.67-.11v.85c-.26.09-.55.13-.85.13Z"/><path d="m211.76,299.76h-.95v-8.25h.95v3.6c.37-.64.96-.96,1.75-.96.62,0,1.13.2,1.51.61.38.4.57.94.57,1.62v3.39h-.93v-3.24c0-.46-.12-.83-.35-1.09s-.55-.4-.95-.4c-.45,0-.83.18-1.14.54-.3.36-.46.85-.46,1.47v2.73Z"/><path d="m219.94,299.76v-5.5h.95v1.07c.1-.34.3-.61.6-.81s.61-.31.94-.31c.16,0,.3.02.43.04v.98c-.13-.06-.3-.09-.52-.09-.38,0-.72.16-1.01.49-.29.33-.44.8-.44,1.4v2.73h-.95Z"/><path d="m226.05,299.87c-.76,0-1.4-.28-1.92-.84-.52-.56-.78-1.23-.78-2.02s.26-1.47.78-2.02c.52-.56,1.16-.84,1.92-.84.4,0,.78.09,1.13.27.35.18.62.41.81.69v-.85h.95v5.5h-.95v-.85c-.19.28-.46.51-.81.69-.35.18-.72.27-1.13.27Zm.14-.87c.54,0,.99-.19,1.34-.57.35-.38.53-.85.53-1.42s-.18-1.04-.53-1.42c-.35-.38-.8-.57-1.34-.57s-1,.19-1.35.57c-.35.38-.53.85-.53,1.42s.18,1.04.53,1.42c.35.38.8.57,1.35.57Z"/><path d="m232.84,299.81c-.51,0-.91-.14-1.22-.43-.31-.29-.46-.71-.46-1.25v-3h-1.17v-.87h1.17v-1.53h.95v1.53h1.58v.87h-1.58v2.88c0,.34.07.59.22.73s.38.21.69.21c.28,0,.5-.04.67-.11v.85c-.26.09-.55.13-.85.13Z"/><path d="m237.17,299.87c-.8,0-1.46-.27-1.99-.81s-.79-1.22-.79-2.05.25-1.51.76-2.05,1.19-.81,2.03-.81,1.52.3,2,.9c.48.6.7,1.34.64,2.21h-4.48c.01.5.2.91.55,1.25.35.33.78.5,1.28.5.75,0,1.28-.31,1.59-.92h.97c-.14.51-.44.94-.89,1.28s-1.02.51-1.68.51Zm1.08-4.49c-.3-.26-.66-.39-1.09-.39s-.8.13-1.14.38c-.33.26-.54.64-.62,1.14h3.43c-.09-.5-.28-.88-.58-1.14Z"/><path d="m242.39,295.53c-.16.16-.35.24-.58.24s-.42-.08-.58-.24c-.16-.16-.24-.36-.24-.58s.08-.41.24-.58c.16-.17.35-.25.57-.25s.41.08.57.25.24.36.24.58-.08.42-.24.58Zm0,4.07c-.16.16-.35.24-.58.24s-.42-.08-.58-.24c-.16-.16-.24-.36-.24-.58s.08-.41.24-.58c.16-.16.35-.25.57-.25s.41.08.57.25c.16.17.24.36.24.58s-.08.42-.24.58Z"/><path d="m250.9,299.12c-.5.5-1.13.75-1.89.75s-1.39-.25-1.89-.75-.76-1.11-.76-1.83c0-.38.07-.72.22-1.03s.37-.62.66-.96l2.85-3.35h1.2l-2.39,2.83c.13-.01.24-.02.31-.02.65,0,1.22.25,1.71.75.49.5.73,1.09.73,1.77,0,.73-.25,1.34-.75,1.84Zm-1.89-.16c.47,0,.87-.16,1.19-.49.32-.33.48-.73.48-1.19s-.16-.86-.48-1.19c-.32-.33-.72-.49-1.19-.49s-.88.16-1.2.49c-.32.33-.48.72-.48,1.19s.16.87.48,1.19c.32.33.72.49,1.2.49Z"/><path d="m255.13,299.87c-.7,0-1.31-.22-1.83-.66-.51-.44-.78-.96-.79-1.56h.97c.09.38.28.69.58.94.3.24.66.36,1.07.36.48,0,.88-.16,1.2-.48.32-.32.48-.72.48-1.19s-.15-.88-.46-1.2c-.31-.32-.7-.48-1.18-.48-.65,0-1.14.26-1.47.79l-.9-.26.8-4.17h3.65v.92h-2.89l-.43,2.23c.38-.27.84-.41,1.36-.41.73,0,1.32.25,1.79.76.46.51.7,1.15.7,1.93,0,.69-.25,1.28-.76,1.76s-1.14.72-1.89.72Z"/><path d="m260.18,299.6c-.16.16-.35.24-.58.24s-.42-.08-.58-.24c-.16-.16-.24-.36-.24-.58s.08-.41.24-.58c.16-.16.35-.25.57-.25s.41.08.57.25c.16.17.24.36.24.58s-.08.42-.24.58Z"/><path d="m264.14,299.87c-.76,0-1.39-.23-1.89-.69-.5-.46-.74-1.05-.74-1.76,0-.95.41-1.63,1.23-2.04-.54-.38-.8-.9-.8-1.55,0-.59.21-1.07.62-1.45.41-.38.94-.57,1.58-.57s1.17.19,1.58.57c.41.38.61.86.61,1.45,0,.66-.26,1.18-.79,1.55.81.4,1.22,1.08,1.22,2.04,0,.71-.24,1.3-.73,1.76-.49.46-1.12.69-1.89.69Zm0-.9c.51,0,.92-.15,1.21-.44s.45-.66.45-1.11-.15-.83-.45-1.12c-.3-.29-.7-.44-1.21-.44s-.9.15-1.21.45c-.31.3-.46.67-.46,1.12s.15.81.46,1.11c.31.3.71.45,1.21.45Zm0-3.96c.38,0,.69-.11.91-.33.23-.22.34-.5.34-.82s-.11-.61-.34-.83-.53-.32-.92-.32-.68.11-.91.32c-.24.22-.35.49-.35.82s.12.59.35.81c.23.23.54.34.91.34Z"/><path d="m268.09,299.76l2.41-2.84c-.08,0-.18.01-.31.01-.65,0-1.22-.25-1.71-.75-.49-.5-.73-1.09-.73-1.76,0-.73.25-1.35.75-1.85.5-.5,1.13-.75,1.89-.75s1.39.25,1.89.75.76,1.11.76,1.83c0,.38-.08.72-.23,1.03s-.37.62-.65.96l-2.86,3.38h-1.21Zm1.11-4.15c.32.33.72.49,1.19.49s.88-.16,1.2-.49c.32-.33.48-.72.48-1.19s-.16-.87-.48-1.19c-.32-.33-.72-.49-1.2-.49s-.88.16-1.19.49c-.32.33-.48.72-.48,1.19s.16.87.48,1.19Z"/><path d="m275.15,299.76h-1.06l3.64-6.89h-3.99v-.92h5.13v.79l-3.72,7.02Z"/><path d="m256.38,67.48v-3.23c0-.46-.09-.82-.28-1.09-.19-.28-.46-.41-.81-.41-.44,0-.8.17-1.07.52s-.42.81-.43,1.41v2.82h-.95v-3.23c0-.46-.09-.83-.28-1.1-.19-.27-.45-.41-.8-.41-.46,0-.82.18-1.1.54s-.42.85-.42,1.47v2.73h-.95v-5.5h.95v.85c.35-.64.91-.96,1.66-.96.84,0,1.4.39,1.69,1.18.15-.36.38-.65.7-.86.32-.21.69-.32,1.1-.32.59,0,1.06.2,1.41.6s.52.95.52,1.63v3.38h-.95Z"/><path d="m261.3,67.59c-.76,0-1.4-.28-1.92-.84-.52-.56-.78-1.23-.78-2.02s.26-1.47.78-2.02c.52-.56,1.16-.84,1.92-.84.4,0,.78.09,1.13.27.35.18.62.41.81.69v-.85h.95v5.5h-.95v-.85c-.19.28-.46.51-.81.69-.35.18-.72.27-1.13.27Zm.14-.87c.54,0,.99-.19,1.34-.57.35-.38.53-.85.53-1.42s-.18-1.04-.53-1.42c-.35-.38-.8-.57-1.34-.57s-1,.19-1.35.57c-.35.38-.53.85-.53,1.42s.18,1.04.53,1.42c.35.38.8.57,1.35.57Z"/><path d="m265.97,67.48v-8.25h.95v8.25h-.95Z"/><path d="m271.05,67.59c-.8,0-1.46-.27-1.99-.81-.52-.54-.79-1.22-.79-2.05s.25-1.51.76-2.05c.51-.54,1.19-.81,2.03-.81s1.52.3,2,.9c.48.6.7,1.34.64,2.21h-4.48c.01.5.2.92.55,1.25.35.33.78.5,1.28.5.75,0,1.28-.31,1.59-.92h.97c-.14.51-.44.94-.89,1.28-.46.34-1.02.51-1.68.51Zm1.08-4.49c-.3-.26-.66-.39-1.09-.39s-.8.13-1.14.38c-.33.26-.54.64-.62,1.14h3.43c-.09-.5-.28-.88-.58-1.14Z"/><path d="m279.99,67.59c-.76,0-1.4-.28-1.92-.84-.52-.56-.78-1.23-.78-2.02s.26-1.47.78-2.02c.52-.56,1.16-.84,1.92-.84.4,0,.78.09,1.13.27.35.18.62.41.81.69v-3.6h.95v8.25h-.95v-.85c-.19.28-.46.51-.81.69-.35.18-.72.27-1.13.27Zm.14-.87c.54,0,.99-.19,1.34-.57.35-.38.53-.85.53-1.42s-.18-1.04-.53-1.42c-.35-.38-.8-.57-1.34-.57s-1,.19-1.35.57c-.35.38-.53.85-.53,1.42s.18,1.04.53,1.42c.35.38.8.57,1.35.57Z"/><path d="m287,67.59c-.8,0-1.46-.27-1.99-.81-.52-.54-.79-1.22-.79-2.05s.25-1.51.76-2.05c.51-.54,1.19-.81,2.03-.81s1.52.3,2,.9c.48.6.7,1.34.64,2.21h-4.48c.01.5.2.92.55,1.25.35.33.78.5,1.28.5.75,0,1.28-.31,1.59-.92h.97c-.14.51-.44.94-.89,1.28-.46.34-1.02.51-1.68.51Zm1.08-4.49c-.3-.26-.66-.39-1.09-.39s-.8.13-1.14.38c-.33.26-.54.64-.62,1.14h3.43c-.09-.5-.28-.88-.58-1.14Z"/><path d="m293.29,67.59c-.76,0-1.4-.28-1.92-.84-.52-.56-.78-1.23-.78-2.02s.26-1.47.78-2.02c.52-.56,1.16-.84,1.92-.84.4,0,.78.09,1.13.27.35.18.62.41.81.69v-.85h.95v5.5h-.95v-.85c-.19.28-.46.51-.81.69-.35.18-.72.27-1.13.27Zm.14-.87c.54,0,.99-.19,1.34-.57.35-.38.53-.85.53-1.42s-.18-1.04-.53-1.42c-.35-.38-.8-.57-1.34-.57s-1,.19-1.35.57c-.35.38-.53.85-.53,1.42s.18,1.04.53,1.42c.35.38.8.57,1.35.57Z"/><path d="m300.09,67.53c-.51,0-.91-.14-1.22-.43-.31-.29-.46-.7-.46-1.25v-3h-1.17v-.87h1.17v-1.53h.95v1.53h1.58v.87h-1.58v2.88c0,.34.07.59.22.73.15.14.38.21.69.21.28,0,.5-.04.67-.11v.85c-.26.09-.55.13-.85.13Z"/><path d="m303.09,67.48h-.95v-8.25h.95v3.6c.37-.64.96-.96,1.75-.96.62,0,1.13.2,1.51.6.38.4.57.94.57,1.62v3.39h-.93v-3.25c0-.46-.12-.83-.35-1.09s-.55-.4-.95-.4c-.45,0-.83.18-1.14.54-.3.36-.46.85-.46,1.47v2.73Z"/><path d="m311.28,67.48v-5.5h.95v1.07c.1-.34.3-.61.6-.81.3-.21.61-.31.94-.31.16,0,.3.01.43.04v.98c-.13-.06-.3-.09-.52-.09-.38,0-.72.17-1.01.5-.29.33-.44.8-.44,1.4v2.73h-.95Z"/><path d="m317.38,67.59c-.76,0-1.4-.28-1.92-.84-.52-.56-.78-1.23-.78-2.02s.26-1.47.78-2.02c.52-.56,1.16-.84,1.92-.84.4,0,.78.09,1.13.27.35.18.62.41.81.69v-.85h.95v5.5h-.95v-.85c-.19.28-.46.51-.81.69-.35.18-.72.27-1.13.27Zm.14-.87c.54,0,.99-.19,1.34-.57.35-.38.53-.85.53-1.42s-.18-1.04-.53-1.42c-.35-.38-.8-.57-1.34-.57s-1,.19-1.35.57c-.35.38-.53.85-.53,1.42s.18,1.04.53,1.42c.35.38.8.57,1.35.57Z"/><path d="m324.18,67.53c-.51,0-.91-.14-1.22-.43-.31-.29-.46-.7-.46-1.25v-3h-1.17v-.87h1.17v-1.53h.95v1.53h1.58v.87h-1.58v2.88c0,.34.07.59.22.73.15.14.38.21.69.21.28,0,.5-.04.67-.11v.85c-.26.09-.55.13-.85.13Z"/><path d="m328.5,67.59c-.8,0-1.46-.27-1.99-.81-.52-.54-.79-1.22-.79-2.05s.25-1.51.76-2.05c.51-.54,1.19-.81,2.03-.81s1.52.3,2,.9c.48.6.7,1.34.64,2.21h-4.48c.01.5.2.92.55,1.25.35.33.78.5,1.28.5.75,0,1.28-.31,1.59-.92h.97c-.14.51-.44.94-.89,1.28-.46.34-1.02.51-1.68.51Zm1.08-4.49c-.3-.26-.66-.39-1.09-.39s-.8.13-1.14.38c-.33.26-.54.64-.62,1.14h3.43c-.09-.5-.28-.88-.58-1.14Z"/><path d="m333.72,63.25c-.16.16-.35.24-.58.24s-.42-.08-.58-.24c-.16-.16-.24-.36-.24-.58s.08-.41.24-.58c.16-.17.35-.25.57-.25s.41.08.57.25c.16.16.24.36.24.58s-.08.42-.24.58Zm0,4.07c-.16.16-.35.24-.58.24s-.42-.08-.58-.24c-.16-.16-.24-.36-.24-.58s.08-.41.24-.58c.16-.17.35-.25.57-.25s.41.08.57.25.24.36.24.58-.08.42-.24.58Z"/><path d="m339.03,67.48h-1.06l3.64-6.89h-3.99v-.92h5.13v.79l-3.72,7.02Z"/><path d="m346.59,67.48v-2.12h-4.16v-.76l4.28-4.93h.83v4.8h1.08v.89h-1.08v2.12h-.95Zm-2.93-3.01h2.93v-3.37l-2.93,3.37Z"/><path d="m350.99,67.32c-.16.16-.35.24-.58.24s-.42-.08-.58-.24c-.16-.16-.24-.36-.24-.58s.08-.41.24-.58c.16-.17.35-.25.57-.25s.41.08.57.25.24.36.24.58-.08.42-.24.58Z"/><path d="m355.07,67.59c-.78,0-1.44-.24-1.97-.71-.54-.47-.81-1.06-.81-1.78h.96c.03.46.22.84.56,1.13s.77.43,1.26.43c.46,0,.83-.12,1.13-.37.3-.25.45-.59.45-1.03,0-.47-.15-.82-.46-1.06-.3-.24-.72-.35-1.25-.35h-.58v-.87h.63c.42,0,.76-.12,1.03-.35s.41-.54.41-.91c0-.37-.13-.67-.4-.9-.27-.23-.6-.35-1.01-.35-.46,0-.85.14-1.17.41-.32.27-.47.65-.47,1.13h-.97c0-.75.25-1.35.75-1.79.5-.45,1.12-.67,1.86-.67.68,0,1.25.2,1.7.59.45.39.68.91.68,1.56,0,.37-.11.71-.3,1.01-.19.3-.45.53-.75.69.4.16.71.41.93.74.23.33.34.72.34,1.16,0,.68-.24,1.24-.72,1.66-.48.42-1.09.64-1.84.64Z"/><path d="m358.99,67.48l2.41-2.84c-.08,0-.18.01-.31.01-.65,0-1.22-.25-1.71-.75-.49-.5-.73-1.08-.73-1.76,0-.73.25-1.35.75-1.85s1.13-.75,1.89-.75,1.39.25,1.89.75c.51.5.76,1.11.76,1.83,0,.38-.08.72-.23,1.03-.15.3-.37.62-.65.96l-2.86,3.38h-1.21Zm1.11-4.15c.32.33.72.49,1.19.49s.88-.16,1.2-.49c.32-.33.48-.72.48-1.19s-.16-.87-.48-1.19c-.32-.33-.72-.49-1.2-.49s-.88.16-1.19.49c-.32.33-.48.72-.48,1.19s.16.87.48,1.19Z"/><path d="m365.14,67.48l2.41-2.84c-.08,0-.18.01-.31.01-.65,0-1.22-.25-1.71-.75-.49-.5-.73-1.08-.73-1.76,0-.73.25-1.35.75-1.85s1.13-.75,1.89-.75,1.39.25,1.89.75c.51.5.76,1.11.76,1.83,0,.38-.08.72-.23,1.03-.15.3-.37.62-.65.96l-2.86,3.38h-1.21Zm1.11-4.15c.32.33.72.49,1.19.49s.88-.16,1.2-.49c.32-.33.48-.72.48-1.19s-.16-.87-.48-1.19c-.32-.33-.72-.49-1.2-.49s-.88.16-1.19.49c-.32.33-.48.72-.48,1.19s.16.87.48,1.19Z"/><line class="cls-2" x1="173.91" y1="198.43" x2="195.05" y2="276.39"/><line class="cls-2" x1="295.12" y1="85.33" x2="252.6" y2="143.78"/></g></svg>