<?xml version="1.0" encoding="UTF-8"?><svg id="_图层_2" xmlns="http://www.w3.org/2000/svg" viewBox="0 0 349.19 349.48"><defs><style>.cls-1{fill:#fff;}.cls-2{letter-spacing:0em;}.cls-3{letter-spacing:-.02em;}.cls-4{letter-spacing:-.02em;}.cls-5{letter-spacing:-.02em;}.cls-6{letter-spacing:0em;}.cls-7{letter-spacing:0em;}.cls-8{letter-spacing:-.06em;}.cls-9{font-family:EuclidCircularA-Regular, 'Euclid Circular A';font-size:11px;}.cls-10{letter-spacing:-.02em;}.cls-11{letter-spacing:0em;}.cls-12{letter-spacing:-.01em;}.cls-13{letter-spacing:-.02em;}.cls-14{letter-spacing:0em;}.cls-15{letter-spacing:-.03em;}.cls-16{fill:none;stroke:#241f20;stroke-miterlimit:10;stroke-width:.5px;}</style></defs><g id="_图层_1-2"><path class="cls-1" d="m347.41,170.13c15.81,152.06-76.03,93.35-182.93,170.13C99.95,386.62-12.43,246.92,1.12,170.13,17.45,77.6,63.45,0,164.48,0s173.21,76.67,182.93,170.13Z"/><text class="cls-9" transform="translate(18.06 178.09)"><tspan class="cls-11" x="0" y="0">I</tspan><tspan x="3.07" y="0">n 2019</tspan><tspan class="cls-13" x="34.91" y="0"> </tspan><tspan x="37.38" y="0">the</tspan><tspan class="cls-5" x="54.42" y="0">r</tspan><tspan x="58.24" y="0">e</tspan><tspan class="cls-3" x="64.61" y="0"> </tspan><tspan class="cls-11" x="67.07" y="0">w</tspan><tspan x="75.44" y="0">e</tspan><tspan class="cls-3" x="81.81" y="0">r</tspan><tspan x="85.64" y="0">e 1</tspan><tspan class="cls-8" x="98.23" y="0">7</tspan><tspan x="103.18" y="0">6.2 pe</tspan><tspan class="cls-4" x="134.2" y="0">r</tspan><tspan x="137.95" y="0" xml:space="preserve"> 10</tspan><tspan class="cls-10" x="151.03" y="0">0,</tspan><tspan x="160.35" y="0">000 deaths</tspan><tspan x="0" y="13.2">because </tspan><tspan class="cls-7" x="47.22" y="13.2">o</tspan><tspan class="cls-15" x="53.8" y="13.2">f</tspan><tspan x="57.55" y="13.2"> </tspan><tspan class="cls-2" x="60.2" y="13.2">H</tspan><tspan x="68.5" y="13.2">eart </tspan><tspan class="cls-14" x="92.67" y="13.2">D</tspan><tspan x="100.54" y="13.2">isease.</tspan></text><text class="cls-9" transform="translate(69.76 64.39)"><tspan class="cls-14" x="0" y="0">(</tspan><tspan x="2.97" y="0">50%)</tspan><tspan class="cls-5" x="29.84" y="0"> </tspan><tspan class="cls-6" x="32.3" y="0">w</tspan><tspan x="40.67" y="0">e</tspan><tspan class="cls-5" x="47.04" y="0">r</tspan><tspan x="50.86" y="0">e</tspan><tspan class="cls-12" x="57.23" y="0" xml:space="preserve"> f</tspan><tspan x="63.64" y="0">emale</tspan></text><text class="cls-9" transform="translate(208.52 270.23)"><tspan class="cls-14" x="0" y="0">(</tspan><tspan x="2.97" y="0">50%)</tspan><tspan class="cls-5" x="29.84" y="0"> </tspan><tspan class="cls-6" x="32.3" y="0">w</tspan><tspan x="40.67" y="0">e</tspan><tspan class="cls-5" x="47.04" y="0">r</tspan><tspan x="50.86" y="0">e male</tspan></text><line class="cls-16" x1="115.16" y1="78.61" x2="138.69" y2="155.85"/><line class="cls-16" x1="242.17" y1="246.36" x2="165.08" y2="203.47"/></g></svg>