<?xml version="1.0" encoding="UTF-8"?><svg id="_图层_1" xmlns="http://www.w3.org/2000/svg" viewBox="0 0 155.03 134.75"><defs><style>.cls-1{fill:none;stroke:#040000;stroke-miterlimit:10;stroke-width:3px;}</style></defs><path class="cls-1" d="m118.32,67.56c-.38,21.08-10.01,38.84-24.97,48.83-9.38,6.27-20.85,9.48-33.46,8.56C29.15,122.71,2.12,93.35,1.51,60.78.86,25.88,25.27,2.94,54.6,1.56,88.35-.03,118.99,30.33,118.32,67.56Z"/><polygon class="cls-1" points="98.89 123.22 108.33 114.08 101.92 111 95.94 115.88 98.89 123.22"/><path class="cls-1" d="m104.61,119.49c3.65,4.13,9.01,6.49,14.45,7.34s11.02.31,16.45-.6c3.62-.61,7.48-1.37,10.86.06,3.32,1.4,5.45,4.61,7.39,7.65"/></svg>